<?xml version="1.0" standalone="no"?>
<!DOCTYPE svg PUBLIC "-//W3C//DTD SVG 1.1//EN" "http://www.w3.org/Graphics/SVG/1.1/DTD/svg11.dtd">
<svg style="stroke-linejoin:miter; stroke:black; stroke-width:2.5; text-anchor:middle; fill:none" xmlns="http://www.w3.org/2000/svg" font-family="Helvetica, Arial, FreeSans, Sans, sans, sans-serif" width="1000px" height="1000px" version="1.1" xmlns:xlink="http://www.w3.org/1999/xlink" viewBox="0 0 1000 1000">
<defs>
    <clipPath id="Histogram_0_clip">
        <rect x="120" y="50" width="830" height="870" />
    </clipPath>
    <clipPath id="Histogram_1_clip">
        <rect x="120" y="50" width="830" height="870" />
    </clipPath>
</defs>
<g id="whole_document">
<rect id="background" x="0" y="0" width="1000" height="1000" stroke="none" fill="white" />
<g id="Histogram_0" clip-path="url(#Histogram_0_clip)">
    <path d="M 120 920 L 120 129.091 L 161.5 129.091 L 161.5 713.006 L 203 713.006 L 203 825.592 L 244.5 825.592 L 244.5 786.495 L 286 786.495 L 286 896.632 L 327.5 896.632 L 327.5 901.628 L 369 901.628 L 369 904.11 L 410.5 904.11 L 410.5 918.163 L 452 918.163 L 452 918.55 L 493.5 918.55 L 493.5 917.196 L 535 917.196 L 535 914.875 L 576.5 914.875 L 576.5 918.904 L 618 918.904 L 618 918.872 L 659.5 918.872 L 659.5 917.164 L 701 917.164 L 701 916.326 L 742.5 916.326 L 742.5 920 L 784 920 L 784 920 L 825.5 920 L 825.5 919.226 L 867 919.226 L 867 918.55 L 908.5 918.55 L 908.5 920 L 950 920 L 950 920" stroke-width="3" stroke-dasharray="" stroke="black" stroke-opacity="1" fill="DodgerBlue" fill-opacity="1" />
</g>
<g id="Histogram_1" clip-path="url(#Histogram_1_clip)">
    <path d="M 120 920 L 120 920 L 161.5 920 L 161.5 920 L 203 920 L 203 920 L 244.5 920 L 244.5 797.422 L 286 797.422 L 286 920 L 327.5 920 L 327.5 901.628 L 369 901.628 L 369 910.008 L 410.5 910.008 L 410.5 920 L 452 920 L 452 920 L 493.5 920 L 493.5 917.196 L 535 917.196 L 535 916.132 L 576.5 916.132 L 576.5 920 L 618 920 L 618 918.872 L 659.5 918.872 L 659.5 920 L 701 920 L 701 920 L 742.5 920 L 742.5 920 L 784 920 L 784 920 L 825.5 920 L 825.5 920 L 867 920 L 867 920 L 908.5 920 L 908.5 920 L 950 920 L 950 920" stroke-width="3" stroke-dasharray="" stroke="black" stroke-opacity="1" fill="darkorange" fill-opacity="1" />
</g>
<g id="frame_0">
    <rect id="frame_0_border" x="120" y="50" width="830" height="870" />
    <text id="frame_0_bottomlabel" font-size="30" transform="translate(535, 989.6)" text-anchor="middle" dominant-baseline="middle" stroke="none" fill="black">microseconds</text>
    <g id="frame_0_bottomticks">
        <path d="M 120 920 L 120 900" />
        <text font-size="30" transform="translate(120, 950)" text-anchor="middle" dominant-baseline="middle" stroke="none" fill="black">0</text>
        <path d="M 136.6 920 L 136.6 910" />
        <path d="M 153.2 920 L 153.2 910" />
        <path d="M 169.8 920 L 169.8 910" />
        <path d="M 186.4 920 L 186.4 910" />
        <path d="M 203 920 L 203 910" />
        <path d="M 219.6 920 L 219.6 910" />
        <path d="M 236.2 920 L 236.2 910" />
        <path d="M 252.8 920 L 252.8 910" />
        <path d="M 269.4 920 L 269.4 910" />
        <path d="M 286 920 L 286 900" />
        <text font-size="30" transform="translate(286, 950)" text-anchor="middle" dominant-baseline="middle" stroke="none" fill="black">10</text>
        <path d="M 302.6 920 L 302.6 910" />
        <path d="M 319.2 920 L 319.2 910" />
        <path d="M 335.8 920 L 335.8 910" />
        <path d="M 352.4 920 L 352.4 910" />
        <path d="M 369 920 L 369 910" />
        <path d="M 385.6 920 L 385.6 910" />
        <path d="M 402.2 920 L 402.2 910" />
        <path d="M 418.8 920 L 418.8 910" />
        <path d="M 435.4 920 L 435.4 910" />
        <path d="M 452 920 L 452 900" />
        <text font-size="30" transform="translate(452, 950)" text-anchor="middle" dominant-baseline="middle" stroke="none" fill="black">20</text>
        <path d="M 468.6 920 L 468.6 910" />
        <path d="M 485.2 920 L 485.2 910" />
        <path d="M 501.8 920 L 501.8 910" />
        <path d="M 518.4 920 L 518.4 910" />
        <path d="M 535 920 L 535 910" />
        <path d="M 551.6 920 L 551.6 910" />
        <path d="M 568.2 920 L 568.2 910" />
        <path d="M 584.8 920 L 584.8 910" />
        <path d="M 601.4 920 L 601.4 910" />
        <path d="M 618 920 L 618 900" />
        <text font-size="30" transform="translate(618, 950)" text-anchor="middle" dominant-baseline="middle" stroke="none" fill="black">30</text>
        <path d="M 634.6 920 L 634.6 910" />
        <path d="M 651.2 920 L 651.2 910" />
        <path d="M 667.8 920 L 667.8 910" />
        <path d="M 684.4 920 L 684.4 910" />
        <path d="M 701 920 L 701 910" />
        <path d="M 717.6 920 L 717.6 910" />
        <path d="M 734.2 920 L 734.2 910" />
        <path d="M 750.8 920 L 750.8 910" />
        <path d="M 767.4 920 L 767.4 910" />
        <path d="M 784 920 L 784 900" />
        <text font-size="30" transform="translate(784, 950)" text-anchor="middle" dominant-baseline="middle" stroke="none" fill="black">40</text>
        <path d="M 800.6 920 L 800.6 910" />
        <path d="M 817.2 920 L 817.2 910" />
        <path d="M 833.8 920 L 833.8 910" />
        <path d="M 850.4 920 L 850.4 910" />
        <path d="M 867 920 L 867 910" />
        <path d="M 883.6 920 L 883.6 910" />
        <path d="M 900.2 920 L 900.2 910" />
        <path d="M 916.8 920 L 916.8 910" />
        <path d="M 933.4 920 L 933.4 910" />
        <path d="M 950 920 L 950 900" />
        <text font-size="30" transform="translate(950, 950)" text-anchor="middle" dominant-baseline="middle" stroke="none" fill="black">50</text>
    </g>
    <g id="frame_0_leftticks">
        <path d="M 120 662.144 L 130 662.144" />
        <path d="M 120 146.432 L 130 146.432" />
        <path d="M 120 114.2 L 140 114.2" />
        <text font-size="30" transform="translate(110, 124.2)" text-anchor="end" dominant-baseline="middle" stroke="none" fill="black">25000</text>
        <path d="M 120 920 L 140 920" />
        <text font-size="30" transform="translate(110, 930)" text-anchor="end" dominant-baseline="middle" stroke="none" fill="black">0</text>
        <path d="M 120 243.128 L 130 243.128" />
        <path d="M 120 372.056 L 130 372.056" />
        <path d="M 120 629.912 L 130 629.912" />
        <path d="M 120 339.824 L 130 339.824" />
        <path d="M 120 565.448 L 130 565.448" />
        <path d="M 120 81.9677 L 130 81.9677" />
        <path d="M 120 210.896 L 130 210.896" />
        <path d="M 120 178.664 L 130 178.664" />
        <path d="M 120 468.752 L 130 468.752" />
        <path d="M 120 597.68 L 140 597.68" />
        <text font-size="30" transform="translate(110, 607.68)" text-anchor="end" dominant-baseline="middle" stroke="none" fill="black">10000</text>
        <path d="M 120 758.84 L 140 758.84" />
        <text font-size="30" transform="translate(110, 768.84)" text-anchor="end" dominant-baseline="middle" stroke="none" fill="black">5000</text>
        <path d="M 120 791.072 L 130 791.072" />
        <path d="M 120 855.536 L 130 855.536" />
        <path d="M 120 275.36 L 140 275.36" />
        <text font-size="30" transform="translate(110, 285.36)" text-anchor="end" dominant-baseline="middle" stroke="none" fill="black">20000</text>
        <path d="M 120 887.768 L 130 887.768" />
        <path d="M 120 436.52 L 140 436.52" />
        <text font-size="30" transform="translate(110, 446.52)" text-anchor="end" dominant-baseline="middle" stroke="none" fill="black">15000</text>
        <path d="M 120 726.608 L 130 726.608" />
        <path d="M 120 500.984 L 130 500.984" />
        <path d="M 120 823.304 L 130 823.304" />
        <path d="M 120 694.376 L 130 694.376" />
        <path d="M 120 307.592 L 130 307.592" />
        <path d="M 120 404.288 L 130 404.288" />
        <path d="M 120 533.216 L 130 533.216" />
    </g>
    <text id="frame_0_toplabel" font-size="30" transform="translate(535, 32.6)" text-anchor="middle" dominant-baseline="middle" stroke="none" fill="black">map.argminLT</text>
    <g id="frame_0_topticks">
        <path d="M 120 50 L 120 70" />
        <path d="M 136.6 50 L 136.6 60" />
        <path d="M 153.2 50 L 153.2 60" />
        <path d="M 169.8 50 L 169.8 60" />
        <path d="M 186.4 50 L 186.4 60" />
        <path d="M 203 50 L 203 60" />
        <path d="M 219.6 50 L 219.6 60" />
        <path d="M 236.2 50 L 236.2 60" />
        <path d="M 252.8 50 L 252.8 60" />
        <path d="M 269.4 50 L 269.4 60" />
        <path d="M 286 50 L 286 70" />
        <path d="M 302.6 50 L 302.6 60" />
        <path d="M 319.2 50 L 319.2 60" />
        <path d="M 335.8 50 L 335.8 60" />
        <path d="M 352.4 50 L 352.4 60" />
        <path d="M 369 50 L 369 60" />
        <path d="M 385.6 50 L 385.6 60" />
        <path d="M 402.2 50 L 402.2 60" />
        <path d="M 418.8 50 L 418.8 60" />
        <path d="M 435.4 50 L 435.4 60" />
        <path d="M 452 50 L 452 70" />
        <path d="M 468.6 50 L 468.6 60" />
        <path d="M 485.2 50 L 485.2 60" />
        <path d="M 501.8 50 L 501.8 60" />
        <path d="M 518.4 50 L 518.4 60" />
        <path d="M 535 50 L 535 60" />
        <path d="M 551.6 50 L 551.6 60" />
        <path d="M 568.2 50 L 568.2 60" />
        <path d="M 584.8 50 L 584.8 60" />
        <path d="M 601.4 50 L 601.4 60" />
        <path d="M 618 50 L 618 70" />
        <path d="M 634.6 50 L 634.6 60" />
        <path d="M 651.2 50 L 651.2 60" />
        <path d="M 667.8 50 L 667.8 60" />
        <path d="M 684.4 50 L 684.4 60" />
        <path d="M 701 50 L 701 60" />
        <path d="M 717.6 50 L 717.6 60" />
        <path d="M 734.2 50 L 734.2 60" />
        <path d="M 750.8 50 L 750.8 60" />
        <path d="M 767.4 50 L 767.4 60" />
        <path d="M 784 50 L 784 70" />
        <path d="M 800.6 50 L 800.6 60" />
        <path d="M 817.2 50 L 817.2 60" />
        <path d="M 833.8 50 L 833.8 60" />
        <path d="M 850.4 50 L 850.4 60" />
        <path d="M 867 50 L 867 60" />
        <path d="M 883.6 50 L 883.6 60" />
        <path d="M 900.2 50 L 900.2 60" />
        <path d="M 916.8 50 L 916.8 60" />
        <path d="M 933.4 50 L 933.4 60" />
        <path d="M 950 50 L 950 70" />
    </g>
    <g id="frame_0_rightticks">
        <path d="M 950 662.144 L 940 662.144" />
        <path d="M 950 146.432 L 940 146.432" />
        <path d="M 950 114.2 L 930 114.2" />
        <path d="M 950 920 L 930 920" />
        <path d="M 950 243.128 L 940 243.128" />
        <path d="M 950 372.056 L 940 372.056" />
        <path d="M 950 629.912 L 940 629.912" />
        <path d="M 950 339.824 L 940 339.824" />
        <path d="M 950 565.448 L 940 565.448" />
        <path d="M 950 81.9677 L 940 81.9677" />
        <path d="M 950 210.896 L 940 210.896" />
        <path d="M 950 178.664 L 940 178.664" />
        <path d="M 950 468.752 L 940 468.752" />
        <path d="M 950 597.68 L 930 597.68" />
        <path d="M 950 758.84 L 930 758.84" />
        <path d="M 950 791.072 L 940 791.072" />
        <path d="M 950 855.536 L 940 855.536" />
        <path d="M 950 275.36 L 930 275.36" />
        <path d="M 950 887.768 L 940 887.768" />
        <path d="M 950 436.52 L 930 436.52" />
        <path d="M 950 726.608 L 940 726.608" />
        <path d="M 950 500.984 L 940 500.984" />
        <path d="M 950 823.304 L 940 823.304" />
        <path d="M 950 694.376 L 940 694.376" />
        <path d="M 950 307.592 L 940 307.592" />
        <path d="M 950 404.288 L 940 404.288" />
        <path d="M 950 533.216 L 940 533.216" />
    </g>
</g>
</g>
</svg>
