<?xml version="1.0" standalone="no"?>
<!DOCTYPE svg PUBLIC "-//W3C//DTD SVG 1.1//EN" "http://www.w3.org/Graphics/SVG/1.1/DTD/svg11.dtd">
<svg style="stroke-linejoin:miter; stroke:black; stroke-width:2.5; text-anchor:middle; fill:none" xmlns="http://www.w3.org/2000/svg" font-family="Helvetica, Arial, FreeSans, Sans, sans, sans-serif" width="1000px" height="1000px" version="1.1" xmlns:xlink="http://www.w3.org/1999/xlink" viewBox="0 0 1000 1000">
<defs>
    <clipPath id="Histogram_0_clip">
        <rect x="120" y="50" width="830" height="870" />
    </clipPath>
</defs>
<g id="whole_document">
<rect id="background" x="0" y="0" width="1000" height="1000" stroke="none" fill="white" />
<g id="Histogram_0" clip-path="url(#Histogram_0_clip)">
    <path d="M 120 920 L 120 129.091 L 161.5 129.091 L 161.5 356.213 L 203 356.213 L 203 832.584 L 244.5 832.584 L 244.5 854.513 L 286 854.513 L 286 893.011 L 327.5 893.011 L 327.5 920 L 369 920 L 369 920 L 410.5 920 L 410.5 920 L 452 920 L 452 910.673 L 493.5 910.673 L 493.5 915.733 L 535 915.733 L 535 912.161 L 576.5 912.161 L 576.5 912.955 L 618 912.955 L 618 920 L 659.5 920 L 659.5 920 L 701 920 L 701 920 L 742.5 920 L 742.5 920 L 784 920 L 784 920 L 825.5 920 L 825.5 920 L 867 920 L 867 920 L 908.5 920 L 908.5 920 L 950 920 L 950 920" stroke-width="3" stroke-dasharray="" stroke="black" stroke-opacity="1" fill="DodgerBlue" fill-opacity="1" />
</g>
<g id="frame_0">
    <rect id="frame_0_border" x="120" y="50" width="830" height="870" />
    <text id="frame_0_bottomlabel" font-size="30" transform="translate(535, 989.6)" text-anchor="middle" dominant-baseline="middle" stroke="none" fill="black">microseconds</text>
    <g id="frame_0_bottomticks">
        <path d="M 120 920 L 120 900" />
        <text font-size="30" transform="translate(120, 950)" text-anchor="middle" dominant-baseline="middle" stroke="none" fill="black">0</text>
        <path d="M 136.6 920 L 136.6 910" />
        <path d="M 153.2 920 L 153.2 910" />
        <path d="M 169.8 920 L 169.8 910" />
        <path d="M 186.4 920 L 186.4 910" />
        <path d="M 203 920 L 203 910" />
        <path d="M 219.6 920 L 219.6 910" />
        <path d="M 236.2 920 L 236.2 910" />
        <path d="M 252.8 920 L 252.8 910" />
        <path d="M 269.4 920 L 269.4 910" />
        <path d="M 286 920 L 286 900" />
        <text font-size="30" transform="translate(286, 950)" text-anchor="middle" dominant-baseline="middle" stroke="none" fill="black">10</text>
        <path d="M 302.6 920 L 302.6 910" />
        <path d="M 319.2 920 L 319.2 910" />
        <path d="M 335.8 920 L 335.8 910" />
        <path d="M 352.4 920 L 352.4 910" />
        <path d="M 369 920 L 369 910" />
        <path d="M 385.6 920 L 385.6 910" />
        <path d="M 402.2 920 L 402.2 910" />
        <path d="M 418.8 920 L 418.8 910" />
        <path d="M 435.4 920 L 435.4 910" />
        <path d="M 452 920 L 452 900" />
        <text font-size="30" transform="translate(452, 950)" text-anchor="middle" dominant-baseline="middle" stroke="none" fill="black">20</text>
        <path d="M 468.6 920 L 468.6 910" />
        <path d="M 485.2 920 L 485.2 910" />
        <path d="M 501.8 920 L 501.8 910" />
        <path d="M 518.4 920 L 518.4 910" />
        <path d="M 535 920 L 535 910" />
        <path d="M 551.6 920 L 551.6 910" />
        <path d="M 568.2 920 L 568.2 910" />
        <path d="M 584.8 920 L 584.8 910" />
        <path d="M 601.4 920 L 601.4 910" />
        <path d="M 618 920 L 618 900" />
        <text font-size="30" transform="translate(618, 950)" text-anchor="middle" dominant-baseline="middle" stroke="none" fill="black">30</text>
        <path d="M 634.6 920 L 634.6 910" />
        <path d="M 651.2 920 L 651.2 910" />
        <path d="M 667.8 920 L 667.8 910" />
        <path d="M 684.4 920 L 684.4 910" />
        <path d="M 701 920 L 701 910" />
        <path d="M 717.6 920 L 717.6 910" />
        <path d="M 734.2 920 L 734.2 910" />
        <path d="M 750.8 920 L 750.8 910" />
        <path d="M 767.4 920 L 767.4 910" />
        <path d="M 784 920 L 784 900" />
        <text font-size="30" transform="translate(784, 950)" text-anchor="middle" dominant-baseline="middle" stroke="none" fill="black">40</text>
        <path d="M 800.6 920 L 800.6 910" />
        <path d="M 817.2 920 L 817.2 910" />
        <path d="M 833.8 920 L 833.8 910" />
        <path d="M 850.4 920 L 850.4 910" />
        <path d="M 867 920 L 867 910" />
        <path d="M 883.6 920 L 883.6 910" />
        <path d="M 900.2 920 L 900.2 910" />
        <path d="M 916.8 920 L 916.8 910" />
        <path d="M 933.4 920 L 933.4 910" />
        <path d="M 950 920 L 950 900" />
        <text font-size="30" transform="translate(950, 950)" text-anchor="middle" dominant-baseline="middle" stroke="none" fill="black">50</text>
    </g>
    <g id="frame_0_leftticks">
        <path d="M 120 284.971 L 130 284.971" />
        <path d="M 120 920 L 140 920" />
        <text font-size="30" transform="translate(110, 930)" text-anchor="end" dominant-baseline="middle" stroke="none" fill="black">0</text>
        <path d="M 120 513.184 L 130 513.184" />
        <path d="M 120 741.398 L 130 741.398" />
        <path d="M 120 255.204 L 130 255.204" />
        <path d="M 120 334.582 L 130 334.582" />
        <path d="M 120 562.796 L 130 562.796" />
        <path d="M 120 225.437 L 140 225.437" />
        <text font-size="30" transform="translate(110, 235.437)" text-anchor="end" dominant-baseline="middle" stroke="none" fill="black">7000</text>
        <path d="M 120 155.98 L 130 155.98" />
        <path d="M 120 384.194 L 130 384.194" />
        <path d="M 120 195.67 L 130 195.67" />
        <path d="M 120 612.408 L 130 612.408" />
        <path d="M 120 840.621 L 130 840.621" />
        <path d="M 120 800.932 L 130 800.932" />
        <path d="M 120 433.806 L 130 433.806" />
        <path d="M 120 662.019 L 130 662.019" />
        <path d="M 120 771.165 L 130 771.165" />
        <path d="M 120 890.233 L 130 890.233" />
        <path d="M 120 483.417 L 130 483.417" />
        <path d="M 120 106.369 L 130 106.369" />
        <path d="M 120 711.631 L 130 711.631" />
        <path d="M 120 304.815 L 130 304.815" />
        <path d="M 120 76.6018 L 130 76.6018" />
        <path d="M 120 533.029 L 130 533.029" />
        <path d="M 120 761.243 L 130 761.243" />
        <path d="M 120 354.427 L 130 354.427" />
        <path d="M 120 582.641 L 130 582.641" />
        <path d="M 120 175.825 L 130 175.825" />
        <path d="M 120 404.039 L 130 404.039" />
        <path d="M 120 632.252 L 130 632.252" />
        <path d="M 120 860.466 L 130 860.466" />
        <path d="M 120 910.078 L 130 910.078" />
        <path d="M 120 453.65 L 130 453.65" />
        <path d="M 120 681.864 L 130 681.864" />
        <path d="M 120 245.281 L 130 245.281" />
        <path d="M 120 275.048 L 130 275.048" />
        <path d="M 120 503.262 L 130 503.262" />
        <path d="M 120 215.514 L 130 215.514" />
        <path d="M 120 731.476 L 130 731.476" />
        <path d="M 120 324.66 L 140 324.66" />
        <text font-size="30" transform="translate(110, 334.66)" text-anchor="end" dominant-baseline="middle" stroke="none" fill="black">6000</text>
        <path d="M 120 820.777 L 140 820.777" />
        <text font-size="30" transform="translate(110, 830.777)" text-anchor="end" dominant-baseline="middle" stroke="none" fill="black">1000</text>
        <path d="M 120 552.874 L 130 552.874" />
        <path d="M 120 146.058 L 130 146.058" />
        <path d="M 120 791.01 L 130 791.01" />
        <path d="M 120 374.272 L 130 374.272" />
        <path d="M 120 602.485 L 130 602.485" />
        <path d="M 120 126.213 L 140 126.213" />
        <text font-size="30" transform="translate(110, 136.213)" text-anchor="end" dominant-baseline="middle" stroke="none" fill="black">8000</text>
        <path d="M 120 830.699 L 130 830.699" />
        <path d="M 120 423.883 L 140 423.883" />
        <text font-size="30" transform="translate(110, 433.883)" text-anchor="end" dominant-baseline="middle" stroke="none" fill="black">5000</text>
        <path d="M 120 96.4464 L 130 96.4464" />
        <path d="M 120 652.097 L 130 652.097" />
        <path d="M 120 880.311 L 130 880.311" />
        <path d="M 120 66.6794 L 130 66.6794" />
        <path d="M 120 473.495 L 130 473.495" />
        <path d="M 120 701.709 L 130 701.709" />
        <path d="M 120 294.893 L 130 294.893" />
        <path d="M 120 523.107 L 140 523.107" />
        <text font-size="30" transform="translate(110, 533.107)" text-anchor="end" dominant-baseline="middle" stroke="none" fill="black">4000</text>
        <path d="M 120 751.32 L 130 751.32" />
        <path d="M 120 344.505 L 130 344.505" />
        <path d="M 120 572.718 L 130 572.718" />
        <path d="M 120 165.903 L 130 165.903" />
        <path d="M 120 265.126 L 130 265.126" />
        <path d="M 120 394.116 L 130 394.116" />
        <path d="M 120 622.33 L 140 622.33" />
        <text font-size="30" transform="translate(110, 632.33)" text-anchor="end" dominant-baseline="middle" stroke="none" fill="black">3000</text>
        <path d="M 120 235.359 L 130 235.359" />
        <path d="M 120 850.544 L 130 850.544" />
        <path d="M 120 443.728 L 130 443.728" />
        <path d="M 120 205.592 L 130 205.592" />
        <path d="M 120 671.942 L 130 671.942" />
        <path d="M 120 900.155 L 130 900.155" />
        <path d="M 120 810.854 L 130 810.854" />
        <path d="M 120 493.34 L 130 493.34" />
        <path d="M 120 86.5241 L 130 86.5241" />
        <path d="M 120 781.087 L 130 781.087" />
        <path d="M 120 314.738 L 130 314.738" />
        <path d="M 120 542.951 L 130 542.951" />
        <path d="M 120 116.291 L 130 116.291" />
        <path d="M 120 136.136 L 130 136.136" />
        <path d="M 120 364.349 L 130 364.349" />
        <path d="M 120 721.553 L 140 721.553" />
        <text font-size="30" transform="translate(110, 731.553)" text-anchor="end" dominant-baseline="middle" stroke="none" fill="black">2000</text>
        <path d="M 120 592.563 L 130 592.563" />
        <path d="M 120 185.747 L 130 185.747" />
        <path d="M 120 691.786 L 130 691.786" />
        <path d="M 120 413.961 L 130 413.961" />
        <path d="M 120 642.175 L 130 642.175" />
        <path d="M 120 870.388 L 130 870.388" />
        <path d="M 120 463.573 L 130 463.573" />
        <path d="M 120 56.7571 L 130 56.7571" />
    </g>
    <text id="frame_0_toplabel" font-size="30" transform="translate(535, 32.6)" text-anchor="middle" dominant-baseline="middle" stroke="none" fill="black">a.union</text>
    <g id="frame_0_topticks">
        <path d="M 120 50 L 120 70" />
        <path d="M 136.6 50 L 136.6 60" />
        <path d="M 153.2 50 L 153.2 60" />
        <path d="M 169.8 50 L 169.8 60" />
        <path d="M 186.4 50 L 186.4 60" />
        <path d="M 203 50 L 203 60" />
        <path d="M 219.6 50 L 219.6 60" />
        <path d="M 236.2 50 L 236.2 60" />
        <path d="M 252.8 50 L 252.8 60" />
        <path d="M 269.4 50 L 269.4 60" />
        <path d="M 286 50 L 286 70" />
        <path d="M 302.6 50 L 302.6 60" />
        <path d="M 319.2 50 L 319.2 60" />
        <path d="M 335.8 50 L 335.8 60" />
        <path d="M 352.4 50 L 352.4 60" />
        <path d="M 369 50 L 369 60" />
        <path d="M 385.6 50 L 385.6 60" />
        <path d="M 402.2 50 L 402.2 60" />
        <path d="M 418.8 50 L 418.8 60" />
        <path d="M 435.4 50 L 435.4 60" />
        <path d="M 452 50 L 452 70" />
        <path d="M 468.6 50 L 468.6 60" />
        <path d="M 485.2 50 L 485.2 60" />
        <path d="M 501.8 50 L 501.8 60" />
        <path d="M 518.4 50 L 518.4 60" />
        <path d="M 535 50 L 535 60" />
        <path d="M 551.6 50 L 551.6 60" />
        <path d="M 568.2 50 L 568.2 60" />
        <path d="M 584.8 50 L 584.8 60" />
        <path d="M 601.4 50 L 601.4 60" />
        <path d="M 618 50 L 618 70" />
        <path d="M 634.6 50 L 634.6 60" />
        <path d="M 651.2 50 L 651.2 60" />
        <path d="M 667.8 50 L 667.8 60" />
        <path d="M 684.4 50 L 684.4 60" />
        <path d="M 701 50 L 701 60" />
        <path d="M 717.6 50 L 717.6 60" />
        <path d="M 734.2 50 L 734.2 60" />
        <path d="M 750.8 50 L 750.8 60" />
        <path d="M 767.4 50 L 767.4 60" />
        <path d="M 784 50 L 784 70" />
        <path d="M 800.6 50 L 800.6 60" />
        <path d="M 817.2 50 L 817.2 60" />
        <path d="M 833.8 50 L 833.8 60" />
        <path d="M 850.4 50 L 850.4 60" />
        <path d="M 867 50 L 867 60" />
        <path d="M 883.6 50 L 883.6 60" />
        <path d="M 900.2 50 L 900.2 60" />
        <path d="M 916.8 50 L 916.8 60" />
        <path d="M 933.4 50 L 933.4 60" />
        <path d="M 950 50 L 950 70" />
    </g>
    <g id="frame_0_rightticks">
        <path d="M 950 284.971 L 940 284.971" />
        <path d="M 950 920 L 930 920" />
        <path d="M 950 513.184 L 940 513.184" />
        <path d="M 950 741.398 L 940 741.398" />
        <path d="M 950 255.204 L 940 255.204" />
        <path d="M 950 334.582 L 940 334.582" />
        <path d="M 950 562.796 L 940 562.796" />
        <path d="M 950 225.437 L 930 225.437" />
        <path d="M 950 155.98 L 940 155.98" />
        <path d="M 950 384.194 L 940 384.194" />
        <path d="M 950 195.67 L 940 195.67" />
        <path d="M 950 612.408 L 940 612.408" />
        <path d="M 950 840.621 L 940 840.621" />
        <path d="M 950 800.932 L 940 800.932" />
        <path d="M 950 433.806 L 940 433.806" />
        <path d="M 950 662.019 L 940 662.019" />
        <path d="M 950 771.165 L 940 771.165" />
        <path d="M 950 890.233 L 940 890.233" />
        <path d="M 950 483.417 L 940 483.417" />
        <path d="M 950 106.369 L 940 106.369" />
        <path d="M 950 711.631 L 940 711.631" />
        <path d="M 950 304.815 L 940 304.815" />
        <path d="M 950 76.6018 L 940 76.6018" />
        <path d="M 950 533.029 L 940 533.029" />
        <path d="M 950 761.243 L 940 761.243" />
        <path d="M 950 354.427 L 940 354.427" />
        <path d="M 950 582.641 L 940 582.641" />
        <path d="M 950 175.825 L 940 175.825" />
        <path d="M 950 404.039 L 940 404.039" />
        <path d="M 950 632.252 L 940 632.252" />
        <path d="M 950 860.466 L 940 860.466" />
        <path d="M 950 910.078 L 940 910.078" />
        <path d="M 950 453.65 L 940 453.65" />
        <path d="M 950 681.864 L 940 681.864" />
        <path d="M 950 245.281 L 940 245.281" />
        <path d="M 950 275.048 L 940 275.048" />
        <path d="M 950 503.262 L 940 503.262" />
        <path d="M 950 215.514 L 940 215.514" />
        <path d="M 950 731.476 L 940 731.476" />
        <path d="M 950 324.66 L 930 324.66" />
        <path d="M 950 820.777 L 930 820.777" />
        <path d="M 950 552.874 L 940 552.874" />
        <path d="M 950 146.058 L 940 146.058" />
        <path d="M 950 791.01 L 940 791.01" />
        <path d="M 950 374.272 L 940 374.272" />
        <path d="M 950 602.485 L 940 602.485" />
        <path d="M 950 126.213 L 930 126.213" />
        <path d="M 950 830.699 L 940 830.699" />
        <path d="M 950 423.883 L 930 423.883" />
        <path d="M 950 96.4464 L 940 96.4464" />
        <path d="M 950 652.097 L 940 652.097" />
        <path d="M 950 880.311 L 940 880.311" />
        <path d="M 950 66.6794 L 940 66.6794" />
        <path d="M 950 473.495 L 940 473.495" />
        <path d="M 950 701.709 L 940 701.709" />
        <path d="M 950 294.893 L 940 294.893" />
        <path d="M 950 523.107 L 930 523.107" />
        <path d="M 950 751.32 L 940 751.32" />
        <path d="M 950 344.505 L 940 344.505" />
        <path d="M 950 572.718 L 940 572.718" />
        <path d="M 950 165.903 L 940 165.903" />
        <path d="M 950 265.126 L 940 265.126" />
        <path d="M 950 394.116 L 940 394.116" />
        <path d="M 950 622.33 L 930 622.33" />
        <path d="M 950 235.359 L 940 235.359" />
        <path d="M 950 850.544 L 940 850.544" />
        <path d="M 950 443.728 L 940 443.728" />
        <path d="M 950 205.592 L 940 205.592" />
        <path d="M 950 671.942 L 940 671.942" />
        <path d="M 950 900.155 L 940 900.155" />
        <path d="M 950 810.854 L 940 810.854" />
        <path d="M 950 493.34 L 940 493.34" />
        <path d="M 950 86.5241 L 940 86.5241" />
        <path d="M 950 781.087 L 940 781.087" />
        <path d="M 950 314.738 L 940 314.738" />
        <path d="M 950 542.951 L 940 542.951" />
        <path d="M 950 116.291 L 940 116.291" />
        <path d="M 950 136.136 L 940 136.136" />
        <path d="M 950 364.349 L 940 364.349" />
        <path d="M 950 721.553 L 930 721.553" />
        <path d="M 950 592.563 L 940 592.563" />
        <path d="M 950 185.747 L 940 185.747" />
        <path d="M 950 691.786 L 940 691.786" />
        <path d="M 950 413.961 L 940 413.961" />
        <path d="M 950 642.175 L 940 642.175" />
        <path d="M 950 870.388 L 940 870.388" />
        <path d="M 950 463.573 L 940 463.573" />
        <path d="M 950 56.7571 L 940 56.7571" />
    </g>
</g>
</g>
</svg>
