<?xml version="1.0" standalone="no"?>
<!DOCTYPE svg PUBLIC "-//W3C//DTD SVG 1.1//EN" "http://www.w3.org/Graphics/SVG/1.1/DTD/svg11.dtd">
<svg style="stroke-linejoin:miter; stroke:black; stroke-width:2.5; text-anchor:middle; fill:none" xmlns="http://www.w3.org/2000/svg" font-family="Helvetica, Arial, FreeSans, Sans, sans, sans-serif" width="1000px" height="1000px" version="1.1" xmlns:xlink="http://www.w3.org/1999/xlink" viewBox="0 0 1000 1000">
<defs>
    <clipPath id="Histogram_0_clip">
        <rect x="120" y="50" width="830" height="870" />
    </clipPath>
    <clipPath id="Histogram_1_clip">
        <rect x="120" y="50" width="830" height="870" />
    </clipPath>
</defs>
<g id="whole_document">
<rect id="background" x="0" y="0" width="1000" height="1000" stroke="none" fill="white" />
<g id="Histogram_0" clip-path="url(#Histogram_0_clip)">
    <path d="M 120 920 L 120 129.091 L 161.5 129.091 L 161.5 727.124 L 203 727.124 L 203 914.827 L 244.5 914.827 L 244.5 388.383 L 286 388.383 L 286 913.169 L 327.5 913.169 L 327.5 918.867 L 369 918.867 L 369 917.45 L 410.5 917.45 L 410.5 918.921 L 452 918.921 L 452 879.594 L 493.5 879.594 L 493.5 916.069 L 535 916.069 L 535 919.866 L 576.5 919.866 L 576.5 919.567 L 618 919.567 L 618 900.806 L 659.5 900.806 L 659.5 918.848 L 701 918.848 L 701 919.933 L 742.5 919.933 L 742.5 919.776 L 784 919.776 L 784 919.987 L 825.5 919.987 L 825.5 919.994 L 867 919.994 L 867 920 L 908.5 920 L 908.5 920 L 950 920 L 950 920" stroke-width="3" stroke-dasharray="" stroke="black" stroke-opacity="1" fill="DodgerBlue" fill-opacity="1" />
</g>
<g id="Histogram_1" clip-path="url(#Histogram_1_clip)">
    <path d="M 120 920 L 120 920 L 161.5 920 L 161.5 920 L 203 920 L 203 920 L 244.5 920 L 244.5 390.441 L 286 390.441 L 286 913.392 L 327.5 913.392 L 327.5 918.886 L 369 918.886 L 369 917.45 L 410.5 917.45 L 410.5 918.921 L 452 918.921 L 452 919.91 L 493.5 919.91 L 493.5 919.91 L 535 919.91 L 535 919.98 L 576.5 919.98 L 576.5 920 L 618 920 L 618 900.824 L 659.5 900.824 L 659.5 918.863 L 701 918.863 L 701 919.94 L 742.5 919.94 L 742.5 919.98 L 784 919.98 L 784 919.987 L 825.5 919.987 L 825.5 920 L 867 920 L 867 920 L 908.5 920 L 908.5 920 L 950 920 L 950 920" stroke-width="3" stroke-dasharray="" stroke="black" stroke-opacity="1" fill="darkorange" fill-opacity="1" />
</g>
<g id="frame_0">
    <rect id="frame_0_border" x="120" y="50" width="830" height="870" />
    <text id="frame_0_bottomlabel" font-size="30" transform="translate(535, 989.6)" text-anchor="middle" dominant-baseline="middle" stroke="none" fill="black">microseconds</text>
    <g id="frame_0_bottomticks">
        <path d="M 120 920 L 120 900" />
        <text font-size="30" transform="translate(120, 950)" text-anchor="middle" dominant-baseline="middle" stroke="none" fill="black">0</text>
        <path d="M 136.6 920 L 136.6 910" />
        <path d="M 153.2 920 L 153.2 910" />
        <path d="M 169.8 920 L 169.8 910" />
        <path d="M 186.4 920 L 186.4 910" />
        <path d="M 203 920 L 203 910" />
        <path d="M 219.6 920 L 219.6 910" />
        <path d="M 236.2 920 L 236.2 910" />
        <path d="M 252.8 920 L 252.8 910" />
        <path d="M 269.4 920 L 269.4 910" />
        <path d="M 286 920 L 286 900" />
        <text font-size="30" transform="translate(286, 950)" text-anchor="middle" dominant-baseline="middle" stroke="none" fill="black">10</text>
        <path d="M 302.6 920 L 302.6 910" />
        <path d="M 319.2 920 L 319.2 910" />
        <path d="M 335.8 920 L 335.8 910" />
        <path d="M 352.4 920 L 352.4 910" />
        <path d="M 369 920 L 369 910" />
        <path d="M 385.6 920 L 385.6 910" />
        <path d="M 402.2 920 L 402.2 910" />
        <path d="M 418.8 920 L 418.8 910" />
        <path d="M 435.4 920 L 435.4 910" />
        <path d="M 452 920 L 452 900" />
        <text font-size="30" transform="translate(452, 950)" text-anchor="middle" dominant-baseline="middle" stroke="none" fill="black">20</text>
        <path d="M 468.6 920 L 468.6 910" />
        <path d="M 485.2 920 L 485.2 910" />
        <path d="M 501.8 920 L 501.8 910" />
        <path d="M 518.4 920 L 518.4 910" />
        <path d="M 535 920 L 535 910" />
        <path d="M 551.6 920 L 551.6 910" />
        <path d="M 568.2 920 L 568.2 910" />
        <path d="M 584.8 920 L 584.8 910" />
        <path d="M 601.4 920 L 601.4 910" />
        <path d="M 618 920 L 618 900" />
        <text font-size="30" transform="translate(618, 950)" text-anchor="middle" dominant-baseline="middle" stroke="none" fill="black">30</text>
        <path d="M 634.6 920 L 634.6 910" />
        <path d="M 651.2 920 L 651.2 910" />
        <path d="M 667.8 920 L 667.8 910" />
        <path d="M 684.4 920 L 684.4 910" />
        <path d="M 701 920 L 701 910" />
        <path d="M 717.6 920 L 717.6 910" />
        <path d="M 734.2 920 L 734.2 910" />
        <path d="M 750.8 920 L 750.8 910" />
        <path d="M 767.4 920 L 767.4 910" />
        <path d="M 784 920 L 784 900" />
        <text font-size="30" transform="translate(784, 950)" text-anchor="middle" dominant-baseline="middle" stroke="none" fill="black">40</text>
        <path d="M 800.6 920 L 800.6 910" />
        <path d="M 817.2 920 L 817.2 910" />
        <path d="M 833.8 920 L 833.8 910" />
        <path d="M 850.4 920 L 850.4 910" />
        <path d="M 867 920 L 867 910" />
        <path d="M 883.6 920 L 883.6 910" />
        <path d="M 900.2 920 L 900.2 910" />
        <path d="M 916.8 920 L 916.8 910" />
        <path d="M 933.4 920 L 933.4 910" />
        <path d="M 950 920 L 950 900" />
        <text font-size="30" transform="translate(950, 950)" text-anchor="middle" dominant-baseline="middle" stroke="none" fill="black">50</text>
    </g>
    <g id="frame_0_leftticks">
        <path d="M 120 605.845 L 130 605.845" />
        <path d="M 120 762.922 L 130 762.922" />
        <path d="M 120 920 L 140 920" />
        <text font-size="30" transform="translate(110, 930)" text-anchor="end" dominant-baseline="middle" stroke="none" fill="black">0</text>
        <path d="M 120 317.869 L 130 317.869" />
        <path d="M 120 632.024 L 130 632.024" />
        <path d="M 120 344.049 L 130 344.049" />
        <path d="M 120 658.204 L 140 658.204" />
        <text font-size="30" transform="translate(110, 668.204)" text-anchor="end" dominant-baseline="middle" stroke="none" fill="black">10⁶</text>
        <path d="M 120 56.0728 L 130 56.0728" />
        <path d="M 120 448.767 L 130 448.767" />
        <path d="M 120 370.228 L 130 370.228" />
        <path d="M 120 893.82 L 130 893.82" />
        <path d="M 120 82.2524 L 130 82.2524" />
        <path d="M 120 396.408 L 140 396.408" />
        <text font-size="30" transform="translate(110, 406.408)" text-anchor="end" dominant-baseline="middle" stroke="none" fill="black">2×10⁶</text>
        <path d="M 120 710.563 L 130 710.563" />
        <path d="M 120 108.432 L 130 108.432" />
        <path d="M 120 422.587 L 130 422.587" />
        <path d="M 120 736.743 L 130 736.743" />
        <path d="M 120 134.612 L 140 134.612" />
        <text font-size="30" transform="translate(110, 144.612)" text-anchor="end" dominant-baseline="middle" stroke="none" fill="black">3×10⁶</text>
        <path d="M 120 867.641 L 130 867.641" />
        <path d="M 120 684.383 L 130 684.383" />
        <path d="M 120 160.791 L 130 160.791" />
        <path d="M 120 474.947 L 130 474.947" />
        <path d="M 120 789.102 L 140 789.102" />
        <text font-size="30" transform="translate(110, 799.102)" text-anchor="end" dominant-baseline="middle" stroke="none" fill="black">500000</text>
        <path d="M 120 186.971 L 130 186.971" />
        <path d="M 120 501.126 L 130 501.126" />
        <path d="M 120 815.282 L 130 815.282" />
        <path d="M 120 213.15 L 130 213.15" />
        <path d="M 120 841.461 L 130 841.461" />
        <path d="M 120 527.306 L 140 527.306" />
        <text font-size="30" transform="translate(110, 537.306)" text-anchor="end" dominant-baseline="middle" stroke="none" fill="black">1.5×10⁶</text>
        <path d="M 120 239.33 L 130 239.33" />
        <path d="M 120 553.485 L 130 553.485" />
        <path d="M 120 265.51 L 140 265.51" />
        <text font-size="30" transform="translate(110, 275.51)" text-anchor="end" dominant-baseline="middle" stroke="none" fill="black">2.5×10⁶</text>
        <path d="M 120 579.665 L 130 579.665" />
        <path d="M 120 291.689 L 130 291.689" />
    </g>
    <text id="frame_0_toplabel" font-size="30" transform="translate(535, 32.6)" text-anchor="middle" dominant-baseline="middle" stroke="none" fill="black">stat.sample.fillHistogram</text>
    <g id="frame_0_topticks">
        <path d="M 120 50 L 120 70" />
        <path d="M 136.6 50 L 136.6 60" />
        <path d="M 153.2 50 L 153.2 60" />
        <path d="M 169.8 50 L 169.8 60" />
        <path d="M 186.4 50 L 186.4 60" />
        <path d="M 203 50 L 203 60" />
        <path d="M 219.6 50 L 219.6 60" />
        <path d="M 236.2 50 L 236.2 60" />
        <path d="M 252.8 50 L 252.8 60" />
        <path d="M 269.4 50 L 269.4 60" />
        <path d="M 286 50 L 286 70" />
        <path d="M 302.6 50 L 302.6 60" />
        <path d="M 319.2 50 L 319.2 60" />
        <path d="M 335.8 50 L 335.8 60" />
        <path d="M 352.4 50 L 352.4 60" />
        <path d="M 369 50 L 369 60" />
        <path d="M 385.6 50 L 385.6 60" />
        <path d="M 402.2 50 L 402.2 60" />
        <path d="M 418.8 50 L 418.8 60" />
        <path d="M 435.4 50 L 435.4 60" />
        <path d="M 452 50 L 452 70" />
        <path d="M 468.6 50 L 468.6 60" />
        <path d="M 485.2 50 L 485.2 60" />
        <path d="M 501.8 50 L 501.8 60" />
        <path d="M 518.4 50 L 518.4 60" />
        <path d="M 535 50 L 535 60" />
        <path d="M 551.6 50 L 551.6 60" />
        <path d="M 568.2 50 L 568.2 60" />
        <path d="M 584.8 50 L 584.8 60" />
        <path d="M 601.4 50 L 601.4 60" />
        <path d="M 618 50 L 618 70" />
        <path d="M 634.6 50 L 634.6 60" />
        <path d="M 651.2 50 L 651.2 60" />
        <path d="M 667.8 50 L 667.8 60" />
        <path d="M 684.4 50 L 684.4 60" />
        <path d="M 701 50 L 701 60" />
        <path d="M 717.6 50 L 717.6 60" />
        <path d="M 734.2 50 L 734.2 60" />
        <path d="M 750.8 50 L 750.8 60" />
        <path d="M 767.4 50 L 767.4 60" />
        <path d="M 784 50 L 784 70" />
        <path d="M 800.6 50 L 800.6 60" />
        <path d="M 817.2 50 L 817.2 60" />
        <path d="M 833.8 50 L 833.8 60" />
        <path d="M 850.4 50 L 850.4 60" />
        <path d="M 867 50 L 867 60" />
        <path d="M 883.6 50 L 883.6 60" />
        <path d="M 900.2 50 L 900.2 60" />
        <path d="M 916.8 50 L 916.8 60" />
        <path d="M 933.4 50 L 933.4 60" />
        <path d="M 950 50 L 950 70" />
    </g>
    <g id="frame_0_rightticks">
        <path d="M 950 605.845 L 940 605.845" />
        <path d="M 950 762.922 L 940 762.922" />
        <path d="M 950 920 L 930 920" />
        <path d="M 950 317.869 L 940 317.869" />
        <path d="M 950 632.024 L 940 632.024" />
        <path d="M 950 344.049 L 940 344.049" />
        <path d="M 950 658.204 L 930 658.204" />
        <path d="M 950 56.0728 L 940 56.0728" />
        <path d="M 950 448.767 L 940 448.767" />
        <path d="M 950 370.228 L 940 370.228" />
        <path d="M 950 893.82 L 940 893.82" />
        <path d="M 950 82.2524 L 940 82.2524" />
        <path d="M 950 396.408 L 930 396.408" />
        <path d="M 950 710.563 L 940 710.563" />
        <path d="M 950 108.432 L 940 108.432" />
        <path d="M 950 422.587 L 940 422.587" />
        <path d="M 950 736.743 L 940 736.743" />
        <path d="M 950 134.612 L 930 134.612" />
        <path d="M 950 867.641 L 940 867.641" />
        <path d="M 950 684.383 L 940 684.383" />
        <path d="M 950 160.791 L 940 160.791" />
        <path d="M 950 474.947 L 940 474.947" />
        <path d="M 950 789.102 L 930 789.102" />
        <path d="M 950 186.971 L 940 186.971" />
        <path d="M 950 501.126 L 940 501.126" />
        <path d="M 950 815.282 L 940 815.282" />
        <path d="M 950 213.15 L 940 213.15" />
        <path d="M 950 841.461 L 940 841.461" />
        <path d="M 950 527.306 L 930 527.306" />
        <path d="M 950 239.33 L 940 239.33" />
        <path d="M 950 553.485 L 940 553.485" />
        <path d="M 950 265.51 L 930 265.51" />
        <path d="M 950 579.665 L 940 579.665" />
        <path d="M 950 291.689 L 940 291.689" />
    </g>
</g>
</g>
</svg>
