<?xml version="1.0" standalone="no"?>
<!DOCTYPE svg PUBLIC "-//W3C//DTD SVG 1.1//EN" "http://www.w3.org/Graphics/SVG/1.1/DTD/svg11.dtd">
<svg style="stroke-linejoin:miter; stroke:black; stroke-width:2.5; text-anchor:middle; fill:none" xmlns="http://www.w3.org/2000/svg" font-family="Helvetica, Arial, FreeSans, Sans, sans, sans-serif" width="1000px" height="1000px" version="1.1" xmlns:xlink="http://www.w3.org/1999/xlink" viewBox="0 0 1000 1000">
<defs>
    <clipPath id="Histogram_0_clip">
        <rect x="120" y="50" width="830" height="870" />
    </clipPath>
    <clipPath id="Histogram_1_clip">
        <rect x="120" y="50" width="830" height="870" />
    </clipPath>
</defs>
<g id="whole_document">
<rect id="background" x="0" y="0" width="1000" height="1000" stroke="none" fill="white" />
<g id="Histogram_0" clip-path="url(#Histogram_0_clip)">
    <path d="M 120 920 L 120 920 L 161.5 920 L 161.5 920 L 203 920 L 203 129.091 L 244.5 129.091 L 244.5 199.192 L 286 199.192 L 286 794.686 L 327.5 794.686 L 327.5 728.343 L 369 728.343 L 369 839.204 L 410.5 839.204 L 410.5 896.007 L 452 896.007 L 452 920 L 493.5 920 L 493.5 889.214 L 535 889.214 L 535 908.726 L 576.5 908.726 L 576.5 899.042 L 618 899.042 L 618 900.632 L 659.5 900.632 L 659.5 920 L 701 920 L 701 916.097 L 742.5 916.097 L 742.5 920 L 784 920 L 784 920 L 825.5 920 L 825.5 920 L 867 920 L 867 920 L 908.5 920 L 908.5 920 L 950 920 L 950 920" stroke-width="3" stroke-dasharray="" stroke="black" stroke-opacity="1" fill="DodgerBlue" fill-opacity="1" />
</g>
<g id="Histogram_1" clip-path="url(#Histogram_1_clip)">
    <path d="M 120 920 L 120 920 L 161.5 920 L 161.5 920 L 203 920 L 203 129.091 L 244.5 129.091 L 244.5 353.269 L 286 353.269 L 286 794.686 L 327.5 794.686 L 327.5 757.829 L 369 757.829 L 369 857.56 L 410.5 857.56 L 410.5 896.007 L 452 896.007 L 452 920 L 493.5 920 L 493.5 895.573 L 535 895.573 L 535 908.726 L 576.5 908.726 L 576.5 904.245 L 618 904.245 L 618 915.23 L 659.5 915.23 L 659.5 920 L 701 920 L 701 916.097 L 742.5 916.097 L 742.5 920 L 784 920 L 784 920 L 825.5 920 L 825.5 920 L 867 920 L 867 920 L 908.5 920 L 908.5 920 L 950 920 L 950 920" stroke-width="3" stroke-dasharray="" stroke="black" stroke-opacity="1" fill="darkorange" fill-opacity="1" />
</g>
<g id="frame_0">
    <rect id="frame_0_border" x="120" y="50" width="830" height="870" />
    <text id="frame_0_bottomlabel" font-size="30" transform="translate(535, 989.6)" text-anchor="middle" dominant-baseline="middle" stroke="none" fill="black">microseconds</text>
    <g id="frame_0_bottomticks">
        <path d="M 120 920 L 120 900" />
        <text font-size="30" transform="translate(120, 950)" text-anchor="middle" dominant-baseline="middle" stroke="none" fill="black">0</text>
        <path d="M 136.6 920 L 136.6 910" />
        <path d="M 153.2 920 L 153.2 910" />
        <path d="M 169.8 920 L 169.8 910" />
        <path d="M 186.4 920 L 186.4 910" />
        <path d="M 203 920 L 203 910" />
        <path d="M 219.6 920 L 219.6 910" />
        <path d="M 236.2 920 L 236.2 910" />
        <path d="M 252.8 920 L 252.8 910" />
        <path d="M 269.4 920 L 269.4 910" />
        <path d="M 286 920 L 286 900" />
        <text font-size="30" transform="translate(286, 950)" text-anchor="middle" dominant-baseline="middle" stroke="none" fill="black">10</text>
        <path d="M 302.6 920 L 302.6 910" />
        <path d="M 319.2 920 L 319.2 910" />
        <path d="M 335.8 920 L 335.8 910" />
        <path d="M 352.4 920 L 352.4 910" />
        <path d="M 369 920 L 369 910" />
        <path d="M 385.6 920 L 385.6 910" />
        <path d="M 402.2 920 L 402.2 910" />
        <path d="M 418.8 920 L 418.8 910" />
        <path d="M 435.4 920 L 435.4 910" />
        <path d="M 452 920 L 452 900" />
        <text font-size="30" transform="translate(452, 950)" text-anchor="middle" dominant-baseline="middle" stroke="none" fill="black">20</text>
        <path d="M 468.6 920 L 468.6 910" />
        <path d="M 485.2 920 L 485.2 910" />
        <path d="M 501.8 920 L 501.8 910" />
        <path d="M 518.4 920 L 518.4 910" />
        <path d="M 535 920 L 535 910" />
        <path d="M 551.6 920 L 551.6 910" />
        <path d="M 568.2 920 L 568.2 910" />
        <path d="M 584.8 920 L 584.8 910" />
        <path d="M 601.4 920 L 601.4 910" />
        <path d="M 618 920 L 618 900" />
        <text font-size="30" transform="translate(618, 950)" text-anchor="middle" dominant-baseline="middle" stroke="none" fill="black">30</text>
        <path d="M 634.6 920 L 634.6 910" />
        <path d="M 651.2 920 L 651.2 910" />
        <path d="M 667.8 920 L 667.8 910" />
        <path d="M 684.4 920 L 684.4 910" />
        <path d="M 701 920 L 701 910" />
        <path d="M 717.6 920 L 717.6 910" />
        <path d="M 734.2 920 L 734.2 910" />
        <path d="M 750.8 920 L 750.8 910" />
        <path d="M 767.4 920 L 767.4 910" />
        <path d="M 784 920 L 784 900" />
        <text font-size="30" transform="translate(784, 950)" text-anchor="middle" dominant-baseline="middle" stroke="none" fill="black">40</text>
        <path d="M 800.6 920 L 800.6 910" />
        <path d="M 817.2 920 L 817.2 910" />
        <path d="M 833.8 920 L 833.8 910" />
        <path d="M 850.4 920 L 850.4 910" />
        <path d="M 867 920 L 867 910" />
        <path d="M 883.6 920 L 883.6 910" />
        <path d="M 900.2 920 L 900.2 910" />
        <path d="M 916.8 920 L 916.8 910" />
        <path d="M 933.4 920 L 933.4 910" />
        <path d="M 950 920 L 950 900" />
        <text font-size="30" transform="translate(950, 950)" text-anchor="middle" dominant-baseline="middle" stroke="none" fill="black">50</text>
    </g>
    <g id="frame_0_leftticks">
        <path d="M 120 457.48 L 130 457.48" />
        <path d="M 120 226.22 L 130 226.22" />
        <path d="M 120 789.916 L 130 789.916" />
        <path d="M 120 920 L 140 920" />
        <text font-size="30" transform="translate(110, 930)" text-anchor="end" dominant-baseline="middle" stroke="none" fill="black">0</text>
        <path d="M 120 659.833 L 130 659.833" />
        <path d="M 120 414.119 L 130 414.119" />
        <path d="M 120 529.749 L 130 529.749" />
        <path d="M 120 862.185 L 130 862.185" />
        <path d="M 120 370.758 L 130 370.758" />
        <path d="M 120 197.313 L 140 197.313" />
        <text font-size="30" transform="translate(110, 207.313)" text-anchor="end" dominant-baseline="middle" stroke="none" fill="black">5000</text>
        <path d="M 120 732.101 L 130 732.101" />
        <path d="M 120 602.018 L 130 602.018" />
        <path d="M 120 327.396 L 130 327.396" />
        <path d="M 120 471.934 L 130 471.934" />
        <path d="M 120 804.37 L 130 804.37" />
        <path d="M 120 284.035 L 130 284.035" />
        <path d="M 120 125.044 L 130 125.044" />
        <path d="M 120 674.286 L 130 674.286" />
        <path d="M 120 67.2289 L 130 67.2289" />
        <path d="M 120 544.203 L 130 544.203" />
        <path d="M 120 240.674 L 130 240.674" />
        <path d="M 120 876.639 L 130 876.639" />
        <path d="M 120 746.555 L 130 746.555" />
        <path d="M 120 428.573 L 130 428.573" />
        <path d="M 120 616.471 L 130 616.471" />
        <path d="M 120 630.925 L 140 630.925" />
        <text font-size="30" transform="translate(110, 640.925)" text-anchor="end" dominant-baseline="middle" stroke="none" fill="black">2000</text>
        <path d="M 120 486.388 L 140 486.388" />
        <text font-size="30" transform="translate(110, 496.388)" text-anchor="end" dominant-baseline="middle" stroke="none" fill="black">3000</text>
        <path d="M 120 385.211 L 130 385.211" />
        <path d="M 120 818.824 L 130 818.824" />
        <path d="M 120 688.74 L 130 688.74" />
        <path d="M 120 110.59 L 130 110.59" />
        <path d="M 120 153.951 L 130 153.951" />
        <path d="M 120 558.656 L 130 558.656" />
        <path d="M 120 891.093 L 130 891.093" />
        <path d="M 120 298.489 L 130 298.489" />
        <path d="M 120 761.009 L 130 761.009" />
        <path d="M 120 182.859 L 130 182.859" />
        <path d="M 120 168.405 L 130 168.405" />
        <path d="M 120 255.128 L 130 255.128" />
        <path d="M 120 341.85 L 140 341.85" />
        <text font-size="30" transform="translate(110, 351.85)" text-anchor="end" dominant-baseline="middle" stroke="none" fill="black">4000</text>
        <path d="M 120 500.841 L 130 500.841" />
        <path d="M 120 775.463 L 140 775.463" />
        <text font-size="30" transform="translate(110, 785.463)" text-anchor="end" dominant-baseline="middle" stroke="none" fill="black">1000</text>
        <path d="M 120 211.766 L 130 211.766" />
        <path d="M 120 833.278 L 130 833.278" />
        <path d="M 120 443.026 L 130 443.026" />
        <path d="M 120 703.194 L 130 703.194" />
        <path d="M 120 573.11 L 130 573.11" />
        <path d="M 120 399.665 L 130 399.665" />
        <path d="M 120 905.546 L 130 905.546" />
        <path d="M 120 312.943 L 130 312.943" />
        <path d="M 120 356.304 L 130 356.304" />
        <path d="M 120 52.7751 L 140 52.7751" />
        <text font-size="30" transform="translate(110, 62.7751)" text-anchor="end" dominant-baseline="middle" stroke="none" fill="black">6000</text>
        <path d="M 120 645.379 L 130 645.379" />
        <path d="M 120 515.295 L 130 515.295" />
        <path d="M 120 81.6826 L 130 81.6826" />
        <path d="M 120 847.731 L 130 847.731" />
        <path d="M 120 96.1364 L 130 96.1364" />
        <path d="M 120 717.648 L 130 717.648" />
        <path d="M 120 269.581 L 130 269.581" />
        <path d="M 120 587.564 L 130 587.564" />
        <path d="M 120 139.498 L 130 139.498" />
    </g>
    <text id="frame_0_toplabel" font-size="30" transform="translate(535, 32.6)" text-anchor="middle" dominant-baseline="middle" stroke="none" fill="black">la.transpose</text>
    <g id="frame_0_topticks">
        <path d="M 120 50 L 120 70" />
        <path d="M 136.6 50 L 136.6 60" />
        <path d="M 153.2 50 L 153.2 60" />
        <path d="M 169.8 50 L 169.8 60" />
        <path d="M 186.4 50 L 186.4 60" />
        <path d="M 203 50 L 203 60" />
        <path d="M 219.6 50 L 219.6 60" />
        <path d="M 236.2 50 L 236.2 60" />
        <path d="M 252.8 50 L 252.8 60" />
        <path d="M 269.4 50 L 269.4 60" />
        <path d="M 286 50 L 286 70" />
        <path d="M 302.6 50 L 302.6 60" />
        <path d="M 319.2 50 L 319.2 60" />
        <path d="M 335.8 50 L 335.8 60" />
        <path d="M 352.4 50 L 352.4 60" />
        <path d="M 369 50 L 369 60" />
        <path d="M 385.6 50 L 385.6 60" />
        <path d="M 402.2 50 L 402.2 60" />
        <path d="M 418.8 50 L 418.8 60" />
        <path d="M 435.4 50 L 435.4 60" />
        <path d="M 452 50 L 452 70" />
        <path d="M 468.6 50 L 468.6 60" />
        <path d="M 485.2 50 L 485.2 60" />
        <path d="M 501.8 50 L 501.8 60" />
        <path d="M 518.4 50 L 518.4 60" />
        <path d="M 535 50 L 535 60" />
        <path d="M 551.6 50 L 551.6 60" />
        <path d="M 568.2 50 L 568.2 60" />
        <path d="M 584.8 50 L 584.8 60" />
        <path d="M 601.4 50 L 601.4 60" />
        <path d="M 618 50 L 618 70" />
        <path d="M 634.6 50 L 634.6 60" />
        <path d="M 651.2 50 L 651.2 60" />
        <path d="M 667.8 50 L 667.8 60" />
        <path d="M 684.4 50 L 684.4 60" />
        <path d="M 701 50 L 701 60" />
        <path d="M 717.6 50 L 717.6 60" />
        <path d="M 734.2 50 L 734.2 60" />
        <path d="M 750.8 50 L 750.8 60" />
        <path d="M 767.4 50 L 767.4 60" />
        <path d="M 784 50 L 784 70" />
        <path d="M 800.6 50 L 800.6 60" />
        <path d="M 817.2 50 L 817.2 60" />
        <path d="M 833.8 50 L 833.8 60" />
        <path d="M 850.4 50 L 850.4 60" />
        <path d="M 867 50 L 867 60" />
        <path d="M 883.6 50 L 883.6 60" />
        <path d="M 900.2 50 L 900.2 60" />
        <path d="M 916.8 50 L 916.8 60" />
        <path d="M 933.4 50 L 933.4 60" />
        <path d="M 950 50 L 950 70" />
    </g>
    <g id="frame_0_rightticks">
        <path d="M 950 457.48 L 940 457.48" />
        <path d="M 950 226.22 L 940 226.22" />
        <path d="M 950 789.916 L 940 789.916" />
        <path d="M 950 920 L 930 920" />
        <path d="M 950 659.833 L 940 659.833" />
        <path d="M 950 414.119 L 940 414.119" />
        <path d="M 950 529.749 L 940 529.749" />
        <path d="M 950 862.185 L 940 862.185" />
        <path d="M 950 370.758 L 940 370.758" />
        <path d="M 950 197.313 L 930 197.313" />
        <path d="M 950 732.101 L 940 732.101" />
        <path d="M 950 602.018 L 940 602.018" />
        <path d="M 950 327.396 L 940 327.396" />
        <path d="M 950 471.934 L 940 471.934" />
        <path d="M 950 804.37 L 940 804.37" />
        <path d="M 950 284.035 L 940 284.035" />
        <path d="M 950 125.044 L 940 125.044" />
        <path d="M 950 674.286 L 940 674.286" />
        <path d="M 950 67.2289 L 940 67.2289" />
        <path d="M 950 544.203 L 940 544.203" />
        <path d="M 950 240.674 L 940 240.674" />
        <path d="M 950 876.639 L 940 876.639" />
        <path d="M 950 746.555 L 940 746.555" />
        <path d="M 950 428.573 L 940 428.573" />
        <path d="M 950 616.471 L 940 616.471" />
        <path d="M 950 630.925 L 930 630.925" />
        <path d="M 950 486.388 L 930 486.388" />
        <path d="M 950 385.211 L 940 385.211" />
        <path d="M 950 818.824 L 940 818.824" />
        <path d="M 950 688.74 L 940 688.74" />
        <path d="M 950 110.59 L 940 110.59" />
        <path d="M 950 153.951 L 940 153.951" />
        <path d="M 950 558.656 L 940 558.656" />
        <path d="M 950 891.093 L 940 891.093" />
        <path d="M 950 298.489 L 940 298.489" />
        <path d="M 950 761.009 L 940 761.009" />
        <path d="M 950 182.859 L 940 182.859" />
        <path d="M 950 168.405 L 940 168.405" />
        <path d="M 950 255.128 L 940 255.128" />
        <path d="M 950 341.85 L 930 341.85" />
        <path d="M 950 500.841 L 940 500.841" />
        <path d="M 950 775.463 L 930 775.463" />
        <path d="M 950 211.766 L 940 211.766" />
        <path d="M 950 833.278 L 940 833.278" />
        <path d="M 950 443.026 L 940 443.026" />
        <path d="M 950 703.194 L 940 703.194" />
        <path d="M 950 573.11 L 940 573.11" />
        <path d="M 950 399.665 L 940 399.665" />
        <path d="M 950 905.546 L 940 905.546" />
        <path d="M 950 312.943 L 940 312.943" />
        <path d="M 950 356.304 L 940 356.304" />
        <path d="M 950 52.7751 L 930 52.7751" />
        <path d="M 950 645.379 L 940 645.379" />
        <path d="M 950 515.295 L 940 515.295" />
        <path d="M 950 81.6826 L 940 81.6826" />
        <path d="M 950 847.731 L 940 847.731" />
        <path d="M 950 96.1364 L 940 96.1364" />
        <path d="M 950 717.648 L 940 717.648" />
        <path d="M 950 269.581 L 940 269.581" />
        <path d="M 950 587.564 L 940 587.564" />
        <path d="M 950 139.498 L 940 139.498" />
    </g>
</g>
</g>
</svg>
