<?xml version="1.0" standalone="no"?>
<!DOCTYPE svg PUBLIC "-//W3C//DTD SVG 1.1//EN" "http://www.w3.org/Graphics/SVG/1.1/DTD/svg11.dtd">
<svg style="stroke-linejoin:miter; stroke:black; stroke-width:2.5; text-anchor:middle; fill:none" xmlns="http://www.w3.org/2000/svg" font-family="Helvetica, Arial, FreeSans, Sans, sans, sans-serif" width="1000px" height="1000px" version="1.1" xmlns:xlink="http://www.w3.org/1999/xlink" viewBox="0 0 1000 1000">
<defs>
    <clipPath id="Histogram_0_clip">
        <rect x="120" y="50" width="830" height="870" />
    </clipPath>
</defs>
<g id="whole_document">
<rect id="background" x="0" y="0" width="1000" height="1000" stroke="none" fill="white" />
<g id="Histogram_0" clip-path="url(#Histogram_0_clip)">
    <path d="M 120 920 L 120 129.091 L 161.5 129.091 L 161.5 888.923 L 203 888.923 L 203 920 L 244.5 920 L 244.5 920 L 286 920 L 286 920 L 327.5 920 L 327.5 920 L 369 920 L 369 920 L 410.5 920 L 410.5 920 L 452 920 L 452 920 L 493.5 920 L 493.5 920 L 535 920 L 535 920 L 576.5 920 L 576.5 920 L 618 920 L 618 920 L 659.5 920 L 659.5 920 L 701 920 L 701 920 L 742.5 920 L 742.5 920 L 784 920 L 784 920 L 825.5 920 L 825.5 920 L 867 920 L 867 920 L 908.5 920 L 908.5 920 L 950 920 L 950 920" stroke-width="3" stroke-dasharray="" stroke="black" stroke-opacity="1" fill="DodgerBlue" fill-opacity="1" />
</g>
<g id="frame_0">
    <rect id="frame_0_border" x="120" y="50" width="830" height="870" />
    <text id="frame_0_bottomlabel" font-size="30" transform="translate(535, 989.6)" text-anchor="middle" dominant-baseline="middle" stroke="none" fill="black">microseconds</text>
    <g id="frame_0_bottomticks">
        <path d="M 120 920 L 120 900" />
        <text font-size="30" transform="translate(120, 950)" text-anchor="middle" dominant-baseline="middle" stroke="none" fill="black">0</text>
        <path d="M 136.6 920 L 136.6 910" />
        <path d="M 153.2 920 L 153.2 910" />
        <path d="M 169.8 920 L 169.8 910" />
        <path d="M 186.4 920 L 186.4 910" />
        <path d="M 203 920 L 203 910" />
        <path d="M 219.6 920 L 219.6 910" />
        <path d="M 236.2 920 L 236.2 910" />
        <path d="M 252.8 920 L 252.8 910" />
        <path d="M 269.4 920 L 269.4 910" />
        <path d="M 286 920 L 286 900" />
        <text font-size="30" transform="translate(286, 950)" text-anchor="middle" dominant-baseline="middle" stroke="none" fill="black">10</text>
        <path d="M 302.6 920 L 302.6 910" />
        <path d="M 319.2 920 L 319.2 910" />
        <path d="M 335.8 920 L 335.8 910" />
        <path d="M 352.4 920 L 352.4 910" />
        <path d="M 369 920 L 369 910" />
        <path d="M 385.6 920 L 385.6 910" />
        <path d="M 402.2 920 L 402.2 910" />
        <path d="M 418.8 920 L 418.8 910" />
        <path d="M 435.4 920 L 435.4 910" />
        <path d="M 452 920 L 452 900" />
        <text font-size="30" transform="translate(452, 950)" text-anchor="middle" dominant-baseline="middle" stroke="none" fill="black">20</text>
        <path d="M 468.6 920 L 468.6 910" />
        <path d="M 485.2 920 L 485.2 910" />
        <path d="M 501.8 920 L 501.8 910" />
        <path d="M 518.4 920 L 518.4 910" />
        <path d="M 535 920 L 535 910" />
        <path d="M 551.6 920 L 551.6 910" />
        <path d="M 568.2 920 L 568.2 910" />
        <path d="M 584.8 920 L 584.8 910" />
        <path d="M 601.4 920 L 601.4 910" />
        <path d="M 618 920 L 618 900" />
        <text font-size="30" transform="translate(618, 950)" text-anchor="middle" dominant-baseline="middle" stroke="none" fill="black">30</text>
        <path d="M 634.6 920 L 634.6 910" />
        <path d="M 651.2 920 L 651.2 910" />
        <path d="M 667.8 920 L 667.8 910" />
        <path d="M 684.4 920 L 684.4 910" />
        <path d="M 701 920 L 701 910" />
        <path d="M 717.6 920 L 717.6 910" />
        <path d="M 734.2 920 L 734.2 910" />
        <path d="M 750.8 920 L 750.8 910" />
        <path d="M 767.4 920 L 767.4 910" />
        <path d="M 784 920 L 784 900" />
        <text font-size="30" transform="translate(784, 950)" text-anchor="middle" dominant-baseline="middle" stroke="none" fill="black">40</text>
        <path d="M 800.6 920 L 800.6 910" />
        <path d="M 817.2 920 L 817.2 910" />
        <path d="M 833.8 920 L 833.8 910" />
        <path d="M 850.4 920 L 850.4 910" />
        <path d="M 867 920 L 867 910" />
        <path d="M 883.6 920 L 883.6 910" />
        <path d="M 900.2 920 L 900.2 910" />
        <path d="M 916.8 920 L 916.8 910" />
        <path d="M 933.4 920 L 933.4 910" />
        <path d="M 950 920 L 950 900" />
        <text font-size="30" transform="translate(950, 950)" text-anchor="middle" dominant-baseline="middle" stroke="none" fill="black">50</text>
    </g>
    <g id="frame_0_leftticks">
        <path d="M 120 681.631 L 130 681.631" />
        <path d="M 120 562.446 L 130 562.446" />
        <path d="M 120 517.752 L 130 517.752" />
        <path d="M 120 607.14 L 130 607.14" />
        <path d="M 120 413.465 L 130 413.465" />
        <path d="M 120 70.8096 L 130 70.8096" />
        <path d="M 120 532.65 L 130 532.65" />
        <path d="M 120 815.713 L 130 815.713" />
        <path d="M 120 219.79 L 130 219.79" />
        <path d="M 120 696.529 L 130 696.529" />
        <path d="M 120 55.9116 L 130 55.9116" />
        <path d="M 120 920 L 140 920" />
        <text font-size="30" transform="translate(110, 930)" text-anchor="end" dominant-baseline="middle" stroke="none" fill="black">0</text>
        <path d="M 120 487.956 L 130 487.956" />
        <path d="M 120 458.16 L 130 458.16" />
        <path d="M 120 338.975 L 130 338.975" />
        <path d="M 120 860.408 L 130 860.408" />
        <path d="M 120 592.242 L 130 592.242" />
        <path d="M 120 264.485 L 130 264.485" />
        <path d="M 120 771.019 L 140 771.019" />
        <text font-size="30" transform="translate(110, 781.019)" text-anchor="end" dominant-baseline="middle" stroke="none" fill="black">10000</text>
        <path d="M 120 324.077 L 140 324.077" />
        <text font-size="30" transform="translate(110, 334.077)" text-anchor="end" dominant-baseline="middle" stroke="none" fill="black">40000</text>
        <path d="M 120 785.917 L 130 785.917" />
        <path d="M 120 473.058 L 140 473.058" />
        <text font-size="30" transform="translate(110, 483.058)" text-anchor="end" dominant-baseline="middle" stroke="none" fill="black">30000</text>
        <path d="M 120 383.669 L 130 383.669" />
        <path d="M 120 711.427 L 130 711.427" />
        <path d="M 120 845.51 L 130 845.51" />
        <path d="M 120 309.179 L 130 309.179" />
        <path d="M 120 636.937 L 130 636.937" />
        <path d="M 120 189.994 L 130 189.994" />
        <path d="M 120 428.363 L 130 428.363" />
        <path d="M 120 800.815 L 130 800.815" />
        <path d="M 120 502.854 L 130 502.854" />
        <path d="M 120 547.548 L 130 547.548" />
        <path d="M 120 622.038 L 140 622.038" />
        <text font-size="30" transform="translate(110, 632.038)" text-anchor="end" dominant-baseline="middle" stroke="none" fill="black">20000</text>
        <path d="M 120 726.325 L 130 726.325" />
        <path d="M 120 353.873 L 130 353.873" />
        <path d="M 120 145.3 L 130 145.3" />
        <path d="M 120 160.198 L 130 160.198" />
        <path d="M 120 890.204 L 130 890.204" />
        <path d="M 120 875.306 L 130 875.306" />
        <path d="M 120 279.383 L 130 279.383" />
        <path d="M 120 577.344 L 130 577.344" />
        <path d="M 120 130.402 L 130 130.402" />
        <path d="M 120 398.567 L 130 398.567" />
        <path d="M 120 85.7077 L 130 85.7077" />
        <path d="M 120 741.223 L 130 741.223" />
        <path d="M 120 651.835 L 130 651.835" />
        <path d="M 120 204.892 L 130 204.892" />
        <path d="M 120 115.504 L 130 115.504" />
        <path d="M 120 905.102 L 130 905.102" />
        <path d="M 120 294.281 L 130 294.281" />
        <path d="M 120 443.262 L 130 443.262" />
        <path d="M 120 830.612 L 130 830.612" />
        <path d="M 120 666.733 L 130 666.733" />
        <path d="M 120 100.606 L 130 100.606" />
        <path d="M 120 249.587 L 130 249.587" />
        <path d="M 120 175.096 L 140 175.096" />
        <text font-size="30" transform="translate(110, 185.096)" text-anchor="end" dominant-baseline="middle" stroke="none" fill="black">50000</text>
        <path d="M 120 756.121 L 130 756.121" />
        <path d="M 120 368.771 L 130 368.771" />
        <path d="M 120 234.688 L 130 234.688" />
    </g>
    <text id="frame_0_toplabel" font-size="30" transform="translate(535, 32.6)" text-anchor="middle" dominant-baseline="middle" stroke="none" fill="black">cast.avro</text>
    <g id="frame_0_topticks">
        <path d="M 120 50 L 120 70" />
        <path d="M 136.6 50 L 136.6 60" />
        <path d="M 153.2 50 L 153.2 60" />
        <path d="M 169.8 50 L 169.8 60" />
        <path d="M 186.4 50 L 186.4 60" />
        <path d="M 203 50 L 203 60" />
        <path d="M 219.6 50 L 219.6 60" />
        <path d="M 236.2 50 L 236.2 60" />
        <path d="M 252.8 50 L 252.8 60" />
        <path d="M 269.4 50 L 269.4 60" />
        <path d="M 286 50 L 286 70" />
        <path d="M 302.6 50 L 302.6 60" />
        <path d="M 319.2 50 L 319.2 60" />
        <path d="M 335.8 50 L 335.8 60" />
        <path d="M 352.4 50 L 352.4 60" />
        <path d="M 369 50 L 369 60" />
        <path d="M 385.6 50 L 385.6 60" />
        <path d="M 402.2 50 L 402.2 60" />
        <path d="M 418.8 50 L 418.8 60" />
        <path d="M 435.4 50 L 435.4 60" />
        <path d="M 452 50 L 452 70" />
        <path d="M 468.6 50 L 468.6 60" />
        <path d="M 485.2 50 L 485.2 60" />
        <path d="M 501.8 50 L 501.8 60" />
        <path d="M 518.4 50 L 518.4 60" />
        <path d="M 535 50 L 535 60" />
        <path d="M 551.6 50 L 551.6 60" />
        <path d="M 568.2 50 L 568.2 60" />
        <path d="M 584.8 50 L 584.8 60" />
        <path d="M 601.4 50 L 601.4 60" />
        <path d="M 618 50 L 618 70" />
        <path d="M 634.6 50 L 634.6 60" />
        <path d="M 651.2 50 L 651.2 60" />
        <path d="M 667.8 50 L 667.8 60" />
        <path d="M 684.4 50 L 684.4 60" />
        <path d="M 701 50 L 701 60" />
        <path d="M 717.6 50 L 717.6 60" />
        <path d="M 734.2 50 L 734.2 60" />
        <path d="M 750.8 50 L 750.8 60" />
        <path d="M 767.4 50 L 767.4 60" />
        <path d="M 784 50 L 784 70" />
        <path d="M 800.6 50 L 800.6 60" />
        <path d="M 817.2 50 L 817.2 60" />
        <path d="M 833.8 50 L 833.8 60" />
        <path d="M 850.4 50 L 850.4 60" />
        <path d="M 867 50 L 867 60" />
        <path d="M 883.6 50 L 883.6 60" />
        <path d="M 900.2 50 L 900.2 60" />
        <path d="M 916.8 50 L 916.8 60" />
        <path d="M 933.4 50 L 933.4 60" />
        <path d="M 950 50 L 950 70" />
    </g>
    <g id="frame_0_rightticks">
        <path d="M 950 681.631 L 940 681.631" />
        <path d="M 950 562.446 L 940 562.446" />
        <path d="M 950 517.752 L 940 517.752" />
        <path d="M 950 607.14 L 940 607.14" />
        <path d="M 950 413.465 L 940 413.465" />
        <path d="M 950 70.8096 L 940 70.8096" />
        <path d="M 950 532.65 L 940 532.65" />
        <path d="M 950 815.713 L 940 815.713" />
        <path d="M 950 219.79 L 940 219.79" />
        <path d="M 950 696.529 L 940 696.529" />
        <path d="M 950 55.9116 L 940 55.9116" />
        <path d="M 950 920 L 930 920" />
        <path d="M 950 487.956 L 940 487.956" />
        <path d="M 950 458.16 L 940 458.16" />
        <path d="M 950 338.975 L 940 338.975" />
        <path d="M 950 860.408 L 940 860.408" />
        <path d="M 950 592.242 L 940 592.242" />
        <path d="M 950 264.485 L 940 264.485" />
        <path d="M 950 771.019 L 930 771.019" />
        <path d="M 950 324.077 L 930 324.077" />
        <path d="M 950 785.917 L 940 785.917" />
        <path d="M 950 473.058 L 930 473.058" />
        <path d="M 950 383.669 L 940 383.669" />
        <path d="M 950 711.427 L 940 711.427" />
        <path d="M 950 845.51 L 940 845.51" />
        <path d="M 950 309.179 L 940 309.179" />
        <path d="M 950 636.937 L 940 636.937" />
        <path d="M 950 189.994 L 940 189.994" />
        <path d="M 950 428.363 L 940 428.363" />
        <path d="M 950 800.815 L 940 800.815" />
        <path d="M 950 502.854 L 940 502.854" />
        <path d="M 950 547.548 L 940 547.548" />
        <path d="M 950 622.038 L 930 622.038" />
        <path d="M 950 726.325 L 940 726.325" />
        <path d="M 950 353.873 L 940 353.873" />
        <path d="M 950 145.3 L 940 145.3" />
        <path d="M 950 160.198 L 940 160.198" />
        <path d="M 950 890.204 L 940 890.204" />
        <path d="M 950 875.306 L 940 875.306" />
        <path d="M 950 279.383 L 940 279.383" />
        <path d="M 950 577.344 L 940 577.344" />
        <path d="M 950 130.402 L 940 130.402" />
        <path d="M 950 398.567 L 940 398.567" />
        <path d="M 950 85.7077 L 940 85.7077" />
        <path d="M 950 741.223 L 940 741.223" />
        <path d="M 950 651.835 L 940 651.835" />
        <path d="M 950 204.892 L 940 204.892" />
        <path d="M 950 115.504 L 940 115.504" />
        <path d="M 950 905.102 L 940 905.102" />
        <path d="M 950 294.281 L 940 294.281" />
        <path d="M 950 443.262 L 940 443.262" />
        <path d="M 950 830.612 L 940 830.612" />
        <path d="M 950 666.733 L 940 666.733" />
        <path d="M 950 100.606 L 940 100.606" />
        <path d="M 950 249.587 L 940 249.587" />
        <path d="M 950 175.096 L 930 175.096" />
        <path d="M 950 756.121 L 940 756.121" />
        <path d="M 950 368.771 L 940 368.771" />
        <path d="M 950 234.688 L 940 234.688" />
    </g>
</g>
</g>
</svg>
