<?xml version="1.0" standalone="no"?>
<!DOCTYPE svg PUBLIC "-//W3C//DTD SVG 1.1//EN" "http://www.w3.org/Graphics/SVG/1.1/DTD/svg11.dtd">
<svg style="stroke-linejoin:miter; stroke:black; stroke-width:2.5; text-anchor:middle; fill:none" xmlns="http://www.w3.org/2000/svg" font-family="Helvetica, Arial, FreeSans, Sans, sans, sans-serif" width="1000px" height="1000px" version="1.1" xmlns:xlink="http://www.w3.org/1999/xlink" viewBox="0 0 1000 1000">
<defs>
    <clipPath id="Histogram_0_clip">
        <rect x="120" y="50" width="830" height="870" />
    </clipPath>
    <clipPath id="Histogram_1_clip">
        <rect x="120" y="50" width="830" height="870" />
    </clipPath>
</defs>
<g id="whole_document">
<rect id="background" x="0" y="0" width="1000" height="1000" stroke="none" fill="white" />
<g id="Histogram_0" clip-path="url(#Histogram_0_clip)">
    <path d="M 120 920 L 120 129.091 L 161.5 129.091 L 161.5 920 L 203 920 L 203 918.297 L 244.5 918.297 L 244.5 858.796 L 286 858.796 L 286 918.199 L 327.5 918.199 L 327.5 920 L 369 920 L 369 919.374 L 410.5 919.374 L 410.5 920 L 452 920 L 452 920 L 493.5 920 L 493.5 920 L 535 920 L 535 920 L 576.5 920 L 576.5 920 L 618 920 L 618 920 L 659.5 920 L 659.5 920 L 701 920 L 701 920 L 742.5 920 L 742.5 920 L 784 920 L 784 920 L 825.5 920 L 825.5 920 L 867 920 L 867 920 L 908.5 920 L 908.5 920 L 950 920 L 950 920" stroke-width="3" stroke-dasharray="" stroke="black" stroke-opacity="1" fill="DodgerBlue" fill-opacity="1" />
</g>
<g id="Histogram_1" clip-path="url(#Histogram_1_clip)">
    <path d="M 120 920 L 120 920 L 161.5 920 L 161.5 920 L 203 920 L 203 920 L 244.5 920 L 244.5 858.796 L 286 858.796 L 286 918.199 L 327.5 918.199 L 327.5 920 L 369 920 L 369 919.374 L 410.5 919.374 L 410.5 920 L 452 920 L 452 920 L 493.5 920 L 493.5 920 L 535 920 L 535 920 L 576.5 920 L 576.5 920 L 618 920 L 618 920 L 659.5 920 L 659.5 920 L 701 920 L 701 920 L 742.5 920 L 742.5 920 L 784 920 L 784 920 L 825.5 920 L 825.5 920 L 867 920 L 867 920 L 908.5 920 L 908.5 920 L 950 920 L 950 920" stroke-width="3" stroke-dasharray="" stroke="black" stroke-opacity="1" fill="darkorange" fill-opacity="1" />
</g>
<g id="frame_0">
    <rect id="frame_0_border" x="120" y="50" width="830" height="870" />
    <text id="frame_0_bottomlabel" font-size="30" transform="translate(535, 989.6)" text-anchor="middle" dominant-baseline="middle" stroke="none" fill="black">microseconds</text>
    <g id="frame_0_bottomticks">
        <path d="M 120 920 L 120 900" />
        <text font-size="30" transform="translate(120, 950)" text-anchor="middle" dominant-baseline="middle" stroke="none" fill="black">0</text>
        <path d="M 136.6 920 L 136.6 910" />
        <path d="M 153.2 920 L 153.2 910" />
        <path d="M 169.8 920 L 169.8 910" />
        <path d="M 186.4 920 L 186.4 910" />
        <path d="M 203 920 L 203 910" />
        <path d="M 219.6 920 L 219.6 910" />
        <path d="M 236.2 920 L 236.2 910" />
        <path d="M 252.8 920 L 252.8 910" />
        <path d="M 269.4 920 L 269.4 910" />
        <path d="M 286 920 L 286 900" />
        <text font-size="30" transform="translate(286, 950)" text-anchor="middle" dominant-baseline="middle" stroke="none" fill="black">10</text>
        <path d="M 302.6 920 L 302.6 910" />
        <path d="M 319.2 920 L 319.2 910" />
        <path d="M 335.8 920 L 335.8 910" />
        <path d="M 352.4 920 L 352.4 910" />
        <path d="M 369 920 L 369 910" />
        <path d="M 385.6 920 L 385.6 910" />
        <path d="M 402.2 920 L 402.2 910" />
        <path d="M 418.8 920 L 418.8 910" />
        <path d="M 435.4 920 L 435.4 910" />
        <path d="M 452 920 L 452 900" />
        <text font-size="30" transform="translate(452, 950)" text-anchor="middle" dominant-baseline="middle" stroke="none" fill="black">20</text>
        <path d="M 468.6 920 L 468.6 910" />
        <path d="M 485.2 920 L 485.2 910" />
        <path d="M 501.8 920 L 501.8 910" />
        <path d="M 518.4 920 L 518.4 910" />
        <path d="M 535 920 L 535 910" />
        <path d="M 551.6 920 L 551.6 910" />
        <path d="M 568.2 920 L 568.2 910" />
        <path d="M 584.8 920 L 584.8 910" />
        <path d="M 601.4 920 L 601.4 910" />
        <path d="M 618 920 L 618 900" />
        <text font-size="30" transform="translate(618, 950)" text-anchor="middle" dominant-baseline="middle" stroke="none" fill="black">30</text>
        <path d="M 634.6 920 L 634.6 910" />
        <path d="M 651.2 920 L 651.2 910" />
        <path d="M 667.8 920 L 667.8 910" />
        <path d="M 684.4 920 L 684.4 910" />
        <path d="M 701 920 L 701 910" />
        <path d="M 717.6 920 L 717.6 910" />
        <path d="M 734.2 920 L 734.2 910" />
        <path d="M 750.8 920 L 750.8 910" />
        <path d="M 767.4 920 L 767.4 910" />
        <path d="M 784 920 L 784 900" />
        <text font-size="30" transform="translate(784, 950)" text-anchor="middle" dominant-baseline="middle" stroke="none" fill="black">40</text>
        <path d="M 800.6 920 L 800.6 910" />
        <path d="M 817.2 920 L 817.2 910" />
        <path d="M 833.8 920 L 833.8 910" />
        <path d="M 850.4 920 L 850.4 910" />
        <path d="M 867 920 L 867 910" />
        <path d="M 883.6 920 L 883.6 910" />
        <path d="M 900.2 920 L 900.2 910" />
        <path d="M 916.8 920 L 916.8 910" />
        <path d="M 933.4 920 L 933.4 910" />
        <path d="M 950 920 L 950 900" />
        <text font-size="30" transform="translate(950, 950)" text-anchor="middle" dominant-baseline="middle" stroke="none" fill="black">50</text>
    </g>
    <g id="frame_0_leftticks">
        <path d="M 120 225.061 L 130 225.061" />
        <path d="M 120 293.576 L 130 293.576" />
        <path d="M 120 920 L 140 920" />
        <text font-size="30" transform="translate(110, 930)" text-anchor="end" dominant-baseline="middle" stroke="none" fill="black">0</text>
        <path d="M 120 97.8187 L 130 97.8187" />
        <path d="M 120 88.0308 L 130 88.0308" />
        <path d="M 120 743.818 L 130 743.818" />
        <path d="M 120 792.758 L 130 792.758" />
        <path d="M 120 508.909 L 130 508.909" />
        <path d="M 120 538.273 L 130 538.273" />
        <path d="M 120 303.364 L 130 303.364" />
        <path d="M 120 822.121 L 140 822.121" />
        <text font-size="30" transform="translate(110, 832.121)" text-anchor="end" dominant-baseline="middle" stroke="none" fill="black">10000</text>
        <path d="M 120 411.031 L 130 411.031" />
        <path d="M 120 782.97 L 130 782.97" />
        <path d="M 120 694.879 L 130 694.879" />
        <path d="M 120 283.788 L 130 283.788" />
        <path d="M 120 831.909 L 130 831.909" />
        <path d="M 120 567.637 L 130 567.637" />
        <path d="M 120 313.152 L 130 313.152" />
        <path d="M 120 714.455 L 130 714.455" />
        <path d="M 120 724.243 L 140 724.243" />
        <text font-size="30" transform="translate(110, 734.243)" text-anchor="end" dominant-baseline="middle" stroke="none" fill="black">20000</text>
        <path d="M 120 734.03 L 130 734.03" />
        <path d="M 120 185.91 L 130 185.91" />
        <path d="M 120 841.697 L 130 841.697" />
        <path d="M 120 489.334 L 130 489.334" />
        <path d="M 120 469.758 L 130 469.758" />
        <path d="M 120 636.152 L 130 636.152" />
        <path d="M 120 753.606 L 130 753.606" />
        <path d="M 120 626.364 L 140 626.364" />
        <text font-size="30" transform="translate(110, 636.364)" text-anchor="end" dominant-baseline="middle" stroke="none" fill="black">30000</text>
        <path d="M 120 215.273 L 130 215.273" />
        <path d="M 120 420.818 L 130 420.818" />
        <path d="M 120 910.212 L 130 910.212" />
        <path d="M 120 851.485 L 130 851.485" />
        <path d="M 120 117.394 L 130 117.394" />
        <path d="M 120 371.879 L 130 371.879" />
        <path d="M 120 645.94 L 130 645.94" />
        <path d="M 120 352.303 L 130 352.303" />
        <path d="M 120 127.182 L 130 127.182" />
        <path d="M 120 861.273 L 130 861.273" />
        <path d="M 120 812.333 L 130 812.333" />
        <path d="M 120 401.243 L 130 401.243" />
        <path d="M 120 548.061 L 130 548.061" />
        <path d="M 120 440.394 L 130 440.394" />
        <path d="M 120 381.667 L 130 381.667" />
        <path d="M 120 430.606 L 140 430.606" />
        <text font-size="30" transform="translate(110, 440.606)" text-anchor="end" dominant-baseline="middle" stroke="none" fill="black">50000</text>
        <path d="M 120 655.727 L 130 655.727" />
        <path d="M 120 146.758 L 130 146.758" />
        <path d="M 120 763.394 L 130 763.394" />
        <path d="M 120 58.6672 L 130 58.6672" />
        <path d="M 120 557.849 L 130 557.849" />
        <path d="M 120 244.637 L 130 244.637" />
        <path d="M 120 665.515 L 130 665.515" />
        <path d="M 120 773.182 L 130 773.182" />
        <path d="M 120 871.061 L 130 871.061" />
        <path d="M 120 459.97 L 130 459.97" />
        <path d="M 120 332.728 L 140 332.728" />
        <text font-size="30" transform="translate(110, 342.728)" text-anchor="end" dominant-baseline="middle" stroke="none" fill="black">60000</text>
        <path d="M 120 616.576 L 130 616.576" />
        <path d="M 120 205.485 L 130 205.485" />
        <path d="M 120 254.425 L 130 254.425" />
        <path d="M 120 78.2429 L 130 78.2429" />
        <path d="M 120 900.424 L 130 900.424" />
        <path d="M 120 362.091 L 130 362.091" />
        <path d="M 120 156.546 L 130 156.546" />
        <path d="M 120 322.94 L 130 322.94" />
        <path d="M 120 107.607 L 130 107.607" />
        <path d="M 120 264.212 L 130 264.212" />
        <path d="M 120 234.849 L 140 234.849" />
        <text font-size="30" transform="translate(110, 244.849)" text-anchor="end" dominant-baseline="middle" stroke="none" fill="black">70000</text>
        <path d="M 120 802.546 L 130 802.546" />
        <path d="M 120 685.091 L 130 685.091" />
        <path d="M 120 880.849 L 130 880.849" />
        <path d="M 120 675.303 L 130 675.303" />
        <path d="M 120 166.334 L 130 166.334" />
        <path d="M 120 136.97 L 140 136.97" />
        <text font-size="30" transform="translate(110, 146.97)" text-anchor="end" dominant-baseline="middle" stroke="none" fill="black">80000</text>
        <path d="M 120 274 L 130 274" />
        <path d="M 120 342.515 L 130 342.515" />
        <path d="M 120 68.455 L 130 68.455" />
        <path d="M 120 577.424 L 130 577.424" />
        <path d="M 120 176.122 L 130 176.122" />
        <path d="M 120 587.212 L 130 587.212" />
        <path d="M 120 450.182 L 130 450.182" />
        <path d="M 120 391.455 L 130 391.455" />
        <path d="M 120 597 L 130 597" />
        <path d="M 120 606.788 L 130 606.788" />
        <path d="M 120 195.697 L 130 195.697" />
        <path d="M 120 704.667 L 130 704.667" />
        <path d="M 120 518.697 L 130 518.697" />
        <path d="M 120 528.485 L 140 528.485" />
        <text font-size="30" transform="translate(110, 538.485)" text-anchor="end" dominant-baseline="middle" stroke="none" fill="black">40000</text>
        <path d="M 120 890.636 L 130 890.636" />
        <path d="M 120 479.546 L 130 479.546" />
        <path d="M 120 499.121 L 130 499.121" />
    </g>
    <text id="frame_0_toplabel" font-size="30" transform="translate(535, 32.6)" text-anchor="middle" dominant-baseline="middle" stroke="none" fill="black">model.tree.surrogateTest</text>
    <g id="frame_0_topticks">
        <path d="M 120 50 L 120 70" />
        <path d="M 136.6 50 L 136.6 60" />
        <path d="M 153.2 50 L 153.2 60" />
        <path d="M 169.8 50 L 169.8 60" />
        <path d="M 186.4 50 L 186.4 60" />
        <path d="M 203 50 L 203 60" />
        <path d="M 219.6 50 L 219.6 60" />
        <path d="M 236.2 50 L 236.2 60" />
        <path d="M 252.8 50 L 252.8 60" />
        <path d="M 269.4 50 L 269.4 60" />
        <path d="M 286 50 L 286 70" />
        <path d="M 302.6 50 L 302.6 60" />
        <path d="M 319.2 50 L 319.2 60" />
        <path d="M 335.8 50 L 335.8 60" />
        <path d="M 352.4 50 L 352.4 60" />
        <path d="M 369 50 L 369 60" />
        <path d="M 385.6 50 L 385.6 60" />
        <path d="M 402.2 50 L 402.2 60" />
        <path d="M 418.8 50 L 418.8 60" />
        <path d="M 435.4 50 L 435.4 60" />
        <path d="M 452 50 L 452 70" />
        <path d="M 468.6 50 L 468.6 60" />
        <path d="M 485.2 50 L 485.2 60" />
        <path d="M 501.8 50 L 501.8 60" />
        <path d="M 518.4 50 L 518.4 60" />
        <path d="M 535 50 L 535 60" />
        <path d="M 551.6 50 L 551.6 60" />
        <path d="M 568.2 50 L 568.2 60" />
        <path d="M 584.8 50 L 584.8 60" />
        <path d="M 601.4 50 L 601.4 60" />
        <path d="M 618 50 L 618 70" />
        <path d="M 634.6 50 L 634.6 60" />
        <path d="M 651.2 50 L 651.2 60" />
        <path d="M 667.8 50 L 667.8 60" />
        <path d="M 684.4 50 L 684.4 60" />
        <path d="M 701 50 L 701 60" />
        <path d="M 717.6 50 L 717.6 60" />
        <path d="M 734.2 50 L 734.2 60" />
        <path d="M 750.8 50 L 750.8 60" />
        <path d="M 767.4 50 L 767.4 60" />
        <path d="M 784 50 L 784 70" />
        <path d="M 800.6 50 L 800.6 60" />
        <path d="M 817.2 50 L 817.2 60" />
        <path d="M 833.8 50 L 833.8 60" />
        <path d="M 850.4 50 L 850.4 60" />
        <path d="M 867 50 L 867 60" />
        <path d="M 883.6 50 L 883.6 60" />
        <path d="M 900.2 50 L 900.2 60" />
        <path d="M 916.8 50 L 916.8 60" />
        <path d="M 933.4 50 L 933.4 60" />
        <path d="M 950 50 L 950 70" />
    </g>
    <g id="frame_0_rightticks">
        <path d="M 950 225.061 L 940 225.061" />
        <path d="M 950 293.576 L 940 293.576" />
        <path d="M 950 920 L 930 920" />
        <path d="M 950 97.8187 L 940 97.8187" />
        <path d="M 950 88.0308 L 940 88.0308" />
        <path d="M 950 743.818 L 940 743.818" />
        <path d="M 950 792.758 L 940 792.758" />
        <path d="M 950 508.909 L 940 508.909" />
        <path d="M 950 538.273 L 940 538.273" />
        <path d="M 950 303.364 L 940 303.364" />
        <path d="M 950 822.121 L 930 822.121" />
        <path d="M 950 411.031 L 940 411.031" />
        <path d="M 950 782.97 L 940 782.97" />
        <path d="M 950 694.879 L 940 694.879" />
        <path d="M 950 283.788 L 940 283.788" />
        <path d="M 950 831.909 L 940 831.909" />
        <path d="M 950 567.637 L 940 567.637" />
        <path d="M 950 313.152 L 940 313.152" />
        <path d="M 950 714.455 L 940 714.455" />
        <path d="M 950 724.243 L 930 724.243" />
        <path d="M 950 734.03 L 940 734.03" />
        <path d="M 950 185.91 L 940 185.91" />
        <path d="M 950 841.697 L 940 841.697" />
        <path d="M 950 489.334 L 940 489.334" />
        <path d="M 950 469.758 L 940 469.758" />
        <path d="M 950 636.152 L 940 636.152" />
        <path d="M 950 753.606 L 940 753.606" />
        <path d="M 950 626.364 L 930 626.364" />
        <path d="M 950 215.273 L 940 215.273" />
        <path d="M 950 420.818 L 940 420.818" />
        <path d="M 950 910.212 L 940 910.212" />
        <path d="M 950 851.485 L 940 851.485" />
        <path d="M 950 117.394 L 940 117.394" />
        <path d="M 950 371.879 L 940 371.879" />
        <path d="M 950 645.94 L 940 645.94" />
        <path d="M 950 352.303 L 940 352.303" />
        <path d="M 950 127.182 L 940 127.182" />
        <path d="M 950 861.273 L 940 861.273" />
        <path d="M 950 812.333 L 940 812.333" />
        <path d="M 950 401.243 L 940 401.243" />
        <path d="M 950 548.061 L 940 548.061" />
        <path d="M 950 440.394 L 940 440.394" />
        <path d="M 950 381.667 L 940 381.667" />
        <path d="M 950 430.606 L 930 430.606" />
        <path d="M 950 655.727 L 940 655.727" />
        <path d="M 950 146.758 L 940 146.758" />
        <path d="M 950 763.394 L 940 763.394" />
        <path d="M 950 58.6672 L 940 58.6672" />
        <path d="M 950 557.849 L 940 557.849" />
        <path d="M 950 244.637 L 940 244.637" />
        <path d="M 950 665.515 L 940 665.515" />
        <path d="M 950 773.182 L 940 773.182" />
        <path d="M 950 871.061 L 940 871.061" />
        <path d="M 950 459.97 L 940 459.97" />
        <path d="M 950 332.728 L 930 332.728" />
        <path d="M 950 616.576 L 940 616.576" />
        <path d="M 950 205.485 L 940 205.485" />
        <path d="M 950 254.425 L 940 254.425" />
        <path d="M 950 78.2429 L 940 78.2429" />
        <path d="M 950 900.424 L 940 900.424" />
        <path d="M 950 362.091 L 940 362.091" />
        <path d="M 950 156.546 L 940 156.546" />
        <path d="M 950 322.94 L 940 322.94" />
        <path d="M 950 107.607 L 940 107.607" />
        <path d="M 950 264.212 L 940 264.212" />
        <path d="M 950 234.849 L 930 234.849" />
        <path d="M 950 802.546 L 940 802.546" />
        <path d="M 950 685.091 L 940 685.091" />
        <path d="M 950 880.849 L 940 880.849" />
        <path d="M 950 675.303 L 940 675.303" />
        <path d="M 950 166.334 L 940 166.334" />
        <path d="M 950 136.97 L 930 136.97" />
        <path d="M 950 274 L 940 274" />
        <path d="M 950 342.515 L 940 342.515" />
        <path d="M 950 68.455 L 940 68.455" />
        <path d="M 950 577.424 L 940 577.424" />
        <path d="M 950 176.122 L 940 176.122" />
        <path d="M 950 587.212 L 940 587.212" />
        <path d="M 950 450.182 L 940 450.182" />
        <path d="M 950 391.455 L 940 391.455" />
        <path d="M 950 597 L 940 597" />
        <path d="M 950 606.788 L 940 606.788" />
        <path d="M 950 195.697 L 940 195.697" />
        <path d="M 950 704.667 L 940 704.667" />
        <path d="M 950 518.697 L 940 518.697" />
        <path d="M 950 528.485 L 930 528.485" />
        <path d="M 950 890.636 L 940 890.636" />
        <path d="M 950 479.546 L 940 479.546" />
        <path d="M 950 499.121 L 940 499.121" />
    </g>
</g>
</g>
</svg>
