<?xml version="1.0" standalone="no"?>
<!DOCTYPE svg PUBLIC "-//W3C//DTD SVG 1.1//EN" "http://www.w3.org/Graphics/SVG/1.1/DTD/svg11.dtd">
<svg style="stroke-linejoin:miter; stroke:black; stroke-width:2.5; text-anchor:middle; fill:none" xmlns="http://www.w3.org/2000/svg" font-family="Helvetica, Arial, FreeSans, Sans, sans, sans-serif" width="1000px" height="1000px" version="1.1" xmlns:xlink="http://www.w3.org/1999/xlink" viewBox="0 0 1000 1000">
<defs>
    <clipPath id="Histogram_0_clip">
        <rect x="120" y="50" width="830" height="870" />
    </clipPath>
</defs>
<g id="whole_document">
<rect id="background" x="0" y="0" width="1000" height="1000" stroke="none" fill="white" />
<g id="Histogram_0" clip-path="url(#Histogram_0_clip)">
    <path d="M 120 920 L 120 129.091 L 161.5 129.091 L 161.5 874.571 L 203 874.571 L 203 920 L 244.5 920 L 244.5 920 L 286 920 L 286 892.078 L 327.5 892.078 L 327.5 920 L 369 920 L 369 916.366 L 410.5 916.366 L 410.5 920 L 452 920 L 452 920 L 493.5 920 L 493.5 920 L 535 920 L 535 920 L 576.5 920 L 576.5 920 L 618 920 L 618 920 L 659.5 920 L 659.5 920 L 701 920 L 701 920 L 742.5 920 L 742.5 920 L 784 920 L 784 920 L 825.5 920 L 825.5 920 L 867 920 L 867 920 L 908.5 920 L 908.5 920 L 950 920 L 950 920" stroke-width="3" stroke-dasharray="" stroke="black" stroke-opacity="1" fill="DodgerBlue" fill-opacity="1" />
</g>
<g id="frame_0">
    <rect id="frame_0_border" x="120" y="50" width="830" height="870" />
    <text id="frame_0_bottomlabel" font-size="30" transform="translate(535, 989.6)" text-anchor="middle" dominant-baseline="middle" stroke="none" fill="black">microseconds</text>
    <g id="frame_0_bottomticks">
        <path d="M 120 920 L 120 900" />
        <text font-size="30" transform="translate(120, 950)" text-anchor="middle" dominant-baseline="middle" stroke="none" fill="black">0</text>
        <path d="M 136.6 920 L 136.6 910" />
        <path d="M 153.2 920 L 153.2 910" />
        <path d="M 169.8 920 L 169.8 910" />
        <path d="M 186.4 920 L 186.4 910" />
        <path d="M 203 920 L 203 910" />
        <path d="M 219.6 920 L 219.6 910" />
        <path d="M 236.2 920 L 236.2 910" />
        <path d="M 252.8 920 L 252.8 910" />
        <path d="M 269.4 920 L 269.4 910" />
        <path d="M 286 920 L 286 900" />
        <text font-size="30" transform="translate(286, 950)" text-anchor="middle" dominant-baseline="middle" stroke="none" fill="black">10</text>
        <path d="M 302.6 920 L 302.6 910" />
        <path d="M 319.2 920 L 319.2 910" />
        <path d="M 335.8 920 L 335.8 910" />
        <path d="M 352.4 920 L 352.4 910" />
        <path d="M 369 920 L 369 910" />
        <path d="M 385.6 920 L 385.6 910" />
        <path d="M 402.2 920 L 402.2 910" />
        <path d="M 418.8 920 L 418.8 910" />
        <path d="M 435.4 920 L 435.4 910" />
        <path d="M 452 920 L 452 900" />
        <text font-size="30" transform="translate(452, 950)" text-anchor="middle" dominant-baseline="middle" stroke="none" fill="black">20</text>
        <path d="M 468.6 920 L 468.6 910" />
        <path d="M 485.2 920 L 485.2 910" />
        <path d="M 501.8 920 L 501.8 910" />
        <path d="M 518.4 920 L 518.4 910" />
        <path d="M 535 920 L 535 910" />
        <path d="M 551.6 920 L 551.6 910" />
        <path d="M 568.2 920 L 568.2 910" />
        <path d="M 584.8 920 L 584.8 910" />
        <path d="M 601.4 920 L 601.4 910" />
        <path d="M 618 920 L 618 900" />
        <text font-size="30" transform="translate(618, 950)" text-anchor="middle" dominant-baseline="middle" stroke="none" fill="black">30</text>
        <path d="M 634.6 920 L 634.6 910" />
        <path d="M 651.2 920 L 651.2 910" />
        <path d="M 667.8 920 L 667.8 910" />
        <path d="M 684.4 920 L 684.4 910" />
        <path d="M 701 920 L 701 910" />
        <path d="M 717.6 920 L 717.6 910" />
        <path d="M 734.2 920 L 734.2 910" />
        <path d="M 750.8 920 L 750.8 910" />
        <path d="M 767.4 920 L 767.4 910" />
        <path d="M 784 920 L 784 900" />
        <text font-size="30" transform="translate(784, 950)" text-anchor="middle" dominant-baseline="middle" stroke="none" fill="black">40</text>
        <path d="M 800.6 920 L 800.6 910" />
        <path d="M 817.2 920 L 817.2 910" />
        <path d="M 833.8 920 L 833.8 910" />
        <path d="M 850.4 920 L 850.4 910" />
        <path d="M 867 920 L 867 910" />
        <path d="M 883.6 920 L 883.6 910" />
        <path d="M 900.2 920 L 900.2 910" />
        <path d="M 916.8 920 L 916.8 910" />
        <path d="M 933.4 920 L 933.4 910" />
        <path d="M 950 920 L 950 900" />
        <text font-size="30" transform="translate(950, 950)" text-anchor="middle" dominant-baseline="middle" stroke="none" fill="black">50</text>
    </g>
    <g id="frame_0_leftticks">
        <path d="M 120 609.108 L 130 609.108" />
        <path d="M 120 453.662 L 130 453.662" />
        <path d="M 120 395.37 L 130 395.37" />
        <path d="M 120 511.954 L 130 511.954" />
        <path d="M 120 259.355 L 130 259.355" />
        <path d="M 120 414.801 L 130 414.801" />
        <path d="M 120 783.985 L 130 783.985" />
        <path d="M 120 822.846 L 140 822.846" />
        <text font-size="30" transform="translate(110, 832.846)" text-anchor="end" dominant-baseline="middle" stroke="none" fill="black">5000</text>
        <path d="M 120 317.647 L 130 317.647" />
        <path d="M 120 920 L 140 920" />
        <text font-size="30" transform="translate(110, 930)" text-anchor="end" dominant-baseline="middle" stroke="none" fill="black">0</text>
        <path d="M 120 725.693 L 140 725.693" />
        <text font-size="30" transform="translate(110, 735.693)" text-anchor="end" dominant-baseline="middle" stroke="none" fill="black">10000</text>
        <path d="M 120 162.201 L 130 162.201" />
        <path d="M 120 842.277 L 130 842.277" />
        <path d="M 120 492.524 L 130 492.524" />
        <path d="M 120 65.0472 L 130 65.0472" />
        <path d="M 120 531.385 L 140 531.385" />
        <text font-size="30" transform="translate(110, 541.385)" text-anchor="end" dominant-baseline="middle" stroke="none" fill="black">20000</text>
        <path d="M 120 745.123 L 130 745.123" />
        <path d="M 120 628.539 L 140 628.539" />
        <text font-size="30" transform="translate(110, 638.539)" text-anchor="end" dominant-baseline="middle" stroke="none" fill="black">15000</text>
        <path d="M 120 220.493 L 130 220.493" />
        <path d="M 120 647.97 L 130 647.97" />
        <path d="M 120 356.508 L 130 356.508" />
        <path d="M 120 123.339 L 130 123.339" />
        <path d="M 120 550.816 L 130 550.816" />
        <path d="M 120 278.785 L 130 278.785" />
        <path d="M 120 764.554 L 130 764.554" />
        <path d="M 120 375.939 L 130 375.939" />
        <path d="M 120 434.231 L 140 434.231" />
        <text font-size="30" transform="translate(110, 444.231)" text-anchor="end" dominant-baseline="middle" stroke="none" fill="black">25000</text>
        <path d="M 120 667.4 L 130 667.4" />
        <path d="M 120 181.632 L 130 181.632" />
        <path d="M 120 337.078 L 140 337.078" />
        <text font-size="30" transform="translate(110, 347.078)" text-anchor="end" dominant-baseline="middle" stroke="none" fill="black">30000</text>
        <path d="M 120 570.247 L 130 570.247" />
        <path d="M 120 861.708 L 130 861.708" />
        <path d="M 120 84.4779 L 130 84.4779" />
        <path d="M 120 473.093 L 130 473.093" />
        <path d="M 120 239.924 L 140 239.924" />
        <text font-size="30" transform="translate(110, 249.924)" text-anchor="end" dominant-baseline="middle" stroke="none" fill="black">35000</text>
        <path d="M 120 686.831 L 130 686.831" />
        <path d="M 120 881.139 L 130 881.139" />
        <path d="M 120 900.569 L 130 900.569" />
        <path d="M 120 103.909 L 130 103.909" />
        <path d="M 120 298.216 L 130 298.216" />
        <path d="M 120 803.416 L 130 803.416" />
        <path d="M 120 589.677 L 130 589.677" />
        <path d="M 120 142.77 L 140 142.77" />
        <text font-size="30" transform="translate(110, 152.77)" text-anchor="end" dominant-baseline="middle" stroke="none" fill="black">40000</text>
        <path d="M 120 706.262 L 130 706.262" />
        <path d="M 120 201.062 L 130 201.062" />
    </g>
    <text id="frame_0_toplabel" font-size="30" transform="translate(535, 32.6)" text-anchor="middle" dominant-baseline="middle" stroke="none" fill="black">m.link.loglog</text>
    <g id="frame_0_topticks">
        <path d="M 120 50 L 120 70" />
        <path d="M 136.6 50 L 136.6 60" />
        <path d="M 153.2 50 L 153.2 60" />
        <path d="M 169.8 50 L 169.8 60" />
        <path d="M 186.4 50 L 186.4 60" />
        <path d="M 203 50 L 203 60" />
        <path d="M 219.6 50 L 219.6 60" />
        <path d="M 236.2 50 L 236.2 60" />
        <path d="M 252.8 50 L 252.8 60" />
        <path d="M 269.4 50 L 269.4 60" />
        <path d="M 286 50 L 286 70" />
        <path d="M 302.6 50 L 302.6 60" />
        <path d="M 319.2 50 L 319.2 60" />
        <path d="M 335.8 50 L 335.8 60" />
        <path d="M 352.4 50 L 352.4 60" />
        <path d="M 369 50 L 369 60" />
        <path d="M 385.6 50 L 385.6 60" />
        <path d="M 402.2 50 L 402.2 60" />
        <path d="M 418.8 50 L 418.8 60" />
        <path d="M 435.4 50 L 435.4 60" />
        <path d="M 452 50 L 452 70" />
        <path d="M 468.6 50 L 468.6 60" />
        <path d="M 485.2 50 L 485.2 60" />
        <path d="M 501.8 50 L 501.8 60" />
        <path d="M 518.4 50 L 518.4 60" />
        <path d="M 535 50 L 535 60" />
        <path d="M 551.6 50 L 551.6 60" />
        <path d="M 568.2 50 L 568.2 60" />
        <path d="M 584.8 50 L 584.8 60" />
        <path d="M 601.4 50 L 601.4 60" />
        <path d="M 618 50 L 618 70" />
        <path d="M 634.6 50 L 634.6 60" />
        <path d="M 651.2 50 L 651.2 60" />
        <path d="M 667.8 50 L 667.8 60" />
        <path d="M 684.4 50 L 684.4 60" />
        <path d="M 701 50 L 701 60" />
        <path d="M 717.6 50 L 717.6 60" />
        <path d="M 734.2 50 L 734.2 60" />
        <path d="M 750.8 50 L 750.8 60" />
        <path d="M 767.4 50 L 767.4 60" />
        <path d="M 784 50 L 784 70" />
        <path d="M 800.6 50 L 800.6 60" />
        <path d="M 817.2 50 L 817.2 60" />
        <path d="M 833.8 50 L 833.8 60" />
        <path d="M 850.4 50 L 850.4 60" />
        <path d="M 867 50 L 867 60" />
        <path d="M 883.6 50 L 883.6 60" />
        <path d="M 900.2 50 L 900.2 60" />
        <path d="M 916.8 50 L 916.8 60" />
        <path d="M 933.4 50 L 933.4 60" />
        <path d="M 950 50 L 950 70" />
    </g>
    <g id="frame_0_rightticks">
        <path d="M 950 609.108 L 940 609.108" />
        <path d="M 950 453.662 L 940 453.662" />
        <path d="M 950 395.37 L 940 395.37" />
        <path d="M 950 511.954 L 940 511.954" />
        <path d="M 950 259.355 L 940 259.355" />
        <path d="M 950 414.801 L 940 414.801" />
        <path d="M 950 783.985 L 940 783.985" />
        <path d="M 950 822.846 L 930 822.846" />
        <path d="M 950 317.647 L 940 317.647" />
        <path d="M 950 920 L 930 920" />
        <path d="M 950 725.693 L 930 725.693" />
        <path d="M 950 162.201 L 940 162.201" />
        <path d="M 950 842.277 L 940 842.277" />
        <path d="M 950 492.524 L 940 492.524" />
        <path d="M 950 65.0472 L 940 65.0472" />
        <path d="M 950 531.385 L 930 531.385" />
        <path d="M 950 745.123 L 940 745.123" />
        <path d="M 950 628.539 L 930 628.539" />
        <path d="M 950 220.493 L 940 220.493" />
        <path d="M 950 647.97 L 940 647.97" />
        <path d="M 950 356.508 L 940 356.508" />
        <path d="M 950 123.339 L 940 123.339" />
        <path d="M 950 550.816 L 940 550.816" />
        <path d="M 950 278.785 L 940 278.785" />
        <path d="M 950 764.554 L 940 764.554" />
        <path d="M 950 375.939 L 940 375.939" />
        <path d="M 950 434.231 L 930 434.231" />
        <path d="M 950 667.4 L 940 667.4" />
        <path d="M 950 181.632 L 940 181.632" />
        <path d="M 950 337.078 L 930 337.078" />
        <path d="M 950 570.247 L 940 570.247" />
        <path d="M 950 861.708 L 940 861.708" />
        <path d="M 950 84.4779 L 940 84.4779" />
        <path d="M 950 473.093 L 940 473.093" />
        <path d="M 950 239.924 L 930 239.924" />
        <path d="M 950 686.831 L 940 686.831" />
        <path d="M 950 881.139 L 940 881.139" />
        <path d="M 950 900.569 L 940 900.569" />
        <path d="M 950 103.909 L 940 103.909" />
        <path d="M 950 298.216 L 940 298.216" />
        <path d="M 950 803.416 L 940 803.416" />
        <path d="M 950 589.677 L 940 589.677" />
        <path d="M 950 142.77 L 930 142.77" />
        <path d="M 950 706.262 L 940 706.262" />
        <path d="M 950 201.062 L 940 201.062" />
    </g>
</g>
</g>
</svg>
