<?xml version="1.0" standalone="no"?>
<!DOCTYPE svg PUBLIC "-//W3C//DTD SVG 1.1//EN" "http://www.w3.org/Graphics/SVG/1.1/DTD/svg11.dtd">
<svg style="stroke-linejoin:miter; stroke:black; stroke-width:2.5; text-anchor:middle; fill:none" xmlns="http://www.w3.org/2000/svg" font-family="Helvetica, Arial, FreeSans, Sans, sans, sans-serif" width="1000px" height="1000px" version="1.1" xmlns:xlink="http://www.w3.org/1999/xlink" viewBox="0 0 1000 1000">
<defs>
    <clipPath id="Histogram_0_clip">
        <rect x="120" y="50" width="830" height="870" />
    </clipPath>
    <clipPath id="Histogram_1_clip">
        <rect x="120" y="50" width="830" height="870" />
    </clipPath>
</defs>
<g id="whole_document">
<rect id="background" x="0" y="0" width="1000" height="1000" stroke="none" fill="white" />
<g id="Histogram_0" clip-path="url(#Histogram_0_clip)">
    <path d="M 120 920 L 120 129.091 L 161.5 129.091 L 161.5 858.747 L 203 858.747 L 203 877.035 L 244.5 877.035 L 244.5 814.553 L 286 814.553 L 286 896.534 L 327.5 896.534 L 327.5 918.734 L 369 918.734 L 369 920 L 410.5 920 L 410.5 919.032 L 452 919.032 L 452 919.05 L 493.5 919.05 L 493.5 920 L 535 920 L 535 920 L 576.5 920 L 576.5 920 L 618 920 L 618 920 L 659.5 920 L 659.5 920 L 701 920 L 701 920 L 742.5 920 L 742.5 920 L 784 920 L 784 920 L 825.5 920 L 825.5 920 L 867 920 L 867 920 L 908.5 920 L 908.5 920 L 950 920 L 950 920" stroke-width="3" stroke-dasharray="" stroke="black" stroke-opacity="1" fill="DodgerBlue" fill-opacity="1" />
</g>
<g id="Histogram_1" clip-path="url(#Histogram_1_clip)">
    <path d="M 120 920 L 120 920 L 161.5 920 L 161.5 920 L 203 920 L 203 920 L 244.5 920 L 244.5 814.553 L 286 814.553 L 286 914.655 L 327.5 914.655 L 327.5 920 L 369 920 L 369 920 L 410.5 920 L 410.5 919.032 L 452 919.032 L 452 919.05 L 493.5 919.05 L 493.5 920 L 535 920 L 535 920 L 576.5 920 L 576.5 920 L 618 920 L 618 920 L 659.5 920 L 659.5 920 L 701 920 L 701 920 L 742.5 920 L 742.5 920 L 784 920 L 784 920 L 825.5 920 L 825.5 920 L 867 920 L 867 920 L 908.5 920 L 908.5 920 L 950 920 L 950 920" stroke-width="3" stroke-dasharray="" stroke="black" stroke-opacity="1" fill="darkorange" fill-opacity="1" />
</g>
<g id="frame_0">
    <rect id="frame_0_border" x="120" y="50" width="830" height="870" />
    <text id="frame_0_bottomlabel" font-size="30" transform="translate(535, 989.6)" text-anchor="middle" dominant-baseline="middle" stroke="none" fill="black">microseconds</text>
    <g id="frame_0_bottomticks">
        <path d="M 120 920 L 120 900" />
        <text font-size="30" transform="translate(120, 950)" text-anchor="middle" dominant-baseline="middle" stroke="none" fill="black">0</text>
        <path d="M 136.6 920 L 136.6 910" />
        <path d="M 153.2 920 L 153.2 910" />
        <path d="M 169.8 920 L 169.8 910" />
        <path d="M 186.4 920 L 186.4 910" />
        <path d="M 203 920 L 203 910" />
        <path d="M 219.6 920 L 219.6 910" />
        <path d="M 236.2 920 L 236.2 910" />
        <path d="M 252.8 920 L 252.8 910" />
        <path d="M 269.4 920 L 269.4 910" />
        <path d="M 286 920 L 286 900" />
        <text font-size="30" transform="translate(286, 950)" text-anchor="middle" dominant-baseline="middle" stroke="none" fill="black">10</text>
        <path d="M 302.6 920 L 302.6 910" />
        <path d="M 319.2 920 L 319.2 910" />
        <path d="M 335.8 920 L 335.8 910" />
        <path d="M 352.4 920 L 352.4 910" />
        <path d="M 369 920 L 369 910" />
        <path d="M 385.6 920 L 385.6 910" />
        <path d="M 402.2 920 L 402.2 910" />
        <path d="M 418.8 920 L 418.8 910" />
        <path d="M 435.4 920 L 435.4 910" />
        <path d="M 452 920 L 452 900" />
        <text font-size="30" transform="translate(452, 950)" text-anchor="middle" dominant-baseline="middle" stroke="none" fill="black">20</text>
        <path d="M 468.6 920 L 468.6 910" />
        <path d="M 485.2 920 L 485.2 910" />
        <path d="M 501.8 920 L 501.8 910" />
        <path d="M 518.4 920 L 518.4 910" />
        <path d="M 535 920 L 535 910" />
        <path d="M 551.6 920 L 551.6 910" />
        <path d="M 568.2 920 L 568.2 910" />
        <path d="M 584.8 920 L 584.8 910" />
        <path d="M 601.4 920 L 601.4 910" />
        <path d="M 618 920 L 618 900" />
        <text font-size="30" transform="translate(618, 950)" text-anchor="middle" dominant-baseline="middle" stroke="none" fill="black">30</text>
        <path d="M 634.6 920 L 634.6 910" />
        <path d="M 651.2 920 L 651.2 910" />
        <path d="M 667.8 920 L 667.8 910" />
        <path d="M 684.4 920 L 684.4 910" />
        <path d="M 701 920 L 701 910" />
        <path d="M 717.6 920 L 717.6 910" />
        <path d="M 734.2 920 L 734.2 910" />
        <path d="M 750.8 920 L 750.8 910" />
        <path d="M 767.4 920 L 767.4 910" />
        <path d="M 784 920 L 784 900" />
        <text font-size="30" transform="translate(784, 950)" text-anchor="middle" dominant-baseline="middle" stroke="none" fill="black">40</text>
        <path d="M 800.6 920 L 800.6 910" />
        <path d="M 817.2 920 L 817.2 910" />
        <path d="M 833.8 920 L 833.8 910" />
        <path d="M 850.4 920 L 850.4 910" />
        <path d="M 867 920 L 867 910" />
        <path d="M 883.6 920 L 883.6 910" />
        <path d="M 900.2 920 L 900.2 910" />
        <path d="M 916.8 920 L 916.8 910" />
        <path d="M 933.4 920 L 933.4 910" />
        <path d="M 950 920 L 950 900" />
        <text font-size="30" transform="translate(950, 950)" text-anchor="middle" dominant-baseline="middle" stroke="none" fill="black">50</text>
    </g>
    <g id="frame_0_leftticks">
        <path d="M 120 622.022 L 130 622.022" />
        <path d="M 120 473.032 L 130 473.032" />
        <path d="M 120 417.161 L 130 417.161" />
        <path d="M 120 528.903 L 130 528.903" />
        <path d="M 120 286.796 L 130 286.796" />
        <path d="M 120 435.785 L 130 435.785" />
        <path d="M 120 789.634 L 130 789.634" />
        <path d="M 120 640.645 L 130 640.645" />
        <path d="M 120 920 L 140 920" />
        <text font-size="30" transform="translate(110, 930)" text-anchor="end" dominant-baseline="middle" stroke="none" fill="black">0</text>
        <path d="M 120 379.914 L 130 379.914" />
        <path d="M 120 342.667 L 130 342.667" />
        <path d="M 120 193.678 L 130 193.678" />
        <path d="M 120 845.505 L 130 845.505" />
        <path d="M 120 510.28 L 130 510.28" />
        <path d="M 120 100.559 L 130 100.559" />
        <path d="M 120 733.764 L 140 733.764" />
        <text font-size="30" transform="translate(110, 743.764)" text-anchor="end" dominant-baseline="middle" stroke="none" fill="black">10000</text>
        <path d="M 120 547.527 L 140 547.527" />
        <text font-size="30" transform="translate(110, 557.527)" text-anchor="end" dominant-baseline="middle" stroke="none" fill="black">20000</text>
        <path d="M 120 752.387 L 130 752.387" />
        <path d="M 120 249.549 L 130 249.549" />
        <path d="M 120 659.269 L 130 659.269" />
        <path d="M 120 826.882 L 130 826.882" />
        <path d="M 120 156.43 L 130 156.43" />
        <path d="M 120 566.151 L 130 566.151" />
        <path d="M 120 305.42 L 130 305.42" />
        <path d="M 120 771.011 L 130 771.011" />
        <path d="M 120 398.538 L 130 398.538" />
        <path d="M 120 454.409 L 130 454.409" />
        <path d="M 120 677.893 L 130 677.893" />
        <path d="M 120 212.301 L 130 212.301" />
        <path d="M 120 361.291 L 140 361.291" />
        <text font-size="30" transform="translate(110, 371.291)" text-anchor="end" dominant-baseline="middle" stroke="none" fill="black">30000</text>
        <path d="M 120 882.753 L 130 882.753" />
        <path d="M 120 864.129 L 130 864.129" />
        <path d="M 120 119.183 L 130 119.183" />
        <path d="M 120 491.656 L 130 491.656" />
        <path d="M 120 268.172 L 130 268.172" />
        <path d="M 120 696.516 L 130 696.516" />
        <path d="M 120 584.774 L 130 584.774" />
        <path d="M 120 901.376 L 130 901.376" />
        <path d="M 120 137.807 L 130 137.807" />
        <path d="M 120 324.043 L 130 324.043" />
        <path d="M 120 808.258 L 130 808.258" />
        <path d="M 120 603.398 L 130 603.398" />
        <path d="M 120 175.054 L 140 175.054" />
        <text font-size="30" transform="translate(110, 185.054)" text-anchor="end" dominant-baseline="middle" stroke="none" fill="black">40000</text>
        <path d="M 120 81.9358 L 130 81.9358" />
        <path d="M 120 715.14 L 130 715.14" />
        <path d="M 120 230.925 L 130 230.925" />
        <path d="M 120 63.3122 L 130 63.3122" />
    </g>
    <text id="frame_0_toplabel" font-size="30" transform="translate(535, 32.6)" text-anchor="middle" dominant-baseline="middle" stroke="none" fill="black">a.maxLT</text>
    <g id="frame_0_topticks">
        <path d="M 120 50 L 120 70" />
        <path d="M 136.6 50 L 136.6 60" />
        <path d="M 153.2 50 L 153.2 60" />
        <path d="M 169.8 50 L 169.8 60" />
        <path d="M 186.4 50 L 186.4 60" />
        <path d="M 203 50 L 203 60" />
        <path d="M 219.6 50 L 219.6 60" />
        <path d="M 236.2 50 L 236.2 60" />
        <path d="M 252.8 50 L 252.8 60" />
        <path d="M 269.4 50 L 269.4 60" />
        <path d="M 286 50 L 286 70" />
        <path d="M 302.6 50 L 302.6 60" />
        <path d="M 319.2 50 L 319.2 60" />
        <path d="M 335.8 50 L 335.8 60" />
        <path d="M 352.4 50 L 352.4 60" />
        <path d="M 369 50 L 369 60" />
        <path d="M 385.6 50 L 385.6 60" />
        <path d="M 402.2 50 L 402.2 60" />
        <path d="M 418.8 50 L 418.8 60" />
        <path d="M 435.4 50 L 435.4 60" />
        <path d="M 452 50 L 452 70" />
        <path d="M 468.6 50 L 468.6 60" />
        <path d="M 485.2 50 L 485.2 60" />
        <path d="M 501.8 50 L 501.8 60" />
        <path d="M 518.4 50 L 518.4 60" />
        <path d="M 535 50 L 535 60" />
        <path d="M 551.6 50 L 551.6 60" />
        <path d="M 568.2 50 L 568.2 60" />
        <path d="M 584.8 50 L 584.8 60" />
        <path d="M 601.4 50 L 601.4 60" />
        <path d="M 618 50 L 618 70" />
        <path d="M 634.6 50 L 634.6 60" />
        <path d="M 651.2 50 L 651.2 60" />
        <path d="M 667.8 50 L 667.8 60" />
        <path d="M 684.4 50 L 684.4 60" />
        <path d="M 701 50 L 701 60" />
        <path d="M 717.6 50 L 717.6 60" />
        <path d="M 734.2 50 L 734.2 60" />
        <path d="M 750.8 50 L 750.8 60" />
        <path d="M 767.4 50 L 767.4 60" />
        <path d="M 784 50 L 784 70" />
        <path d="M 800.6 50 L 800.6 60" />
        <path d="M 817.2 50 L 817.2 60" />
        <path d="M 833.8 50 L 833.8 60" />
        <path d="M 850.4 50 L 850.4 60" />
        <path d="M 867 50 L 867 60" />
        <path d="M 883.6 50 L 883.6 60" />
        <path d="M 900.2 50 L 900.2 60" />
        <path d="M 916.8 50 L 916.8 60" />
        <path d="M 933.4 50 L 933.4 60" />
        <path d="M 950 50 L 950 70" />
    </g>
    <g id="frame_0_rightticks">
        <path d="M 950 622.022 L 940 622.022" />
        <path d="M 950 473.032 L 940 473.032" />
        <path d="M 950 417.161 L 940 417.161" />
        <path d="M 950 528.903 L 940 528.903" />
        <path d="M 950 286.796 L 940 286.796" />
        <path d="M 950 435.785 L 940 435.785" />
        <path d="M 950 789.634 L 940 789.634" />
        <path d="M 950 640.645 L 940 640.645" />
        <path d="M 950 920 L 930 920" />
        <path d="M 950 379.914 L 940 379.914" />
        <path d="M 950 342.667 L 940 342.667" />
        <path d="M 950 193.678 L 940 193.678" />
        <path d="M 950 845.505 L 940 845.505" />
        <path d="M 950 510.28 L 940 510.28" />
        <path d="M 950 100.559 L 940 100.559" />
        <path d="M 950 733.764 L 930 733.764" />
        <path d="M 950 547.527 L 930 547.527" />
        <path d="M 950 752.387 L 940 752.387" />
        <path d="M 950 249.549 L 940 249.549" />
        <path d="M 950 659.269 L 940 659.269" />
        <path d="M 950 826.882 L 940 826.882" />
        <path d="M 950 156.43 L 940 156.43" />
        <path d="M 950 566.151 L 940 566.151" />
        <path d="M 950 305.42 L 940 305.42" />
        <path d="M 950 771.011 L 940 771.011" />
        <path d="M 950 398.538 L 940 398.538" />
        <path d="M 950 454.409 L 940 454.409" />
        <path d="M 950 677.893 L 940 677.893" />
        <path d="M 950 212.301 L 940 212.301" />
        <path d="M 950 361.291 L 930 361.291" />
        <path d="M 950 882.753 L 940 882.753" />
        <path d="M 950 864.129 L 940 864.129" />
        <path d="M 950 119.183 L 940 119.183" />
        <path d="M 950 491.656 L 940 491.656" />
        <path d="M 950 268.172 L 940 268.172" />
        <path d="M 950 696.516 L 940 696.516" />
        <path d="M 950 584.774 L 940 584.774" />
        <path d="M 950 901.376 L 940 901.376" />
        <path d="M 950 137.807 L 940 137.807" />
        <path d="M 950 324.043 L 940 324.043" />
        <path d="M 950 808.258 L 940 808.258" />
        <path d="M 950 603.398 L 940 603.398" />
        <path d="M 950 175.054 L 930 175.054" />
        <path d="M 950 81.9358 L 940 81.9358" />
        <path d="M 950 715.14 L 940 715.14" />
        <path d="M 950 230.925 L 940 230.925" />
        <path d="M 950 63.3122 L 940 63.3122" />
    </g>
</g>
</g>
</svg>
