<?xml version="1.0" standalone="no"?>
<!DOCTYPE svg PUBLIC "-//W3C//DTD SVG 1.1//EN" "http://www.w3.org/Graphics/SVG/1.1/DTD/svg11.dtd">
<svg style="stroke-linejoin:miter; stroke:black; stroke-width:2.5; text-anchor:middle; fill:none" xmlns="http://www.w3.org/2000/svg" font-family="Helvetica, Arial, FreeSans, Sans, sans, sans-serif" width="1000px" height="1000px" version="1.1" xmlns:xlink="http://www.w3.org/1999/xlink" viewBox="0 0 1000 1000">
<defs>
    <clipPath id="Histogram_0_clip">
        <rect x="120" y="50" width="830" height="870" />
    </clipPath>
    <clipPath id="Histogram_1_clip">
        <rect x="120" y="50" width="830" height="870" />
    </clipPath>
</defs>
<g id="whole_document">
<rect id="background" x="0" y="0" width="1000" height="1000" stroke="none" fill="white" />
<g id="Histogram_0" clip-path="url(#Histogram_0_clip)">
    <path d="M 120 920 L 120 129.091 L 161.5 129.091 L 161.5 919.316 L 203 919.316 L 203 919.978 L 244.5 919.978 L 244.5 551.95 L 286 551.95 L 286 919.402 L 327.5 919.402 L 327.5 919.058 L 369 919.058 L 369 918.439 L 410.5 918.439 L 410.5 919.984 L 452 919.984 L 452 920 L 493.5 920 L 493.5 920 L 535 920 L 535 920 L 576.5 920 L 576.5 920 L 618 920 L 618 920 L 659.5 920 L 659.5 920 L 701 920 L 701 920 L 742.5 920 L 742.5 920 L 784 920 L 784 920 L 825.5 920 L 825.5 920 L 867 920 L 867 920 L 908.5 920 L 908.5 920 L 950 920 L 950 920" stroke-width="3" stroke-dasharray="" stroke="black" stroke-opacity="1" fill="DodgerBlue" fill-opacity="1" />
</g>
<g id="Histogram_1" clip-path="url(#Histogram_1_clip)">
    <path d="M 120 920 L 120 920 L 161.5 920 L 161.5 920 L 203 920 L 203 920 L 244.5 920 L 244.5 551.95 L 286 551.95 L 286 919.402 L 327.5 919.402 L 327.5 919.058 L 369 919.058 L 369 918.439 L 410.5 918.439 L 410.5 919.984 L 452 919.984 L 452 920 L 493.5 920 L 493.5 920 L 535 920 L 535 920 L 576.5 920 L 576.5 920 L 618 920 L 618 920 L 659.5 920 L 659.5 920 L 701 920 L 701 920 L 742.5 920 L 742.5 920 L 784 920 L 784 920 L 825.5 920 L 825.5 920 L 867 920 L 867 920 L 908.5 920 L 908.5 920 L 950 920 L 950 920" stroke-width="3" stroke-dasharray="" stroke="black" stroke-opacity="1" fill="darkorange" fill-opacity="1" />
</g>
<g id="frame_0">
    <rect id="frame_0_border" x="120" y="50" width="830" height="870" />
    <text id="frame_0_bottomlabel" font-size="30" transform="translate(535, 989.6)" text-anchor="middle" dominant-baseline="middle" stroke="none" fill="black">microseconds</text>
    <g id="frame_0_bottomticks">
        <path d="M 120 920 L 120 900" />
        <text font-size="30" transform="translate(120, 950)" text-anchor="middle" dominant-baseline="middle" stroke="none" fill="black">0</text>
        <path d="M 136.6 920 L 136.6 910" />
        <path d="M 153.2 920 L 153.2 910" />
        <path d="M 169.8 920 L 169.8 910" />
        <path d="M 186.4 920 L 186.4 910" />
        <path d="M 203 920 L 203 910" />
        <path d="M 219.6 920 L 219.6 910" />
        <path d="M 236.2 920 L 236.2 910" />
        <path d="M 252.8 920 L 252.8 910" />
        <path d="M 269.4 920 L 269.4 910" />
        <path d="M 286 920 L 286 900" />
        <text font-size="30" transform="translate(286, 950)" text-anchor="middle" dominant-baseline="middle" stroke="none" fill="black">10</text>
        <path d="M 302.6 920 L 302.6 910" />
        <path d="M 319.2 920 L 319.2 910" />
        <path d="M 335.8 920 L 335.8 910" />
        <path d="M 352.4 920 L 352.4 910" />
        <path d="M 369 920 L 369 910" />
        <path d="M 385.6 920 L 385.6 910" />
        <path d="M 402.2 920 L 402.2 910" />
        <path d="M 418.8 920 L 418.8 910" />
        <path d="M 435.4 920 L 435.4 910" />
        <path d="M 452 920 L 452 900" />
        <text font-size="30" transform="translate(452, 950)" text-anchor="middle" dominant-baseline="middle" stroke="none" fill="black">20</text>
        <path d="M 468.6 920 L 468.6 910" />
        <path d="M 485.2 920 L 485.2 910" />
        <path d="M 501.8 920 L 501.8 910" />
        <path d="M 518.4 920 L 518.4 910" />
        <path d="M 535 920 L 535 910" />
        <path d="M 551.6 920 L 551.6 910" />
        <path d="M 568.2 920 L 568.2 910" />
        <path d="M 584.8 920 L 584.8 910" />
        <path d="M 601.4 920 L 601.4 910" />
        <path d="M 618 920 L 618 900" />
        <text font-size="30" transform="translate(618, 950)" text-anchor="middle" dominant-baseline="middle" stroke="none" fill="black">30</text>
        <path d="M 634.6 920 L 634.6 910" />
        <path d="M 651.2 920 L 651.2 910" />
        <path d="M 667.8 920 L 667.8 910" />
        <path d="M 684.4 920 L 684.4 910" />
        <path d="M 701 920 L 701 910" />
        <path d="M 717.6 920 L 717.6 910" />
        <path d="M 734.2 920 L 734.2 910" />
        <path d="M 750.8 920 L 750.8 910" />
        <path d="M 767.4 920 L 767.4 910" />
        <path d="M 784 920 L 784 900" />
        <text font-size="30" transform="translate(784, 950)" text-anchor="middle" dominant-baseline="middle" stroke="none" fill="black">40</text>
        <path d="M 800.6 920 L 800.6 910" />
        <path d="M 817.2 920 L 817.2 910" />
        <path d="M 833.8 920 L 833.8 910" />
        <path d="M 850.4 920 L 850.4 910" />
        <path d="M 867 920 L 867 910" />
        <path d="M 883.6 920 L 883.6 910" />
        <path d="M 900.2 920 L 900.2 910" />
        <path d="M 916.8 920 L 916.8 910" />
        <path d="M 933.4 920 L 933.4 910" />
        <path d="M 950 920 L 950 900" />
        <text font-size="30" transform="translate(950, 950)" text-anchor="middle" dominant-baseline="middle" stroke="none" fill="black">50</text>
    </g>
    <g id="frame_0_leftticks">
        <path d="M 120 742.638 L 130 742.638" />
        <path d="M 120 831.319 L 130 831.319" />
        <path d="M 120 402.694 L 130 402.694" />
        <path d="M 120 920 L 140 920" />
        <text font-size="30" transform="translate(110, 930)" text-anchor="end" dominant-baseline="middle" stroke="none" fill="black">0</text>
        <path d="M 120 62.7495 L 130 62.7495" />
        <path d="M 120 580.056 L 130 580.056" />
        <path d="M 120 240.112 L 130 240.112" />
        <path d="M 120 757.418 L 130 757.418" />
        <path d="M 120 417.474 L 130 417.474" />
        <path d="M 120 77.5297 L 130 77.5297" />
        <path d="M 120 594.836 L 130 594.836" />
        <path d="M 120 254.892 L 130 254.892" />
        <path d="M 120 772.198 L 140 772.198" />
        <text font-size="30" transform="translate(110, 782.198)" text-anchor="end" dominant-baseline="middle" stroke="none" fill="black">10⁶</text>
        <path d="M 120 432.254 L 130 432.254" />
        <path d="M 120 653.957 L 130 653.957" />
        <path d="M 120 609.616 L 130 609.616" />
        <path d="M 120 905.22 L 130 905.22" />
        <path d="M 120 269.672 L 130 269.672" />
        <path d="M 120 447.034 L 130 447.034" />
        <path d="M 120 107.09 L 130 107.09" />
        <path d="M 120 624.396 L 140 624.396" />
        <text font-size="30" transform="translate(110, 634.396)" text-anchor="end" dominant-baseline="middle" stroke="none" fill="black">2×10⁶</text>
        <path d="M 120 284.452 L 130 284.452" />
        <path d="M 120 801.759 L 130 801.759" />
        <path d="M 120 461.814 L 130 461.814" />
        <path d="M 120 121.87 L 130 121.87" />
        <path d="M 120 639.177 L 130 639.177" />
        <path d="M 120 299.232 L 130 299.232" />
        <path d="M 120 816.539 L 130 816.539" />
        <path d="M 120 476.595 L 140 476.595" />
        <text font-size="30" transform="translate(110, 486.595)" text-anchor="end" dominant-baseline="middle" stroke="none" fill="black">3×10⁶</text>
        <path d="M 120 136.65 L 130 136.65" />
        <path d="M 120 890.44 L 130 890.44" />
        <path d="M 120 786.978 L 130 786.978" />
        <path d="M 120 314.013 L 130 314.013" />
        <path d="M 120 491.375 L 130 491.375" />
        <path d="M 120 151.431 L 130 151.431" />
        <path d="M 120 668.737 L 130 668.737" />
        <path d="M 120 328.793 L 140 328.793" />
        <text font-size="30" transform="translate(110, 338.793)" text-anchor="end" dominant-baseline="middle" stroke="none" fill="black">4×10⁶</text>
        <path d="M 120 846.099 L 130 846.099" />
        <path d="M 120 225.331 L 130 225.331" />
        <path d="M 120 506.155 L 130 506.155" />
        <path d="M 120 166.211 L 130 166.211" />
        <path d="M 120 683.517 L 130 683.517" />
        <path d="M 120 180.991 L 140 180.991" />
        <text font-size="30" transform="translate(110, 190.991)" text-anchor="end" dominant-baseline="middle" stroke="none" fill="black">5×10⁶</text>
        <path d="M 120 343.573 L 130 343.573" />
        <path d="M 120 860.879 L 130 860.879" />
        <path d="M 120 520.935 L 130 520.935" />
        <path d="M 120 875.659 L 130 875.659" />
        <path d="M 120 698.297 L 130 698.297" />
        <path d="M 120 358.353 L 130 358.353" />
        <path d="M 120 535.715 L 130 535.715" />
        <path d="M 120 92.3098 L 130 92.3098" />
        <path d="M 120 195.771 L 130 195.771" />
        <path d="M 120 713.077 L 130 713.077" />
        <path d="M 120 373.133 L 130 373.133" />
        <path d="M 120 550.495 L 130 550.495" />
        <path d="M 120 210.551 L 130 210.551" />
        <path d="M 120 727.858 L 130 727.858" />
        <path d="M 120 387.913 L 130 387.913" />
        <path d="M 120 565.276 L 130 565.276" />
    </g>
    <text id="frame_0_toplabel" font-size="30" transform="translate(535, 32.6)" text-anchor="middle" dominant-baseline="middle" stroke="none" fill="black">model.tree.simpleTest</text>
    <g id="frame_0_topticks">
        <path d="M 120 50 L 120 70" />
        <path d="M 136.6 50 L 136.6 60" />
        <path d="M 153.2 50 L 153.2 60" />
        <path d="M 169.8 50 L 169.8 60" />
        <path d="M 186.4 50 L 186.4 60" />
        <path d="M 203 50 L 203 60" />
        <path d="M 219.6 50 L 219.6 60" />
        <path d="M 236.2 50 L 236.2 60" />
        <path d="M 252.8 50 L 252.8 60" />
        <path d="M 269.4 50 L 269.4 60" />
        <path d="M 286 50 L 286 70" />
        <path d="M 302.6 50 L 302.6 60" />
        <path d="M 319.2 50 L 319.2 60" />
        <path d="M 335.8 50 L 335.8 60" />
        <path d="M 352.4 50 L 352.4 60" />
        <path d="M 369 50 L 369 60" />
        <path d="M 385.6 50 L 385.6 60" />
        <path d="M 402.2 50 L 402.2 60" />
        <path d="M 418.8 50 L 418.8 60" />
        <path d="M 435.4 50 L 435.4 60" />
        <path d="M 452 50 L 452 70" />
        <path d="M 468.6 50 L 468.6 60" />
        <path d="M 485.2 50 L 485.2 60" />
        <path d="M 501.8 50 L 501.8 60" />
        <path d="M 518.4 50 L 518.4 60" />
        <path d="M 535 50 L 535 60" />
        <path d="M 551.6 50 L 551.6 60" />
        <path d="M 568.2 50 L 568.2 60" />
        <path d="M 584.8 50 L 584.8 60" />
        <path d="M 601.4 50 L 601.4 60" />
        <path d="M 618 50 L 618 70" />
        <path d="M 634.6 50 L 634.6 60" />
        <path d="M 651.2 50 L 651.2 60" />
        <path d="M 667.8 50 L 667.8 60" />
        <path d="M 684.4 50 L 684.4 60" />
        <path d="M 701 50 L 701 60" />
        <path d="M 717.6 50 L 717.6 60" />
        <path d="M 734.2 50 L 734.2 60" />
        <path d="M 750.8 50 L 750.8 60" />
        <path d="M 767.4 50 L 767.4 60" />
        <path d="M 784 50 L 784 70" />
        <path d="M 800.6 50 L 800.6 60" />
        <path d="M 817.2 50 L 817.2 60" />
        <path d="M 833.8 50 L 833.8 60" />
        <path d="M 850.4 50 L 850.4 60" />
        <path d="M 867 50 L 867 60" />
        <path d="M 883.6 50 L 883.6 60" />
        <path d="M 900.2 50 L 900.2 60" />
        <path d="M 916.8 50 L 916.8 60" />
        <path d="M 933.4 50 L 933.4 60" />
        <path d="M 950 50 L 950 70" />
    </g>
    <g id="frame_0_rightticks">
        <path d="M 950 742.638 L 940 742.638" />
        <path d="M 950 831.319 L 940 831.319" />
        <path d="M 950 402.694 L 940 402.694" />
        <path d="M 950 920 L 930 920" />
        <path d="M 950 62.7495 L 940 62.7495" />
        <path d="M 950 580.056 L 940 580.056" />
        <path d="M 950 240.112 L 940 240.112" />
        <path d="M 950 757.418 L 940 757.418" />
        <path d="M 950 417.474 L 940 417.474" />
        <path d="M 950 77.5297 L 940 77.5297" />
        <path d="M 950 594.836 L 940 594.836" />
        <path d="M 950 254.892 L 940 254.892" />
        <path d="M 950 772.198 L 930 772.198" />
        <path d="M 950 432.254 L 940 432.254" />
        <path d="M 950 653.957 L 940 653.957" />
        <path d="M 950 609.616 L 940 609.616" />
        <path d="M 950 905.22 L 940 905.22" />
        <path d="M 950 269.672 L 940 269.672" />
        <path d="M 950 447.034 L 940 447.034" />
        <path d="M 950 107.09 L 940 107.09" />
        <path d="M 950 624.396 L 930 624.396" />
        <path d="M 950 284.452 L 940 284.452" />
        <path d="M 950 801.759 L 940 801.759" />
        <path d="M 950 461.814 L 940 461.814" />
        <path d="M 950 121.87 L 940 121.87" />
        <path d="M 950 639.177 L 940 639.177" />
        <path d="M 950 299.232 L 940 299.232" />
        <path d="M 950 816.539 L 940 816.539" />
        <path d="M 950 476.595 L 930 476.595" />
        <path d="M 950 136.65 L 940 136.65" />
        <path d="M 950 890.44 L 940 890.44" />
        <path d="M 950 786.978 L 940 786.978" />
        <path d="M 950 314.013 L 940 314.013" />
        <path d="M 950 491.375 L 940 491.375" />
        <path d="M 950 151.431 L 940 151.431" />
        <path d="M 950 668.737 L 940 668.737" />
        <path d="M 950 328.793 L 930 328.793" />
        <path d="M 950 846.099 L 940 846.099" />
        <path d="M 950 225.331 L 940 225.331" />
        <path d="M 950 506.155 L 940 506.155" />
        <path d="M 950 166.211 L 940 166.211" />
        <path d="M 950 683.517 L 940 683.517" />
        <path d="M 950 180.991 L 930 180.991" />
        <path d="M 950 343.573 L 940 343.573" />
        <path d="M 950 860.879 L 940 860.879" />
        <path d="M 950 520.935 L 940 520.935" />
        <path d="M 950 875.659 L 940 875.659" />
        <path d="M 950 698.297 L 940 698.297" />
        <path d="M 950 358.353 L 940 358.353" />
        <path d="M 950 535.715 L 940 535.715" />
        <path d="M 950 92.3098 L 940 92.3098" />
        <path d="M 950 195.771 L 940 195.771" />
        <path d="M 950 713.077 L 940 713.077" />
        <path d="M 950 373.133 L 940 373.133" />
        <path d="M 950 550.495 L 940 550.495" />
        <path d="M 950 210.551 L 940 210.551" />
        <path d="M 950 727.858 L 940 727.858" />
        <path d="M 950 387.913 L 940 387.913" />
        <path d="M 950 565.276 L 940 565.276" />
    </g>
</g>
</g>
</svg>
