<?xml version="1.0" standalone="no"?>
<!DOCTYPE svg PUBLIC "-//W3C//DTD SVG 1.1//EN" "http://www.w3.org/Graphics/SVG/1.1/DTD/svg11.dtd">
<svg style="stroke-linejoin:miter; stroke:black; stroke-width:2.5; text-anchor:middle; fill:none" xmlns="http://www.w3.org/2000/svg" font-family="Helvetica, Arial, FreeSans, Sans, sans, sans-serif" width="1000px" height="1000px" version="1.1" xmlns:xlink="http://www.w3.org/1999/xlink" viewBox="0 0 1000 1000">
<defs>
    <clipPath id="Histogram_0_clip">
        <rect x="120" y="50" width="830" height="870" />
    </clipPath>
</defs>
<g id="whole_document">
<rect id="background" x="0" y="0" width="1000" height="1000" stroke="none" fill="white" />
<g id="Histogram_0" clip-path="url(#Histogram_0_clip)">
    <path d="M 120 920 L 120 129.091 L 161.5 129.091 L 161.5 906.693 L 203 906.693 L 203 920 L 244.5 920 L 244.5 920 L 286 920 L 286 920 L 327.5 920 L 327.5 920 L 369 920 L 369 920 L 410.5 920 L 410.5 920 L 452 920 L 452 920 L 493.5 920 L 493.5 920 L 535 920 L 535 920 L 576.5 920 L 576.5 920 L 618 920 L 618 920 L 659.5 920 L 659.5 920 L 701 920 L 701 920 L 742.5 920 L 742.5 920 L 784 920 L 784 920 L 825.5 920 L 825.5 920 L 867 920 L 867 920 L 908.5 920 L 908.5 920 L 950 920 L 950 920" stroke-width="3" stroke-dasharray="" stroke="black" stroke-opacity="1" fill="DodgerBlue" fill-opacity="1" />
</g>
<g id="frame_0">
    <rect id="frame_0_border" x="120" y="50" width="830" height="870" />
    <text id="frame_0_bottomlabel" font-size="30" transform="translate(535, 989.6)" text-anchor="middle" dominant-baseline="middle" stroke="none" fill="black">microseconds</text>
    <g id="frame_0_bottomticks">
        <path d="M 120 920 L 120 900" />
        <text font-size="30" transform="translate(120, 950)" text-anchor="middle" dominant-baseline="middle" stroke="none" fill="black">0</text>
        <path d="M 136.6 920 L 136.6 910" />
        <path d="M 153.2 920 L 153.2 910" />
        <path d="M 169.8 920 L 169.8 910" />
        <path d="M 186.4 920 L 186.4 910" />
        <path d="M 203 920 L 203 910" />
        <path d="M 219.6 920 L 219.6 910" />
        <path d="M 236.2 920 L 236.2 910" />
        <path d="M 252.8 920 L 252.8 910" />
        <path d="M 269.4 920 L 269.4 910" />
        <path d="M 286 920 L 286 900" />
        <text font-size="30" transform="translate(286, 950)" text-anchor="middle" dominant-baseline="middle" stroke="none" fill="black">10</text>
        <path d="M 302.6 920 L 302.6 910" />
        <path d="M 319.2 920 L 319.2 910" />
        <path d="M 335.8 920 L 335.8 910" />
        <path d="M 352.4 920 L 352.4 910" />
        <path d="M 369 920 L 369 910" />
        <path d="M 385.6 920 L 385.6 910" />
        <path d="M 402.2 920 L 402.2 910" />
        <path d="M 418.8 920 L 418.8 910" />
        <path d="M 435.4 920 L 435.4 910" />
        <path d="M 452 920 L 452 900" />
        <text font-size="30" transform="translate(452, 950)" text-anchor="middle" dominant-baseline="middle" stroke="none" fill="black">20</text>
        <path d="M 468.6 920 L 468.6 910" />
        <path d="M 485.2 920 L 485.2 910" />
        <path d="M 501.8 920 L 501.8 910" />
        <path d="M 518.4 920 L 518.4 910" />
        <path d="M 535 920 L 535 910" />
        <path d="M 551.6 920 L 551.6 910" />
        <path d="M 568.2 920 L 568.2 910" />
        <path d="M 584.8 920 L 584.8 910" />
        <path d="M 601.4 920 L 601.4 910" />
        <path d="M 618 920 L 618 900" />
        <text font-size="30" transform="translate(618, 950)" text-anchor="middle" dominant-baseline="middle" stroke="none" fill="black">30</text>
        <path d="M 634.6 920 L 634.6 910" />
        <path d="M 651.2 920 L 651.2 910" />
        <path d="M 667.8 920 L 667.8 910" />
        <path d="M 684.4 920 L 684.4 910" />
        <path d="M 701 920 L 701 910" />
        <path d="M 717.6 920 L 717.6 910" />
        <path d="M 734.2 920 L 734.2 910" />
        <path d="M 750.8 920 L 750.8 910" />
        <path d="M 767.4 920 L 767.4 910" />
        <path d="M 784 920 L 784 900" />
        <text font-size="30" transform="translate(784, 950)" text-anchor="middle" dominant-baseline="middle" stroke="none" fill="black">40</text>
        <path d="M 800.6 920 L 800.6 910" />
        <path d="M 817.2 920 L 817.2 910" />
        <path d="M 833.8 920 L 833.8 910" />
        <path d="M 850.4 920 L 850.4 910" />
        <path d="M 867 920 L 867 910" />
        <path d="M 883.6 920 L 883.6 910" />
        <path d="M 900.2 920 L 900.2 910" />
        <path d="M 916.8 920 L 916.8 910" />
        <path d="M 933.4 920 L 933.4 910" />
        <path d="M 950 920 L 950 900" />
        <text font-size="30" transform="translate(950, 950)" text-anchor="middle" dominant-baseline="middle" stroke="none" fill="black">50</text>
    </g>
    <g id="frame_0_leftticks">
        <path d="M 120 607.365 L 130 607.365" />
        <path d="M 120 451.047 L 130 451.047" />
        <path d="M 120 392.428 L 130 392.428" />
        <path d="M 120 509.666 L 130 509.666" />
        <path d="M 120 255.65 L 130 255.65" />
        <path d="M 120 411.967 L 130 411.967" />
        <path d="M 120 783.222 L 130 783.222" />
        <path d="M 120 822.301 L 140 822.301" />
        <text font-size="30" transform="translate(110, 832.301)" text-anchor="end" dominant-baseline="middle" stroke="none" fill="black">5000</text>
        <path d="M 120 314.269 L 130 314.269" />
        <path d="M 120 920 L 140 920" />
        <text font-size="30" transform="translate(110, 930)" text-anchor="end" dominant-baseline="middle" stroke="none" fill="black">0</text>
        <path d="M 120 724.603 L 140 724.603" />
        <text font-size="30" transform="translate(110, 734.603)" text-anchor="end" dominant-baseline="middle" stroke="none" fill="black">10000</text>
        <path d="M 120 157.951 L 130 157.951" />
        <path d="M 120 841.841 L 130 841.841" />
        <path d="M 120 490.126 L 130 490.126" />
        <path d="M 120 60.2525 L 130 60.2525" />
        <path d="M 120 529.206 L 140 529.206" />
        <text font-size="30" transform="translate(110, 539.206)" text-anchor="end" dominant-baseline="middle" stroke="none" fill="black">20000</text>
        <path d="M 120 744.143 L 130 744.143" />
        <path d="M 120 626.904 L 140 626.904" />
        <text font-size="30" transform="translate(110, 636.904)" text-anchor="end" dominant-baseline="middle" stroke="none" fill="black">15000</text>
        <path d="M 120 216.57 L 130 216.57" />
        <path d="M 120 646.444 L 130 646.444" />
        <path d="M 120 353.348 L 130 353.348" />
        <path d="M 120 118.872 L 130 118.872" />
        <path d="M 120 548.745 L 130 548.745" />
        <path d="M 120 275.189 L 130 275.189" />
        <path d="M 120 763.682 L 130 763.682" />
        <path d="M 120 372.888 L 130 372.888" />
        <path d="M 120 431.507 L 140 431.507" />
        <text font-size="30" transform="translate(110, 441.507)" text-anchor="end" dominant-baseline="middle" stroke="none" fill="black">25000</text>
        <path d="M 120 665.984 L 130 665.984" />
        <path d="M 120 177.491 L 130 177.491" />
        <path d="M 120 333.809 L 140 333.809" />
        <text font-size="30" transform="translate(110, 343.809)" text-anchor="end" dominant-baseline="middle" stroke="none" fill="black">30000</text>
        <path d="M 120 568.285 L 130 568.285" />
        <path d="M 120 861.381 L 130 861.381" />
        <path d="M 120 79.7922 L 130 79.7922" />
        <path d="M 120 470.587 L 130 470.587" />
        <path d="M 120 236.11 L 140 236.11" />
        <text font-size="30" transform="translate(110, 246.11)" text-anchor="end" dominant-baseline="middle" stroke="none" fill="black">35000</text>
        <path d="M 120 685.523 L 130 685.523" />
        <path d="M 120 880.921 L 130 880.921" />
        <path d="M 120 900.46 L 130 900.46" />
        <path d="M 120 99.3319 L 130 99.3319" />
        <path d="M 120 294.729 L 130 294.729" />
        <path d="M 120 802.762 L 130 802.762" />
        <path d="M 120 587.825 L 130 587.825" />
        <path d="M 120 138.411 L 140 138.411" />
        <text font-size="30" transform="translate(110, 148.411)" text-anchor="end" dominant-baseline="middle" stroke="none" fill="black">40000</text>
        <path d="M 120 705.063 L 130 705.063" />
        <path d="M 120 197.031 L 130 197.031" />
    </g>
    <text id="frame_0_toplabel" font-size="30" transform="translate(535, 32.6)" text-anchor="middle" dominant-baseline="middle" stroke="none" fill="black">map.intersection</text>
    <g id="frame_0_topticks">
        <path d="M 120 50 L 120 70" />
        <path d="M 136.6 50 L 136.6 60" />
        <path d="M 153.2 50 L 153.2 60" />
        <path d="M 169.8 50 L 169.8 60" />
        <path d="M 186.4 50 L 186.4 60" />
        <path d="M 203 50 L 203 60" />
        <path d="M 219.6 50 L 219.6 60" />
        <path d="M 236.2 50 L 236.2 60" />
        <path d="M 252.8 50 L 252.8 60" />
        <path d="M 269.4 50 L 269.4 60" />
        <path d="M 286 50 L 286 70" />
        <path d="M 302.6 50 L 302.6 60" />
        <path d="M 319.2 50 L 319.2 60" />
        <path d="M 335.8 50 L 335.8 60" />
        <path d="M 352.4 50 L 352.4 60" />
        <path d="M 369 50 L 369 60" />
        <path d="M 385.6 50 L 385.6 60" />
        <path d="M 402.2 50 L 402.2 60" />
        <path d="M 418.8 50 L 418.8 60" />
        <path d="M 435.4 50 L 435.4 60" />
        <path d="M 452 50 L 452 70" />
        <path d="M 468.6 50 L 468.6 60" />
        <path d="M 485.2 50 L 485.2 60" />
        <path d="M 501.8 50 L 501.8 60" />
        <path d="M 518.4 50 L 518.4 60" />
        <path d="M 535 50 L 535 60" />
        <path d="M 551.6 50 L 551.6 60" />
        <path d="M 568.2 50 L 568.2 60" />
        <path d="M 584.8 50 L 584.8 60" />
        <path d="M 601.4 50 L 601.4 60" />
        <path d="M 618 50 L 618 70" />
        <path d="M 634.6 50 L 634.6 60" />
        <path d="M 651.2 50 L 651.2 60" />
        <path d="M 667.8 50 L 667.8 60" />
        <path d="M 684.4 50 L 684.4 60" />
        <path d="M 701 50 L 701 60" />
        <path d="M 717.6 50 L 717.6 60" />
        <path d="M 734.2 50 L 734.2 60" />
        <path d="M 750.8 50 L 750.8 60" />
        <path d="M 767.4 50 L 767.4 60" />
        <path d="M 784 50 L 784 70" />
        <path d="M 800.6 50 L 800.6 60" />
        <path d="M 817.2 50 L 817.2 60" />
        <path d="M 833.8 50 L 833.8 60" />
        <path d="M 850.4 50 L 850.4 60" />
        <path d="M 867 50 L 867 60" />
        <path d="M 883.6 50 L 883.6 60" />
        <path d="M 900.2 50 L 900.2 60" />
        <path d="M 916.8 50 L 916.8 60" />
        <path d="M 933.4 50 L 933.4 60" />
        <path d="M 950 50 L 950 70" />
    </g>
    <g id="frame_0_rightticks">
        <path d="M 950 607.365 L 940 607.365" />
        <path d="M 950 451.047 L 940 451.047" />
        <path d="M 950 392.428 L 940 392.428" />
        <path d="M 950 509.666 L 940 509.666" />
        <path d="M 950 255.65 L 940 255.65" />
        <path d="M 950 411.967 L 940 411.967" />
        <path d="M 950 783.222 L 940 783.222" />
        <path d="M 950 822.301 L 930 822.301" />
        <path d="M 950 314.269 L 940 314.269" />
        <path d="M 950 920 L 930 920" />
        <path d="M 950 724.603 L 930 724.603" />
        <path d="M 950 157.951 L 940 157.951" />
        <path d="M 950 841.841 L 940 841.841" />
        <path d="M 950 490.126 L 940 490.126" />
        <path d="M 950 60.2525 L 940 60.2525" />
        <path d="M 950 529.206 L 930 529.206" />
        <path d="M 950 744.143 L 940 744.143" />
        <path d="M 950 626.904 L 930 626.904" />
        <path d="M 950 216.57 L 940 216.57" />
        <path d="M 950 646.444 L 940 646.444" />
        <path d="M 950 353.348 L 940 353.348" />
        <path d="M 950 118.872 L 940 118.872" />
        <path d="M 950 548.745 L 940 548.745" />
        <path d="M 950 275.189 L 940 275.189" />
        <path d="M 950 763.682 L 940 763.682" />
        <path d="M 950 372.888 L 940 372.888" />
        <path d="M 950 431.507 L 930 431.507" />
        <path d="M 950 665.984 L 940 665.984" />
        <path d="M 950 177.491 L 940 177.491" />
        <path d="M 950 333.809 L 930 333.809" />
        <path d="M 950 568.285 L 940 568.285" />
        <path d="M 950 861.381 L 940 861.381" />
        <path d="M 950 79.7922 L 940 79.7922" />
        <path d="M 950 470.587 L 940 470.587" />
        <path d="M 950 236.11 L 930 236.11" />
        <path d="M 950 685.523 L 940 685.523" />
        <path d="M 950 880.921 L 940 880.921" />
        <path d="M 950 900.46 L 940 900.46" />
        <path d="M 950 99.3319 L 940 99.3319" />
        <path d="M 950 294.729 L 940 294.729" />
        <path d="M 950 802.762 L 940 802.762" />
        <path d="M 950 587.825 L 940 587.825" />
        <path d="M 950 138.411 L 930 138.411" />
        <path d="M 950 705.063 L 940 705.063" />
        <path d="M 950 197.031 L 940 197.031" />
    </g>
</g>
</g>
</svg>
