<?xml version="1.0" standalone="no"?>
<!DOCTYPE svg PUBLIC "-//W3C//DTD SVG 1.1//EN" "http://www.w3.org/Graphics/SVG/1.1/DTD/svg11.dtd">
<svg style="stroke-linejoin:miter; stroke:black; stroke-width:2.5; text-anchor:middle; fill:none" xmlns="http://www.w3.org/2000/svg" font-family="Helvetica, Arial, FreeSans, Sans, sans, sans-serif" width="1000px" height="1000px" version="1.1" xmlns:xlink="http://www.w3.org/1999/xlink" viewBox="0 0 1000 1000">
<defs>
    <clipPath id="Histogram_0_clip">
        <rect x="120" y="50" width="830" height="870" />
    </clipPath>
    <clipPath id="Histogram_1_clip">
        <rect x="120" y="50" width="830" height="870" />
    </clipPath>
</defs>
<g id="whole_document">
<rect id="background" x="0" y="0" width="1000" height="1000" stroke="none" fill="white" />
<g id="Histogram_0" clip-path="url(#Histogram_0_clip)">
    <path d="M 120 920 L 120 129.091 L 161.5 129.091 L 161.5 875.71 L 203 875.71 L 203 919.609 L 244.5 919.609 L 244.5 861.839 L 286 861.839 L 286 919.485 L 327.5 919.485 L 327.5 919.809 L 369 919.809 L 369 919.538 L 410.5 919.538 L 410.5 920 L 452 920 L 452 920 L 493.5 920 L 493.5 920 L 535 920 L 535 920 L 576.5 920 L 576.5 920 L 618 920 L 618 920 L 659.5 920 L 659.5 920 L 701 920 L 701 920 L 742.5 920 L 742.5 920 L 784 920 L 784 920 L 825.5 920 L 825.5 920 L 867 920 L 867 920 L 908.5 920 L 908.5 920 L 950 920 L 950 920" stroke-width="3" stroke-dasharray="" stroke="black" stroke-opacity="1" fill="DodgerBlue" fill-opacity="1" />
</g>
<g id="Histogram_1" clip-path="url(#Histogram_1_clip)">
    <path d="M 120 920 L 120 920 L 161.5 920 L 161.5 920 L 203 920 L 203 920 L 244.5 920 L 244.5 861.839 L 286 861.839 L 286 919.609 L 327.5 919.609 L 327.5 919.809 L 369 919.809 L 369 919.538 L 410.5 919.538 L 410.5 920 L 452 920 L 452 920 L 493.5 920 L 493.5 920 L 535 920 L 535 920 L 576.5 920 L 576.5 920 L 618 920 L 618 920 L 659.5 920 L 659.5 920 L 701 920 L 701 920 L 742.5 920 L 742.5 920 L 784 920 L 784 920 L 825.5 920 L 825.5 920 L 867 920 L 867 920 L 908.5 920 L 908.5 920 L 950 920 L 950 920" stroke-width="3" stroke-dasharray="" stroke="black" stroke-opacity="1" fill="darkorange" fill-opacity="1" />
</g>
<g id="frame_0">
    <rect id="frame_0_border" x="120" y="50" width="830" height="870" />
    <text id="frame_0_bottomlabel" font-size="30" transform="translate(535, 989.6)" text-anchor="middle" dominant-baseline="middle" stroke="none" fill="black">microseconds</text>
    <g id="frame_0_bottomticks">
        <path d="M 120 920 L 120 900" />
        <text font-size="30" transform="translate(120, 950)" text-anchor="middle" dominant-baseline="middle" stroke="none" fill="black">0</text>
        <path d="M 136.6 920 L 136.6 910" />
        <path d="M 153.2 920 L 153.2 910" />
        <path d="M 169.8 920 L 169.8 910" />
        <path d="M 186.4 920 L 186.4 910" />
        <path d="M 203 920 L 203 910" />
        <path d="M 219.6 920 L 219.6 910" />
        <path d="M 236.2 920 L 236.2 910" />
        <path d="M 252.8 920 L 252.8 910" />
        <path d="M 269.4 920 L 269.4 910" />
        <path d="M 286 920 L 286 900" />
        <text font-size="30" transform="translate(286, 950)" text-anchor="middle" dominant-baseline="middle" stroke="none" fill="black">10</text>
        <path d="M 302.6 920 L 302.6 910" />
        <path d="M 319.2 920 L 319.2 910" />
        <path d="M 335.8 920 L 335.8 910" />
        <path d="M 352.4 920 L 352.4 910" />
        <path d="M 369 920 L 369 910" />
        <path d="M 385.6 920 L 385.6 910" />
        <path d="M 402.2 920 L 402.2 910" />
        <path d="M 418.8 920 L 418.8 910" />
        <path d="M 435.4 920 L 435.4 910" />
        <path d="M 452 920 L 452 900" />
        <text font-size="30" transform="translate(452, 950)" text-anchor="middle" dominant-baseline="middle" stroke="none" fill="black">20</text>
        <path d="M 468.6 920 L 468.6 910" />
        <path d="M 485.2 920 L 485.2 910" />
        <path d="M 501.8 920 L 501.8 910" />
        <path d="M 518.4 920 L 518.4 910" />
        <path d="M 535 920 L 535 910" />
        <path d="M 551.6 920 L 551.6 910" />
        <path d="M 568.2 920 L 568.2 910" />
        <path d="M 584.8 920 L 584.8 910" />
        <path d="M 601.4 920 L 601.4 910" />
        <path d="M 618 920 L 618 900" />
        <text font-size="30" transform="translate(618, 950)" text-anchor="middle" dominant-baseline="middle" stroke="none" fill="black">30</text>
        <path d="M 634.6 920 L 634.6 910" />
        <path d="M 651.2 920 L 651.2 910" />
        <path d="M 667.8 920 L 667.8 910" />
        <path d="M 684.4 920 L 684.4 910" />
        <path d="M 701 920 L 701 910" />
        <path d="M 717.6 920 L 717.6 910" />
        <path d="M 734.2 920 L 734.2 910" />
        <path d="M 750.8 920 L 750.8 910" />
        <path d="M 767.4 920 L 767.4 910" />
        <path d="M 784 920 L 784 900" />
        <text font-size="30" transform="translate(784, 950)" text-anchor="middle" dominant-baseline="middle" stroke="none" fill="black">40</text>
        <path d="M 800.6 920 L 800.6 910" />
        <path d="M 817.2 920 L 817.2 910" />
        <path d="M 833.8 920 L 833.8 910" />
        <path d="M 850.4 920 L 850.4 910" />
        <path d="M 867 920 L 867 910" />
        <path d="M 883.6 920 L 883.6 910" />
        <path d="M 900.2 920 L 900.2 910" />
        <path d="M 916.8 920 L 916.8 910" />
        <path d="M 933.4 920 L 933.4 910" />
        <path d="M 950 920 L 950 900" />
        <text font-size="30" transform="translate(950, 950)" text-anchor="middle" dominant-baseline="middle" stroke="none" fill="black">50</text>
    </g>
    <g id="frame_0_leftticks">
        <path d="M 120 806.154 L 130 806.154" />
        <path d="M 120 749.231 L 130 749.231" />
        <path d="M 120 550 L 130 550" />
        <path d="M 120 251.154 L 130 251.154" />
        <path d="M 120 920 L 140 920" />
        <text font-size="30" transform="translate(110, 930)" text-anchor="end" dominant-baseline="middle" stroke="none" fill="black">0</text>
        <path d="M 120 621.154 L 130 621.154" />
        <path d="M 120 322.308 L 130 322.308" />
        <path d="M 120 692.308 L 130 692.308" />
        <path d="M 120 791.923 L 130 791.923" />
        <path d="M 120 94.6155 L 130 94.6155" />
        <path d="M 120 464.615 L 130 464.615" />
        <path d="M 120 165.769 L 130 165.769" />
        <path d="M 120 535.769 L 130 535.769" />
        <path d="M 120 905.769 L 130 905.769" />
        <path d="M 120 891.538 L 130 891.538" />
        <path d="M 120 763.462 L 130 763.462" />
        <path d="M 120 308.077 L 130 308.077" />
        <path d="M 120 379.231 L 130 379.231" />
        <path d="M 120 151.539 L 130 151.539" />
        <path d="M 120 80.3847 L 130 80.3847" />
        <path d="M 120 450.385 L 130 450.385" />
        <path d="M 120 877.308 L 130 877.308" />
        <path d="M 120 848.846 L 130 848.846" />
        <path d="M 120 521.538 L 130 521.538" />
        <path d="M 120 222.692 L 130 222.692" />
        <path d="M 120 592.692 L 130 592.692" />
        <path d="M 120 820.385 L 130 820.385" />
        <path d="M 120 293.846 L 130 293.846" />
        <path d="M 120 663.846 L 130 663.846" />
        <path d="M 120 863.077 L 130 863.077" />
        <path d="M 120 606.923 L 130 606.923" />
        <path d="M 120 365 L 130 365" />
        <path d="M 120 66.1539 L 140 66.1539" />
        <text font-size="30" transform="translate(110, 76.1539)" text-anchor="end" dominant-baseline="middle" stroke="none" fill="black">600000</text>
        <path d="M 120 436.154 L 130 436.154" />
        <path d="M 120 137.308 L 130 137.308" />
        <path d="M 120 507.308 L 130 507.308" />
        <path d="M 120 208.462 L 140 208.462" />
        <text font-size="30" transform="translate(110, 218.462)" text-anchor="end" dominant-baseline="middle" stroke="none" fill="black">500000</text>
        <path d="M 120 735 L 130 735" />
        <path d="M 120 578.462 L 130 578.462" />
        <path d="M 120 279.615 L 130 279.615" />
        <path d="M 120 649.615 L 130 649.615" />
        <path d="M 120 350.769 L 140 350.769" />
        <text font-size="30" transform="translate(110, 360.769)" text-anchor="end" dominant-baseline="middle" stroke="none" fill="black">400000</text>
        <path d="M 120 51.9231 L 130 51.9231" />
        <path d="M 120 720.769 L 130 720.769" />
        <path d="M 120 421.923 L 130 421.923" />
        <path d="M 120 834.615 L 130 834.615" />
        <path d="M 120 678.077 L 130 678.077" />
        <path d="M 120 123.077 L 130 123.077" />
        <path d="M 120 493.077 L 140 493.077" />
        <text font-size="30" transform="translate(110, 503.077)" text-anchor="end" dominant-baseline="middle" stroke="none" fill="black">300000</text>
        <path d="M 120 393.462 L 130 393.462" />
        <path d="M 120 564.231 L 130 564.231" />
        <path d="M 120 236.923 L 130 236.923" />
        <path d="M 120 265.385 L 130 265.385" />
        <path d="M 120 706.538 L 130 706.538" />
        <path d="M 120 336.539 L 130 336.539" />
        <path d="M 120 635.385 L 140 635.385" />
        <text font-size="30" transform="translate(110, 645.385)" text-anchor="end" dominant-baseline="middle" stroke="none" fill="black">200000</text>
        <path d="M 120 194.231 L 130 194.231" />
        <path d="M 120 407.692 L 130 407.692" />
        <path d="M 120 108.846 L 130 108.846" />
        <path d="M 120 777.692 L 140 777.692" />
        <text font-size="30" transform="translate(110, 787.692)" text-anchor="end" dominant-baseline="middle" stroke="none" fill="black">100000</text>
        <path d="M 120 180 L 130 180" />
        <path d="M 120 478.846 L 130 478.846" />
    </g>
    <text id="frame_0_toplabel" font-size="30" transform="translate(535, 32.6)" text-anchor="middle" dominant-baseline="middle" stroke="none" fill="black">model.cluster.closest</text>
    <g id="frame_0_topticks">
        <path d="M 120 50 L 120 70" />
        <path d="M 136.6 50 L 136.6 60" />
        <path d="M 153.2 50 L 153.2 60" />
        <path d="M 169.8 50 L 169.8 60" />
        <path d="M 186.4 50 L 186.4 60" />
        <path d="M 203 50 L 203 60" />
        <path d="M 219.6 50 L 219.6 60" />
        <path d="M 236.2 50 L 236.2 60" />
        <path d="M 252.8 50 L 252.8 60" />
        <path d="M 269.4 50 L 269.4 60" />
        <path d="M 286 50 L 286 70" />
        <path d="M 302.6 50 L 302.6 60" />
        <path d="M 319.2 50 L 319.2 60" />
        <path d="M 335.8 50 L 335.8 60" />
        <path d="M 352.4 50 L 352.4 60" />
        <path d="M 369 50 L 369 60" />
        <path d="M 385.6 50 L 385.6 60" />
        <path d="M 402.2 50 L 402.2 60" />
        <path d="M 418.8 50 L 418.8 60" />
        <path d="M 435.4 50 L 435.4 60" />
        <path d="M 452 50 L 452 70" />
        <path d="M 468.6 50 L 468.6 60" />
        <path d="M 485.2 50 L 485.2 60" />
        <path d="M 501.8 50 L 501.8 60" />
        <path d="M 518.4 50 L 518.4 60" />
        <path d="M 535 50 L 535 60" />
        <path d="M 551.6 50 L 551.6 60" />
        <path d="M 568.2 50 L 568.2 60" />
        <path d="M 584.8 50 L 584.8 60" />
        <path d="M 601.4 50 L 601.4 60" />
        <path d="M 618 50 L 618 70" />
        <path d="M 634.6 50 L 634.6 60" />
        <path d="M 651.2 50 L 651.2 60" />
        <path d="M 667.8 50 L 667.8 60" />
        <path d="M 684.4 50 L 684.4 60" />
        <path d="M 701 50 L 701 60" />
        <path d="M 717.6 50 L 717.6 60" />
        <path d="M 734.2 50 L 734.2 60" />
        <path d="M 750.8 50 L 750.8 60" />
        <path d="M 767.4 50 L 767.4 60" />
        <path d="M 784 50 L 784 70" />
        <path d="M 800.6 50 L 800.6 60" />
        <path d="M 817.2 50 L 817.2 60" />
        <path d="M 833.8 50 L 833.8 60" />
        <path d="M 850.4 50 L 850.4 60" />
        <path d="M 867 50 L 867 60" />
        <path d="M 883.6 50 L 883.6 60" />
        <path d="M 900.2 50 L 900.2 60" />
        <path d="M 916.8 50 L 916.8 60" />
        <path d="M 933.4 50 L 933.4 60" />
        <path d="M 950 50 L 950 70" />
    </g>
    <g id="frame_0_rightticks">
        <path d="M 950 806.154 L 940 806.154" />
        <path d="M 950 749.231 L 940 749.231" />
        <path d="M 950 550 L 940 550" />
        <path d="M 950 251.154 L 940 251.154" />
        <path d="M 950 920 L 930 920" />
        <path d="M 950 621.154 L 940 621.154" />
        <path d="M 950 322.308 L 940 322.308" />
        <path d="M 950 692.308 L 940 692.308" />
        <path d="M 950 791.923 L 940 791.923" />
        <path d="M 950 94.6155 L 940 94.6155" />
        <path d="M 950 464.615 L 940 464.615" />
        <path d="M 950 165.769 L 940 165.769" />
        <path d="M 950 535.769 L 940 535.769" />
        <path d="M 950 905.769 L 940 905.769" />
        <path d="M 950 891.538 L 940 891.538" />
        <path d="M 950 763.462 L 940 763.462" />
        <path d="M 950 308.077 L 940 308.077" />
        <path d="M 950 379.231 L 940 379.231" />
        <path d="M 950 151.539 L 940 151.539" />
        <path d="M 950 80.3847 L 940 80.3847" />
        <path d="M 950 450.385 L 940 450.385" />
        <path d="M 950 877.308 L 940 877.308" />
        <path d="M 950 848.846 L 940 848.846" />
        <path d="M 950 521.538 L 940 521.538" />
        <path d="M 950 222.692 L 940 222.692" />
        <path d="M 950 592.692 L 940 592.692" />
        <path d="M 950 820.385 L 940 820.385" />
        <path d="M 950 293.846 L 940 293.846" />
        <path d="M 950 663.846 L 940 663.846" />
        <path d="M 950 863.077 L 940 863.077" />
        <path d="M 950 606.923 L 940 606.923" />
        <path d="M 950 365 L 940 365" />
        <path d="M 950 66.1539 L 930 66.1539" />
        <path d="M 950 436.154 L 940 436.154" />
        <path d="M 950 137.308 L 940 137.308" />
        <path d="M 950 507.308 L 940 507.308" />
        <path d="M 950 208.462 L 930 208.462" />
        <path d="M 950 735 L 940 735" />
        <path d="M 950 578.462 L 940 578.462" />
        <path d="M 950 279.615 L 940 279.615" />
        <path d="M 950 649.615 L 940 649.615" />
        <path d="M 950 350.769 L 930 350.769" />
        <path d="M 950 51.9231 L 940 51.9231" />
        <path d="M 950 720.769 L 940 720.769" />
        <path d="M 950 421.923 L 940 421.923" />
        <path d="M 950 834.615 L 940 834.615" />
        <path d="M 950 678.077 L 940 678.077" />
        <path d="M 950 123.077 L 940 123.077" />
        <path d="M 950 493.077 L 930 493.077" />
        <path d="M 950 393.462 L 940 393.462" />
        <path d="M 950 564.231 L 940 564.231" />
        <path d="M 950 236.923 L 940 236.923" />
        <path d="M 950 265.385 L 940 265.385" />
        <path d="M 950 706.538 L 940 706.538" />
        <path d="M 950 336.539 L 940 336.539" />
        <path d="M 950 635.385 L 930 635.385" />
        <path d="M 950 194.231 L 940 194.231" />
        <path d="M 950 407.692 L 940 407.692" />
        <path d="M 950 108.846 L 940 108.846" />
        <path d="M 950 777.692 L 930 777.692" />
        <path d="M 950 180 L 940 180" />
        <path d="M 950 478.846 L 940 478.846" />
    </g>
</g>
</g>
</svg>
