<?xml version="1.0" standalone="no"?>
<!DOCTYPE svg PUBLIC "-//W3C//DTD SVG 1.1//EN" "http://www.w3.org/Graphics/SVG/1.1/DTD/svg11.dtd">
<svg style="stroke-linejoin:miter; stroke:black; stroke-width:2.5; text-anchor:middle; fill:none" xmlns="http://www.w3.org/2000/svg" font-family="Helvetica, Arial, FreeSans, Sans, sans, sans-serif" width="1000px" height="1000px" version="1.1" xmlns:xlink="http://www.w3.org/1999/xlink" viewBox="0 0 1000 1000">
<defs>
    <clipPath id="Histogram_0_clip">
        <rect x="120" y="50" width="830" height="870" />
    </clipPath>
    <clipPath id="Histogram_1_clip">
        <rect x="120" y="50" width="830" height="870" />
    </clipPath>
</defs>
<g id="whole_document">
<rect id="background" x="0" y="0" width="1000" height="1000" stroke="none" fill="white" />
<g id="Histogram_0" clip-path="url(#Histogram_0_clip)">
    <path d="M 120 920 L 120 129.091 L 161.5 129.091 L 161.5 863.369 L 203 863.369 L 203 920 L 244.5 920 L 244.5 779.493 L 286 779.493 L 286 904.397 L 327.5 904.397 L 327.5 915.417 L 369 915.417 L 369 920 L 410.5 920 L 410.5 920 L 452 920 L 452 920 L 493.5 920 L 493.5 920 L 535 920 L 535 920 L 576.5 920 L 576.5 920 L 618 920 L 618 920 L 659.5 920 L 659.5 920 L 701 920 L 701 920 L 742.5 920 L 742.5 920 L 784 920 L 784 920 L 825.5 920 L 825.5 920 L 867 920 L 867 920 L 908.5 920 L 908.5 920 L 950 920 L 950 920" stroke-width="3" stroke-dasharray="" stroke="black" stroke-opacity="1" fill="DodgerBlue" fill-opacity="1" />
</g>
<g id="Histogram_1" clip-path="url(#Histogram_1_clip)">
    <path d="M 120 920 L 120 920 L 161.5 920 L 161.5 920 L 203 920 L 203 920 L 244.5 920 L 244.5 779.493 L 286 779.493 L 286 904.397 L 327.5 904.397 L 327.5 915.417 L 369 915.417 L 369 920 L 410.5 920 L 410.5 920 L 452 920 L 452 920 L 493.5 920 L 493.5 920 L 535 920 L 535 920 L 576.5 920 L 576.5 920 L 618 920 L 618 920 L 659.5 920 L 659.5 920 L 701 920 L 701 920 L 742.5 920 L 742.5 920 L 784 920 L 784 920 L 825.5 920 L 825.5 920 L 867 920 L 867 920 L 908.5 920 L 908.5 920 L 950 920 L 950 920" stroke-width="3" stroke-dasharray="" stroke="black" stroke-opacity="1" fill="darkorange" fill-opacity="1" />
</g>
<g id="frame_0">
    <rect id="frame_0_border" x="120" y="50" width="830" height="870" />
    <text id="frame_0_bottomlabel" font-size="30" transform="translate(535, 989.6)" text-anchor="middle" dominant-baseline="middle" stroke="none" fill="black">microseconds</text>
    <g id="frame_0_bottomticks">
        <path d="M 120 920 L 120 900" />
        <text font-size="30" transform="translate(120, 950)" text-anchor="middle" dominant-baseline="middle" stroke="none" fill="black">0</text>
        <path d="M 136.6 920 L 136.6 910" />
        <path d="M 153.2 920 L 153.2 910" />
        <path d="M 169.8 920 L 169.8 910" />
        <path d="M 186.4 920 L 186.4 910" />
        <path d="M 203 920 L 203 910" />
        <path d="M 219.6 920 L 219.6 910" />
        <path d="M 236.2 920 L 236.2 910" />
        <path d="M 252.8 920 L 252.8 910" />
        <path d="M 269.4 920 L 269.4 910" />
        <path d="M 286 920 L 286 900" />
        <text font-size="30" transform="translate(286, 950)" text-anchor="middle" dominant-baseline="middle" stroke="none" fill="black">10</text>
        <path d="M 302.6 920 L 302.6 910" />
        <path d="M 319.2 920 L 319.2 910" />
        <path d="M 335.8 920 L 335.8 910" />
        <path d="M 352.4 920 L 352.4 910" />
        <path d="M 369 920 L 369 910" />
        <path d="M 385.6 920 L 385.6 910" />
        <path d="M 402.2 920 L 402.2 910" />
        <path d="M 418.8 920 L 418.8 910" />
        <path d="M 435.4 920 L 435.4 910" />
        <path d="M 452 920 L 452 900" />
        <text font-size="30" transform="translate(452, 950)" text-anchor="middle" dominant-baseline="middle" stroke="none" fill="black">20</text>
        <path d="M 468.6 920 L 468.6 910" />
        <path d="M 485.2 920 L 485.2 910" />
        <path d="M 501.8 920 L 501.8 910" />
        <path d="M 518.4 920 L 518.4 910" />
        <path d="M 535 920 L 535 910" />
        <path d="M 551.6 920 L 551.6 910" />
        <path d="M 568.2 920 L 568.2 910" />
        <path d="M 584.8 920 L 584.8 910" />
        <path d="M 601.4 920 L 601.4 910" />
        <path d="M 618 920 L 618 900" />
        <text font-size="30" transform="translate(618, 950)" text-anchor="middle" dominant-baseline="middle" stroke="none" fill="black">30</text>
        <path d="M 634.6 920 L 634.6 910" />
        <path d="M 651.2 920 L 651.2 910" />
        <path d="M 667.8 920 L 667.8 910" />
        <path d="M 684.4 920 L 684.4 910" />
        <path d="M 701 920 L 701 910" />
        <path d="M 717.6 920 L 717.6 910" />
        <path d="M 734.2 920 L 734.2 910" />
        <path d="M 750.8 920 L 750.8 910" />
        <path d="M 767.4 920 L 767.4 910" />
        <path d="M 784 920 L 784 900" />
        <text font-size="30" transform="translate(784, 950)" text-anchor="middle" dominant-baseline="middle" stroke="none" fill="black">40</text>
        <path d="M 800.6 920 L 800.6 910" />
        <path d="M 817.2 920 L 817.2 910" />
        <path d="M 833.8 920 L 833.8 910" />
        <path d="M 850.4 920 L 850.4 910" />
        <path d="M 867 920 L 867 910" />
        <path d="M 883.6 920 L 883.6 910" />
        <path d="M 900.2 920 L 900.2 910" />
        <path d="M 916.8 920 L 916.8 910" />
        <path d="M 933.4 920 L 933.4 910" />
        <path d="M 950 920 L 950 900" />
        <text font-size="30" transform="translate(950, 950)" text-anchor="middle" dominant-baseline="middle" stroke="none" fill="black">50</text>
    </g>
    <g id="frame_0_leftticks">
        <path d="M 120 650.41 L 130 650.41" />
        <path d="M 120 515.615 L 130 515.615" />
        <path d="M 120 465.067 L 130 465.067" />
        <path d="M 120 566.163 L 130 566.163" />
        <path d="M 120 347.122 L 130 347.122" />
        <path d="M 120 481.917 L 130 481.917" />
        <path d="M 120 802.054 L 130 802.054" />
        <path d="M 120 128.08 L 130 128.08" />
        <path d="M 120 667.26 L 130 667.26" />
        <path d="M 120 920 L 140 920" />
        <text font-size="30" transform="translate(110, 930)" text-anchor="end" dominant-baseline="middle" stroke="none" fill="black">0</text>
        <path d="M 120 431.368 L 130 431.368" />
        <path d="M 120 397.67 L 130 397.67" />
        <path d="M 120 262.875 L 130 262.875" />
        <path d="M 120 852.603 L 130 852.603" />
        <path d="M 120 549.314 L 130 549.314" />
        <path d="M 120 178.628 L 130 178.628" />
        <path d="M 120 751.506 L 140 751.506" />
        <text font-size="30" transform="translate(110, 761.506)" text-anchor="end" dominant-baseline="middle" stroke="none" fill="black">10000</text>
        <path d="M 120 583.013 L 140 583.013" />
        <text font-size="30" transform="translate(110, 593.013)" text-anchor="end" dominant-baseline="middle" stroke="none" fill="black">20000</text>
        <path d="M 120 768.356 L 130 768.356" />
        <path d="M 120 414.519 L 140 414.519" />
        <text font-size="30" transform="translate(110, 424.519)" text-anchor="end" dominant-baseline="middle" stroke="none" fill="black">30000</text>
        <path d="M 120 313.423 L 130 313.423" />
        <path d="M 120 684.109 L 130 684.109" />
        <path d="M 120 835.753 L 130 835.753" />
        <path d="M 120 229.176 L 130 229.176" />
        <path d="M 120 599.862 L 130 599.862" />
        <path d="M 120 94.3812 L 130 94.3812" />
        <path d="M 120 363.971 L 130 363.971" />
        <path d="M 120 785.205 L 130 785.205" />
        <path d="M 120 448.218 L 130 448.218" />
        <path d="M 120 498.766 L 130 498.766" />
        <path d="M 120 700.958 L 130 700.958" />
        <path d="M 120 279.724 L 130 279.724" />
        <path d="M 120 60.6825 L 130 60.6825" />
        <path d="M 120 886.301 L 130 886.301" />
        <path d="M 120 869.452 L 130 869.452" />
        <path d="M 120 195.477 L 130 195.477" />
        <path d="M 120 532.465 L 130 532.465" />
        <path d="M 120 330.272 L 130 330.272" />
        <path d="M 120 717.808 L 130 717.808" />
        <path d="M 120 616.711 L 130 616.711" />
        <path d="M 120 111.231 L 130 111.231" />
        <path d="M 120 903.151 L 130 903.151" />
        <path d="M 120 212.327 L 130 212.327" />
        <path d="M 120 380.82 L 130 380.82" />
        <path d="M 120 818.904 L 130 818.904" />
        <path d="M 120 633.561 L 130 633.561" />
        <path d="M 120 246.025 L 140 246.025" />
        <text font-size="30" transform="translate(110, 256.025)" text-anchor="end" dominant-baseline="middle" stroke="none" fill="black">40000</text>
        <path d="M 120 161.779 L 130 161.779" />
        <path d="M 120 77.5319 L 140 77.5319" />
        <text font-size="30" transform="translate(110, 87.5319)" text-anchor="end" dominant-baseline="middle" stroke="none" fill="black">50000</text>
        <path d="M 120 734.657 L 130 734.657" />
        <path d="M 120 296.574 L 130 296.574" />
        <path d="M 120 144.929 L 130 144.929" />
    </g>
    <text id="frame_0_toplabel" font-size="30" transform="translate(535, 32.6)" text-anchor="middle" dominant-baseline="middle" stroke="none" fill="black">a.rotate</text>
    <g id="frame_0_topticks">
        <path d="M 120 50 L 120 70" />
        <path d="M 136.6 50 L 136.6 60" />
        <path d="M 153.2 50 L 153.2 60" />
        <path d="M 169.8 50 L 169.8 60" />
        <path d="M 186.4 50 L 186.4 60" />
        <path d="M 203 50 L 203 60" />
        <path d="M 219.6 50 L 219.6 60" />
        <path d="M 236.2 50 L 236.2 60" />
        <path d="M 252.8 50 L 252.8 60" />
        <path d="M 269.4 50 L 269.4 60" />
        <path d="M 286 50 L 286 70" />
        <path d="M 302.6 50 L 302.6 60" />
        <path d="M 319.2 50 L 319.2 60" />
        <path d="M 335.8 50 L 335.8 60" />
        <path d="M 352.4 50 L 352.4 60" />
        <path d="M 369 50 L 369 60" />
        <path d="M 385.6 50 L 385.6 60" />
        <path d="M 402.2 50 L 402.2 60" />
        <path d="M 418.8 50 L 418.8 60" />
        <path d="M 435.4 50 L 435.4 60" />
        <path d="M 452 50 L 452 70" />
        <path d="M 468.6 50 L 468.6 60" />
        <path d="M 485.2 50 L 485.2 60" />
        <path d="M 501.8 50 L 501.8 60" />
        <path d="M 518.4 50 L 518.4 60" />
        <path d="M 535 50 L 535 60" />
        <path d="M 551.6 50 L 551.6 60" />
        <path d="M 568.2 50 L 568.2 60" />
        <path d="M 584.8 50 L 584.8 60" />
        <path d="M 601.4 50 L 601.4 60" />
        <path d="M 618 50 L 618 70" />
        <path d="M 634.6 50 L 634.6 60" />
        <path d="M 651.2 50 L 651.2 60" />
        <path d="M 667.8 50 L 667.8 60" />
        <path d="M 684.4 50 L 684.4 60" />
        <path d="M 701 50 L 701 60" />
        <path d="M 717.6 50 L 717.6 60" />
        <path d="M 734.2 50 L 734.2 60" />
        <path d="M 750.8 50 L 750.8 60" />
        <path d="M 767.4 50 L 767.4 60" />
        <path d="M 784 50 L 784 70" />
        <path d="M 800.6 50 L 800.6 60" />
        <path d="M 817.2 50 L 817.2 60" />
        <path d="M 833.8 50 L 833.8 60" />
        <path d="M 850.4 50 L 850.4 60" />
        <path d="M 867 50 L 867 60" />
        <path d="M 883.6 50 L 883.6 60" />
        <path d="M 900.2 50 L 900.2 60" />
        <path d="M 916.8 50 L 916.8 60" />
        <path d="M 933.4 50 L 933.4 60" />
        <path d="M 950 50 L 950 70" />
    </g>
    <g id="frame_0_rightticks">
        <path d="M 950 650.41 L 940 650.41" />
        <path d="M 950 515.615 L 940 515.615" />
        <path d="M 950 465.067 L 940 465.067" />
        <path d="M 950 566.163 L 940 566.163" />
        <path d="M 950 347.122 L 940 347.122" />
        <path d="M 950 481.917 L 940 481.917" />
        <path d="M 950 802.054 L 940 802.054" />
        <path d="M 950 128.08 L 940 128.08" />
        <path d="M 950 667.26 L 940 667.26" />
        <path d="M 950 920 L 930 920" />
        <path d="M 950 431.368 L 940 431.368" />
        <path d="M 950 397.67 L 940 397.67" />
        <path d="M 950 262.875 L 940 262.875" />
        <path d="M 950 852.603 L 940 852.603" />
        <path d="M 950 549.314 L 940 549.314" />
        <path d="M 950 178.628 L 940 178.628" />
        <path d="M 950 751.506 L 930 751.506" />
        <path d="M 950 583.013 L 930 583.013" />
        <path d="M 950 768.356 L 940 768.356" />
        <path d="M 950 414.519 L 930 414.519" />
        <path d="M 950 313.423 L 940 313.423" />
        <path d="M 950 684.109 L 940 684.109" />
        <path d="M 950 835.753 L 940 835.753" />
        <path d="M 950 229.176 L 940 229.176" />
        <path d="M 950 599.862 L 940 599.862" />
        <path d="M 950 94.3812 L 940 94.3812" />
        <path d="M 950 363.971 L 940 363.971" />
        <path d="M 950 785.205 L 940 785.205" />
        <path d="M 950 448.218 L 940 448.218" />
        <path d="M 950 498.766 L 940 498.766" />
        <path d="M 950 700.958 L 940 700.958" />
        <path d="M 950 279.724 L 940 279.724" />
        <path d="M 950 60.6825 L 940 60.6825" />
        <path d="M 950 886.301 L 940 886.301" />
        <path d="M 950 869.452 L 940 869.452" />
        <path d="M 950 195.477 L 940 195.477" />
        <path d="M 950 532.465 L 940 532.465" />
        <path d="M 950 330.272 L 940 330.272" />
        <path d="M 950 717.808 L 940 717.808" />
        <path d="M 950 616.711 L 940 616.711" />
        <path d="M 950 111.231 L 940 111.231" />
        <path d="M 950 903.151 L 940 903.151" />
        <path d="M 950 212.327 L 940 212.327" />
        <path d="M 950 380.82 L 940 380.82" />
        <path d="M 950 818.904 L 940 818.904" />
        <path d="M 950 633.561 L 940 633.561" />
        <path d="M 950 246.025 L 930 246.025" />
        <path d="M 950 161.779 L 940 161.779" />
        <path d="M 950 77.5319 L 930 77.5319" />
        <path d="M 950 734.657 L 940 734.657" />
        <path d="M 950 296.574 L 940 296.574" />
        <path d="M 950 144.929 L 940 144.929" />
    </g>
</g>
</g>
</svg>
