<?xml version="1.0" standalone="no"?>
<!DOCTYPE svg PUBLIC "-//W3C//DTD SVG 1.1//EN" "http://www.w3.org/Graphics/SVG/1.1/DTD/svg11.dtd">
<svg style="stroke-linejoin:miter; stroke:black; stroke-width:2.5; text-anchor:middle; fill:none" xmlns="http://www.w3.org/2000/svg" font-family="Helvetica, Arial, FreeSans, Sans, sans, sans-serif" width="1000px" height="1000px" version="1.1" xmlns:xlink="http://www.w3.org/1999/xlink" viewBox="0 0 1000 1000">
<defs>
    <clipPath id="Histogram_0_clip">
        <rect x="120" y="50" width="830" height="870" />
    </clipPath>
</defs>
<g id="whole_document">
<rect id="background" x="0" y="0" width="1000" height="1000" stroke="none" fill="white" />
<g id="Histogram_0" clip-path="url(#Histogram_0_clip)">
    <path d="M 120 920 L 120 129.091 L 161.5 129.091 L 161.5 867.465 L 203 867.465 L 203 920 L 244.5 920 L 244.5 918.259 L 286 918.259 L 286 918.343 L 327.5 918.343 L 327.5 920 L 369 920 L 369 920 L 410.5 920 L 410.5 920 L 452 920 L 452 920 L 493.5 920 L 493.5 920 L 535 920 L 535 920 L 576.5 920 L 576.5 920 L 618 920 L 618 920 L 659.5 920 L 659.5 920 L 701 920 L 701 920 L 742.5 920 L 742.5 920 L 784 920 L 784 920 L 825.5 920 L 825.5 920 L 867 920 L 867 920 L 908.5 920 L 908.5 920 L 950 920 L 950 920" stroke-width="3" stroke-dasharray="" stroke="black" stroke-opacity="1" fill="DodgerBlue" fill-opacity="1" />
</g>
<g id="frame_0">
    <rect id="frame_0_border" x="120" y="50" width="830" height="870" />
    <text id="frame_0_bottomlabel" font-size="30" transform="translate(535, 989.6)" text-anchor="middle" dominant-baseline="middle" stroke="none" fill="black">microseconds</text>
    <g id="frame_0_bottomticks">
        <path d="M 120 920 L 120 900" />
        <text font-size="30" transform="translate(120, 950)" text-anchor="middle" dominant-baseline="middle" stroke="none" fill="black">0</text>
        <path d="M 136.6 920 L 136.6 910" />
        <path d="M 153.2 920 L 153.2 910" />
        <path d="M 169.8 920 L 169.8 910" />
        <path d="M 186.4 920 L 186.4 910" />
        <path d="M 203 920 L 203 910" />
        <path d="M 219.6 920 L 219.6 910" />
        <path d="M 236.2 920 L 236.2 910" />
        <path d="M 252.8 920 L 252.8 910" />
        <path d="M 269.4 920 L 269.4 910" />
        <path d="M 286 920 L 286 900" />
        <text font-size="30" transform="translate(286, 950)" text-anchor="middle" dominant-baseline="middle" stroke="none" fill="black">10</text>
        <path d="M 302.6 920 L 302.6 910" />
        <path d="M 319.2 920 L 319.2 910" />
        <path d="M 335.8 920 L 335.8 910" />
        <path d="M 352.4 920 L 352.4 910" />
        <path d="M 369 920 L 369 910" />
        <path d="M 385.6 920 L 385.6 910" />
        <path d="M 402.2 920 L 402.2 910" />
        <path d="M 418.8 920 L 418.8 910" />
        <path d="M 435.4 920 L 435.4 910" />
        <path d="M 452 920 L 452 900" />
        <text font-size="30" transform="translate(452, 950)" text-anchor="middle" dominant-baseline="middle" stroke="none" fill="black">20</text>
        <path d="M 468.6 920 L 468.6 910" />
        <path d="M 485.2 920 L 485.2 910" />
        <path d="M 501.8 920 L 501.8 910" />
        <path d="M 518.4 920 L 518.4 910" />
        <path d="M 535 920 L 535 910" />
        <path d="M 551.6 920 L 551.6 910" />
        <path d="M 568.2 920 L 568.2 910" />
        <path d="M 584.8 920 L 584.8 910" />
        <path d="M 601.4 920 L 601.4 910" />
        <path d="M 618 920 L 618 900" />
        <text font-size="30" transform="translate(618, 950)" text-anchor="middle" dominant-baseline="middle" stroke="none" fill="black">30</text>
        <path d="M 634.6 920 L 634.6 910" />
        <path d="M 651.2 920 L 651.2 910" />
        <path d="M 667.8 920 L 667.8 910" />
        <path d="M 684.4 920 L 684.4 910" />
        <path d="M 701 920 L 701 910" />
        <path d="M 717.6 920 L 717.6 910" />
        <path d="M 734.2 920 L 734.2 910" />
        <path d="M 750.8 920 L 750.8 910" />
        <path d="M 767.4 920 L 767.4 910" />
        <path d="M 784 920 L 784 900" />
        <text font-size="30" transform="translate(784, 950)" text-anchor="middle" dominant-baseline="middle" stroke="none" fill="black">40</text>
        <path d="M 800.6 920 L 800.6 910" />
        <path d="M 817.2 920 L 817.2 910" />
        <path d="M 833.8 920 L 833.8 910" />
        <path d="M 850.4 920 L 850.4 910" />
        <path d="M 867 920 L 867 910" />
        <path d="M 883.6 920 L 883.6 910" />
        <path d="M 900.2 920 L 900.2 910" />
        <path d="M 916.8 920 L 916.8 910" />
        <path d="M 933.4 920 L 933.4 910" />
        <path d="M 950 920 L 950 900" />
        <text font-size="30" transform="translate(950, 950)" text-anchor="middle" dominant-baseline="middle" stroke="none" fill="black">50</text>
    </g>
    <g id="frame_0_leftticks">
        <path d="M 120 652.219 L 130 652.219" />
        <path d="M 120 518.328 L 130 518.328" />
        <path d="M 120 468.119 L 130 468.119" />
        <path d="M 120 568.537 L 130 568.537" />
        <path d="M 120 350.965 L 130 350.965" />
        <path d="M 120 484.855 L 130 484.855" />
        <path d="M 120 802.846 L 130 802.846" />
        <path d="M 120 133.392 L 130 133.392" />
        <path d="M 120 668.955 L 130 668.955" />
        <path d="M 120 920 L 140 920" />
        <text font-size="30" transform="translate(110, 930)" text-anchor="end" dominant-baseline="middle" stroke="none" fill="black">0</text>
        <path d="M 120 434.646 L 130 434.646" />
        <path d="M 120 401.174 L 130 401.174" />
        <path d="M 120 267.283 L 130 267.283" />
        <path d="M 120 853.055 L 130 853.055" />
        <path d="M 120 551.801 L 130 551.801" />
        <path d="M 120 183.601 L 130 183.601" />
        <path d="M 120 752.637 L 140 752.637" />
        <text font-size="30" transform="translate(110, 762.637)" text-anchor="end" dominant-baseline="middle" stroke="none" fill="black">10000</text>
        <path d="M 120 585.273 L 140 585.273" />
        <text font-size="30" transform="translate(110, 595.273)" text-anchor="end" dominant-baseline="middle" stroke="none" fill="black">20000</text>
        <path d="M 120 769.373 L 130 769.373" />
        <path d="M 120 417.91 L 140 417.91" />
        <text font-size="30" transform="translate(110, 427.91)" text-anchor="end" dominant-baseline="middle" stroke="none" fill="black">30000</text>
        <path d="M 120 317.492 L 130 317.492" />
        <path d="M 120 685.691 L 130 685.691" />
        <path d="M 120 836.318 L 130 836.318" />
        <path d="M 120 233.81 L 130 233.81" />
        <path d="M 120 602.01 L 130 602.01" />
        <path d="M 120 99.9195 L 130 99.9195" />
        <path d="M 120 367.701 L 130 367.701" />
        <path d="M 120 786.109 L 130 786.109" />
        <path d="M 120 451.383 L 130 451.383" />
        <path d="M 120 501.592 L 130 501.592" />
        <path d="M 120 702.428 L 130 702.428" />
        <path d="M 120 284.019 L 130 284.019" />
        <path d="M 120 66.4468 L 130 66.4468" />
        <path d="M 120 886.527 L 130 886.527" />
        <path d="M 120 869.791 L 130 869.791" />
        <path d="M 120 200.337 L 130 200.337" />
        <path d="M 120 535.064 L 130 535.064" />
        <path d="M 120 334.228 L 130 334.228" />
        <path d="M 120 719.164 L 130 719.164" />
        <path d="M 120 618.746 L 130 618.746" />
        <path d="M 120 116.656 L 130 116.656" />
        <path d="M 120 903.264 L 130 903.264" />
        <path d="M 120 217.074 L 130 217.074" />
        <path d="M 120 384.437 L 130 384.437" />
        <path d="M 120 819.582 L 130 819.582" />
        <path d="M 120 635.482 L 130 635.482" />
        <path d="M 120 250.547 L 140 250.547" />
        <text font-size="30" transform="translate(110, 260.547)" text-anchor="end" dominant-baseline="middle" stroke="none" fill="black">40000</text>
        <path d="M 120 166.865 L 130 166.865" />
        <path d="M 120 83.1831 L 140 83.1831" />
        <text font-size="30" transform="translate(110, 93.1831)" text-anchor="end" dominant-baseline="middle" stroke="none" fill="black">50000</text>
        <path d="M 120 735.9 L 130 735.9" />
        <path d="M 120 300.756 L 130 300.756" />
        <path d="M 120 150.128 L 130 150.128" />
    </g>
    <text id="frame_0_toplabel" font-size="30" transform="translate(535, 32.6)" text-anchor="middle" dominant-baseline="middle" stroke="none" fill="black">bytes.isLatin1</text>
    <g id="frame_0_topticks">
        <path d="M 120 50 L 120 70" />
        <path d="M 136.6 50 L 136.6 60" />
        <path d="M 153.2 50 L 153.2 60" />
        <path d="M 169.8 50 L 169.8 60" />
        <path d="M 186.4 50 L 186.4 60" />
        <path d="M 203 50 L 203 60" />
        <path d="M 219.6 50 L 219.6 60" />
        <path d="M 236.2 50 L 236.2 60" />
        <path d="M 252.8 50 L 252.8 60" />
        <path d="M 269.4 50 L 269.4 60" />
        <path d="M 286 50 L 286 70" />
        <path d="M 302.6 50 L 302.6 60" />
        <path d="M 319.2 50 L 319.2 60" />
        <path d="M 335.8 50 L 335.8 60" />
        <path d="M 352.4 50 L 352.4 60" />
        <path d="M 369 50 L 369 60" />
        <path d="M 385.6 50 L 385.6 60" />
        <path d="M 402.2 50 L 402.2 60" />
        <path d="M 418.8 50 L 418.8 60" />
        <path d="M 435.4 50 L 435.4 60" />
        <path d="M 452 50 L 452 70" />
        <path d="M 468.6 50 L 468.6 60" />
        <path d="M 485.2 50 L 485.2 60" />
        <path d="M 501.8 50 L 501.8 60" />
        <path d="M 518.4 50 L 518.4 60" />
        <path d="M 535 50 L 535 60" />
        <path d="M 551.6 50 L 551.6 60" />
        <path d="M 568.2 50 L 568.2 60" />
        <path d="M 584.8 50 L 584.8 60" />
        <path d="M 601.4 50 L 601.4 60" />
        <path d="M 618 50 L 618 70" />
        <path d="M 634.6 50 L 634.6 60" />
        <path d="M 651.2 50 L 651.2 60" />
        <path d="M 667.8 50 L 667.8 60" />
        <path d="M 684.4 50 L 684.4 60" />
        <path d="M 701 50 L 701 60" />
        <path d="M 717.6 50 L 717.6 60" />
        <path d="M 734.2 50 L 734.2 60" />
        <path d="M 750.8 50 L 750.8 60" />
        <path d="M 767.4 50 L 767.4 60" />
        <path d="M 784 50 L 784 70" />
        <path d="M 800.6 50 L 800.6 60" />
        <path d="M 817.2 50 L 817.2 60" />
        <path d="M 833.8 50 L 833.8 60" />
        <path d="M 850.4 50 L 850.4 60" />
        <path d="M 867 50 L 867 60" />
        <path d="M 883.6 50 L 883.6 60" />
        <path d="M 900.2 50 L 900.2 60" />
        <path d="M 916.8 50 L 916.8 60" />
        <path d="M 933.4 50 L 933.4 60" />
        <path d="M 950 50 L 950 70" />
    </g>
    <g id="frame_0_rightticks">
        <path d="M 950 652.219 L 940 652.219" />
        <path d="M 950 518.328 L 940 518.328" />
        <path d="M 950 468.119 L 940 468.119" />
        <path d="M 950 568.537 L 940 568.537" />
        <path d="M 950 350.965 L 940 350.965" />
        <path d="M 950 484.855 L 940 484.855" />
        <path d="M 950 802.846 L 940 802.846" />
        <path d="M 950 133.392 L 940 133.392" />
        <path d="M 950 668.955 L 940 668.955" />
        <path d="M 950 920 L 930 920" />
        <path d="M 950 434.646 L 940 434.646" />
        <path d="M 950 401.174 L 940 401.174" />
        <path d="M 950 267.283 L 940 267.283" />
        <path d="M 950 853.055 L 940 853.055" />
        <path d="M 950 551.801 L 940 551.801" />
        <path d="M 950 183.601 L 940 183.601" />
        <path d="M 950 752.637 L 930 752.637" />
        <path d="M 950 585.273 L 930 585.273" />
        <path d="M 950 769.373 L 940 769.373" />
        <path d="M 950 417.91 L 930 417.91" />
        <path d="M 950 317.492 L 940 317.492" />
        <path d="M 950 685.691 L 940 685.691" />
        <path d="M 950 836.318 L 940 836.318" />
        <path d="M 950 233.81 L 940 233.81" />
        <path d="M 950 602.01 L 940 602.01" />
        <path d="M 950 99.9195 L 940 99.9195" />
        <path d="M 950 367.701 L 940 367.701" />
        <path d="M 950 786.109 L 940 786.109" />
        <path d="M 950 451.383 L 940 451.383" />
        <path d="M 950 501.592 L 940 501.592" />
        <path d="M 950 702.428 L 940 702.428" />
        <path d="M 950 284.019 L 940 284.019" />
        <path d="M 950 66.4468 L 940 66.4468" />
        <path d="M 950 886.527 L 940 886.527" />
        <path d="M 950 869.791 L 940 869.791" />
        <path d="M 950 200.337 L 940 200.337" />
        <path d="M 950 535.064 L 940 535.064" />
        <path d="M 950 334.228 L 940 334.228" />
        <path d="M 950 719.164 L 940 719.164" />
        <path d="M 950 618.746 L 940 618.746" />
        <path d="M 950 116.656 L 940 116.656" />
        <path d="M 950 903.264 L 940 903.264" />
        <path d="M 950 217.074 L 940 217.074" />
        <path d="M 950 384.437 L 940 384.437" />
        <path d="M 950 819.582 L 940 819.582" />
        <path d="M 950 635.482 L 940 635.482" />
        <path d="M 950 250.547 L 930 250.547" />
        <path d="M 950 166.865 L 940 166.865" />
        <path d="M 950 83.1831 L 930 83.1831" />
        <path d="M 950 735.9 L 940 735.9" />
        <path d="M 950 300.756 L 940 300.756" />
        <path d="M 950 150.128 L 940 150.128" />
    </g>
</g>
</g>
</svg>
