<?xml version="1.0" standalone="no"?>
<!DOCTYPE svg PUBLIC "-//W3C//DTD SVG 1.1//EN" "http://www.w3.org/Graphics/SVG/1.1/DTD/svg11.dtd">
<svg style="stroke-linejoin:miter; stroke:black; stroke-width:2.5; text-anchor:middle; fill:none" xmlns="http://www.w3.org/2000/svg" font-family="Helvetica, Arial, FreeSans, Sans, sans, sans-serif" width="1000px" height="1000px" version="1.1" xmlns:xlink="http://www.w3.org/1999/xlink" viewBox="0 0 1000 1000">
<defs>
    <clipPath id="Histogram_0_clip">
        <rect x="120" y="50" width="830" height="870" />
    </clipPath>
    <clipPath id="Histogram_1_clip">
        <rect x="120" y="50" width="830" height="870" />
    </clipPath>
</defs>
<g id="whole_document">
<rect id="background" x="0" y="0" width="1000" height="1000" stroke="none" fill="white" />
<g id="Histogram_0" clip-path="url(#Histogram_0_clip)">
    <path d="M 120 920 L 120 129.091 L 161.5 129.091 L 161.5 290.376 L 203 290.376 L 203 859.559 L 244.5 859.559 L 244.5 482.043 L 286 482.043 L 286 890.911 L 327.5 890.911 L 327.5 847.923 L 369 847.923 L 369 796.855 L 410.5 796.855 L 410.5 798.471 L 452 798.471 L 452 827.56 L 493.5 827.56 L 493.5 823.682 L 535 823.682 L 535 869.578 L 576.5 869.578 L 576.5 920 L 618 920 L 618 920 L 659.5 920 L 659.5 900.284 L 701 900.284 L 701 910.627 L 742.5 910.627 L 742.5 911.273 L 784 911.273 L 784 920 L 825.5 920 L 825.5 912.243 L 867 912.243 L 867 920 L 908.5 920 L 908.5 920 L 950 920 L 950 920" stroke-width="3" stroke-dasharray="" stroke="black" stroke-opacity="1" fill="DodgerBlue" fill-opacity="1" />
</g>
<g id="Histogram_1" clip-path="url(#Histogram_1_clip)">
    <path d="M 120 920 L 120 920 L 161.5 920 L 161.5 920 L 203 920 L 203 920 L 244.5 920 L 244.5 638.802 L 286 638.802 L 286 920 L 327.5 920 L 327.5 897.375 L 369 897.375 L 369 838.873 L 410.5 838.873 L 410.5 852.771 L 452 852.771 L 452 874.75 L 493.5 874.75 L 493.5 851.155 L 535 851.155 L 535 894.466 L 576.5 894.466 L 576.5 920 L 618 920 L 618 920 L 659.5 920 L 659.5 920 L 701 920 L 701 920 L 742.5 920 L 742.5 920 L 784 920 L 784 920 L 825.5 920 L 825.5 920 L 867 920 L 867 920 L 908.5 920 L 908.5 920 L 950 920 L 950 920" stroke-width="3" stroke-dasharray="" stroke="black" stroke-opacity="1" fill="darkorange" fill-opacity="1" />
</g>
<g id="frame_0">
    <rect id="frame_0_border" x="120" y="50" width="830" height="870" />
    <text id="frame_0_bottomlabel" font-size="30" transform="translate(535, 989.6)" text-anchor="middle" dominant-baseline="middle" stroke="none" fill="black">microseconds</text>
    <g id="frame_0_bottomticks">
        <path d="M 120 920 L 120 900" />
        <text font-size="30" transform="translate(120, 950)" text-anchor="middle" dominant-baseline="middle" stroke="none" fill="black">0</text>
        <path d="M 136.6 920 L 136.6 910" />
        <path d="M 153.2 920 L 153.2 910" />
        <path d="M 169.8 920 L 169.8 910" />
        <path d="M 186.4 920 L 186.4 910" />
        <path d="M 203 920 L 203 910" />
        <path d="M 219.6 920 L 219.6 910" />
        <path d="M 236.2 920 L 236.2 910" />
        <path d="M 252.8 920 L 252.8 910" />
        <path d="M 269.4 920 L 269.4 910" />
        <path d="M 286 920 L 286 900" />
        <text font-size="30" transform="translate(286, 950)" text-anchor="middle" dominant-baseline="middle" stroke="none" fill="black">10</text>
        <path d="M 302.6 920 L 302.6 910" />
        <path d="M 319.2 920 L 319.2 910" />
        <path d="M 335.8 920 L 335.8 910" />
        <path d="M 352.4 920 L 352.4 910" />
        <path d="M 369 920 L 369 910" />
        <path d="M 385.6 920 L 385.6 910" />
        <path d="M 402.2 920 L 402.2 910" />
        <path d="M 418.8 920 L 418.8 910" />
        <path d="M 435.4 920 L 435.4 910" />
        <path d="M 452 920 L 452 900" />
        <text font-size="30" transform="translate(452, 950)" text-anchor="middle" dominant-baseline="middle" stroke="none" fill="black">20</text>
        <path d="M 468.6 920 L 468.6 910" />
        <path d="M 485.2 920 L 485.2 910" />
        <path d="M 501.8 920 L 501.8 910" />
        <path d="M 518.4 920 L 518.4 910" />
        <path d="M 535 920 L 535 910" />
        <path d="M 551.6 920 L 551.6 910" />
        <path d="M 568.2 920 L 568.2 910" />
        <path d="M 584.8 920 L 584.8 910" />
        <path d="M 601.4 920 L 601.4 910" />
        <path d="M 618 920 L 618 900" />
        <text font-size="30" transform="translate(618, 950)" text-anchor="middle" dominant-baseline="middle" stroke="none" fill="black">30</text>
        <path d="M 634.6 920 L 634.6 910" />
        <path d="M 651.2 920 L 651.2 910" />
        <path d="M 667.8 920 L 667.8 910" />
        <path d="M 684.4 920 L 684.4 910" />
        <path d="M 701 920 L 701 910" />
        <path d="M 717.6 920 L 717.6 910" />
        <path d="M 734.2 920 L 734.2 910" />
        <path d="M 750.8 920 L 750.8 910" />
        <path d="M 767.4 920 L 767.4 910" />
        <path d="M 784 920 L 784 900" />
        <text font-size="30" transform="translate(784, 950)" text-anchor="middle" dominant-baseline="middle" stroke="none" fill="black">40</text>
        <path d="M 800.6 920 L 800.6 910" />
        <path d="M 817.2 920 L 817.2 910" />
        <path d="M 833.8 920 L 833.8 910" />
        <path d="M 850.4 920 L 850.4 910" />
        <path d="M 867 920 L 867 910" />
        <path d="M 883.6 920 L 883.6 910" />
        <path d="M 900.2 920 L 900.2 910" />
        <path d="M 916.8 920 L 916.8 910" />
        <path d="M 933.4 920 L 933.4 910" />
        <path d="M 950 920 L 950 900" />
        <text font-size="30" transform="translate(950, 950)" text-anchor="middle" dominant-baseline="middle" stroke="none" fill="black">50</text>
    </g>
    <g id="frame_0_leftticks">
        <path d="M 120 402.855 L 130 402.855" />
        <path d="M 120 144.282 L 130 144.282" />
        <path d="M 120 629.106 L 130 629.106" />
        <path d="M 120 920 L 140 920" />
        <text font-size="30" transform="translate(110, 930)" text-anchor="end" dominant-baseline="middle" stroke="none" fill="black">0</text>
        <path d="M 120 855.357 L 130 855.357" />
        <path d="M 120 305.89 L 130 305.89" />
        <path d="M 120 564.463 L 130 564.463" />
        <path d="M 120 790.714 L 130 790.714" />
        <path d="M 120 726.071 L 130 726.071" />
        <path d="M 120 499.819 L 130 499.819" />
        <path d="M 120 596.784 L 140 596.784" />
        <text font-size="30" transform="translate(110, 606.784)" text-anchor="end" dominant-baseline="middle" stroke="none" fill="black">1000</text>
        <path d="M 120 208.925 L 130 208.925" />
        <path d="M 120 370.533 L 130 370.533" />
        <path d="M 120 435.176 L 140 435.176" />
        <text font-size="30" transform="translate(110, 445.176)" text-anchor="end" dominant-baseline="middle" stroke="none" fill="black">1500</text>
        <path d="M 120 661.427 L 130 661.427" />
        <path d="M 120 273.568 L 140 273.568" />
        <text font-size="30" transform="translate(110, 283.568)" text-anchor="end" dominant-baseline="middle" stroke="none" fill="black">2000</text>
        <path d="M 120 887.678 L 130 887.678" />
        <path d="M 120 79.6389 L 130 79.6389" />
        <path d="M 120 693.749 L 130 693.749" />
        <path d="M 120 823.035 L 130 823.035" />
        <path d="M 120 532.141 L 130 532.141" />
        <path d="M 120 338.212 L 130 338.212" />
        <path d="M 120 241.247 L 130 241.247" />
        <path d="M 120 467.498 L 130 467.498" />
        <path d="M 120 758.392 L 140 758.392" />
        <text font-size="30" transform="translate(110, 768.392)" text-anchor="end" dominant-baseline="middle" stroke="none" fill="black">500</text>
        <path d="M 120 176.604 L 130 176.604" />
        <path d="M 120 111.96 L 140 111.96" />
        <text font-size="30" transform="translate(110, 121.96)" text-anchor="end" dominant-baseline="middle" stroke="none" fill="black">2500</text>
    </g>
    <text id="frame_0_toplabel" font-size="30" transform="translate(535, 32.6)" text-anchor="middle" dominant-baseline="middle" stroke="none" fill="black">la.add</text>
    <g id="frame_0_topticks">
        <path d="M 120 50 L 120 70" />
        <path d="M 136.6 50 L 136.6 60" />
        <path d="M 153.2 50 L 153.2 60" />
        <path d="M 169.8 50 L 169.8 60" />
        <path d="M 186.4 50 L 186.4 60" />
        <path d="M 203 50 L 203 60" />
        <path d="M 219.6 50 L 219.6 60" />
        <path d="M 236.2 50 L 236.2 60" />
        <path d="M 252.8 50 L 252.8 60" />
        <path d="M 269.4 50 L 269.4 60" />
        <path d="M 286 50 L 286 70" />
        <path d="M 302.6 50 L 302.6 60" />
        <path d="M 319.2 50 L 319.2 60" />
        <path d="M 335.8 50 L 335.8 60" />
        <path d="M 352.4 50 L 352.4 60" />
        <path d="M 369 50 L 369 60" />
        <path d="M 385.6 50 L 385.6 60" />
        <path d="M 402.2 50 L 402.2 60" />
        <path d="M 418.8 50 L 418.8 60" />
        <path d="M 435.4 50 L 435.4 60" />
        <path d="M 452 50 L 452 70" />
        <path d="M 468.6 50 L 468.6 60" />
        <path d="M 485.2 50 L 485.2 60" />
        <path d="M 501.8 50 L 501.8 60" />
        <path d="M 518.4 50 L 518.4 60" />
        <path d="M 535 50 L 535 60" />
        <path d="M 551.6 50 L 551.6 60" />
        <path d="M 568.2 50 L 568.2 60" />
        <path d="M 584.8 50 L 584.8 60" />
        <path d="M 601.4 50 L 601.4 60" />
        <path d="M 618 50 L 618 70" />
        <path d="M 634.6 50 L 634.6 60" />
        <path d="M 651.2 50 L 651.2 60" />
        <path d="M 667.8 50 L 667.8 60" />
        <path d="M 684.4 50 L 684.4 60" />
        <path d="M 701 50 L 701 60" />
        <path d="M 717.6 50 L 717.6 60" />
        <path d="M 734.2 50 L 734.2 60" />
        <path d="M 750.8 50 L 750.8 60" />
        <path d="M 767.4 50 L 767.4 60" />
        <path d="M 784 50 L 784 70" />
        <path d="M 800.6 50 L 800.6 60" />
        <path d="M 817.2 50 L 817.2 60" />
        <path d="M 833.8 50 L 833.8 60" />
        <path d="M 850.4 50 L 850.4 60" />
        <path d="M 867 50 L 867 60" />
        <path d="M 883.6 50 L 883.6 60" />
        <path d="M 900.2 50 L 900.2 60" />
        <path d="M 916.8 50 L 916.8 60" />
        <path d="M 933.4 50 L 933.4 60" />
        <path d="M 950 50 L 950 70" />
    </g>
    <g id="frame_0_rightticks">
        <path d="M 950 402.855 L 940 402.855" />
        <path d="M 950 144.282 L 940 144.282" />
        <path d="M 950 629.106 L 940 629.106" />
        <path d="M 950 920 L 930 920" />
        <path d="M 950 855.357 L 940 855.357" />
        <path d="M 950 305.89 L 940 305.89" />
        <path d="M 950 564.463 L 940 564.463" />
        <path d="M 950 790.714 L 940 790.714" />
        <path d="M 950 726.071 L 940 726.071" />
        <path d="M 950 499.819 L 940 499.819" />
        <path d="M 950 596.784 L 930 596.784" />
        <path d="M 950 208.925 L 940 208.925" />
        <path d="M 950 370.533 L 940 370.533" />
        <path d="M 950 435.176 L 930 435.176" />
        <path d="M 950 661.427 L 940 661.427" />
        <path d="M 950 273.568 L 930 273.568" />
        <path d="M 950 887.678 L 940 887.678" />
        <path d="M 950 79.6389 L 940 79.6389" />
        <path d="M 950 693.749 L 940 693.749" />
        <path d="M 950 823.035 L 940 823.035" />
        <path d="M 950 532.141 L 940 532.141" />
        <path d="M 950 338.212 L 940 338.212" />
        <path d="M 950 241.247 L 940 241.247" />
        <path d="M 950 467.498 L 940 467.498" />
        <path d="M 950 758.392 L 930 758.392" />
        <path d="M 950 176.604 L 940 176.604" />
        <path d="M 950 111.96 L 930 111.96" />
    </g>
</g>
</g>
</svg>
