<?xml version="1.0" standalone="no"?>
<!DOCTYPE svg PUBLIC "-//W3C//DTD SVG 1.1//EN" "http://www.w3.org/Graphics/SVG/1.1/DTD/svg11.dtd">
<svg style="stroke-linejoin:miter; stroke:black; stroke-width:2.5; text-anchor:middle; fill:none" xmlns="http://www.w3.org/2000/svg" font-family="Helvetica, Arial, FreeSans, Sans, sans, sans-serif" width="1000px" height="1000px" version="1.1" xmlns:xlink="http://www.w3.org/1999/xlink" viewBox="0 0 1000 1000">
<defs>
    <clipPath id="Histogram_0_clip">
        <rect x="120" y="50" width="830" height="870" />
    </clipPath>
    <clipPath id="Histogram_1_clip">
        <rect x="120" y="50" width="830" height="870" />
    </clipPath>
</defs>
<g id="whole_document">
<rect id="background" x="0" y="0" width="1000" height="1000" stroke="none" fill="white" />
<g id="Histogram_0" clip-path="url(#Histogram_0_clip)">
    <path d="M 120 920 L 120 129.091 L 161.5 129.091 L 161.5 920 L 203 920 L 203 920 L 244.5 920 L 244.5 603.856 L 286 603.856 L 286 893.222 L 327.5 893.222 L 327.5 920 L 369 920 L 369 920 L 410.5 920 L 410.5 884.025 L 452 884.025 L 452 896.126 L 493.5 896.126 L 493.5 920 L 535 920 L 535 920 L 576.5 920 L 576.5 920 L 618 920 L 618 920 L 659.5 920 L 659.5 920 L 701 920 L 701 920 L 742.5 920 L 742.5 920 L 784 920 L 784 920 L 825.5 920 L 825.5 920 L 867 920 L 867 920 L 908.5 920 L 908.5 920 L 950 920 L 950 920" stroke-width="3" stroke-dasharray="" stroke="black" stroke-opacity="1" fill="DodgerBlue" fill-opacity="1" />
</g>
<g id="Histogram_1" clip-path="url(#Histogram_1_clip)">
    <path d="M 120 920 L 120 920 L 161.5 920 L 161.5 920 L 203 920 L 203 920 L 244.5 920 L 244.5 603.856 L 286 603.856 L 286 893.222 L 327.5 893.222 L 327.5 920 L 369 920 L 369 920 L 410.5 920 L 410.5 920 L 452 920 L 452 920 L 493.5 920 L 493.5 920 L 535 920 L 535 920 L 576.5 920 L 576.5 920 L 618 920 L 618 920 L 659.5 920 L 659.5 920 L 701 920 L 701 920 L 742.5 920 L 742.5 920 L 784 920 L 784 920 L 825.5 920 L 825.5 920 L 867 920 L 867 920 L 908.5 920 L 908.5 920 L 950 920 L 950 920" stroke-width="3" stroke-dasharray="" stroke="black" stroke-opacity="1" fill="darkorange" fill-opacity="1" />
</g>
<g id="frame_0">
    <rect id="frame_0_border" x="120" y="50" width="830" height="870" />
    <text id="frame_0_bottomlabel" font-size="30" transform="translate(535, 989.6)" text-anchor="middle" dominant-baseline="middle" stroke="none" fill="black">microseconds</text>
    <g id="frame_0_bottomticks">
        <path d="M 120 920 L 120 900" />
        <text font-size="30" transform="translate(120, 950)" text-anchor="middle" dominant-baseline="middle" stroke="none" fill="black">0</text>
        <path d="M 136.6 920 L 136.6 910" />
        <path d="M 153.2 920 L 153.2 910" />
        <path d="M 169.8 920 L 169.8 910" />
        <path d="M 186.4 920 L 186.4 910" />
        <path d="M 203 920 L 203 910" />
        <path d="M 219.6 920 L 219.6 910" />
        <path d="M 236.2 920 L 236.2 910" />
        <path d="M 252.8 920 L 252.8 910" />
        <path d="M 269.4 920 L 269.4 910" />
        <path d="M 286 920 L 286 900" />
        <text font-size="30" transform="translate(286, 950)" text-anchor="middle" dominant-baseline="middle" stroke="none" fill="black">10</text>
        <path d="M 302.6 920 L 302.6 910" />
        <path d="M 319.2 920 L 319.2 910" />
        <path d="M 335.8 920 L 335.8 910" />
        <path d="M 352.4 920 L 352.4 910" />
        <path d="M 369 920 L 369 910" />
        <path d="M 385.6 920 L 385.6 910" />
        <path d="M 402.2 920 L 402.2 910" />
        <path d="M 418.8 920 L 418.8 910" />
        <path d="M 435.4 920 L 435.4 910" />
        <path d="M 452 920 L 452 900" />
        <text font-size="30" transform="translate(452, 950)" text-anchor="middle" dominant-baseline="middle" stroke="none" fill="black">20</text>
        <path d="M 468.6 920 L 468.6 910" />
        <path d="M 485.2 920 L 485.2 910" />
        <path d="M 501.8 920 L 501.8 910" />
        <path d="M 518.4 920 L 518.4 910" />
        <path d="M 535 920 L 535 910" />
        <path d="M 551.6 920 L 551.6 910" />
        <path d="M 568.2 920 L 568.2 910" />
        <path d="M 584.8 920 L 584.8 910" />
        <path d="M 601.4 920 L 601.4 910" />
        <path d="M 618 920 L 618 900" />
        <text font-size="30" transform="translate(618, 950)" text-anchor="middle" dominant-baseline="middle" stroke="none" fill="black">30</text>
        <path d="M 634.6 920 L 634.6 910" />
        <path d="M 651.2 920 L 651.2 910" />
        <path d="M 667.8 920 L 667.8 910" />
        <path d="M 684.4 920 L 684.4 910" />
        <path d="M 701 920 L 701 910" />
        <path d="M 717.6 920 L 717.6 910" />
        <path d="M 734.2 920 L 734.2 910" />
        <path d="M 750.8 920 L 750.8 910" />
        <path d="M 767.4 920 L 767.4 910" />
        <path d="M 784 920 L 784 900" />
        <text font-size="30" transform="translate(784, 950)" text-anchor="middle" dominant-baseline="middle" stroke="none" fill="black">40</text>
        <path d="M 800.6 920 L 800.6 910" />
        <path d="M 817.2 920 L 817.2 910" />
        <path d="M 833.8 920 L 833.8 910" />
        <path d="M 850.4 920 L 850.4 910" />
        <path d="M 867 920 L 867 910" />
        <path d="M 883.6 920 L 883.6 910" />
        <path d="M 900.2 920 L 900.2 910" />
        <path d="M 916.8 920 L 916.8 910" />
        <path d="M 933.4 920 L 933.4 910" />
        <path d="M 950 920 L 950 900" />
        <text font-size="30" transform="translate(950, 950)" text-anchor="middle" dominant-baseline="middle" stroke="none" fill="black">50</text>
    </g>
    <g id="frame_0_leftticks">
        <path d="M 120 567.947 L 130 567.947" />
        <path d="M 120 391.92 L 130 391.92" />
        <path d="M 120 325.911 L 130 325.911" />
        <path d="M 120 457.93 L 130 457.93" />
        <path d="M 120 171.887 L 130 171.887" />
        <path d="M 120 347.914 L 130 347.914" />
        <path d="M 120 765.977 L 130 765.977" />
        <path d="M 120 809.983 L 140 809.983" />
        <text font-size="30" transform="translate(110, 819.983)" text-anchor="end" dominant-baseline="middle" stroke="none" fill="black">5000</text>
        <path d="M 120 237.897 L 130 237.897" />
        <path d="M 120 920 L 140 920" />
        <text font-size="30" transform="translate(110, 930)" text-anchor="end" dominant-baseline="middle" stroke="none" fill="black">0</text>
        <path d="M 120 699.967 L 140 699.967" />
        <text font-size="30" transform="translate(110, 709.967)" text-anchor="end" dominant-baseline="middle" stroke="none" fill="black">10000</text>
        <path d="M 120 61.8708 L 130 61.8708" />
        <path d="M 120 831.987 L 130 831.987" />
        <path d="M 120 435.927 L 130 435.927" />
        <path d="M 120 721.97 L 130 721.97" />
        <path d="M 120 589.95 L 140 589.95" />
        <text font-size="30" transform="translate(110, 599.95)" text-anchor="end" dominant-baseline="middle" stroke="none" fill="black">15000</text>
        <path d="M 120 127.881 L 130 127.881" />
        <path d="M 120 611.954 L 130 611.954" />
        <path d="M 120 281.904 L 130 281.904" />
        <path d="M 120 479.934 L 140 479.934" />
        <text font-size="30" transform="translate(110, 489.934)" text-anchor="end" dominant-baseline="middle" stroke="none" fill="black">20000</text>
        <path d="M 120 501.937 L 130 501.937" />
        <path d="M 120 193.891 L 130 193.891" />
        <path d="M 120 743.973 L 130 743.973" />
        <path d="M 120 303.907 L 130 303.907" />
        <path d="M 120 369.917 L 140 369.917" />
        <text font-size="30" transform="translate(110, 379.917)" text-anchor="end" dominant-baseline="middle" stroke="none" fill="black">25000</text>
        <path d="M 120 633.957 L 130 633.957" />
        <path d="M 120 83.8741 L 130 83.8741" />
        <path d="M 120 259.901 L 140 259.901" />
        <text font-size="30" transform="translate(110, 269.901)" text-anchor="end" dominant-baseline="middle" stroke="none" fill="black">30000</text>
        <path d="M 120 523.94 L 130 523.94" />
        <path d="M 120 853.99 L 130 853.99" />
        <path d="M 120 413.924 L 130 413.924" />
        <path d="M 120 149.884 L 140 149.884" />
        <text font-size="30" transform="translate(110, 159.884)" text-anchor="end" dominant-baseline="middle" stroke="none" fill="black">35000</text>
        <path d="M 120 655.96 L 130 655.96" />
        <path d="M 120 875.993 L 130 875.993" />
        <path d="M 120 897.997 L 130 897.997" />
        <path d="M 120 215.894 L 130 215.894" />
        <path d="M 120 787.98 L 130 787.98" />
        <path d="M 120 545.944 L 130 545.944" />
        <path d="M 120 677.964 L 130 677.964" />
        <path d="M 120 105.877 L 130 105.877" />
    </g>
    <text id="frame_0_toplabel" font-size="30" transform="translate(535, 32.6)" text-anchor="middle" dominant-baseline="middle" stroke="none" fill="black">prob.dist.poissonPDF</text>
    <g id="frame_0_topticks">
        <path d="M 120 50 L 120 70" />
        <path d="M 136.6 50 L 136.6 60" />
        <path d="M 153.2 50 L 153.2 60" />
        <path d="M 169.8 50 L 169.8 60" />
        <path d="M 186.4 50 L 186.4 60" />
        <path d="M 203 50 L 203 60" />
        <path d="M 219.6 50 L 219.6 60" />
        <path d="M 236.2 50 L 236.2 60" />
        <path d="M 252.8 50 L 252.8 60" />
        <path d="M 269.4 50 L 269.4 60" />
        <path d="M 286 50 L 286 70" />
        <path d="M 302.6 50 L 302.6 60" />
        <path d="M 319.2 50 L 319.2 60" />
        <path d="M 335.8 50 L 335.8 60" />
        <path d="M 352.4 50 L 352.4 60" />
        <path d="M 369 50 L 369 60" />
        <path d="M 385.6 50 L 385.6 60" />
        <path d="M 402.2 50 L 402.2 60" />
        <path d="M 418.8 50 L 418.8 60" />
        <path d="M 435.4 50 L 435.4 60" />
        <path d="M 452 50 L 452 70" />
        <path d="M 468.6 50 L 468.6 60" />
        <path d="M 485.2 50 L 485.2 60" />
        <path d="M 501.8 50 L 501.8 60" />
        <path d="M 518.4 50 L 518.4 60" />
        <path d="M 535 50 L 535 60" />
        <path d="M 551.6 50 L 551.6 60" />
        <path d="M 568.2 50 L 568.2 60" />
        <path d="M 584.8 50 L 584.8 60" />
        <path d="M 601.4 50 L 601.4 60" />
        <path d="M 618 50 L 618 70" />
        <path d="M 634.6 50 L 634.6 60" />
        <path d="M 651.2 50 L 651.2 60" />
        <path d="M 667.8 50 L 667.8 60" />
        <path d="M 684.4 50 L 684.4 60" />
        <path d="M 701 50 L 701 60" />
        <path d="M 717.6 50 L 717.6 60" />
        <path d="M 734.2 50 L 734.2 60" />
        <path d="M 750.8 50 L 750.8 60" />
        <path d="M 767.4 50 L 767.4 60" />
        <path d="M 784 50 L 784 70" />
        <path d="M 800.6 50 L 800.6 60" />
        <path d="M 817.2 50 L 817.2 60" />
        <path d="M 833.8 50 L 833.8 60" />
        <path d="M 850.4 50 L 850.4 60" />
        <path d="M 867 50 L 867 60" />
        <path d="M 883.6 50 L 883.6 60" />
        <path d="M 900.2 50 L 900.2 60" />
        <path d="M 916.8 50 L 916.8 60" />
        <path d="M 933.4 50 L 933.4 60" />
        <path d="M 950 50 L 950 70" />
    </g>
    <g id="frame_0_rightticks">
        <path d="M 950 567.947 L 940 567.947" />
        <path d="M 950 391.92 L 940 391.92" />
        <path d="M 950 325.911 L 940 325.911" />
        <path d="M 950 457.93 L 940 457.93" />
        <path d="M 950 171.887 L 940 171.887" />
        <path d="M 950 347.914 L 940 347.914" />
        <path d="M 950 765.977 L 940 765.977" />
        <path d="M 950 809.983 L 930 809.983" />
        <path d="M 950 237.897 L 940 237.897" />
        <path d="M 950 920 L 930 920" />
        <path d="M 950 699.967 L 930 699.967" />
        <path d="M 950 61.8708 L 940 61.8708" />
        <path d="M 950 831.987 L 940 831.987" />
        <path d="M 950 435.927 L 940 435.927" />
        <path d="M 950 721.97 L 940 721.97" />
        <path d="M 950 589.95 L 930 589.95" />
        <path d="M 950 127.881 L 940 127.881" />
        <path d="M 950 611.954 L 940 611.954" />
        <path d="M 950 281.904 L 940 281.904" />
        <path d="M 950 479.934 L 930 479.934" />
        <path d="M 950 501.937 L 940 501.937" />
        <path d="M 950 193.891 L 940 193.891" />
        <path d="M 950 743.973 L 940 743.973" />
        <path d="M 950 303.907 L 940 303.907" />
        <path d="M 950 369.917 L 930 369.917" />
        <path d="M 950 633.957 L 940 633.957" />
        <path d="M 950 83.8741 L 940 83.8741" />
        <path d="M 950 259.901 L 930 259.901" />
        <path d="M 950 523.94 L 940 523.94" />
        <path d="M 950 853.99 L 940 853.99" />
        <path d="M 950 413.924 L 940 413.924" />
        <path d="M 950 149.884 L 930 149.884" />
        <path d="M 950 655.96 L 940 655.96" />
        <path d="M 950 875.993 L 940 875.993" />
        <path d="M 950 897.997 L 940 897.997" />
        <path d="M 950 215.894 L 940 215.894" />
        <path d="M 950 787.98 L 940 787.98" />
        <path d="M 950 545.944 L 940 545.944" />
        <path d="M 950 677.964 L 940 677.964" />
        <path d="M 950 105.877 L 940 105.877" />
    </g>
</g>
</g>
</svg>
