<?xml version="1.0" standalone="no"?>
<!DOCTYPE svg PUBLIC "-//W3C//DTD SVG 1.1//EN" "http://www.w3.org/Graphics/SVG/1.1/DTD/svg11.dtd">
<svg style="stroke-linejoin:miter; stroke:black; stroke-width:2.5; text-anchor:middle; fill:none" xmlns="http://www.w3.org/2000/svg" font-family="Helvetica, Arial, FreeSans, Sans, sans, sans-serif" width="1000px" height="1000px" version="1.1" xmlns:xlink="http://www.w3.org/1999/xlink" viewBox="0 0 1000 1000">
<defs>
    <clipPath id="Histogram_0_clip">
        <rect x="120" y="50" width="830" height="870" />
    </clipPath>
    <clipPath id="Histogram_1_clip">
        <rect x="120" y="50" width="830" height="870" />
    </clipPath>
</defs>
<g id="whole_document">
<rect id="background" x="0" y="0" width="1000" height="1000" stroke="none" fill="white" />
<g id="Histogram_0" clip-path="url(#Histogram_0_clip)">
    <path d="M 120 920 L 120 920 L 161.5 920 L 161.5 920 L 203 920 L 203 920 L 244.5 920 L 244.5 129.091 L 286 129.091 L 286 918.715 L 327.5 918.715 L 327.5 917.412 L 369 917.412 L 369 917.106 L 410.5 917.106 L 410.5 854.629 L 452 854.629 L 452 919.296 L 493.5 919.296 L 493.5 918.704 L 535 918.704 L 535 919.632 L 576.5 919.632 L 576.5 920 L 618 920 L 618 920 L 659.5 920 L 659.5 920 L 701 920 L 701 920 L 742.5 920 L 742.5 920 L 784 920 L 784 920 L 825.5 920 L 825.5 920 L 867 920 L 867 920 L 908.5 920 L 908.5 920 L 950 920 L 950 920" stroke-width="3" stroke-dasharray="" stroke="black" stroke-opacity="1" fill="DodgerBlue" fill-opacity="1" />
</g>
<g id="Histogram_1" clip-path="url(#Histogram_1_clip)">
    <path d="M 120 920 L 120 920 L 161.5 920 L 161.5 920 L 203 920 L 203 920 L 244.5 920 L 244.5 129.091 L 286 129.091 L 286 918.715 L 327.5 918.715 L 327.5 917.412 L 369 917.412 L 369 917.106 L 410.5 917.106 L 410.5 920 L 452 920 L 452 920 L 493.5 920 L 493.5 920 L 535 920 L 535 920 L 576.5 920 L 576.5 920 L 618 920 L 618 920 L 659.5 920 L 659.5 920 L 701 920 L 701 920 L 742.5 920 L 742.5 920 L 784 920 L 784 920 L 825.5 920 L 825.5 920 L 867 920 L 867 920 L 908.5 920 L 908.5 920 L 950 920 L 950 920" stroke-width="3" stroke-dasharray="" stroke="black" stroke-opacity="1" fill="darkorange" fill-opacity="1" />
</g>
<g id="frame_0">
    <rect id="frame_0_border" x="120" y="50" width="830" height="870" />
    <text id="frame_0_bottomlabel" font-size="30" transform="translate(535, 989.6)" text-anchor="middle" dominant-baseline="middle" stroke="none" fill="black">microseconds</text>
    <g id="frame_0_bottomticks">
        <path d="M 120 920 L 120 900" />
        <text font-size="30" transform="translate(120, 950)" text-anchor="middle" dominant-baseline="middle" stroke="none" fill="black">0</text>
        <path d="M 136.6 920 L 136.6 910" />
        <path d="M 153.2 920 L 153.2 910" />
        <path d="M 169.8 920 L 169.8 910" />
        <path d="M 186.4 920 L 186.4 910" />
        <path d="M 203 920 L 203 910" />
        <path d="M 219.6 920 L 219.6 910" />
        <path d="M 236.2 920 L 236.2 910" />
        <path d="M 252.8 920 L 252.8 910" />
        <path d="M 269.4 920 L 269.4 910" />
        <path d="M 286 920 L 286 900" />
        <text font-size="30" transform="translate(286, 950)" text-anchor="middle" dominant-baseline="middle" stroke="none" fill="black">10</text>
        <path d="M 302.6 920 L 302.6 910" />
        <path d="M 319.2 920 L 319.2 910" />
        <path d="M 335.8 920 L 335.8 910" />
        <path d="M 352.4 920 L 352.4 910" />
        <path d="M 369 920 L 369 910" />
        <path d="M 385.6 920 L 385.6 910" />
        <path d="M 402.2 920 L 402.2 910" />
        <path d="M 418.8 920 L 418.8 910" />
        <path d="M 435.4 920 L 435.4 910" />
        <path d="M 452 920 L 452 900" />
        <text font-size="30" transform="translate(452, 950)" text-anchor="middle" dominant-baseline="middle" stroke="none" fill="black">20</text>
        <path d="M 468.6 920 L 468.6 910" />
        <path d="M 485.2 920 L 485.2 910" />
        <path d="M 501.8 920 L 501.8 910" />
        <path d="M 518.4 920 L 518.4 910" />
        <path d="M 535 920 L 535 910" />
        <path d="M 551.6 920 L 551.6 910" />
        <path d="M 568.2 920 L 568.2 910" />
        <path d="M 584.8 920 L 584.8 910" />
        <path d="M 601.4 920 L 601.4 910" />
        <path d="M 618 920 L 618 900" />
        <text font-size="30" transform="translate(618, 950)" text-anchor="middle" dominant-baseline="middle" stroke="none" fill="black">30</text>
        <path d="M 634.6 920 L 634.6 910" />
        <path d="M 651.2 920 L 651.2 910" />
        <path d="M 667.8 920 L 667.8 910" />
        <path d="M 684.4 920 L 684.4 910" />
        <path d="M 701 920 L 701 910" />
        <path d="M 717.6 920 L 717.6 910" />
        <path d="M 734.2 920 L 734.2 910" />
        <path d="M 750.8 920 L 750.8 910" />
        <path d="M 767.4 920 L 767.4 910" />
        <path d="M 784 920 L 784 900" />
        <text font-size="30" transform="translate(784, 950)" text-anchor="middle" dominant-baseline="middle" stroke="none" fill="black">40</text>
        <path d="M 800.6 920 L 800.6 910" />
        <path d="M 817.2 920 L 817.2 910" />
        <path d="M 833.8 920 L 833.8 910" />
        <path d="M 850.4 920 L 850.4 910" />
        <path d="M 867 920 L 867 910" />
        <path d="M 883.6 920 L 883.6 910" />
        <path d="M 900.2 920 L 900.2 910" />
        <path d="M 916.8 920 L 916.8 910" />
        <path d="M 933.4 920 L 933.4 910" />
        <path d="M 950 920 L 950 900" />
        <text font-size="30" transform="translate(950, 950)" text-anchor="middle" dominant-baseline="middle" stroke="none" fill="black">50</text>
    </g>
    <g id="frame_0_leftticks">
        <path d="M 120 794.594 L 130 794.594" />
        <path d="M 120 731.891 L 130 731.891" />
        <path d="M 120 512.43 L 130 512.43" />
        <path d="M 120 183.238 L 130 183.238" />
        <path d="M 120 920 L 140 920" />
        <text font-size="30" transform="translate(110, 930)" text-anchor="end" dominant-baseline="middle" stroke="none" fill="black">0</text>
        <path d="M 120 590.809 L 130 590.809" />
        <path d="M 120 261.617 L 130 261.617" />
        <path d="M 120 669.187 L 130 669.187" />
        <path d="M 120 778.918 L 130 778.918" />
        <path d="M 120 418.375 L 130 418.375" />
        <path d="M 120 89.1835 L 130 89.1835" />
        <path d="M 120 496.754 L 130 496.754" />
        <path d="M 120 904.324 L 130 904.324" />
        <path d="M 120 888.648 L 130 888.648" />
        <path d="M 120 747.566 L 130 747.566" />
        <path d="M 120 245.941 L 130 245.941" />
        <path d="M 120 324.32 L 130 324.32" />
        <path d="M 120 73.5077 L 130 73.5077" />
        <path d="M 120 402.699 L 130 402.699" />
        <path d="M 120 872.973 L 130 872.973" />
        <path d="M 120 841.621 L 130 841.621" />
        <path d="M 120 481.078 L 130 481.078" />
        <path d="M 120 151.887 L 130 151.887" />
        <path d="M 120 559.457 L 130 559.457" />
        <path d="M 120 810.27 L 130 810.27" />
        <path d="M 120 230.266 L 130 230.266" />
        <path d="M 120 637.836 L 130 637.836" />
        <path d="M 120 857.297 L 130 857.297" />
        <path d="M 120 575.133 L 130 575.133" />
        <path d="M 120 308.644 L 130 308.644" />
        <path d="M 120 387.023 L 130 387.023" />
        <path d="M 120 57.8319 L 130 57.8319" />
        <path d="M 120 465.402 L 130 465.402" />
        <path d="M 120 136.211 L 140 136.211" />
        <text font-size="30" transform="translate(110, 146.211)" text-anchor="end" dominant-baseline="middle" stroke="none" fill="black">500000</text>
        <path d="M 120 716.215 L 130 716.215" />
        <path d="M 120 543.781 L 130 543.781" />
        <path d="M 120 214.59 L 130 214.59" />
        <path d="M 120 622.16 L 130 622.16" />
        <path d="M 120 292.969 L 140 292.969" />
        <text font-size="30" transform="translate(110, 302.969)" text-anchor="end" dominant-baseline="middle" stroke="none" fill="black">400000</text>
        <path d="M 120 700.539 L 130 700.539" />
        <path d="M 120 371.348 L 130 371.348" />
        <path d="M 120 825.945 L 130 825.945" />
        <path d="M 120 653.512 L 130 653.512" />
        <path d="M 120 449.727 L 140 449.727" />
        <text font-size="30" transform="translate(110, 459.727)" text-anchor="end" dominant-baseline="middle" stroke="none" fill="black">300000</text>
        <path d="M 120 339.996 L 130 339.996" />
        <path d="M 120 528.105 L 130 528.105" />
        <path d="M 120 167.562 L 130 167.562" />
        <path d="M 120 198.914 L 130 198.914" />
        <path d="M 120 684.863 L 130 684.863" />
        <path d="M 120 277.293 L 130 277.293" />
        <path d="M 120 606.484 L 140 606.484" />
        <text font-size="30" transform="translate(110, 616.484)" text-anchor="end" dominant-baseline="middle" stroke="none" fill="black">200000</text>
        <path d="M 120 120.535 L 130 120.535" />
        <path d="M 120 355.672 L 130 355.672" />
        <path d="M 120 763.242 L 140 763.242" />
        <text font-size="30" transform="translate(110, 773.242)" text-anchor="end" dominant-baseline="middle" stroke="none" fill="black">100000</text>
        <path d="M 120 104.859 L 130 104.859" />
        <path d="M 120 434.051 L 130 434.051" />
    </g>
    <text id="frame_0_toplabel" font-size="30" transform="translate(535, 32.6)" text-anchor="middle" dominant-baseline="middle" stroke="none" fill="black">prob.dist.uniformQF</text>
    <g id="frame_0_topticks">
        <path d="M 120 50 L 120 70" />
        <path d="M 136.6 50 L 136.6 60" />
        <path d="M 153.2 50 L 153.2 60" />
        <path d="M 169.8 50 L 169.8 60" />
        <path d="M 186.4 50 L 186.4 60" />
        <path d="M 203 50 L 203 60" />
        <path d="M 219.6 50 L 219.6 60" />
        <path d="M 236.2 50 L 236.2 60" />
        <path d="M 252.8 50 L 252.8 60" />
        <path d="M 269.4 50 L 269.4 60" />
        <path d="M 286 50 L 286 70" />
        <path d="M 302.6 50 L 302.6 60" />
        <path d="M 319.2 50 L 319.2 60" />
        <path d="M 335.8 50 L 335.8 60" />
        <path d="M 352.4 50 L 352.4 60" />
        <path d="M 369 50 L 369 60" />
        <path d="M 385.6 50 L 385.6 60" />
        <path d="M 402.2 50 L 402.2 60" />
        <path d="M 418.8 50 L 418.8 60" />
        <path d="M 435.4 50 L 435.4 60" />
        <path d="M 452 50 L 452 70" />
        <path d="M 468.6 50 L 468.6 60" />
        <path d="M 485.2 50 L 485.2 60" />
        <path d="M 501.8 50 L 501.8 60" />
        <path d="M 518.4 50 L 518.4 60" />
        <path d="M 535 50 L 535 60" />
        <path d="M 551.6 50 L 551.6 60" />
        <path d="M 568.2 50 L 568.2 60" />
        <path d="M 584.8 50 L 584.8 60" />
        <path d="M 601.4 50 L 601.4 60" />
        <path d="M 618 50 L 618 70" />
        <path d="M 634.6 50 L 634.6 60" />
        <path d="M 651.2 50 L 651.2 60" />
        <path d="M 667.8 50 L 667.8 60" />
        <path d="M 684.4 50 L 684.4 60" />
        <path d="M 701 50 L 701 60" />
        <path d="M 717.6 50 L 717.6 60" />
        <path d="M 734.2 50 L 734.2 60" />
        <path d="M 750.8 50 L 750.8 60" />
        <path d="M 767.4 50 L 767.4 60" />
        <path d="M 784 50 L 784 70" />
        <path d="M 800.6 50 L 800.6 60" />
        <path d="M 817.2 50 L 817.2 60" />
        <path d="M 833.8 50 L 833.8 60" />
        <path d="M 850.4 50 L 850.4 60" />
        <path d="M 867 50 L 867 60" />
        <path d="M 883.6 50 L 883.6 60" />
        <path d="M 900.2 50 L 900.2 60" />
        <path d="M 916.8 50 L 916.8 60" />
        <path d="M 933.4 50 L 933.4 60" />
        <path d="M 950 50 L 950 70" />
    </g>
    <g id="frame_0_rightticks">
        <path d="M 950 794.594 L 940 794.594" />
        <path d="M 950 731.891 L 940 731.891" />
        <path d="M 950 512.43 L 940 512.43" />
        <path d="M 950 183.238 L 940 183.238" />
        <path d="M 950 920 L 930 920" />
        <path d="M 950 590.809 L 940 590.809" />
        <path d="M 950 261.617 L 940 261.617" />
        <path d="M 950 669.187 L 940 669.187" />
        <path d="M 950 778.918 L 940 778.918" />
        <path d="M 950 418.375 L 940 418.375" />
        <path d="M 950 89.1835 L 940 89.1835" />
        <path d="M 950 496.754 L 940 496.754" />
        <path d="M 950 904.324 L 940 904.324" />
        <path d="M 950 888.648 L 940 888.648" />
        <path d="M 950 747.566 L 940 747.566" />
        <path d="M 950 245.941 L 940 245.941" />
        <path d="M 950 324.32 L 940 324.32" />
        <path d="M 950 73.5077 L 940 73.5077" />
        <path d="M 950 402.699 L 940 402.699" />
        <path d="M 950 872.973 L 940 872.973" />
        <path d="M 950 841.621 L 940 841.621" />
        <path d="M 950 481.078 L 940 481.078" />
        <path d="M 950 151.887 L 940 151.887" />
        <path d="M 950 559.457 L 940 559.457" />
        <path d="M 950 810.27 L 940 810.27" />
        <path d="M 950 230.266 L 940 230.266" />
        <path d="M 950 637.836 L 940 637.836" />
        <path d="M 950 857.297 L 940 857.297" />
        <path d="M 950 575.133 L 940 575.133" />
        <path d="M 950 308.644 L 940 308.644" />
        <path d="M 950 387.023 L 940 387.023" />
        <path d="M 950 57.8319 L 940 57.8319" />
        <path d="M 950 465.402 L 940 465.402" />
        <path d="M 950 136.211 L 930 136.211" />
        <path d="M 950 716.215 L 940 716.215" />
        <path d="M 950 543.781 L 940 543.781" />
        <path d="M 950 214.59 L 940 214.59" />
        <path d="M 950 622.16 L 940 622.16" />
        <path d="M 950 292.969 L 930 292.969" />
        <path d="M 950 700.539 L 940 700.539" />
        <path d="M 950 371.348 L 940 371.348" />
        <path d="M 950 825.945 L 940 825.945" />
        <path d="M 950 653.512 L 940 653.512" />
        <path d="M 950 449.727 L 930 449.727" />
        <path d="M 950 339.996 L 940 339.996" />
        <path d="M 950 528.105 L 940 528.105" />
        <path d="M 950 167.562 L 940 167.562" />
        <path d="M 950 198.914 L 940 198.914" />
        <path d="M 950 684.863 L 940 684.863" />
        <path d="M 950 277.293 L 940 277.293" />
        <path d="M 950 606.484 L 930 606.484" />
        <path d="M 950 120.535 L 940 120.535" />
        <path d="M 950 355.672 L 940 355.672" />
        <path d="M 950 763.242 L 930 763.242" />
        <path d="M 950 104.859 L 940 104.859" />
        <path d="M 950 434.051 L 940 434.051" />
    </g>
</g>
</g>
</svg>
