<?xml version="1.0" standalone="no"?>
<!DOCTYPE svg PUBLIC "-//W3C//DTD SVG 1.1//EN" "http://www.w3.org/Graphics/SVG/1.1/DTD/svg11.dtd">
<svg style="stroke-linejoin:miter; stroke:black; stroke-width:2.5; text-anchor:middle; fill:none" xmlns="http://www.w3.org/2000/svg" font-family="Helvetica, Arial, FreeSans, Sans, sans, sans-serif" width="1000px" height="1000px" version="1.1" xmlns:xlink="http://www.w3.org/1999/xlink" viewBox="0 0 1000 1000">
<defs>
    <clipPath id="Histogram_0_clip">
        <rect x="120" y="50" width="830" height="870" />
    </clipPath>
    <clipPath id="Histogram_1_clip">
        <rect x="120" y="50" width="830" height="870" />
    </clipPath>
</defs>
<g id="whole_document">
<rect id="background" x="0" y="0" width="1000" height="1000" stroke="none" fill="white" />
<g id="Histogram_0" clip-path="url(#Histogram_0_clip)">
    <path d="M 120 920 L 120 920 L 161.5 920 L 161.5 920 L 203 920 L 203 920 L 244.5 920 L 244.5 129.091 L 286 129.091 L 286 916.696 L 327.5 916.696 L 327.5 919.587 L 369 919.587 L 369 913.651 L 410.5 913.651 L 410.5 773.051 L 452 773.051 L 452 916.535 L 493.5 916.535 L 493.5 918.341 L 535 918.341 L 535 919.922 L 576.5 919.922 L 576.5 920 L 618 920 L 618 920 L 659.5 920 L 659.5 920 L 701 920 L 701 920 L 742.5 920 L 742.5 920 L 784 920 L 784 920 L 825.5 920 L 825.5 920 L 867 920 L 867 920 L 908.5 920 L 908.5 920 L 950 920 L 950 920" stroke-width="3" stroke-dasharray="" stroke="black" stroke-opacity="1" fill="DodgerBlue" fill-opacity="1" />
</g>
<g id="Histogram_1" clip-path="url(#Histogram_1_clip)">
    <path d="M 120 920 L 120 920 L 161.5 920 L 161.5 920 L 203 920 L 203 920 L 244.5 920 L 244.5 129.091 L 286 129.091 L 286 916.696 L 327.5 916.696 L 327.5 919.587 L 369 919.587 L 369 913.651 L 410.5 913.651 L 410.5 919.741 L 452 919.741 L 452 919.769 L 493.5 919.769 L 493.5 919.917 L 535 919.917 L 535 920 L 576.5 920 L 576.5 920 L 618 920 L 618 920 L 659.5 920 L 659.5 920 L 701 920 L 701 920 L 742.5 920 L 742.5 920 L 784 920 L 784 920 L 825.5 920 L 825.5 920 L 867 920 L 867 920 L 908.5 920 L 908.5 920 L 950 920 L 950 920" stroke-width="3" stroke-dasharray="" stroke="black" stroke-opacity="1" fill="darkorange" fill-opacity="1" />
</g>
<g id="frame_0">
    <rect id="frame_0_border" x="120" y="50" width="830" height="870" />
    <text id="frame_0_bottomlabel" font-size="30" transform="translate(535, 989.6)" text-anchor="middle" dominant-baseline="middle" stroke="none" fill="black">microseconds</text>
    <g id="frame_0_bottomticks">
        <path d="M 120 920 L 120 900" />
        <text font-size="30" transform="translate(120, 950)" text-anchor="middle" dominant-baseline="middle" stroke="none" fill="black">0</text>
        <path d="M 136.6 920 L 136.6 910" />
        <path d="M 153.2 920 L 153.2 910" />
        <path d="M 169.8 920 L 169.8 910" />
        <path d="M 186.4 920 L 186.4 910" />
        <path d="M 203 920 L 203 910" />
        <path d="M 219.6 920 L 219.6 910" />
        <path d="M 236.2 920 L 236.2 910" />
        <path d="M 252.8 920 L 252.8 910" />
        <path d="M 269.4 920 L 269.4 910" />
        <path d="M 286 920 L 286 900" />
        <text font-size="30" transform="translate(286, 950)" text-anchor="middle" dominant-baseline="middle" stroke="none" fill="black">10</text>
        <path d="M 302.6 920 L 302.6 910" />
        <path d="M 319.2 920 L 319.2 910" />
        <path d="M 335.8 920 L 335.8 910" />
        <path d="M 352.4 920 L 352.4 910" />
        <path d="M 369 920 L 369 910" />
        <path d="M 385.6 920 L 385.6 910" />
        <path d="M 402.2 920 L 402.2 910" />
        <path d="M 418.8 920 L 418.8 910" />
        <path d="M 435.4 920 L 435.4 910" />
        <path d="M 452 920 L 452 900" />
        <text font-size="30" transform="translate(452, 950)" text-anchor="middle" dominant-baseline="middle" stroke="none" fill="black">20</text>
        <path d="M 468.6 920 L 468.6 910" />
        <path d="M 485.2 920 L 485.2 910" />
        <path d="M 501.8 920 L 501.8 910" />
        <path d="M 518.4 920 L 518.4 910" />
        <path d="M 535 920 L 535 910" />
        <path d="M 551.6 920 L 551.6 910" />
        <path d="M 568.2 920 L 568.2 910" />
        <path d="M 584.8 920 L 584.8 910" />
        <path d="M 601.4 920 L 601.4 910" />
        <path d="M 618 920 L 618 900" />
        <text font-size="30" transform="translate(618, 950)" text-anchor="middle" dominant-baseline="middle" stroke="none" fill="black">30</text>
        <path d="M 634.6 920 L 634.6 910" />
        <path d="M 651.2 920 L 651.2 910" />
        <path d="M 667.8 920 L 667.8 910" />
        <path d="M 684.4 920 L 684.4 910" />
        <path d="M 701 920 L 701 910" />
        <path d="M 717.6 920 L 717.6 910" />
        <path d="M 734.2 920 L 734.2 910" />
        <path d="M 750.8 920 L 750.8 910" />
        <path d="M 767.4 920 L 767.4 910" />
        <path d="M 784 920 L 784 900" />
        <text font-size="30" transform="translate(784, 950)" text-anchor="middle" dominant-baseline="middle" stroke="none" fill="black">40</text>
        <path d="M 800.6 920 L 800.6 910" />
        <path d="M 817.2 920 L 817.2 910" />
        <path d="M 833.8 920 L 833.8 910" />
        <path d="M 850.4 920 L 850.4 910" />
        <path d="M 867 920 L 867 910" />
        <path d="M 883.6 920 L 883.6 910" />
        <path d="M 900.2 920 L 900.2 910" />
        <path d="M 916.8 920 L 916.8 910" />
        <path d="M 933.4 920 L 933.4 910" />
        <path d="M 950 920 L 950 900" />
        <text font-size="30" transform="translate(950, 950)" text-anchor="middle" dominant-baseline="middle" stroke="none" fill="black">50</text>
    </g>
    <g id="frame_0_leftticks">
        <path d="M 120 763.971 L 130 763.971" />
        <path d="M 120 61.8394 L 130 61.8394" />
        <path d="M 120 920 L 140 920" />
        <text font-size="30" transform="translate(110, 930)" text-anchor="end" dominant-baseline="middle" stroke="none" fill="black">0</text>
        <path d="M 120 910.248 L 130 910.248" />
        <path d="M 120 607.942 L 130 607.942" />
        <path d="M 120 198.365 L 130 198.365" />
        <path d="M 120 120.35 L 130 120.35" />
        <path d="M 120 812.73 L 130 812.73" />
        <path d="M 120 500.672 L 130 500.672" />
        <path d="M 120 295.883 L 130 295.883" />
        <path d="M 120 91.0949 L 130 91.0949" />
        <path d="M 120 598.19 L 130 598.19" />
        <path d="M 120 890.745 L 130 890.745" />
        <path d="M 120 188.613 L 130 188.613" />
        <path d="M 120 900.496 L 130 900.496" />
        <path d="M 120 695.708 L 130 695.708" />
        <path d="M 120 559.182 L 130 559.182" />
        <path d="M 120 490.92 L 130 490.92" />
        <path d="M 120 286.131 L 130 286.131" />
        <path d="M 120 100.847 L 130 100.847" />
        <path d="M 120 393.401 L 130 393.401" />
        <path d="M 120 539.679 L 130 539.679" />
        <path d="M 120 793.226 L 130 793.226" />
        <path d="M 120 588.438 L 130 588.438" />
        <path d="M 120 383.65 L 130 383.65" />
        <path d="M 120 178.861 L 130 178.861" />
        <path d="M 120 715.212 L 130 715.212" />
        <path d="M 120 685.956 L 130 685.956" />
        <path d="M 120 481.168 L 130 481.168" />
        <path d="M 120 276.38 L 130 276.38" />
        <path d="M 120 783.474 L 130 783.474" />
        <path d="M 120 578.686 L 130 578.686" />
        <path d="M 120 549.431 L 130 549.431" />
        <path d="M 120 52.0876 L 130 52.0876" />
        <path d="M 120 373.898 L 130 373.898" />
        <path d="M 120 169.109 L 130 169.109" />
        <path d="M 120 880.993 L 130 880.993" />
        <path d="M 120 676.204 L 130 676.204" />
        <path d="M 120 471.416 L 130 471.416" />
        <path d="M 120 266.628 L 130 266.628" />
        <path d="M 120 71.5912 L 130 71.5912" />
        <path d="M 120 724.963 L 140 724.963" />
        <text font-size="30" transform="translate(110, 734.963)" text-anchor="end" dominant-baseline="middle" stroke="none" fill="black">200000</text>
        <path d="M 120 773.723 L 130 773.723" />
        <path d="M 120 568.934 L 130 568.934" />
        <path d="M 120 364.146 L 130 364.146" />
        <path d="M 120 705.46 L 130 705.46" />
        <path d="M 120 841.985 L 130 841.985" />
        <path d="M 120 646.949 L 130 646.949" />
        <path d="M 120 256.876 L 130 256.876" />
        <path d="M 120 81.343 L 130 81.343" />
        <path d="M 120 208.117 L 130 208.117" />
        <path d="M 120 354.394 L 130 354.394" />
        <path d="M 120 149.606 L 130 149.606" />
        <path d="M 120 861.489 L 130 861.489" />
        <path d="M 120 451.912 L 130 451.912" />
        <path d="M 120 666.453 L 130 666.453" />
        <path d="M 120 305.635 L 130 305.635" />
        <path d="M 120 754.219 L 130 754.219" />
        <path d="M 120 344.642 L 130 344.642" />
        <path d="M 120 139.854 L 140 139.854" />
        <text font-size="30" transform="translate(110, 149.854)" text-anchor="end" dominant-baseline="middle" stroke="none" fill="black">800000</text>
        <path d="M 120 656.701 L 130 656.701" />
        <path d="M 120 871.241 L 130 871.241" />
        <path d="M 120 442.161 L 130 442.161" />
        <path d="M 120 237.372 L 140 237.372" />
        <text font-size="30" transform="translate(110, 247.372)" text-anchor="end" dominant-baseline="middle" stroke="none" fill="black">700000</text>
        <path d="M 120 851.737 L 130 851.737" />
        <path d="M 120 744.467 L 130 744.467" />
        <path d="M 120 802.978 L 130 802.978" />
        <path d="M 120 510.423 L 130 510.423" />
        <path d="M 120 247.124 L 130 247.124" />
        <path d="M 120 334.89 L 140 334.89" />
        <text font-size="30" transform="translate(110, 344.89)" text-anchor="end" dominant-baseline="middle" stroke="none" fill="black">600000</text>
        <path d="M 120 130.102 L 130 130.102" />
        <path d="M 120 432.409 L 140 432.409" />
        <text font-size="30" transform="translate(110, 442.409)" text-anchor="end" dominant-baseline="middle" stroke="none" fill="black">500000</text>
        <path d="M 120 637.197 L 130 637.197" />
        <path d="M 120 227.62 L 130 227.62" />
        <path d="M 120 734.715 L 130 734.715" />
        <path d="M 120 529.927 L 140 529.927" />
        <text font-size="30" transform="translate(110, 539.927)" text-anchor="end" dominant-baseline="middle" stroke="none" fill="black">400000</text>
        <path d="M 120 325.139 L 130 325.139" />
        <path d="M 120 159.358 L 130 159.358" />
        <path d="M 120 403.153 L 130 403.153" />
        <path d="M 120 832.234 L 130 832.234" />
        <path d="M 120 627.445 L 140 627.445" />
        <text font-size="30" transform="translate(110, 637.445)" text-anchor="end" dominant-baseline="middle" stroke="none" fill="black">300000</text>
        <path d="M 120 422.657 L 130 422.657" />
        <path d="M 120 217.869 L 130 217.869" />
        <path d="M 120 461.664 L 130 461.664" />
        <path d="M 120 520.175 L 130 520.175" />
        <path d="M 120 315.387 L 130 315.387" />
        <path d="M 120 110.599 L 130 110.599" />
        <path d="M 120 822.482 L 140 822.482" />
        <text font-size="30" transform="translate(110, 832.482)" text-anchor="end" dominant-baseline="middle" stroke="none" fill="black">100000</text>
        <path d="M 120 412.905 L 130 412.905" />
        <path d="M 120 617.693 L 130 617.693" />
    </g>
    <text id="frame_0_toplabel" font-size="30" transform="translate(535, 32.6)" text-anchor="middle" dominant-baseline="middle" stroke="none" fill="black">prob.dist.cauchyCDF</text>
    <g id="frame_0_topticks">
        <path d="M 120 50 L 120 70" />
        <path d="M 136.6 50 L 136.6 60" />
        <path d="M 153.2 50 L 153.2 60" />
        <path d="M 169.8 50 L 169.8 60" />
        <path d="M 186.4 50 L 186.4 60" />
        <path d="M 203 50 L 203 60" />
        <path d="M 219.6 50 L 219.6 60" />
        <path d="M 236.2 50 L 236.2 60" />
        <path d="M 252.8 50 L 252.8 60" />
        <path d="M 269.4 50 L 269.4 60" />
        <path d="M 286 50 L 286 70" />
        <path d="M 302.6 50 L 302.6 60" />
        <path d="M 319.2 50 L 319.2 60" />
        <path d="M 335.8 50 L 335.8 60" />
        <path d="M 352.4 50 L 352.4 60" />
        <path d="M 369 50 L 369 60" />
        <path d="M 385.6 50 L 385.6 60" />
        <path d="M 402.2 50 L 402.2 60" />
        <path d="M 418.8 50 L 418.8 60" />
        <path d="M 435.4 50 L 435.4 60" />
        <path d="M 452 50 L 452 70" />
        <path d="M 468.6 50 L 468.6 60" />
        <path d="M 485.2 50 L 485.2 60" />
        <path d="M 501.8 50 L 501.8 60" />
        <path d="M 518.4 50 L 518.4 60" />
        <path d="M 535 50 L 535 60" />
        <path d="M 551.6 50 L 551.6 60" />
        <path d="M 568.2 50 L 568.2 60" />
        <path d="M 584.8 50 L 584.8 60" />
        <path d="M 601.4 50 L 601.4 60" />
        <path d="M 618 50 L 618 70" />
        <path d="M 634.6 50 L 634.6 60" />
        <path d="M 651.2 50 L 651.2 60" />
        <path d="M 667.8 50 L 667.8 60" />
        <path d="M 684.4 50 L 684.4 60" />
        <path d="M 701 50 L 701 60" />
        <path d="M 717.6 50 L 717.6 60" />
        <path d="M 734.2 50 L 734.2 60" />
        <path d="M 750.8 50 L 750.8 60" />
        <path d="M 767.4 50 L 767.4 60" />
        <path d="M 784 50 L 784 70" />
        <path d="M 800.6 50 L 800.6 60" />
        <path d="M 817.2 50 L 817.2 60" />
        <path d="M 833.8 50 L 833.8 60" />
        <path d="M 850.4 50 L 850.4 60" />
        <path d="M 867 50 L 867 60" />
        <path d="M 883.6 50 L 883.6 60" />
        <path d="M 900.2 50 L 900.2 60" />
        <path d="M 916.8 50 L 916.8 60" />
        <path d="M 933.4 50 L 933.4 60" />
        <path d="M 950 50 L 950 70" />
    </g>
    <g id="frame_0_rightticks">
        <path d="M 950 763.971 L 940 763.971" />
        <path d="M 950 61.8394 L 940 61.8394" />
        <path d="M 950 920 L 930 920" />
        <path d="M 950 910.248 L 940 910.248" />
        <path d="M 950 607.942 L 940 607.942" />
        <path d="M 950 198.365 L 940 198.365" />
        <path d="M 950 120.35 L 940 120.35" />
        <path d="M 950 812.73 L 940 812.73" />
        <path d="M 950 500.672 L 940 500.672" />
        <path d="M 950 295.883 L 940 295.883" />
        <path d="M 950 91.0949 L 940 91.0949" />
        <path d="M 950 598.19 L 940 598.19" />
        <path d="M 950 890.745 L 940 890.745" />
        <path d="M 950 188.613 L 940 188.613" />
        <path d="M 950 900.496 L 940 900.496" />
        <path d="M 950 695.708 L 940 695.708" />
        <path d="M 950 559.182 L 940 559.182" />
        <path d="M 950 490.92 L 940 490.92" />
        <path d="M 950 286.131 L 940 286.131" />
        <path d="M 950 100.847 L 940 100.847" />
        <path d="M 950 393.401 L 940 393.401" />
        <path d="M 950 539.679 L 940 539.679" />
        <path d="M 950 793.226 L 940 793.226" />
        <path d="M 950 588.438 L 940 588.438" />
        <path d="M 950 383.65 L 940 383.65" />
        <path d="M 950 178.861 L 940 178.861" />
        <path d="M 950 715.212 L 940 715.212" />
        <path d="M 950 685.956 L 940 685.956" />
        <path d="M 950 481.168 L 940 481.168" />
        <path d="M 950 276.38 L 940 276.38" />
        <path d="M 950 783.474 L 940 783.474" />
        <path d="M 950 578.686 L 940 578.686" />
        <path d="M 950 549.431 L 940 549.431" />
        <path d="M 950 52.0876 L 940 52.0876" />
        <path d="M 950 373.898 L 940 373.898" />
        <path d="M 950 169.109 L 940 169.109" />
        <path d="M 950 880.993 L 940 880.993" />
        <path d="M 950 676.204 L 940 676.204" />
        <path d="M 950 471.416 L 940 471.416" />
        <path d="M 950 266.628 L 940 266.628" />
        <path d="M 950 71.5912 L 940 71.5912" />
        <path d="M 950 724.963 L 930 724.963" />
        <path d="M 950 773.723 L 940 773.723" />
        <path d="M 950 568.934 L 940 568.934" />
        <path d="M 950 364.146 L 940 364.146" />
        <path d="M 950 705.46 L 940 705.46" />
        <path d="M 950 841.985 L 940 841.985" />
        <path d="M 950 646.949 L 940 646.949" />
        <path d="M 950 256.876 L 940 256.876" />
        <path d="M 950 81.343 L 940 81.343" />
        <path d="M 950 208.117 L 940 208.117" />
        <path d="M 950 354.394 L 940 354.394" />
        <path d="M 950 149.606 L 940 149.606" />
        <path d="M 950 861.489 L 940 861.489" />
        <path d="M 950 451.912 L 940 451.912" />
        <path d="M 950 666.453 L 940 666.453" />
        <path d="M 950 305.635 L 940 305.635" />
        <path d="M 950 754.219 L 940 754.219" />
        <path d="M 950 344.642 L 940 344.642" />
        <path d="M 950 139.854 L 930 139.854" />
        <path d="M 950 656.701 L 940 656.701" />
        <path d="M 950 871.241 L 940 871.241" />
        <path d="M 950 442.161 L 940 442.161" />
        <path d="M 950 237.372 L 930 237.372" />
        <path d="M 950 851.737 L 940 851.737" />
        <path d="M 950 744.467 L 940 744.467" />
        <path d="M 950 802.978 L 940 802.978" />
        <path d="M 950 510.423 L 940 510.423" />
        <path d="M 950 247.124 L 940 247.124" />
        <path d="M 950 334.89 L 930 334.89" />
        <path d="M 950 130.102 L 940 130.102" />
        <path d="M 950 432.409 L 930 432.409" />
        <path d="M 950 637.197 L 940 637.197" />
        <path d="M 950 227.62 L 940 227.62" />
        <path d="M 950 734.715 L 940 734.715" />
        <path d="M 950 529.927 L 930 529.927" />
        <path d="M 950 325.139 L 940 325.139" />
        <path d="M 950 159.358 L 940 159.358" />
        <path d="M 950 403.153 L 940 403.153" />
        <path d="M 950 832.234 L 940 832.234" />
        <path d="M 950 627.445 L 930 627.445" />
        <path d="M 950 422.657 L 940 422.657" />
        <path d="M 950 217.869 L 940 217.869" />
        <path d="M 950 461.664 L 940 461.664" />
        <path d="M 950 520.175 L 940 520.175" />
        <path d="M 950 315.387 L 940 315.387" />
        <path d="M 950 110.599 L 940 110.599" />
        <path d="M 950 822.482 L 930 822.482" />
        <path d="M 950 412.905 L 940 412.905" />
        <path d="M 950 617.693 L 940 617.693" />
    </g>
</g>
</g>
</svg>
