<?xml version="1.0" standalone="no"?>
<!DOCTYPE svg PUBLIC "-//W3C//DTD SVG 1.1//EN" "http://www.w3.org/Graphics/SVG/1.1/DTD/svg11.dtd">
<svg style="stroke-linejoin:miter; stroke:black; stroke-width:2.5; text-anchor:middle; fill:none" xmlns="http://www.w3.org/2000/svg" font-family="Helvetica, Arial, FreeSans, Sans, sans, sans-serif" width="1000px" height="1000px" version="1.1" xmlns:xlink="http://www.w3.org/1999/xlink" viewBox="0 0 1000 1000">
<defs>
    <clipPath id="Histogram_0_clip">
        <rect x="120" y="50" width="830" height="870" />
    </clipPath>
    <clipPath id="Histogram_1_clip">
        <rect x="120" y="50" width="830" height="870" />
    </clipPath>
</defs>
<g id="whole_document">
<rect id="background" x="0" y="0" width="1000" height="1000" stroke="none" fill="white" />
<g id="Histogram_0" clip-path="url(#Histogram_0_clip)">
    <path d="M 120 920 L 120 129.091 L 161.5 129.091 L 161.5 920 L 203 920 L 203 920 L 244.5 920 L 244.5 610.349 L 286 610.349 L 286 919.276 L 327.5 919.276 L 327.5 918.883 L 369 918.883 L 369 919.634 L 410.5 919.634 L 410.5 920 L 452 920 L 452 919.977 L 493.5 919.977 L 493.5 920 L 535 920 L 535 919.995 L 576.5 919.995 L 576.5 920 L 618 920 L 618 920 L 659.5 920 L 659.5 920 L 701 920 L 701 920 L 742.5 920 L 742.5 920 L 784 920 L 784 920 L 825.5 920 L 825.5 920 L 867 920 L 867 920 L 908.5 920 L 908.5 920 L 950 920 L 950 920" stroke-width="3" stroke-dasharray="" stroke="black" stroke-opacity="1" fill="DodgerBlue" fill-opacity="1" />
</g>
<g id="Histogram_1" clip-path="url(#Histogram_1_clip)">
    <path d="M 120 920 L 120 920 L 161.5 920 L 161.5 920 L 203 920 L 203 920 L 244.5 920 L 244.5 610.349 L 286 610.349 L 286 919.276 L 327.5 919.276 L 327.5 918.883 L 369 918.883 L 369 919.634 L 410.5 919.634 L 410.5 920 L 452 920 L 452 919.977 L 493.5 919.977 L 493.5 920 L 535 920 L 535 919.995 L 576.5 919.995 L 576.5 920 L 618 920 L 618 920 L 659.5 920 L 659.5 920 L 701 920 L 701 920 L 742.5 920 L 742.5 920 L 784 920 L 784 920 L 825.5 920 L 825.5 920 L 867 920 L 867 920 L 908.5 920 L 908.5 920 L 950 920 L 950 920" stroke-width="3" stroke-dasharray="" stroke="black" stroke-opacity="1" fill="darkorange" fill-opacity="1" />
</g>
<g id="frame_0">
    <rect id="frame_0_border" x="120" y="50" width="830" height="870" />
    <text id="frame_0_bottomlabel" font-size="30" transform="translate(535, 989.6)" text-anchor="middle" dominant-baseline="middle" stroke="none" fill="black">microseconds</text>
    <g id="frame_0_bottomticks">
        <path d="M 120 920 L 120 900" />
        <text font-size="30" transform="translate(120, 950)" text-anchor="middle" dominant-baseline="middle" stroke="none" fill="black">0</text>
        <path d="M 136.6 920 L 136.6 910" />
        <path d="M 153.2 920 L 153.2 910" />
        <path d="M 169.8 920 L 169.8 910" />
        <path d="M 186.4 920 L 186.4 910" />
        <path d="M 203 920 L 203 910" />
        <path d="M 219.6 920 L 219.6 910" />
        <path d="M 236.2 920 L 236.2 910" />
        <path d="M 252.8 920 L 252.8 910" />
        <path d="M 269.4 920 L 269.4 910" />
        <path d="M 286 920 L 286 900" />
        <text font-size="30" transform="translate(286, 950)" text-anchor="middle" dominant-baseline="middle" stroke="none" fill="black">10</text>
        <path d="M 302.6 920 L 302.6 910" />
        <path d="M 319.2 920 L 319.2 910" />
        <path d="M 335.8 920 L 335.8 910" />
        <path d="M 352.4 920 L 352.4 910" />
        <path d="M 369 920 L 369 910" />
        <path d="M 385.6 920 L 385.6 910" />
        <path d="M 402.2 920 L 402.2 910" />
        <path d="M 418.8 920 L 418.8 910" />
        <path d="M 435.4 920 L 435.4 910" />
        <path d="M 452 920 L 452 900" />
        <text font-size="30" transform="translate(452, 950)" text-anchor="middle" dominant-baseline="middle" stroke="none" fill="black">20</text>
        <path d="M 468.6 920 L 468.6 910" />
        <path d="M 485.2 920 L 485.2 910" />
        <path d="M 501.8 920 L 501.8 910" />
        <path d="M 518.4 920 L 518.4 910" />
        <path d="M 535 920 L 535 910" />
        <path d="M 551.6 920 L 551.6 910" />
        <path d="M 568.2 920 L 568.2 910" />
        <path d="M 584.8 920 L 584.8 910" />
        <path d="M 601.4 920 L 601.4 910" />
        <path d="M 618 920 L 618 900" />
        <text font-size="30" transform="translate(618, 950)" text-anchor="middle" dominant-baseline="middle" stroke="none" fill="black">30</text>
        <path d="M 634.6 920 L 634.6 910" />
        <path d="M 651.2 920 L 651.2 910" />
        <path d="M 667.8 920 L 667.8 910" />
        <path d="M 684.4 920 L 684.4 910" />
        <path d="M 701 920 L 701 910" />
        <path d="M 717.6 920 L 717.6 910" />
        <path d="M 734.2 920 L 734.2 910" />
        <path d="M 750.8 920 L 750.8 910" />
        <path d="M 767.4 920 L 767.4 910" />
        <path d="M 784 920 L 784 900" />
        <text font-size="30" transform="translate(784, 950)" text-anchor="middle" dominant-baseline="middle" stroke="none" fill="black">40</text>
        <path d="M 800.6 920 L 800.6 910" />
        <path d="M 817.2 920 L 817.2 910" />
        <path d="M 833.8 920 L 833.8 910" />
        <path d="M 850.4 920 L 850.4 910" />
        <path d="M 867 920 L 867 910" />
        <path d="M 883.6 920 L 883.6 910" />
        <path d="M 900.2 920 L 900.2 910" />
        <path d="M 916.8 920 L 916.8 910" />
        <path d="M 933.4 920 L 933.4 910" />
        <path d="M 950 920 L 950 900" />
        <text font-size="30" transform="translate(950, 950)" text-anchor="middle" dominant-baseline="middle" stroke="none" fill="black">50</text>
    </g>
    <g id="frame_0_leftticks">
        <path d="M 120 772.09 L 130 772.09" />
        <path d="M 120 846.045 L 130 846.045" />
        <path d="M 120 57.1904 L 140 57.1904" />
        <text font-size="30" transform="translate(110, 67.1904)" text-anchor="end" dominant-baseline="middle" stroke="none" fill="black">7×10⁶</text>
        <path d="M 120 488.595 L 130 488.595" />
        <path d="M 120 920 L 140 920" />
        <text font-size="30" transform="translate(110, 930)" text-anchor="end" dominant-baseline="middle" stroke="none" fill="black">0</text>
        <path d="M 120 205.101 L 130 205.101" />
        <path d="M 120 636.505 L 130 636.505" />
        <path d="M 120 353.011 L 130 353.011" />
        <path d="M 120 784.416 L 130 784.416" />
        <path d="M 120 69.5162 L 130 69.5162" />
        <path d="M 120 500.921 L 130 500.921" />
        <path d="M 120 217.426 L 130 217.426" />
        <path d="M 120 648.831 L 130 648.831" />
        <path d="M 120 365.337 L 130 365.337" />
        <path d="M 120 796.741 L 140 796.741" />
        <text font-size="30" transform="translate(110, 806.741)" text-anchor="end" dominant-baseline="middle" stroke="none" fill="black">10⁶</text>
        <path d="M 120 81.8421 L 130 81.8421" />
        <path d="M 120 513.247 L 130 513.247" />
        <path d="M 120 698.135 L 130 698.135" />
        <path d="M 120 661.157 L 130 661.157" />
        <path d="M 120 907.674 L 130 907.674" />
        <path d="M 120 377.663 L 130 377.663" />
        <path d="M 120 94.168 L 130 94.168" />
        <path d="M 120 525.573 L 130 525.573" />
        <path d="M 120 242.078 L 130 242.078" />
        <path d="M 120 673.483 L 140 673.483" />
        <text font-size="30" transform="translate(110, 683.483)" text-anchor="end" dominant-baseline="middle" stroke="none" fill="black">2×10⁶</text>
        <path d="M 120 389.988 L 130 389.988" />
        <path d="M 120 821.393 L 130 821.393" />
        <path d="M 120 106.494 L 130 106.494" />
        <path d="M 120 537.899 L 130 537.899" />
        <path d="M 120 254.404 L 130 254.404" />
        <path d="M 120 685.809 L 130 685.809" />
        <path d="M 120 402.314 L 130 402.314" />
        <path d="M 120 833.719 L 130 833.719" />
        <path d="M 120 118.82 L 130 118.82" />
        <path d="M 120 550.224 L 140 550.224" />
        <text font-size="30" transform="translate(110, 560.224)" text-anchor="end" dominant-baseline="middle" stroke="none" fill="black">3×10⁶</text>
        <path d="M 120 266.73 L 130 266.73" />
        <path d="M 120 895.348 L 130 895.348" />
        <path d="M 120 809.067 L 130 809.067" />
        <path d="M 120 414.64 L 130 414.64" />
        <path d="M 120 131.146 L 130 131.146" />
        <path d="M 120 562.55 L 130 562.55" />
        <path d="M 120 279.056 L 130 279.056" />
        <path d="M 120 710.461 L 130 710.461" />
        <path d="M 120 426.966 L 140 426.966" />
        <text font-size="30" transform="translate(110, 436.966)" text-anchor="end" dominant-baseline="middle" stroke="none" fill="black">4×10⁶</text>
        <path d="M 120 858.371 L 130 858.371" />
        <path d="M 120 340.685 L 130 340.685" />
        <path d="M 120 574.876 L 130 574.876" />
        <path d="M 120 291.382 L 130 291.382" />
        <path d="M 120 722.786 L 130 722.786" />
        <path d="M 120 143.471 L 130 143.471" />
        <path d="M 120 303.707 L 140 303.707" />
        <text font-size="30" transform="translate(110, 313.707)" text-anchor="end" dominant-baseline="middle" stroke="none" fill="black">5×10⁶</text>
        <path d="M 120 439.292 L 130 439.292" />
        <path d="M 120 870.697 L 130 870.697" />
        <path d="M 120 155.797 L 130 155.797" />
        <path d="M 120 587.202 L 130 587.202" />
        <path d="M 120 883.022 L 130 883.022" />
        <path d="M 120 735.112 L 130 735.112" />
        <path d="M 120 451.618 L 130 451.618" />
        <path d="M 120 168.123 L 130 168.123" />
        <path d="M 120 599.528 L 130 599.528" />
        <path d="M 120 229.752 L 130 229.752" />
        <path d="M 120 316.033 L 130 316.033" />
        <path d="M 120 747.438 L 130 747.438" />
        <path d="M 120 463.943 L 130 463.943" />
        <path d="M 120 180.449 L 140 180.449" />
        <text font-size="30" transform="translate(110, 190.449)" text-anchor="end" dominant-baseline="middle" stroke="none" fill="black">6×10⁶</text>
        <path d="M 120 611.854 L 130 611.854" />
        <path d="M 120 328.359 L 130 328.359" />
        <path d="M 120 759.764 L 130 759.764" />
        <path d="M 120 476.269 L 130 476.269" />
        <path d="M 120 192.775 L 130 192.775" />
        <path d="M 120 624.18 L 130 624.18" />
    </g>
    <text id="frame_0_toplabel" font-size="30" transform="translate(535, 32.6)" text-anchor="middle" dominant-baseline="middle" stroke="none" fill="black">prob.dist.gaussianLL</text>
    <g id="frame_0_topticks">
        <path d="M 120 50 L 120 70" />
        <path d="M 136.6 50 L 136.6 60" />
        <path d="M 153.2 50 L 153.2 60" />
        <path d="M 169.8 50 L 169.8 60" />
        <path d="M 186.4 50 L 186.4 60" />
        <path d="M 203 50 L 203 60" />
        <path d="M 219.6 50 L 219.6 60" />
        <path d="M 236.2 50 L 236.2 60" />
        <path d="M 252.8 50 L 252.8 60" />
        <path d="M 269.4 50 L 269.4 60" />
        <path d="M 286 50 L 286 70" />
        <path d="M 302.6 50 L 302.6 60" />
        <path d="M 319.2 50 L 319.2 60" />
        <path d="M 335.8 50 L 335.8 60" />
        <path d="M 352.4 50 L 352.4 60" />
        <path d="M 369 50 L 369 60" />
        <path d="M 385.6 50 L 385.6 60" />
        <path d="M 402.2 50 L 402.2 60" />
        <path d="M 418.8 50 L 418.8 60" />
        <path d="M 435.4 50 L 435.4 60" />
        <path d="M 452 50 L 452 70" />
        <path d="M 468.6 50 L 468.6 60" />
        <path d="M 485.2 50 L 485.2 60" />
        <path d="M 501.8 50 L 501.8 60" />
        <path d="M 518.4 50 L 518.4 60" />
        <path d="M 535 50 L 535 60" />
        <path d="M 551.6 50 L 551.6 60" />
        <path d="M 568.2 50 L 568.2 60" />
        <path d="M 584.8 50 L 584.8 60" />
        <path d="M 601.4 50 L 601.4 60" />
        <path d="M 618 50 L 618 70" />
        <path d="M 634.6 50 L 634.6 60" />
        <path d="M 651.2 50 L 651.2 60" />
        <path d="M 667.8 50 L 667.8 60" />
        <path d="M 684.4 50 L 684.4 60" />
        <path d="M 701 50 L 701 60" />
        <path d="M 717.6 50 L 717.6 60" />
        <path d="M 734.2 50 L 734.2 60" />
        <path d="M 750.8 50 L 750.8 60" />
        <path d="M 767.4 50 L 767.4 60" />
        <path d="M 784 50 L 784 70" />
        <path d="M 800.6 50 L 800.6 60" />
        <path d="M 817.2 50 L 817.2 60" />
        <path d="M 833.8 50 L 833.8 60" />
        <path d="M 850.4 50 L 850.4 60" />
        <path d="M 867 50 L 867 60" />
        <path d="M 883.6 50 L 883.6 60" />
        <path d="M 900.2 50 L 900.2 60" />
        <path d="M 916.8 50 L 916.8 60" />
        <path d="M 933.4 50 L 933.4 60" />
        <path d="M 950 50 L 950 70" />
    </g>
    <g id="frame_0_rightticks">
        <path d="M 950 772.09 L 940 772.09" />
        <path d="M 950 846.045 L 940 846.045" />
        <path d="M 950 57.1904 L 930 57.1904" />
        <path d="M 950 488.595 L 940 488.595" />
        <path d="M 950 920 L 930 920" />
        <path d="M 950 205.101 L 940 205.101" />
        <path d="M 950 636.505 L 940 636.505" />
        <path d="M 950 353.011 L 940 353.011" />
        <path d="M 950 784.416 L 940 784.416" />
        <path d="M 950 69.5162 L 940 69.5162" />
        <path d="M 950 500.921 L 940 500.921" />
        <path d="M 950 217.426 L 940 217.426" />
        <path d="M 950 648.831 L 940 648.831" />
        <path d="M 950 365.337 L 940 365.337" />
        <path d="M 950 796.741 L 930 796.741" />
        <path d="M 950 81.8421 L 940 81.8421" />
        <path d="M 950 513.247 L 940 513.247" />
        <path d="M 950 698.135 L 940 698.135" />
        <path d="M 950 661.157 L 940 661.157" />
        <path d="M 950 907.674 L 940 907.674" />
        <path d="M 950 377.663 L 940 377.663" />
        <path d="M 950 94.168 L 940 94.168" />
        <path d="M 950 525.573 L 940 525.573" />
        <path d="M 950 242.078 L 940 242.078" />
        <path d="M 950 673.483 L 930 673.483" />
        <path d="M 950 389.988 L 940 389.988" />
        <path d="M 950 821.393 L 940 821.393" />
        <path d="M 950 106.494 L 940 106.494" />
        <path d="M 950 537.899 L 940 537.899" />
        <path d="M 950 254.404 L 940 254.404" />
        <path d="M 950 685.809 L 940 685.809" />
        <path d="M 950 402.314 L 940 402.314" />
        <path d="M 950 833.719 L 940 833.719" />
        <path d="M 950 118.82 L 940 118.82" />
        <path d="M 950 550.224 L 930 550.224" />
        <path d="M 950 266.73 L 940 266.73" />
        <path d="M 950 895.348 L 940 895.348" />
        <path d="M 950 809.067 L 940 809.067" />
        <path d="M 950 414.64 L 940 414.64" />
        <path d="M 950 131.146 L 940 131.146" />
        <path d="M 950 562.55 L 940 562.55" />
        <path d="M 950 279.056 L 940 279.056" />
        <path d="M 950 710.461 L 940 710.461" />
        <path d="M 950 426.966 L 930 426.966" />
        <path d="M 950 858.371 L 940 858.371" />
        <path d="M 950 340.685 L 940 340.685" />
        <path d="M 950 574.876 L 940 574.876" />
        <path d="M 950 291.382 L 940 291.382" />
        <path d="M 950 722.786 L 940 722.786" />
        <path d="M 950 143.471 L 940 143.471" />
        <path d="M 950 303.707 L 930 303.707" />
        <path d="M 950 439.292 L 940 439.292" />
        <path d="M 950 870.697 L 940 870.697" />
        <path d="M 950 155.797 L 940 155.797" />
        <path d="M 950 587.202 L 940 587.202" />
        <path d="M 950 883.022 L 940 883.022" />
        <path d="M 950 735.112 L 940 735.112" />
        <path d="M 950 451.618 L 940 451.618" />
        <path d="M 950 168.123 L 940 168.123" />
        <path d="M 950 599.528 L 940 599.528" />
        <path d="M 950 229.752 L 940 229.752" />
        <path d="M 950 316.033 L 940 316.033" />
        <path d="M 950 747.438 L 940 747.438" />
        <path d="M 950 463.943 L 940 463.943" />
        <path d="M 950 180.449 L 930 180.449" />
        <path d="M 950 611.854 L 940 611.854" />
        <path d="M 950 328.359 L 940 328.359" />
        <path d="M 950 759.764 L 940 759.764" />
        <path d="M 950 476.269 L 940 476.269" />
        <path d="M 950 192.775 L 940 192.775" />
        <path d="M 950 624.18 L 940 624.18" />
    </g>
</g>
</g>
</svg>
