<?xml version="1.0" standalone="no"?>
<!DOCTYPE svg PUBLIC "-//W3C//DTD SVG 1.1//EN" "http://www.w3.org/Graphics/SVG/1.1/DTD/svg11.dtd">
<svg style="stroke-linejoin:miter; stroke:black; stroke-width:2.5; text-anchor:middle; fill:none" xmlns="http://www.w3.org/2000/svg" font-family="Helvetica, Arial, FreeSans, Sans, sans, sans-serif" width="1000px" height="1000px" version="1.1" xmlns:xlink="http://www.w3.org/1999/xlink" viewBox="0 0 1000 1000">
<defs>
    <clipPath id="Histogram_0_clip">
        <rect x="120" y="50" width="830" height="870" />
    </clipPath>
</defs>
<g id="whole_document">
<rect id="background" x="0" y="0" width="1000" height="1000" stroke="none" fill="white" />
<g id="Histogram_0" clip-path="url(#Histogram_0_clip)">
    <path d="M 120 920 L 120 129.091 L 161.5 129.091 L 161.5 920 L 203 920 L 203 920 L 244.5 920 L 244.5 920 L 286 920 L 286 920 L 327.5 920 L 327.5 920 L 369 920 L 369 920 L 410.5 920 L 410.5 920 L 452 920 L 452 920 L 493.5 920 L 493.5 920 L 535 920 L 535 920 L 576.5 920 L 576.5 920 L 618 920 L 618 920 L 659.5 920 L 659.5 920 L 701 920 L 701 920 L 742.5 920 L 742.5 920 L 784 920 L 784 920 L 825.5 920 L 825.5 920 L 867 920 L 867 920 L 908.5 920 L 908.5 920 L 950 920 L 950 920" stroke-width="3" stroke-dasharray="" stroke="black" stroke-opacity="1" fill="DodgerBlue" fill-opacity="1" />
</g>
<g id="frame_0">
    <rect id="frame_0_border" x="120" y="50" width="830" height="870" />
    <text id="frame_0_bottomlabel" font-size="30" transform="translate(535, 989.6)" text-anchor="middle" dominant-baseline="middle" stroke="none" fill="black">microseconds</text>
    <g id="frame_0_bottomticks">
        <path d="M 120 920 L 120 900" />
        <text font-size="30" transform="translate(120, 950)" text-anchor="middle" dominant-baseline="middle" stroke="none" fill="black">0</text>
        <path d="M 136.6 920 L 136.6 910" />
        <path d="M 153.2 920 L 153.2 910" />
        <path d="M 169.8 920 L 169.8 910" />
        <path d="M 186.4 920 L 186.4 910" />
        <path d="M 203 920 L 203 910" />
        <path d="M 219.6 920 L 219.6 910" />
        <path d="M 236.2 920 L 236.2 910" />
        <path d="M 252.8 920 L 252.8 910" />
        <path d="M 269.4 920 L 269.4 910" />
        <path d="M 286 920 L 286 900" />
        <text font-size="30" transform="translate(286, 950)" text-anchor="middle" dominant-baseline="middle" stroke="none" fill="black">10</text>
        <path d="M 302.6 920 L 302.6 910" />
        <path d="M 319.2 920 L 319.2 910" />
        <path d="M 335.8 920 L 335.8 910" />
        <path d="M 352.4 920 L 352.4 910" />
        <path d="M 369 920 L 369 910" />
        <path d="M 385.6 920 L 385.6 910" />
        <path d="M 402.2 920 L 402.2 910" />
        <path d="M 418.8 920 L 418.8 910" />
        <path d="M 435.4 920 L 435.4 910" />
        <path d="M 452 920 L 452 900" />
        <text font-size="30" transform="translate(452, 950)" text-anchor="middle" dominant-baseline="middle" stroke="none" fill="black">20</text>
        <path d="M 468.6 920 L 468.6 910" />
        <path d="M 485.2 920 L 485.2 910" />
        <path d="M 501.8 920 L 501.8 910" />
        <path d="M 518.4 920 L 518.4 910" />
        <path d="M 535 920 L 535 910" />
        <path d="M 551.6 920 L 551.6 910" />
        <path d="M 568.2 920 L 568.2 910" />
        <path d="M 584.8 920 L 584.8 910" />
        <path d="M 601.4 920 L 601.4 910" />
        <path d="M 618 920 L 618 900" />
        <text font-size="30" transform="translate(618, 950)" text-anchor="middle" dominant-baseline="middle" stroke="none" fill="black">30</text>
        <path d="M 634.6 920 L 634.6 910" />
        <path d="M 651.2 920 L 651.2 910" />
        <path d="M 667.8 920 L 667.8 910" />
        <path d="M 684.4 920 L 684.4 910" />
        <path d="M 701 920 L 701 910" />
        <path d="M 717.6 920 L 717.6 910" />
        <path d="M 734.2 920 L 734.2 910" />
        <path d="M 750.8 920 L 750.8 910" />
        <path d="M 767.4 920 L 767.4 910" />
        <path d="M 784 920 L 784 900" />
        <text font-size="30" transform="translate(784, 950)" text-anchor="middle" dominant-baseline="middle" stroke="none" fill="black">40</text>
        <path d="M 800.6 920 L 800.6 910" />
        <path d="M 817.2 920 L 817.2 910" />
        <path d="M 833.8 920 L 833.8 910" />
        <path d="M 850.4 920 L 850.4 910" />
        <path d="M 867 920 L 867 910" />
        <path d="M 883.6 920 L 883.6 910" />
        <path d="M 900.2 920 L 900.2 910" />
        <path d="M 916.8 920 L 916.8 910" />
        <path d="M 933.4 920 L 933.4 910" />
        <path d="M 950 920 L 950 900" />
        <text font-size="30" transform="translate(950, 950)" text-anchor="middle" dominant-baseline="middle" stroke="none" fill="black">50</text>
    </g>
    <g id="frame_0_leftticks">
        <path d="M 120 517.502 L 130 517.502" />
        <path d="M 120 316.253 L 130 316.253" />
        <path d="M 120 806.797 L 130 806.797" />
        <path d="M 120 102.425 L 130 102.425" />
        <path d="M 120 920 L 140 920" />
        <text font-size="30" transform="translate(110, 930)" text-anchor="end" dominant-baseline="middle" stroke="none" fill="black">0</text>
        <path d="M 120 693.595 L 130 693.595" />
        <path d="M 120 479.768 L 130 479.768" />
        <path d="M 120 580.392 L 130 580.392" />
        <path d="M 120 869.688 L 130 869.688" />
        <path d="M 120 442.033 L 130 442.033" />
        <path d="M 120 152.738 L 130 152.738" />
        <path d="M 120 756.485 L 130 756.485" />
        <path d="M 120 643.282 L 130 643.282" />
        <path d="M 120 404.299 L 130 404.299" />
        <path d="M 120 530.08 L 130 530.08" />
        <path d="M 120 819.375 L 130 819.375" />
        <path d="M 120 366.565 L 130 366.565" />
        <path d="M 120 228.206 L 130 228.206" />
        <path d="M 120 706.173 L 130 706.173" />
        <path d="M 120 177.894 L 130 177.894" />
        <path d="M 120 592.97 L 130 592.97" />
        <path d="M 120 328.831 L 130 328.831" />
        <path d="M 120 882.266 L 130 882.266" />
        <path d="M 120 769.063 L 130 769.063" />
        <path d="M 120 492.346 L 130 492.346" />
        <path d="M 120 655.861 L 130 655.861" />
        <path d="M 120 668.439 L 140 668.439" />
        <text font-size="30" transform="translate(110, 678.439)" text-anchor="end" dominant-baseline="middle" stroke="none" fill="black">2000</text>
        <path d="M 120 140.16 L 130 140.16" />
        <path d="M 120 454.611 L 130 454.611" />
        <path d="M 120 64.6912 L 130 64.6912" />
        <path d="M 120 831.954 L 130 831.954" />
        <path d="M 120 718.751 L 130 718.751" />
        <path d="M 120 215.628 L 130 215.628" />
        <path d="M 120 253.362 L 130 253.362" />
        <path d="M 120 605.548 L 130 605.548" />
        <path d="M 120 894.844 L 130 894.844" />
        <path d="M 120 379.143 L 130 379.143" />
        <path d="M 120 781.641 L 130 781.641" />
        <path d="M 120 278.518 L 130 278.518" />
        <path d="M 120 115.003 L 130 115.003" />
        <path d="M 120 265.94 L 130 265.94" />
        <path d="M 120 341.409 L 130 341.409" />
        <path d="M 120 416.877 L 140 416.877" />
        <text font-size="30" transform="translate(110, 426.877)" text-anchor="end" dominant-baseline="middle" stroke="none" fill="black">4000</text>
        <path d="M 120 555.236 L 130 555.236" />
        <path d="M 120 794.219 L 140 794.219" />
        <text font-size="30" transform="translate(110, 804.219)" text-anchor="end" dominant-baseline="middle" stroke="none" fill="black">1000</text>
        <path d="M 120 303.675 L 130 303.675" />
        <path d="M 120 844.532 L 130 844.532" />
        <path d="M 120 504.924 L 130 504.924" />
        <path d="M 120 89.8473 L 130 89.8473" />
        <path d="M 120 731.329 L 130 731.329" />
        <path d="M 120 291.096 L 140 291.096" />
        <text font-size="30" transform="translate(110, 301.096)" text-anchor="end" dominant-baseline="middle" stroke="none" fill="black">5000</text>
        <path d="M 120 618.126 L 130 618.126" />
        <path d="M 120 467.189 L 130 467.189" />
        <path d="M 120 907.422 L 130 907.422" />
        <path d="M 120 127.582 L 130 127.582" />
        <path d="M 120 391.721 L 130 391.721" />
        <path d="M 120 429.455 L 130 429.455" />
        <path d="M 120 165.316 L 140 165.316" />
        <text font-size="30" transform="translate(110, 175.316)" text-anchor="end" dominant-baseline="middle" stroke="none" fill="black">6000</text>
        <path d="M 120 681.017 L 130 681.017" />
        <path d="M 120 567.814 L 130 567.814" />
        <path d="M 120 190.472 L 130 190.472" />
        <path d="M 120 542.658 L 140 542.658" />
        <text font-size="30" transform="translate(110, 552.658)" text-anchor="end" dominant-baseline="middle" stroke="none" fill="black">3000</text>
        <path d="M 120 857.11 L 130 857.11" />
        <path d="M 120 52.1131 L 130 52.1131" />
        <path d="M 120 203.05 L 130 203.05" />
        <path d="M 120 743.907 L 130 743.907" />
        <path d="M 120 353.987 L 130 353.987" />
        <path d="M 120 630.704 L 130 630.704" />
        <path d="M 120 240.784 L 130 240.784" />
        <path d="M 120 77.2693 L 130 77.2693" />
    </g>
    <text id="frame_0_toplabel" font-size="30" transform="translate(535, 32.6)" text-anchor="middle" dominant-baseline="middle" stroke="none" fill="black">m.pi</text>
    <g id="frame_0_topticks">
        <path d="M 120 50 L 120 70" />
        <path d="M 136.6 50 L 136.6 60" />
        <path d="M 153.2 50 L 153.2 60" />
        <path d="M 169.8 50 L 169.8 60" />
        <path d="M 186.4 50 L 186.4 60" />
        <path d="M 203 50 L 203 60" />
        <path d="M 219.6 50 L 219.6 60" />
        <path d="M 236.2 50 L 236.2 60" />
        <path d="M 252.8 50 L 252.8 60" />
        <path d="M 269.4 50 L 269.4 60" />
        <path d="M 286 50 L 286 70" />
        <path d="M 302.6 50 L 302.6 60" />
        <path d="M 319.2 50 L 319.2 60" />
        <path d="M 335.8 50 L 335.8 60" />
        <path d="M 352.4 50 L 352.4 60" />
        <path d="M 369 50 L 369 60" />
        <path d="M 385.6 50 L 385.6 60" />
        <path d="M 402.2 50 L 402.2 60" />
        <path d="M 418.8 50 L 418.8 60" />
        <path d="M 435.4 50 L 435.4 60" />
        <path d="M 452 50 L 452 70" />
        <path d="M 468.6 50 L 468.6 60" />
        <path d="M 485.2 50 L 485.2 60" />
        <path d="M 501.8 50 L 501.8 60" />
        <path d="M 518.4 50 L 518.4 60" />
        <path d="M 535 50 L 535 60" />
        <path d="M 551.6 50 L 551.6 60" />
        <path d="M 568.2 50 L 568.2 60" />
        <path d="M 584.8 50 L 584.8 60" />
        <path d="M 601.4 50 L 601.4 60" />
        <path d="M 618 50 L 618 70" />
        <path d="M 634.6 50 L 634.6 60" />
        <path d="M 651.2 50 L 651.2 60" />
        <path d="M 667.8 50 L 667.8 60" />
        <path d="M 684.4 50 L 684.4 60" />
        <path d="M 701 50 L 701 60" />
        <path d="M 717.6 50 L 717.6 60" />
        <path d="M 734.2 50 L 734.2 60" />
        <path d="M 750.8 50 L 750.8 60" />
        <path d="M 767.4 50 L 767.4 60" />
        <path d="M 784 50 L 784 70" />
        <path d="M 800.6 50 L 800.6 60" />
        <path d="M 817.2 50 L 817.2 60" />
        <path d="M 833.8 50 L 833.8 60" />
        <path d="M 850.4 50 L 850.4 60" />
        <path d="M 867 50 L 867 60" />
        <path d="M 883.6 50 L 883.6 60" />
        <path d="M 900.2 50 L 900.2 60" />
        <path d="M 916.8 50 L 916.8 60" />
        <path d="M 933.4 50 L 933.4 60" />
        <path d="M 950 50 L 950 70" />
    </g>
    <g id="frame_0_rightticks">
        <path d="M 950 517.502 L 940 517.502" />
        <path d="M 950 316.253 L 940 316.253" />
        <path d="M 950 806.797 L 940 806.797" />
        <path d="M 950 102.425 L 940 102.425" />
        <path d="M 950 920 L 930 920" />
        <path d="M 950 693.595 L 940 693.595" />
        <path d="M 950 479.768 L 940 479.768" />
        <path d="M 950 580.392 L 940 580.392" />
        <path d="M 950 869.688 L 940 869.688" />
        <path d="M 950 442.033 L 940 442.033" />
        <path d="M 950 152.738 L 940 152.738" />
        <path d="M 950 756.485 L 940 756.485" />
        <path d="M 950 643.282 L 940 643.282" />
        <path d="M 950 404.299 L 940 404.299" />
        <path d="M 950 530.08 L 940 530.08" />
        <path d="M 950 819.375 L 940 819.375" />
        <path d="M 950 366.565 L 940 366.565" />
        <path d="M 950 228.206 L 940 228.206" />
        <path d="M 950 706.173 L 940 706.173" />
        <path d="M 950 177.894 L 940 177.894" />
        <path d="M 950 592.97 L 940 592.97" />
        <path d="M 950 328.831 L 940 328.831" />
        <path d="M 950 882.266 L 940 882.266" />
        <path d="M 950 769.063 L 940 769.063" />
        <path d="M 950 492.346 L 940 492.346" />
        <path d="M 950 655.861 L 940 655.861" />
        <path d="M 950 668.439 L 930 668.439" />
        <path d="M 950 140.16 L 940 140.16" />
        <path d="M 950 454.611 L 940 454.611" />
        <path d="M 950 64.6912 L 940 64.6912" />
        <path d="M 950 831.954 L 940 831.954" />
        <path d="M 950 718.751 L 940 718.751" />
        <path d="M 950 215.628 L 940 215.628" />
        <path d="M 950 253.362 L 940 253.362" />
        <path d="M 950 605.548 L 940 605.548" />
        <path d="M 950 894.844 L 940 894.844" />
        <path d="M 950 379.143 L 940 379.143" />
        <path d="M 950 781.641 L 940 781.641" />
        <path d="M 950 278.518 L 940 278.518" />
        <path d="M 950 115.003 L 940 115.003" />
        <path d="M 950 265.94 L 940 265.94" />
        <path d="M 950 341.409 L 940 341.409" />
        <path d="M 950 416.877 L 930 416.877" />
        <path d="M 950 555.236 L 940 555.236" />
        <path d="M 950 794.219 L 930 794.219" />
        <path d="M 950 303.675 L 940 303.675" />
        <path d="M 950 844.532 L 940 844.532" />
        <path d="M 950 504.924 L 940 504.924" />
        <path d="M 950 89.8473 L 940 89.8473" />
        <path d="M 950 731.329 L 940 731.329" />
        <path d="M 950 291.096 L 930 291.096" />
        <path d="M 950 618.126 L 940 618.126" />
        <path d="M 950 467.189 L 940 467.189" />
        <path d="M 950 907.422 L 940 907.422" />
        <path d="M 950 127.582 L 940 127.582" />
        <path d="M 950 391.721 L 940 391.721" />
        <path d="M 950 429.455 L 940 429.455" />
        <path d="M 950 165.316 L 930 165.316" />
        <path d="M 950 681.017 L 940 681.017" />
        <path d="M 950 567.814 L 940 567.814" />
        <path d="M 950 190.472 L 940 190.472" />
        <path d="M 950 542.658 L 930 542.658" />
        <path d="M 950 857.11 L 940 857.11" />
        <path d="M 950 52.1131 L 940 52.1131" />
        <path d="M 950 203.05 L 940 203.05" />
        <path d="M 950 743.907 L 940 743.907" />
        <path d="M 950 353.987 L 940 353.987" />
        <path d="M 950 630.704 L 940 630.704" />
        <path d="M 950 240.784 L 940 240.784" />
        <path d="M 950 77.2693 L 940 77.2693" />
    </g>
</g>
</g>
</svg>
