<?xml version="1.0" standalone="no"?>
<!DOCTYPE svg PUBLIC "-//W3C//DTD SVG 1.1//EN" "http://www.w3.org/Graphics/SVG/1.1/DTD/svg11.dtd">
<svg style="stroke-linejoin:miter; stroke:black; stroke-width:2.5; text-anchor:middle; fill:none" xmlns="http://www.w3.org/2000/svg" font-family="Helvetica, Arial, FreeSans, Sans, sans, sans-serif" width="1000px" height="1000px" version="1.1" xmlns:xlink="http://www.w3.org/1999/xlink" viewBox="0 0 1000 1000">
<defs>
    <clipPath id="Histogram_0_clip">
        <rect x="120" y="50" width="830" height="870" />
    </clipPath>
    <clipPath id="Histogram_1_clip">
        <rect x="120" y="50" width="830" height="870" />
    </clipPath>
</defs>
<g id="whole_document">
<rect id="background" x="0" y="0" width="1000" height="1000" stroke="none" fill="white" />
<g id="Histogram_0" clip-path="url(#Histogram_0_clip)">
    <path d="M 120 920 L 120 129.091 L 161.5 129.091 L 161.5 913.304 L 203 913.304 L 203 920 L 244.5 920 L 244.5 920 L 286 920 L 286 920 L 327.5 920 L 327.5 920 L 369 920 L 369 920 L 410.5 920 L 410.5 919.939 L 452 919.939 L 452 920 L 493.5 920 L 493.5 920 L 535 920 L 535 920 L 576.5 920 L 576.5 920 L 618 920 L 618 919.963 L 659.5 919.963 L 659.5 920 L 701 920 L 701 920 L 742.5 920 L 742.5 920 L 784 920 L 784 920 L 825.5 920 L 825.5 920 L 867 920 L 867 920 L 908.5 920 L 908.5 920 L 950 920 L 950 920" stroke-width="3" stroke-dasharray="" stroke="black" stroke-opacity="1" fill="DodgerBlue" fill-opacity="1" />
</g>
<g id="Histogram_1" clip-path="url(#Histogram_1_clip)">
    <path d="M 120 920 L 120 920 L 161.5 920 L 161.5 920 L 203 920 L 203 920 L 244.5 920 L 244.5 920 L 286 920 L 286 920 L 327.5 920 L 327.5 920 L 369 920 L 369 920 L 410.5 920 L 410.5 919.939 L 452 919.939 L 452 920 L 493.5 920 L 493.5 920 L 535 920 L 535 920 L 576.5 920 L 576.5 920 L 618 920 L 618 919.963 L 659.5 919.963 L 659.5 920 L 701 920 L 701 920 L 742.5 920 L 742.5 920 L 784 920 L 784 920 L 825.5 920 L 825.5 920 L 867 920 L 867 920 L 908.5 920 L 908.5 920 L 950 920 L 950 920" stroke-width="3" stroke-dasharray="" stroke="black" stroke-opacity="1" fill="darkorange" fill-opacity="1" />
</g>
<g id="frame_0">
    <rect id="frame_0_border" x="120" y="50" width="830" height="870" />
    <text id="frame_0_bottomlabel" font-size="30" transform="translate(535, 989.6)" text-anchor="middle" dominant-baseline="middle" stroke="none" fill="black">microseconds</text>
    <g id="frame_0_bottomticks">
        <path d="M 120 920 L 120 900" />
        <text font-size="30" transform="translate(120, 950)" text-anchor="middle" dominant-baseline="middle" stroke="none" fill="black">0</text>
        <path d="M 136.6 920 L 136.6 910" />
        <path d="M 153.2 920 L 153.2 910" />
        <path d="M 169.8 920 L 169.8 910" />
        <path d="M 186.4 920 L 186.4 910" />
        <path d="M 203 920 L 203 910" />
        <path d="M 219.6 920 L 219.6 910" />
        <path d="M 236.2 920 L 236.2 910" />
        <path d="M 252.8 920 L 252.8 910" />
        <path d="M 269.4 920 L 269.4 910" />
        <path d="M 286 920 L 286 900" />
        <text font-size="30" transform="translate(286, 950)" text-anchor="middle" dominant-baseline="middle" stroke="none" fill="black">10</text>
        <path d="M 302.6 920 L 302.6 910" />
        <path d="M 319.2 920 L 319.2 910" />
        <path d="M 335.8 920 L 335.8 910" />
        <path d="M 352.4 920 L 352.4 910" />
        <path d="M 369 920 L 369 910" />
        <path d="M 385.6 920 L 385.6 910" />
        <path d="M 402.2 920 L 402.2 910" />
        <path d="M 418.8 920 L 418.8 910" />
        <path d="M 435.4 920 L 435.4 910" />
        <path d="M 452 920 L 452 900" />
        <text font-size="30" transform="translate(452, 950)" text-anchor="middle" dominant-baseline="middle" stroke="none" fill="black">20</text>
        <path d="M 468.6 920 L 468.6 910" />
        <path d="M 485.2 920 L 485.2 910" />
        <path d="M 501.8 920 L 501.8 910" />
        <path d="M 518.4 920 L 518.4 910" />
        <path d="M 535 920 L 535 910" />
        <path d="M 551.6 920 L 551.6 910" />
        <path d="M 568.2 920 L 568.2 910" />
        <path d="M 584.8 920 L 584.8 910" />
        <path d="M 601.4 920 L 601.4 910" />
        <path d="M 618 920 L 618 900" />
        <text font-size="30" transform="translate(618, 950)" text-anchor="middle" dominant-baseline="middle" stroke="none" fill="black">30</text>
        <path d="M 634.6 920 L 634.6 910" />
        <path d="M 651.2 920 L 651.2 910" />
        <path d="M 667.8 920 L 667.8 910" />
        <path d="M 684.4 920 L 684.4 910" />
        <path d="M 701 920 L 701 910" />
        <path d="M 717.6 920 L 717.6 910" />
        <path d="M 734.2 920 L 734.2 910" />
        <path d="M 750.8 920 L 750.8 910" />
        <path d="M 767.4 920 L 767.4 910" />
        <path d="M 784 920 L 784 900" />
        <text font-size="30" transform="translate(784, 950)" text-anchor="middle" dominant-baseline="middle" stroke="none" fill="black">40</text>
        <path d="M 800.6 920 L 800.6 910" />
        <path d="M 817.2 920 L 817.2 910" />
        <path d="M 833.8 920 L 833.8 910" />
        <path d="M 850.4 920 L 850.4 910" />
        <path d="M 867 920 L 867 910" />
        <path d="M 883.6 920 L 883.6 910" />
        <path d="M 900.2 920 L 900.2 910" />
        <path d="M 916.8 920 L 916.8 910" />
        <path d="M 933.4 920 L 933.4 910" />
        <path d="M 950 920 L 950 900" />
        <text font-size="30" transform="translate(950, 950)" text-anchor="middle" dominant-baseline="middle" stroke="none" fill="black">50</text>
    </g>
    <g id="frame_0_leftticks">
        <path d="M 120 828.632 L 130 828.632" />
        <path d="M 120 782.948 L 130 782.948" />
        <path d="M 120 86.2679 L 130 86.2679" />
        <path d="M 120 623.054 L 130 623.054" />
        <path d="M 120 383.214 L 130 383.214" />
        <path d="M 120 920 L 140 920" />
        <text font-size="30" transform="translate(110, 930)" text-anchor="end" dominant-baseline="middle" stroke="none" fill="black">0</text>
        <path d="M 120 680.159 L 130 680.159" />
        <path d="M 120 440.319 L 130 440.319" />
        <path d="M 120 463.161 L 140 463.161" />
        <text font-size="30" transform="translate(110, 473.161)" text-anchor="end" dominant-baseline="middle" stroke="none" fill="black">400000</text>
        <path d="M 120 200.478 L 130 200.478" />
        <path d="M 120 737.264 L 130 737.264" />
        <path d="M 120 817.211 L 130 817.211" />
        <path d="M 120 257.583 L 130 257.583" />
        <path d="M 120 554.528 L 130 554.528" />
        <path d="M 120 314.688 L 130 314.688" />
        <path d="M 120 611.633 L 130 611.633" />
        <path d="M 120 908.579 L 130 908.579" />
        <path d="M 120 897.158 L 130 897.158" />
        <path d="M 120 794.369 L 130 794.369" />
        <path d="M 120 428.898 L 130 428.898" />
        <path d="M 120 189.057 L 130 189.057" />
        <path d="M 120 486.002 L 130 486.002" />
        <path d="M 120 303.267 L 130 303.267" />
        <path d="M 120 246.162 L 130 246.162" />
        <path d="M 120 120.531 L 140 120.531" />
        <text font-size="30" transform="translate(110, 130.531)" text-anchor="end" dominant-baseline="middle" stroke="none" fill="black">700000</text>
        <path d="M 120 543.107 L 130 543.107" />
        <path d="M 120 885.737 L 130 885.737" />
        <path d="M 120 862.895 L 130 862.895" />
        <path d="M 120 63.4259 L 130 63.4259" />
        <path d="M 120 600.212 L 130 600.212" />
        <path d="M 120 360.372 L 130 360.372" />
        <path d="M 120 166.215 L 130 166.215" />
        <path d="M 120 657.317 L 130 657.317" />
        <path d="M 120 840.053 L 130 840.053" />
        <path d="M 120 417.477 L 130 417.477" />
        <path d="M 120 177.636 L 130 177.636" />
        <path d="M 120 714.422 L 130 714.422" />
        <path d="M 120 874.316 L 130 874.316" />
        <path d="M 120 668.738 L 130 668.738" />
        <path d="M 120 474.581 L 130 474.581" />
        <path d="M 120 234.741 L 140 234.741" />
        <text font-size="30" transform="translate(110, 244.741)" text-anchor="end" dominant-baseline="middle" stroke="none" fill="black">600000</text>
        <path d="M 120 531.686 L 130 531.686" />
        <path d="M 120 291.846 L 130 291.846" />
        <path d="M 120 588.791 L 130 588.791" />
        <path d="M 120 348.951 L 140 348.951" />
        <text font-size="30" transform="translate(110, 358.951)" text-anchor="end" dominant-baseline="middle" stroke="none" fill="black">500000</text>
        <path d="M 120 771.527 L 130 771.527" />
        <path d="M 120 109.11 L 130 109.11" />
        <path d="M 120 645.896 L 130 645.896" />
        <path d="M 120 406.056 L 130 406.056" />
        <path d="M 120 703.001 L 130 703.001" />
        <path d="M 120 74.8469 L 130 74.8469" />
        <path d="M 120 143.373 L 130 143.373" />
        <path d="M 120 223.32 L 130 223.32" />
        <path d="M 120 760.106 L 130 760.106" />
        <path d="M 120 520.265 L 130 520.265" />
        <path d="M 120 851.474 L 130 851.474" />
        <path d="M 120 725.843 L 130 725.843" />
        <path d="M 120 280.425 L 130 280.425" />
        <path d="M 120 52.005 L 130 52.005" />
        <path d="M 120 577.37 L 140 577.37" />
        <text font-size="30" transform="translate(110, 587.37)" text-anchor="end" dominant-baseline="middle" stroke="none" fill="black">300000</text>
        <path d="M 120 131.952 L 130 131.952" />
        <path d="M 120 497.423 L 130 497.423" />
        <path d="M 120 634.475 L 130 634.475" />
        <path d="M 120 371.793 L 130 371.793" />
        <path d="M 120 394.635 L 130 394.635" />
        <path d="M 120 154.794 L 130 154.794" />
        <path d="M 120 748.685 L 130 748.685" />
        <path d="M 120 97.6889 L 130 97.6889" />
        <path d="M 120 451.74 L 130 451.74" />
        <path d="M 120 691.58 L 140 691.58" />
        <text font-size="30" transform="translate(110, 701.58)" text-anchor="end" dominant-baseline="middle" stroke="none" fill="black">200000</text>
        <path d="M 120 211.899 L 130 211.899" />
        <path d="M 120 337.53 L 130 337.53" />
        <path d="M 120 508.844 L 130 508.844" />
        <path d="M 120 269.004 L 130 269.004" />
        <path d="M 120 805.79 L 140 805.79" />
        <text font-size="30" transform="translate(110, 815.79)" text-anchor="end" dominant-baseline="middle" stroke="none" fill="black">100000</text>
        <path d="M 120 326.109 L 130 326.109" />
        <path d="M 120 565.949 L 130 565.949" />
    </g>
    <text id="frame_0_toplabel" font-size="30" transform="translate(535, 32.6)" text-anchor="middle" dominant-baseline="middle" stroke="none" fill="black">+</text>
    <g id="frame_0_topticks">
        <path d="M 120 50 L 120 70" />
        <path d="M 136.6 50 L 136.6 60" />
        <path d="M 153.2 50 L 153.2 60" />
        <path d="M 169.8 50 L 169.8 60" />
        <path d="M 186.4 50 L 186.4 60" />
        <path d="M 203 50 L 203 60" />
        <path d="M 219.6 50 L 219.6 60" />
        <path d="M 236.2 50 L 236.2 60" />
        <path d="M 252.8 50 L 252.8 60" />
        <path d="M 269.4 50 L 269.4 60" />
        <path d="M 286 50 L 286 70" />
        <path d="M 302.6 50 L 302.6 60" />
        <path d="M 319.2 50 L 319.2 60" />
        <path d="M 335.8 50 L 335.8 60" />
        <path d="M 352.4 50 L 352.4 60" />
        <path d="M 369 50 L 369 60" />
        <path d="M 385.6 50 L 385.6 60" />
        <path d="M 402.2 50 L 402.2 60" />
        <path d="M 418.8 50 L 418.8 60" />
        <path d="M 435.4 50 L 435.4 60" />
        <path d="M 452 50 L 452 70" />
        <path d="M 468.6 50 L 468.6 60" />
        <path d="M 485.2 50 L 485.2 60" />
        <path d="M 501.8 50 L 501.8 60" />
        <path d="M 518.4 50 L 518.4 60" />
        <path d="M 535 50 L 535 60" />
        <path d="M 551.6 50 L 551.6 60" />
        <path d="M 568.2 50 L 568.2 60" />
        <path d="M 584.8 50 L 584.8 60" />
        <path d="M 601.4 50 L 601.4 60" />
        <path d="M 618 50 L 618 70" />
        <path d="M 634.6 50 L 634.6 60" />
        <path d="M 651.2 50 L 651.2 60" />
        <path d="M 667.8 50 L 667.8 60" />
        <path d="M 684.4 50 L 684.4 60" />
        <path d="M 701 50 L 701 60" />
        <path d="M 717.6 50 L 717.6 60" />
        <path d="M 734.2 50 L 734.2 60" />
        <path d="M 750.8 50 L 750.8 60" />
        <path d="M 767.4 50 L 767.4 60" />
        <path d="M 784 50 L 784 70" />
        <path d="M 800.6 50 L 800.6 60" />
        <path d="M 817.2 50 L 817.2 60" />
        <path d="M 833.8 50 L 833.8 60" />
        <path d="M 850.4 50 L 850.4 60" />
        <path d="M 867 50 L 867 60" />
        <path d="M 883.6 50 L 883.6 60" />
        <path d="M 900.2 50 L 900.2 60" />
        <path d="M 916.8 50 L 916.8 60" />
        <path d="M 933.4 50 L 933.4 60" />
        <path d="M 950 50 L 950 70" />
    </g>
    <g id="frame_0_rightticks">
        <path d="M 950 828.632 L 940 828.632" />
        <path d="M 950 782.948 L 940 782.948" />
        <path d="M 950 86.2679 L 940 86.2679" />
        <path d="M 950 623.054 L 940 623.054" />
        <path d="M 950 383.214 L 940 383.214" />
        <path d="M 950 920 L 930 920" />
        <path d="M 950 680.159 L 940 680.159" />
        <path d="M 950 440.319 L 940 440.319" />
        <path d="M 950 463.161 L 930 463.161" />
        <path d="M 950 200.478 L 940 200.478" />
        <path d="M 950 737.264 L 940 737.264" />
        <path d="M 950 817.211 L 940 817.211" />
        <path d="M 950 257.583 L 940 257.583" />
        <path d="M 950 554.528 L 940 554.528" />
        <path d="M 950 314.688 L 940 314.688" />
        <path d="M 950 611.633 L 940 611.633" />
        <path d="M 950 908.579 L 940 908.579" />
        <path d="M 950 897.158 L 940 897.158" />
        <path d="M 950 794.369 L 940 794.369" />
        <path d="M 950 428.898 L 940 428.898" />
        <path d="M 950 189.057 L 940 189.057" />
        <path d="M 950 486.002 L 940 486.002" />
        <path d="M 950 303.267 L 940 303.267" />
        <path d="M 950 246.162 L 940 246.162" />
        <path d="M 950 120.531 L 930 120.531" />
        <path d="M 950 543.107 L 940 543.107" />
        <path d="M 950 885.737 L 940 885.737" />
        <path d="M 950 862.895 L 940 862.895" />
        <path d="M 950 63.4259 L 940 63.4259" />
        <path d="M 950 600.212 L 940 600.212" />
        <path d="M 950 360.372 L 940 360.372" />
        <path d="M 950 166.215 L 940 166.215" />
        <path d="M 950 657.317 L 940 657.317" />
        <path d="M 950 840.053 L 940 840.053" />
        <path d="M 950 417.477 L 940 417.477" />
        <path d="M 950 177.636 L 940 177.636" />
        <path d="M 950 714.422 L 940 714.422" />
        <path d="M 950 874.316 L 940 874.316" />
        <path d="M 950 668.738 L 940 668.738" />
        <path d="M 950 474.581 L 940 474.581" />
        <path d="M 950 234.741 L 930 234.741" />
        <path d="M 950 531.686 L 940 531.686" />
        <path d="M 950 291.846 L 940 291.846" />
        <path d="M 950 588.791 L 940 588.791" />
        <path d="M 950 348.951 L 930 348.951" />
        <path d="M 950 771.527 L 940 771.527" />
        <path d="M 950 109.11 L 940 109.11" />
        <path d="M 950 645.896 L 940 645.896" />
        <path d="M 950 406.056 L 940 406.056" />
        <path d="M 950 703.001 L 940 703.001" />
        <path d="M 950 74.8469 L 940 74.8469" />
        <path d="M 950 143.373 L 940 143.373" />
        <path d="M 950 223.32 L 940 223.32" />
        <path d="M 950 760.106 L 940 760.106" />
        <path d="M 950 520.265 L 940 520.265" />
        <path d="M 950 851.474 L 940 851.474" />
        <path d="M 950 725.843 L 940 725.843" />
        <path d="M 950 280.425 L 940 280.425" />
        <path d="M 950 52.005 L 940 52.005" />
        <path d="M 950 577.37 L 930 577.37" />
        <path d="M 950 131.952 L 940 131.952" />
        <path d="M 950 497.423 L 940 497.423" />
        <path d="M 950 634.475 L 940 634.475" />
        <path d="M 950 371.793 L 940 371.793" />
        <path d="M 950 394.635 L 940 394.635" />
        <path d="M 950 154.794 L 940 154.794" />
        <path d="M 950 748.685 L 940 748.685" />
        <path d="M 950 97.6889 L 940 97.6889" />
        <path d="M 950 451.74 L 940 451.74" />
        <path d="M 950 691.58 L 930 691.58" />
        <path d="M 950 211.899 L 940 211.899" />
        <path d="M 950 337.53 L 940 337.53" />
        <path d="M 950 508.844 L 940 508.844" />
        <path d="M 950 269.004 L 940 269.004" />
        <path d="M 950 805.79 L 930 805.79" />
        <path d="M 950 326.109 L 940 326.109" />
        <path d="M 950 565.949 L 940 565.949" />
    </g>
</g>
</g>
</svg>
