<?xml version="1.0" standalone="no"?>
<!DOCTYPE svg PUBLIC "-//W3C//DTD SVG 1.1//EN" "http://www.w3.org/Graphics/SVG/1.1/DTD/svg11.dtd">
<svg style="stroke-linejoin:miter; stroke:black; stroke-width:2.5; text-anchor:middle; fill:none" xmlns="http://www.w3.org/2000/svg" font-family="Helvetica, Arial, FreeSans, Sans, sans, sans-serif" width="1000px" height="1000px" version="1.1" xmlns:xlink="http://www.w3.org/1999/xlink" viewBox="0 0 1000 1000">
<defs>
    <clipPath id="Histogram_0_clip">
        <rect x="120" y="50" width="830" height="870" />
    </clipPath>
</defs>
<g id="whole_document">
<rect id="background" x="0" y="0" width="1000" height="1000" stroke="none" fill="white" />
<g id="Histogram_0" clip-path="url(#Histogram_0_clip)">
    <path d="M 120 920 L 120 129.091 L 161.5 129.091 L 161.5 920 L 203 920 L 203 920 L 244.5 920 L 244.5 920 L 286 920 L 286 920 L 327.5 920 L 327.5 920 L 369 920 L 369 920 L 410.5 920 L 410.5 920 L 452 920 L 452 920 L 493.5 920 L 493.5 920 L 535 920 L 535 920 L 576.5 920 L 576.5 920 L 618 920 L 618 920 L 659.5 920 L 659.5 920 L 701 920 L 701 920 L 742.5 920 L 742.5 920 L 784 920 L 784 920 L 825.5 920 L 825.5 920 L 867 920 L 867 920 L 908.5 920 L 908.5 920 L 950 920 L 950 920" stroke-width="3" stroke-dasharray="" stroke="black" stroke-opacity="1" fill="DodgerBlue" fill-opacity="1" />
</g>
<g id="frame_0">
    <rect id="frame_0_border" x="120" y="50" width="830" height="870" />
    <text id="frame_0_bottomlabel" font-size="30" transform="translate(535, 989.6)" text-anchor="middle" dominant-baseline="middle" stroke="none" fill="black">microseconds</text>
    <g id="frame_0_bottomticks">
        <path d="M 120 920 L 120 900" />
        <text font-size="30" transform="translate(120, 950)" text-anchor="middle" dominant-baseline="middle" stroke="none" fill="black">0</text>
        <path d="M 136.6 920 L 136.6 910" />
        <path d="M 153.2 920 L 153.2 910" />
        <path d="M 169.8 920 L 169.8 910" />
        <path d="M 186.4 920 L 186.4 910" />
        <path d="M 203 920 L 203 910" />
        <path d="M 219.6 920 L 219.6 910" />
        <path d="M 236.2 920 L 236.2 910" />
        <path d="M 252.8 920 L 252.8 910" />
        <path d="M 269.4 920 L 269.4 910" />
        <path d="M 286 920 L 286 900" />
        <text font-size="30" transform="translate(286, 950)" text-anchor="middle" dominant-baseline="middle" stroke="none" fill="black">10</text>
        <path d="M 302.6 920 L 302.6 910" />
        <path d="M 319.2 920 L 319.2 910" />
        <path d="M 335.8 920 L 335.8 910" />
        <path d="M 352.4 920 L 352.4 910" />
        <path d="M 369 920 L 369 910" />
        <path d="M 385.6 920 L 385.6 910" />
        <path d="M 402.2 920 L 402.2 910" />
        <path d="M 418.8 920 L 418.8 910" />
        <path d="M 435.4 920 L 435.4 910" />
        <path d="M 452 920 L 452 900" />
        <text font-size="30" transform="translate(452, 950)" text-anchor="middle" dominant-baseline="middle" stroke="none" fill="black">20</text>
        <path d="M 468.6 920 L 468.6 910" />
        <path d="M 485.2 920 L 485.2 910" />
        <path d="M 501.8 920 L 501.8 910" />
        <path d="M 518.4 920 L 518.4 910" />
        <path d="M 535 920 L 535 910" />
        <path d="M 551.6 920 L 551.6 910" />
        <path d="M 568.2 920 L 568.2 910" />
        <path d="M 584.8 920 L 584.8 910" />
        <path d="M 601.4 920 L 601.4 910" />
        <path d="M 618 920 L 618 900" />
        <text font-size="30" transform="translate(618, 950)" text-anchor="middle" dominant-baseline="middle" stroke="none" fill="black">30</text>
        <path d="M 634.6 920 L 634.6 910" />
        <path d="M 651.2 920 L 651.2 910" />
        <path d="M 667.8 920 L 667.8 910" />
        <path d="M 684.4 920 L 684.4 910" />
        <path d="M 701 920 L 701 910" />
        <path d="M 717.6 920 L 717.6 910" />
        <path d="M 734.2 920 L 734.2 910" />
        <path d="M 750.8 920 L 750.8 910" />
        <path d="M 767.4 920 L 767.4 910" />
        <path d="M 784 920 L 784 900" />
        <text font-size="30" transform="translate(784, 950)" text-anchor="middle" dominant-baseline="middle" stroke="none" fill="black">40</text>
        <path d="M 800.6 920 L 800.6 910" />
        <path d="M 817.2 920 L 817.2 910" />
        <path d="M 833.8 920 L 833.8 910" />
        <path d="M 850.4 920 L 850.4 910" />
        <path d="M 867 920 L 867 910" />
        <path d="M 883.6 920 L 883.6 910" />
        <path d="M 900.2 920 L 900.2 910" />
        <path d="M 916.8 920 L 916.8 910" />
        <path d="M 933.4 920 L 933.4 910" />
        <path d="M 950 920 L 950 900" />
        <text font-size="30" transform="translate(950, 950)" text-anchor="middle" dominant-baseline="middle" stroke="none" fill="black">50</text>
    </g>
    <g id="frame_0_leftticks">
        <path d="M 120 757.808 L 130 757.808" />
        <path d="M 120 676.713 L 130 676.713" />
        <path d="M 120 920 L 140 920" />
        <text font-size="30" transform="translate(110, 930)" text-anchor="end" dominant-baseline="middle" stroke="none" fill="black">0</text>
        <path d="M 120 494.247 L 130 494.247" />
        <path d="M 120 68.4941 L 130 68.4941" />
        <path d="M 120 595.617 L 130 595.617" />
        <path d="M 120 737.534 L 130 737.534" />
        <path d="M 120 271.234 L 130 271.234" />
        <path d="M 120 372.603 L 130 372.603" />
        <path d="M 120 899.726 L 130 899.726" />
        <path d="M 120 879.452 L 130 879.452" />
        <path d="M 120 696.987 L 130 696.987" />
        <path d="M 120 149.59 L 130 149.59" />
        <path d="M 120 250.96 L 130 250.96" />
        <path d="M 120 859.178 L 130 859.178" />
        <path d="M 120 818.63 L 140 818.63" />
        <text font-size="30" transform="translate(110, 828.63)" text-anchor="end" dominant-baseline="middle" stroke="none" fill="black">50000</text>
        <path d="M 120 352.329 L 130 352.329" />
        <path d="M 120 453.699 L 130 453.699" />
        <path d="M 120 169.864 L 130 169.864" />
        <path d="M 120 555.069 L 130 555.069" />
        <path d="M 120 838.904 L 130 838.904" />
        <path d="M 120 392.877 L 130 392.877" />
        <path d="M 120 129.316 L 130 129.316" />
        <path d="M 120 230.686 L 130 230.686" />
        <path d="M 120 332.055 L 130 332.055" />
        <path d="M 120 656.439 L 130 656.439" />
        <path d="M 120 433.425 L 130 433.425" />
        <path d="M 120 534.795 L 130 534.795" />
        <path d="M 120 109.042 L 140 109.042" />
        <text font-size="30" transform="translate(110, 119.042)" text-anchor="end" dominant-baseline="middle" stroke="none" fill="black">400000</text>
        <path d="M 120 636.165 L 130 636.165" />
        <path d="M 120 210.412 L 140 210.412" />
        <text font-size="30" transform="translate(110, 220.412)" text-anchor="end" dominant-baseline="middle" stroke="none" fill="black">350000</text>
        <path d="M 120 798.356 L 130 798.356" />
        <path d="M 120 575.343 L 130 575.343" />
        <path d="M 120 311.781 L 140 311.781" />
        <text font-size="30" transform="translate(110, 321.781)" text-anchor="end" dominant-baseline="middle" stroke="none" fill="black">300000</text>
        <path d="M 120 413.151 L 140 413.151" />
        <text font-size="30" transform="translate(110, 423.151)" text-anchor="end" dominant-baseline="middle" stroke="none" fill="black">250000</text>
        <path d="M 120 778.082 L 130 778.082" />
        <path d="M 120 88.768 L 130 88.768" />
        <path d="M 120 514.521 L 140 514.521" />
        <text font-size="30" transform="translate(110, 524.521)" text-anchor="end" dominant-baseline="middle" stroke="none" fill="black">200000</text>
        <path d="M 120 615.891 L 140 615.891" />
        <text font-size="30" transform="translate(110, 625.891)" text-anchor="end" dominant-baseline="middle" stroke="none" fill="black">150000</text>
        <path d="M 120 190.138 L 130 190.138" />
        <path d="M 120 717.26 L 140 717.26" />
        <text font-size="30" transform="translate(110, 727.26)" text-anchor="end" dominant-baseline="middle" stroke="none" fill="black">100000</text>
        <path d="M 120 473.973 L 130 473.973" />
        <path d="M 120 291.508 L 130 291.508" />
    </g>
    <text id="frame_0_toplabel" font-size="30" transform="translate(535, 32.6)" text-anchor="middle" dominant-baseline="middle" stroke="none" fill="black">bytes.subseq</text>
    <g id="frame_0_topticks">
        <path d="M 120 50 L 120 70" />
        <path d="M 136.6 50 L 136.6 60" />
        <path d="M 153.2 50 L 153.2 60" />
        <path d="M 169.8 50 L 169.8 60" />
        <path d="M 186.4 50 L 186.4 60" />
        <path d="M 203 50 L 203 60" />
        <path d="M 219.6 50 L 219.6 60" />
        <path d="M 236.2 50 L 236.2 60" />
        <path d="M 252.8 50 L 252.8 60" />
        <path d="M 269.4 50 L 269.4 60" />
        <path d="M 286 50 L 286 70" />
        <path d="M 302.6 50 L 302.6 60" />
        <path d="M 319.2 50 L 319.2 60" />
        <path d="M 335.8 50 L 335.8 60" />
        <path d="M 352.4 50 L 352.4 60" />
        <path d="M 369 50 L 369 60" />
        <path d="M 385.6 50 L 385.6 60" />
        <path d="M 402.2 50 L 402.2 60" />
        <path d="M 418.8 50 L 418.8 60" />
        <path d="M 435.4 50 L 435.4 60" />
        <path d="M 452 50 L 452 70" />
        <path d="M 468.6 50 L 468.6 60" />
        <path d="M 485.2 50 L 485.2 60" />
        <path d="M 501.8 50 L 501.8 60" />
        <path d="M 518.4 50 L 518.4 60" />
        <path d="M 535 50 L 535 60" />
        <path d="M 551.6 50 L 551.6 60" />
        <path d="M 568.2 50 L 568.2 60" />
        <path d="M 584.8 50 L 584.8 60" />
        <path d="M 601.4 50 L 601.4 60" />
        <path d="M 618 50 L 618 70" />
        <path d="M 634.6 50 L 634.6 60" />
        <path d="M 651.2 50 L 651.2 60" />
        <path d="M 667.8 50 L 667.8 60" />
        <path d="M 684.4 50 L 684.4 60" />
        <path d="M 701 50 L 701 60" />
        <path d="M 717.6 50 L 717.6 60" />
        <path d="M 734.2 50 L 734.2 60" />
        <path d="M 750.8 50 L 750.8 60" />
        <path d="M 767.4 50 L 767.4 60" />
        <path d="M 784 50 L 784 70" />
        <path d="M 800.6 50 L 800.6 60" />
        <path d="M 817.2 50 L 817.2 60" />
        <path d="M 833.8 50 L 833.8 60" />
        <path d="M 850.4 50 L 850.4 60" />
        <path d="M 867 50 L 867 60" />
        <path d="M 883.6 50 L 883.6 60" />
        <path d="M 900.2 50 L 900.2 60" />
        <path d="M 916.8 50 L 916.8 60" />
        <path d="M 933.4 50 L 933.4 60" />
        <path d="M 950 50 L 950 70" />
    </g>
    <g id="frame_0_rightticks">
        <path d="M 950 757.808 L 940 757.808" />
        <path d="M 950 676.713 L 940 676.713" />
        <path d="M 950 920 L 930 920" />
        <path d="M 950 494.247 L 940 494.247" />
        <path d="M 950 68.4941 L 940 68.4941" />
        <path d="M 950 595.617 L 940 595.617" />
        <path d="M 950 737.534 L 940 737.534" />
        <path d="M 950 271.234 L 940 271.234" />
        <path d="M 950 372.603 L 940 372.603" />
        <path d="M 950 899.726 L 940 899.726" />
        <path d="M 950 879.452 L 940 879.452" />
        <path d="M 950 696.987 L 940 696.987" />
        <path d="M 950 149.59 L 940 149.59" />
        <path d="M 950 250.96 L 940 250.96" />
        <path d="M 950 859.178 L 940 859.178" />
        <path d="M 950 818.63 L 930 818.63" />
        <path d="M 950 352.329 L 940 352.329" />
        <path d="M 950 453.699 L 940 453.699" />
        <path d="M 950 169.864 L 940 169.864" />
        <path d="M 950 555.069 L 940 555.069" />
        <path d="M 950 838.904 L 940 838.904" />
        <path d="M 950 392.877 L 940 392.877" />
        <path d="M 950 129.316 L 940 129.316" />
        <path d="M 950 230.686 L 940 230.686" />
        <path d="M 950 332.055 L 940 332.055" />
        <path d="M 950 656.439 L 940 656.439" />
        <path d="M 950 433.425 L 940 433.425" />
        <path d="M 950 534.795 L 940 534.795" />
        <path d="M 950 109.042 L 930 109.042" />
        <path d="M 950 636.165 L 940 636.165" />
        <path d="M 950 210.412 L 930 210.412" />
        <path d="M 950 798.356 L 940 798.356" />
        <path d="M 950 575.343 L 940 575.343" />
        <path d="M 950 311.781 L 930 311.781" />
        <path d="M 950 413.151 L 930 413.151" />
        <path d="M 950 778.082 L 940 778.082" />
        <path d="M 950 88.768 L 940 88.768" />
        <path d="M 950 514.521 L 930 514.521" />
        <path d="M 950 615.891 L 930 615.891" />
        <path d="M 950 190.138 L 940 190.138" />
        <path d="M 950 717.26 L 930 717.26" />
        <path d="M 950 473.973 L 940 473.973" />
        <path d="M 950 291.508 L 940 291.508" />
    </g>
</g>
</g>
</svg>
