<?xml version="1.0" standalone="no"?>
<!DOCTYPE svg PUBLIC "-//W3C//DTD SVG 1.1//EN" "http://www.w3.org/Graphics/SVG/1.1/DTD/svg11.dtd">
<svg style="stroke-linejoin:miter; stroke:black; stroke-width:2.5; text-anchor:middle; fill:none" xmlns="http://www.w3.org/2000/svg" font-family="Helvetica, Arial, FreeSans, Sans, sans, sans-serif" width="1000px" height="1000px" version="1.1" xmlns:xlink="http://www.w3.org/1999/xlink" viewBox="0 0 1000 1000">
<defs>
    <clipPath id="Histogram_0_clip">
        <rect x="120" y="50" width="830" height="870" />
    </clipPath>
    <clipPath id="Histogram_1_clip">
        <rect x="120" y="50" width="830" height="870" />
    </clipPath>
</defs>
<g id="whole_document">
<rect id="background" x="0" y="0" width="1000" height="1000" stroke="none" fill="white" />
<g id="Histogram_0" clip-path="url(#Histogram_0_clip)">
    <path d="M 120 920 L 120 920 L 161.5 920 L 161.5 920 L 203 920 L 203 920 L 244.5 920 L 244.5 129.091 L 286 129.091 L 286 841.759 L 327.5 841.759 L 327.5 920 L 369 920 L 369 918.734 L 410.5 918.734 L 410.5 805.977 L 452 805.977 L 452 912.872 L 493.5 912.872 L 493.5 918.223 L 535 918.223 L 535 920 L 576.5 920 L 576.5 920 L 618 920 L 618 920 L 659.5 920 L 659.5 920 L 701 920 L 701 920 L 742.5 920 L 742.5 920 L 784 920 L 784 920 L 825.5 920 L 825.5 920 L 867 920 L 867 920 L 908.5 920 L 908.5 920 L 950 920 L 950 920" stroke-width="3" stroke-dasharray="" stroke="black" stroke-opacity="1" fill="DodgerBlue" fill-opacity="1" />
</g>
<g id="Histogram_1" clip-path="url(#Histogram_1_clip)">
    <path d="M 120 920 L 120 920 L 161.5 920 L 161.5 920 L 203 920 L 203 920 L 244.5 920 L 244.5 129.091 L 286 129.091 L 286 841.759 L 327.5 841.759 L 327.5 920 L 369 920 L 369 918.734 L 410.5 918.734 L 410.5 918.918 L 452 918.918 L 452 920 L 493.5 920 L 493.5 918.223 L 535 918.223 L 535 920 L 576.5 920 L 576.5 920 L 618 920 L 618 920 L 659.5 920 L 659.5 920 L 701 920 L 701 920 L 742.5 920 L 742.5 920 L 784 920 L 784 920 L 825.5 920 L 825.5 920 L 867 920 L 867 920 L 908.5 920 L 908.5 920 L 950 920 L 950 920" stroke-width="3" stroke-dasharray="" stroke="black" stroke-opacity="1" fill="darkorange" fill-opacity="1" />
</g>
<g id="frame_0">
    <rect id="frame_0_border" x="120" y="50" width="830" height="870" />
    <text id="frame_0_bottomlabel" font-size="30" transform="translate(535, 989.6)" text-anchor="middle" dominant-baseline="middle" stroke="none" fill="black">microseconds</text>
    <g id="frame_0_bottomticks">
        <path d="M 120 920 L 120 900" />
        <text font-size="30" transform="translate(120, 950)" text-anchor="middle" dominant-baseline="middle" stroke="none" fill="black">0</text>
        <path d="M 136.6 920 L 136.6 910" />
        <path d="M 153.2 920 L 153.2 910" />
        <path d="M 169.8 920 L 169.8 910" />
        <path d="M 186.4 920 L 186.4 910" />
        <path d="M 203 920 L 203 910" />
        <path d="M 219.6 920 L 219.6 910" />
        <path d="M 236.2 920 L 236.2 910" />
        <path d="M 252.8 920 L 252.8 910" />
        <path d="M 269.4 920 L 269.4 910" />
        <path d="M 286 920 L 286 900" />
        <text font-size="30" transform="translate(286, 950)" text-anchor="middle" dominant-baseline="middle" stroke="none" fill="black">10</text>
        <path d="M 302.6 920 L 302.6 910" />
        <path d="M 319.2 920 L 319.2 910" />
        <path d="M 335.8 920 L 335.8 910" />
        <path d="M 352.4 920 L 352.4 910" />
        <path d="M 369 920 L 369 910" />
        <path d="M 385.6 920 L 385.6 910" />
        <path d="M 402.2 920 L 402.2 910" />
        <path d="M 418.8 920 L 418.8 910" />
        <path d="M 435.4 920 L 435.4 910" />
        <path d="M 452 920 L 452 900" />
        <text font-size="30" transform="translate(452, 950)" text-anchor="middle" dominant-baseline="middle" stroke="none" fill="black">20</text>
        <path d="M 468.6 920 L 468.6 910" />
        <path d="M 485.2 920 L 485.2 910" />
        <path d="M 501.8 920 L 501.8 910" />
        <path d="M 518.4 920 L 518.4 910" />
        <path d="M 535 920 L 535 910" />
        <path d="M 551.6 920 L 551.6 910" />
        <path d="M 568.2 920 L 568.2 910" />
        <path d="M 584.8 920 L 584.8 910" />
        <path d="M 601.4 920 L 601.4 910" />
        <path d="M 618 920 L 618 900" />
        <text font-size="30" transform="translate(618, 950)" text-anchor="middle" dominant-baseline="middle" stroke="none" fill="black">30</text>
        <path d="M 634.6 920 L 634.6 910" />
        <path d="M 651.2 920 L 651.2 910" />
        <path d="M 667.8 920 L 667.8 910" />
        <path d="M 684.4 920 L 684.4 910" />
        <path d="M 701 920 L 701 910" />
        <path d="M 717.6 920 L 717.6 910" />
        <path d="M 734.2 920 L 734.2 910" />
        <path d="M 750.8 920 L 750.8 910" />
        <path d="M 767.4 920 L 767.4 910" />
        <path d="M 784 920 L 784 900" />
        <text font-size="30" transform="translate(784, 950)" text-anchor="middle" dominant-baseline="middle" stroke="none" fill="black">40</text>
        <path d="M 800.6 920 L 800.6 910" />
        <path d="M 817.2 920 L 817.2 910" />
        <path d="M 833.8 920 L 833.8 910" />
        <path d="M 850.4 920 L 850.4 910" />
        <path d="M 867 920 L 867 910" />
        <path d="M 883.6 920 L 883.6 910" />
        <path d="M 900.2 920 L 900.2 910" />
        <path d="M 916.8 920 L 916.8 910" />
        <path d="M 933.4 920 L 933.4 910" />
        <path d="M 950 920 L 950 900" />
        <text font-size="30" transform="translate(950, 950)" text-anchor="middle" dominant-baseline="middle" stroke="none" fill="black">50</text>
    </g>
    <g id="frame_0_leftticks">
        <path d="M 120 593.229 L 130 593.229" />
        <path d="M 120 429.843 L 130 429.843" />
        <path d="M 120 368.573 L 130 368.573" />
        <path d="M 120 491.113 L 130 491.113" />
        <path d="M 120 225.611 L 130 225.611" />
        <path d="M 120 388.997 L 130 388.997" />
        <path d="M 120 777.038 L 130 777.038" />
        <path d="M 120 817.884 L 140 817.884" />
        <text font-size="30" transform="translate(110, 827.884)" text-anchor="end" dominant-baseline="middle" stroke="none" fill="black">5000</text>
        <path d="M 120 286.881 L 130 286.881" />
        <path d="M 120 920 L 140 920" />
        <text font-size="30" transform="translate(110, 930)" text-anchor="end" dominant-baseline="middle" stroke="none" fill="black">0</text>
        <path d="M 120 715.768 L 140 715.768" />
        <text font-size="30" transform="translate(110, 725.768)" text-anchor="end" dominant-baseline="middle" stroke="none" fill="black">10000</text>
        <path d="M 120 123.495 L 130 123.495" />
        <path d="M 120 838.307 L 130 838.307" />
        <path d="M 120 470.689 L 130 470.689" />
        <path d="M 120 511.536 L 140 511.536" />
        <text font-size="30" transform="translate(110, 521.536)" text-anchor="end" dominant-baseline="middle" stroke="none" fill="black">20000</text>
        <path d="M 120 736.191 L 130 736.191" />
        <path d="M 120 613.652 L 140 613.652" />
        <text font-size="30" transform="translate(110, 623.652)" text-anchor="end" dominant-baseline="middle" stroke="none" fill="black">15000</text>
        <path d="M 120 184.765 L 130 184.765" />
        <path d="M 120 634.075 L 130 634.075" />
        <path d="M 120 327.727 L 130 327.727" />
        <path d="M 120 82.6485 L 130 82.6485" />
        <path d="M 120 531.959 L 130 531.959" />
        <path d="M 120 246.034 L 130 246.034" />
        <path d="M 120 756.614 L 130 756.614" />
        <path d="M 120 348.15 L 130 348.15" />
        <path d="M 120 409.42 L 140 409.42" />
        <text font-size="30" transform="translate(110, 419.42)" text-anchor="end" dominant-baseline="middle" stroke="none" fill="black">25000</text>
        <path d="M 120 654.498 L 130 654.498" />
        <path d="M 120 143.918 L 130 143.918" />
        <path d="M 120 307.304 L 140 307.304" />
        <text font-size="30" transform="translate(110, 317.304)" text-anchor="end" dominant-baseline="middle" stroke="none" fill="black">30000</text>
        <path d="M 120 552.382 L 130 552.382" />
        <path d="M 120 858.73 L 130 858.73" />
        <path d="M 120 450.266 L 130 450.266" />
        <path d="M 120 205.188 L 140 205.188" />
        <text font-size="30" transform="translate(110, 215.188)" text-anchor="end" dominant-baseline="middle" stroke="none" fill="black">35000</text>
        <path d="M 120 674.922 L 130 674.922" />
        <path d="M 120 879.154 L 130 879.154" />
        <path d="M 120 899.577 L 130 899.577" />
        <path d="M 120 62.2253 L 130 62.2253" />
        <path d="M 120 266.457 L 130 266.457" />
        <path d="M 120 797.461 L 130 797.461" />
        <path d="M 120 572.805 L 130 572.805" />
        <path d="M 120 103.072 L 140 103.072" />
        <text font-size="30" transform="translate(110, 113.072)" text-anchor="end" dominant-baseline="middle" stroke="none" fill="black">40000</text>
        <path d="M 120 695.345 L 130 695.345" />
        <path d="M 120 164.341 L 130 164.341" />
    </g>
    <text id="frame_0_toplabel" font-size="30" transform="translate(535, 32.6)" text-anchor="middle" dominant-baseline="middle" stroke="none" fill="black">prob.dist.geometricCDF</text>
    <g id="frame_0_topticks">
        <path d="M 120 50 L 120 70" />
        <path d="M 136.6 50 L 136.6 60" />
        <path d="M 153.2 50 L 153.2 60" />
        <path d="M 169.8 50 L 169.8 60" />
        <path d="M 186.4 50 L 186.4 60" />
        <path d="M 203 50 L 203 60" />
        <path d="M 219.6 50 L 219.6 60" />
        <path d="M 236.2 50 L 236.2 60" />
        <path d="M 252.8 50 L 252.8 60" />
        <path d="M 269.4 50 L 269.4 60" />
        <path d="M 286 50 L 286 70" />
        <path d="M 302.6 50 L 302.6 60" />
        <path d="M 319.2 50 L 319.2 60" />
        <path d="M 335.8 50 L 335.8 60" />
        <path d="M 352.4 50 L 352.4 60" />
        <path d="M 369 50 L 369 60" />
        <path d="M 385.6 50 L 385.6 60" />
        <path d="M 402.2 50 L 402.2 60" />
        <path d="M 418.8 50 L 418.8 60" />
        <path d="M 435.4 50 L 435.4 60" />
        <path d="M 452 50 L 452 70" />
        <path d="M 468.6 50 L 468.6 60" />
        <path d="M 485.2 50 L 485.2 60" />
        <path d="M 501.8 50 L 501.8 60" />
        <path d="M 518.4 50 L 518.4 60" />
        <path d="M 535 50 L 535 60" />
        <path d="M 551.6 50 L 551.6 60" />
        <path d="M 568.2 50 L 568.2 60" />
        <path d="M 584.8 50 L 584.8 60" />
        <path d="M 601.4 50 L 601.4 60" />
        <path d="M 618 50 L 618 70" />
        <path d="M 634.6 50 L 634.6 60" />
        <path d="M 651.2 50 L 651.2 60" />
        <path d="M 667.8 50 L 667.8 60" />
        <path d="M 684.4 50 L 684.4 60" />
        <path d="M 701 50 L 701 60" />
        <path d="M 717.6 50 L 717.6 60" />
        <path d="M 734.2 50 L 734.2 60" />
        <path d="M 750.8 50 L 750.8 60" />
        <path d="M 767.4 50 L 767.4 60" />
        <path d="M 784 50 L 784 70" />
        <path d="M 800.6 50 L 800.6 60" />
        <path d="M 817.2 50 L 817.2 60" />
        <path d="M 833.8 50 L 833.8 60" />
        <path d="M 850.4 50 L 850.4 60" />
        <path d="M 867 50 L 867 60" />
        <path d="M 883.6 50 L 883.6 60" />
        <path d="M 900.2 50 L 900.2 60" />
        <path d="M 916.8 50 L 916.8 60" />
        <path d="M 933.4 50 L 933.4 60" />
        <path d="M 950 50 L 950 70" />
    </g>
    <g id="frame_0_rightticks">
        <path d="M 950 593.229 L 940 593.229" />
        <path d="M 950 429.843 L 940 429.843" />
        <path d="M 950 368.573 L 940 368.573" />
        <path d="M 950 491.113 L 940 491.113" />
        <path d="M 950 225.611 L 940 225.611" />
        <path d="M 950 388.997 L 940 388.997" />
        <path d="M 950 777.038 L 940 777.038" />
        <path d="M 950 817.884 L 930 817.884" />
        <path d="M 950 286.881 L 940 286.881" />
        <path d="M 950 920 L 930 920" />
        <path d="M 950 715.768 L 930 715.768" />
        <path d="M 950 123.495 L 940 123.495" />
        <path d="M 950 838.307 L 940 838.307" />
        <path d="M 950 470.689 L 940 470.689" />
        <path d="M 950 511.536 L 930 511.536" />
        <path d="M 950 736.191 L 940 736.191" />
        <path d="M 950 613.652 L 930 613.652" />
        <path d="M 950 184.765 L 940 184.765" />
        <path d="M 950 634.075 L 940 634.075" />
        <path d="M 950 327.727 L 940 327.727" />
        <path d="M 950 82.6485 L 940 82.6485" />
        <path d="M 950 531.959 L 940 531.959" />
        <path d="M 950 246.034 L 940 246.034" />
        <path d="M 950 756.614 L 940 756.614" />
        <path d="M 950 348.15 L 940 348.15" />
        <path d="M 950 409.42 L 930 409.42" />
        <path d="M 950 654.498 L 940 654.498" />
        <path d="M 950 143.918 L 940 143.918" />
        <path d="M 950 307.304 L 930 307.304" />
        <path d="M 950 552.382 L 940 552.382" />
        <path d="M 950 858.73 L 940 858.73" />
        <path d="M 950 450.266 L 940 450.266" />
        <path d="M 950 205.188 L 930 205.188" />
        <path d="M 950 674.922 L 940 674.922" />
        <path d="M 950 879.154 L 940 879.154" />
        <path d="M 950 899.577 L 940 899.577" />
        <path d="M 950 62.2253 L 940 62.2253" />
        <path d="M 950 266.457 L 940 266.457" />
        <path d="M 950 797.461 L 940 797.461" />
        <path d="M 950 572.805 L 940 572.805" />
        <path d="M 950 103.072 L 930 103.072" />
        <path d="M 950 695.345 L 940 695.345" />
        <path d="M 950 164.341 L 940 164.341" />
    </g>
</g>
</g>
</svg>
