<?xml version="1.0" standalone="no"?>
<!DOCTYPE svg PUBLIC "-//W3C//DTD SVG 1.1//EN" "http://www.w3.org/Graphics/SVG/1.1/DTD/svg11.dtd">
<svg style="stroke-linejoin:miter; stroke:black; stroke-width:2.5; text-anchor:middle; fill:none" xmlns="http://www.w3.org/2000/svg" font-family="Helvetica, Arial, FreeSans, Sans, sans, sans-serif" width="1000px" height="1000px" version="1.1" xmlns:xlink="http://www.w3.org/1999/xlink" viewBox="0 0 1000 1000">
<defs>
    <clipPath id="Histogram_0_clip">
        <rect x="120" y="50" width="830" height="870" />
    </clipPath>
    <clipPath id="Histogram_1_clip">
        <rect x="120" y="50" width="830" height="870" />
    </clipPath>
</defs>
<g id="whole_document">
<rect id="background" x="0" y="0" width="1000" height="1000" stroke="none" fill="white" />
<g id="Histogram_0" clip-path="url(#Histogram_0_clip)">
    <path d="M 120 920 L 120 129.091 L 161.5 129.091 L 161.5 914.226 L 203 914.226 L 203 920 L 244.5 920 L 244.5 920 L 286 920 L 286 919.908 L 327.5 919.908 L 327.5 920 L 369 920 L 369 920 L 410.5 920 L 410.5 920 L 452 920 L 452 919.95 L 493.5 919.95 L 493.5 920 L 535 920 L 535 920 L 576.5 920 L 576.5 920 L 618 920 L 618 920 L 659.5 920 L 659.5 920 L 701 920 L 701 920 L 742.5 920 L 742.5 920 L 784 920 L 784 920 L 825.5 920 L 825.5 920 L 867 920 L 867 920 L 908.5 920 L 908.5 920 L 950 920 L 950 920" stroke-width="3" stroke-dasharray="" stroke="black" stroke-opacity="1" fill="DodgerBlue" fill-opacity="1" />
</g>
<g id="Histogram_1" clip-path="url(#Histogram_1_clip)">
    <path d="M 120 920 L 120 920 L 161.5 920 L 161.5 920 L 203 920 L 203 920 L 244.5 920 L 244.5 920 L 286 920 L 286 919.908 L 327.5 919.908 L 327.5 920 L 369 920 L 369 920 L 410.5 920 L 410.5 920 L 452 920 L 452 919.95 L 493.5 919.95 L 493.5 920 L 535 920 L 535 920 L 576.5 920 L 576.5 920 L 618 920 L 618 920 L 659.5 920 L 659.5 920 L 701 920 L 701 920 L 742.5 920 L 742.5 920 L 784 920 L 784 920 L 825.5 920 L 825.5 920 L 867 920 L 867 920 L 908.5 920 L 908.5 920 L 950 920 L 950 920" stroke-width="3" stroke-dasharray="" stroke="black" stroke-opacity="1" fill="darkorange" fill-opacity="1" />
</g>
<g id="frame_0">
    <rect id="frame_0_border" x="120" y="50" width="830" height="870" />
    <text id="frame_0_bottomlabel" font-size="30" transform="translate(535, 989.6)" text-anchor="middle" dominant-baseline="middle" stroke="none" fill="black">microseconds</text>
    <g id="frame_0_bottomticks">
        <path d="M 120 920 L 120 900" />
        <text font-size="30" transform="translate(120, 950)" text-anchor="middle" dominant-baseline="middle" stroke="none" fill="black">0</text>
        <path d="M 136.6 920 L 136.6 910" />
        <path d="M 153.2 920 L 153.2 910" />
        <path d="M 169.8 920 L 169.8 910" />
        <path d="M 186.4 920 L 186.4 910" />
        <path d="M 203 920 L 203 910" />
        <path d="M 219.6 920 L 219.6 910" />
        <path d="M 236.2 920 L 236.2 910" />
        <path d="M 252.8 920 L 252.8 910" />
        <path d="M 269.4 920 L 269.4 910" />
        <path d="M 286 920 L 286 900" />
        <text font-size="30" transform="translate(286, 950)" text-anchor="middle" dominant-baseline="middle" stroke="none" fill="black">10</text>
        <path d="M 302.6 920 L 302.6 910" />
        <path d="M 319.2 920 L 319.2 910" />
        <path d="M 335.8 920 L 335.8 910" />
        <path d="M 352.4 920 L 352.4 910" />
        <path d="M 369 920 L 369 910" />
        <path d="M 385.6 920 L 385.6 910" />
        <path d="M 402.2 920 L 402.2 910" />
        <path d="M 418.8 920 L 418.8 910" />
        <path d="M 435.4 920 L 435.4 910" />
        <path d="M 452 920 L 452 900" />
        <text font-size="30" transform="translate(452, 950)" text-anchor="middle" dominant-baseline="middle" stroke="none" fill="black">20</text>
        <path d="M 468.6 920 L 468.6 910" />
        <path d="M 485.2 920 L 485.2 910" />
        <path d="M 501.8 920 L 501.8 910" />
        <path d="M 518.4 920 L 518.4 910" />
        <path d="M 535 920 L 535 910" />
        <path d="M 551.6 920 L 551.6 910" />
        <path d="M 568.2 920 L 568.2 910" />
        <path d="M 584.8 920 L 584.8 910" />
        <path d="M 601.4 920 L 601.4 910" />
        <path d="M 618 920 L 618 900" />
        <text font-size="30" transform="translate(618, 950)" text-anchor="middle" dominant-baseline="middle" stroke="none" fill="black">30</text>
        <path d="M 634.6 920 L 634.6 910" />
        <path d="M 651.2 920 L 651.2 910" />
        <path d="M 667.8 920 L 667.8 910" />
        <path d="M 684.4 920 L 684.4 910" />
        <path d="M 701 920 L 701 910" />
        <path d="M 717.6 920 L 717.6 910" />
        <path d="M 734.2 920 L 734.2 910" />
        <path d="M 750.8 920 L 750.8 910" />
        <path d="M 767.4 920 L 767.4 910" />
        <path d="M 784 920 L 784 900" />
        <text font-size="30" transform="translate(784, 950)" text-anchor="middle" dominant-baseline="middle" stroke="none" fill="black">40</text>
        <path d="M 800.6 920 L 800.6 910" />
        <path d="M 817.2 920 L 817.2 910" />
        <path d="M 833.8 920 L 833.8 910" />
        <path d="M 850.4 920 L 850.4 910" />
        <path d="M 867 920 L 867 910" />
        <path d="M 883.6 920 L 883.6 910" />
        <path d="M 900.2 920 L 900.2 910" />
        <path d="M 916.8 920 L 916.8 910" />
        <path d="M 933.4 920 L 933.4 910" />
        <path d="M 950 920 L 950 900" />
        <text font-size="30" transform="translate(950, 950)" text-anchor="middle" dominant-baseline="middle" stroke="none" fill="black">50</text>
    </g>
    <g id="frame_0_leftticks">
        <path d="M 120 833.028 L 130 833.028" />
        <path d="M 120 789.543 L 130 789.543" />
        <path d="M 120 126.385 L 130 126.385" />
        <path d="M 120 637.343 L 130 637.343" />
        <path d="M 120 409.042 L 130 409.042" />
        <path d="M 120 920 L 140 920" />
        <text font-size="30" transform="translate(110, 930)" text-anchor="end" dominant-baseline="middle" stroke="none" fill="black">0</text>
        <path d="M 120 691.7 L 130 691.7" />
        <path d="M 120 463.4 L 130 463.4" />
        <path d="M 120 485.142 L 140 485.142" />
        <text font-size="30" transform="translate(110, 495.142)" text-anchor="end" dominant-baseline="middle" stroke="none" fill="black">400000</text>
        <path d="M 120 235.099 L 130 235.099" />
        <path d="M 120 746.057 L 130 746.057" />
        <path d="M 120 822.157 L 130 822.157" />
        <path d="M 120 289.457 L 130 289.457" />
        <path d="M 120 61.1564 L 130 61.1564" />
        <path d="M 120 572.114 L 130 572.114" />
        <path d="M 120 343.814 L 130 343.814" />
        <path d="M 120 626.471 L 130 626.471" />
        <path d="M 120 909.129 L 130 909.129" />
        <path d="M 120 898.257 L 130 898.257" />
        <path d="M 120 800.414 L 130 800.414" />
        <path d="M 120 452.528 L 130 452.528" />
        <path d="M 120 224.228 L 130 224.228" />
        <path d="M 120 506.885 L 130 506.885" />
        <path d="M 120 332.942 L 130 332.942" />
        <path d="M 120 278.585 L 130 278.585" />
        <path d="M 120 158.999 L 140 158.999" />
        <text font-size="30" transform="translate(110, 168.999)" text-anchor="end" dominant-baseline="middle" stroke="none" fill="black">700000</text>
        <path d="M 120 561.243 L 130 561.243" />
        <path d="M 120 72.0278 L 130 72.0278" />
        <path d="M 120 887.386 L 130 887.386" />
        <path d="M 120 865.643 L 130 865.643" />
        <path d="M 120 104.642 L 130 104.642" />
        <path d="M 120 615.6 L 130 615.6" />
        <path d="M 120 387.3 L 130 387.3" />
        <path d="M 120 202.485 L 130 202.485" />
        <path d="M 120 669.957 L 130 669.957" />
        <path d="M 120 843.9 L 130 843.9" />
        <path d="M 120 441.657 L 130 441.657" />
        <path d="M 120 213.357 L 130 213.357" />
        <path d="M 120 724.314 L 130 724.314" />
        <path d="M 120 876.514 L 130 876.514" />
        <path d="M 120 680.828 L 130 680.828" />
        <path d="M 120 496.014 L 130 496.014" />
        <path d="M 120 267.714 L 140 267.714" />
        <text font-size="30" transform="translate(110, 277.714)" text-anchor="end" dominant-baseline="middle" stroke="none" fill="black">600000</text>
        <path d="M 120 550.371 L 130 550.371" />
        <path d="M 120 322.071 L 130 322.071" />
        <path d="M 120 702.571 L 140 702.571" />
        <text font-size="30" transform="translate(110, 712.571)" text-anchor="end" dominant-baseline="middle" stroke="none" fill="black">200000</text>
        <path d="M 120 604.728 L 130 604.728" />
        <path d="M 120 376.428 L 140 376.428" />
        <text font-size="30" transform="translate(110, 386.428)" text-anchor="end" dominant-baseline="middle" stroke="none" fill="black">500000</text>
        <path d="M 120 778.671 L 130 778.671" />
        <path d="M 120 148.128 L 130 148.128" />
        <path d="M 120 659.085 L 130 659.085" />
        <path d="M 120 430.785 L 130 430.785" />
        <path d="M 120 713.443 L 130 713.443" />
        <path d="M 120 115.514 L 130 115.514" />
        <path d="M 120 180.742 L 130 180.742" />
        <path d="M 120 256.842 L 130 256.842" />
        <path d="M 120 767.8 L 130 767.8" />
        <path d="M 120 539.5 L 130 539.5" />
        <path d="M 120 854.771 L 130 854.771" />
        <path d="M 120 735.186 L 130 735.186" />
        <path d="M 120 311.199 L 130 311.199" />
        <path d="M 120 93.7707 L 130 93.7707" />
        <path d="M 120 82.8993 L 130 82.8993" />
        <path d="M 120 593.857 L 140 593.857" />
        <text font-size="30" transform="translate(110, 603.857)" text-anchor="end" dominant-baseline="middle" stroke="none" fill="black">300000</text>
        <path d="M 120 169.871 L 130 169.871" />
        <path d="M 120 517.757 L 130 517.757" />
        <path d="M 120 648.214 L 130 648.214" />
        <path d="M 120 398.171 L 130 398.171" />
        <path d="M 120 419.914 L 130 419.914" />
        <path d="M 120 191.614 L 130 191.614" />
        <path d="M 120 756.928 L 130 756.928" />
        <path d="M 120 137.256 L 130 137.256" />
        <path d="M 120 474.271 L 130 474.271" />
        <path d="M 120 50.2849 L 140 50.2849" />
        <text font-size="30" transform="translate(110, 60.2849)" text-anchor="end" dominant-baseline="middle" stroke="none" fill="black">800000</text>
        <path d="M 120 245.971 L 130 245.971" />
        <path d="M 120 365.557 L 130 365.557" />
        <path d="M 120 528.628 L 130 528.628" />
        <path d="M 120 300.328 L 130 300.328" />
        <path d="M 120 811.286 L 140 811.286" />
        <text font-size="30" transform="translate(110, 821.286)" text-anchor="end" dominant-baseline="middle" stroke="none" fill="black">100000</text>
        <path d="M 120 354.685 L 130 354.685" />
        <path d="M 120 582.985 L 130 582.985" />
    </g>
    <text id="frame_0_toplabel" font-size="30" transform="translate(535, 32.6)" text-anchor="middle" dominant-baseline="middle" stroke="none" fill="black">-</text>
    <g id="frame_0_topticks">
        <path d="M 120 50 L 120 70" />
        <path d="M 136.6 50 L 136.6 60" />
        <path d="M 153.2 50 L 153.2 60" />
        <path d="M 169.8 50 L 169.8 60" />
        <path d="M 186.4 50 L 186.4 60" />
        <path d="M 203 50 L 203 60" />
        <path d="M 219.6 50 L 219.6 60" />
        <path d="M 236.2 50 L 236.2 60" />
        <path d="M 252.8 50 L 252.8 60" />
        <path d="M 269.4 50 L 269.4 60" />
        <path d="M 286 50 L 286 70" />
        <path d="M 302.6 50 L 302.6 60" />
        <path d="M 319.2 50 L 319.2 60" />
        <path d="M 335.8 50 L 335.8 60" />
        <path d="M 352.4 50 L 352.4 60" />
        <path d="M 369 50 L 369 60" />
        <path d="M 385.6 50 L 385.6 60" />
        <path d="M 402.2 50 L 402.2 60" />
        <path d="M 418.8 50 L 418.8 60" />
        <path d="M 435.4 50 L 435.4 60" />
        <path d="M 452 50 L 452 70" />
        <path d="M 468.6 50 L 468.6 60" />
        <path d="M 485.2 50 L 485.2 60" />
        <path d="M 501.8 50 L 501.8 60" />
        <path d="M 518.4 50 L 518.4 60" />
        <path d="M 535 50 L 535 60" />
        <path d="M 551.6 50 L 551.6 60" />
        <path d="M 568.2 50 L 568.2 60" />
        <path d="M 584.8 50 L 584.8 60" />
        <path d="M 601.4 50 L 601.4 60" />
        <path d="M 618 50 L 618 70" />
        <path d="M 634.6 50 L 634.6 60" />
        <path d="M 651.2 50 L 651.2 60" />
        <path d="M 667.8 50 L 667.8 60" />
        <path d="M 684.4 50 L 684.4 60" />
        <path d="M 701 50 L 701 60" />
        <path d="M 717.6 50 L 717.6 60" />
        <path d="M 734.2 50 L 734.2 60" />
        <path d="M 750.8 50 L 750.8 60" />
        <path d="M 767.4 50 L 767.4 60" />
        <path d="M 784 50 L 784 70" />
        <path d="M 800.6 50 L 800.6 60" />
        <path d="M 817.2 50 L 817.2 60" />
        <path d="M 833.8 50 L 833.8 60" />
        <path d="M 850.4 50 L 850.4 60" />
        <path d="M 867 50 L 867 60" />
        <path d="M 883.6 50 L 883.6 60" />
        <path d="M 900.2 50 L 900.2 60" />
        <path d="M 916.8 50 L 916.8 60" />
        <path d="M 933.4 50 L 933.4 60" />
        <path d="M 950 50 L 950 70" />
    </g>
    <g id="frame_0_rightticks">
        <path d="M 950 833.028 L 940 833.028" />
        <path d="M 950 789.543 L 940 789.543" />
        <path d="M 950 126.385 L 940 126.385" />
        <path d="M 950 637.343 L 940 637.343" />
        <path d="M 950 409.042 L 940 409.042" />
        <path d="M 950 920 L 930 920" />
        <path d="M 950 691.7 L 940 691.7" />
        <path d="M 950 463.4 L 940 463.4" />
        <path d="M 950 485.142 L 930 485.142" />
        <path d="M 950 235.099 L 940 235.099" />
        <path d="M 950 746.057 L 940 746.057" />
        <path d="M 950 822.157 L 940 822.157" />
        <path d="M 950 289.457 L 940 289.457" />
        <path d="M 950 61.1564 L 940 61.1564" />
        <path d="M 950 572.114 L 940 572.114" />
        <path d="M 950 343.814 L 940 343.814" />
        <path d="M 950 626.471 L 940 626.471" />
        <path d="M 950 909.129 L 940 909.129" />
        <path d="M 950 898.257 L 940 898.257" />
        <path d="M 950 800.414 L 940 800.414" />
        <path d="M 950 452.528 L 940 452.528" />
        <path d="M 950 224.228 L 940 224.228" />
        <path d="M 950 506.885 L 940 506.885" />
        <path d="M 950 332.942 L 940 332.942" />
        <path d="M 950 278.585 L 940 278.585" />
        <path d="M 950 158.999 L 930 158.999" />
        <path d="M 950 561.243 L 940 561.243" />
        <path d="M 950 72.0278 L 940 72.0278" />
        <path d="M 950 887.386 L 940 887.386" />
        <path d="M 950 865.643 L 940 865.643" />
        <path d="M 950 104.642 L 940 104.642" />
        <path d="M 950 615.6 L 940 615.6" />
        <path d="M 950 387.3 L 940 387.3" />
        <path d="M 950 202.485 L 940 202.485" />
        <path d="M 950 669.957 L 940 669.957" />
        <path d="M 950 843.9 L 940 843.9" />
        <path d="M 950 441.657 L 940 441.657" />
        <path d="M 950 213.357 L 940 213.357" />
        <path d="M 950 724.314 L 940 724.314" />
        <path d="M 950 876.514 L 940 876.514" />
        <path d="M 950 680.828 L 940 680.828" />
        <path d="M 950 496.014 L 940 496.014" />
        <path d="M 950 267.714 L 930 267.714" />
        <path d="M 950 550.371 L 940 550.371" />
        <path d="M 950 322.071 L 940 322.071" />
        <path d="M 950 702.571 L 930 702.571" />
        <path d="M 950 604.728 L 940 604.728" />
        <path d="M 950 376.428 L 930 376.428" />
        <path d="M 950 778.671 L 940 778.671" />
        <path d="M 950 148.128 L 940 148.128" />
        <path d="M 950 659.085 L 940 659.085" />
        <path d="M 950 430.785 L 940 430.785" />
        <path d="M 950 713.443 L 940 713.443" />
        <path d="M 950 115.514 L 940 115.514" />
        <path d="M 950 180.742 L 940 180.742" />
        <path d="M 950 256.842 L 940 256.842" />
        <path d="M 950 767.8 L 940 767.8" />
        <path d="M 950 539.5 L 940 539.5" />
        <path d="M 950 854.771 L 940 854.771" />
        <path d="M 950 735.186 L 940 735.186" />
        <path d="M 950 311.199 L 940 311.199" />
        <path d="M 950 93.7707 L 940 93.7707" />
        <path d="M 950 82.8993 L 940 82.8993" />
        <path d="M 950 593.857 L 930 593.857" />
        <path d="M 950 169.871 L 940 169.871" />
        <path d="M 950 517.757 L 940 517.757" />
        <path d="M 950 648.214 L 940 648.214" />
        <path d="M 950 398.171 L 940 398.171" />
        <path d="M 950 419.914 L 940 419.914" />
        <path d="M 950 191.614 L 940 191.614" />
        <path d="M 950 756.928 L 940 756.928" />
        <path d="M 950 137.256 L 940 137.256" />
        <path d="M 950 474.271 L 940 474.271" />
        <path d="M 950 50.2849 L 930 50.2849" />
        <path d="M 950 245.971 L 940 245.971" />
        <path d="M 950 365.557 L 940 365.557" />
        <path d="M 950 528.628 L 940 528.628" />
        <path d="M 950 300.328 L 940 300.328" />
        <path d="M 950 811.286 L 930 811.286" />
        <path d="M 950 354.685 L 940 354.685" />
        <path d="M 950 582.985 L 940 582.985" />
    </g>
</g>
</g>
</svg>
