<?xml version="1.0" standalone="no"?>
<!DOCTYPE svg PUBLIC "-//W3C//DTD SVG 1.1//EN" "http://www.w3.org/Graphics/SVG/1.1/DTD/svg11.dtd">
<svg style="stroke-linejoin:miter; stroke:black; stroke-width:2.5; text-anchor:middle; fill:none" xmlns="http://www.w3.org/2000/svg" font-family="Helvetica, Arial, FreeSans, Sans, sans, sans-serif" width="1000px" height="1000px" version="1.1" xmlns:xlink="http://www.w3.org/1999/xlink" viewBox="0 0 1000 1000">
<defs>
    <clipPath id="Histogram_0_clip">
        <rect x="120" y="50" width="830" height="870" />
    </clipPath>
</defs>
<g id="whole_document">
<rect id="background" x="0" y="0" width="1000" height="1000" stroke="none" fill="white" />
<g id="Histogram_0" clip-path="url(#Histogram_0_clip)">
    <path d="M 120 920 L 120 129.091 L 161.5 129.091 L 161.5 920 L 203 920 L 203 920 L 244.5 920 L 244.5 920 L 286 920 L 286 920 L 327.5 920 L 327.5 920 L 369 920 L 369 920 L 410.5 920 L 410.5 920 L 452 920 L 452 920 L 493.5 920 L 493.5 920 L 535 920 L 535 920 L 576.5 920 L 576.5 920 L 618 920 L 618 920 L 659.5 920 L 659.5 920 L 701 920 L 701 920 L 742.5 920 L 742.5 920 L 784 920 L 784 920 L 825.5 920 L 825.5 920 L 867 920 L 867 920 L 908.5 920 L 908.5 920 L 950 920 L 950 920" stroke-width="3" stroke-dasharray="" stroke="black" stroke-opacity="1" fill="DodgerBlue" fill-opacity="1" />
</g>
<g id="frame_0">
    <rect id="frame_0_border" x="120" y="50" width="830" height="870" />
    <text id="frame_0_bottomlabel" font-size="30" transform="translate(535, 989.6)" text-anchor="middle" dominant-baseline="middle" stroke="none" fill="black">microseconds</text>
    <g id="frame_0_bottomticks">
        <path d="M 120 920 L 120 900" />
        <text font-size="30" transform="translate(120, 950)" text-anchor="middle" dominant-baseline="middle" stroke="none" fill="black">0</text>
        <path d="M 136.6 920 L 136.6 910" />
        <path d="M 153.2 920 L 153.2 910" />
        <path d="M 169.8 920 L 169.8 910" />
        <path d="M 186.4 920 L 186.4 910" />
        <path d="M 203 920 L 203 910" />
        <path d="M 219.6 920 L 219.6 910" />
        <path d="M 236.2 920 L 236.2 910" />
        <path d="M 252.8 920 L 252.8 910" />
        <path d="M 269.4 920 L 269.4 910" />
        <path d="M 286 920 L 286 900" />
        <text font-size="30" transform="translate(286, 950)" text-anchor="middle" dominant-baseline="middle" stroke="none" fill="black">10</text>
        <path d="M 302.6 920 L 302.6 910" />
        <path d="M 319.2 920 L 319.2 910" />
        <path d="M 335.8 920 L 335.8 910" />
        <path d="M 352.4 920 L 352.4 910" />
        <path d="M 369 920 L 369 910" />
        <path d="M 385.6 920 L 385.6 910" />
        <path d="M 402.2 920 L 402.2 910" />
        <path d="M 418.8 920 L 418.8 910" />
        <path d="M 435.4 920 L 435.4 910" />
        <path d="M 452 920 L 452 900" />
        <text font-size="30" transform="translate(452, 950)" text-anchor="middle" dominant-baseline="middle" stroke="none" fill="black">20</text>
        <path d="M 468.6 920 L 468.6 910" />
        <path d="M 485.2 920 L 485.2 910" />
        <path d="M 501.8 920 L 501.8 910" />
        <path d="M 518.4 920 L 518.4 910" />
        <path d="M 535 920 L 535 910" />
        <path d="M 551.6 920 L 551.6 910" />
        <path d="M 568.2 920 L 568.2 910" />
        <path d="M 584.8 920 L 584.8 910" />
        <path d="M 601.4 920 L 601.4 910" />
        <path d="M 618 920 L 618 900" />
        <text font-size="30" transform="translate(618, 950)" text-anchor="middle" dominant-baseline="middle" stroke="none" fill="black">30</text>
        <path d="M 634.6 920 L 634.6 910" />
        <path d="M 651.2 920 L 651.2 910" />
        <path d="M 667.8 920 L 667.8 910" />
        <path d="M 684.4 920 L 684.4 910" />
        <path d="M 701 920 L 701 910" />
        <path d="M 717.6 920 L 717.6 910" />
        <path d="M 734.2 920 L 734.2 910" />
        <path d="M 750.8 920 L 750.8 910" />
        <path d="M 767.4 920 L 767.4 910" />
        <path d="M 784 920 L 784 900" />
        <text font-size="30" transform="translate(784, 950)" text-anchor="middle" dominant-baseline="middle" stroke="none" fill="black">40</text>
        <path d="M 800.6 920 L 800.6 910" />
        <path d="M 817.2 920 L 817.2 910" />
        <path d="M 833.8 920 L 833.8 910" />
        <path d="M 850.4 920 L 850.4 910" />
        <path d="M 867 920 L 867 910" />
        <path d="M 883.6 920 L 883.6 910" />
        <path d="M 900.2 920 L 900.2 910" />
        <path d="M 916.8 920 L 916.8 910" />
        <path d="M 933.4 920 L 933.4 910" />
        <path d="M 950 920 L 950 900" />
        <text font-size="30" transform="translate(950, 950)" text-anchor="middle" dominant-baseline="middle" stroke="none" fill="black">50</text>
    </g>
    <g id="frame_0_leftticks">
        <path d="M 120 819.574 L 130 819.574" />
        <path d="M 120 769.362 L 130 769.362" />
        <path d="M 120 593.617 L 130 593.617" />
        <path d="M 120 330 L 130 330" />
        <path d="M 120 920 L 140 920" />
        <text font-size="30" transform="translate(110, 930)" text-anchor="end" dominant-baseline="middle" stroke="none" fill="black">0</text>
        <path d="M 120 656.383 L 130 656.383" />
        <path d="M 120 392.766 L 130 392.766" />
        <path d="M 120 129.149 L 130 129.149" />
        <path d="M 120 719.149 L 130 719.149" />
        <path d="M 120 807.021 L 130 807.021" />
        <path d="M 120 191.915 L 130 191.915" />
        <path d="M 120 518.298 L 130 518.298" />
        <path d="M 120 254.681 L 130 254.681" />
        <path d="M 120 581.064 L 130 581.064" />
        <path d="M 120 907.447 L 130 907.447" />
        <path d="M 120 894.894 L 130 894.894" />
        <path d="M 120 781.915 L 130 781.915" />
        <path d="M 120 380.213 L 130 380.213" />
        <path d="M 120 116.595 L 130 116.595" />
        <path d="M 120 442.979 L 130 442.979" />
        <path d="M 120 242.127 L 130 242.127" />
        <path d="M 120 179.361 L 130 179.361" />
        <path d="M 120 505.745 L 130 505.745" />
        <path d="M 120 882.34 L 130 882.34" />
        <path d="M 120 857.234 L 130 857.234" />
        <path d="M 120 568.511 L 130 568.511" />
        <path d="M 120 304.893 L 130 304.893" />
        <path d="M 120 91.4891 L 130 91.4891" />
        <path d="M 120 631.276 L 130 631.276" />
        <path d="M 120 832.128 L 130 832.128" />
        <path d="M 120 367.659 L 130 367.659" />
        <path d="M 120 104.042 L 130 104.042" />
        <path d="M 120 694.042 L 130 694.042" />
        <path d="M 120 869.787 L 130 869.787" />
        <path d="M 120 643.83 L 130 643.83" />
        <path d="M 120 430.425 L 130 430.425" />
        <path d="M 120 166.808 L 140 166.808" />
        <text font-size="30" transform="translate(110, 176.808)" text-anchor="end" dominant-baseline="middle" stroke="none" fill="black">600000</text>
        <path d="M 120 493.191 L 130 493.191" />
        <path d="M 120 229.574 L 130 229.574" />
        <path d="M 120 555.957 L 130 555.957" />
        <path d="M 120 292.34 L 140 292.34" />
        <text font-size="30" transform="translate(110, 302.34)" text-anchor="end" dominant-baseline="middle" stroke="none" fill="black">500000</text>
        <path d="M 120 756.808 L 130 756.808" />
        <path d="M 120 618.723 L 130 618.723" />
        <path d="M 120 355.106 L 130 355.106" />
        <path d="M 120 681.489 L 130 681.489" />
        <path d="M 120 66.3827 L 130 66.3827" />
        <path d="M 120 154.255 L 130 154.255" />
        <path d="M 120 744.255 L 130 744.255" />
        <path d="M 120 480.638 L 130 480.638" />
        <path d="M 120 844.681 L 130 844.681" />
        <path d="M 120 706.596 L 130 706.596" />
        <path d="M 120 217.021 L 130 217.021" />
        <path d="M 120 417.872 L 140 417.872" />
        <text font-size="30" transform="translate(110, 427.872)" text-anchor="end" dominant-baseline="middle" stroke="none" fill="black">400000</text>
        <path d="M 120 543.404 L 140 543.404" />
        <text font-size="30" transform="translate(110, 553.404)" text-anchor="end" dominant-baseline="middle" stroke="none" fill="black">300000</text>
        <path d="M 120 53.8295 L 130 53.8295" />
        <path d="M 120 455.532 L 130 455.532" />
        <path d="M 120 606.17 L 130 606.17" />
        <path d="M 120 317.447 L 130 317.447" />
        <path d="M 120 342.553 L 130 342.553" />
        <path d="M 120 78.9359 L 130 78.9359" />
        <path d="M 120 731.702 L 130 731.702" />
        <path d="M 120 405.319 L 130 405.319" />
        <path d="M 120 668.936 L 140 668.936" />
        <text font-size="30" transform="translate(110, 678.936)" text-anchor="end" dominant-baseline="middle" stroke="none" fill="black">200000</text>
        <path d="M 120 141.702 L 130 141.702" />
        <path d="M 120 279.787 L 130 279.787" />
        <path d="M 120 468.085 L 130 468.085" />
        <path d="M 120 204.468 L 130 204.468" />
        <path d="M 120 794.468 L 140 794.468" />
        <text font-size="30" transform="translate(110, 804.468)" text-anchor="end" dominant-baseline="middle" stroke="none" fill="black">100000</text>
        <path d="M 120 267.234 L 130 267.234" />
        <path d="M 120 530.851 L 130 530.851" />
    </g>
    <text id="frame_0_toplabel" font-size="30" transform="translate(535, 32.6)" text-anchor="middle" dominant-baseline="middle" stroke="none" fill="black">impute.defaultOnNonNum</text>
    <g id="frame_0_topticks">
        <path d="M 120 50 L 120 70" />
        <path d="M 136.6 50 L 136.6 60" />
        <path d="M 153.2 50 L 153.2 60" />
        <path d="M 169.8 50 L 169.8 60" />
        <path d="M 186.4 50 L 186.4 60" />
        <path d="M 203 50 L 203 60" />
        <path d="M 219.6 50 L 219.6 60" />
        <path d="M 236.2 50 L 236.2 60" />
        <path d="M 252.8 50 L 252.8 60" />
        <path d="M 269.4 50 L 269.4 60" />
        <path d="M 286 50 L 286 70" />
        <path d="M 302.6 50 L 302.6 60" />
        <path d="M 319.2 50 L 319.2 60" />
        <path d="M 335.8 50 L 335.8 60" />
        <path d="M 352.4 50 L 352.4 60" />
        <path d="M 369 50 L 369 60" />
        <path d="M 385.6 50 L 385.6 60" />
        <path d="M 402.2 50 L 402.2 60" />
        <path d="M 418.8 50 L 418.8 60" />
        <path d="M 435.4 50 L 435.4 60" />
        <path d="M 452 50 L 452 70" />
        <path d="M 468.6 50 L 468.6 60" />
        <path d="M 485.2 50 L 485.2 60" />
        <path d="M 501.8 50 L 501.8 60" />
        <path d="M 518.4 50 L 518.4 60" />
        <path d="M 535 50 L 535 60" />
        <path d="M 551.6 50 L 551.6 60" />
        <path d="M 568.2 50 L 568.2 60" />
        <path d="M 584.8 50 L 584.8 60" />
        <path d="M 601.4 50 L 601.4 60" />
        <path d="M 618 50 L 618 70" />
        <path d="M 634.6 50 L 634.6 60" />
        <path d="M 651.2 50 L 651.2 60" />
        <path d="M 667.8 50 L 667.8 60" />
        <path d="M 684.4 50 L 684.4 60" />
        <path d="M 701 50 L 701 60" />
        <path d="M 717.6 50 L 717.6 60" />
        <path d="M 734.2 50 L 734.2 60" />
        <path d="M 750.8 50 L 750.8 60" />
        <path d="M 767.4 50 L 767.4 60" />
        <path d="M 784 50 L 784 70" />
        <path d="M 800.6 50 L 800.6 60" />
        <path d="M 817.2 50 L 817.2 60" />
        <path d="M 833.8 50 L 833.8 60" />
        <path d="M 850.4 50 L 850.4 60" />
        <path d="M 867 50 L 867 60" />
        <path d="M 883.6 50 L 883.6 60" />
        <path d="M 900.2 50 L 900.2 60" />
        <path d="M 916.8 50 L 916.8 60" />
        <path d="M 933.4 50 L 933.4 60" />
        <path d="M 950 50 L 950 70" />
    </g>
    <g id="frame_0_rightticks">
        <path d="M 950 819.574 L 940 819.574" />
        <path d="M 950 769.362 L 940 769.362" />
        <path d="M 950 593.617 L 940 593.617" />
        <path d="M 950 330 L 940 330" />
        <path d="M 950 920 L 930 920" />
        <path d="M 950 656.383 L 940 656.383" />
        <path d="M 950 392.766 L 940 392.766" />
        <path d="M 950 129.149 L 940 129.149" />
        <path d="M 950 719.149 L 940 719.149" />
        <path d="M 950 807.021 L 940 807.021" />
        <path d="M 950 191.915 L 940 191.915" />
        <path d="M 950 518.298 L 940 518.298" />
        <path d="M 950 254.681 L 940 254.681" />
        <path d="M 950 581.064 L 940 581.064" />
        <path d="M 950 907.447 L 940 907.447" />
        <path d="M 950 894.894 L 940 894.894" />
        <path d="M 950 781.915 L 940 781.915" />
        <path d="M 950 380.213 L 940 380.213" />
        <path d="M 950 116.595 L 940 116.595" />
        <path d="M 950 442.979 L 940 442.979" />
        <path d="M 950 242.127 L 940 242.127" />
        <path d="M 950 179.361 L 940 179.361" />
        <path d="M 950 505.745 L 940 505.745" />
        <path d="M 950 882.34 L 940 882.34" />
        <path d="M 950 857.234 L 940 857.234" />
        <path d="M 950 568.511 L 940 568.511" />
        <path d="M 950 304.893 L 940 304.893" />
        <path d="M 950 91.4891 L 940 91.4891" />
        <path d="M 950 631.276 L 940 631.276" />
        <path d="M 950 832.128 L 940 832.128" />
        <path d="M 950 367.659 L 940 367.659" />
        <path d="M 950 104.042 L 940 104.042" />
        <path d="M 950 694.042 L 940 694.042" />
        <path d="M 950 869.787 L 940 869.787" />
        <path d="M 950 643.83 L 940 643.83" />
        <path d="M 950 430.425 L 940 430.425" />
        <path d="M 950 166.808 L 930 166.808" />
        <path d="M 950 493.191 L 940 493.191" />
        <path d="M 950 229.574 L 940 229.574" />
        <path d="M 950 555.957 L 940 555.957" />
        <path d="M 950 292.34 L 930 292.34" />
        <path d="M 950 756.808 L 940 756.808" />
        <path d="M 950 618.723 L 940 618.723" />
        <path d="M 950 355.106 L 940 355.106" />
        <path d="M 950 681.489 L 940 681.489" />
        <path d="M 950 66.3827 L 940 66.3827" />
        <path d="M 950 154.255 L 940 154.255" />
        <path d="M 950 744.255 L 940 744.255" />
        <path d="M 950 480.638 L 940 480.638" />
        <path d="M 950 844.681 L 940 844.681" />
        <path d="M 950 706.596 L 940 706.596" />
        <path d="M 950 217.021 L 940 217.021" />
        <path d="M 950 417.872 L 930 417.872" />
        <path d="M 950 543.404 L 930 543.404" />
        <path d="M 950 53.8295 L 940 53.8295" />
        <path d="M 950 455.532 L 940 455.532" />
        <path d="M 950 606.17 L 940 606.17" />
        <path d="M 950 317.447 L 940 317.447" />
        <path d="M 950 342.553 L 940 342.553" />
        <path d="M 950 78.9359 L 940 78.9359" />
        <path d="M 950 731.702 L 940 731.702" />
        <path d="M 950 405.319 L 940 405.319" />
        <path d="M 950 668.936 L 930 668.936" />
        <path d="M 950 141.702 L 940 141.702" />
        <path d="M 950 279.787 L 940 279.787" />
        <path d="M 950 468.085 L 940 468.085" />
        <path d="M 950 204.468 L 940 204.468" />
        <path d="M 950 794.468 L 930 794.468" />
        <path d="M 950 267.234 L 940 267.234" />
        <path d="M 950 530.851 L 940 530.851" />
    </g>
</g>
</g>
</svg>
