<?xml version="1.0" standalone="no"?>
<!DOCTYPE svg PUBLIC "-//W3C//DTD SVG 1.1//EN" "http://www.w3.org/Graphics/SVG/1.1/DTD/svg11.dtd">
<svg style="stroke-linejoin:miter; stroke:black; stroke-width:2.5; text-anchor:middle; fill:none" xmlns="http://www.w3.org/2000/svg" font-family="Helvetica, Arial, FreeSans, Sans, sans, sans-serif" width="1000px" height="1000px" version="1.1" xmlns:xlink="http://www.w3.org/1999/xlink" viewBox="0 0 1000 1000">
<defs>
    <clipPath id="Histogram_0_clip">
        <rect x="120" y="50" width="830" height="870" />
    </clipPath>
    <clipPath id="Histogram_1_clip">
        <rect x="120" y="50" width="830" height="870" />
    </clipPath>
</defs>
<g id="whole_document">
<rect id="background" x="0" y="0" width="1000" height="1000" stroke="none" fill="white" />
<g id="Histogram_0" clip-path="url(#Histogram_0_clip)">
    <path d="M 120 920 L 120 129.091 L 161.5 129.091 L 161.5 912.219 L 203 912.219 L 203 920 L 244.5 920 L 244.5 858.044 L 286 858.044 L 286 920 L 327.5 920 L 327.5 919.276 L 369 919.276 L 369 920 L 410.5 920 L 410.5 919.465 L 452 919.465 L 452 919.476 L 493.5 919.476 L 493.5 920 L 535 920 L 535 920 L 576.5 920 L 576.5 920 L 618 920 L 618 920 L 659.5 920 L 659.5 920 L 701 920 L 701 920 L 742.5 920 L 742.5 920 L 784 920 L 784 920 L 825.5 920 L 825.5 920 L 867 920 L 867 920 L 908.5 920 L 908.5 920 L 950 920 L 950 920" stroke-width="3" stroke-dasharray="" stroke="black" stroke-opacity="1" fill="DodgerBlue" fill-opacity="1" />
</g>
<g id="Histogram_1" clip-path="url(#Histogram_1_clip)">
    <path d="M 120 920 L 120 920 L 161.5 920 L 161.5 920 L 203 920 L 203 920 L 244.5 920 L 244.5 858.044 L 286 858.044 L 286 920 L 327.5 920 L 327.5 919.276 L 369 919.276 L 369 920 L 410.5 920 L 410.5 919.465 L 452 919.465 L 452 919.476 L 493.5 919.476 L 493.5 920 L 535 920 L 535 920 L 576.5 920 L 576.5 920 L 618 920 L 618 920 L 659.5 920 L 659.5 920 L 701 920 L 701 920 L 742.5 920 L 742.5 920 L 784 920 L 784 920 L 825.5 920 L 825.5 920 L 867 920 L 867 920 L 908.5 920 L 908.5 920 L 950 920 L 950 920" stroke-width="3" stroke-dasharray="" stroke="black" stroke-opacity="1" fill="darkorange" fill-opacity="1" />
</g>
<g id="frame_0">
    <rect id="frame_0_border" x="120" y="50" width="830" height="870" />
    <text id="frame_0_bottomlabel" font-size="30" transform="translate(535, 989.6)" text-anchor="middle" dominant-baseline="middle" stroke="none" fill="black">microseconds</text>
    <g id="frame_0_bottomticks">
        <path d="M 120 920 L 120 900" />
        <text font-size="30" transform="translate(120, 950)" text-anchor="middle" dominant-baseline="middle" stroke="none" fill="black">0</text>
        <path d="M 136.6 920 L 136.6 910" />
        <path d="M 153.2 920 L 153.2 910" />
        <path d="M 169.8 920 L 169.8 910" />
        <path d="M 186.4 920 L 186.4 910" />
        <path d="M 203 920 L 203 910" />
        <path d="M 219.6 920 L 219.6 910" />
        <path d="M 236.2 920 L 236.2 910" />
        <path d="M 252.8 920 L 252.8 910" />
        <path d="M 269.4 920 L 269.4 910" />
        <path d="M 286 920 L 286 900" />
        <text font-size="30" transform="translate(286, 950)" text-anchor="middle" dominant-baseline="middle" stroke="none" fill="black">10</text>
        <path d="M 302.6 920 L 302.6 910" />
        <path d="M 319.2 920 L 319.2 910" />
        <path d="M 335.8 920 L 335.8 910" />
        <path d="M 352.4 920 L 352.4 910" />
        <path d="M 369 920 L 369 910" />
        <path d="M 385.6 920 L 385.6 910" />
        <path d="M 402.2 920 L 402.2 910" />
        <path d="M 418.8 920 L 418.8 910" />
        <path d="M 435.4 920 L 435.4 910" />
        <path d="M 452 920 L 452 900" />
        <text font-size="30" transform="translate(452, 950)" text-anchor="middle" dominant-baseline="middle" stroke="none" fill="black">20</text>
        <path d="M 468.6 920 L 468.6 910" />
        <path d="M 485.2 920 L 485.2 910" />
        <path d="M 501.8 920 L 501.8 910" />
        <path d="M 518.4 920 L 518.4 910" />
        <path d="M 535 920 L 535 910" />
        <path d="M 551.6 920 L 551.6 910" />
        <path d="M 568.2 920 L 568.2 910" />
        <path d="M 584.8 920 L 584.8 910" />
        <path d="M 601.4 920 L 601.4 910" />
        <path d="M 618 920 L 618 900" />
        <text font-size="30" transform="translate(618, 950)" text-anchor="middle" dominant-baseline="middle" stroke="none" fill="black">30</text>
        <path d="M 634.6 920 L 634.6 910" />
        <path d="M 651.2 920 L 651.2 910" />
        <path d="M 667.8 920 L 667.8 910" />
        <path d="M 684.4 920 L 684.4 910" />
        <path d="M 701 920 L 701 910" />
        <path d="M 717.6 920 L 717.6 910" />
        <path d="M 734.2 920 L 734.2 910" />
        <path d="M 750.8 920 L 750.8 910" />
        <path d="M 767.4 920 L 767.4 910" />
        <path d="M 784 920 L 784 900" />
        <text font-size="30" transform="translate(784, 950)" text-anchor="middle" dominant-baseline="middle" stroke="none" fill="black">40</text>
        <path d="M 800.6 920 L 800.6 910" />
        <path d="M 817.2 920 L 817.2 910" />
        <path d="M 833.8 920 L 833.8 910" />
        <path d="M 850.4 920 L 850.4 910" />
        <path d="M 867 920 L 867 910" />
        <path d="M 883.6 920 L 883.6 910" />
        <path d="M 900.2 920 L 900.2 910" />
        <path d="M 916.8 920 L 916.8 910" />
        <path d="M 933.4 920 L 933.4 910" />
        <path d="M 950 920 L 950 900" />
        <text font-size="30" transform="translate(950, 950)" text-anchor="middle" dominant-baseline="middle" stroke="none" fill="black">50</text>
    </g>
    <g id="frame_0_leftticks">
        <path d="M 120 752.212 L 130 752.212" />
        <path d="M 120 668.319 L 130 668.319" />
        <path d="M 120 227.876 L 130 227.876" />
        <path d="M 120 636.858 L 130 636.858" />
        <path d="M 120 259.336 L 130 259.336" />
        <path d="M 120 699.779 L 130 699.779" />
        <path d="M 120 112.522 L 130 112.522" />
        <path d="M 120 563.451 L 130 563.451" />
        <path d="M 120 123.009 L 130 123.009" />
        <path d="M 120 322.256 L 130 322.256" />
        <path d="M 120 647.345 L 130 647.345" />
        <path d="M 120 846.593 L 130 846.593" />
        <path d="M 120 427.124 L 130 427.124" />
        <path d="M 120 206.902 L 130 206.902" />
        <path d="M 120 762.699 L 130 762.699" />
        <path d="M 120 70.575 L 130 70.575" />
        <path d="M 120 290.796 L 140 290.796" />
        <text font-size="30" transform="translate(110, 300.796)" text-anchor="end" dominant-baseline="middle" stroke="none" fill="black">60000</text>
        <path d="M 120 311.77 L 130 311.77" />
        <path d="M 120 920 L 140 920" />
        <text font-size="30" transform="translate(110, 930)" text-anchor="end" dominant-baseline="middle" stroke="none" fill="black">0</text>
        <path d="M 120 615.885 L 130 615.885" />
        <path d="M 120 594.911 L 130 594.911" />
        <path d="M 120 511.018 L 130 511.018" />
        <path d="M 120 878.053 L 130 878.053" />
        <path d="M 120 689.292 L 130 689.292" />
        <path d="M 120 102.035 L 130 102.035" />
        <path d="M 120 458.584 L 130 458.584" />
        <path d="M 120 815.133 L 140 815.133" />
        <text font-size="30" transform="translate(110, 825.133)" text-anchor="end" dominant-baseline="middle" stroke="none" fill="black">10000</text>
        <path d="M 120 301.283 L 130 301.283" />
        <path d="M 120 825.619 L 130 825.619" />
        <path d="M 120 605.398 L 140 605.398" />
        <text font-size="30" transform="translate(110, 615.398)" text-anchor="end" dominant-baseline="middle" stroke="none" fill="black">30000</text>
        <path d="M 120 500.531 L 140 500.531" />
        <text font-size="30" transform="translate(110, 510.531)" text-anchor="end" dominant-baseline="middle" stroke="none" fill="black">40000</text>
        <path d="M 120 542.478 L 130 542.478" />
        <path d="M 120 196.416 L 130 196.416" />
        <path d="M 120 773.186 L 130 773.186" />
        <path d="M 120 867.566 L 130 867.566" />
        <path d="M 120 490.044 L 130 490.044" />
        <path d="M 120 720.752 L 130 720.752" />
        <path d="M 120 217.389 L 130 217.389" />
        <path d="M 120 185.929 L 140 185.929" />
        <text font-size="30" transform="translate(110, 195.929)" text-anchor="end" dominant-baseline="middle" stroke="none" fill="black">70000</text>
        <path d="M 120 406.15 L 130 406.15" />
        <path d="M 120 573.938 L 130 573.938" />
        <path d="M 120 836.106 L 130 836.106" />
        <path d="M 120 626.372 L 130 626.372" />
        <path d="M 120 657.832 L 130 657.832" />
        <path d="M 120 280.31 L 130 280.31" />
        <path d="M 120 175.442 L 130 175.442" />
        <path d="M 120 783.673 L 130 783.673" />
        <path d="M 120 521.504 L 130 521.504" />
        <path d="M 120 81.0617 L 140 81.0617" />
        <text font-size="30" transform="translate(110, 91.0617)" text-anchor="end" dominant-baseline="middle" stroke="none" fill="black">80000</text>
        <path d="M 120 374.69 L 130 374.69" />
        <path d="M 120 385.177 L 130 385.177" />
        <path d="M 120 899.027 L 130 899.027" />
        <path d="M 120 888.54 L 130 888.54" />
        <path d="M 120 710.265 L 140 710.265" />
        <text font-size="30" transform="translate(110, 720.265)" text-anchor="end" dominant-baseline="middle" stroke="none" fill="black">20000</text>
        <path d="M 120 469.071 L 130 469.071" />
        <path d="M 120 248.849 L 130 248.849" />
        <path d="M 120 164.956 L 130 164.956" />
        <path d="M 120 678.805 L 130 678.805" />
        <path d="M 120 60.0882 L 130 60.0882" />
        <path d="M 120 364.203 L 130 364.203" />
        <path d="M 120 552.964 L 130 552.964" />
        <path d="M 120 332.743 L 130 332.743" />
        <path d="M 120 794.159 L 130 794.159" />
        <path d="M 120 731.239 L 130 731.239" />
        <path d="M 120 416.637 L 130 416.637" />
        <path d="M 120 154.469 L 130 154.469" />
        <path d="M 120 353.717 L 130 353.717" />
        <path d="M 120 909.513 L 130 909.513" />
        <path d="M 120 269.823 L 130 269.823" />
        <path d="M 120 479.557 L 130 479.557" />
        <path d="M 120 584.425 L 130 584.425" />
        <path d="M 120 143.982 L 130 143.982" />
        <path d="M 120 857.08 L 130 857.08" />
        <path d="M 120 741.726 L 130 741.726" />
        <path d="M 120 343.23 L 130 343.23" />
        <path d="M 120 91.5484 L 130 91.5484" />
        <path d="M 120 448.097 L 130 448.097" />
        <path d="M 120 395.664 L 140 395.664" />
        <text font-size="30" transform="translate(110, 405.664)" text-anchor="end" dominant-baseline="middle" stroke="none" fill="black">50000</text>
        <path d="M 120 804.646 L 130 804.646" />
        <path d="M 120 238.363 L 130 238.363" />
        <path d="M 120 531.991 L 130 531.991" />
        <path d="M 120 133.495 L 130 133.495" />
        <path d="M 120 437.61 L 130 437.61" />
    </g>
    <text id="frame_0_toplabel" font-size="30" transform="translate(535, 32.6)" text-anchor="middle" dominant-baseline="middle" stroke="none" fill="black">a.tail</text>
    <g id="frame_0_topticks">
        <path d="M 120 50 L 120 70" />
        <path d="M 136.6 50 L 136.6 60" />
        <path d="M 153.2 50 L 153.2 60" />
        <path d="M 169.8 50 L 169.8 60" />
        <path d="M 186.4 50 L 186.4 60" />
        <path d="M 203 50 L 203 60" />
        <path d="M 219.6 50 L 219.6 60" />
        <path d="M 236.2 50 L 236.2 60" />
        <path d="M 252.8 50 L 252.8 60" />
        <path d="M 269.4 50 L 269.4 60" />
        <path d="M 286 50 L 286 70" />
        <path d="M 302.6 50 L 302.6 60" />
        <path d="M 319.2 50 L 319.2 60" />
        <path d="M 335.8 50 L 335.8 60" />
        <path d="M 352.4 50 L 352.4 60" />
        <path d="M 369 50 L 369 60" />
        <path d="M 385.6 50 L 385.6 60" />
        <path d="M 402.2 50 L 402.2 60" />
        <path d="M 418.8 50 L 418.8 60" />
        <path d="M 435.4 50 L 435.4 60" />
        <path d="M 452 50 L 452 70" />
        <path d="M 468.6 50 L 468.6 60" />
        <path d="M 485.2 50 L 485.2 60" />
        <path d="M 501.8 50 L 501.8 60" />
        <path d="M 518.4 50 L 518.4 60" />
        <path d="M 535 50 L 535 60" />
        <path d="M 551.6 50 L 551.6 60" />
        <path d="M 568.2 50 L 568.2 60" />
        <path d="M 584.8 50 L 584.8 60" />
        <path d="M 601.4 50 L 601.4 60" />
        <path d="M 618 50 L 618 70" />
        <path d="M 634.6 50 L 634.6 60" />
        <path d="M 651.2 50 L 651.2 60" />
        <path d="M 667.8 50 L 667.8 60" />
        <path d="M 684.4 50 L 684.4 60" />
        <path d="M 701 50 L 701 60" />
        <path d="M 717.6 50 L 717.6 60" />
        <path d="M 734.2 50 L 734.2 60" />
        <path d="M 750.8 50 L 750.8 60" />
        <path d="M 767.4 50 L 767.4 60" />
        <path d="M 784 50 L 784 70" />
        <path d="M 800.6 50 L 800.6 60" />
        <path d="M 817.2 50 L 817.2 60" />
        <path d="M 833.8 50 L 833.8 60" />
        <path d="M 850.4 50 L 850.4 60" />
        <path d="M 867 50 L 867 60" />
        <path d="M 883.6 50 L 883.6 60" />
        <path d="M 900.2 50 L 900.2 60" />
        <path d="M 916.8 50 L 916.8 60" />
        <path d="M 933.4 50 L 933.4 60" />
        <path d="M 950 50 L 950 70" />
    </g>
    <g id="frame_0_rightticks">
        <path d="M 950 752.212 L 940 752.212" />
        <path d="M 950 668.319 L 940 668.319" />
        <path d="M 950 227.876 L 940 227.876" />
        <path d="M 950 636.858 L 940 636.858" />
        <path d="M 950 259.336 L 940 259.336" />
        <path d="M 950 699.779 L 940 699.779" />
        <path d="M 950 112.522 L 940 112.522" />
        <path d="M 950 563.451 L 940 563.451" />
        <path d="M 950 123.009 L 940 123.009" />
        <path d="M 950 322.256 L 940 322.256" />
        <path d="M 950 647.345 L 940 647.345" />
        <path d="M 950 846.593 L 940 846.593" />
        <path d="M 950 427.124 L 940 427.124" />
        <path d="M 950 206.902 L 940 206.902" />
        <path d="M 950 762.699 L 940 762.699" />
        <path d="M 950 70.575 L 940 70.575" />
        <path d="M 950 290.796 L 930 290.796" />
        <path d="M 950 311.77 L 940 311.77" />
        <path d="M 950 920 L 930 920" />
        <path d="M 950 615.885 L 940 615.885" />
        <path d="M 950 594.911 L 940 594.911" />
        <path d="M 950 511.018 L 940 511.018" />
        <path d="M 950 878.053 L 940 878.053" />
        <path d="M 950 689.292 L 940 689.292" />
        <path d="M 950 102.035 L 940 102.035" />
        <path d="M 950 458.584 L 940 458.584" />
        <path d="M 950 815.133 L 930 815.133" />
        <path d="M 950 301.283 L 940 301.283" />
        <path d="M 950 825.619 L 940 825.619" />
        <path d="M 950 605.398 L 930 605.398" />
        <path d="M 950 500.531 L 930 500.531" />
        <path d="M 950 542.478 L 940 542.478" />
        <path d="M 950 196.416 L 940 196.416" />
        <path d="M 950 773.186 L 940 773.186" />
        <path d="M 950 867.566 L 940 867.566" />
        <path d="M 950 490.044 L 940 490.044" />
        <path d="M 950 720.752 L 940 720.752" />
        <path d="M 950 217.389 L 940 217.389" />
        <path d="M 950 185.929 L 930 185.929" />
        <path d="M 950 406.15 L 940 406.15" />
        <path d="M 950 573.938 L 940 573.938" />
        <path d="M 950 836.106 L 940 836.106" />
        <path d="M 950 626.372 L 940 626.372" />
        <path d="M 950 657.832 L 940 657.832" />
        <path d="M 950 280.31 L 940 280.31" />
        <path d="M 950 175.442 L 940 175.442" />
        <path d="M 950 783.673 L 940 783.673" />
        <path d="M 950 521.504 L 940 521.504" />
        <path d="M 950 81.0617 L 930 81.0617" />
        <path d="M 950 374.69 L 940 374.69" />
        <path d="M 950 385.177 L 940 385.177" />
        <path d="M 950 899.027 L 940 899.027" />
        <path d="M 950 888.54 L 940 888.54" />
        <path d="M 950 710.265 L 930 710.265" />
        <path d="M 950 469.071 L 940 469.071" />
        <path d="M 950 248.849 L 940 248.849" />
        <path d="M 950 164.956 L 940 164.956" />
        <path d="M 950 678.805 L 940 678.805" />
        <path d="M 950 60.0882 L 940 60.0882" />
        <path d="M 950 364.203 L 940 364.203" />
        <path d="M 950 552.964 L 940 552.964" />
        <path d="M 950 332.743 L 940 332.743" />
        <path d="M 950 794.159 L 940 794.159" />
        <path d="M 950 731.239 L 940 731.239" />
        <path d="M 950 416.637 L 940 416.637" />
        <path d="M 950 154.469 L 940 154.469" />
        <path d="M 950 353.717 L 940 353.717" />
        <path d="M 950 909.513 L 940 909.513" />
        <path d="M 950 269.823 L 940 269.823" />
        <path d="M 950 479.557 L 940 479.557" />
        <path d="M 950 584.425 L 940 584.425" />
        <path d="M 950 143.982 L 940 143.982" />
        <path d="M 950 857.08 L 940 857.08" />
        <path d="M 950 741.726 L 940 741.726" />
        <path d="M 950 343.23 L 940 343.23" />
        <path d="M 950 91.5484 L 940 91.5484" />
        <path d="M 950 448.097 L 940 448.097" />
        <path d="M 950 395.664 L 930 395.664" />
        <path d="M 950 804.646 L 940 804.646" />
        <path d="M 950 238.363 L 940 238.363" />
        <path d="M 950 531.991 L 940 531.991" />
        <path d="M 950 133.495 L 940 133.495" />
        <path d="M 950 437.61 L 940 437.61" />
    </g>
</g>
</g>
</svg>
