<?xml version="1.0" standalone="no"?>
<!DOCTYPE svg PUBLIC "-//W3C//DTD SVG 1.1//EN" "http://www.w3.org/Graphics/SVG/1.1/DTD/svg11.dtd">
<svg style="stroke-linejoin:miter; stroke:black; stroke-width:2.5; text-anchor:middle; fill:none" xmlns="http://www.w3.org/2000/svg" font-family="Helvetica, Arial, FreeSans, Sans, sans, sans-serif" width="1000px" height="1000px" version="1.1" xmlns:xlink="http://www.w3.org/1999/xlink" viewBox="0 0 1000 1000">
<defs>
    <clipPath id="Histogram_0_clip">
        <rect x="120" y="50" width="830" height="870" />
    </clipPath>
</defs>
<g id="whole_document">
<rect id="background" x="0" y="0" width="1000" height="1000" stroke="none" fill="white" />
<g id="Histogram_0" clip-path="url(#Histogram_0_clip)">
    <path d="M 120 920 L 120 129.091 L 161.5 129.091 L 161.5 853.707 L 203 853.707 L 203 914.975 L 244.5 914.975 L 244.5 918.642 L 286 918.642 L 286 920 L 327.5 920 L 327.5 920 L 369 920 L 369 920 L 410.5 920 L 410.5 920 L 452 920 L 452 920 L 493.5 920 L 493.5 920 L 535 920 L 535 920 L 576.5 920 L 576.5 920 L 618 920 L 618 920 L 659.5 920 L 659.5 920 L 701 920 L 701 920 L 742.5 920 L 742.5 920 L 784 920 L 784 920 L 825.5 920 L 825.5 920 L 867 920 L 867 920 L 908.5 920 L 908.5 920 L 950 920 L 950 920" stroke-width="3" stroke-dasharray="" stroke="black" stroke-opacity="1" fill="DodgerBlue" fill-opacity="1" />
</g>
<g id="frame_0">
    <rect id="frame_0_border" x="120" y="50" width="830" height="870" />
    <text id="frame_0_bottomlabel" font-size="30" transform="translate(535, 989.6)" text-anchor="middle" dominant-baseline="middle" stroke="none" fill="black">microseconds</text>
    <g id="frame_0_bottomticks">
        <path d="M 120 920 L 120 900" />
        <text font-size="30" transform="translate(120, 950)" text-anchor="middle" dominant-baseline="middle" stroke="none" fill="black">0</text>
        <path d="M 136.6 920 L 136.6 910" />
        <path d="M 153.2 920 L 153.2 910" />
        <path d="M 169.8 920 L 169.8 910" />
        <path d="M 186.4 920 L 186.4 910" />
        <path d="M 203 920 L 203 910" />
        <path d="M 219.6 920 L 219.6 910" />
        <path d="M 236.2 920 L 236.2 910" />
        <path d="M 252.8 920 L 252.8 910" />
        <path d="M 269.4 920 L 269.4 910" />
        <path d="M 286 920 L 286 900" />
        <text font-size="30" transform="translate(286, 950)" text-anchor="middle" dominant-baseline="middle" stroke="none" fill="black">10</text>
        <path d="M 302.6 920 L 302.6 910" />
        <path d="M 319.2 920 L 319.2 910" />
        <path d="M 335.8 920 L 335.8 910" />
        <path d="M 352.4 920 L 352.4 910" />
        <path d="M 369 920 L 369 910" />
        <path d="M 385.6 920 L 385.6 910" />
        <path d="M 402.2 920 L 402.2 910" />
        <path d="M 418.8 920 L 418.8 910" />
        <path d="M 435.4 920 L 435.4 910" />
        <path d="M 452 920 L 452 900" />
        <text font-size="30" transform="translate(452, 950)" text-anchor="middle" dominant-baseline="middle" stroke="none" fill="black">20</text>
        <path d="M 468.6 920 L 468.6 910" />
        <path d="M 485.2 920 L 485.2 910" />
        <path d="M 501.8 920 L 501.8 910" />
        <path d="M 518.4 920 L 518.4 910" />
        <path d="M 535 920 L 535 910" />
        <path d="M 551.6 920 L 551.6 910" />
        <path d="M 568.2 920 L 568.2 910" />
        <path d="M 584.8 920 L 584.8 910" />
        <path d="M 601.4 920 L 601.4 910" />
        <path d="M 618 920 L 618 900" />
        <text font-size="30" transform="translate(618, 950)" text-anchor="middle" dominant-baseline="middle" stroke="none" fill="black">30</text>
        <path d="M 634.6 920 L 634.6 910" />
        <path d="M 651.2 920 L 651.2 910" />
        <path d="M 667.8 920 L 667.8 910" />
        <path d="M 684.4 920 L 684.4 910" />
        <path d="M 701 920 L 701 910" />
        <path d="M 717.6 920 L 717.6 910" />
        <path d="M 734.2 920 L 734.2 910" />
        <path d="M 750.8 920 L 750.8 910" />
        <path d="M 767.4 920 L 767.4 910" />
        <path d="M 784 920 L 784 900" />
        <text font-size="30" transform="translate(784, 950)" text-anchor="middle" dominant-baseline="middle" stroke="none" fill="black">40</text>
        <path d="M 800.6 920 L 800.6 910" />
        <path d="M 817.2 920 L 817.2 910" />
        <path d="M 833.8 920 L 833.8 910" />
        <path d="M 850.4 920 L 850.4 910" />
        <path d="M 867 920 L 867 910" />
        <path d="M 883.6 920 L 883.6 910" />
        <path d="M 900.2 920 L 900.2 910" />
        <path d="M 916.8 920 L 916.8 910" />
        <path d="M 933.4 920 L 933.4 910" />
        <path d="M 950 920 L 950 900" />
        <text font-size="30" transform="translate(950, 950)" text-anchor="middle" dominant-baseline="middle" stroke="none" fill="black">50</text>
    </g>
    <g id="frame_0_leftticks">
        <path d="M 120 748.921 L 130 748.921" />
        <path d="M 120 663.381 L 130 663.381" />
        <path d="M 120 214.299 L 130 214.299" />
        <path d="M 120 631.304 L 130 631.304" />
        <path d="M 120 246.376 L 130 246.376" />
        <path d="M 120 695.459 L 130 695.459" />
        <path d="M 120 96.6821 L 130 96.6821" />
        <path d="M 120 556.457 L 130 556.457" />
        <path d="M 120 107.375 L 130 107.375" />
        <path d="M 120 310.531 L 130 310.531" />
        <path d="M 120 641.997 L 130 641.997" />
        <path d="M 120 845.153 L 130 845.153" />
        <path d="M 120 417.455 L 130 417.455" />
        <path d="M 120 192.914 L 130 192.914" />
        <path d="M 120 759.613 L 130 759.613" />
        <path d="M 120 53.9124 L 130 53.9124" />
        <path d="M 120 278.454 L 140 278.454" />
        <text font-size="30" transform="translate(110, 288.454)" text-anchor="end" dominant-baseline="middle" stroke="none" fill="black">60000</text>
        <path d="M 120 299.838 L 130 299.838" />
        <path d="M 120 920 L 140 920" />
        <text font-size="30" transform="translate(110, 930)" text-anchor="end" dominant-baseline="middle" stroke="none" fill="black">0</text>
        <path d="M 120 609.919 L 130 609.919" />
        <path d="M 120 588.534 L 130 588.534" />
        <path d="M 120 502.995 L 130 502.995" />
        <path d="M 120 877.23 L 130 877.23" />
        <path d="M 120 684.766 L 130 684.766" />
        <path d="M 120 85.9897 L 130 85.9897" />
        <path d="M 120 449.533 L 130 449.533" />
        <path d="M 120 813.076 L 140 813.076" />
        <text font-size="30" transform="translate(110, 823.076)" text-anchor="end" dominant-baseline="middle" stroke="none" fill="black">10000</text>
        <path d="M 120 289.146 L 130 289.146" />
        <path d="M 120 823.768 L 130 823.768" />
        <path d="M 120 599.227 L 140 599.227" />
        <text font-size="30" transform="translate(110, 609.227)" text-anchor="end" dominant-baseline="middle" stroke="none" fill="black">30000</text>
        <path d="M 120 492.302 L 140 492.302" />
        <text font-size="30" transform="translate(110, 502.302)" text-anchor="end" dominant-baseline="middle" stroke="none" fill="black">40000</text>
        <path d="M 120 535.072 L 130 535.072" />
        <path d="M 120 182.222 L 130 182.222" />
        <path d="M 120 770.306 L 130 770.306" />
        <path d="M 120 866.538 L 130 866.538" />
        <path d="M 120 481.61 L 130 481.61" />
        <path d="M 120 716.844 L 130 716.844" />
        <path d="M 120 203.607 L 130 203.607" />
        <path d="M 120 171.529 L 140 171.529" />
        <text font-size="30" transform="translate(110, 181.529)" text-anchor="end" dominant-baseline="middle" stroke="none" fill="black">70000</text>
        <path d="M 120 396.07 L 130 396.07" />
        <path d="M 120 567.149 L 130 567.149" />
        <path d="M 120 834.46 L 130 834.46" />
        <path d="M 120 620.612 L 130 620.612" />
        <path d="M 120 652.689 L 130 652.689" />
        <path d="M 120 267.761 L 130 267.761" />
        <path d="M 120 160.837 L 130 160.837" />
        <path d="M 120 780.998 L 130 780.998" />
        <path d="M 120 513.687 L 130 513.687" />
        <path d="M 120 64.6048 L 140 64.6048" />
        <text font-size="30" transform="translate(110, 74.6048)" text-anchor="end" dominant-baseline="middle" stroke="none" fill="black">80000</text>
        <path d="M 120 363.993 L 130 363.993" />
        <path d="M 120 374.686 L 130 374.686" />
        <path d="M 120 898.615 L 130 898.615" />
        <path d="M 120 887.923 L 130 887.923" />
        <path d="M 120 706.151 L 140 706.151" />
        <text font-size="30" transform="translate(110, 716.151)" text-anchor="end" dominant-baseline="middle" stroke="none" fill="black">20000</text>
        <path d="M 120 460.225 L 130 460.225" />
        <path d="M 120 235.684 L 130 235.684" />
        <path d="M 120 150.144 L 130 150.144" />
        <path d="M 120 674.074 L 130 674.074" />
        <path d="M 120 353.301 L 130 353.301" />
        <path d="M 120 545.765 L 130 545.765" />
        <path d="M 120 321.223 L 130 321.223" />
        <path d="M 120 791.691 L 130 791.691" />
        <path d="M 120 727.536 L 130 727.536" />
        <path d="M 120 406.763 L 130 406.763" />
        <path d="M 120 139.452 L 130 139.452" />
        <path d="M 120 342.608 L 130 342.608" />
        <path d="M 120 909.308 L 130 909.308" />
        <path d="M 120 257.069 L 130 257.069" />
        <path d="M 120 470.918 L 130 470.918" />
        <path d="M 120 577.842 L 130 577.842" />
        <path d="M 120 128.759 L 130 128.759" />
        <path d="M 120 855.845 L 130 855.845" />
        <path d="M 120 738.229 L 130 738.229" />
        <path d="M 120 331.916 L 130 331.916" />
        <path d="M 120 75.2972 L 130 75.2972" />
        <path d="M 120 438.84 L 130 438.84" />
        <path d="M 120 385.378 L 140 385.378" />
        <text font-size="30" transform="translate(110, 395.378)" text-anchor="end" dominant-baseline="middle" stroke="none" fill="black">50000</text>
        <path d="M 120 802.383 L 130 802.383" />
        <path d="M 120 224.991 L 130 224.991" />
        <path d="M 120 524.38 L 130 524.38" />
        <path d="M 120 118.067 L 130 118.067" />
        <path d="M 120 428.148 L 130 428.148" />
    </g>
    <text id="frame_0_toplabel" font-size="30" transform="translate(535, 32.6)" text-anchor="middle" dominant-baseline="middle" stroke="none" fill="black">map.values</text>
    <g id="frame_0_topticks">
        <path d="M 120 50 L 120 70" />
        <path d="M 136.6 50 L 136.6 60" />
        <path d="M 153.2 50 L 153.2 60" />
        <path d="M 169.8 50 L 169.8 60" />
        <path d="M 186.4 50 L 186.4 60" />
        <path d="M 203 50 L 203 60" />
        <path d="M 219.6 50 L 219.6 60" />
        <path d="M 236.2 50 L 236.2 60" />
        <path d="M 252.8 50 L 252.8 60" />
        <path d="M 269.4 50 L 269.4 60" />
        <path d="M 286 50 L 286 70" />
        <path d="M 302.6 50 L 302.6 60" />
        <path d="M 319.2 50 L 319.2 60" />
        <path d="M 335.8 50 L 335.8 60" />
        <path d="M 352.4 50 L 352.4 60" />
        <path d="M 369 50 L 369 60" />
        <path d="M 385.6 50 L 385.6 60" />
        <path d="M 402.2 50 L 402.2 60" />
        <path d="M 418.8 50 L 418.8 60" />
        <path d="M 435.4 50 L 435.4 60" />
        <path d="M 452 50 L 452 70" />
        <path d="M 468.6 50 L 468.6 60" />
        <path d="M 485.2 50 L 485.2 60" />
        <path d="M 501.8 50 L 501.8 60" />
        <path d="M 518.4 50 L 518.4 60" />
        <path d="M 535 50 L 535 60" />
        <path d="M 551.6 50 L 551.6 60" />
        <path d="M 568.2 50 L 568.2 60" />
        <path d="M 584.8 50 L 584.8 60" />
        <path d="M 601.4 50 L 601.4 60" />
        <path d="M 618 50 L 618 70" />
        <path d="M 634.6 50 L 634.6 60" />
        <path d="M 651.2 50 L 651.2 60" />
        <path d="M 667.8 50 L 667.8 60" />
        <path d="M 684.4 50 L 684.4 60" />
        <path d="M 701 50 L 701 60" />
        <path d="M 717.6 50 L 717.6 60" />
        <path d="M 734.2 50 L 734.2 60" />
        <path d="M 750.8 50 L 750.8 60" />
        <path d="M 767.4 50 L 767.4 60" />
        <path d="M 784 50 L 784 70" />
        <path d="M 800.6 50 L 800.6 60" />
        <path d="M 817.2 50 L 817.2 60" />
        <path d="M 833.8 50 L 833.8 60" />
        <path d="M 850.4 50 L 850.4 60" />
        <path d="M 867 50 L 867 60" />
        <path d="M 883.6 50 L 883.6 60" />
        <path d="M 900.2 50 L 900.2 60" />
        <path d="M 916.8 50 L 916.8 60" />
        <path d="M 933.4 50 L 933.4 60" />
        <path d="M 950 50 L 950 70" />
    </g>
    <g id="frame_0_rightticks">
        <path d="M 950 748.921 L 940 748.921" />
        <path d="M 950 663.381 L 940 663.381" />
        <path d="M 950 214.299 L 940 214.299" />
        <path d="M 950 631.304 L 940 631.304" />
        <path d="M 950 246.376 L 940 246.376" />
        <path d="M 950 695.459 L 940 695.459" />
        <path d="M 950 96.6821 L 940 96.6821" />
        <path d="M 950 556.457 L 940 556.457" />
        <path d="M 950 107.375 L 940 107.375" />
        <path d="M 950 310.531 L 940 310.531" />
        <path d="M 950 641.997 L 940 641.997" />
        <path d="M 950 845.153 L 940 845.153" />
        <path d="M 950 417.455 L 940 417.455" />
        <path d="M 950 192.914 L 940 192.914" />
        <path d="M 950 759.613 L 940 759.613" />
        <path d="M 950 53.9124 L 940 53.9124" />
        <path d="M 950 278.454 L 930 278.454" />
        <path d="M 950 299.838 L 940 299.838" />
        <path d="M 950 920 L 930 920" />
        <path d="M 950 609.919 L 940 609.919" />
        <path d="M 950 588.534 L 940 588.534" />
        <path d="M 950 502.995 L 940 502.995" />
        <path d="M 950 877.23 L 940 877.23" />
        <path d="M 950 684.766 L 940 684.766" />
        <path d="M 950 85.9897 L 940 85.9897" />
        <path d="M 950 449.533 L 940 449.533" />
        <path d="M 950 813.076 L 930 813.076" />
        <path d="M 950 289.146 L 940 289.146" />
        <path d="M 950 823.768 L 940 823.768" />
        <path d="M 950 599.227 L 930 599.227" />
        <path d="M 950 492.302 L 930 492.302" />
        <path d="M 950 535.072 L 940 535.072" />
        <path d="M 950 182.222 L 940 182.222" />
        <path d="M 950 770.306 L 940 770.306" />
        <path d="M 950 866.538 L 940 866.538" />
        <path d="M 950 481.61 L 940 481.61" />
        <path d="M 950 716.844 L 940 716.844" />
        <path d="M 950 203.607 L 940 203.607" />
        <path d="M 950 171.529 L 930 171.529" />
        <path d="M 950 396.07 L 940 396.07" />
        <path d="M 950 567.149 L 940 567.149" />
        <path d="M 950 834.46 L 940 834.46" />
        <path d="M 950 620.612 L 940 620.612" />
        <path d="M 950 652.689 L 940 652.689" />
        <path d="M 950 267.761 L 940 267.761" />
        <path d="M 950 160.837 L 940 160.837" />
        <path d="M 950 780.998 L 940 780.998" />
        <path d="M 950 513.687 L 940 513.687" />
        <path d="M 950 64.6048 L 930 64.6048" />
        <path d="M 950 363.993 L 940 363.993" />
        <path d="M 950 374.686 L 940 374.686" />
        <path d="M 950 898.615 L 940 898.615" />
        <path d="M 950 887.923 L 940 887.923" />
        <path d="M 950 706.151 L 930 706.151" />
        <path d="M 950 460.225 L 940 460.225" />
        <path d="M 950 235.684 L 940 235.684" />
        <path d="M 950 150.144 L 940 150.144" />
        <path d="M 950 674.074 L 940 674.074" />
        <path d="M 950 353.301 L 940 353.301" />
        <path d="M 950 545.765 L 940 545.765" />
        <path d="M 950 321.223 L 940 321.223" />
        <path d="M 950 791.691 L 940 791.691" />
        <path d="M 950 727.536 L 940 727.536" />
        <path d="M 950 406.763 L 940 406.763" />
        <path d="M 950 139.452 L 940 139.452" />
        <path d="M 950 342.608 L 940 342.608" />
        <path d="M 950 909.308 L 940 909.308" />
        <path d="M 950 257.069 L 940 257.069" />
        <path d="M 950 470.918 L 940 470.918" />
        <path d="M 950 577.842 L 940 577.842" />
        <path d="M 950 128.759 L 940 128.759" />
        <path d="M 950 855.845 L 940 855.845" />
        <path d="M 950 738.229 L 940 738.229" />
        <path d="M 950 331.916 L 940 331.916" />
        <path d="M 950 75.2972 L 940 75.2972" />
        <path d="M 950 438.84 L 940 438.84" />
        <path d="M 950 385.378 L 930 385.378" />
        <path d="M 950 802.383 L 940 802.383" />
        <path d="M 950 224.991 L 940 224.991" />
        <path d="M 950 524.38 L 940 524.38" />
        <path d="M 950 118.067 L 940 118.067" />
        <path d="M 950 428.148 L 940 428.148" />
    </g>
</g>
</g>
</svg>
