<?xml version="1.0" standalone="no"?>
<!DOCTYPE svg PUBLIC "-//W3C//DTD SVG 1.1//EN" "http://www.w3.org/Graphics/SVG/1.1/DTD/svg11.dtd">
<svg style="stroke-linejoin:miter; stroke:black; stroke-width:2.5; text-anchor:middle; fill:none" xmlns="http://www.w3.org/2000/svg" font-family="Helvetica, Arial, FreeSans, Sans, sans, sans-serif" width="1000px" height="1000px" version="1.1" xmlns:xlink="http://www.w3.org/1999/xlink" viewBox="0 0 1000 1000">
<defs>
    <clipPath id="Histogram_0_clip">
        <rect x="120" y="50" width="830" height="870" />
    </clipPath>
    <clipPath id="Histogram_1_clip">
        <rect x="120" y="50" width="830" height="870" />
    </clipPath>
</defs>
<g id="whole_document">
<rect id="background" x="0" y="0" width="1000" height="1000" stroke="none" fill="white" />
<g id="Histogram_0" clip-path="url(#Histogram_0_clip)">
    <path d="M 120 920 L 120 129.091 L 161.5 129.091 L 161.5 881.035 L 203 881.035 L 203 919.585 L 244.5 919.585 L 244.5 882.555 L 286 882.555 L 286 919.925 L 327.5 919.925 L 327.5 919.915 L 369 919.915 L 369 919.92 L 410.5 919.92 L 410.5 920 L 452 920 L 452 920 L 493.5 920 L 493.5 920 L 535 920 L 535 920 L 576.5 920 L 576.5 920 L 618 920 L 618 920 L 659.5 920 L 659.5 920 L 701 920 L 701 920 L 742.5 920 L 742.5 920 L 784 920 L 784 920 L 825.5 920 L 825.5 920 L 867 920 L 867 920 L 908.5 920 L 908.5 920 L 950 920 L 950 920" stroke-width="3" stroke-dasharray="" stroke="black" stroke-opacity="1" fill="DodgerBlue" fill-opacity="1" />
</g>
<g id="Histogram_1" clip-path="url(#Histogram_1_clip)">
    <path d="M 120 920 L 120 920 L 161.5 920 L 161.5 920 L 203 920 L 203 920 L 244.5 920 L 244.5 882.569 L 286 882.569 L 286 919.925 L 327.5 919.925 L 327.5 919.915 L 369 919.915 L 369 919.92 L 410.5 919.92 L 410.5 920 L 452 920 L 452 920 L 493.5 920 L 493.5 920 L 535 920 L 535 920 L 576.5 920 L 576.5 920 L 618 920 L 618 920 L 659.5 920 L 659.5 920 L 701 920 L 701 920 L 742.5 920 L 742.5 920 L 784 920 L 784 920 L 825.5 920 L 825.5 920 L 867 920 L 867 920 L 908.5 920 L 908.5 920 L 950 920 L 950 920" stroke-width="3" stroke-dasharray="" stroke="black" stroke-opacity="1" fill="darkorange" fill-opacity="1" />
</g>
<g id="frame_0">
    <rect id="frame_0_border" x="120" y="50" width="830" height="870" />
    <text id="frame_0_bottomlabel" font-size="30" transform="translate(535, 989.6)" text-anchor="middle" dominant-baseline="middle" stroke="none" fill="black">microseconds</text>
    <g id="frame_0_bottomticks">
        <path d="M 120 920 L 120 900" />
        <text font-size="30" transform="translate(120, 950)" text-anchor="middle" dominant-baseline="middle" stroke="none" fill="black">0</text>
        <path d="M 136.6 920 L 136.6 910" />
        <path d="M 153.2 920 L 153.2 910" />
        <path d="M 169.8 920 L 169.8 910" />
        <path d="M 186.4 920 L 186.4 910" />
        <path d="M 203 920 L 203 910" />
        <path d="M 219.6 920 L 219.6 910" />
        <path d="M 236.2 920 L 236.2 910" />
        <path d="M 252.8 920 L 252.8 910" />
        <path d="M 269.4 920 L 269.4 910" />
        <path d="M 286 920 L 286 900" />
        <text font-size="30" transform="translate(286, 950)" text-anchor="middle" dominant-baseline="middle" stroke="none" fill="black">10</text>
        <path d="M 302.6 920 L 302.6 910" />
        <path d="M 319.2 920 L 319.2 910" />
        <path d="M 335.8 920 L 335.8 910" />
        <path d="M 352.4 920 L 352.4 910" />
        <path d="M 369 920 L 369 910" />
        <path d="M 385.6 920 L 385.6 910" />
        <path d="M 402.2 920 L 402.2 910" />
        <path d="M 418.8 920 L 418.8 910" />
        <path d="M 435.4 920 L 435.4 910" />
        <path d="M 452 920 L 452 900" />
        <text font-size="30" transform="translate(452, 950)" text-anchor="middle" dominant-baseline="middle" stroke="none" fill="black">20</text>
        <path d="M 468.6 920 L 468.6 910" />
        <path d="M 485.2 920 L 485.2 910" />
        <path d="M 501.8 920 L 501.8 910" />
        <path d="M 518.4 920 L 518.4 910" />
        <path d="M 535 920 L 535 910" />
        <path d="M 551.6 920 L 551.6 910" />
        <path d="M 568.2 920 L 568.2 910" />
        <path d="M 584.8 920 L 584.8 910" />
        <path d="M 601.4 920 L 601.4 910" />
        <path d="M 618 920 L 618 900" />
        <text font-size="30" transform="translate(618, 950)" text-anchor="middle" dominant-baseline="middle" stroke="none" fill="black">30</text>
        <path d="M 634.6 920 L 634.6 910" />
        <path d="M 651.2 920 L 651.2 910" />
        <path d="M 667.8 920 L 667.8 910" />
        <path d="M 684.4 920 L 684.4 910" />
        <path d="M 701 920 L 701 910" />
        <path d="M 717.6 920 L 717.6 910" />
        <path d="M 734.2 920 L 734.2 910" />
        <path d="M 750.8 920 L 750.8 910" />
        <path d="M 767.4 920 L 767.4 910" />
        <path d="M 784 920 L 784 900" />
        <text font-size="30" transform="translate(784, 950)" text-anchor="middle" dominant-baseline="middle" stroke="none" fill="black">40</text>
        <path d="M 800.6 920 L 800.6 910" />
        <path d="M 817.2 920 L 817.2 910" />
        <path d="M 833.8 920 L 833.8 910" />
        <path d="M 850.4 920 L 850.4 910" />
        <path d="M 867 920 L 867 910" />
        <path d="M 883.6 920 L 883.6 910" />
        <path d="M 900.2 920 L 900.2 910" />
        <path d="M 916.8 920 L 916.8 910" />
        <path d="M 933.4 920 L 933.4 910" />
        <path d="M 950 920 L 950 900" />
        <text font-size="30" transform="translate(950, 950)" text-anchor="middle" dominant-baseline="middle" stroke="none" fill="black">50</text>
    </g>
    <g id="frame_0_leftticks">
        <path d="M 120 774.788 L 130 774.788" />
        <path d="M 120 847.394 L 130 847.394" />
        <path d="M 120 72.9304 L 140 72.9304" />
        <text font-size="30" transform="translate(110, 82.9304)" text-anchor="end" dominant-baseline="middle" stroke="none" fill="black">7×10⁶</text>
        <path d="M 120 496.465 L 130 496.465" />
        <path d="M 120 920 L 140 920" />
        <text font-size="30" transform="translate(110, 930)" text-anchor="end" dominant-baseline="middle" stroke="none" fill="black">0</text>
        <path d="M 120 218.142 L 130 218.142" />
        <path d="M 120 641.677 L 130 641.677" />
        <path d="M 120 363.354 L 130 363.354" />
        <path d="M 120 786.889 L 130 786.889" />
        <path d="M 120 85.0314 L 130 85.0314" />
        <path d="M 120 508.566 L 130 508.566" />
        <path d="M 120 230.243 L 130 230.243" />
        <path d="M 120 653.778 L 130 653.778" />
        <path d="M 120 375.455 L 130 375.455" />
        <path d="M 120 798.99 L 140 798.99" />
        <text font-size="30" transform="translate(110, 808.99)" text-anchor="end" dominant-baseline="middle" stroke="none" fill="black">10⁶</text>
        <path d="M 120 97.1324 L 130 97.1324" />
        <path d="M 120 520.667 L 130 520.667" />
        <path d="M 120 702.182 L 130 702.182" />
        <path d="M 120 665.879 L 130 665.879" />
        <path d="M 120 907.899 L 130 907.899" />
        <path d="M 120 387.556 L 130 387.556" />
        <path d="M 120 109.233 L 130 109.233" />
        <path d="M 120 532.768 L 130 532.768" />
        <path d="M 120 254.445 L 130 254.445" />
        <path d="M 120 677.98 L 140 677.98" />
        <text font-size="30" transform="translate(110, 687.98)" text-anchor="end" dominant-baseline="middle" stroke="none" fill="black">2×10⁶</text>
        <path d="M 120 399.657 L 130 399.657" />
        <path d="M 120 823.192 L 130 823.192" />
        <path d="M 120 121.334 L 130 121.334" />
        <path d="M 120 544.869 L 130 544.869" />
        <path d="M 120 266.546 L 130 266.546" />
        <path d="M 120 690.081 L 130 690.081" />
        <path d="M 120 411.758 L 130 411.758" />
        <path d="M 120 835.293 L 130 835.293" />
        <path d="M 120 133.435 L 130 133.435" />
        <path d="M 120 556.97 L 140 556.97" />
        <text font-size="30" transform="translate(110, 566.97)" text-anchor="end" dominant-baseline="middle" stroke="none" fill="black">3×10⁶</text>
        <path d="M 120 278.647 L 130 278.647" />
        <path d="M 120 895.798 L 130 895.798" />
        <path d="M 120 811.091 L 130 811.091" />
        <path d="M 120 423.859 L 130 423.859" />
        <path d="M 120 145.536 L 130 145.536" />
        <path d="M 120 569.071 L 130 569.071" />
        <path d="M 120 290.748 L 130 290.748" />
        <path d="M 120 714.283 L 130 714.283" />
        <path d="M 120 435.96 L 140 435.96" />
        <text font-size="30" transform="translate(110, 445.96)" text-anchor="end" dominant-baseline="middle" stroke="none" fill="black">4×10⁶</text>
        <path d="M 120 859.495 L 130 859.495" />
        <path d="M 120 351.253 L 130 351.253" />
        <path d="M 120 581.172 L 130 581.172" />
        <path d="M 120 302.849 L 130 302.849" />
        <path d="M 120 726.384 L 130 726.384" />
        <path d="M 120 157.637 L 130 157.637" />
        <path d="M 120 314.95 L 140 314.95" />
        <text font-size="30" transform="translate(110, 324.95)" text-anchor="end" dominant-baseline="middle" stroke="none" fill="black">5×10⁶</text>
        <path d="M 120 448.061 L 130 448.061" />
        <path d="M 120 871.596 L 130 871.596" />
        <path d="M 120 169.738 L 130 169.738" />
        <path d="M 120 593.273 L 130 593.273" />
        <path d="M 120 883.697 L 130 883.697" />
        <path d="M 120 738.485 L 130 738.485" />
        <path d="M 120 460.162 L 130 460.162" />
        <path d="M 120 181.839 L 130 181.839" />
        <path d="M 120 605.374 L 130 605.374" />
        <path d="M 120 242.344 L 130 242.344" />
        <path d="M 120 327.051 L 130 327.051" />
        <path d="M 120 750.586 L 130 750.586" />
        <path d="M 120 472.263 L 130 472.263" />
        <path d="M 120 193.94 L 140 193.94" />
        <text font-size="30" transform="translate(110, 203.94)" text-anchor="end" dominant-baseline="middle" stroke="none" fill="black">6×10⁶</text>
        <path d="M 120 617.475 L 130 617.475" />
        <path d="M 120 339.152 L 130 339.152" />
        <path d="M 120 762.687 L 130 762.687" />
        <path d="M 120 60.8294 L 130 60.8294" />
        <path d="M 120 484.364 L 130 484.364" />
        <path d="M 120 206.041 L 130 206.041" />
        <path d="M 120 629.576 L 130 629.576" />
    </g>
    <text id="frame_0_toplabel" font-size="30" transform="translate(535, 32.6)" text-anchor="middle" dominant-baseline="middle" stroke="none" fill="black">stat.sample.forecastHoltWinters</text>
    <g id="frame_0_topticks">
        <path d="M 120 50 L 120 70" />
        <path d="M 136.6 50 L 136.6 60" />
        <path d="M 153.2 50 L 153.2 60" />
        <path d="M 169.8 50 L 169.8 60" />
        <path d="M 186.4 50 L 186.4 60" />
        <path d="M 203 50 L 203 60" />
        <path d="M 219.6 50 L 219.6 60" />
        <path d="M 236.2 50 L 236.2 60" />
        <path d="M 252.8 50 L 252.8 60" />
        <path d="M 269.4 50 L 269.4 60" />
        <path d="M 286 50 L 286 70" />
        <path d="M 302.6 50 L 302.6 60" />
        <path d="M 319.2 50 L 319.2 60" />
        <path d="M 335.8 50 L 335.8 60" />
        <path d="M 352.4 50 L 352.4 60" />
        <path d="M 369 50 L 369 60" />
        <path d="M 385.6 50 L 385.6 60" />
        <path d="M 402.2 50 L 402.2 60" />
        <path d="M 418.8 50 L 418.8 60" />
        <path d="M 435.4 50 L 435.4 60" />
        <path d="M 452 50 L 452 70" />
        <path d="M 468.6 50 L 468.6 60" />
        <path d="M 485.2 50 L 485.2 60" />
        <path d="M 501.8 50 L 501.8 60" />
        <path d="M 518.4 50 L 518.4 60" />
        <path d="M 535 50 L 535 60" />
        <path d="M 551.6 50 L 551.6 60" />
        <path d="M 568.2 50 L 568.2 60" />
        <path d="M 584.8 50 L 584.8 60" />
        <path d="M 601.4 50 L 601.4 60" />
        <path d="M 618 50 L 618 70" />
        <path d="M 634.6 50 L 634.6 60" />
        <path d="M 651.2 50 L 651.2 60" />
        <path d="M 667.8 50 L 667.8 60" />
        <path d="M 684.4 50 L 684.4 60" />
        <path d="M 701 50 L 701 60" />
        <path d="M 717.6 50 L 717.6 60" />
        <path d="M 734.2 50 L 734.2 60" />
        <path d="M 750.8 50 L 750.8 60" />
        <path d="M 767.4 50 L 767.4 60" />
        <path d="M 784 50 L 784 70" />
        <path d="M 800.6 50 L 800.6 60" />
        <path d="M 817.2 50 L 817.2 60" />
        <path d="M 833.8 50 L 833.8 60" />
        <path d="M 850.4 50 L 850.4 60" />
        <path d="M 867 50 L 867 60" />
        <path d="M 883.6 50 L 883.6 60" />
        <path d="M 900.2 50 L 900.2 60" />
        <path d="M 916.8 50 L 916.8 60" />
        <path d="M 933.4 50 L 933.4 60" />
        <path d="M 950 50 L 950 70" />
    </g>
    <g id="frame_0_rightticks">
        <path d="M 950 774.788 L 940 774.788" />
        <path d="M 950 847.394 L 940 847.394" />
        <path d="M 950 72.9304 L 930 72.9304" />
        <path d="M 950 496.465 L 940 496.465" />
        <path d="M 950 920 L 930 920" />
        <path d="M 950 218.142 L 940 218.142" />
        <path d="M 950 641.677 L 940 641.677" />
        <path d="M 950 363.354 L 940 363.354" />
        <path d="M 950 786.889 L 940 786.889" />
        <path d="M 950 85.0314 L 940 85.0314" />
        <path d="M 950 508.566 L 940 508.566" />
        <path d="M 950 230.243 L 940 230.243" />
        <path d="M 950 653.778 L 940 653.778" />
        <path d="M 950 375.455 L 940 375.455" />
        <path d="M 950 798.99 L 930 798.99" />
        <path d="M 950 97.1324 L 940 97.1324" />
        <path d="M 950 520.667 L 940 520.667" />
        <path d="M 950 702.182 L 940 702.182" />
        <path d="M 950 665.879 L 940 665.879" />
        <path d="M 950 907.899 L 940 907.899" />
        <path d="M 950 387.556 L 940 387.556" />
        <path d="M 950 109.233 L 940 109.233" />
        <path d="M 950 532.768 L 940 532.768" />
        <path d="M 950 254.445 L 940 254.445" />
        <path d="M 950 677.98 L 930 677.98" />
        <path d="M 950 399.657 L 940 399.657" />
        <path d="M 950 823.192 L 940 823.192" />
        <path d="M 950 121.334 L 940 121.334" />
        <path d="M 950 544.869 L 940 544.869" />
        <path d="M 950 266.546 L 940 266.546" />
        <path d="M 950 690.081 L 940 690.081" />
        <path d="M 950 411.758 L 940 411.758" />
        <path d="M 950 835.293 L 940 835.293" />
        <path d="M 950 133.435 L 940 133.435" />
        <path d="M 950 556.97 L 930 556.97" />
        <path d="M 950 278.647 L 940 278.647" />
        <path d="M 950 895.798 L 940 895.798" />
        <path d="M 950 811.091 L 940 811.091" />
        <path d="M 950 423.859 L 940 423.859" />
        <path d="M 950 145.536 L 940 145.536" />
        <path d="M 950 569.071 L 940 569.071" />
        <path d="M 950 290.748 L 940 290.748" />
        <path d="M 950 714.283 L 940 714.283" />
        <path d="M 950 435.96 L 930 435.96" />
        <path d="M 950 859.495 L 940 859.495" />
        <path d="M 950 351.253 L 940 351.253" />
        <path d="M 950 581.172 L 940 581.172" />
        <path d="M 950 302.849 L 940 302.849" />
        <path d="M 950 726.384 L 940 726.384" />
        <path d="M 950 157.637 L 940 157.637" />
        <path d="M 950 314.95 L 930 314.95" />
        <path d="M 950 448.061 L 940 448.061" />
        <path d="M 950 871.596 L 940 871.596" />
        <path d="M 950 169.738 L 940 169.738" />
        <path d="M 950 593.273 L 940 593.273" />
        <path d="M 950 883.697 L 940 883.697" />
        <path d="M 950 738.485 L 940 738.485" />
        <path d="M 950 460.162 L 940 460.162" />
        <path d="M 950 181.839 L 940 181.839" />
        <path d="M 950 605.374 L 940 605.374" />
        <path d="M 950 242.344 L 940 242.344" />
        <path d="M 950 327.051 L 940 327.051" />
        <path d="M 950 750.586 L 940 750.586" />
        <path d="M 950 472.263 L 940 472.263" />
        <path d="M 950 193.94 L 930 193.94" />
        <path d="M 950 617.475 L 940 617.475" />
        <path d="M 950 339.152 L 940 339.152" />
        <path d="M 950 762.687 L 940 762.687" />
        <path d="M 950 60.8294 L 940 60.8294" />
        <path d="M 950 484.364 L 940 484.364" />
        <path d="M 950 206.041 L 940 206.041" />
        <path d="M 950 629.576 L 940 629.576" />
    </g>
</g>
</g>
</svg>
