<?xml version="1.0" standalone="no"?>
<!DOCTYPE svg PUBLIC "-//W3C//DTD SVG 1.1//EN" "http://www.w3.org/Graphics/SVG/1.1/DTD/svg11.dtd">
<svg style="stroke-linejoin:miter; stroke:black; stroke-width:2.5; text-anchor:middle; fill:none" xmlns="http://www.w3.org/2000/svg" font-family="Helvetica, Arial, FreeSans, Sans, sans, sans-serif" width="1000px" height="1000px" version="1.1" xmlns:xlink="http://www.w3.org/1999/xlink" viewBox="0 0 1000 1000">
<defs>
    <clipPath id="Histogram_0_clip">
        <rect x="120" y="50" width="830" height="870" />
    </clipPath>
    <clipPath id="Histogram_1_clip">
        <rect x="120" y="50" width="830" height="870" />
    </clipPath>
</defs>
<g id="whole_document">
<rect id="background" x="0" y="0" width="1000" height="1000" stroke="none" fill="white" />
<g id="Histogram_0" clip-path="url(#Histogram_0_clip)">
    <path d="M 120 920 L 120 129.091 L 161.5 129.091 L 161.5 885.544 L 203 885.544 L 203 919.647 L 244.5 919.647 L 244.5 911.984 L 286 911.984 L 286 920 L 327.5 920 L 327.5 920 L 369 920 L 369 920 L 410.5 920 L 410.5 920 L 452 920 L 452 920 L 493.5 920 L 493.5 920 L 535 920 L 535 920 L 576.5 920 L 576.5 920 L 618 920 L 618 920 L 659.5 920 L 659.5 920 L 701 920 L 701 920 L 742.5 920 L 742.5 920 L 784 920 L 784 920 L 825.5 920 L 825.5 920 L 867 920 L 867 920 L 908.5 920 L 908.5 920 L 950 920 L 950 920" stroke-width="3" stroke-dasharray="" stroke="black" stroke-opacity="1" fill="DodgerBlue" fill-opacity="1" />
</g>
<g id="Histogram_1" clip-path="url(#Histogram_1_clip)">
    <path d="M 120 920 L 120 920 L 161.5 920 L 161.5 920 L 203 920 L 203 920 L 244.5 920 L 244.5 911.984 L 286 911.984 L 286 920 L 327.5 920 L 327.5 920 L 369 920 L 369 920 L 410.5 920 L 410.5 920 L 452 920 L 452 920 L 493.5 920 L 493.5 920 L 535 920 L 535 920 L 576.5 920 L 576.5 920 L 618 920 L 618 920 L 659.5 920 L 659.5 920 L 701 920 L 701 920 L 742.5 920 L 742.5 920 L 784 920 L 784 920 L 825.5 920 L 825.5 920 L 867 920 L 867 920 L 908.5 920 L 908.5 920 L 950 920 L 950 920" stroke-width="3" stroke-dasharray="" stroke="black" stroke-opacity="1" fill="darkorange" fill-opacity="1" />
</g>
<g id="frame_0">
    <rect id="frame_0_border" x="120" y="50" width="830" height="870" />
    <text id="frame_0_bottomlabel" font-size="30" transform="translate(535, 989.6)" text-anchor="middle" dominant-baseline="middle" stroke="none" fill="black">microseconds</text>
    <g id="frame_0_bottomticks">
        <path d="M 120 920 L 120 900" />
        <text font-size="30" transform="translate(120, 950)" text-anchor="middle" dominant-baseline="middle" stroke="none" fill="black">0</text>
        <path d="M 136.6 920 L 136.6 910" />
        <path d="M 153.2 920 L 153.2 910" />
        <path d="M 169.8 920 L 169.8 910" />
        <path d="M 186.4 920 L 186.4 910" />
        <path d="M 203 920 L 203 910" />
        <path d="M 219.6 920 L 219.6 910" />
        <path d="M 236.2 920 L 236.2 910" />
        <path d="M 252.8 920 L 252.8 910" />
        <path d="M 269.4 920 L 269.4 910" />
        <path d="M 286 920 L 286 900" />
        <text font-size="30" transform="translate(286, 950)" text-anchor="middle" dominant-baseline="middle" stroke="none" fill="black">10</text>
        <path d="M 302.6 920 L 302.6 910" />
        <path d="M 319.2 920 L 319.2 910" />
        <path d="M 335.8 920 L 335.8 910" />
        <path d="M 352.4 920 L 352.4 910" />
        <path d="M 369 920 L 369 910" />
        <path d="M 385.6 920 L 385.6 910" />
        <path d="M 402.2 920 L 402.2 910" />
        <path d="M 418.8 920 L 418.8 910" />
        <path d="M 435.4 920 L 435.4 910" />
        <path d="M 452 920 L 452 900" />
        <text font-size="30" transform="translate(452, 950)" text-anchor="middle" dominant-baseline="middle" stroke="none" fill="black">20</text>
        <path d="M 468.6 920 L 468.6 910" />
        <path d="M 485.2 920 L 485.2 910" />
        <path d="M 501.8 920 L 501.8 910" />
        <path d="M 518.4 920 L 518.4 910" />
        <path d="M 535 920 L 535 910" />
        <path d="M 551.6 920 L 551.6 910" />
        <path d="M 568.2 920 L 568.2 910" />
        <path d="M 584.8 920 L 584.8 910" />
        <path d="M 601.4 920 L 601.4 910" />
        <path d="M 618 920 L 618 900" />
        <text font-size="30" transform="translate(618, 950)" text-anchor="middle" dominant-baseline="middle" stroke="none" fill="black">30</text>
        <path d="M 634.6 920 L 634.6 910" />
        <path d="M 651.2 920 L 651.2 910" />
        <path d="M 667.8 920 L 667.8 910" />
        <path d="M 684.4 920 L 684.4 910" />
        <path d="M 701 920 L 701 910" />
        <path d="M 717.6 920 L 717.6 910" />
        <path d="M 734.2 920 L 734.2 910" />
        <path d="M 750.8 920 L 750.8 910" />
        <path d="M 767.4 920 L 767.4 910" />
        <path d="M 784 920 L 784 900" />
        <text font-size="30" transform="translate(784, 950)" text-anchor="middle" dominant-baseline="middle" stroke="none" fill="black">40</text>
        <path d="M 800.6 920 L 800.6 910" />
        <path d="M 817.2 920 L 817.2 910" />
        <path d="M 833.8 920 L 833.8 910" />
        <path d="M 850.4 920 L 850.4 910" />
        <path d="M 867 920 L 867 910" />
        <path d="M 883.6 920 L 883.6 910" />
        <path d="M 900.2 920 L 900.2 910" />
        <path d="M 916.8 920 L 916.8 910" />
        <path d="M 933.4 920 L 933.4 910" />
        <path d="M 950 920 L 950 900" />
        <text font-size="30" transform="translate(950, 950)" text-anchor="middle" dominant-baseline="middle" stroke="none" fill="black">50</text>
    </g>
    <g id="frame_0_leftticks">
        <path d="M 120 831.224 L 130 831.224" />
        <path d="M 120 786.837 L 130 786.837" />
        <path d="M 120 109.923 L 130 109.923" />
        <path d="M 120 631.479 L 130 631.479" />
        <path d="M 120 398.444 L 130 398.444" />
        <path d="M 120 920 L 140 920" />
        <text font-size="30" transform="translate(110, 930)" text-anchor="end" dominant-baseline="middle" stroke="none" fill="black">0</text>
        <path d="M 120 686.964 L 130 686.964" />
        <path d="M 120 453.928 L 130 453.928" />
        <path d="M 120 476.122 L 140 476.122" />
        <text font-size="30" transform="translate(110, 486.122)" text-anchor="end" dominant-baseline="middle" stroke="none" fill="black">400000</text>
        <path d="M 120 220.893 L 130 220.893" />
        <path d="M 120 742.449 L 130 742.449" />
        <path d="M 120 820.128 L 130 820.128" />
        <path d="M 120 276.377 L 130 276.377" />
        <path d="M 120 564.898 L 130 564.898" />
        <path d="M 120 331.862 L 130 331.862" />
        <path d="M 120 620.383 L 130 620.383" />
        <path d="M 120 908.903 L 130 908.903" />
        <path d="M 120 897.806 L 130 897.806" />
        <path d="M 120 797.934 L 130 797.934" />
        <path d="M 120 442.831 L 130 442.831" />
        <path d="M 120 209.796 L 130 209.796" />
        <path d="M 120 498.316 L 130 498.316" />
        <path d="M 120 320.765 L 130 320.765" />
        <path d="M 120 265.28 L 130 265.28" />
        <path d="M 120 143.214 L 140 143.214" />
        <text font-size="30" transform="translate(110, 153.214)" text-anchor="end" dominant-baseline="middle" stroke="none" fill="black">700000</text>
        <path d="M 120 553.801 L 130 553.801" />
        <path d="M 120 54.4384 L 130 54.4384" />
        <path d="M 120 886.709 L 130 886.709" />
        <path d="M 120 864.515 L 130 864.515" />
        <path d="M 120 87.7293 L 130 87.7293" />
        <path d="M 120 609.286 L 130 609.286" />
        <path d="M 120 376.25 L 130 376.25" />
        <path d="M 120 187.602 L 130 187.602" />
        <path d="M 120 664.77 L 130 664.77" />
        <path d="M 120 842.321 L 130 842.321" />
        <path d="M 120 431.735 L 130 431.735" />
        <path d="M 120 198.699 L 130 198.699" />
        <path d="M 120 720.255 L 130 720.255" />
        <path d="M 120 875.612 L 130 875.612" />
        <path d="M 120 675.867 L 130 675.867" />
        <path d="M 120 487.219 L 130 487.219" />
        <path d="M 120 254.183 L 140 254.183" />
        <text font-size="30" transform="translate(110, 264.183)" text-anchor="end" dominant-baseline="middle" stroke="none" fill="black">600000</text>
        <path d="M 120 542.704 L 130 542.704" />
        <path d="M 120 309.668 L 130 309.668" />
        <path d="M 120 598.189 L 130 598.189" />
        <path d="M 120 365.153 L 140 365.153" />
        <text font-size="30" transform="translate(110, 375.153)" text-anchor="end" dominant-baseline="middle" stroke="none" fill="black">500000</text>
        <path d="M 120 775.74 L 130 775.74" />
        <path d="M 120 132.117 L 130 132.117" />
        <path d="M 120 653.673 L 130 653.673" />
        <path d="M 120 420.638 L 130 420.638" />
        <path d="M 120 709.158 L 130 709.158" />
        <path d="M 120 98.8262 L 130 98.8262" />
        <path d="M 120 165.408 L 130 165.408" />
        <path d="M 120 243.086 L 130 243.086" />
        <path d="M 120 764.643 L 130 764.643" />
        <path d="M 120 531.607 L 130 531.607" />
        <path d="M 120 853.418 L 130 853.418" />
        <path d="M 120 731.352 L 130 731.352" />
        <path d="M 120 298.571 L 130 298.571" />
        <path d="M 120 76.6323 L 130 76.6323" />
        <path d="M 120 65.5354 L 130 65.5354" />
        <path d="M 120 587.092 L 140 587.092" />
        <text font-size="30" transform="translate(110, 597.092)" text-anchor="end" dominant-baseline="middle" stroke="none" fill="black">300000</text>
        <path d="M 120 154.311 L 130 154.311" />
        <path d="M 120 509.413 L 130 509.413" />
        <path d="M 120 642.576 L 130 642.576" />
        <path d="M 120 387.347 L 130 387.347" />
        <path d="M 120 409.541 L 130 409.541" />
        <path d="M 120 176.505 L 130 176.505" />
        <path d="M 120 753.546 L 130 753.546" />
        <path d="M 120 121.02 L 130 121.02" />
        <path d="M 120 465.025 L 130 465.025" />
        <path d="M 120 698.061 L 140 698.061" />
        <text font-size="30" transform="translate(110, 708.061)" text-anchor="end" dominant-baseline="middle" stroke="none" fill="black">200000</text>
        <path d="M 120 231.99 L 130 231.99" />
        <path d="M 120 354.056 L 130 354.056" />
        <path d="M 120 520.51 L 130 520.51" />
        <path d="M 120 287.474 L 130 287.474" />
        <path d="M 120 809.031 L 140 809.031" />
        <text font-size="30" transform="translate(110, 819.031)" text-anchor="end" dominant-baseline="middle" stroke="none" fill="black">100000</text>
        <path d="M 120 342.959 L 130 342.959" />
        <path d="M 120 575.995 L 130 575.995" />
    </g>
    <text id="frame_0_toplabel" font-size="30" transform="translate(535, 32.6)" text-anchor="middle" dominant-baseline="middle" stroke="none" fill="black">a.foldRight</text>
    <g id="frame_0_topticks">
        <path d="M 120 50 L 120 70" />
        <path d="M 136.6 50 L 136.6 60" />
        <path d="M 153.2 50 L 153.2 60" />
        <path d="M 169.8 50 L 169.8 60" />
        <path d="M 186.4 50 L 186.4 60" />
        <path d="M 203 50 L 203 60" />
        <path d="M 219.6 50 L 219.6 60" />
        <path d="M 236.2 50 L 236.2 60" />
        <path d="M 252.8 50 L 252.8 60" />
        <path d="M 269.4 50 L 269.4 60" />
        <path d="M 286 50 L 286 70" />
        <path d="M 302.6 50 L 302.6 60" />
        <path d="M 319.2 50 L 319.2 60" />
        <path d="M 335.8 50 L 335.8 60" />
        <path d="M 352.4 50 L 352.4 60" />
        <path d="M 369 50 L 369 60" />
        <path d="M 385.6 50 L 385.6 60" />
        <path d="M 402.2 50 L 402.2 60" />
        <path d="M 418.8 50 L 418.8 60" />
        <path d="M 435.4 50 L 435.4 60" />
        <path d="M 452 50 L 452 70" />
        <path d="M 468.6 50 L 468.6 60" />
        <path d="M 485.2 50 L 485.2 60" />
        <path d="M 501.8 50 L 501.8 60" />
        <path d="M 518.4 50 L 518.4 60" />
        <path d="M 535 50 L 535 60" />
        <path d="M 551.6 50 L 551.6 60" />
        <path d="M 568.2 50 L 568.2 60" />
        <path d="M 584.8 50 L 584.8 60" />
        <path d="M 601.4 50 L 601.4 60" />
        <path d="M 618 50 L 618 70" />
        <path d="M 634.6 50 L 634.6 60" />
        <path d="M 651.2 50 L 651.2 60" />
        <path d="M 667.8 50 L 667.8 60" />
        <path d="M 684.4 50 L 684.4 60" />
        <path d="M 701 50 L 701 60" />
        <path d="M 717.6 50 L 717.6 60" />
        <path d="M 734.2 50 L 734.2 60" />
        <path d="M 750.8 50 L 750.8 60" />
        <path d="M 767.4 50 L 767.4 60" />
        <path d="M 784 50 L 784 70" />
        <path d="M 800.6 50 L 800.6 60" />
        <path d="M 817.2 50 L 817.2 60" />
        <path d="M 833.8 50 L 833.8 60" />
        <path d="M 850.4 50 L 850.4 60" />
        <path d="M 867 50 L 867 60" />
        <path d="M 883.6 50 L 883.6 60" />
        <path d="M 900.2 50 L 900.2 60" />
        <path d="M 916.8 50 L 916.8 60" />
        <path d="M 933.4 50 L 933.4 60" />
        <path d="M 950 50 L 950 70" />
    </g>
    <g id="frame_0_rightticks">
        <path d="M 950 831.224 L 940 831.224" />
        <path d="M 950 786.837 L 940 786.837" />
        <path d="M 950 109.923 L 940 109.923" />
        <path d="M 950 631.479 L 940 631.479" />
        <path d="M 950 398.444 L 940 398.444" />
        <path d="M 950 920 L 930 920" />
        <path d="M 950 686.964 L 940 686.964" />
        <path d="M 950 453.928 L 940 453.928" />
        <path d="M 950 476.122 L 930 476.122" />
        <path d="M 950 220.893 L 940 220.893" />
        <path d="M 950 742.449 L 940 742.449" />
        <path d="M 950 820.128 L 940 820.128" />
        <path d="M 950 276.377 L 940 276.377" />
        <path d="M 950 564.898 L 940 564.898" />
        <path d="M 950 331.862 L 940 331.862" />
        <path d="M 950 620.383 L 940 620.383" />
        <path d="M 950 908.903 L 940 908.903" />
        <path d="M 950 897.806 L 940 897.806" />
        <path d="M 950 797.934 L 940 797.934" />
        <path d="M 950 442.831 L 940 442.831" />
        <path d="M 950 209.796 L 940 209.796" />
        <path d="M 950 498.316 L 940 498.316" />
        <path d="M 950 320.765 L 940 320.765" />
        <path d="M 950 265.28 L 940 265.28" />
        <path d="M 950 143.214 L 930 143.214" />
        <path d="M 950 553.801 L 940 553.801" />
        <path d="M 950 54.4384 L 940 54.4384" />
        <path d="M 950 886.709 L 940 886.709" />
        <path d="M 950 864.515 L 940 864.515" />
        <path d="M 950 87.7293 L 940 87.7293" />
        <path d="M 950 609.286 L 940 609.286" />
        <path d="M 950 376.25 L 940 376.25" />
        <path d="M 950 187.602 L 940 187.602" />
        <path d="M 950 664.77 L 940 664.77" />
        <path d="M 950 842.321 L 940 842.321" />
        <path d="M 950 431.735 L 940 431.735" />
        <path d="M 950 198.699 L 940 198.699" />
        <path d="M 950 720.255 L 940 720.255" />
        <path d="M 950 875.612 L 940 875.612" />
        <path d="M 950 675.867 L 940 675.867" />
        <path d="M 950 487.219 L 940 487.219" />
        <path d="M 950 254.183 L 930 254.183" />
        <path d="M 950 542.704 L 940 542.704" />
        <path d="M 950 309.668 L 940 309.668" />
        <path d="M 950 598.189 L 940 598.189" />
        <path d="M 950 365.153 L 930 365.153" />
        <path d="M 950 775.74 L 940 775.74" />
        <path d="M 950 132.117 L 940 132.117" />
        <path d="M 950 653.673 L 940 653.673" />
        <path d="M 950 420.638 L 940 420.638" />
        <path d="M 950 709.158 L 940 709.158" />
        <path d="M 950 98.8262 L 940 98.8262" />
        <path d="M 950 165.408 L 940 165.408" />
        <path d="M 950 243.086 L 940 243.086" />
        <path d="M 950 764.643 L 940 764.643" />
        <path d="M 950 531.607 L 940 531.607" />
        <path d="M 950 853.418 L 940 853.418" />
        <path d="M 950 731.352 L 940 731.352" />
        <path d="M 950 298.571 L 940 298.571" />
        <path d="M 950 76.6323 L 940 76.6323" />
        <path d="M 950 65.5354 L 940 65.5354" />
        <path d="M 950 587.092 L 930 587.092" />
        <path d="M 950 154.311 L 940 154.311" />
        <path d="M 950 509.413 L 940 509.413" />
        <path d="M 950 642.576 L 940 642.576" />
        <path d="M 950 387.347 L 940 387.347" />
        <path d="M 950 409.541 L 940 409.541" />
        <path d="M 950 176.505 L 940 176.505" />
        <path d="M 950 753.546 L 940 753.546" />
        <path d="M 950 121.02 L 940 121.02" />
        <path d="M 950 465.025 L 940 465.025" />
        <path d="M 950 698.061 L 930 698.061" />
        <path d="M 950 231.99 L 940 231.99" />
        <path d="M 950 354.056 L 940 354.056" />
        <path d="M 950 520.51 L 940 520.51" />
        <path d="M 950 287.474 L 940 287.474" />
        <path d="M 950 809.031 L 930 809.031" />
        <path d="M 950 342.959 L 940 342.959" />
        <path d="M 950 575.995 L 940 575.995" />
    </g>
</g>
</g>
</svg>
