<?xml version="1.0" standalone="no"?>
<!DOCTYPE svg PUBLIC "-//W3C//DTD SVG 1.1//EN" "http://www.w3.org/Graphics/SVG/1.1/DTD/svg11.dtd">
<svg style="stroke-linejoin:miter; stroke:black; stroke-width:2.5; text-anchor:middle; fill:none" xmlns="http://www.w3.org/2000/svg" font-family="Helvetica, Arial, FreeSans, Sans, sans, sans-serif" width="1000px" height="1000px" version="1.1" xmlns:xlink="http://www.w3.org/1999/xlink" viewBox="0 0 1000 1000">
<defs>
    <clipPath id="Histogram_0_clip">
        <rect x="120" y="50" width="830" height="870" />
    </clipPath>
    <clipPath id="Histogram_1_clip">
        <rect x="120" y="50" width="830" height="870" />
    </clipPath>
</defs>
<g id="whole_document">
<rect id="background" x="0" y="0" width="1000" height="1000" stroke="none" fill="white" />
<g id="Histogram_0" clip-path="url(#Histogram_0_clip)">
    <path d="M 120 920 L 120 863.845 L 161.5 863.845 L 161.5 919.157 L 203 919.157 L 203 920 L 244.5 920 L 244.5 129.091 L 286 129.091 L 286 916.533 L 327.5 916.533 L 327.5 917.283 L 369 917.283 L 369 916.116 L 410.5 916.116 L 410.5 916.321 L 452 916.321 L 452 918.068 L 493.5 918.068 L 493.5 919.066 L 535 919.066 L 535 919.455 L 576.5 919.455 L 576.5 919.64 L 618 919.64 L 618 919.425 L 659.5 919.425 L 659.5 919.191 L 701 919.191 L 701 919.782 L 742.5 919.782 L 742.5 919.833 L 784 919.833 L 784 919.874 L 825.5 919.874 L 825.5 919.94 L 867 919.94 L 867 919.944 L 908.5 919.944 L 908.5 919.973 L 950 919.973 L 950 920" stroke-width="3" stroke-dasharray="" stroke="black" stroke-opacity="1" fill="DodgerBlue" fill-opacity="1" />
</g>
<g id="Histogram_1" clip-path="url(#Histogram_1_clip)">
    <path d="M 120 920 L 120 920 L 161.5 920 L 161.5 920 L 203 920 L 203 920 L 244.5 920 L 244.5 129.091 L 286 129.091 L 286 916.533 L 327.5 916.533 L 327.5 917.283 L 369 917.283 L 369 916.116 L 410.5 916.116 L 410.5 919.802 L 452 919.802 L 452 919.876 L 493.5 919.876 L 493.5 919.948 L 535 919.948 L 535 920 L 576.5 920 L 576.5 920 L 618 920 L 618 920 L 659.5 920 L 659.5 920 L 701 920 L 701 920 L 742.5 920 L 742.5 920 L 784 920 L 784 920 L 825.5 920 L 825.5 920 L 867 920 L 867 920 L 908.5 920 L 908.5 920 L 950 920 L 950 920" stroke-width="3" stroke-dasharray="" stroke="black" stroke-opacity="1" fill="darkorange" fill-opacity="1" />
</g>
<g id="frame_0">
    <rect id="frame_0_border" x="120" y="50" width="830" height="870" />
    <text id="frame_0_bottomlabel" font-size="30" transform="translate(535, 989.6)" text-anchor="middle" dominant-baseline="middle" stroke="none" fill="black">microseconds</text>
    <g id="frame_0_bottomticks">
        <path d="M 120 920 L 120 900" />
        <text font-size="30" transform="translate(120, 950)" text-anchor="middle" dominant-baseline="middle" stroke="none" fill="black">0</text>
        <path d="M 136.6 920 L 136.6 910" />
        <path d="M 153.2 920 L 153.2 910" />
        <path d="M 169.8 920 L 169.8 910" />
        <path d="M 186.4 920 L 186.4 910" />
        <path d="M 203 920 L 203 910" />
        <path d="M 219.6 920 L 219.6 910" />
        <path d="M 236.2 920 L 236.2 910" />
        <path d="M 252.8 920 L 252.8 910" />
        <path d="M 269.4 920 L 269.4 910" />
        <path d="M 286 920 L 286 900" />
        <text font-size="30" transform="translate(286, 950)" text-anchor="middle" dominant-baseline="middle" stroke="none" fill="black">10</text>
        <path d="M 302.6 920 L 302.6 910" />
        <path d="M 319.2 920 L 319.2 910" />
        <path d="M 335.8 920 L 335.8 910" />
        <path d="M 352.4 920 L 352.4 910" />
        <path d="M 369 920 L 369 910" />
        <path d="M 385.6 920 L 385.6 910" />
        <path d="M 402.2 920 L 402.2 910" />
        <path d="M 418.8 920 L 418.8 910" />
        <path d="M 435.4 920 L 435.4 910" />
        <path d="M 452 920 L 452 900" />
        <text font-size="30" transform="translate(452, 950)" text-anchor="middle" dominant-baseline="middle" stroke="none" fill="black">20</text>
        <path d="M 468.6 920 L 468.6 910" />
        <path d="M 485.2 920 L 485.2 910" />
        <path d="M 501.8 920 L 501.8 910" />
        <path d="M 518.4 920 L 518.4 910" />
        <path d="M 535 920 L 535 910" />
        <path d="M 551.6 920 L 551.6 910" />
        <path d="M 568.2 920 L 568.2 910" />
        <path d="M 584.8 920 L 584.8 910" />
        <path d="M 601.4 920 L 601.4 910" />
        <path d="M 618 920 L 618 900" />
        <text font-size="30" transform="translate(618, 950)" text-anchor="middle" dominant-baseline="middle" stroke="none" fill="black">30</text>
        <path d="M 634.6 920 L 634.6 910" />
        <path d="M 651.2 920 L 651.2 910" />
        <path d="M 667.8 920 L 667.8 910" />
        <path d="M 684.4 920 L 684.4 910" />
        <path d="M 701 920 L 701 910" />
        <path d="M 717.6 920 L 717.6 910" />
        <path d="M 734.2 920 L 734.2 910" />
        <path d="M 750.8 920 L 750.8 910" />
        <path d="M 767.4 920 L 767.4 910" />
        <path d="M 784 920 L 784 900" />
        <text font-size="30" transform="translate(784, 950)" text-anchor="middle" dominant-baseline="middle" stroke="none" fill="black">40</text>
        <path d="M 800.6 920 L 800.6 910" />
        <path d="M 817.2 920 L 817.2 910" />
        <path d="M 833.8 920 L 833.8 910" />
        <path d="M 850.4 920 L 850.4 910" />
        <path d="M 867 920 L 867 910" />
        <path d="M 883.6 920 L 883.6 910" />
        <path d="M 900.2 920 L 900.2 910" />
        <path d="M 916.8 920 L 916.8 910" />
        <path d="M 933.4 920 L 933.4 910" />
        <path d="M 950 920 L 950 900" />
        <text font-size="30" transform="translate(950, 950)" text-anchor="middle" dominant-baseline="middle" stroke="none" fill="black">50</text>
    </g>
    <g id="frame_0_leftticks">
        <path d="M 120 817.8 L 130 817.8" />
        <path d="M 120 766.7 L 130 766.7" />
        <path d="M 120 587.85 L 130 587.85" />
        <path d="M 120 319.575 L 130 319.575" />
        <path d="M 120 920 L 140 920" />
        <text font-size="30" transform="translate(110, 930)" text-anchor="end" dominant-baseline="middle" stroke="none" fill="black">0</text>
        <path d="M 120 651.725 L 130 651.725" />
        <path d="M 120 383.45 L 130 383.45" />
        <path d="M 120 115.175 L 130 115.175" />
        <path d="M 120 715.6 L 130 715.6" />
        <path d="M 120 805.025 L 130 805.025" />
        <path d="M 120 179.05 L 130 179.05" />
        <path d="M 120 511.2 L 130 511.2" />
        <path d="M 120 242.925 L 130 242.925" />
        <path d="M 120 575.075 L 130 575.075" />
        <path d="M 120 907.225 L 130 907.225" />
        <path d="M 120 894.45 L 130 894.45" />
        <path d="M 120 779.475 L 130 779.475" />
        <path d="M 120 370.675 L 130 370.675" />
        <path d="M 120 102.4 L 130 102.4" />
        <path d="M 120 434.55 L 130 434.55" />
        <path d="M 120 230.15 L 130 230.15" />
        <path d="M 120 166.275 L 130 166.275" />
        <path d="M 120 498.425 L 130 498.425" />
        <path d="M 120 881.675 L 130 881.675" />
        <path d="M 120 856.125 L 130 856.125" />
        <path d="M 120 562.3 L 130 562.3" />
        <path d="M 120 294.025 L 130 294.025" />
        <path d="M 120 76.8501 L 130 76.8501" />
        <path d="M 120 626.175 L 130 626.175" />
        <path d="M 120 830.575 L 130 830.575" />
        <path d="M 120 357.9 L 130 357.9" />
        <path d="M 120 89.6251 L 130 89.6251" />
        <path d="M 120 690.05 L 130 690.05" />
        <path d="M 120 868.9 L 130 868.9" />
        <path d="M 120 638.95 L 130 638.95" />
        <path d="M 120 421.775 L 130 421.775" />
        <path d="M 120 153.5 L 140 153.5" />
        <text font-size="30" transform="translate(110, 163.5)" text-anchor="end" dominant-baseline="middle" stroke="none" fill="black">600000</text>
        <path d="M 120 485.65 L 130 485.65" />
        <path d="M 120 217.375 L 130 217.375" />
        <path d="M 120 549.525 L 130 549.525" />
        <path d="M 120 281.25 L 140 281.25" />
        <text font-size="30" transform="translate(110, 291.25)" text-anchor="end" dominant-baseline="middle" stroke="none" fill="black">500000</text>
        <path d="M 120 753.925 L 130 753.925" />
        <path d="M 120 613.4 L 130 613.4" />
        <path d="M 120 345.125 L 130 345.125" />
        <path d="M 120 677.275 L 130 677.275" />
        <path d="M 120 51.3001 L 130 51.3001" />
        <path d="M 120 140.725 L 130 140.725" />
        <path d="M 120 741.15 L 130 741.15" />
        <path d="M 120 472.875 L 130 472.875" />
        <path d="M 120 843.35 L 130 843.35" />
        <path d="M 120 702.825 L 130 702.825" />
        <path d="M 120 204.6 L 130 204.6" />
        <path d="M 120 409 L 140 409" />
        <text font-size="30" transform="translate(110, 419)" text-anchor="end" dominant-baseline="middle" stroke="none" fill="black">400000</text>
        <path d="M 120 536.75 L 140 536.75" />
        <text font-size="30" transform="translate(110, 546.75)" text-anchor="end" dominant-baseline="middle" stroke="none" fill="black">300000</text>
        <path d="M 120 447.325 L 130 447.325" />
        <path d="M 120 600.625 L 130 600.625" />
        <path d="M 120 306.8 L 130 306.8" />
        <path d="M 120 332.35 L 130 332.35" />
        <path d="M 120 64.0751 L 130 64.0751" />
        <path d="M 120 728.375 L 130 728.375" />
        <path d="M 120 396.225 L 130 396.225" />
        <path d="M 120 664.5 L 140 664.5" />
        <text font-size="30" transform="translate(110, 674.5)" text-anchor="end" dominant-baseline="middle" stroke="none" fill="black">200000</text>
        <path d="M 120 127.95 L 130 127.95" />
        <path d="M 120 268.475 L 130 268.475" />
        <path d="M 120 460.1 L 130 460.1" />
        <path d="M 120 191.825 L 130 191.825" />
        <path d="M 120 792.25 L 140 792.25" />
        <text font-size="30" transform="translate(110, 802.25)" text-anchor="end" dominant-baseline="middle" stroke="none" fill="black">100000</text>
        <path d="M 120 255.7 L 130 255.7" />
        <path d="M 120 523.975 L 130 523.975" />
    </g>
    <text id="frame_0_toplabel" font-size="30" transform="translate(535, 32.6)" text-anchor="middle" dominant-baseline="middle" stroke="none" fill="black">prob.dist.negativeBinomialQF</text>
    <g id="frame_0_topticks">
        <path d="M 120 50 L 120 70" />
        <path d="M 136.6 50 L 136.6 60" />
        <path d="M 153.2 50 L 153.2 60" />
        <path d="M 169.8 50 L 169.8 60" />
        <path d="M 186.4 50 L 186.4 60" />
        <path d="M 203 50 L 203 60" />
        <path d="M 219.6 50 L 219.6 60" />
        <path d="M 236.2 50 L 236.2 60" />
        <path d="M 252.8 50 L 252.8 60" />
        <path d="M 269.4 50 L 269.4 60" />
        <path d="M 286 50 L 286 70" />
        <path d="M 302.6 50 L 302.6 60" />
        <path d="M 319.2 50 L 319.2 60" />
        <path d="M 335.8 50 L 335.8 60" />
        <path d="M 352.4 50 L 352.4 60" />
        <path d="M 369 50 L 369 60" />
        <path d="M 385.6 50 L 385.6 60" />
        <path d="M 402.2 50 L 402.2 60" />
        <path d="M 418.8 50 L 418.8 60" />
        <path d="M 435.4 50 L 435.4 60" />
        <path d="M 452 50 L 452 70" />
        <path d="M 468.6 50 L 468.6 60" />
        <path d="M 485.2 50 L 485.2 60" />
        <path d="M 501.8 50 L 501.8 60" />
        <path d="M 518.4 50 L 518.4 60" />
        <path d="M 535 50 L 535 60" />
        <path d="M 551.6 50 L 551.6 60" />
        <path d="M 568.2 50 L 568.2 60" />
        <path d="M 584.8 50 L 584.8 60" />
        <path d="M 601.4 50 L 601.4 60" />
        <path d="M 618 50 L 618 70" />
        <path d="M 634.6 50 L 634.6 60" />
        <path d="M 651.2 50 L 651.2 60" />
        <path d="M 667.8 50 L 667.8 60" />
        <path d="M 684.4 50 L 684.4 60" />
        <path d="M 701 50 L 701 60" />
        <path d="M 717.6 50 L 717.6 60" />
        <path d="M 734.2 50 L 734.2 60" />
        <path d="M 750.8 50 L 750.8 60" />
        <path d="M 767.4 50 L 767.4 60" />
        <path d="M 784 50 L 784 70" />
        <path d="M 800.6 50 L 800.6 60" />
        <path d="M 817.2 50 L 817.2 60" />
        <path d="M 833.8 50 L 833.8 60" />
        <path d="M 850.4 50 L 850.4 60" />
        <path d="M 867 50 L 867 60" />
        <path d="M 883.6 50 L 883.6 60" />
        <path d="M 900.2 50 L 900.2 60" />
        <path d="M 916.8 50 L 916.8 60" />
        <path d="M 933.4 50 L 933.4 60" />
        <path d="M 950 50 L 950 70" />
    </g>
    <g id="frame_0_rightticks">
        <path d="M 950 817.8 L 940 817.8" />
        <path d="M 950 766.7 L 940 766.7" />
        <path d="M 950 587.85 L 940 587.85" />
        <path d="M 950 319.575 L 940 319.575" />
        <path d="M 950 920 L 930 920" />
        <path d="M 950 651.725 L 940 651.725" />
        <path d="M 950 383.45 L 940 383.45" />
        <path d="M 950 115.175 L 940 115.175" />
        <path d="M 950 715.6 L 940 715.6" />
        <path d="M 950 805.025 L 940 805.025" />
        <path d="M 950 179.05 L 940 179.05" />
        <path d="M 950 511.2 L 940 511.2" />
        <path d="M 950 242.925 L 940 242.925" />
        <path d="M 950 575.075 L 940 575.075" />
        <path d="M 950 907.225 L 940 907.225" />
        <path d="M 950 894.45 L 940 894.45" />
        <path d="M 950 779.475 L 940 779.475" />
        <path d="M 950 370.675 L 940 370.675" />
        <path d="M 950 102.4 L 940 102.4" />
        <path d="M 950 434.55 L 940 434.55" />
        <path d="M 950 230.15 L 940 230.15" />
        <path d="M 950 166.275 L 940 166.275" />
        <path d="M 950 498.425 L 940 498.425" />
        <path d="M 950 881.675 L 940 881.675" />
        <path d="M 950 856.125 L 940 856.125" />
        <path d="M 950 562.3 L 940 562.3" />
        <path d="M 950 294.025 L 940 294.025" />
        <path d="M 950 76.8501 L 940 76.8501" />
        <path d="M 950 626.175 L 940 626.175" />
        <path d="M 950 830.575 L 940 830.575" />
        <path d="M 950 357.9 L 940 357.9" />
        <path d="M 950 89.6251 L 940 89.6251" />
        <path d="M 950 690.05 L 940 690.05" />
        <path d="M 950 868.9 L 940 868.9" />
        <path d="M 950 638.95 L 940 638.95" />
        <path d="M 950 421.775 L 940 421.775" />
        <path d="M 950 153.5 L 930 153.5" />
        <path d="M 950 485.65 L 940 485.65" />
        <path d="M 950 217.375 L 940 217.375" />
        <path d="M 950 549.525 L 940 549.525" />
        <path d="M 950 281.25 L 930 281.25" />
        <path d="M 950 753.925 L 940 753.925" />
        <path d="M 950 613.4 L 940 613.4" />
        <path d="M 950 345.125 L 940 345.125" />
        <path d="M 950 677.275 L 940 677.275" />
        <path d="M 950 51.3001 L 940 51.3001" />
        <path d="M 950 140.725 L 940 140.725" />
        <path d="M 950 741.15 L 940 741.15" />
        <path d="M 950 472.875 L 940 472.875" />
        <path d="M 950 843.35 L 940 843.35" />
        <path d="M 950 702.825 L 940 702.825" />
        <path d="M 950 204.6 L 940 204.6" />
        <path d="M 950 409 L 930 409" />
        <path d="M 950 536.75 L 930 536.75" />
        <path d="M 950 447.325 L 940 447.325" />
        <path d="M 950 600.625 L 940 600.625" />
        <path d="M 950 306.8 L 940 306.8" />
        <path d="M 950 332.35 L 940 332.35" />
        <path d="M 950 64.0751 L 940 64.0751" />
        <path d="M 950 728.375 L 940 728.375" />
        <path d="M 950 396.225 L 940 396.225" />
        <path d="M 950 664.5 L 930 664.5" />
        <path d="M 950 127.95 L 940 127.95" />
        <path d="M 950 268.475 L 940 268.475" />
        <path d="M 950 460.1 L 940 460.1" />
        <path d="M 950 191.825 L 940 191.825" />
        <path d="M 950 792.25 L 930 792.25" />
        <path d="M 950 255.7 L 940 255.7" />
        <path d="M 950 523.975 L 940 523.975" />
    </g>
</g>
</g>
</svg>
