<?xml version="1.0" standalone="no"?>
<!DOCTYPE svg PUBLIC "-//W3C//DTD SVG 1.1//EN" "http://www.w3.org/Graphics/SVG/1.1/DTD/svg11.dtd">
<svg style="stroke-linejoin:miter; stroke:black; stroke-width:2.5; text-anchor:middle; fill:none" xmlns="http://www.w3.org/2000/svg" font-family="Helvetica, Arial, FreeSans, Sans, sans, sans-serif" width="1000px" height="1000px" version="1.1" xmlns:xlink="http://www.w3.org/1999/xlink" viewBox="0 0 1000 1000">
<defs>
    <clipPath id="Histogram_0_clip">
        <rect x="120" y="50" width="830" height="870" />
    </clipPath>
    <clipPath id="Histogram_1_clip">
        <rect x="120" y="50" width="830" height="870" />
    </clipPath>
</defs>
<g id="whole_document">
<rect id="background" x="0" y="0" width="1000" height="1000" stroke="none" fill="white" />
<g id="Histogram_0" clip-path="url(#Histogram_0_clip)">
    <path d="M 120 920 L 120 129.091 L 161.5 129.091 L 161.5 827.714 L 203 827.714 L 203 649.38 L 244.5 649.38 L 244.5 835.218 L 286 835.218 L 286 890.96 L 327.5 890.96 L 327.5 920 L 369 920 L 369 920 L 410.5 920 L 410.5 920 L 452 920 L 452 920 L 493.5 920 L 493.5 920 L 535 920 L 535 920 L 576.5 920 L 576.5 920 L 618 920 L 618 920 L 659.5 920 L 659.5 920 L 701 920 L 701 920 L 742.5 920 L 742.5 920 L 784 920 L 784 920 L 825.5 920 L 825.5 920 L 867 920 L 867 920 L 908.5 920 L 908.5 920 L 950 920 L 950 920" stroke-width="3" stroke-dasharray="" stroke="black" stroke-opacity="1" fill="DodgerBlue" fill-opacity="1" />
</g>
<g id="Histogram_1" clip-path="url(#Histogram_1_clip)">
    <path d="M 120 920 L 120 920 L 161.5 920 L 161.5 920 L 203 920 L 203 666.531 L 244.5 666.531 L 244.5 835.218 L 286 835.218 L 286 890.96 L 327.5 890.96 L 327.5 920 L 369 920 L 369 920 L 410.5 920 L 410.5 920 L 452 920 L 452 920 L 493.5 920 L 493.5 920 L 535 920 L 535 920 L 576.5 920 L 576.5 920 L 618 920 L 618 920 L 659.5 920 L 659.5 920 L 701 920 L 701 920 L 742.5 920 L 742.5 920 L 784 920 L 784 920 L 825.5 920 L 825.5 920 L 867 920 L 867 920 L 908.5 920 L 908.5 920 L 950 920 L 950 920" stroke-width="3" stroke-dasharray="" stroke="black" stroke-opacity="1" fill="darkorange" fill-opacity="1" />
</g>
<g id="frame_0">
    <rect id="frame_0_border" x="120" y="50" width="830" height="870" />
    <text id="frame_0_bottomlabel" font-size="30" transform="translate(535, 989.6)" text-anchor="middle" dominant-baseline="middle" stroke="none" fill="black">microseconds</text>
    <g id="frame_0_bottomticks">
        <path d="M 120 920 L 120 900" />
        <text font-size="30" transform="translate(120, 950)" text-anchor="middle" dominant-baseline="middle" stroke="none" fill="black">0</text>
        <path d="M 136.6 920 L 136.6 910" />
        <path d="M 153.2 920 L 153.2 910" />
        <path d="M 169.8 920 L 169.8 910" />
        <path d="M 186.4 920 L 186.4 910" />
        <path d="M 203 920 L 203 910" />
        <path d="M 219.6 920 L 219.6 910" />
        <path d="M 236.2 920 L 236.2 910" />
        <path d="M 252.8 920 L 252.8 910" />
        <path d="M 269.4 920 L 269.4 910" />
        <path d="M 286 920 L 286 900" />
        <text font-size="30" transform="translate(286, 950)" text-anchor="middle" dominant-baseline="middle" stroke="none" fill="black">10</text>
        <path d="M 302.6 920 L 302.6 910" />
        <path d="M 319.2 920 L 319.2 910" />
        <path d="M 335.8 920 L 335.8 910" />
        <path d="M 352.4 920 L 352.4 910" />
        <path d="M 369 920 L 369 910" />
        <path d="M 385.6 920 L 385.6 910" />
        <path d="M 402.2 920 L 402.2 910" />
        <path d="M 418.8 920 L 418.8 910" />
        <path d="M 435.4 920 L 435.4 910" />
        <path d="M 452 920 L 452 900" />
        <text font-size="30" transform="translate(452, 950)" text-anchor="middle" dominant-baseline="middle" stroke="none" fill="black">20</text>
        <path d="M 468.6 920 L 468.6 910" />
        <path d="M 485.2 920 L 485.2 910" />
        <path d="M 501.8 920 L 501.8 910" />
        <path d="M 518.4 920 L 518.4 910" />
        <path d="M 535 920 L 535 910" />
        <path d="M 551.6 920 L 551.6 910" />
        <path d="M 568.2 920 L 568.2 910" />
        <path d="M 584.8 920 L 584.8 910" />
        <path d="M 601.4 920 L 601.4 910" />
        <path d="M 618 920 L 618 900" />
        <text font-size="30" transform="translate(618, 950)" text-anchor="middle" dominant-baseline="middle" stroke="none" fill="black">30</text>
        <path d="M 634.6 920 L 634.6 910" />
        <path d="M 651.2 920 L 651.2 910" />
        <path d="M 667.8 920 L 667.8 910" />
        <path d="M 684.4 920 L 684.4 910" />
        <path d="M 701 920 L 701 910" />
        <path d="M 717.6 920 L 717.6 910" />
        <path d="M 734.2 920 L 734.2 910" />
        <path d="M 750.8 920 L 750.8 910" />
        <path d="M 767.4 920 L 767.4 910" />
        <path d="M 784 920 L 784 900" />
        <text font-size="30" transform="translate(784, 950)" text-anchor="middle" dominant-baseline="middle" stroke="none" fill="black">40</text>
        <path d="M 800.6 920 L 800.6 910" />
        <path d="M 817.2 920 L 817.2 910" />
        <path d="M 833.8 920 L 833.8 910" />
        <path d="M 850.4 920 L 850.4 910" />
        <path d="M 867 920 L 867 910" />
        <path d="M 883.6 920 L 883.6 910" />
        <path d="M 900.2 920 L 900.2 910" />
        <path d="M 916.8 920 L 916.8 910" />
        <path d="M 933.4 920 L 933.4 910" />
        <path d="M 950 920 L 950 900" />
        <text font-size="30" transform="translate(950, 950)" text-anchor="middle" dominant-baseline="middle" stroke="none" fill="black">50</text>
    </g>
    <g id="frame_0_leftticks">
        <path d="M 120 296.316 L 130 296.316" />
        <path d="M 120 920 L 140 920" />
        <text font-size="30" transform="translate(110, 930)" text-anchor="end" dominant-baseline="middle" stroke="none" fill="black">0</text>
        <path d="M 120 520.453 L 130 520.453" />
        <path d="M 120 744.589 L 130 744.589" />
        <path d="M 120 267.081 L 130 267.081" />
        <path d="M 120 345.041 L 130 345.041" />
        <path d="M 120 569.178 L 130 569.178" />
        <path d="M 120 237.846 L 140 237.846" />
        <text font-size="30" transform="translate(110, 247.846)" text-anchor="end" dominant-baseline="middle" stroke="none" fill="black">7000</text>
        <path d="M 120 169.63 L 130 169.63" />
        <path d="M 120 393.767 L 130 393.767" />
        <path d="M 120 208.611 L 130 208.611" />
        <path d="M 120 617.903 L 130 617.903" />
        <path d="M 120 842.04 L 130 842.04" />
        <path d="M 120 803.059 L 130 803.059" />
        <path d="M 120 442.492 L 130 442.492" />
        <path d="M 120 666.628 L 130 666.628" />
        <path d="M 120 773.824 L 130 773.824" />
        <path d="M 120 890.765 L 130 890.765" />
        <path d="M 120 491.217 L 130 491.217" />
        <path d="M 120 120.905 L 130 120.905" />
        <path d="M 120 715.354 L 130 715.354" />
        <path d="M 120 315.806 L 130 315.806" />
        <path d="M 120 91.6699 L 130 91.6699" />
        <path d="M 120 539.943 L 130 539.943" />
        <path d="M 120 764.079 L 130 764.079" />
        <path d="M 120 686.119 L 130 686.119" />
        <path d="M 120 364.532 L 130 364.532" />
        <path d="M 120 588.668 L 130 588.668" />
        <path d="M 120 189.12 L 130 189.12" />
        <path d="M 120 413.257 L 130 413.257" />
        <path d="M 120 637.393 L 130 637.393" />
        <path d="M 120 861.53 L 130 861.53" />
        <path d="M 120 910.255 L 130 910.255" />
        <path d="M 120 461.982 L 130 461.982" />
        <path d="M 120 62.4347 L 130 62.4347" />
        <path d="M 120 257.336 L 130 257.336" />
        <path d="M 120 286.571 L 130 286.571" />
        <path d="M 120 510.707 L 130 510.707" />
        <path d="M 120 228.101 L 130 228.101" />
        <path d="M 120 734.844 L 130 734.844" />
        <path d="M 120 335.296 L 140 335.296" />
        <text font-size="30" transform="translate(110, 345.296)" text-anchor="end" dominant-baseline="middle" stroke="none" fill="black">6000</text>
        <path d="M 120 822.549 L 140 822.549" />
        <text font-size="30" transform="translate(110, 832.549)" text-anchor="end" dominant-baseline="middle" stroke="none" fill="black">1000</text>
        <path d="M 120 559.433 L 130 559.433" />
        <path d="M 120 159.885 L 130 159.885" />
        <path d="M 120 793.314 L 130 793.314" />
        <path d="M 120 384.022 L 130 384.022" />
        <path d="M 120 608.158 L 130 608.158" />
        <path d="M 120 140.395 L 140 140.395" />
        <text font-size="30" transform="translate(110, 150.395)" text-anchor="end" dominant-baseline="middle" stroke="none" fill="black">8000</text>
        <path d="M 120 832.294 L 130 832.294" />
        <path d="M 120 432.747 L 140 432.747" />
        <text font-size="30" transform="translate(110, 442.747)" text-anchor="end" dominant-baseline="middle" stroke="none" fill="black">5000</text>
        <path d="M 120 111.16 L 130 111.16" />
        <path d="M 120 656.883 L 130 656.883" />
        <path d="M 120 881.02 L 130 881.02" />
        <path d="M 120 81.9248 L 130 81.9248" />
        <path d="M 120 481.472 L 130 481.472" />
        <path d="M 120 705.609 L 130 705.609" />
        <path d="M 120 52.6896 L 130 52.6896" />
        <path d="M 120 306.061 L 130 306.061" />
        <path d="M 120 530.198 L 140 530.198" />
        <text font-size="30" transform="translate(110, 540.198)" text-anchor="end" dominant-baseline="middle" stroke="none" fill="black">4000</text>
        <path d="M 120 754.334 L 130 754.334" />
        <path d="M 120 354.787 L 130 354.787" />
        <path d="M 120 578.923 L 130 578.923" />
        <path d="M 120 179.375 L 130 179.375" />
        <path d="M 120 276.826 L 130 276.826" />
        <path d="M 120 403.512 L 130 403.512" />
        <path d="M 120 627.648 L 140 627.648" />
        <text font-size="30" transform="translate(110, 637.648)" text-anchor="end" dominant-baseline="middle" stroke="none" fill="black">3000</text>
        <path d="M 120 247.591 L 130 247.591" />
        <path d="M 120 851.785 L 130 851.785" />
        <path d="M 120 452.237 L 130 452.237" />
        <path d="M 120 218.356 L 130 218.356" />
        <path d="M 120 676.373 L 130 676.373" />
        <path d="M 120 900.51 L 130 900.51" />
        <path d="M 120 812.804 L 130 812.804" />
        <path d="M 120 500.962 L 130 500.962" />
        <path d="M 120 101.415 L 130 101.415" />
        <path d="M 120 783.569 L 130 783.569" />
        <path d="M 120 325.551 L 130 325.551" />
        <path d="M 120 549.688 L 130 549.688" />
        <path d="M 120 130.65 L 130 130.65" />
        <path d="M 120 150.14 L 130 150.14" />
        <path d="M 120 374.277 L 130 374.277" />
        <path d="M 120 725.099 L 140 725.099" />
        <text font-size="30" transform="translate(110, 735.099)" text-anchor="end" dominant-baseline="middle" stroke="none" fill="black">2000</text>
        <path d="M 120 598.413 L 130 598.413" />
        <path d="M 120 198.866 L 130 198.866" />
        <path d="M 120 695.864 L 130 695.864" />
        <path d="M 120 423.002 L 130 423.002" />
        <path d="M 120 647.138 L 130 647.138" />
        <path d="M 120 871.275 L 130 871.275" />
        <path d="M 120 471.727 L 130 471.727" />
        <path d="M 120 72.1798 L 130 72.1798" />
    </g>
    <text id="frame_0_toplabel" font-size="30" transform="translate(535, 32.6)" text-anchor="middle" dominant-baseline="middle" stroke="none" fill="black">metric.simpleMatching</text>
    <g id="frame_0_topticks">
        <path d="M 120 50 L 120 70" />
        <path d="M 136.6 50 L 136.6 60" />
        <path d="M 153.2 50 L 153.2 60" />
        <path d="M 169.8 50 L 169.8 60" />
        <path d="M 186.4 50 L 186.4 60" />
        <path d="M 203 50 L 203 60" />
        <path d="M 219.6 50 L 219.6 60" />
        <path d="M 236.2 50 L 236.2 60" />
        <path d="M 252.8 50 L 252.8 60" />
        <path d="M 269.4 50 L 269.4 60" />
        <path d="M 286 50 L 286 70" />
        <path d="M 302.6 50 L 302.6 60" />
        <path d="M 319.2 50 L 319.2 60" />
        <path d="M 335.8 50 L 335.8 60" />
        <path d="M 352.4 50 L 352.4 60" />
        <path d="M 369 50 L 369 60" />
        <path d="M 385.6 50 L 385.6 60" />
        <path d="M 402.2 50 L 402.2 60" />
        <path d="M 418.8 50 L 418.8 60" />
        <path d="M 435.4 50 L 435.4 60" />
        <path d="M 452 50 L 452 70" />
        <path d="M 468.6 50 L 468.6 60" />
        <path d="M 485.2 50 L 485.2 60" />
        <path d="M 501.8 50 L 501.8 60" />
        <path d="M 518.4 50 L 518.4 60" />
        <path d="M 535 50 L 535 60" />
        <path d="M 551.6 50 L 551.6 60" />
        <path d="M 568.2 50 L 568.2 60" />
        <path d="M 584.8 50 L 584.8 60" />
        <path d="M 601.4 50 L 601.4 60" />
        <path d="M 618 50 L 618 70" />
        <path d="M 634.6 50 L 634.6 60" />
        <path d="M 651.2 50 L 651.2 60" />
        <path d="M 667.8 50 L 667.8 60" />
        <path d="M 684.4 50 L 684.4 60" />
        <path d="M 701 50 L 701 60" />
        <path d="M 717.6 50 L 717.6 60" />
        <path d="M 734.2 50 L 734.2 60" />
        <path d="M 750.8 50 L 750.8 60" />
        <path d="M 767.4 50 L 767.4 60" />
        <path d="M 784 50 L 784 70" />
        <path d="M 800.6 50 L 800.6 60" />
        <path d="M 817.2 50 L 817.2 60" />
        <path d="M 833.8 50 L 833.8 60" />
        <path d="M 850.4 50 L 850.4 60" />
        <path d="M 867 50 L 867 60" />
        <path d="M 883.6 50 L 883.6 60" />
        <path d="M 900.2 50 L 900.2 60" />
        <path d="M 916.8 50 L 916.8 60" />
        <path d="M 933.4 50 L 933.4 60" />
        <path d="M 950 50 L 950 70" />
    </g>
    <g id="frame_0_rightticks">
        <path d="M 950 296.316 L 940 296.316" />
        <path d="M 950 920 L 930 920" />
        <path d="M 950 520.453 L 940 520.453" />
        <path d="M 950 744.589 L 940 744.589" />
        <path d="M 950 267.081 L 940 267.081" />
        <path d="M 950 345.041 L 940 345.041" />
        <path d="M 950 569.178 L 940 569.178" />
        <path d="M 950 237.846 L 930 237.846" />
        <path d="M 950 169.63 L 940 169.63" />
        <path d="M 950 393.767 L 940 393.767" />
        <path d="M 950 208.611 L 940 208.611" />
        <path d="M 950 617.903 L 940 617.903" />
        <path d="M 950 842.04 L 940 842.04" />
        <path d="M 950 803.059 L 940 803.059" />
        <path d="M 950 442.492 L 940 442.492" />
        <path d="M 950 666.628 L 940 666.628" />
        <path d="M 950 773.824 L 940 773.824" />
        <path d="M 950 890.765 L 940 890.765" />
        <path d="M 950 491.217 L 940 491.217" />
        <path d="M 950 120.905 L 940 120.905" />
        <path d="M 950 715.354 L 940 715.354" />
        <path d="M 950 315.806 L 940 315.806" />
        <path d="M 950 91.6699 L 940 91.6699" />
        <path d="M 950 539.943 L 940 539.943" />
        <path d="M 950 764.079 L 940 764.079" />
        <path d="M 950 686.119 L 940 686.119" />
        <path d="M 950 364.532 L 940 364.532" />
        <path d="M 950 588.668 L 940 588.668" />
        <path d="M 950 189.12 L 940 189.12" />
        <path d="M 950 413.257 L 940 413.257" />
        <path d="M 950 637.393 L 940 637.393" />
        <path d="M 950 861.53 L 940 861.53" />
        <path d="M 950 910.255 L 940 910.255" />
        <path d="M 950 461.982 L 940 461.982" />
        <path d="M 950 62.4347 L 940 62.4347" />
        <path d="M 950 257.336 L 940 257.336" />
        <path d="M 950 286.571 L 940 286.571" />
        <path d="M 950 510.707 L 940 510.707" />
        <path d="M 950 228.101 L 940 228.101" />
        <path d="M 950 734.844 L 940 734.844" />
        <path d="M 950 335.296 L 930 335.296" />
        <path d="M 950 822.549 L 930 822.549" />
        <path d="M 950 559.433 L 940 559.433" />
        <path d="M 950 159.885 L 940 159.885" />
        <path d="M 950 793.314 L 940 793.314" />
        <path d="M 950 384.022 L 940 384.022" />
        <path d="M 950 608.158 L 940 608.158" />
        <path d="M 950 140.395 L 930 140.395" />
        <path d="M 950 832.294 L 940 832.294" />
        <path d="M 950 432.747 L 930 432.747" />
        <path d="M 950 111.16 L 940 111.16" />
        <path d="M 950 656.883 L 940 656.883" />
        <path d="M 950 881.02 L 940 881.02" />
        <path d="M 950 81.9248 L 940 81.9248" />
        <path d="M 950 481.472 L 940 481.472" />
        <path d="M 950 705.609 L 940 705.609" />
        <path d="M 950 52.6896 L 940 52.6896" />
        <path d="M 950 306.061 L 940 306.061" />
        <path d="M 950 530.198 L 930 530.198" />
        <path d="M 950 754.334 L 940 754.334" />
        <path d="M 950 354.787 L 940 354.787" />
        <path d="M 950 578.923 L 940 578.923" />
        <path d="M 950 179.375 L 940 179.375" />
        <path d="M 950 276.826 L 940 276.826" />
        <path d="M 950 403.512 L 940 403.512" />
        <path d="M 950 627.648 L 930 627.648" />
        <path d="M 950 247.591 L 940 247.591" />
        <path d="M 950 851.785 L 940 851.785" />
        <path d="M 950 452.237 L 940 452.237" />
        <path d="M 950 218.356 L 940 218.356" />
        <path d="M 950 676.373 L 940 676.373" />
        <path d="M 950 900.51 L 940 900.51" />
        <path d="M 950 812.804 L 940 812.804" />
        <path d="M 950 500.962 L 940 500.962" />
        <path d="M 950 101.415 L 940 101.415" />
        <path d="M 950 783.569 L 940 783.569" />
        <path d="M 950 325.551 L 940 325.551" />
        <path d="M 950 549.688 L 940 549.688" />
        <path d="M 950 130.65 L 940 130.65" />
        <path d="M 950 150.14 L 940 150.14" />
        <path d="M 950 374.277 L 940 374.277" />
        <path d="M 950 725.099 L 930 725.099" />
        <path d="M 950 598.413 L 940 598.413" />
        <path d="M 950 198.866 L 940 198.866" />
        <path d="M 950 695.864 L 940 695.864" />
        <path d="M 950 423.002 L 940 423.002" />
        <path d="M 950 647.138 L 940 647.138" />
        <path d="M 950 871.275 L 940 871.275" />
        <path d="M 950 471.727 L 940 471.727" />
        <path d="M 950 72.1798 L 940 72.1798" />
    </g>
</g>
</g>
</svg>
