<?xml version="1.0" standalone="no"?>
<!DOCTYPE svg PUBLIC "-//W3C//DTD SVG 1.1//EN" "http://www.w3.org/Graphics/SVG/1.1/DTD/svg11.dtd">
<svg style="stroke-linejoin:miter; stroke:black; stroke-width:2.5; text-anchor:middle; fill:none" xmlns="http://www.w3.org/2000/svg" font-family="Helvetica, Arial, FreeSans, Sans, sans, sans-serif" width="1000px" height="1000px" version="1.1" xmlns:xlink="http://www.w3.org/1999/xlink" viewBox="0 0 1000 1000">
<defs>
    <clipPath id="Histogram_0_clip">
        <rect x="120" y="50" width="830" height="870" />
    </clipPath>
    <clipPath id="Histogram_1_clip">
        <rect x="120" y="50" width="830" height="870" />
    </clipPath>
</defs>
<g id="whole_document">
<rect id="background" x="0" y="0" width="1000" height="1000" stroke="none" fill="white" />
<g id="Histogram_0" clip-path="url(#Histogram_0_clip)">
    <path d="M 120 920 L 120 129.091 L 161.5 129.091 L 161.5 920 L 203 920 L 203 920 L 244.5 920 L 244.5 862.882 L 286 862.882 L 286 918.029 L 327.5 918.029 L 327.5 917.918 L 369 917.918 L 369 920 L 410.5 920 L 410.5 920 L 452 920 L 452 920 L 493.5 920 L 493.5 920 L 535 920 L 535 920 L 576.5 920 L 576.5 920 L 618 920 L 618 920 L 659.5 920 L 659.5 920 L 701 920 L 701 920 L 742.5 920 L 742.5 920 L 784 920 L 784 920 L 825.5 920 L 825.5 920 L 867 920 L 867 920 L 908.5 920 L 908.5 920 L 950 920 L 950 920" stroke-width="3" stroke-dasharray="" stroke="black" stroke-opacity="1" fill="DodgerBlue" fill-opacity="1" />
</g>
<g id="Histogram_1" clip-path="url(#Histogram_1_clip)">
    <path d="M 120 920 L 120 920 L 161.5 920 L 161.5 920 L 203 920 L 203 920 L 244.5 920 L 244.5 862.882 L 286 862.882 L 286 918.029 L 327.5 918.029 L 327.5 917.918 L 369 917.918 L 369 920 L 410.5 920 L 410.5 920 L 452 920 L 452 920 L 493.5 920 L 493.5 920 L 535 920 L 535 920 L 576.5 920 L 576.5 920 L 618 920 L 618 920 L 659.5 920 L 659.5 920 L 701 920 L 701 920 L 742.5 920 L 742.5 920 L 784 920 L 784 920 L 825.5 920 L 825.5 920 L 867 920 L 867 920 L 908.5 920 L 908.5 920 L 950 920 L 950 920" stroke-width="3" stroke-dasharray="" stroke="black" stroke-opacity="1" fill="darkorange" fill-opacity="1" />
</g>
<g id="frame_0">
    <rect id="frame_0_border" x="120" y="50" width="830" height="870" />
    <text id="frame_0_bottomlabel" font-size="30" transform="translate(535, 989.6)" text-anchor="middle" dominant-baseline="middle" stroke="none" fill="black">microseconds</text>
    <g id="frame_0_bottomticks">
        <path d="M 120 920 L 120 900" />
        <text font-size="30" transform="translate(120, 950)" text-anchor="middle" dominant-baseline="middle" stroke="none" fill="black">0</text>
        <path d="M 136.6 920 L 136.6 910" />
        <path d="M 153.2 920 L 153.2 910" />
        <path d="M 169.8 920 L 169.8 910" />
        <path d="M 186.4 920 L 186.4 910" />
        <path d="M 203 920 L 203 910" />
        <path d="M 219.6 920 L 219.6 910" />
        <path d="M 236.2 920 L 236.2 910" />
        <path d="M 252.8 920 L 252.8 910" />
        <path d="M 269.4 920 L 269.4 910" />
        <path d="M 286 920 L 286 900" />
        <text font-size="30" transform="translate(286, 950)" text-anchor="middle" dominant-baseline="middle" stroke="none" fill="black">10</text>
        <path d="M 302.6 920 L 302.6 910" />
        <path d="M 319.2 920 L 319.2 910" />
        <path d="M 335.8 920 L 335.8 910" />
        <path d="M 352.4 920 L 352.4 910" />
        <path d="M 369 920 L 369 910" />
        <path d="M 385.6 920 L 385.6 910" />
        <path d="M 402.2 920 L 402.2 910" />
        <path d="M 418.8 920 L 418.8 910" />
        <path d="M 435.4 920 L 435.4 910" />
        <path d="M 452 920 L 452 900" />
        <text font-size="30" transform="translate(452, 950)" text-anchor="middle" dominant-baseline="middle" stroke="none" fill="black">20</text>
        <path d="M 468.6 920 L 468.6 910" />
        <path d="M 485.2 920 L 485.2 910" />
        <path d="M 501.8 920 L 501.8 910" />
        <path d="M 518.4 920 L 518.4 910" />
        <path d="M 535 920 L 535 910" />
        <path d="M 551.6 920 L 551.6 910" />
        <path d="M 568.2 920 L 568.2 910" />
        <path d="M 584.8 920 L 584.8 910" />
        <path d="M 601.4 920 L 601.4 910" />
        <path d="M 618 920 L 618 900" />
        <text font-size="30" transform="translate(618, 950)" text-anchor="middle" dominant-baseline="middle" stroke="none" fill="black">30</text>
        <path d="M 634.6 920 L 634.6 910" />
        <path d="M 651.2 920 L 651.2 910" />
        <path d="M 667.8 920 L 667.8 910" />
        <path d="M 684.4 920 L 684.4 910" />
        <path d="M 701 920 L 701 910" />
        <path d="M 717.6 920 L 717.6 910" />
        <path d="M 734.2 920 L 734.2 910" />
        <path d="M 750.8 920 L 750.8 910" />
        <path d="M 767.4 920 L 767.4 910" />
        <path d="M 784 920 L 784 900" />
        <text font-size="30" transform="translate(784, 950)" text-anchor="middle" dominant-baseline="middle" stroke="none" fill="black">40</text>
        <path d="M 800.6 920 L 800.6 910" />
        <path d="M 817.2 920 L 817.2 910" />
        <path d="M 833.8 920 L 833.8 910" />
        <path d="M 850.4 920 L 850.4 910" />
        <path d="M 867 920 L 867 910" />
        <path d="M 883.6 920 L 883.6 910" />
        <path d="M 900.2 920 L 900.2 910" />
        <path d="M 916.8 920 L 916.8 910" />
        <path d="M 933.4 920 L 933.4 910" />
        <path d="M 950 920 L 950 900" />
        <text font-size="30" transform="translate(950, 950)" text-anchor="middle" dominant-baseline="middle" stroke="none" fill="black">50</text>
    </g>
    <g id="frame_0_leftticks">
        <path d="M 120 202.489 L 130 202.489" />
        <path d="M 120 273.23 L 130 273.23" />
        <path d="M 120 920 L 140 920" />
        <text font-size="30" transform="translate(110, 930)" text-anchor="end" dominant-baseline="middle" stroke="none" fill="black">0</text>
        <path d="M 120 71.114 L 130 71.114" />
        <path d="M 120 61.0082 L 130 61.0082" />
        <path d="M 120 738.096 L 130 738.096" />
        <path d="M 120 788.625 L 130 788.625" />
        <path d="M 120 495.557 L 130 495.557" />
        <path d="M 120 525.874 L 130 525.874" />
        <path d="M 120 283.336 L 130 283.336" />
        <path d="M 120 818.942 L 140 818.942" />
        <text font-size="30" transform="translate(110, 828.942)" text-anchor="end" dominant-baseline="middle" stroke="none" fill="black">10000</text>
        <path d="M 120 394.499 L 130 394.499" />
        <path d="M 120 778.519 L 130 778.519" />
        <path d="M 120 263.124 L 130 263.124" />
        <path d="M 120 829.048 L 130 829.048" />
        <path d="M 120 556.192 L 130 556.192" />
        <path d="M 120 293.441 L 130 293.441" />
        <path d="M 120 707.779 L 130 707.779" />
        <path d="M 120 717.884 L 140 717.884" />
        <text font-size="30" transform="translate(110, 727.884)" text-anchor="end" dominant-baseline="middle" stroke="none" fill="black">20000</text>
        <path d="M 120 727.99 L 130 727.99" />
        <path d="M 120 162.066 L 130 162.066" />
        <path d="M 120 839.154 L 130 839.154" />
        <path d="M 120 475.345 L 130 475.345" />
        <path d="M 120 455.134 L 130 455.134" />
        <path d="M 120 626.932 L 130 626.932" />
        <path d="M 120 748.202 L 130 748.202" />
        <path d="M 120 616.826 L 140 616.826" />
        <text font-size="30" transform="translate(110, 626.826)" text-anchor="end" dominant-baseline="middle" stroke="none" fill="black">30000</text>
        <path d="M 120 91.3256 L 130 91.3256" />
        <path d="M 120 404.605 L 130 404.605" />
        <path d="M 120 909.894 L 130 909.894" />
        <path d="M 120 849.26 L 130 849.26" />
        <path d="M 120 354.076 L 130 354.076" />
        <path d="M 120 637.038 L 130 637.038" />
        <path d="M 120 333.864 L 130 333.864" />
        <path d="M 120 101.431 L 130 101.431" />
        <path d="M 120 859.365 L 130 859.365" />
        <path d="M 120 808.836 L 130 808.836" />
        <path d="M 120 384.393 L 130 384.393" />
        <path d="M 120 535.98 L 130 535.98" />
        <path d="M 120 424.817 L 130 424.817" />
        <path d="M 120 364.182 L 130 364.182" />
        <path d="M 120 414.711 L 140 414.711" />
        <text font-size="30" transform="translate(110, 424.711)" text-anchor="end" dominant-baseline="middle" stroke="none" fill="black">50000</text>
        <path d="M 120 647.144 L 130 647.144" />
        <path d="M 120 121.643 L 130 121.643" />
        <path d="M 120 758.307 L 130 758.307" />
        <path d="M 120 192.383 L 130 192.383" />
        <path d="M 120 546.086 L 130 546.086" />
        <path d="M 120 222.701 L 130 222.701" />
        <path d="M 120 657.25 L 130 657.25" />
        <path d="M 120 768.413 L 130 768.413" />
        <path d="M 120 869.471 L 130 869.471" />
        <path d="M 120 445.028 L 130 445.028" />
        <path d="M 120 313.653 L 140 313.653" />
        <text font-size="30" transform="translate(110, 323.653)" text-anchor="end" dominant-baseline="middle" stroke="none" fill="black">60000</text>
        <path d="M 120 606.721 L 130 606.721" />
        <path d="M 120 182.278 L 130 182.278" />
        <path d="M 120 232.807 L 130 232.807" />
        <path d="M 120 50.9024 L 130 50.9024" />
        <path d="M 120 899.788 L 130 899.788" />
        <path d="M 120 343.97 L 130 343.97" />
        <path d="M 120 131.749 L 130 131.749" />
        <path d="M 120 303.547 L 130 303.547" />
        <path d="M 120 81.2198 L 130 81.2198" />
        <path d="M 120 242.912 L 130 242.912" />
        <path d="M 120 212.595 L 140 212.595" />
        <text font-size="30" transform="translate(110, 222.595)" text-anchor="end" dominant-baseline="middle" stroke="none" fill="black">70000</text>
        <path d="M 120 798.731 L 130 798.731" />
        <path d="M 120 677.461 L 130 677.461" />
        <path d="M 120 879.577 L 130 879.577" />
        <path d="M 120 667.355 L 130 667.355" />
        <path d="M 120 141.855 L 130 141.855" />
        <path d="M 120 111.537 L 140 111.537" />
        <text font-size="30" transform="translate(110, 121.537)" text-anchor="end" dominant-baseline="middle" stroke="none" fill="black">80000</text>
        <path d="M 120 253.018 L 130 253.018" />
        <path d="M 120 323.759 L 130 323.759" />
        <path d="M 120 687.567 L 130 687.567" />
        <path d="M 120 566.298 L 130 566.298" />
        <path d="M 120 151.96 L 130 151.96" />
        <path d="M 120 576.403 L 130 576.403" />
        <path d="M 120 434.922 L 130 434.922" />
        <path d="M 120 374.288 L 130 374.288" />
        <path d="M 120 586.509 L 130 586.509" />
        <path d="M 120 596.615 L 130 596.615" />
        <path d="M 120 172.172 L 130 172.172" />
        <path d="M 120 697.673 L 130 697.673" />
        <path d="M 120 505.663 L 130 505.663" />
        <path d="M 120 515.769 L 140 515.769" />
        <text font-size="30" transform="translate(110, 525.769)" text-anchor="end" dominant-baseline="middle" stroke="none" fill="black">40000</text>
        <path d="M 120 889.683 L 130 889.683" />
        <path d="M 120 465.24 L 130 465.24" />
        <path d="M 120 485.451 L 130 485.451" />
    </g>
    <text id="frame_0_toplabel" font-size="30" transform="translate(535, 32.6)" text-anchor="middle" dominant-baseline="middle" stroke="none" fill="black">a.last</text>
    <g id="frame_0_topticks">
        <path d="M 120 50 L 120 70" />
        <path d="M 136.6 50 L 136.6 60" />
        <path d="M 153.2 50 L 153.2 60" />
        <path d="M 169.8 50 L 169.8 60" />
        <path d="M 186.4 50 L 186.4 60" />
        <path d="M 203 50 L 203 60" />
        <path d="M 219.6 50 L 219.6 60" />
        <path d="M 236.2 50 L 236.2 60" />
        <path d="M 252.8 50 L 252.8 60" />
        <path d="M 269.4 50 L 269.4 60" />
        <path d="M 286 50 L 286 70" />
        <path d="M 302.6 50 L 302.6 60" />
        <path d="M 319.2 50 L 319.2 60" />
        <path d="M 335.8 50 L 335.8 60" />
        <path d="M 352.4 50 L 352.4 60" />
        <path d="M 369 50 L 369 60" />
        <path d="M 385.6 50 L 385.6 60" />
        <path d="M 402.2 50 L 402.2 60" />
        <path d="M 418.8 50 L 418.8 60" />
        <path d="M 435.4 50 L 435.4 60" />
        <path d="M 452 50 L 452 70" />
        <path d="M 468.6 50 L 468.6 60" />
        <path d="M 485.2 50 L 485.2 60" />
        <path d="M 501.8 50 L 501.8 60" />
        <path d="M 518.4 50 L 518.4 60" />
        <path d="M 535 50 L 535 60" />
        <path d="M 551.6 50 L 551.6 60" />
        <path d="M 568.2 50 L 568.2 60" />
        <path d="M 584.8 50 L 584.8 60" />
        <path d="M 601.4 50 L 601.4 60" />
        <path d="M 618 50 L 618 70" />
        <path d="M 634.6 50 L 634.6 60" />
        <path d="M 651.2 50 L 651.2 60" />
        <path d="M 667.8 50 L 667.8 60" />
        <path d="M 684.4 50 L 684.4 60" />
        <path d="M 701 50 L 701 60" />
        <path d="M 717.6 50 L 717.6 60" />
        <path d="M 734.2 50 L 734.2 60" />
        <path d="M 750.8 50 L 750.8 60" />
        <path d="M 767.4 50 L 767.4 60" />
        <path d="M 784 50 L 784 70" />
        <path d="M 800.6 50 L 800.6 60" />
        <path d="M 817.2 50 L 817.2 60" />
        <path d="M 833.8 50 L 833.8 60" />
        <path d="M 850.4 50 L 850.4 60" />
        <path d="M 867 50 L 867 60" />
        <path d="M 883.6 50 L 883.6 60" />
        <path d="M 900.2 50 L 900.2 60" />
        <path d="M 916.8 50 L 916.8 60" />
        <path d="M 933.4 50 L 933.4 60" />
        <path d="M 950 50 L 950 70" />
    </g>
    <g id="frame_0_rightticks">
        <path d="M 950 202.489 L 940 202.489" />
        <path d="M 950 273.23 L 940 273.23" />
        <path d="M 950 920 L 930 920" />
        <path d="M 950 71.114 L 940 71.114" />
        <path d="M 950 61.0082 L 940 61.0082" />
        <path d="M 950 738.096 L 940 738.096" />
        <path d="M 950 788.625 L 940 788.625" />
        <path d="M 950 495.557 L 940 495.557" />
        <path d="M 950 525.874 L 940 525.874" />
        <path d="M 950 283.336 L 940 283.336" />
        <path d="M 950 818.942 L 930 818.942" />
        <path d="M 950 394.499 L 940 394.499" />
        <path d="M 950 778.519 L 940 778.519" />
        <path d="M 950 263.124 L 940 263.124" />
        <path d="M 950 829.048 L 940 829.048" />
        <path d="M 950 556.192 L 940 556.192" />
        <path d="M 950 293.441 L 940 293.441" />
        <path d="M 950 707.779 L 940 707.779" />
        <path d="M 950 717.884 L 930 717.884" />
        <path d="M 950 727.99 L 940 727.99" />
        <path d="M 950 162.066 L 940 162.066" />
        <path d="M 950 839.154 L 940 839.154" />
        <path d="M 950 475.345 L 940 475.345" />
        <path d="M 950 455.134 L 940 455.134" />
        <path d="M 950 626.932 L 940 626.932" />
        <path d="M 950 748.202 L 940 748.202" />
        <path d="M 950 616.826 L 930 616.826" />
        <path d="M 950 91.3256 L 940 91.3256" />
        <path d="M 950 404.605 L 940 404.605" />
        <path d="M 950 909.894 L 940 909.894" />
        <path d="M 950 849.26 L 940 849.26" />
        <path d="M 950 354.076 L 940 354.076" />
        <path d="M 950 637.038 L 940 637.038" />
        <path d="M 950 333.864 L 940 333.864" />
        <path d="M 950 101.431 L 940 101.431" />
        <path d="M 950 859.365 L 940 859.365" />
        <path d="M 950 808.836 L 940 808.836" />
        <path d="M 950 384.393 L 940 384.393" />
        <path d="M 950 535.98 L 940 535.98" />
        <path d="M 950 424.817 L 940 424.817" />
        <path d="M 950 364.182 L 940 364.182" />
        <path d="M 950 414.711 L 930 414.711" />
        <path d="M 950 647.144 L 940 647.144" />
        <path d="M 950 121.643 L 940 121.643" />
        <path d="M 950 758.307 L 940 758.307" />
        <path d="M 950 192.383 L 940 192.383" />
        <path d="M 950 546.086 L 940 546.086" />
        <path d="M 950 222.701 L 940 222.701" />
        <path d="M 950 657.25 L 940 657.25" />
        <path d="M 950 768.413 L 940 768.413" />
        <path d="M 950 869.471 L 940 869.471" />
        <path d="M 950 445.028 L 940 445.028" />
        <path d="M 950 313.653 L 930 313.653" />
        <path d="M 950 606.721 L 940 606.721" />
        <path d="M 950 182.278 L 940 182.278" />
        <path d="M 950 232.807 L 940 232.807" />
        <path d="M 950 50.9024 L 940 50.9024" />
        <path d="M 950 899.788 L 940 899.788" />
        <path d="M 950 343.97 L 940 343.97" />
        <path d="M 950 131.749 L 940 131.749" />
        <path d="M 950 303.547 L 940 303.547" />
        <path d="M 950 81.2198 L 940 81.2198" />
        <path d="M 950 242.912 L 940 242.912" />
        <path d="M 950 212.595 L 930 212.595" />
        <path d="M 950 798.731 L 940 798.731" />
        <path d="M 950 677.461 L 940 677.461" />
        <path d="M 950 879.577 L 940 879.577" />
        <path d="M 950 667.355 L 940 667.355" />
        <path d="M 950 141.855 L 940 141.855" />
        <path d="M 950 111.537 L 930 111.537" />
        <path d="M 950 253.018 L 940 253.018" />
        <path d="M 950 323.759 L 940 323.759" />
        <path d="M 950 687.567 L 940 687.567" />
        <path d="M 950 566.298 L 940 566.298" />
        <path d="M 950 151.96 L 940 151.96" />
        <path d="M 950 576.403 L 940 576.403" />
        <path d="M 950 434.922 L 940 434.922" />
        <path d="M 950 374.288 L 940 374.288" />
        <path d="M 950 586.509 L 940 586.509" />
        <path d="M 950 596.615 L 940 596.615" />
        <path d="M 950 172.172 L 940 172.172" />
        <path d="M 950 697.673 L 940 697.673" />
        <path d="M 950 505.663 L 940 505.663" />
        <path d="M 950 515.769 L 930 515.769" />
        <path d="M 950 889.683 L 940 889.683" />
        <path d="M 950 465.24 L 940 465.24" />
        <path d="M 950 485.451 L 940 485.451" />
    </g>
</g>
</g>
</svg>
