<?xml version="1.0" standalone="no"?>
<!DOCTYPE svg PUBLIC "-//W3C//DTD SVG 1.1//EN" "http://www.w3.org/Graphics/SVG/1.1/DTD/svg11.dtd">
<svg style="stroke-linejoin:miter; stroke:black; stroke-width:2.5; text-anchor:middle; fill:none" xmlns="http://www.w3.org/2000/svg" font-family="Helvetica, Arial, FreeSans, Sans, sans, sans-serif" width="1000px" height="1000px" version="1.1" xmlns:xlink="http://www.w3.org/1999/xlink" viewBox="0 0 1000 1000">
<defs>
    <clipPath id="Histogram_0_clip">
        <rect x="120" y="50" width="830" height="870" />
    </clipPath>
    <clipPath id="Histogram_1_clip">
        <rect x="120" y="50" width="830" height="870" />
    </clipPath>
</defs>
<g id="whole_document">
<rect id="background" x="0" y="0" width="1000" height="1000" stroke="none" fill="white" />
<g id="Histogram_0" clip-path="url(#Histogram_0_clip)">
    <path d="M 120 920 L 120 574.076 L 161.5 574.076 L 161.5 918.528 L 203 918.528 L 203 920 L 244.5 920 L 244.5 129.091 L 286 129.091 L 286 918.6 L 327.5 918.6 L 327.5 918.146 L 369 918.146 L 369 916.939 L 410.5 916.939 L 410.5 917.323 L 452 917.323 L 452 901.286 L 493.5 901.286 L 493.5 919.939 L 535 919.939 L 535 920 L 576.5 920 L 576.5 920 L 618 920 L 618 920 L 659.5 920 L 659.5 920 L 701 920 L 701 920 L 742.5 920 L 742.5 920 L 784 920 L 784 920 L 825.5 920 L 825.5 920 L 867 920 L 867 920 L 908.5 920 L 908.5 920 L 950 920 L 950 920" stroke-width="3" stroke-dasharray="" stroke="black" stroke-opacity="1" fill="DodgerBlue" fill-opacity="1" />
</g>
<g id="Histogram_1" clip-path="url(#Histogram_1_clip)">
    <path d="M 120 920 L 120 920 L 161.5 920 L 161.5 920 L 203 920 L 203 920 L 244.5 920 L 244.5 129.091 L 286 129.091 L 286 918.6 L 327.5 918.6 L 327.5 918.146 L 369 918.146 L 369 916.939 L 410.5 916.939 L 410.5 919.919 L 452 919.919 L 452 919.86 L 493.5 919.86 L 493.5 919.939 L 535 919.939 L 535 920 L 576.5 920 L 576.5 920 L 618 920 L 618 920 L 659.5 920 L 659.5 920 L 701 920 L 701 920 L 742.5 920 L 742.5 920 L 784 920 L 784 920 L 825.5 920 L 825.5 920 L 867 920 L 867 920 L 908.5 920 L 908.5 920 L 950 920 L 950 920" stroke-width="3" stroke-dasharray="" stroke="black" stroke-opacity="1" fill="darkorange" fill-opacity="1" />
</g>
<g id="frame_0">
    <rect id="frame_0_border" x="120" y="50" width="830" height="870" />
    <text id="frame_0_bottomlabel" font-size="30" transform="translate(535, 989.6)" text-anchor="middle" dominant-baseline="middle" stroke="none" fill="black">microseconds</text>
    <g id="frame_0_bottomticks">
        <path d="M 120 920 L 120 900" />
        <text font-size="30" transform="translate(120, 950)" text-anchor="middle" dominant-baseline="middle" stroke="none" fill="black">0</text>
        <path d="M 136.6 920 L 136.6 910" />
        <path d="M 153.2 920 L 153.2 910" />
        <path d="M 169.8 920 L 169.8 910" />
        <path d="M 186.4 920 L 186.4 910" />
        <path d="M 203 920 L 203 910" />
        <path d="M 219.6 920 L 219.6 910" />
        <path d="M 236.2 920 L 236.2 910" />
        <path d="M 252.8 920 L 252.8 910" />
        <path d="M 269.4 920 L 269.4 910" />
        <path d="M 286 920 L 286 900" />
        <text font-size="30" transform="translate(286, 950)" text-anchor="middle" dominant-baseline="middle" stroke="none" fill="black">10</text>
        <path d="M 302.6 920 L 302.6 910" />
        <path d="M 319.2 920 L 319.2 910" />
        <path d="M 335.8 920 L 335.8 910" />
        <path d="M 352.4 920 L 352.4 910" />
        <path d="M 369 920 L 369 910" />
        <path d="M 385.6 920 L 385.6 910" />
        <path d="M 402.2 920 L 402.2 910" />
        <path d="M 418.8 920 L 418.8 910" />
        <path d="M 435.4 920 L 435.4 910" />
        <path d="M 452 920 L 452 900" />
        <text font-size="30" transform="translate(452, 950)" text-anchor="middle" dominant-baseline="middle" stroke="none" fill="black">20</text>
        <path d="M 468.6 920 L 468.6 910" />
        <path d="M 485.2 920 L 485.2 910" />
        <path d="M 501.8 920 L 501.8 910" />
        <path d="M 518.4 920 L 518.4 910" />
        <path d="M 535 920 L 535 910" />
        <path d="M 551.6 920 L 551.6 910" />
        <path d="M 568.2 920 L 568.2 910" />
        <path d="M 584.8 920 L 584.8 910" />
        <path d="M 601.4 920 L 601.4 910" />
        <path d="M 618 920 L 618 900" />
        <text font-size="30" transform="translate(618, 950)" text-anchor="middle" dominant-baseline="middle" stroke="none" fill="black">30</text>
        <path d="M 634.6 920 L 634.6 910" />
        <path d="M 651.2 920 L 651.2 910" />
        <path d="M 667.8 920 L 667.8 910" />
        <path d="M 684.4 920 L 684.4 910" />
        <path d="M 701 920 L 701 910" />
        <path d="M 717.6 920 L 717.6 910" />
        <path d="M 734.2 920 L 734.2 910" />
        <path d="M 750.8 920 L 750.8 910" />
        <path d="M 767.4 920 L 767.4 910" />
        <path d="M 784 920 L 784 900" />
        <text font-size="30" transform="translate(784, 950)" text-anchor="middle" dominant-baseline="middle" stroke="none" fill="black">40</text>
        <path d="M 800.6 920 L 800.6 910" />
        <path d="M 817.2 920 L 817.2 910" />
        <path d="M 833.8 920 L 833.8 910" />
        <path d="M 850.4 920 L 850.4 910" />
        <path d="M 867 920 L 867 910" />
        <path d="M 883.6 920 L 883.6 910" />
        <path d="M 900.2 920 L 900.2 910" />
        <path d="M 916.8 920 L 916.8 910" />
        <path d="M 933.4 920 L 933.4 910" />
        <path d="M 950 920 L 950 900" />
        <text font-size="30" transform="translate(950, 950)" text-anchor="middle" dominant-baseline="middle" stroke="none" fill="black">50</text>
    </g>
    <g id="frame_0_leftticks">
        <path d="M 120 806.858 L 130 806.858" />
        <path d="M 120 750.286 L 130 750.286" />
        <path d="M 120 552.287 L 130 552.287" />
        <path d="M 120 255.289 L 130 255.289" />
        <path d="M 120 920 L 140 920" />
        <text font-size="30" transform="translate(110, 930)" text-anchor="end" dominant-baseline="middle" stroke="none" fill="black">0</text>
        <path d="M 120 623.001 L 130 623.001" />
        <path d="M 120 326.002 L 130 326.002" />
        <path d="M 120 693.715 L 130 693.715" />
        <path d="M 120 792.715 L 130 792.715" />
        <path d="M 120 99.7177 L 130 99.7177" />
        <path d="M 120 467.43 L 130 467.43" />
        <path d="M 120 170.432 L 130 170.432" />
        <path d="M 120 538.144 L 130 538.144" />
        <path d="M 120 905.857 L 130 905.857" />
        <path d="M 120 891.714 L 130 891.714" />
        <path d="M 120 764.429 L 130 764.429" />
        <path d="M 120 311.86 L 130 311.86" />
        <path d="M 120 382.574 L 130 382.574" />
        <path d="M 120 156.289 L 130 156.289" />
        <path d="M 120 85.5749 L 130 85.5749" />
        <path d="M 120 453.288 L 130 453.288" />
        <path d="M 120 877.572 L 130 877.572" />
        <path d="M 120 849.286 L 130 849.286" />
        <path d="M 120 524.002 L 130 524.002" />
        <path d="M 120 227.003 L 130 227.003" />
        <path d="M 120 594.716 L 130 594.716" />
        <path d="M 120 821 L 130 821" />
        <path d="M 120 297.717 L 130 297.717" />
        <path d="M 120 665.43 L 130 665.43" />
        <path d="M 120 863.429 L 130 863.429" />
        <path d="M 120 608.858 L 130 608.858" />
        <path d="M 120 368.431 L 130 368.431" />
        <path d="M 120 71.4321 L 140 71.4321" />
        <text font-size="30" transform="translate(110, 81.4321)" text-anchor="end" dominant-baseline="middle" stroke="none" fill="black">600000</text>
        <path d="M 120 439.145 L 130 439.145" />
        <path d="M 120 142.146 L 130 142.146" />
        <path d="M 120 509.859 L 130 509.859" />
        <path d="M 120 212.86 L 140 212.86" />
        <text font-size="30" transform="translate(110, 222.86)" text-anchor="end" dominant-baseline="middle" stroke="none" fill="black">500000</text>
        <path d="M 120 736.144 L 130 736.144" />
        <path d="M 120 580.573 L 130 580.573" />
        <path d="M 120 283.574 L 130 283.574" />
        <path d="M 120 651.287 L 130 651.287" />
        <path d="M 120 354.288 L 140 354.288" />
        <text font-size="30" transform="translate(110, 364.288)" text-anchor="end" dominant-baseline="middle" stroke="none" fill="black">400000</text>
        <path d="M 120 57.2893 L 130 57.2893" />
        <path d="M 120 722.001 L 130 722.001" />
        <path d="M 120 425.002 L 130 425.002" />
        <path d="M 120 835.143 L 130 835.143" />
        <path d="M 120 679.572 L 130 679.572" />
        <path d="M 120 128.003 L 130 128.003" />
        <path d="M 120 495.716 L 140 495.716" />
        <text font-size="30" transform="translate(110, 505.716)" text-anchor="end" dominant-baseline="middle" stroke="none" fill="black">300000</text>
        <path d="M 120 396.716 L 130 396.716" />
        <path d="M 120 566.43 L 130 566.43" />
        <path d="M 120 241.146 L 130 241.146" />
        <path d="M 120 269.431 L 130 269.431" />
        <path d="M 120 707.858 L 130 707.858" />
        <path d="M 120 340.145 L 130 340.145" />
        <path d="M 120 637.144 L 140 637.144" />
        <text font-size="30" transform="translate(110, 647.144)" text-anchor="end" dominant-baseline="middle" stroke="none" fill="black">200000</text>
        <path d="M 120 198.717 L 130 198.717" />
        <path d="M 120 410.859 L 130 410.859" />
        <path d="M 120 113.861 L 130 113.861" />
        <path d="M 120 778.572 L 140 778.572" />
        <text font-size="30" transform="translate(110, 788.572)" text-anchor="end" dominant-baseline="middle" stroke="none" fill="black">100000</text>
        <path d="M 120 184.575 L 130 184.575" />
        <path d="M 120 481.573 L 130 481.573" />
    </g>
    <text id="frame_0_toplabel" font-size="30" transform="translate(535, 32.6)" text-anchor="middle" dominant-baseline="middle" stroke="none" fill="black">prob.dist.negativeBinomialCDF</text>
    <g id="frame_0_topticks">
        <path d="M 120 50 L 120 70" />
        <path d="M 136.6 50 L 136.6 60" />
        <path d="M 153.2 50 L 153.2 60" />
        <path d="M 169.8 50 L 169.8 60" />
        <path d="M 186.4 50 L 186.4 60" />
        <path d="M 203 50 L 203 60" />
        <path d="M 219.6 50 L 219.6 60" />
        <path d="M 236.2 50 L 236.2 60" />
        <path d="M 252.8 50 L 252.8 60" />
        <path d="M 269.4 50 L 269.4 60" />
        <path d="M 286 50 L 286 70" />
        <path d="M 302.6 50 L 302.6 60" />
        <path d="M 319.2 50 L 319.2 60" />
        <path d="M 335.8 50 L 335.8 60" />
        <path d="M 352.4 50 L 352.4 60" />
        <path d="M 369 50 L 369 60" />
        <path d="M 385.6 50 L 385.6 60" />
        <path d="M 402.2 50 L 402.2 60" />
        <path d="M 418.8 50 L 418.8 60" />
        <path d="M 435.4 50 L 435.4 60" />
        <path d="M 452 50 L 452 70" />
        <path d="M 468.6 50 L 468.6 60" />
        <path d="M 485.2 50 L 485.2 60" />
        <path d="M 501.8 50 L 501.8 60" />
        <path d="M 518.4 50 L 518.4 60" />
        <path d="M 535 50 L 535 60" />
        <path d="M 551.6 50 L 551.6 60" />
        <path d="M 568.2 50 L 568.2 60" />
        <path d="M 584.8 50 L 584.8 60" />
        <path d="M 601.4 50 L 601.4 60" />
        <path d="M 618 50 L 618 70" />
        <path d="M 634.6 50 L 634.6 60" />
        <path d="M 651.2 50 L 651.2 60" />
        <path d="M 667.8 50 L 667.8 60" />
        <path d="M 684.4 50 L 684.4 60" />
        <path d="M 701 50 L 701 60" />
        <path d="M 717.6 50 L 717.6 60" />
        <path d="M 734.2 50 L 734.2 60" />
        <path d="M 750.8 50 L 750.8 60" />
        <path d="M 767.4 50 L 767.4 60" />
        <path d="M 784 50 L 784 70" />
        <path d="M 800.6 50 L 800.6 60" />
        <path d="M 817.2 50 L 817.2 60" />
        <path d="M 833.8 50 L 833.8 60" />
        <path d="M 850.4 50 L 850.4 60" />
        <path d="M 867 50 L 867 60" />
        <path d="M 883.6 50 L 883.6 60" />
        <path d="M 900.2 50 L 900.2 60" />
        <path d="M 916.8 50 L 916.8 60" />
        <path d="M 933.4 50 L 933.4 60" />
        <path d="M 950 50 L 950 70" />
    </g>
    <g id="frame_0_rightticks">
        <path d="M 950 806.858 L 940 806.858" />
        <path d="M 950 750.286 L 940 750.286" />
        <path d="M 950 552.287 L 940 552.287" />
        <path d="M 950 255.289 L 940 255.289" />
        <path d="M 950 920 L 930 920" />
        <path d="M 950 623.001 L 940 623.001" />
        <path d="M 950 326.002 L 940 326.002" />
        <path d="M 950 693.715 L 940 693.715" />
        <path d="M 950 792.715 L 940 792.715" />
        <path d="M 950 99.7177 L 940 99.7177" />
        <path d="M 950 467.43 L 940 467.43" />
        <path d="M 950 170.432 L 940 170.432" />
        <path d="M 950 538.144 L 940 538.144" />
        <path d="M 950 905.857 L 940 905.857" />
        <path d="M 950 891.714 L 940 891.714" />
        <path d="M 950 764.429 L 940 764.429" />
        <path d="M 950 311.86 L 940 311.86" />
        <path d="M 950 382.574 L 940 382.574" />
        <path d="M 950 156.289 L 940 156.289" />
        <path d="M 950 85.5749 L 940 85.5749" />
        <path d="M 950 453.288 L 940 453.288" />
        <path d="M 950 877.572 L 940 877.572" />
        <path d="M 950 849.286 L 940 849.286" />
        <path d="M 950 524.002 L 940 524.002" />
        <path d="M 950 227.003 L 940 227.003" />
        <path d="M 950 594.716 L 940 594.716" />
        <path d="M 950 821 L 940 821" />
        <path d="M 950 297.717 L 940 297.717" />
        <path d="M 950 665.43 L 940 665.43" />
        <path d="M 950 863.429 L 940 863.429" />
        <path d="M 950 608.858 L 940 608.858" />
        <path d="M 950 368.431 L 940 368.431" />
        <path d="M 950 71.4321 L 930 71.4321" />
        <path d="M 950 439.145 L 940 439.145" />
        <path d="M 950 142.146 L 940 142.146" />
        <path d="M 950 509.859 L 940 509.859" />
        <path d="M 950 212.86 L 930 212.86" />
        <path d="M 950 736.144 L 940 736.144" />
        <path d="M 950 580.573 L 940 580.573" />
        <path d="M 950 283.574 L 940 283.574" />
        <path d="M 950 651.287 L 940 651.287" />
        <path d="M 950 354.288 L 930 354.288" />
        <path d="M 950 57.2893 L 940 57.2893" />
        <path d="M 950 722.001 L 940 722.001" />
        <path d="M 950 425.002 L 940 425.002" />
        <path d="M 950 835.143 L 940 835.143" />
        <path d="M 950 679.572 L 940 679.572" />
        <path d="M 950 128.003 L 940 128.003" />
        <path d="M 950 495.716 L 930 495.716" />
        <path d="M 950 396.716 L 940 396.716" />
        <path d="M 950 566.43 L 940 566.43" />
        <path d="M 950 241.146 L 940 241.146" />
        <path d="M 950 269.431 L 940 269.431" />
        <path d="M 950 707.858 L 940 707.858" />
        <path d="M 950 340.145 L 940 340.145" />
        <path d="M 950 637.144 L 930 637.144" />
        <path d="M 950 198.717 L 940 198.717" />
        <path d="M 950 410.859 L 940 410.859" />
        <path d="M 950 113.861 L 940 113.861" />
        <path d="M 950 778.572 L 930 778.572" />
        <path d="M 950 184.575 L 940 184.575" />
        <path d="M 950 481.573 L 940 481.573" />
    </g>
</g>
</g>
</svg>
