<?xml version="1.0" standalone="no"?>
<!DOCTYPE svg PUBLIC "-//W3C//DTD SVG 1.1//EN" "http://www.w3.org/Graphics/SVG/1.1/DTD/svg11.dtd">
<svg style="stroke-linejoin:miter; stroke:black; stroke-width:2.5; text-anchor:middle; fill:none" xmlns="http://www.w3.org/2000/svg" font-family="Helvetica, Arial, FreeSans, Sans, sans, sans-serif" width="1000px" height="1000px" version="1.1" xmlns:xlink="http://www.w3.org/1999/xlink" viewBox="0 0 1000 1000">
<defs>
    <clipPath id="Histogram_0_clip">
        <rect x="120" y="50" width="830" height="870" />
    </clipPath>
    <clipPath id="Histogram_1_clip">
        <rect x="120" y="50" width="830" height="870" />
    </clipPath>
</defs>
<g id="whole_document">
<rect id="background" x="0" y="0" width="1000" height="1000" stroke="none" fill="white" />
<g id="Histogram_0" clip-path="url(#Histogram_0_clip)">
    <path d="M 120 920 L 120 129.091 L 161.5 129.091 L 161.5 920 L 203 920 L 203 920 L 244.5 920 L 244.5 859.148 L 286 859.148 L 286 918.052 L 327.5 918.052 L 327.5 920 L 369 920 L 369 920 L 410.5 920 L 410.5 920 L 452 920 L 452 920 L 493.5 920 L 493.5 920 L 535 920 L 535 920 L 576.5 920 L 576.5 920 L 618 920 L 618 920 L 659.5 920 L 659.5 920 L 701 920 L 701 920 L 742.5 920 L 742.5 920 L 784 920 L 784 920 L 825.5 920 L 825.5 920 L 867 920 L 867 920 L 908.5 920 L 908.5 920 L 950 920 L 950 920" stroke-width="3" stroke-dasharray="" stroke="black" stroke-opacity="1" fill="DodgerBlue" fill-opacity="1" />
</g>
<g id="Histogram_1" clip-path="url(#Histogram_1_clip)">
    <path d="M 120 920 L 120 920 L 161.5 920 L 161.5 920 L 203 920 L 203 920 L 244.5 920 L 244.5 859.148 L 286 859.148 L 286 918.052 L 327.5 918.052 L 327.5 920 L 369 920 L 369 920 L 410.5 920 L 410.5 920 L 452 920 L 452 920 L 493.5 920 L 493.5 920 L 535 920 L 535 920 L 576.5 920 L 576.5 920 L 618 920 L 618 920 L 659.5 920 L 659.5 920 L 701 920 L 701 920 L 742.5 920 L 742.5 920 L 784 920 L 784 920 L 825.5 920 L 825.5 920 L 867 920 L 867 920 L 908.5 920 L 908.5 920 L 950 920 L 950 920" stroke-width="3" stroke-dasharray="" stroke="black" stroke-opacity="1" fill="darkorange" fill-opacity="1" />
</g>
<g id="frame_0">
    <rect id="frame_0_border" x="120" y="50" width="830" height="870" />
    <text id="frame_0_bottomlabel" font-size="30" transform="translate(535, 989.6)" text-anchor="middle" dominant-baseline="middle" stroke="none" fill="black">microseconds</text>
    <g id="frame_0_bottomticks">
        <path d="M 120 920 L 120 900" />
        <text font-size="30" transform="translate(120, 950)" text-anchor="middle" dominant-baseline="middle" stroke="none" fill="black">0</text>
        <path d="M 136.6 920 L 136.6 910" />
        <path d="M 153.2 920 L 153.2 910" />
        <path d="M 169.8 920 L 169.8 910" />
        <path d="M 186.4 920 L 186.4 910" />
        <path d="M 203 920 L 203 910" />
        <path d="M 219.6 920 L 219.6 910" />
        <path d="M 236.2 920 L 236.2 910" />
        <path d="M 252.8 920 L 252.8 910" />
        <path d="M 269.4 920 L 269.4 910" />
        <path d="M 286 920 L 286 900" />
        <text font-size="30" transform="translate(286, 950)" text-anchor="middle" dominant-baseline="middle" stroke="none" fill="black">10</text>
        <path d="M 302.6 920 L 302.6 910" />
        <path d="M 319.2 920 L 319.2 910" />
        <path d="M 335.8 920 L 335.8 910" />
        <path d="M 352.4 920 L 352.4 910" />
        <path d="M 369 920 L 369 910" />
        <path d="M 385.6 920 L 385.6 910" />
        <path d="M 402.2 920 L 402.2 910" />
        <path d="M 418.8 920 L 418.8 910" />
        <path d="M 435.4 920 L 435.4 910" />
        <path d="M 452 920 L 452 900" />
        <text font-size="30" transform="translate(452, 950)" text-anchor="middle" dominant-baseline="middle" stroke="none" fill="black">20</text>
        <path d="M 468.6 920 L 468.6 910" />
        <path d="M 485.2 920 L 485.2 910" />
        <path d="M 501.8 920 L 501.8 910" />
        <path d="M 518.4 920 L 518.4 910" />
        <path d="M 535 920 L 535 910" />
        <path d="M 551.6 920 L 551.6 910" />
        <path d="M 568.2 920 L 568.2 910" />
        <path d="M 584.8 920 L 584.8 910" />
        <path d="M 601.4 920 L 601.4 910" />
        <path d="M 618 920 L 618 900" />
        <text font-size="30" transform="translate(618, 950)" text-anchor="middle" dominant-baseline="middle" stroke="none" fill="black">30</text>
        <path d="M 634.6 920 L 634.6 910" />
        <path d="M 651.2 920 L 651.2 910" />
        <path d="M 667.8 920 L 667.8 910" />
        <path d="M 684.4 920 L 684.4 910" />
        <path d="M 701 920 L 701 910" />
        <path d="M 717.6 920 L 717.6 910" />
        <path d="M 734.2 920 L 734.2 910" />
        <path d="M 750.8 920 L 750.8 910" />
        <path d="M 767.4 920 L 767.4 910" />
        <path d="M 784 920 L 784 900" />
        <text font-size="30" transform="translate(784, 950)" text-anchor="middle" dominant-baseline="middle" stroke="none" fill="black">40</text>
        <path d="M 800.6 920 L 800.6 910" />
        <path d="M 817.2 920 L 817.2 910" />
        <path d="M 833.8 920 L 833.8 910" />
        <path d="M 850.4 920 L 850.4 910" />
        <path d="M 867 920 L 867 910" />
        <path d="M 883.6 920 L 883.6 910" />
        <path d="M 900.2 920 L 900.2 910" />
        <path d="M 916.8 920 L 916.8 910" />
        <path d="M 933.4 920 L 933.4 910" />
        <path d="M 950 920 L 950 900" />
        <text font-size="30" transform="translate(950, 950)" text-anchor="middle" dominant-baseline="middle" stroke="none" fill="black">50</text>
    </g>
    <g id="frame_0_leftticks">
        <path d="M 120 207.053 L 130 207.053" />
        <path d="M 120 277.344 L 130 277.344" />
        <path d="M 120 920 L 140 920" />
        <text font-size="30" transform="translate(110, 930)" text-anchor="end" dominant-baseline="middle" stroke="none" fill="black">0</text>
        <path d="M 120 76.5136 L 130 76.5136" />
        <path d="M 120 66.4721 L 130 66.4721" />
        <path d="M 120 739.253 L 130 739.253" />
        <path d="M 120 789.46 L 130 789.46" />
        <path d="M 120 498.257 L 130 498.257" />
        <path d="M 120 528.381 L 130 528.381" />
        <path d="M 120 287.385 L 130 287.385" />
        <path d="M 120 819.585 L 140 819.585" />
        <text font-size="30" transform="translate(110, 829.585)" text-anchor="end" dominant-baseline="middle" stroke="none" fill="black">10000</text>
        <path d="M 120 397.842 L 130 397.842" />
        <path d="M 120 779.419 L 130 779.419" />
        <path d="M 120 267.302 L 130 267.302" />
        <path d="M 120 829.626 L 130 829.626" />
        <path d="M 120 558.506 L 130 558.506" />
        <path d="M 120 297.427 L 130 297.427" />
        <path d="M 120 709.128 L 130 709.128" />
        <path d="M 120 719.17 L 140 719.17" />
        <text font-size="30" transform="translate(110, 729.17)" text-anchor="end" dominant-baseline="middle" stroke="none" fill="black">20000</text>
        <path d="M 120 729.211 L 130 729.211" />
        <path d="M 120 166.887 L 130 166.887" />
        <path d="M 120 839.668 L 130 839.668" />
        <path d="M 120 478.174 L 130 478.174" />
        <path d="M 120 458.091 L 130 458.091" />
        <path d="M 120 628.796 L 130 628.796" />
        <path d="M 120 749.294 L 130 749.294" />
        <path d="M 120 618.755 L 140 618.755" />
        <text font-size="30" transform="translate(110, 628.755)" text-anchor="end" dominant-baseline="middle" stroke="none" fill="black">30000</text>
        <path d="M 120 96.5966 L 130 96.5966" />
        <path d="M 120 407.883 L 130 407.883" />
        <path d="M 120 909.958 L 130 909.958" />
        <path d="M 120 849.709 L 130 849.709" />
        <path d="M 120 357.676 L 130 357.676" />
        <path d="M 120 638.838 L 130 638.838" />
        <path d="M 120 337.593 L 130 337.593" />
        <path d="M 120 106.638 L 130 106.638" />
        <path d="M 120 859.751 L 130 859.751" />
        <path d="M 120 809.543 L 130 809.543" />
        <path d="M 120 387.8 L 130 387.8" />
        <path d="M 120 538.423 L 130 538.423" />
        <path d="M 120 427.966 L 130 427.966" />
        <path d="M 120 367.717 L 130 367.717" />
        <path d="M 120 417.925 L 140 417.925" />
        <text font-size="30" transform="translate(110, 427.925)" text-anchor="end" dominant-baseline="middle" stroke="none" fill="black">50000</text>
        <path d="M 120 648.879 L 130 648.879" />
        <path d="M 120 126.721 L 130 126.721" />
        <path d="M 120 759.336 L 130 759.336" />
        <path d="M 120 197.012 L 130 197.012" />
        <path d="M 120 548.464 L 130 548.464" />
        <path d="M 120 227.136 L 130 227.136" />
        <path d="M 120 658.921 L 130 658.921" />
        <path d="M 120 769.377 L 130 769.377" />
        <path d="M 120 869.792 L 130 869.792" />
        <path d="M 120 448.049 L 130 448.049" />
        <path d="M 120 317.51 L 140 317.51" />
        <text font-size="30" transform="translate(110, 327.51)" text-anchor="end" dominant-baseline="middle" stroke="none" fill="black">60000</text>
        <path d="M 120 608.713 L 130 608.713" />
        <path d="M 120 186.97 L 130 186.97" />
        <path d="M 120 237.178 L 130 237.178" />
        <path d="M 120 56.4306 L 130 56.4306" />
        <path d="M 120 899.917 L 130 899.917" />
        <path d="M 120 347.634 L 130 347.634" />
        <path d="M 120 136.763 L 130 136.763" />
        <path d="M 120 307.468 L 130 307.468" />
        <path d="M 120 86.5551 L 130 86.5551" />
        <path d="M 120 247.219 L 130 247.219" />
        <path d="M 120 217.095 L 140 217.095" />
        <text font-size="30" transform="translate(110, 227.095)" text-anchor="end" dominant-baseline="middle" stroke="none" fill="black">70000</text>
        <path d="M 120 799.502 L 130 799.502" />
        <path d="M 120 679.004 L 130 679.004" />
        <path d="M 120 879.834 L 130 879.834" />
        <path d="M 120 668.962 L 130 668.962" />
        <path d="M 120 146.804 L 130 146.804" />
        <path d="M 120 116.68 L 140 116.68" />
        <text font-size="30" transform="translate(110, 126.68)" text-anchor="end" dominant-baseline="middle" stroke="none" fill="black">80000</text>
        <path d="M 120 257.261 L 130 257.261" />
        <path d="M 120 327.551 L 130 327.551" />
        <path d="M 120 689.045 L 130 689.045" />
        <path d="M 120 568.547 L 130 568.547" />
        <path d="M 120 156.846 L 130 156.846" />
        <path d="M 120 578.589 L 130 578.589" />
        <path d="M 120 438.008 L 130 438.008" />
        <path d="M 120 377.759 L 130 377.759" />
        <path d="M 120 588.63 L 130 588.63" />
        <path d="M 120 598.672 L 130 598.672" />
        <path d="M 120 176.929 L 130 176.929" />
        <path d="M 120 699.087 L 130 699.087" />
        <path d="M 120 508.298 L 130 508.298" />
        <path d="M 120 518.34 L 140 518.34" />
        <text font-size="30" transform="translate(110, 528.34)" text-anchor="end" dominant-baseline="middle" stroke="none" fill="black">40000</text>
        <path d="M 120 889.875 L 130 889.875" />
        <path d="M 120 468.132 L 130 468.132" />
        <path d="M 120 488.215 L 130 488.215" />
    </g>
    <text id="frame_0_toplabel" font-size="30" transform="translate(535, 32.6)" text-anchor="middle" dominant-baseline="middle" stroke="none" fill="black">a.head</text>
    <g id="frame_0_topticks">
        <path d="M 120 50 L 120 70" />
        <path d="M 136.6 50 L 136.6 60" />
        <path d="M 153.2 50 L 153.2 60" />
        <path d="M 169.8 50 L 169.8 60" />
        <path d="M 186.4 50 L 186.4 60" />
        <path d="M 203 50 L 203 60" />
        <path d="M 219.6 50 L 219.6 60" />
        <path d="M 236.2 50 L 236.2 60" />
        <path d="M 252.8 50 L 252.8 60" />
        <path d="M 269.4 50 L 269.4 60" />
        <path d="M 286 50 L 286 70" />
        <path d="M 302.6 50 L 302.6 60" />
        <path d="M 319.2 50 L 319.2 60" />
        <path d="M 335.8 50 L 335.8 60" />
        <path d="M 352.4 50 L 352.4 60" />
        <path d="M 369 50 L 369 60" />
        <path d="M 385.6 50 L 385.6 60" />
        <path d="M 402.2 50 L 402.2 60" />
        <path d="M 418.8 50 L 418.8 60" />
        <path d="M 435.4 50 L 435.4 60" />
        <path d="M 452 50 L 452 70" />
        <path d="M 468.6 50 L 468.6 60" />
        <path d="M 485.2 50 L 485.2 60" />
        <path d="M 501.8 50 L 501.8 60" />
        <path d="M 518.4 50 L 518.4 60" />
        <path d="M 535 50 L 535 60" />
        <path d="M 551.6 50 L 551.6 60" />
        <path d="M 568.2 50 L 568.2 60" />
        <path d="M 584.8 50 L 584.8 60" />
        <path d="M 601.4 50 L 601.4 60" />
        <path d="M 618 50 L 618 70" />
        <path d="M 634.6 50 L 634.6 60" />
        <path d="M 651.2 50 L 651.2 60" />
        <path d="M 667.8 50 L 667.8 60" />
        <path d="M 684.4 50 L 684.4 60" />
        <path d="M 701 50 L 701 60" />
        <path d="M 717.6 50 L 717.6 60" />
        <path d="M 734.2 50 L 734.2 60" />
        <path d="M 750.8 50 L 750.8 60" />
        <path d="M 767.4 50 L 767.4 60" />
        <path d="M 784 50 L 784 70" />
        <path d="M 800.6 50 L 800.6 60" />
        <path d="M 817.2 50 L 817.2 60" />
        <path d="M 833.8 50 L 833.8 60" />
        <path d="M 850.4 50 L 850.4 60" />
        <path d="M 867 50 L 867 60" />
        <path d="M 883.6 50 L 883.6 60" />
        <path d="M 900.2 50 L 900.2 60" />
        <path d="M 916.8 50 L 916.8 60" />
        <path d="M 933.4 50 L 933.4 60" />
        <path d="M 950 50 L 950 70" />
    </g>
    <g id="frame_0_rightticks">
        <path d="M 950 207.053 L 940 207.053" />
        <path d="M 950 277.344 L 940 277.344" />
        <path d="M 950 920 L 930 920" />
        <path d="M 950 76.5136 L 940 76.5136" />
        <path d="M 950 66.4721 L 940 66.4721" />
        <path d="M 950 739.253 L 940 739.253" />
        <path d="M 950 789.46 L 940 789.46" />
        <path d="M 950 498.257 L 940 498.257" />
        <path d="M 950 528.381 L 940 528.381" />
        <path d="M 950 287.385 L 940 287.385" />
        <path d="M 950 819.585 L 930 819.585" />
        <path d="M 950 397.842 L 940 397.842" />
        <path d="M 950 779.419 L 940 779.419" />
        <path d="M 950 267.302 L 940 267.302" />
        <path d="M 950 829.626 L 940 829.626" />
        <path d="M 950 558.506 L 940 558.506" />
        <path d="M 950 297.427 L 940 297.427" />
        <path d="M 950 709.128 L 940 709.128" />
        <path d="M 950 719.17 L 930 719.17" />
        <path d="M 950 729.211 L 940 729.211" />
        <path d="M 950 166.887 L 940 166.887" />
        <path d="M 950 839.668 L 940 839.668" />
        <path d="M 950 478.174 L 940 478.174" />
        <path d="M 950 458.091 L 940 458.091" />
        <path d="M 950 628.796 L 940 628.796" />
        <path d="M 950 749.294 L 940 749.294" />
        <path d="M 950 618.755 L 930 618.755" />
        <path d="M 950 96.5966 L 940 96.5966" />
        <path d="M 950 407.883 L 940 407.883" />
        <path d="M 950 909.958 L 940 909.958" />
        <path d="M 950 849.709 L 940 849.709" />
        <path d="M 950 357.676 L 940 357.676" />
        <path d="M 950 638.838 L 940 638.838" />
        <path d="M 950 337.593 L 940 337.593" />
        <path d="M 950 106.638 L 940 106.638" />
        <path d="M 950 859.751 L 940 859.751" />
        <path d="M 950 809.543 L 940 809.543" />
        <path d="M 950 387.8 L 940 387.8" />
        <path d="M 950 538.423 L 940 538.423" />
        <path d="M 950 427.966 L 940 427.966" />
        <path d="M 950 367.717 L 940 367.717" />
        <path d="M 950 417.925 L 930 417.925" />
        <path d="M 950 648.879 L 940 648.879" />
        <path d="M 950 126.721 L 940 126.721" />
        <path d="M 950 759.336 L 940 759.336" />
        <path d="M 950 197.012 L 940 197.012" />
        <path d="M 950 548.464 L 940 548.464" />
        <path d="M 950 227.136 L 940 227.136" />
        <path d="M 950 658.921 L 940 658.921" />
        <path d="M 950 769.377 L 940 769.377" />
        <path d="M 950 869.792 L 940 869.792" />
        <path d="M 950 448.049 L 940 448.049" />
        <path d="M 950 317.51 L 930 317.51" />
        <path d="M 950 608.713 L 940 608.713" />
        <path d="M 950 186.97 L 940 186.97" />
        <path d="M 950 237.178 L 940 237.178" />
        <path d="M 950 56.4306 L 940 56.4306" />
        <path d="M 950 899.917 L 940 899.917" />
        <path d="M 950 347.634 L 940 347.634" />
        <path d="M 950 136.763 L 940 136.763" />
        <path d="M 950 307.468 L 940 307.468" />
        <path d="M 950 86.5551 L 940 86.5551" />
        <path d="M 950 247.219 L 940 247.219" />
        <path d="M 950 217.095 L 930 217.095" />
        <path d="M 950 799.502 L 940 799.502" />
        <path d="M 950 679.004 L 940 679.004" />
        <path d="M 950 879.834 L 940 879.834" />
        <path d="M 950 668.962 L 940 668.962" />
        <path d="M 950 146.804 L 940 146.804" />
        <path d="M 950 116.68 L 930 116.68" />
        <path d="M 950 257.261 L 940 257.261" />
        <path d="M 950 327.551 L 940 327.551" />
        <path d="M 950 689.045 L 940 689.045" />
        <path d="M 950 568.547 L 940 568.547" />
        <path d="M 950 156.846 L 940 156.846" />
        <path d="M 950 578.589 L 940 578.589" />
        <path d="M 950 438.008 L 940 438.008" />
        <path d="M 950 377.759 L 940 377.759" />
        <path d="M 950 588.63 L 940 588.63" />
        <path d="M 950 598.672 L 940 598.672" />
        <path d="M 950 176.929 L 940 176.929" />
        <path d="M 950 699.087 L 940 699.087" />
        <path d="M 950 508.298 L 940 508.298" />
        <path d="M 950 518.34 L 930 518.34" />
        <path d="M 950 889.875 L 940 889.875" />
        <path d="M 950 468.132 L 940 468.132" />
        <path d="M 950 488.215 L 940 488.215" />
    </g>
</g>
</g>
</svg>
