<?xml version="1.0" standalone="no"?>
<!DOCTYPE svg PUBLIC "-//W3C//DTD SVG 1.1//EN" "http://www.w3.org/Graphics/SVG/1.1/DTD/svg11.dtd">
<svg style="stroke-linejoin:miter; stroke:black; stroke-width:2.5; text-anchor:middle; fill:none" xmlns="http://www.w3.org/2000/svg" font-family="Helvetica, Arial, FreeSans, Sans, sans, sans-serif" width="1000px" height="1000px" version="1.1" xmlns:xlink="http://www.w3.org/1999/xlink" viewBox="0 0 1000 1000">
<defs>
    <clipPath id="Histogram_0_clip">
        <rect x="120" y="50" width="830" height="870" />
    </clipPath>
</defs>
<g id="whole_document">
<rect id="background" x="0" y="0" width="1000" height="1000" stroke="none" fill="white" />
<g id="Histogram_0" clip-path="url(#Histogram_0_clip)">
    <path d="M 120 920 L 120 129.091 L 161.5 129.091 L 161.5 909.485 L 203 909.485 L 203 920 L 244.5 920 L 244.5 920 L 286 920 L 286 920 L 327.5 920 L 327.5 920 L 369 920 L 369 920 L 410.5 920 L 410.5 920 L 452 920 L 452 920 L 493.5 920 L 493.5 920 L 535 920 L 535 920 L 576.5 920 L 576.5 920 L 618 920 L 618 920 L 659.5 920 L 659.5 920 L 701 920 L 701 920 L 742.5 920 L 742.5 920 L 784 920 L 784 920 L 825.5 920 L 825.5 920 L 867 920 L 867 920 L 908.5 920 L 908.5 920 L 950 920 L 950 920" stroke-width="3" stroke-dasharray="" stroke="black" stroke-opacity="1" fill="DodgerBlue" fill-opacity="1" />
</g>
<g id="frame_0">
    <rect id="frame_0_border" x="120" y="50" width="830" height="870" />
    <text id="frame_0_bottomlabel" font-size="30" transform="translate(535, 989.6)" text-anchor="middle" dominant-baseline="middle" stroke="none" fill="black">microseconds</text>
    <g id="frame_0_bottomticks">
        <path d="M 120 920 L 120 900" />
        <text font-size="30" transform="translate(120, 950)" text-anchor="middle" dominant-baseline="middle" stroke="none" fill="black">0</text>
        <path d="M 136.6 920 L 136.6 910" />
        <path d="M 153.2 920 L 153.2 910" />
        <path d="M 169.8 920 L 169.8 910" />
        <path d="M 186.4 920 L 186.4 910" />
        <path d="M 203 920 L 203 910" />
        <path d="M 219.6 920 L 219.6 910" />
        <path d="M 236.2 920 L 236.2 910" />
        <path d="M 252.8 920 L 252.8 910" />
        <path d="M 269.4 920 L 269.4 910" />
        <path d="M 286 920 L 286 900" />
        <text font-size="30" transform="translate(286, 950)" text-anchor="middle" dominant-baseline="middle" stroke="none" fill="black">10</text>
        <path d="M 302.6 920 L 302.6 910" />
        <path d="M 319.2 920 L 319.2 910" />
        <path d="M 335.8 920 L 335.8 910" />
        <path d="M 352.4 920 L 352.4 910" />
        <path d="M 369 920 L 369 910" />
        <path d="M 385.6 920 L 385.6 910" />
        <path d="M 402.2 920 L 402.2 910" />
        <path d="M 418.8 920 L 418.8 910" />
        <path d="M 435.4 920 L 435.4 910" />
        <path d="M 452 920 L 452 900" />
        <text font-size="30" transform="translate(452, 950)" text-anchor="middle" dominant-baseline="middle" stroke="none" fill="black">20</text>
        <path d="M 468.6 920 L 468.6 910" />
        <path d="M 485.2 920 L 485.2 910" />
        <path d="M 501.8 920 L 501.8 910" />
        <path d="M 518.4 920 L 518.4 910" />
        <path d="M 535 920 L 535 910" />
        <path d="M 551.6 920 L 551.6 910" />
        <path d="M 568.2 920 L 568.2 910" />
        <path d="M 584.8 920 L 584.8 910" />
        <path d="M 601.4 920 L 601.4 910" />
        <path d="M 618 920 L 618 900" />
        <text font-size="30" transform="translate(618, 950)" text-anchor="middle" dominant-baseline="middle" stroke="none" fill="black">30</text>
        <path d="M 634.6 920 L 634.6 910" />
        <path d="M 651.2 920 L 651.2 910" />
        <path d="M 667.8 920 L 667.8 910" />
        <path d="M 684.4 920 L 684.4 910" />
        <path d="M 701 920 L 701 910" />
        <path d="M 717.6 920 L 717.6 910" />
        <path d="M 734.2 920 L 734.2 910" />
        <path d="M 750.8 920 L 750.8 910" />
        <path d="M 767.4 920 L 767.4 910" />
        <path d="M 784 920 L 784 900" />
        <text font-size="30" transform="translate(784, 950)" text-anchor="middle" dominant-baseline="middle" stroke="none" fill="black">40</text>
        <path d="M 800.6 920 L 800.6 910" />
        <path d="M 817.2 920 L 817.2 910" />
        <path d="M 833.8 920 L 833.8 910" />
        <path d="M 850.4 920 L 850.4 910" />
        <path d="M 867 920 L 867 910" />
        <path d="M 883.6 920 L 883.6 910" />
        <path d="M 900.2 920 L 900.2 910" />
        <path d="M 916.8 920 L 916.8 910" />
        <path d="M 933.4 920 L 933.4 910" />
        <path d="M 950 920 L 950 900" />
        <text font-size="30" transform="translate(950, 950)" text-anchor="middle" dominant-baseline="middle" stroke="none" fill="black">50</text>
    </g>
    <g id="frame_0_leftticks">
        <path d="M 120 603.161 L 130 603.161" />
        <path d="M 120 444.742 L 130 444.742" />
        <path d="M 120 385.334 L 130 385.334" />
        <path d="M 120 504.149 L 130 504.149" />
        <path d="M 120 246.717 L 130 246.717" />
        <path d="M 120 405.137 L 130 405.137" />
        <path d="M 120 781.383 L 130 781.383" />
        <path d="M 120 820.988 L 140 820.988" />
        <text font-size="30" transform="translate(110, 830.988)" text-anchor="end" dominant-baseline="middle" stroke="none" fill="black">5000</text>
        <path d="M 120 306.125 L 130 306.125" />
        <path d="M 120 920 L 140 920" />
        <text font-size="30" transform="translate(110, 930)" text-anchor="end" dominant-baseline="middle" stroke="none" fill="black">0</text>
        <path d="M 120 721.976 L 140 721.976" />
        <text font-size="30" transform="translate(110, 731.976)" text-anchor="end" dominant-baseline="middle" stroke="none" fill="black">10000</text>
        <path d="M 120 147.705 L 130 147.705" />
        <path d="M 120 840.79 L 130 840.79" />
        <path d="M 120 484.347 L 130 484.347" />
        <path d="M 120 523.951 L 140 523.951" />
        <text font-size="30" transform="translate(110, 533.951)" text-anchor="end" dominant-baseline="middle" stroke="none" fill="black">20000</text>
        <path d="M 120 741.778 L 130 741.778" />
        <path d="M 120 622.964 L 140 622.964" />
        <text font-size="30" transform="translate(110, 632.964)" text-anchor="end" dominant-baseline="middle" stroke="none" fill="black">15000</text>
        <path d="M 120 207.112 L 130 207.112" />
        <path d="M 120 642.766 L 130 642.766" />
        <path d="M 120 345.73 L 130 345.73" />
        <path d="M 120 108.1 L 130 108.1" />
        <path d="M 120 543.754 L 130 543.754" />
        <path d="M 120 266.52 L 130 266.52" />
        <path d="M 120 761.581 L 130 761.581" />
        <path d="M 120 365.532 L 130 365.532" />
        <path d="M 120 424.939 L 140 424.939" />
        <text font-size="30" transform="translate(110, 434.939)" text-anchor="end" dominant-baseline="middle" stroke="none" fill="black">25000</text>
        <path d="M 120 662.568 L 130 662.568" />
        <path d="M 120 167.508 L 130 167.508" />
        <path d="M 120 325.927 L 140 325.927" />
        <text font-size="30" transform="translate(110, 335.927)" text-anchor="end" dominant-baseline="middle" stroke="none" fill="black">30000</text>
        <path d="M 120 563.556 L 130 563.556" />
        <path d="M 120 860.593 L 130 860.593" />
        <path d="M 120 68.4955 L 130 68.4955" />
        <path d="M 120 464.544 L 130 464.544" />
        <path d="M 120 226.915 L 140 226.915" />
        <text font-size="30" transform="translate(110, 236.915)" text-anchor="end" dominant-baseline="middle" stroke="none" fill="black">35000</text>
        <path d="M 120 682.371 L 130 682.371" />
        <path d="M 120 880.395 L 130 880.395" />
        <path d="M 120 900.198 L 130 900.198" />
        <path d="M 120 88.2979 L 130 88.2979" />
        <path d="M 120 286.322 L 130 286.322" />
        <path d="M 120 801.185 L 130 801.185" />
        <path d="M 120 583.359 L 130 583.359" />
        <path d="M 120 127.903 L 140 127.903" />
        <text font-size="30" transform="translate(110, 137.903)" text-anchor="end" dominant-baseline="middle" stroke="none" fill="black">40000</text>
        <path d="M 120 702.173 L 130 702.173" />
        <path d="M 120 187.31 L 130 187.31" />
    </g>
    <text id="frame_0_toplabel" font-size="30" transform="translate(535, 32.6)" text-anchor="middle" dominant-baseline="middle" stroke="none" fill="black">map.remove</text>
    <g id="frame_0_topticks">
        <path d="M 120 50 L 120 70" />
        <path d="M 136.6 50 L 136.6 60" />
        <path d="M 153.2 50 L 153.2 60" />
        <path d="M 169.8 50 L 169.8 60" />
        <path d="M 186.4 50 L 186.4 60" />
        <path d="M 203 50 L 203 60" />
        <path d="M 219.6 50 L 219.6 60" />
        <path d="M 236.2 50 L 236.2 60" />
        <path d="M 252.8 50 L 252.8 60" />
        <path d="M 269.4 50 L 269.4 60" />
        <path d="M 286 50 L 286 70" />
        <path d="M 302.6 50 L 302.6 60" />
        <path d="M 319.2 50 L 319.2 60" />
        <path d="M 335.8 50 L 335.8 60" />
        <path d="M 352.4 50 L 352.4 60" />
        <path d="M 369 50 L 369 60" />
        <path d="M 385.6 50 L 385.6 60" />
        <path d="M 402.2 50 L 402.2 60" />
        <path d="M 418.8 50 L 418.8 60" />
        <path d="M 435.4 50 L 435.4 60" />
        <path d="M 452 50 L 452 70" />
        <path d="M 468.6 50 L 468.6 60" />
        <path d="M 485.2 50 L 485.2 60" />
        <path d="M 501.8 50 L 501.8 60" />
        <path d="M 518.4 50 L 518.4 60" />
        <path d="M 535 50 L 535 60" />
        <path d="M 551.6 50 L 551.6 60" />
        <path d="M 568.2 50 L 568.2 60" />
        <path d="M 584.8 50 L 584.8 60" />
        <path d="M 601.4 50 L 601.4 60" />
        <path d="M 618 50 L 618 70" />
        <path d="M 634.6 50 L 634.6 60" />
        <path d="M 651.2 50 L 651.2 60" />
        <path d="M 667.8 50 L 667.8 60" />
        <path d="M 684.4 50 L 684.4 60" />
        <path d="M 701 50 L 701 60" />
        <path d="M 717.6 50 L 717.6 60" />
        <path d="M 734.2 50 L 734.2 60" />
        <path d="M 750.8 50 L 750.8 60" />
        <path d="M 767.4 50 L 767.4 60" />
        <path d="M 784 50 L 784 70" />
        <path d="M 800.6 50 L 800.6 60" />
        <path d="M 817.2 50 L 817.2 60" />
        <path d="M 833.8 50 L 833.8 60" />
        <path d="M 850.4 50 L 850.4 60" />
        <path d="M 867 50 L 867 60" />
        <path d="M 883.6 50 L 883.6 60" />
        <path d="M 900.2 50 L 900.2 60" />
        <path d="M 916.8 50 L 916.8 60" />
        <path d="M 933.4 50 L 933.4 60" />
        <path d="M 950 50 L 950 70" />
    </g>
    <g id="frame_0_rightticks">
        <path d="M 950 603.161 L 940 603.161" />
        <path d="M 950 444.742 L 940 444.742" />
        <path d="M 950 385.334 L 940 385.334" />
        <path d="M 950 504.149 L 940 504.149" />
        <path d="M 950 246.717 L 940 246.717" />
        <path d="M 950 405.137 L 940 405.137" />
        <path d="M 950 781.383 L 940 781.383" />
        <path d="M 950 820.988 L 930 820.988" />
        <path d="M 950 306.125 L 940 306.125" />
        <path d="M 950 920 L 930 920" />
        <path d="M 950 721.976 L 930 721.976" />
        <path d="M 950 147.705 L 940 147.705" />
        <path d="M 950 840.79 L 940 840.79" />
        <path d="M 950 484.347 L 940 484.347" />
        <path d="M 950 523.951 L 930 523.951" />
        <path d="M 950 741.778 L 940 741.778" />
        <path d="M 950 622.964 L 930 622.964" />
        <path d="M 950 207.112 L 940 207.112" />
        <path d="M 950 642.766 L 940 642.766" />
        <path d="M 950 345.73 L 940 345.73" />
        <path d="M 950 108.1 L 940 108.1" />
        <path d="M 950 543.754 L 940 543.754" />
        <path d="M 950 266.52 L 940 266.52" />
        <path d="M 950 761.581 L 940 761.581" />
        <path d="M 950 365.532 L 940 365.532" />
        <path d="M 950 424.939 L 930 424.939" />
        <path d="M 950 662.568 L 940 662.568" />
        <path d="M 950 167.508 L 940 167.508" />
        <path d="M 950 325.927 L 930 325.927" />
        <path d="M 950 563.556 L 940 563.556" />
        <path d="M 950 860.593 L 940 860.593" />
        <path d="M 950 68.4955 L 940 68.4955" />
        <path d="M 950 464.544 L 940 464.544" />
        <path d="M 950 226.915 L 930 226.915" />
        <path d="M 950 682.371 L 940 682.371" />
        <path d="M 950 880.395 L 940 880.395" />
        <path d="M 950 900.198 L 940 900.198" />
        <path d="M 950 88.2979 L 940 88.2979" />
        <path d="M 950 286.322 L 940 286.322" />
        <path d="M 950 801.185 L 940 801.185" />
        <path d="M 950 583.359 L 940 583.359" />
        <path d="M 950 127.903 L 930 127.903" />
        <path d="M 950 702.173 L 940 702.173" />
        <path d="M 950 187.31 L 940 187.31" />
    </g>
</g>
</g>
</svg>
