<?xml version="1.0" standalone="no"?>
<!DOCTYPE svg PUBLIC "-//W3C//DTD SVG 1.1//EN" "http://www.w3.org/Graphics/SVG/1.1/DTD/svg11.dtd">
<svg style="stroke-linejoin:miter; stroke:black; stroke-width:2.5; text-anchor:middle; fill:none" xmlns="http://www.w3.org/2000/svg" font-family="Helvetica, Arial, FreeSans, Sans, sans, sans-serif" width="1000px" height="1000px" version="1.1" xmlns:xlink="http://www.w3.org/1999/xlink" viewBox="0 0 1000 1000">
<defs>
    <clipPath id="Histogram_0_clip">
        <rect x="120" y="50" width="830" height="870" />
    </clipPath>
    <clipPath id="Histogram_1_clip">
        <rect x="120" y="50" width="830" height="870" />
    </clipPath>
</defs>
<g id="whole_document">
<rect id="background" x="0" y="0" width="1000" height="1000" stroke="none" fill="white" />
<g id="Histogram_0" clip-path="url(#Histogram_0_clip)">
    <path d="M 120 920 L 120 920 L 161.5 920 L 161.5 129.091 L 203 129.091 L 203 846.376 L 244.5 846.376 L 244.5 625.125 L 286 625.125 L 286 907.807 L 327.5 907.807 L 327.5 909.965 L 369 909.965 L 369 910.344 L 410.5 910.344 L 410.5 917.486 L 452 917.486 L 452 918.954 L 493.5 918.954 L 493.5 915.305 L 535 915.305 L 535 920 L 576.5 920 L 576.5 918.643 L 618 918.643 L 618 919.266 L 659.5 919.266 L 659.5 920 L 701 920 L 701 920 L 742.5 920 L 742.5 920 L 784 920 L 784 920 L 825.5 920 L 825.5 920 L 867 920 L 867 920 L 908.5 920 L 908.5 920 L 950 920 L 950 920" stroke-width="3" stroke-dasharray="" stroke="black" stroke-opacity="1" fill="DodgerBlue" fill-opacity="1" />
</g>
<g id="Histogram_1" clip-path="url(#Histogram_1_clip)">
    <path d="M 120 920 L 120 920 L 161.5 920 L 161.5 920 L 203 920 L 203 920 L 244.5 920 L 244.5 638.252 L 286 638.252 L 286 909.832 L 327.5 909.832 L 327.5 913.281 L 369 913.281 L 369 915.817 L 410.5 915.817 L 410.5 918.754 L 452 918.754 L 452 918.954 L 493.5 918.954 L 493.5 919.066 L 535 919.066 L 535 920 L 576.5 920 L 576.5 920 L 618 920 L 618 920 L 659.5 920 L 659.5 920 L 701 920 L 701 920 L 742.5 920 L 742.5 920 L 784 920 L 784 920 L 825.5 920 L 825.5 920 L 867 920 L 867 920 L 908.5 920 L 908.5 920 L 950 920 L 950 920" stroke-width="3" stroke-dasharray="" stroke="black" stroke-opacity="1" fill="darkorange" fill-opacity="1" />
</g>
<g id="frame_0">
    <rect id="frame_0_border" x="120" y="50" width="830" height="870" />
    <text id="frame_0_bottomlabel" font-size="30" transform="translate(535, 989.6)" text-anchor="middle" dominant-baseline="middle" stroke="none" fill="black">microseconds</text>
    <g id="frame_0_bottomticks">
        <path d="M 120 920 L 120 900" />
        <text font-size="30" transform="translate(120, 950)" text-anchor="middle" dominant-baseline="middle" stroke="none" fill="black">0</text>
        <path d="M 136.6 920 L 136.6 910" />
        <path d="M 153.2 920 L 153.2 910" />
        <path d="M 169.8 920 L 169.8 910" />
        <path d="M 186.4 920 L 186.4 910" />
        <path d="M 203 920 L 203 910" />
        <path d="M 219.6 920 L 219.6 910" />
        <path d="M 236.2 920 L 236.2 910" />
        <path d="M 252.8 920 L 252.8 910" />
        <path d="M 269.4 920 L 269.4 910" />
        <path d="M 286 920 L 286 900" />
        <text font-size="30" transform="translate(286, 950)" text-anchor="middle" dominant-baseline="middle" stroke="none" fill="black">10</text>
        <path d="M 302.6 920 L 302.6 910" />
        <path d="M 319.2 920 L 319.2 910" />
        <path d="M 335.8 920 L 335.8 910" />
        <path d="M 352.4 920 L 352.4 910" />
        <path d="M 369 920 L 369 910" />
        <path d="M 385.6 920 L 385.6 910" />
        <path d="M 402.2 920 L 402.2 910" />
        <path d="M 418.8 920 L 418.8 910" />
        <path d="M 435.4 920 L 435.4 910" />
        <path d="M 452 920 L 452 900" />
        <text font-size="30" transform="translate(452, 950)" text-anchor="middle" dominant-baseline="middle" stroke="none" fill="black">20</text>
        <path d="M 468.6 920 L 468.6 910" />
        <path d="M 485.2 920 L 485.2 910" />
        <path d="M 501.8 920 L 501.8 910" />
        <path d="M 518.4 920 L 518.4 910" />
        <path d="M 535 920 L 535 910" />
        <path d="M 551.6 920 L 551.6 910" />
        <path d="M 568.2 920 L 568.2 910" />
        <path d="M 584.8 920 L 584.8 910" />
        <path d="M 601.4 920 L 601.4 910" />
        <path d="M 618 920 L 618 900" />
        <text font-size="30" transform="translate(618, 950)" text-anchor="middle" dominant-baseline="middle" stroke="none" fill="black">30</text>
        <path d="M 634.6 920 L 634.6 910" />
        <path d="M 651.2 920 L 651.2 910" />
        <path d="M 667.8 920 L 667.8 910" />
        <path d="M 684.4 920 L 684.4 910" />
        <path d="M 701 920 L 701 910" />
        <path d="M 717.6 920 L 717.6 910" />
        <path d="M 734.2 920 L 734.2 910" />
        <path d="M 750.8 920 L 750.8 910" />
        <path d="M 767.4 920 L 767.4 910" />
        <path d="M 784 920 L 784 900" />
        <text font-size="30" transform="translate(784, 950)" text-anchor="middle" dominant-baseline="middle" stroke="none" fill="black">40</text>
        <path d="M 800.6 920 L 800.6 910" />
        <path d="M 817.2 920 L 817.2 910" />
        <path d="M 833.8 920 L 833.8 910" />
        <path d="M 850.4 920 L 850.4 910" />
        <path d="M 867 920 L 867 910" />
        <path d="M 883.6 920 L 883.6 910" />
        <path d="M 900.2 920 L 900.2 910" />
        <path d="M 916.8 920 L 916.8 910" />
        <path d="M 933.4 920 L 933.4 910" />
        <path d="M 950 920 L 950 900" />
        <text font-size="30" transform="translate(950, 950)" text-anchor="middle" dominant-baseline="middle" stroke="none" fill="black">50</text>
    </g>
    <g id="frame_0_leftticks">
        <path d="M 120 564.005 L 130 564.005" />
        <path d="M 120 386.008 L 130 386.008" />
        <path d="M 120 319.259 L 130 319.259" />
        <path d="M 120 452.757 L 130 452.757" />
        <path d="M 120 163.511 L 130 163.511" />
        <path d="M 120 341.509 L 130 341.509" />
        <path d="M 120 764.252 L 130 764.252" />
        <path d="M 120 808.752 L 140 808.752" />
        <text font-size="30" transform="translate(110, 818.752)" text-anchor="end" dominant-baseline="middle" stroke="none" fill="black">5000</text>
        <path d="M 120 230.26 L 130 230.26" />
        <path d="M 120 920 L 140 920" />
        <text font-size="30" transform="translate(110, 930)" text-anchor="end" dominant-baseline="middle" stroke="none" fill="black">0</text>
        <path d="M 120 697.503 L 140 697.503" />
        <text font-size="30" transform="translate(110, 707.503)" text-anchor="end" dominant-baseline="middle" stroke="none" fill="black">10000</text>
        <path d="M 120 52.2628 L 130 52.2628" />
        <path d="M 120 831.001 L 130 831.001" />
        <path d="M 120 430.507 L 130 430.507" />
        <path d="M 120 719.753 L 130 719.753" />
        <path d="M 120 586.255 L 140 586.255" />
        <text font-size="30" transform="translate(110, 596.255)" text-anchor="end" dominant-baseline="middle" stroke="none" fill="black">15000</text>
        <path d="M 120 119.012 L 130 119.012" />
        <path d="M 120 608.505 L 130 608.505" />
        <path d="M 120 274.76 L 130 274.76" />
        <path d="M 120 475.007 L 140 475.007" />
        <text font-size="30" transform="translate(110, 485.007)" text-anchor="end" dominant-baseline="middle" stroke="none" fill="black">20000</text>
        <path d="M 120 497.256 L 130 497.256" />
        <path d="M 120 185.761 L 130 185.761" />
        <path d="M 120 742.003 L 130 742.003" />
        <path d="M 120 297.009 L 130 297.009" />
        <path d="M 120 363.758 L 140 363.758" />
        <text font-size="30" transform="translate(110, 373.758)" text-anchor="end" dominant-baseline="middle" stroke="none" fill="black">25000</text>
        <path d="M 120 630.754 L 130 630.754" />
        <path d="M 120 74.5125 L 130 74.5125" />
        <path d="M 120 252.51 L 140 252.51" />
        <text font-size="30" transform="translate(110, 262.51)" text-anchor="end" dominant-baseline="middle" stroke="none" fill="black">30000</text>
        <path d="M 120 519.506 L 130 519.506" />
        <path d="M 120 853.251 L 130 853.251" />
        <path d="M 120 408.258 L 130 408.258" />
        <path d="M 120 141.261 L 140 141.261" />
        <text font-size="30" transform="translate(110, 151.261)" text-anchor="end" dominant-baseline="middle" stroke="none" fill="black">35000</text>
        <path d="M 120 653.004 L 130 653.004" />
        <path d="M 120 875.501 L 130 875.501" />
        <path d="M 120 897.75 L 130 897.75" />
        <path d="M 120 208.01 L 130 208.01" />
        <path d="M 120 786.502 L 130 786.502" />
        <path d="M 120 541.756 L 130 541.756" />
        <path d="M 120 675.254 L 130 675.254" />
        <path d="M 120 96.7621 L 130 96.7621" />
    </g>
    <text id="frame_0_toplabel" font-size="30" transform="translate(535, 32.6)" text-anchor="middle" dominant-baseline="middle" stroke="none" fill="black">model.cluster.kmeansIteration</text>
    <g id="frame_0_topticks">
        <path d="M 120 50 L 120 70" />
        <path d="M 136.6 50 L 136.6 60" />
        <path d="M 153.2 50 L 153.2 60" />
        <path d="M 169.8 50 L 169.8 60" />
        <path d="M 186.4 50 L 186.4 60" />
        <path d="M 203 50 L 203 60" />
        <path d="M 219.6 50 L 219.6 60" />
        <path d="M 236.2 50 L 236.2 60" />
        <path d="M 252.8 50 L 252.8 60" />
        <path d="M 269.4 50 L 269.4 60" />
        <path d="M 286 50 L 286 70" />
        <path d="M 302.6 50 L 302.6 60" />
        <path d="M 319.2 50 L 319.2 60" />
        <path d="M 335.8 50 L 335.8 60" />
        <path d="M 352.4 50 L 352.4 60" />
        <path d="M 369 50 L 369 60" />
        <path d="M 385.6 50 L 385.6 60" />
        <path d="M 402.2 50 L 402.2 60" />
        <path d="M 418.8 50 L 418.8 60" />
        <path d="M 435.4 50 L 435.4 60" />
        <path d="M 452 50 L 452 70" />
        <path d="M 468.6 50 L 468.6 60" />
        <path d="M 485.2 50 L 485.2 60" />
        <path d="M 501.8 50 L 501.8 60" />
        <path d="M 518.4 50 L 518.4 60" />
        <path d="M 535 50 L 535 60" />
        <path d="M 551.6 50 L 551.6 60" />
        <path d="M 568.2 50 L 568.2 60" />
        <path d="M 584.8 50 L 584.8 60" />
        <path d="M 601.4 50 L 601.4 60" />
        <path d="M 618 50 L 618 70" />
        <path d="M 634.6 50 L 634.6 60" />
        <path d="M 651.2 50 L 651.2 60" />
        <path d="M 667.8 50 L 667.8 60" />
        <path d="M 684.4 50 L 684.4 60" />
        <path d="M 701 50 L 701 60" />
        <path d="M 717.6 50 L 717.6 60" />
        <path d="M 734.2 50 L 734.2 60" />
        <path d="M 750.8 50 L 750.8 60" />
        <path d="M 767.4 50 L 767.4 60" />
        <path d="M 784 50 L 784 70" />
        <path d="M 800.6 50 L 800.6 60" />
        <path d="M 817.2 50 L 817.2 60" />
        <path d="M 833.8 50 L 833.8 60" />
        <path d="M 850.4 50 L 850.4 60" />
        <path d="M 867 50 L 867 60" />
        <path d="M 883.6 50 L 883.6 60" />
        <path d="M 900.2 50 L 900.2 60" />
        <path d="M 916.8 50 L 916.8 60" />
        <path d="M 933.4 50 L 933.4 60" />
        <path d="M 950 50 L 950 70" />
    </g>
    <g id="frame_0_rightticks">
        <path d="M 950 564.005 L 940 564.005" />
        <path d="M 950 386.008 L 940 386.008" />
        <path d="M 950 319.259 L 940 319.259" />
        <path d="M 950 452.757 L 940 452.757" />
        <path d="M 950 163.511 L 940 163.511" />
        <path d="M 950 341.509 L 940 341.509" />
        <path d="M 950 764.252 L 940 764.252" />
        <path d="M 950 808.752 L 930 808.752" />
        <path d="M 950 230.26 L 940 230.26" />
        <path d="M 950 920 L 930 920" />
        <path d="M 950 697.503 L 930 697.503" />
        <path d="M 950 52.2628 L 940 52.2628" />
        <path d="M 950 831.001 L 940 831.001" />
        <path d="M 950 430.507 L 940 430.507" />
        <path d="M 950 719.753 L 940 719.753" />
        <path d="M 950 586.255 L 930 586.255" />
        <path d="M 950 119.012 L 940 119.012" />
        <path d="M 950 608.505 L 940 608.505" />
        <path d="M 950 274.76 L 940 274.76" />
        <path d="M 950 475.007 L 930 475.007" />
        <path d="M 950 497.256 L 940 497.256" />
        <path d="M 950 185.761 L 940 185.761" />
        <path d="M 950 742.003 L 940 742.003" />
        <path d="M 950 297.009 L 940 297.009" />
        <path d="M 950 363.758 L 930 363.758" />
        <path d="M 950 630.754 L 940 630.754" />
        <path d="M 950 74.5125 L 940 74.5125" />
        <path d="M 950 252.51 L 930 252.51" />
        <path d="M 950 519.506 L 940 519.506" />
        <path d="M 950 853.251 L 940 853.251" />
        <path d="M 950 408.258 L 940 408.258" />
        <path d="M 950 141.261 L 930 141.261" />
        <path d="M 950 653.004 L 940 653.004" />
        <path d="M 950 875.501 L 940 875.501" />
        <path d="M 950 897.75 L 940 897.75" />
        <path d="M 950 208.01 L 940 208.01" />
        <path d="M 950 786.502 L 940 786.502" />
        <path d="M 950 541.756 L 940 541.756" />
        <path d="M 950 675.254 L 940 675.254" />
        <path d="M 950 96.7621 L 940 96.7621" />
    </g>
</g>
</g>
</svg>
