<?xml version="1.0" standalone="no"?>
<!DOCTYPE svg PUBLIC "-//W3C//DTD SVG 1.1//EN" "http://www.w3.org/Graphics/SVG/1.1/DTD/svg11.dtd">
<svg style="stroke-linejoin:miter; stroke:black; stroke-width:2.5; text-anchor:middle; fill:none" xmlns="http://www.w3.org/2000/svg" font-family="Helvetica, Arial, FreeSans, Sans, sans, sans-serif" width="1000px" height="1000px" version="1.1" xmlns:xlink="http://www.w3.org/1999/xlink" viewBox="0 0 1000 1000">
<defs>
    <clipPath id="Histogram_0_clip">
        <rect x="120" y="50" width="830" height="870" />
    </clipPath>
</defs>
<g id="whole_document">
<rect id="background" x="0" y="0" width="1000" height="1000" stroke="none" fill="white" />
<g id="Histogram_0" clip-path="url(#Histogram_0_clip)">
    <path d="M 120 920 L 120 129.091 L 161.5 129.091 L 161.5 920 L 203 920 L 203 920 L 244.5 920 L 244.5 920 L 286 920 L 286 920 L 327.5 920 L 327.5 920 L 369 920 L 369 920 L 410.5 920 L 410.5 920 L 452 920 L 452 920 L 493.5 920 L 493.5 920 L 535 920 L 535 920 L 576.5 920 L 576.5 920 L 618 920 L 618 920 L 659.5 920 L 659.5 920 L 701 920 L 701 920 L 742.5 920 L 742.5 920 L 784 920 L 784 920 L 825.5 920 L 825.5 920 L 867 920 L 867 920 L 908.5 920 L 908.5 920 L 950 920 L 950 920" stroke-width="3" stroke-dasharray="" stroke="black" stroke-opacity="1" fill="DodgerBlue" fill-opacity="1" />
</g>
<g id="frame_0">
    <rect id="frame_0_border" x="120" y="50" width="830" height="870" />
    <text id="frame_0_bottomlabel" font-size="30" transform="translate(535, 989.6)" text-anchor="middle" dominant-baseline="middle" stroke="none" fill="black">microseconds</text>
    <g id="frame_0_bottomticks">
        <path d="M 120 920 L 120 900" />
        <text font-size="30" transform="translate(120, 950)" text-anchor="middle" dominant-baseline="middle" stroke="none" fill="black">0</text>
        <path d="M 136.6 920 L 136.6 910" />
        <path d="M 153.2 920 L 153.2 910" />
        <path d="M 169.8 920 L 169.8 910" />
        <path d="M 186.4 920 L 186.4 910" />
        <path d="M 203 920 L 203 910" />
        <path d="M 219.6 920 L 219.6 910" />
        <path d="M 236.2 920 L 236.2 910" />
        <path d="M 252.8 920 L 252.8 910" />
        <path d="M 269.4 920 L 269.4 910" />
        <path d="M 286 920 L 286 900" />
        <text font-size="30" transform="translate(286, 950)" text-anchor="middle" dominant-baseline="middle" stroke="none" fill="black">10</text>
        <path d="M 302.6 920 L 302.6 910" />
        <path d="M 319.2 920 L 319.2 910" />
        <path d="M 335.8 920 L 335.8 910" />
        <path d="M 352.4 920 L 352.4 910" />
        <path d="M 369 920 L 369 910" />
        <path d="M 385.6 920 L 385.6 910" />
        <path d="M 402.2 920 L 402.2 910" />
        <path d="M 418.8 920 L 418.8 910" />
        <path d="M 435.4 920 L 435.4 910" />
        <path d="M 452 920 L 452 900" />
        <text font-size="30" transform="translate(452, 950)" text-anchor="middle" dominant-baseline="middle" stroke="none" fill="black">20</text>
        <path d="M 468.6 920 L 468.6 910" />
        <path d="M 485.2 920 L 485.2 910" />
        <path d="M 501.8 920 L 501.8 910" />
        <path d="M 518.4 920 L 518.4 910" />
        <path d="M 535 920 L 535 910" />
        <path d="M 551.6 920 L 551.6 910" />
        <path d="M 568.2 920 L 568.2 910" />
        <path d="M 584.8 920 L 584.8 910" />
        <path d="M 601.4 920 L 601.4 910" />
        <path d="M 618 920 L 618 900" />
        <text font-size="30" transform="translate(618, 950)" text-anchor="middle" dominant-baseline="middle" stroke="none" fill="black">30</text>
        <path d="M 634.6 920 L 634.6 910" />
        <path d="M 651.2 920 L 651.2 910" />
        <path d="M 667.8 920 L 667.8 910" />
        <path d="M 684.4 920 L 684.4 910" />
        <path d="M 701 920 L 701 910" />
        <path d="M 717.6 920 L 717.6 910" />
        <path d="M 734.2 920 L 734.2 910" />
        <path d="M 750.8 920 L 750.8 910" />
        <path d="M 767.4 920 L 767.4 910" />
        <path d="M 784 920 L 784 900" />
        <text font-size="30" transform="translate(784, 950)" text-anchor="middle" dominant-baseline="middle" stroke="none" fill="black">40</text>
        <path d="M 800.6 920 L 800.6 910" />
        <path d="M 817.2 920 L 817.2 910" />
        <path d="M 833.8 920 L 833.8 910" />
        <path d="M 850.4 920 L 850.4 910" />
        <path d="M 867 920 L 867 910" />
        <path d="M 883.6 920 L 883.6 910" />
        <path d="M 900.2 920 L 900.2 910" />
        <path d="M 916.8 920 L 916.8 910" />
        <path d="M 933.4 920 L 933.4 910" />
        <path d="M 950 920 L 950 900" />
        <text font-size="30" transform="translate(950, 950)" text-anchor="middle" dominant-baseline="middle" stroke="none" fill="black">50</text>
    </g>
    <g id="frame_0_leftticks">
        <path d="M 120 762.321 L 130 762.321" />
        <path d="M 120 52.7676 L 130 52.7676" />
        <path d="M 120 920 L 140 920" />
        <text font-size="30" transform="translate(110, 930)" text-anchor="end" dominant-baseline="middle" stroke="none" fill="black">0</text>
        <path d="M 120 910.145 L 130 910.145" />
        <path d="M 120 604.643 L 130 604.643" />
        <path d="M 120 190.736 L 130 190.736" />
        <path d="M 120 111.897 L 130 111.897" />
        <path d="M 120 811.596 L 130 811.596" />
        <path d="M 120 496.239 L 130 496.239" />
        <path d="M 120 289.285 L 130 289.285" />
        <path d="M 120 82.3323 L 130 82.3323" />
        <path d="M 120 594.788 L 130 594.788" />
        <path d="M 120 890.435 L 130 890.435" />
        <path d="M 120 180.881 L 130 180.881" />
        <path d="M 120 900.29 L 130 900.29" />
        <path d="M 120 693.337 L 130 693.337" />
        <path d="M 120 555.368 L 130 555.368" />
        <path d="M 120 486.384 L 130 486.384" />
        <path d="M 120 279.431 L 130 279.431" />
        <path d="M 120 92.1872 L 130 92.1872" />
        <path d="M 120 387.835 L 130 387.835" />
        <path d="M 120 535.658 L 130 535.658" />
        <path d="M 120 791.886 L 130 791.886" />
        <path d="M 120 584.933 L 130 584.933" />
        <path d="M 120 377.98 L 130 377.98" />
        <path d="M 120 171.027 L 130 171.027" />
        <path d="M 120 713.047 L 130 713.047" />
        <path d="M 120 683.482 L 130 683.482" />
        <path d="M 120 476.529 L 130 476.529" />
        <path d="M 120 269.576 L 130 269.576" />
        <path d="M 120 782.031 L 130 782.031" />
        <path d="M 120 575.078 L 130 575.078" />
        <path d="M 120 545.513 L 130 545.513" />
        <path d="M 120 831.306 L 130 831.306" />
        <path d="M 120 368.125 L 130 368.125" />
        <path d="M 120 161.172 L 130 161.172" />
        <path d="M 120 880.58 L 130 880.58" />
        <path d="M 120 673.627 L 130 673.627" />
        <path d="M 120 466.674 L 130 466.674" />
        <path d="M 120 259.721 L 130 259.721" />
        <path d="M 120 62.6225 L 130 62.6225" />
        <path d="M 120 722.902 L 140 722.902" />
        <text font-size="30" transform="translate(110, 732.902)" text-anchor="end" dominant-baseline="middle" stroke="none" fill="black">200000</text>
        <path d="M 120 772.176 L 130 772.176" />
        <path d="M 120 565.223 L 130 565.223" />
        <path d="M 120 358.27 L 130 358.27" />
        <path d="M 120 703.192 L 130 703.192" />
        <path d="M 120 841.161 L 130 841.161" />
        <path d="M 120 644.062 L 130 644.062" />
        <path d="M 120 249.866 L 130 249.866" />
        <path d="M 120 72.4774 L 130 72.4774" />
        <path d="M 120 200.591 L 130 200.591" />
        <path d="M 120 348.415 L 130 348.415" />
        <path d="M 120 141.462 L 130 141.462" />
        <path d="M 120 860.871 L 130 860.871" />
        <path d="M 120 446.964 L 130 446.964" />
        <path d="M 120 663.772 L 130 663.772" />
        <path d="M 120 299.14 L 130 299.14" />
        <path d="M 120 752.466 L 130 752.466" />
        <path d="M 120 338.56 L 130 338.56" />
        <path d="M 120 131.607 L 140 131.607" />
        <text font-size="30" transform="translate(110, 141.607)" text-anchor="end" dominant-baseline="middle" stroke="none" fill="black">800000</text>
        <path d="M 120 653.917 L 130 653.917" />
        <path d="M 120 870.725 L 130 870.725" />
        <path d="M 120 437.109 L 130 437.109" />
        <path d="M 120 230.156 L 140 230.156" />
        <text font-size="30" transform="translate(110, 240.156)" text-anchor="end" dominant-baseline="middle" stroke="none" fill="black">700000</text>
        <path d="M 120 851.016 L 130 851.016" />
        <path d="M 120 742.612 L 130 742.612" />
        <path d="M 120 801.741 L 130 801.741" />
        <path d="M 120 506.094 L 130 506.094" />
        <path d="M 120 240.011 L 130 240.011" />
        <path d="M 120 328.705 L 140 328.705" />
        <text font-size="30" transform="translate(110, 338.705)" text-anchor="end" dominant-baseline="middle" stroke="none" fill="black">600000</text>
        <path d="M 120 121.752 L 130 121.752" />
        <path d="M 120 427.254 L 140 427.254" />
        <text font-size="30" transform="translate(110, 437.254)" text-anchor="end" dominant-baseline="middle" stroke="none" fill="black">500000</text>
        <path d="M 120 634.207 L 130 634.207" />
        <path d="M 120 220.301 L 130 220.301" />
        <path d="M 120 732.757 L 130 732.757" />
        <path d="M 120 525.803 L 140 525.803" />
        <text font-size="30" transform="translate(110, 535.803)" text-anchor="end" dominant-baseline="middle" stroke="none" fill="black">400000</text>
        <path d="M 120 318.85 L 130 318.85" />
        <path d="M 120 151.317 L 130 151.317" />
        <path d="M 120 397.69 L 130 397.69" />
        <path d="M 120 624.353 L 140 624.353" />
        <text font-size="30" transform="translate(110, 634.353)" text-anchor="end" dominant-baseline="middle" stroke="none" fill="black">300000</text>
        <path d="M 120 417.399 L 130 417.399" />
        <path d="M 120 210.446 L 130 210.446" />
        <path d="M 120 456.819 L 130 456.819" />
        <path d="M 120 515.949 L 130 515.949" />
        <path d="M 120 308.995 L 130 308.995" />
        <path d="M 120 102.042 L 130 102.042" />
        <path d="M 120 821.451 L 140 821.451" />
        <text font-size="30" transform="translate(110, 831.451)" text-anchor="end" dominant-baseline="middle" stroke="none" fill="black">100000</text>
        <path d="M 120 407.544 L 130 407.544" />
        <path d="M 120 614.498 L 130 614.498" />
    </g>
    <text id="frame_0_toplabel" font-size="30" transform="translate(535, 32.6)" text-anchor="middle" dominant-baseline="middle" stroke="none" fill="black">m.copysign</text>
    <g id="frame_0_topticks">
        <path d="M 120 50 L 120 70" />
        <path d="M 136.6 50 L 136.6 60" />
        <path d="M 153.2 50 L 153.2 60" />
        <path d="M 169.8 50 L 169.8 60" />
        <path d="M 186.4 50 L 186.4 60" />
        <path d="M 203 50 L 203 60" />
        <path d="M 219.6 50 L 219.6 60" />
        <path d="M 236.2 50 L 236.2 60" />
        <path d="M 252.8 50 L 252.8 60" />
        <path d="M 269.4 50 L 269.4 60" />
        <path d="M 286 50 L 286 70" />
        <path d="M 302.6 50 L 302.6 60" />
        <path d="M 319.2 50 L 319.2 60" />
        <path d="M 335.8 50 L 335.8 60" />
        <path d="M 352.4 50 L 352.4 60" />
        <path d="M 369 50 L 369 60" />
        <path d="M 385.6 50 L 385.6 60" />
        <path d="M 402.2 50 L 402.2 60" />
        <path d="M 418.8 50 L 418.8 60" />
        <path d="M 435.4 50 L 435.4 60" />
        <path d="M 452 50 L 452 70" />
        <path d="M 468.6 50 L 468.6 60" />
        <path d="M 485.2 50 L 485.2 60" />
        <path d="M 501.8 50 L 501.8 60" />
        <path d="M 518.4 50 L 518.4 60" />
        <path d="M 535 50 L 535 60" />
        <path d="M 551.6 50 L 551.6 60" />
        <path d="M 568.2 50 L 568.2 60" />
        <path d="M 584.8 50 L 584.8 60" />
        <path d="M 601.4 50 L 601.4 60" />
        <path d="M 618 50 L 618 70" />
        <path d="M 634.6 50 L 634.6 60" />
        <path d="M 651.2 50 L 651.2 60" />
        <path d="M 667.8 50 L 667.8 60" />
        <path d="M 684.4 50 L 684.4 60" />
        <path d="M 701 50 L 701 60" />
        <path d="M 717.6 50 L 717.6 60" />
        <path d="M 734.2 50 L 734.2 60" />
        <path d="M 750.8 50 L 750.8 60" />
        <path d="M 767.4 50 L 767.4 60" />
        <path d="M 784 50 L 784 70" />
        <path d="M 800.6 50 L 800.6 60" />
        <path d="M 817.2 50 L 817.2 60" />
        <path d="M 833.8 50 L 833.8 60" />
        <path d="M 850.4 50 L 850.4 60" />
        <path d="M 867 50 L 867 60" />
        <path d="M 883.6 50 L 883.6 60" />
        <path d="M 900.2 50 L 900.2 60" />
        <path d="M 916.8 50 L 916.8 60" />
        <path d="M 933.4 50 L 933.4 60" />
        <path d="M 950 50 L 950 70" />
    </g>
    <g id="frame_0_rightticks">
        <path d="M 950 762.321 L 940 762.321" />
        <path d="M 950 52.7676 L 940 52.7676" />
        <path d="M 950 920 L 930 920" />
        <path d="M 950 910.145 L 940 910.145" />
        <path d="M 950 604.643 L 940 604.643" />
        <path d="M 950 190.736 L 940 190.736" />
        <path d="M 950 111.897 L 940 111.897" />
        <path d="M 950 811.596 L 940 811.596" />
        <path d="M 950 496.239 L 940 496.239" />
        <path d="M 950 289.285 L 940 289.285" />
        <path d="M 950 82.3323 L 940 82.3323" />
        <path d="M 950 594.788 L 940 594.788" />
        <path d="M 950 890.435 L 940 890.435" />
        <path d="M 950 180.881 L 940 180.881" />
        <path d="M 950 900.29 L 940 900.29" />
        <path d="M 950 693.337 L 940 693.337" />
        <path d="M 950 555.368 L 940 555.368" />
        <path d="M 950 486.384 L 940 486.384" />
        <path d="M 950 279.431 L 940 279.431" />
        <path d="M 950 92.1872 L 940 92.1872" />
        <path d="M 950 387.835 L 940 387.835" />
        <path d="M 950 535.658 L 940 535.658" />
        <path d="M 950 791.886 L 940 791.886" />
        <path d="M 950 584.933 L 940 584.933" />
        <path d="M 950 377.98 L 940 377.98" />
        <path d="M 950 171.027 L 940 171.027" />
        <path d="M 950 713.047 L 940 713.047" />
        <path d="M 950 683.482 L 940 683.482" />
        <path d="M 950 476.529 L 940 476.529" />
        <path d="M 950 269.576 L 940 269.576" />
        <path d="M 950 782.031 L 940 782.031" />
        <path d="M 950 575.078 L 940 575.078" />
        <path d="M 950 545.513 L 940 545.513" />
        <path d="M 950 831.306 L 940 831.306" />
        <path d="M 950 368.125 L 940 368.125" />
        <path d="M 950 161.172 L 940 161.172" />
        <path d="M 950 880.58 L 940 880.58" />
        <path d="M 950 673.627 L 940 673.627" />
        <path d="M 950 466.674 L 940 466.674" />
        <path d="M 950 259.721 L 940 259.721" />
        <path d="M 950 62.6225 L 940 62.6225" />
        <path d="M 950 722.902 L 930 722.902" />
        <path d="M 950 772.176 L 940 772.176" />
        <path d="M 950 565.223 L 940 565.223" />
        <path d="M 950 358.27 L 940 358.27" />
        <path d="M 950 703.192 L 940 703.192" />
        <path d="M 950 841.161 L 940 841.161" />
        <path d="M 950 644.062 L 940 644.062" />
        <path d="M 950 249.866 L 940 249.866" />
        <path d="M 950 72.4774 L 940 72.4774" />
        <path d="M 950 200.591 L 940 200.591" />
        <path d="M 950 348.415 L 940 348.415" />
        <path d="M 950 141.462 L 940 141.462" />
        <path d="M 950 860.871 L 940 860.871" />
        <path d="M 950 446.964 L 940 446.964" />
        <path d="M 950 663.772 L 940 663.772" />
        <path d="M 950 299.14 L 940 299.14" />
        <path d="M 950 752.466 L 940 752.466" />
        <path d="M 950 338.56 L 940 338.56" />
        <path d="M 950 131.607 L 930 131.607" />
        <path d="M 950 653.917 L 940 653.917" />
        <path d="M 950 870.725 L 940 870.725" />
        <path d="M 950 437.109 L 940 437.109" />
        <path d="M 950 230.156 L 930 230.156" />
        <path d="M 950 851.016 L 940 851.016" />
        <path d="M 950 742.612 L 940 742.612" />
        <path d="M 950 801.741 L 940 801.741" />
        <path d="M 950 506.094 L 940 506.094" />
        <path d="M 950 240.011 L 940 240.011" />
        <path d="M 950 328.705 L 930 328.705" />
        <path d="M 950 121.752 L 940 121.752" />
        <path d="M 950 427.254 L 930 427.254" />
        <path d="M 950 634.207 L 940 634.207" />
        <path d="M 950 220.301 L 940 220.301" />
        <path d="M 950 732.757 L 940 732.757" />
        <path d="M 950 525.803 L 930 525.803" />
        <path d="M 950 318.85 L 940 318.85" />
        <path d="M 950 151.317 L 940 151.317" />
        <path d="M 950 397.69 L 940 397.69" />
        <path d="M 950 624.353 L 930 624.353" />
        <path d="M 950 417.399 L 940 417.399" />
        <path d="M 950 210.446 L 940 210.446" />
        <path d="M 950 456.819 L 940 456.819" />
        <path d="M 950 515.949 L 940 515.949" />
        <path d="M 950 308.995 L 940 308.995" />
        <path d="M 950 102.042 L 940 102.042" />
        <path d="M 950 821.451 L 930 821.451" />
        <path d="M 950 407.544 L 940 407.544" />
        <path d="M 950 614.498 L 940 614.498" />
    </g>
</g>
</g>
</svg>
