<?xml version="1.0" standalone="no"?>
<!DOCTYPE svg PUBLIC "-//W3C//DTD SVG 1.1//EN" "http://www.w3.org/Graphics/SVG/1.1/DTD/svg11.dtd">
<svg style="stroke-linejoin:miter; stroke:black; stroke-width:2.5; text-anchor:middle; fill:none" xmlns="http://www.w3.org/2000/svg" font-family="Helvetica, Arial, FreeSans, Sans, sans, sans-serif" width="1000px" height="1000px" version="1.1" xmlns:xlink="http://www.w3.org/1999/xlink" viewBox="0 0 1000 1000">
<defs>
    <clipPath id="Histogram_0_clip">
        <rect x="120" y="50" width="830" height="870" />
    </clipPath>
</defs>
<g id="whole_document">
<rect id="background" x="0" y="0" width="1000" height="1000" stroke="none" fill="white" />
<g id="Histogram_0" clip-path="url(#Histogram_0_clip)">
    <path d="M 120 920 L 120 129.091 L 161.5 129.091 L 161.5 880.806 L 203 880.806 L 203 890.014 L 244.5 890.014 L 244.5 920 L 286 920 L 286 920 L 327.5 920 L 327.5 920 L 369 920 L 369 920 L 410.5 920 L 410.5 920 L 452 920 L 452 920 L 493.5 920 L 493.5 920 L 535 920 L 535 920 L 576.5 920 L 576.5 920 L 618 920 L 618 920 L 659.5 920 L 659.5 920 L 701 920 L 701 920 L 742.5 920 L 742.5 920 L 784 920 L 784 920 L 825.5 920 L 825.5 920 L 867 920 L 867 920 L 908.5 920 L 908.5 920 L 950 920 L 950 920" stroke-width="3" stroke-dasharray="" stroke="black" stroke-opacity="1" fill="DodgerBlue" fill-opacity="1" />
</g>
<g id="frame_0">
    <rect id="frame_0_border" x="120" y="50" width="830" height="870" />
    <text id="frame_0_bottomlabel" font-size="30" transform="translate(535, 989.6)" text-anchor="middle" dominant-baseline="middle" stroke="none" fill="black">microseconds</text>
    <g id="frame_0_bottomticks">
        <path d="M 120 920 L 120 900" />
        <text font-size="30" transform="translate(120, 950)" text-anchor="middle" dominant-baseline="middle" stroke="none" fill="black">0</text>
        <path d="M 136.6 920 L 136.6 910" />
        <path d="M 153.2 920 L 153.2 910" />
        <path d="M 169.8 920 L 169.8 910" />
        <path d="M 186.4 920 L 186.4 910" />
        <path d="M 203 920 L 203 910" />
        <path d="M 219.6 920 L 219.6 910" />
        <path d="M 236.2 920 L 236.2 910" />
        <path d="M 252.8 920 L 252.8 910" />
        <path d="M 269.4 920 L 269.4 910" />
        <path d="M 286 920 L 286 900" />
        <text font-size="30" transform="translate(286, 950)" text-anchor="middle" dominant-baseline="middle" stroke="none" fill="black">10</text>
        <path d="M 302.6 920 L 302.6 910" />
        <path d="M 319.2 920 L 319.2 910" />
        <path d="M 335.8 920 L 335.8 910" />
        <path d="M 352.4 920 L 352.4 910" />
        <path d="M 369 920 L 369 910" />
        <path d="M 385.6 920 L 385.6 910" />
        <path d="M 402.2 920 L 402.2 910" />
        <path d="M 418.8 920 L 418.8 910" />
        <path d="M 435.4 920 L 435.4 910" />
        <path d="M 452 920 L 452 900" />
        <text font-size="30" transform="translate(452, 950)" text-anchor="middle" dominant-baseline="middle" stroke="none" fill="black">20</text>
        <path d="M 468.6 920 L 468.6 910" />
        <path d="M 485.2 920 L 485.2 910" />
        <path d="M 501.8 920 L 501.8 910" />
        <path d="M 518.4 920 L 518.4 910" />
        <path d="M 535 920 L 535 910" />
        <path d="M 551.6 920 L 551.6 910" />
        <path d="M 568.2 920 L 568.2 910" />
        <path d="M 584.8 920 L 584.8 910" />
        <path d="M 601.4 920 L 601.4 910" />
        <path d="M 618 920 L 618 900" />
        <text font-size="30" transform="translate(618, 950)" text-anchor="middle" dominant-baseline="middle" stroke="none" fill="black">30</text>
        <path d="M 634.6 920 L 634.6 910" />
        <path d="M 651.2 920 L 651.2 910" />
        <path d="M 667.8 920 L 667.8 910" />
        <path d="M 684.4 920 L 684.4 910" />
        <path d="M 701 920 L 701 910" />
        <path d="M 717.6 920 L 717.6 910" />
        <path d="M 734.2 920 L 734.2 910" />
        <path d="M 750.8 920 L 750.8 910" />
        <path d="M 767.4 920 L 767.4 910" />
        <path d="M 784 920 L 784 900" />
        <text font-size="30" transform="translate(784, 950)" text-anchor="middle" dominant-baseline="middle" stroke="none" fill="black">40</text>
        <path d="M 800.6 920 L 800.6 910" />
        <path d="M 817.2 920 L 817.2 910" />
        <path d="M 833.8 920 L 833.8 910" />
        <path d="M 850.4 920 L 850.4 910" />
        <path d="M 867 920 L 867 910" />
        <path d="M 883.6 920 L 883.6 910" />
        <path d="M 900.2 920 L 900.2 910" />
        <path d="M 916.8 920 L 916.8 910" />
        <path d="M 933.4 920 L 933.4 910" />
        <path d="M 950 920 L 950 900" />
        <text font-size="30" transform="translate(950, 950)" text-anchor="middle" dominant-baseline="middle" stroke="none" fill="black">50</text>
    </g>
    <g id="frame_0_leftticks">
        <path d="M 120 648.175 L 130 648.175" />
        <path d="M 120 512.262 L 130 512.262" />
        <path d="M 120 461.295 L 130 461.295" />
        <path d="M 120 563.23 L 130 563.23" />
        <path d="M 120 342.372 L 130 342.372" />
        <path d="M 120 478.284 L 130 478.284" />
        <path d="M 120 801.077 L 130 801.077" />
        <path d="M 120 121.514 L 130 121.514" />
        <path d="M 120 665.164 L 130 665.164" />
        <path d="M 120 920 L 140 920" />
        <text font-size="30" transform="translate(110, 930)" text-anchor="end" dominant-baseline="middle" stroke="none" fill="black">0</text>
        <path d="M 120 427.317 L 130 427.317" />
        <path d="M 120 393.339 L 130 393.339" />
        <path d="M 120 257.426 L 130 257.426" />
        <path d="M 120 852.044 L 130 852.044" />
        <path d="M 120 546.24 L 130 546.24" />
        <path d="M 120 172.481 L 130 172.481" />
        <path d="M 120 750.109 L 140 750.109" />
        <text font-size="30" transform="translate(110, 760.109)" text-anchor="end" dominant-baseline="middle" stroke="none" fill="black">10000</text>
        <path d="M 120 580.219 L 140 580.219" />
        <text font-size="30" transform="translate(110, 590.219)" text-anchor="end" dominant-baseline="middle" stroke="none" fill="black">20000</text>
        <path d="M 120 767.098 L 130 767.098" />
        <path d="M 120 410.328 L 140 410.328" />
        <text font-size="30" transform="translate(110, 420.328)" text-anchor="end" dominant-baseline="middle" stroke="none" fill="black">30000</text>
        <path d="M 120 308.394 L 130 308.394" />
        <path d="M 120 682.153 L 130 682.153" />
        <path d="M 120 835.055 L 130 835.055" />
        <path d="M 120 223.448 L 130 223.448" />
        <path d="M 120 597.208 L 130 597.208" />
        <path d="M 120 87.5356 L 130 87.5356" />
        <path d="M 120 359.361 L 130 359.361" />
        <path d="M 120 784.087 L 130 784.087" />
        <path d="M 120 444.306 L 130 444.306" />
        <path d="M 120 495.273 L 130 495.273" />
        <path d="M 120 699.142 L 130 699.142" />
        <path d="M 120 274.415 L 130 274.415" />
        <path d="M 120 53.5575 L 130 53.5575" />
        <path d="M 120 886.022 L 130 886.022" />
        <path d="M 120 869.033 L 130 869.033" />
        <path d="M 120 189.47 L 130 189.47" />
        <path d="M 120 529.251 L 130 529.251" />
        <path d="M 120 325.383 L 130 325.383" />
        <path d="M 120 716.131 L 130 716.131" />
        <path d="M 120 614.197 L 130 614.197" />
        <path d="M 120 104.525 L 130 104.525" />
        <path d="M 120 903.011 L 130 903.011" />
        <path d="M 120 206.459 L 130 206.459" />
        <path d="M 120 376.35 L 130 376.35" />
        <path d="M 120 818.066 L 130 818.066" />
        <path d="M 120 631.186 L 130 631.186" />
        <path d="M 120 240.437 L 140 240.437" />
        <text font-size="30" transform="translate(110, 250.437)" text-anchor="end" dominant-baseline="middle" stroke="none" fill="black">40000</text>
        <path d="M 120 155.492 L 130 155.492" />
        <path d="M 120 70.5466 L 140 70.5466" />
        <text font-size="30" transform="translate(110, 80.5466)" text-anchor="end" dominant-baseline="middle" stroke="none" fill="black">50000</text>
        <path d="M 120 733.12 L 130 733.12" />
        <path d="M 120 291.404 L 130 291.404" />
        <path d="M 120 138.503 L 130 138.503" />
    </g>
    <text id="frame_0_toplabel" font-size="30" transform="translate(535, 32.6)" text-anchor="middle" dominant-baseline="middle" stroke="none" fill="black">m.link.tanh</text>
    <g id="frame_0_topticks">
        <path d="M 120 50 L 120 70" />
        <path d="M 136.6 50 L 136.6 60" />
        <path d="M 153.2 50 L 153.2 60" />
        <path d="M 169.8 50 L 169.8 60" />
        <path d="M 186.4 50 L 186.4 60" />
        <path d="M 203 50 L 203 60" />
        <path d="M 219.6 50 L 219.6 60" />
        <path d="M 236.2 50 L 236.2 60" />
        <path d="M 252.8 50 L 252.8 60" />
        <path d="M 269.4 50 L 269.4 60" />
        <path d="M 286 50 L 286 70" />
        <path d="M 302.6 50 L 302.6 60" />
        <path d="M 319.2 50 L 319.2 60" />
        <path d="M 335.8 50 L 335.8 60" />
        <path d="M 352.4 50 L 352.4 60" />
        <path d="M 369 50 L 369 60" />
        <path d="M 385.6 50 L 385.6 60" />
        <path d="M 402.2 50 L 402.2 60" />
        <path d="M 418.8 50 L 418.8 60" />
        <path d="M 435.4 50 L 435.4 60" />
        <path d="M 452 50 L 452 70" />
        <path d="M 468.6 50 L 468.6 60" />
        <path d="M 485.2 50 L 485.2 60" />
        <path d="M 501.8 50 L 501.8 60" />
        <path d="M 518.4 50 L 518.4 60" />
        <path d="M 535 50 L 535 60" />
        <path d="M 551.6 50 L 551.6 60" />
        <path d="M 568.2 50 L 568.2 60" />
        <path d="M 584.8 50 L 584.8 60" />
        <path d="M 601.4 50 L 601.4 60" />
        <path d="M 618 50 L 618 70" />
        <path d="M 634.6 50 L 634.6 60" />
        <path d="M 651.2 50 L 651.2 60" />
        <path d="M 667.8 50 L 667.8 60" />
        <path d="M 684.4 50 L 684.4 60" />
        <path d="M 701 50 L 701 60" />
        <path d="M 717.6 50 L 717.6 60" />
        <path d="M 734.2 50 L 734.2 60" />
        <path d="M 750.8 50 L 750.8 60" />
        <path d="M 767.4 50 L 767.4 60" />
        <path d="M 784 50 L 784 70" />
        <path d="M 800.6 50 L 800.6 60" />
        <path d="M 817.2 50 L 817.2 60" />
        <path d="M 833.8 50 L 833.8 60" />
        <path d="M 850.4 50 L 850.4 60" />
        <path d="M 867 50 L 867 60" />
        <path d="M 883.6 50 L 883.6 60" />
        <path d="M 900.2 50 L 900.2 60" />
        <path d="M 916.8 50 L 916.8 60" />
        <path d="M 933.4 50 L 933.4 60" />
        <path d="M 950 50 L 950 70" />
    </g>
    <g id="frame_0_rightticks">
        <path d="M 950 648.175 L 940 648.175" />
        <path d="M 950 512.262 L 940 512.262" />
        <path d="M 950 461.295 L 940 461.295" />
        <path d="M 950 563.23 L 940 563.23" />
        <path d="M 950 342.372 L 940 342.372" />
        <path d="M 950 478.284 L 940 478.284" />
        <path d="M 950 801.077 L 940 801.077" />
        <path d="M 950 121.514 L 940 121.514" />
        <path d="M 950 665.164 L 940 665.164" />
        <path d="M 950 920 L 930 920" />
        <path d="M 950 427.317 L 940 427.317" />
        <path d="M 950 393.339 L 940 393.339" />
        <path d="M 950 257.426 L 940 257.426" />
        <path d="M 950 852.044 L 940 852.044" />
        <path d="M 950 546.24 L 940 546.24" />
        <path d="M 950 172.481 L 940 172.481" />
        <path d="M 950 750.109 L 930 750.109" />
        <path d="M 950 580.219 L 930 580.219" />
        <path d="M 950 767.098 L 940 767.098" />
        <path d="M 950 410.328 L 930 410.328" />
        <path d="M 950 308.394 L 940 308.394" />
        <path d="M 950 682.153 L 940 682.153" />
        <path d="M 950 835.055 L 940 835.055" />
        <path d="M 950 223.448 L 940 223.448" />
        <path d="M 950 597.208 L 940 597.208" />
        <path d="M 950 87.5356 L 940 87.5356" />
        <path d="M 950 359.361 L 940 359.361" />
        <path d="M 950 784.087 L 940 784.087" />
        <path d="M 950 444.306 L 940 444.306" />
        <path d="M 950 495.273 L 940 495.273" />
        <path d="M 950 699.142 L 940 699.142" />
        <path d="M 950 274.415 L 940 274.415" />
        <path d="M 950 53.5575 L 940 53.5575" />
        <path d="M 950 886.022 L 940 886.022" />
        <path d="M 950 869.033 L 940 869.033" />
        <path d="M 950 189.47 L 940 189.47" />
        <path d="M 950 529.251 L 940 529.251" />
        <path d="M 950 325.383 L 940 325.383" />
        <path d="M 950 716.131 L 940 716.131" />
        <path d="M 950 614.197 L 940 614.197" />
        <path d="M 950 104.525 L 940 104.525" />
        <path d="M 950 903.011 L 940 903.011" />
        <path d="M 950 206.459 L 940 206.459" />
        <path d="M 950 376.35 L 940 376.35" />
        <path d="M 950 818.066 L 940 818.066" />
        <path d="M 950 631.186 L 940 631.186" />
        <path d="M 950 240.437 L 930 240.437" />
        <path d="M 950 155.492 L 940 155.492" />
        <path d="M 950 70.5466 L 930 70.5466" />
        <path d="M 950 733.12 L 940 733.12" />
        <path d="M 950 291.404 L 940 291.404" />
        <path d="M 950 138.503 L 940 138.503" />
    </g>
</g>
</g>
</svg>
