<?xml version="1.0" standalone="no"?>
<!DOCTYPE svg PUBLIC "-//W3C//DTD SVG 1.1//EN" "http://www.w3.org/Graphics/SVG/1.1/DTD/svg11.dtd">
<svg style="stroke-linejoin:miter; stroke:black; stroke-width:2.5; text-anchor:middle; fill:none" xmlns="http://www.w3.org/2000/svg" font-family="Helvetica, Arial, FreeSans, Sans, sans, sans-serif" width="1000px" height="1000px" version="1.1" xmlns:xlink="http://www.w3.org/1999/xlink" viewBox="0 0 1000 1000">
<defs>
    <clipPath id="Histogram_0_clip">
        <rect x="120" y="50" width="830" height="870" />
    </clipPath>
    <clipPath id="Histogram_1_clip">
        <rect x="120" y="50" width="830" height="870" />
    </clipPath>
</defs>
<g id="whole_document">
<rect id="background" x="0" y="0" width="1000" height="1000" stroke="none" fill="white" />
<g id="Histogram_0" clip-path="url(#Histogram_0_clip)">
    <path d="M 120 920 L 120 129.091 L 161.5 129.091 L 161.5 920 L 203 920 L 203 914.708 L 244.5 914.708 L 244.5 920 L 286 920 L 286 920 L 327.5 920 L 327.5 920 L 369 920 L 369 920 L 410.5 920 L 410.5 920 L 452 920 L 452 920 L 493.5 920 L 493.5 920 L 535 920 L 535 920 L 576.5 920 L 576.5 920 L 618 920 L 618 920 L 659.5 920 L 659.5 920 L 701 920 L 701 920 L 742.5 920 L 742.5 920 L 784 920 L 784 920 L 825.5 920 L 825.5 920 L 867 920 L 867 920 L 908.5 920 L 908.5 920 L 950 920 L 950 920" stroke-width="3" stroke-dasharray="" stroke="black" stroke-opacity="1" fill="DodgerBlue" fill-opacity="1" />
</g>
<g id="Histogram_1" clip-path="url(#Histogram_1_clip)">
    <path d="M 120 920 L 120 920 L 161.5 920 L 161.5 920 L 203 920 L 203 914.708 L 244.5 914.708 L 244.5 920 L 286 920 L 286 920 L 327.5 920 L 327.5 920 L 369 920 L 369 920 L 410.5 920 L 410.5 920 L 452 920 L 452 920 L 493.5 920 L 493.5 920 L 535 920 L 535 920 L 576.5 920 L 576.5 920 L 618 920 L 618 920 L 659.5 920 L 659.5 920 L 701 920 L 701 920 L 742.5 920 L 742.5 920 L 784 920 L 784 920 L 825.5 920 L 825.5 920 L 867 920 L 867 920 L 908.5 920 L 908.5 920 L 950 920 L 950 920" stroke-width="3" stroke-dasharray="" stroke="black" stroke-opacity="1" fill="darkorange" fill-opacity="1" />
</g>
<g id="frame_0">
    <rect id="frame_0_border" x="120" y="50" width="830" height="870" />
    <text id="frame_0_bottomlabel" font-size="30" transform="translate(535, 989.6)" text-anchor="middle" dominant-baseline="middle" stroke="none" fill="black">microseconds</text>
    <g id="frame_0_bottomticks">
        <path d="M 120 920 L 120 900" />
        <text font-size="30" transform="translate(120, 950)" text-anchor="middle" dominant-baseline="middle" stroke="none" fill="black">0</text>
        <path d="M 136.6 920 L 136.6 910" />
        <path d="M 153.2 920 L 153.2 910" />
        <path d="M 169.8 920 L 169.8 910" />
        <path d="M 186.4 920 L 186.4 910" />
        <path d="M 203 920 L 203 910" />
        <path d="M 219.6 920 L 219.6 910" />
        <path d="M 236.2 920 L 236.2 910" />
        <path d="M 252.8 920 L 252.8 910" />
        <path d="M 269.4 920 L 269.4 910" />
        <path d="M 286 920 L 286 900" />
        <text font-size="30" transform="translate(286, 950)" text-anchor="middle" dominant-baseline="middle" stroke="none" fill="black">10</text>
        <path d="M 302.6 920 L 302.6 910" />
        <path d="M 319.2 920 L 319.2 910" />
        <path d="M 335.8 920 L 335.8 910" />
        <path d="M 352.4 920 L 352.4 910" />
        <path d="M 369 920 L 369 910" />
        <path d="M 385.6 920 L 385.6 910" />
        <path d="M 402.2 920 L 402.2 910" />
        <path d="M 418.8 920 L 418.8 910" />
        <path d="M 435.4 920 L 435.4 910" />
        <path d="M 452 920 L 452 900" />
        <text font-size="30" transform="translate(452, 950)" text-anchor="middle" dominant-baseline="middle" stroke="none" fill="black">20</text>
        <path d="M 468.6 920 L 468.6 910" />
        <path d="M 485.2 920 L 485.2 910" />
        <path d="M 501.8 920 L 501.8 910" />
        <path d="M 518.4 920 L 518.4 910" />
        <path d="M 535 920 L 535 910" />
        <path d="M 551.6 920 L 551.6 910" />
        <path d="M 568.2 920 L 568.2 910" />
        <path d="M 584.8 920 L 584.8 910" />
        <path d="M 601.4 920 L 601.4 910" />
        <path d="M 618 920 L 618 900" />
        <text font-size="30" transform="translate(618, 950)" text-anchor="middle" dominant-baseline="middle" stroke="none" fill="black">30</text>
        <path d="M 634.6 920 L 634.6 910" />
        <path d="M 651.2 920 L 651.2 910" />
        <path d="M 667.8 920 L 667.8 910" />
        <path d="M 684.4 920 L 684.4 910" />
        <path d="M 701 920 L 701 910" />
        <path d="M 717.6 920 L 717.6 910" />
        <path d="M 734.2 920 L 734.2 910" />
        <path d="M 750.8 920 L 750.8 910" />
        <path d="M 767.4 920 L 767.4 910" />
        <path d="M 784 920 L 784 900" />
        <text font-size="30" transform="translate(784, 950)" text-anchor="middle" dominant-baseline="middle" stroke="none" fill="black">40</text>
        <path d="M 800.6 920 L 800.6 910" />
        <path d="M 817.2 920 L 817.2 910" />
        <path d="M 833.8 920 L 833.8 910" />
        <path d="M 850.4 920 L 850.4 910" />
        <path d="M 867 920 L 867 910" />
        <path d="M 883.6 920 L 883.6 910" />
        <path d="M 900.2 920 L 900.2 910" />
        <path d="M 916.8 920 L 916.8 910" />
        <path d="M 933.4 920 L 933.4 910" />
        <path d="M 950 920 L 950 900" />
        <text font-size="30" transform="translate(950, 950)" text-anchor="middle" dominant-baseline="middle" stroke="none" fill="black">50</text>
    </g>
    <g id="frame_0_leftticks">
        <path d="M 120 625.995 L 130 625.995" />
        <path d="M 120 478.993 L 130 478.993" />
        <path d="M 120 423.867 L 130 423.867" />
        <path d="M 120 534.119 L 130 534.119" />
        <path d="M 120 295.24 L 130 295.24" />
        <path d="M 120 442.243 L 130 442.243" />
        <path d="M 120 791.373 L 130 791.373" />
        <path d="M 120 56.3615 L 130 56.3615" />
        <path d="M 120 644.371 L 130 644.371" />
        <path d="M 120 920 L 140 920" />
        <text font-size="30" transform="translate(110, 930)" text-anchor="end" dominant-baseline="middle" stroke="none" fill="black">0</text>
        <path d="M 120 387.117 L 130 387.117" />
        <path d="M 120 350.366 L 130 350.366" />
        <path d="M 120 203.364 L 130 203.364" />
        <path d="M 120 846.499 L 130 846.499" />
        <path d="M 120 515.744 L 130 515.744" />
        <path d="M 120 111.487 L 130 111.487" />
        <path d="M 120 736.247 L 140 736.247" />
        <text font-size="30" transform="translate(110, 746.247)" text-anchor="end" dominant-baseline="middle" stroke="none" fill="black">10000</text>
        <path d="M 120 552.494 L 140 552.494" />
        <text font-size="30" transform="translate(110, 562.494)" text-anchor="end" dominant-baseline="middle" stroke="none" fill="black">20000</text>
        <path d="M 120 754.622 L 130 754.622" />
        <path d="M 120 258.49 L 130 258.49" />
        <path d="M 120 662.746 L 130 662.746" />
        <path d="M 120 828.124 L 130 828.124" />
        <path d="M 120 166.613 L 130 166.613" />
        <path d="M 120 570.87 L 130 570.87" />
        <path d="M 120 313.616 L 130 313.616" />
        <path d="M 120 772.998 L 130 772.998" />
        <path d="M 120 405.492 L 130 405.492" />
        <path d="M 120 460.618 L 130 460.618" />
        <path d="M 120 681.121 L 130 681.121" />
        <path d="M 120 221.739 L 130 221.739" />
        <path d="M 120 368.741 L 140 368.741" />
        <text font-size="30" transform="translate(110, 378.741)" text-anchor="end" dominant-baseline="middle" stroke="none" fill="black">30000</text>
        <path d="M 120 883.249 L 130 883.249" />
        <path d="M 120 864.874 L 130 864.874" />
        <path d="M 120 129.863 L 130 129.863" />
        <path d="M 120 497.368 L 130 497.368" />
        <path d="M 120 276.865 L 130 276.865" />
        <path d="M 120 699.497 L 130 699.497" />
        <path d="M 120 589.245 L 130 589.245" />
        <path d="M 120 901.625 L 130 901.625" />
        <path d="M 120 148.238 L 130 148.238" />
        <path d="M 120 331.991 L 130 331.991" />
        <path d="M 120 809.748 L 130 809.748" />
        <path d="M 120 607.62 L 130 607.62" />
        <path d="M 120 184.989 L 140 184.989" />
        <text font-size="30" transform="translate(110, 194.989)" text-anchor="end" dominant-baseline="middle" stroke="none" fill="black">40000</text>
        <path d="M 120 93.1121 L 130 93.1121" />
        <path d="M 120 717.872 L 130 717.872" />
        <path d="M 120 240.114 L 130 240.114" />
        <path d="M 120 74.7368 L 130 74.7368" />
    </g>
    <text id="frame_0_toplabel" font-size="30" transform="translate(535, 32.6)" text-anchor="middle" dominant-baseline="middle" stroke="none" fill="black">m.abs</text>
    <g id="frame_0_topticks">
        <path d="M 120 50 L 120 70" />
        <path d="M 136.6 50 L 136.6 60" />
        <path d="M 153.2 50 L 153.2 60" />
        <path d="M 169.8 50 L 169.8 60" />
        <path d="M 186.4 50 L 186.4 60" />
        <path d="M 203 50 L 203 60" />
        <path d="M 219.6 50 L 219.6 60" />
        <path d="M 236.2 50 L 236.2 60" />
        <path d="M 252.8 50 L 252.8 60" />
        <path d="M 269.4 50 L 269.4 60" />
        <path d="M 286 50 L 286 70" />
        <path d="M 302.6 50 L 302.6 60" />
        <path d="M 319.2 50 L 319.2 60" />
        <path d="M 335.8 50 L 335.8 60" />
        <path d="M 352.4 50 L 352.4 60" />
        <path d="M 369 50 L 369 60" />
        <path d="M 385.6 50 L 385.6 60" />
        <path d="M 402.2 50 L 402.2 60" />
        <path d="M 418.8 50 L 418.8 60" />
        <path d="M 435.4 50 L 435.4 60" />
        <path d="M 452 50 L 452 70" />
        <path d="M 468.6 50 L 468.6 60" />
        <path d="M 485.2 50 L 485.2 60" />
        <path d="M 501.8 50 L 501.8 60" />
        <path d="M 518.4 50 L 518.4 60" />
        <path d="M 535 50 L 535 60" />
        <path d="M 551.6 50 L 551.6 60" />
        <path d="M 568.2 50 L 568.2 60" />
        <path d="M 584.8 50 L 584.8 60" />
        <path d="M 601.4 50 L 601.4 60" />
        <path d="M 618 50 L 618 70" />
        <path d="M 634.6 50 L 634.6 60" />
        <path d="M 651.2 50 L 651.2 60" />
        <path d="M 667.8 50 L 667.8 60" />
        <path d="M 684.4 50 L 684.4 60" />
        <path d="M 701 50 L 701 60" />
        <path d="M 717.6 50 L 717.6 60" />
        <path d="M 734.2 50 L 734.2 60" />
        <path d="M 750.8 50 L 750.8 60" />
        <path d="M 767.4 50 L 767.4 60" />
        <path d="M 784 50 L 784 70" />
        <path d="M 800.6 50 L 800.6 60" />
        <path d="M 817.2 50 L 817.2 60" />
        <path d="M 833.8 50 L 833.8 60" />
        <path d="M 850.4 50 L 850.4 60" />
        <path d="M 867 50 L 867 60" />
        <path d="M 883.6 50 L 883.6 60" />
        <path d="M 900.2 50 L 900.2 60" />
        <path d="M 916.8 50 L 916.8 60" />
        <path d="M 933.4 50 L 933.4 60" />
        <path d="M 950 50 L 950 70" />
    </g>
    <g id="frame_0_rightticks">
        <path d="M 950 625.995 L 940 625.995" />
        <path d="M 950 478.993 L 940 478.993" />
        <path d="M 950 423.867 L 940 423.867" />
        <path d="M 950 534.119 L 940 534.119" />
        <path d="M 950 295.24 L 940 295.24" />
        <path d="M 950 442.243 L 940 442.243" />
        <path d="M 950 791.373 L 940 791.373" />
        <path d="M 950 56.3615 L 940 56.3615" />
        <path d="M 950 644.371 L 940 644.371" />
        <path d="M 950 920 L 930 920" />
        <path d="M 950 387.117 L 940 387.117" />
        <path d="M 950 350.366 L 940 350.366" />
        <path d="M 950 203.364 L 940 203.364" />
        <path d="M 950 846.499 L 940 846.499" />
        <path d="M 950 515.744 L 940 515.744" />
        <path d="M 950 111.487 L 940 111.487" />
        <path d="M 950 736.247 L 930 736.247" />
        <path d="M 950 552.494 L 930 552.494" />
        <path d="M 950 754.622 L 940 754.622" />
        <path d="M 950 258.49 L 940 258.49" />
        <path d="M 950 662.746 L 940 662.746" />
        <path d="M 950 828.124 L 940 828.124" />
        <path d="M 950 166.613 L 940 166.613" />
        <path d="M 950 570.87 L 940 570.87" />
        <path d="M 950 313.616 L 940 313.616" />
        <path d="M 950 772.998 L 940 772.998" />
        <path d="M 950 405.492 L 940 405.492" />
        <path d="M 950 460.618 L 940 460.618" />
        <path d="M 950 681.121 L 940 681.121" />
        <path d="M 950 221.739 L 940 221.739" />
        <path d="M 950 368.741 L 930 368.741" />
        <path d="M 950 883.249 L 940 883.249" />
        <path d="M 950 864.874 L 940 864.874" />
        <path d="M 950 129.863 L 940 129.863" />
        <path d="M 950 497.368 L 940 497.368" />
        <path d="M 950 276.865 L 940 276.865" />
        <path d="M 950 699.497 L 940 699.497" />
        <path d="M 950 589.245 L 940 589.245" />
        <path d="M 950 901.625 L 940 901.625" />
        <path d="M 950 148.238 L 940 148.238" />
        <path d="M 950 331.991 L 940 331.991" />
        <path d="M 950 809.748 L 940 809.748" />
        <path d="M 950 607.62 L 940 607.62" />
        <path d="M 950 184.989 L 930 184.989" />
        <path d="M 950 93.1121 L 940 93.1121" />
        <path d="M 950 717.872 L 940 717.872" />
        <path d="M 950 240.114 L 940 240.114" />
        <path d="M 950 74.7368 L 940 74.7368" />
    </g>
</g>
</g>
</svg>
