<?xml version="1.0" standalone="no"?>
<!DOCTYPE svg PUBLIC "-//W3C//DTD SVG 1.1//EN" "http://www.w3.org/Graphics/SVG/1.1/DTD/svg11.dtd">
<svg style="stroke-linejoin:miter; stroke:black; stroke-width:2.5; text-anchor:middle; fill:none" xmlns="http://www.w3.org/2000/svg" font-family="Helvetica, Arial, FreeSans, Sans, sans, sans-serif" width="1000px" height="1000px" version="1.1" xmlns:xlink="http://www.w3.org/1999/xlink" viewBox="0 0 1000 1000">
<defs>
    <clipPath id="Histogram_0_clip">
        <rect x="120" y="50" width="830" height="870" />
    </clipPath>
    <clipPath id="Histogram_1_clip">
        <rect x="120" y="50" width="830" height="870" />
    </clipPath>
</defs>
<g id="whole_document">
<rect id="background" x="0" y="0" width="1000" height="1000" stroke="none" fill="white" />
<g id="Histogram_0" clip-path="url(#Histogram_0_clip)">
    <path d="M 120 920 L 120 129.091 L 161.5 129.091 L 161.5 920 L 203 920 L 203 920 L 244.5 920 L 244.5 904.594 L 286 904.594 L 286 913.867 L 327.5 913.867 L 327.5 920 L 369 920 L 369 920 L 410.5 920 L 410.5 920 L 452 920 L 452 920 L 493.5 920 L 493.5 920 L 535 920 L 535 920 L 576.5 920 L 576.5 920 L 618 920 L 618 920 L 659.5 920 L 659.5 920 L 701 920 L 701 920 L 742.5 920 L 742.5 920 L 784 920 L 784 920 L 825.5 920 L 825.5 920 L 867 920 L 867 920 L 908.5 920 L 908.5 920 L 950 920 L 950 920" stroke-width="3" stroke-dasharray="" stroke="black" stroke-opacity="1" fill="DodgerBlue" fill-opacity="1" />
</g>
<g id="Histogram_1" clip-path="url(#Histogram_1_clip)">
    <path d="M 120 920 L 120 920 L 161.5 920 L 161.5 920 L 203 920 L 203 920 L 244.5 920 L 244.5 904.594 L 286 904.594 L 286 913.867 L 327.5 913.867 L 327.5 920 L 369 920 L 369 920 L 410.5 920 L 410.5 920 L 452 920 L 452 920 L 493.5 920 L 493.5 920 L 535 920 L 535 920 L 576.5 920 L 576.5 920 L 618 920 L 618 920 L 659.5 920 L 659.5 920 L 701 920 L 701 920 L 742.5 920 L 742.5 920 L 784 920 L 784 920 L 825.5 920 L 825.5 920 L 867 920 L 867 920 L 908.5 920 L 908.5 920 L 950 920 L 950 920" stroke-width="3" stroke-dasharray="" stroke="black" stroke-opacity="1" fill="darkorange" fill-opacity="1" />
</g>
<g id="frame_0">
    <rect id="frame_0_border" x="120" y="50" width="830" height="870" />
    <text id="frame_0_bottomlabel" font-size="30" transform="translate(535, 989.6)" text-anchor="middle" dominant-baseline="middle" stroke="none" fill="black">microseconds</text>
    <g id="frame_0_bottomticks">
        <path d="M 120 920 L 120 900" />
        <text font-size="30" transform="translate(120, 950)" text-anchor="middle" dominant-baseline="middle" stroke="none" fill="black">0</text>
        <path d="M 136.6 920 L 136.6 910" />
        <path d="M 153.2 920 L 153.2 910" />
        <path d="M 169.8 920 L 169.8 910" />
        <path d="M 186.4 920 L 186.4 910" />
        <path d="M 203 920 L 203 910" />
        <path d="M 219.6 920 L 219.6 910" />
        <path d="M 236.2 920 L 236.2 910" />
        <path d="M 252.8 920 L 252.8 910" />
        <path d="M 269.4 920 L 269.4 910" />
        <path d="M 286 920 L 286 900" />
        <text font-size="30" transform="translate(286, 950)" text-anchor="middle" dominant-baseline="middle" stroke="none" fill="black">10</text>
        <path d="M 302.6 920 L 302.6 910" />
        <path d="M 319.2 920 L 319.2 910" />
        <path d="M 335.8 920 L 335.8 910" />
        <path d="M 352.4 920 L 352.4 910" />
        <path d="M 369 920 L 369 910" />
        <path d="M 385.6 920 L 385.6 910" />
        <path d="M 402.2 920 L 402.2 910" />
        <path d="M 418.8 920 L 418.8 910" />
        <path d="M 435.4 920 L 435.4 910" />
        <path d="M 452 920 L 452 900" />
        <text font-size="30" transform="translate(452, 950)" text-anchor="middle" dominant-baseline="middle" stroke="none" fill="black">20</text>
        <path d="M 468.6 920 L 468.6 910" />
        <path d="M 485.2 920 L 485.2 910" />
        <path d="M 501.8 920 L 501.8 910" />
        <path d="M 518.4 920 L 518.4 910" />
        <path d="M 535 920 L 535 910" />
        <path d="M 551.6 920 L 551.6 910" />
        <path d="M 568.2 920 L 568.2 910" />
        <path d="M 584.8 920 L 584.8 910" />
        <path d="M 601.4 920 L 601.4 910" />
        <path d="M 618 920 L 618 900" />
        <text font-size="30" transform="translate(618, 950)" text-anchor="middle" dominant-baseline="middle" stroke="none" fill="black">30</text>
        <path d="M 634.6 920 L 634.6 910" />
        <path d="M 651.2 920 L 651.2 910" />
        <path d="M 667.8 920 L 667.8 910" />
        <path d="M 684.4 920 L 684.4 910" />
        <path d="M 701 920 L 701 910" />
        <path d="M 717.6 920 L 717.6 910" />
        <path d="M 734.2 920 L 734.2 910" />
        <path d="M 750.8 920 L 750.8 910" />
        <path d="M 767.4 920 L 767.4 910" />
        <path d="M 784 920 L 784 900" />
        <text font-size="30" transform="translate(784, 950)" text-anchor="middle" dominant-baseline="middle" stroke="none" fill="black">40</text>
        <path d="M 800.6 920 L 800.6 910" />
        <path d="M 817.2 920 L 817.2 910" />
        <path d="M 833.8 920 L 833.8 910" />
        <path d="M 850.4 920 L 850.4 910" />
        <path d="M 867 920 L 867 910" />
        <path d="M 883.6 920 L 883.6 910" />
        <path d="M 900.2 920 L 900.2 910" />
        <path d="M 916.8 920 L 916.8 910" />
        <path d="M 933.4 920 L 933.4 910" />
        <path d="M 950 920 L 950 900" />
        <text font-size="30" transform="translate(950, 950)" text-anchor="middle" dominant-baseline="middle" stroke="none" fill="black">50</text>
    </g>
    <g id="frame_0_leftticks">
        <path d="M 120 582.806 L 130 582.806" />
        <path d="M 120 414.209 L 130 414.209" />
        <path d="M 120 350.985 L 130 350.985" />
        <path d="M 120 477.433 L 130 477.433" />
        <path d="M 120 203.463 L 130 203.463" />
        <path d="M 120 372.06 L 130 372.06" />
        <path d="M 120 772.478 L 130 772.478" />
        <path d="M 120 814.627 L 140 814.627" />
        <text font-size="30" transform="translate(110, 824.627)" text-anchor="end" dominant-baseline="middle" stroke="none" fill="black">5000</text>
        <path d="M 120 266.687 L 130 266.687" />
        <path d="M 120 920 L 140 920" />
        <text font-size="30" transform="translate(110, 930)" text-anchor="end" dominant-baseline="middle" stroke="none" fill="black">0</text>
        <path d="M 120 709.254 L 140 709.254" />
        <text font-size="30" transform="translate(110, 719.254)" text-anchor="end" dominant-baseline="middle" stroke="none" fill="black">10000</text>
        <path d="M 120 98.0902 L 130 98.0902" />
        <path d="M 120 835.702 L 130 835.702" />
        <path d="M 120 456.359 L 130 456.359" />
        <path d="M 120 498.508 L 140 498.508" />
        <text font-size="30" transform="translate(110, 508.508)" text-anchor="end" dominant-baseline="middle" stroke="none" fill="black">20000</text>
        <path d="M 120 730.328 L 130 730.328" />
        <path d="M 120 603.881 L 140 603.881" />
        <text font-size="30" transform="translate(110, 613.881)" text-anchor="end" dominant-baseline="middle" stroke="none" fill="black">15000</text>
        <path d="M 120 161.314 L 130 161.314" />
        <path d="M 120 624.955 L 130 624.955" />
        <path d="M 120 308.836 L 130 308.836" />
        <path d="M 120 55.9409 L 130 55.9409" />
        <path d="M 120 519.582 L 130 519.582" />
        <path d="M 120 224.538 L 130 224.538" />
        <path d="M 120 751.403 L 130 751.403" />
        <path d="M 120 329.911 L 130 329.911" />
        <path d="M 120 393.135 L 140 393.135" />
        <text font-size="30" transform="translate(110, 403.135)" text-anchor="end" dominant-baseline="middle" stroke="none" fill="black">25000</text>
        <path d="M 120 646.03 L 130 646.03" />
        <path d="M 120 119.165 L 130 119.165" />
        <path d="M 120 287.762 L 140 287.762" />
        <text font-size="30" transform="translate(110, 297.762)" text-anchor="end" dominant-baseline="middle" stroke="none" fill="black">30000</text>
        <path d="M 120 540.657 L 130 540.657" />
        <path d="M 120 856.776 L 130 856.776" />
        <path d="M 120 435.284 L 130 435.284" />
        <path d="M 120 182.389 L 140 182.389" />
        <text font-size="30" transform="translate(110, 192.389)" text-anchor="end" dominant-baseline="middle" stroke="none" fill="black">35000</text>
        <path d="M 120 667.105 L 130 667.105" />
        <path d="M 120 877.851 L 130 877.851" />
        <path d="M 120 898.925 L 130 898.925" />
        <path d="M 120 245.612 L 130 245.612" />
        <path d="M 120 793.552 L 130 793.552" />
        <path d="M 120 561.732 L 130 561.732" />
        <path d="M 120 77.0155 L 140 77.0155" />
        <text font-size="30" transform="translate(110, 87.0155)" text-anchor="end" dominant-baseline="middle" stroke="none" fill="black">40000</text>
        <path d="M 120 688.179 L 130 688.179" />
        <path d="M 120 140.239 L 130 140.239" />
    </g>
    <text id="frame_0_toplabel" font-size="30" transform="translate(535, 32.6)" text-anchor="middle" dominant-baseline="middle" stroke="none" fill="black">cast.int</text>
    <g id="frame_0_topticks">
        <path d="M 120 50 L 120 70" />
        <path d="M 136.6 50 L 136.6 60" />
        <path d="M 153.2 50 L 153.2 60" />
        <path d="M 169.8 50 L 169.8 60" />
        <path d="M 186.4 50 L 186.4 60" />
        <path d="M 203 50 L 203 60" />
        <path d="M 219.6 50 L 219.6 60" />
        <path d="M 236.2 50 L 236.2 60" />
        <path d="M 252.8 50 L 252.8 60" />
        <path d="M 269.4 50 L 269.4 60" />
        <path d="M 286 50 L 286 70" />
        <path d="M 302.6 50 L 302.6 60" />
        <path d="M 319.2 50 L 319.2 60" />
        <path d="M 335.8 50 L 335.8 60" />
        <path d="M 352.4 50 L 352.4 60" />
        <path d="M 369 50 L 369 60" />
        <path d="M 385.6 50 L 385.6 60" />
        <path d="M 402.2 50 L 402.2 60" />
        <path d="M 418.8 50 L 418.8 60" />
        <path d="M 435.4 50 L 435.4 60" />
        <path d="M 452 50 L 452 70" />
        <path d="M 468.6 50 L 468.6 60" />
        <path d="M 485.2 50 L 485.2 60" />
        <path d="M 501.8 50 L 501.8 60" />
        <path d="M 518.4 50 L 518.4 60" />
        <path d="M 535 50 L 535 60" />
        <path d="M 551.6 50 L 551.6 60" />
        <path d="M 568.2 50 L 568.2 60" />
        <path d="M 584.8 50 L 584.8 60" />
        <path d="M 601.4 50 L 601.4 60" />
        <path d="M 618 50 L 618 70" />
        <path d="M 634.6 50 L 634.6 60" />
        <path d="M 651.2 50 L 651.2 60" />
        <path d="M 667.8 50 L 667.8 60" />
        <path d="M 684.4 50 L 684.4 60" />
        <path d="M 701 50 L 701 60" />
        <path d="M 717.6 50 L 717.6 60" />
        <path d="M 734.2 50 L 734.2 60" />
        <path d="M 750.8 50 L 750.8 60" />
        <path d="M 767.4 50 L 767.4 60" />
        <path d="M 784 50 L 784 70" />
        <path d="M 800.6 50 L 800.6 60" />
        <path d="M 817.2 50 L 817.2 60" />
        <path d="M 833.8 50 L 833.8 60" />
        <path d="M 850.4 50 L 850.4 60" />
        <path d="M 867 50 L 867 60" />
        <path d="M 883.6 50 L 883.6 60" />
        <path d="M 900.2 50 L 900.2 60" />
        <path d="M 916.8 50 L 916.8 60" />
        <path d="M 933.4 50 L 933.4 60" />
        <path d="M 950 50 L 950 70" />
    </g>
    <g id="frame_0_rightticks">
        <path d="M 950 582.806 L 940 582.806" />
        <path d="M 950 414.209 L 940 414.209" />
        <path d="M 950 350.985 L 940 350.985" />
        <path d="M 950 477.433 L 940 477.433" />
        <path d="M 950 203.463 L 940 203.463" />
        <path d="M 950 372.06 L 940 372.06" />
        <path d="M 950 772.478 L 940 772.478" />
        <path d="M 950 814.627 L 930 814.627" />
        <path d="M 950 266.687 L 940 266.687" />
        <path d="M 950 920 L 930 920" />
        <path d="M 950 709.254 L 930 709.254" />
        <path d="M 950 98.0902 L 940 98.0902" />
        <path d="M 950 835.702 L 940 835.702" />
        <path d="M 950 456.359 L 940 456.359" />
        <path d="M 950 498.508 L 930 498.508" />
        <path d="M 950 730.328 L 940 730.328" />
        <path d="M 950 603.881 L 930 603.881" />
        <path d="M 950 161.314 L 940 161.314" />
        <path d="M 950 624.955 L 940 624.955" />
        <path d="M 950 308.836 L 940 308.836" />
        <path d="M 950 55.9409 L 940 55.9409" />
        <path d="M 950 519.582 L 940 519.582" />
        <path d="M 950 224.538 L 940 224.538" />
        <path d="M 950 751.403 L 940 751.403" />
        <path d="M 950 329.911 L 940 329.911" />
        <path d="M 950 393.135 L 930 393.135" />
        <path d="M 950 646.03 L 940 646.03" />
        <path d="M 950 119.165 L 940 119.165" />
        <path d="M 950 287.762 L 930 287.762" />
        <path d="M 950 540.657 L 940 540.657" />
        <path d="M 950 856.776 L 940 856.776" />
        <path d="M 950 435.284 L 940 435.284" />
        <path d="M 950 182.389 L 930 182.389" />
        <path d="M 950 667.105 L 940 667.105" />
        <path d="M 950 877.851 L 940 877.851" />
        <path d="M 950 898.925 L 940 898.925" />
        <path d="M 950 245.612 L 940 245.612" />
        <path d="M 950 793.552 L 940 793.552" />
        <path d="M 950 561.732 L 940 561.732" />
        <path d="M 950 77.0155 L 930 77.0155" />
        <path d="M 950 688.179 L 940 688.179" />
        <path d="M 950 140.239 L 940 140.239" />
    </g>
</g>
</g>
</svg>
