<?xml version="1.0" standalone="no"?>
<!DOCTYPE svg PUBLIC "-//W3C//DTD SVG 1.1//EN" "http://www.w3.org/Graphics/SVG/1.1/DTD/svg11.dtd">
<svg style="stroke-linejoin:miter; stroke:black; stroke-width:2.5; text-anchor:middle; fill:none" xmlns="http://www.w3.org/2000/svg" font-family="Helvetica, Arial, FreeSans, Sans, sans, sans-serif" width="1000px" height="1000px" version="1.1" xmlns:xlink="http://www.w3.org/1999/xlink" viewBox="0 0 1000 1000">
<defs>
    <clipPath id="Histogram_0_clip">
        <rect x="120" y="50" width="830" height="870" />
    </clipPath>
    <clipPath id="Histogram_1_clip">
        <rect x="120" y="50" width="830" height="870" />
    </clipPath>
</defs>
<g id="whole_document">
<rect id="background" x="0" y="0" width="1000" height="1000" stroke="none" fill="white" />
<g id="Histogram_0" clip-path="url(#Histogram_0_clip)">
    <path d="M 120 920 L 120 129.091 L 161.5 129.091 L 161.5 872.518 L 203 872.518 L 203 902.229 L 244.5 902.229 L 244.5 832.845 L 286 832.845 L 286 918.648 L 327.5 918.648 L 327.5 915.841 L 369 915.841 L 369 919.026 L 410.5 919.026 L 410.5 920 L 452 920 L 452 917.891 L 493.5 917.891 L 493.5 919.36 L 535 919.36 L 535 920 L 576.5 920 L 576.5 918.997 L 618 918.997 L 618 920 L 659.5 920 L 659.5 920 L 701 920 L 701 920 L 742.5 920 L 742.5 920 L 784 920 L 784 920 L 825.5 920 L 825.5 920 L 867 920 L 867 920 L 908.5 920 L 908.5 920 L 950 920 L 950 920" stroke-width="3" stroke-dasharray="" stroke="black" stroke-opacity="1" fill="DodgerBlue" fill-opacity="1" />
</g>
<g id="Histogram_1" clip-path="url(#Histogram_1_clip)">
    <path d="M 120 920 L 120 920 L 161.5 920 L 161.5 920 L 203 920 L 203 920 L 244.5 920 L 244.5 832.845 L 286 832.845 L 286 918.648 L 327.5 918.648 L 327.5 915.841 L 369 915.841 L 369 919.026 L 410.5 919.026 L 410.5 920 L 452 920 L 452 917.891 L 493.5 917.891 L 493.5 919.36 L 535 919.36 L 535 920 L 576.5 920 L 576.5 920 L 618 920 L 618 920 L 659.5 920 L 659.5 920 L 701 920 L 701 920 L 742.5 920 L 742.5 920 L 784 920 L 784 920 L 825.5 920 L 825.5 920 L 867 920 L 867 920 L 908.5 920 L 908.5 920 L 950 920 L 950 920" stroke-width="3" stroke-dasharray="" stroke="black" stroke-opacity="1" fill="darkorange" fill-opacity="1" />
</g>
<g id="frame_0">
    <rect id="frame_0_border" x="120" y="50" width="830" height="870" />
    <text id="frame_0_bottomlabel" font-size="30" transform="translate(535, 989.6)" text-anchor="middle" dominant-baseline="middle" stroke="none" fill="black">microseconds</text>
    <g id="frame_0_bottomticks">
        <path d="M 120 920 L 120 900" />
        <text font-size="30" transform="translate(120, 950)" text-anchor="middle" dominant-baseline="middle" stroke="none" fill="black">0</text>
        <path d="M 136.6 920 L 136.6 910" />
        <path d="M 153.2 920 L 153.2 910" />
        <path d="M 169.8 920 L 169.8 910" />
        <path d="M 186.4 920 L 186.4 910" />
        <path d="M 203 920 L 203 910" />
        <path d="M 219.6 920 L 219.6 910" />
        <path d="M 236.2 920 L 236.2 910" />
        <path d="M 252.8 920 L 252.8 910" />
        <path d="M 269.4 920 L 269.4 910" />
        <path d="M 286 920 L 286 900" />
        <text font-size="30" transform="translate(286, 950)" text-anchor="middle" dominant-baseline="middle" stroke="none" fill="black">10</text>
        <path d="M 302.6 920 L 302.6 910" />
        <path d="M 319.2 920 L 319.2 910" />
        <path d="M 335.8 920 L 335.8 910" />
        <path d="M 352.4 920 L 352.4 910" />
        <path d="M 369 920 L 369 910" />
        <path d="M 385.6 920 L 385.6 910" />
        <path d="M 402.2 920 L 402.2 910" />
        <path d="M 418.8 920 L 418.8 910" />
        <path d="M 435.4 920 L 435.4 910" />
        <path d="M 452 920 L 452 900" />
        <text font-size="30" transform="translate(452, 950)" text-anchor="middle" dominant-baseline="middle" stroke="none" fill="black">20</text>
        <path d="M 468.6 920 L 468.6 910" />
        <path d="M 485.2 920 L 485.2 910" />
        <path d="M 501.8 920 L 501.8 910" />
        <path d="M 518.4 920 L 518.4 910" />
        <path d="M 535 920 L 535 910" />
        <path d="M 551.6 920 L 551.6 910" />
        <path d="M 568.2 920 L 568.2 910" />
        <path d="M 584.8 920 L 584.8 910" />
        <path d="M 601.4 920 L 601.4 910" />
        <path d="M 618 920 L 618 900" />
        <text font-size="30" transform="translate(618, 950)" text-anchor="middle" dominant-baseline="middle" stroke="none" fill="black">30</text>
        <path d="M 634.6 920 L 634.6 910" />
        <path d="M 651.2 920 L 651.2 910" />
        <path d="M 667.8 920 L 667.8 910" />
        <path d="M 684.4 920 L 684.4 910" />
        <path d="M 701 920 L 701 910" />
        <path d="M 717.6 920 L 717.6 910" />
        <path d="M 734.2 920 L 734.2 910" />
        <path d="M 750.8 920 L 750.8 910" />
        <path d="M 767.4 920 L 767.4 910" />
        <path d="M 784 920 L 784 900" />
        <text font-size="30" transform="translate(784, 950)" text-anchor="middle" dominant-baseline="middle" stroke="none" fill="black">40</text>
        <path d="M 800.6 920 L 800.6 910" />
        <path d="M 817.2 920 L 817.2 910" />
        <path d="M 833.8 920 L 833.8 910" />
        <path d="M 850.4 920 L 850.4 910" />
        <path d="M 867 920 L 867 910" />
        <path d="M 883.6 920 L 883.6 910" />
        <path d="M 900.2 920 L 900.2 910" />
        <path d="M 916.8 920 L 916.8 910" />
        <path d="M 933.4 920 L 933.4 910" />
        <path d="M 950 920 L 950 900" />
        <text font-size="30" transform="translate(950, 950)" text-anchor="middle" dominant-baseline="middle" stroke="none" fill="black">50</text>
    </g>
    <g id="frame_0_leftticks">
        <path d="M 120 687.316 L 130 687.316" />
        <path d="M 120 570.973 L 130 570.973" />
        <path d="M 120 527.345 L 130 527.345" />
        <path d="M 120 614.602 L 130 614.602" />
        <path d="M 120 425.545 L 130 425.545" />
        <path d="M 120 91.0615 L 130 91.0615" />
        <path d="M 120 541.888 L 130 541.888" />
        <path d="M 120 818.201 L 130 818.201" />
        <path d="M 120 236.489 L 130 236.489" />
        <path d="M 120 701.858 L 130 701.858" />
        <path d="M 120 76.5188 L 130 76.5188" />
        <path d="M 120 920 L 140 920" />
        <text font-size="30" transform="translate(110, 930)" text-anchor="end" dominant-baseline="middle" stroke="none" fill="black">0</text>
        <path d="M 120 498.259 L 130 498.259" />
        <path d="M 120 469.174 L 130 469.174" />
        <path d="M 120 352.832 L 130 352.832" />
        <path d="M 120 861.829 L 130 861.829" />
        <path d="M 120 600.059 L 130 600.059" />
        <path d="M 120 280.118 L 130 280.118" />
        <path d="M 120 774.572 L 140 774.572" />
        <text font-size="30" transform="translate(110, 784.572)" text-anchor="end" dominant-baseline="middle" stroke="none" fill="black">10000</text>
        <path d="M 120 61.976 L 130 61.976" />
        <path d="M 120 789.115 L 130 789.115" />
        <path d="M 120 483.717 L 140 483.717" />
        <text font-size="30" transform="translate(110, 493.717)" text-anchor="end" dominant-baseline="middle" stroke="none" fill="black">30000</text>
        <path d="M 120 629.144 L 140 629.144" />
        <text font-size="30" transform="translate(110, 639.144)" text-anchor="end" dominant-baseline="middle" stroke="none" fill="black">20000</text>
        <path d="M 120 396.46 L 130 396.46" />
        <path d="M 120 716.401 L 130 716.401" />
        <path d="M 120 847.286 L 130 847.286" />
        <path d="M 120 323.746 L 130 323.746" />
        <path d="M 120 643.687 L 130 643.687" />
        <path d="M 120 207.404 L 130 207.404" />
        <path d="M 120 440.088 L 130 440.088" />
        <path d="M 120 803.658 L 130 803.658" />
        <path d="M 120 512.802 L 130 512.802" />
        <path d="M 120 556.43 L 130 556.43" />
        <path d="M 120 338.289 L 140 338.289" />
        <text font-size="30" transform="translate(110, 348.289)" text-anchor="end" dominant-baseline="middle" stroke="none" fill="black">40000</text>
        <path d="M 120 730.944 L 130 730.944" />
        <path d="M 120 367.374 L 130 367.374" />
        <path d="M 120 163.775 L 130 163.775" />
        <path d="M 120 178.318 L 130 178.318" />
        <path d="M 120 890.914 L 130 890.914" />
        <path d="M 120 876.372 L 130 876.372" />
        <path d="M 120 294.66 L 130 294.66" />
        <path d="M 120 585.516 L 130 585.516" />
        <path d="M 120 149.233 L 130 149.233" />
        <path d="M 120 411.003 L 130 411.003" />
        <path d="M 120 105.604 L 130 105.604" />
        <path d="M 120 745.487 L 130 745.487" />
        <path d="M 120 658.23 L 130 658.23" />
        <path d="M 120 221.947 L 130 221.947" />
        <path d="M 120 134.69 L 130 134.69" />
        <path d="M 120 905.457 L 130 905.457" />
        <path d="M 120 309.203 L 130 309.203" />
        <path d="M 120 454.631 L 130 454.631" />
        <path d="M 120 832.743 L 130 832.743" />
        <path d="M 120 672.773 L 130 672.773" />
        <path d="M 120 120.147 L 130 120.147" />
        <path d="M 120 265.575 L 130 265.575" />
        <path d="M 120 192.861 L 140 192.861" />
        <text font-size="30" transform="translate(110, 202.861)" text-anchor="end" dominant-baseline="middle" stroke="none" fill="black">50000</text>
        <path d="M 120 760.029 L 130 760.029" />
        <path d="M 120 381.917 L 130 381.917" />
        <path d="M 120 251.032 L 130 251.032" />
    </g>
    <text id="frame_0_toplabel" font-size="30" transform="translate(535, 32.6)" text-anchor="middle" dominant-baseline="middle" stroke="none" fill="black">a.reduceRight</text>
    <g id="frame_0_topticks">
        <path d="M 120 50 L 120 70" />
        <path d="M 136.6 50 L 136.6 60" />
        <path d="M 153.2 50 L 153.2 60" />
        <path d="M 169.8 50 L 169.8 60" />
        <path d="M 186.4 50 L 186.4 60" />
        <path d="M 203 50 L 203 60" />
        <path d="M 219.6 50 L 219.6 60" />
        <path d="M 236.2 50 L 236.2 60" />
        <path d="M 252.8 50 L 252.8 60" />
        <path d="M 269.4 50 L 269.4 60" />
        <path d="M 286 50 L 286 70" />
        <path d="M 302.6 50 L 302.6 60" />
        <path d="M 319.2 50 L 319.2 60" />
        <path d="M 335.8 50 L 335.8 60" />
        <path d="M 352.4 50 L 352.4 60" />
        <path d="M 369 50 L 369 60" />
        <path d="M 385.6 50 L 385.6 60" />
        <path d="M 402.2 50 L 402.2 60" />
        <path d="M 418.8 50 L 418.8 60" />
        <path d="M 435.4 50 L 435.4 60" />
        <path d="M 452 50 L 452 70" />
        <path d="M 468.6 50 L 468.6 60" />
        <path d="M 485.2 50 L 485.2 60" />
        <path d="M 501.8 50 L 501.8 60" />
        <path d="M 518.4 50 L 518.4 60" />
        <path d="M 535 50 L 535 60" />
        <path d="M 551.6 50 L 551.6 60" />
        <path d="M 568.2 50 L 568.2 60" />
        <path d="M 584.8 50 L 584.8 60" />
        <path d="M 601.4 50 L 601.4 60" />
        <path d="M 618 50 L 618 70" />
        <path d="M 634.6 50 L 634.6 60" />
        <path d="M 651.2 50 L 651.2 60" />
        <path d="M 667.8 50 L 667.8 60" />
        <path d="M 684.4 50 L 684.4 60" />
        <path d="M 701 50 L 701 60" />
        <path d="M 717.6 50 L 717.6 60" />
        <path d="M 734.2 50 L 734.2 60" />
        <path d="M 750.8 50 L 750.8 60" />
        <path d="M 767.4 50 L 767.4 60" />
        <path d="M 784 50 L 784 70" />
        <path d="M 800.6 50 L 800.6 60" />
        <path d="M 817.2 50 L 817.2 60" />
        <path d="M 833.8 50 L 833.8 60" />
        <path d="M 850.4 50 L 850.4 60" />
        <path d="M 867 50 L 867 60" />
        <path d="M 883.6 50 L 883.6 60" />
        <path d="M 900.2 50 L 900.2 60" />
        <path d="M 916.8 50 L 916.8 60" />
        <path d="M 933.4 50 L 933.4 60" />
        <path d="M 950 50 L 950 70" />
    </g>
    <g id="frame_0_rightticks">
        <path d="M 950 687.316 L 940 687.316" />
        <path d="M 950 570.973 L 940 570.973" />
        <path d="M 950 527.345 L 940 527.345" />
        <path d="M 950 614.602 L 940 614.602" />
        <path d="M 950 425.545 L 940 425.545" />
        <path d="M 950 91.0615 L 940 91.0615" />
        <path d="M 950 541.888 L 940 541.888" />
        <path d="M 950 818.201 L 940 818.201" />
        <path d="M 950 236.489 L 940 236.489" />
        <path d="M 950 701.858 L 940 701.858" />
        <path d="M 950 76.5188 L 940 76.5188" />
        <path d="M 950 920 L 930 920" />
        <path d="M 950 498.259 L 940 498.259" />
        <path d="M 950 469.174 L 940 469.174" />
        <path d="M 950 352.832 L 940 352.832" />
        <path d="M 950 861.829 L 940 861.829" />
        <path d="M 950 600.059 L 940 600.059" />
        <path d="M 950 280.118 L 940 280.118" />
        <path d="M 950 774.572 L 930 774.572" />
        <path d="M 950 61.976 L 940 61.976" />
        <path d="M 950 789.115 L 940 789.115" />
        <path d="M 950 483.717 L 930 483.717" />
        <path d="M 950 629.144 L 930 629.144" />
        <path d="M 950 396.46 L 940 396.46" />
        <path d="M 950 716.401 L 940 716.401" />
        <path d="M 950 847.286 L 940 847.286" />
        <path d="M 950 323.746 L 940 323.746" />
        <path d="M 950 643.687 L 940 643.687" />
        <path d="M 950 207.404 L 940 207.404" />
        <path d="M 950 440.088 L 940 440.088" />
        <path d="M 950 803.658 L 940 803.658" />
        <path d="M 950 512.802 L 940 512.802" />
        <path d="M 950 556.43 L 940 556.43" />
        <path d="M 950 338.289 L 930 338.289" />
        <path d="M 950 730.944 L 940 730.944" />
        <path d="M 950 367.374 L 940 367.374" />
        <path d="M 950 163.775 L 940 163.775" />
        <path d="M 950 178.318 L 940 178.318" />
        <path d="M 950 890.914 L 940 890.914" />
        <path d="M 950 876.372 L 940 876.372" />
        <path d="M 950 294.66 L 940 294.66" />
        <path d="M 950 585.516 L 940 585.516" />
        <path d="M 950 149.233 L 940 149.233" />
        <path d="M 950 411.003 L 940 411.003" />
        <path d="M 950 105.604 L 940 105.604" />
        <path d="M 950 745.487 L 940 745.487" />
        <path d="M 950 658.23 L 940 658.23" />
        <path d="M 950 221.947 L 940 221.947" />
        <path d="M 950 134.69 L 940 134.69" />
        <path d="M 950 905.457 L 940 905.457" />
        <path d="M 950 309.203 L 940 309.203" />
        <path d="M 950 454.631 L 940 454.631" />
        <path d="M 950 832.743 L 940 832.743" />
        <path d="M 950 672.773 L 940 672.773" />
        <path d="M 950 120.147 L 940 120.147" />
        <path d="M 950 265.575 L 940 265.575" />
        <path d="M 950 192.861 L 930 192.861" />
        <path d="M 950 760.029 L 940 760.029" />
        <path d="M 950 381.917 L 940 381.917" />
        <path d="M 950 251.032 L 940 251.032" />
    </g>
</g>
</g>
</svg>
