<?xml version="1.0" standalone="no"?>
<!DOCTYPE svg PUBLIC "-//W3C//DTD SVG 1.1//EN" "http://www.w3.org/Graphics/SVG/1.1/DTD/svg11.dtd">
<svg style="stroke-linejoin:miter; stroke:black; stroke-width:2.5; text-anchor:middle; fill:none" xmlns="http://www.w3.org/2000/svg" font-family="Helvetica, Arial, FreeSans, Sans, sans, sans-serif" width="1000px" height="1000px" version="1.1" xmlns:xlink="http://www.w3.org/1999/xlink" viewBox="0 0 1000 1000">
<defs>
    <clipPath id="Histogram_0_clip">
        <rect x="120" y="50" width="830" height="870" />
    </clipPath>
</defs>
<g id="whole_document">
<rect id="background" x="0" y="0" width="1000" height="1000" stroke="none" fill="white" />
<g id="Histogram_0" clip-path="url(#Histogram_0_clip)">
    <path d="M 120 920 L 120 920 L 161.5 920 L 161.5 129.091 L 203 129.091 L 203 885.439 L 244.5 885.439 L 244.5 917.924 L 286 917.924 L 286 916.481 L 327.5 916.481 L 327.5 920 L 369 920 L 369 920 L 410.5 920 L 410.5 920 L 452 920 L 452 920 L 493.5 920 L 493.5 920 L 535 920 L 535 920 L 576.5 920 L 576.5 920 L 618 920 L 618 920 L 659.5 920 L 659.5 920 L 701 920 L 701 920 L 742.5 920 L 742.5 920 L 784 920 L 784 920 L 825.5 920 L 825.5 920 L 867 920 L 867 920 L 908.5 920 L 908.5 920 L 950 920 L 950 920" stroke-width="3" stroke-dasharray="" stroke="black" stroke-opacity="1" fill="DodgerBlue" fill-opacity="1" />
</g>
<g id="frame_0">
    <rect id="frame_0_border" x="120" y="50" width="830" height="870" />
    <text id="frame_0_bottomlabel" font-size="30" transform="translate(535, 989.6)" text-anchor="middle" dominant-baseline="middle" stroke="none" fill="black">microseconds</text>
    <g id="frame_0_bottomticks">
        <path d="M 120 920 L 120 900" />
        <text font-size="30" transform="translate(120, 950)" text-anchor="middle" dominant-baseline="middle" stroke="none" fill="black">0</text>
        <path d="M 136.6 920 L 136.6 910" />
        <path d="M 153.2 920 L 153.2 910" />
        <path d="M 169.8 920 L 169.8 910" />
        <path d="M 186.4 920 L 186.4 910" />
        <path d="M 203 920 L 203 910" />
        <path d="M 219.6 920 L 219.6 910" />
        <path d="M 236.2 920 L 236.2 910" />
        <path d="M 252.8 920 L 252.8 910" />
        <path d="M 269.4 920 L 269.4 910" />
        <path d="M 286 920 L 286 900" />
        <text font-size="30" transform="translate(286, 950)" text-anchor="middle" dominant-baseline="middle" stroke="none" fill="black">10</text>
        <path d="M 302.6 920 L 302.6 910" />
        <path d="M 319.2 920 L 319.2 910" />
        <path d="M 335.8 920 L 335.8 910" />
        <path d="M 352.4 920 L 352.4 910" />
        <path d="M 369 920 L 369 910" />
        <path d="M 385.6 920 L 385.6 910" />
        <path d="M 402.2 920 L 402.2 910" />
        <path d="M 418.8 920 L 418.8 910" />
        <path d="M 435.4 920 L 435.4 910" />
        <path d="M 452 920 L 452 900" />
        <text font-size="30" transform="translate(452, 950)" text-anchor="middle" dominant-baseline="middle" stroke="none" fill="black">20</text>
        <path d="M 468.6 920 L 468.6 910" />
        <path d="M 485.2 920 L 485.2 910" />
        <path d="M 501.8 920 L 501.8 910" />
        <path d="M 518.4 920 L 518.4 910" />
        <path d="M 535 920 L 535 910" />
        <path d="M 551.6 920 L 551.6 910" />
        <path d="M 568.2 920 L 568.2 910" />
        <path d="M 584.8 920 L 584.8 910" />
        <path d="M 601.4 920 L 601.4 910" />
        <path d="M 618 920 L 618 900" />
        <text font-size="30" transform="translate(618, 950)" text-anchor="middle" dominant-baseline="middle" stroke="none" fill="black">30</text>
        <path d="M 634.6 920 L 634.6 910" />
        <path d="M 651.2 920 L 651.2 910" />
        <path d="M 667.8 920 L 667.8 910" />
        <path d="M 684.4 920 L 684.4 910" />
        <path d="M 701 920 L 701 910" />
        <path d="M 717.6 920 L 717.6 910" />
        <path d="M 734.2 920 L 734.2 910" />
        <path d="M 750.8 920 L 750.8 910" />
        <path d="M 767.4 920 L 767.4 910" />
        <path d="M 784 920 L 784 900" />
        <text font-size="30" transform="translate(784, 950)" text-anchor="middle" dominant-baseline="middle" stroke="none" fill="black">40</text>
        <path d="M 800.6 920 L 800.6 910" />
        <path d="M 817.2 920 L 817.2 910" />
        <path d="M 833.8 920 L 833.8 910" />
        <path d="M 850.4 920 L 850.4 910" />
        <path d="M 867 920 L 867 910" />
        <path d="M 883.6 920 L 883.6 910" />
        <path d="M 900.2 920 L 900.2 910" />
        <path d="M 916.8 920 L 916.8 910" />
        <path d="M 933.4 920 L 933.4 910" />
        <path d="M 950 920 L 950 900" />
        <text font-size="30" transform="translate(950, 950)" text-anchor="middle" dominant-baseline="middle" stroke="none" fill="black">50</text>
    </g>
    <g id="frame_0_leftticks">
        <path d="M 120 603.652 L 130 603.652" />
        <path d="M 120 445.478 L 130 445.478" />
        <path d="M 120 386.163 L 130 386.163" />
        <path d="M 120 504.793 L 130 504.793" />
        <path d="M 120 247.761 L 130 247.761" />
        <path d="M 120 405.935 L 130 405.935" />
        <path d="M 120 781.598 L 130 781.598" />
        <path d="M 120 821.141 L 140 821.141" />
        <text font-size="30" transform="translate(110, 831.141)" text-anchor="end" dominant-baseline="middle" stroke="none" fill="black">5000</text>
        <path d="M 120 307.076 L 130 307.076" />
        <path d="M 120 920 L 140 920" />
        <text font-size="30" transform="translate(110, 930)" text-anchor="end" dominant-baseline="middle" stroke="none" fill="black">0</text>
        <path d="M 120 722.283 L 140 722.283" />
        <text font-size="30" transform="translate(110, 732.283)" text-anchor="end" dominant-baseline="middle" stroke="none" fill="black">10000</text>
        <path d="M 120 148.902 L 130 148.902" />
        <path d="M 120 840.913 L 130 840.913" />
        <path d="M 120 485.022 L 130 485.022" />
        <path d="M 120 50.0435 L 130 50.0435" />
        <path d="M 120 524.565 L 140 524.565" />
        <text font-size="30" transform="translate(110, 534.565)" text-anchor="end" dominant-baseline="middle" stroke="none" fill="black">20000</text>
        <path d="M 120 742.054 L 130 742.054" />
        <path d="M 120 623.424 L 140 623.424" />
        <text font-size="30" transform="translate(110, 633.424)" text-anchor="end" dominant-baseline="middle" stroke="none" fill="black">15000</text>
        <path d="M 120 208.217 L 130 208.217" />
        <path d="M 120 643.196 L 130 643.196" />
        <path d="M 120 346.62 L 130 346.62" />
        <path d="M 120 109.359 L 130 109.359" />
        <path d="M 120 544.337 L 130 544.337" />
        <path d="M 120 267.533 L 130 267.533" />
        <path d="M 120 761.826 L 130 761.826" />
        <path d="M 120 366.391 L 130 366.391" />
        <path d="M 120 425.707 L 140 425.707" />
        <text font-size="30" transform="translate(110, 435.707)" text-anchor="end" dominant-baseline="middle" stroke="none" fill="black">25000</text>
        <path d="M 120 662.967 L 130 662.967" />
        <path d="M 120 168.674 L 130 168.674" />
        <path d="M 120 326.848 L 140 326.848" />
        <text font-size="30" transform="translate(110, 336.848)" text-anchor="end" dominant-baseline="middle" stroke="none" fill="black">30000</text>
        <path d="M 120 564.109 L 130 564.109" />
        <path d="M 120 860.685 L 130 860.685" />
        <path d="M 120 69.8152 L 130 69.8152" />
        <path d="M 120 465.25 L 130 465.25" />
        <path d="M 120 227.989 L 140 227.989" />
        <text font-size="30" transform="translate(110, 237.989)" text-anchor="end" dominant-baseline="middle" stroke="none" fill="black">35000</text>
        <path d="M 120 682.739 L 130 682.739" />
        <path d="M 120 880.457 L 130 880.457" />
        <path d="M 120 900.228 L 130 900.228" />
        <path d="M 120 89.587 L 130 89.587" />
        <path d="M 120 287.304 L 130 287.304" />
        <path d="M 120 801.37 L 130 801.37" />
        <path d="M 120 583.88 L 130 583.88" />
        <path d="M 120 129.13 L 140 129.13" />
        <text font-size="30" transform="translate(110, 139.13)" text-anchor="end" dominant-baseline="middle" stroke="none" fill="black">40000</text>
        <path d="M 120 702.511 L 130 702.511" />
        <path d="M 120 188.446 L 130 188.446" />
    </g>
    <text id="frame_0_toplabel" font-size="30" transform="translate(535, 32.6)" text-anchor="middle" dominant-baseline="middle" stroke="none" fill="black">map.fromset</text>
    <g id="frame_0_topticks">
        <path d="M 120 50 L 120 70" />
        <path d="M 136.6 50 L 136.6 60" />
        <path d="M 153.2 50 L 153.2 60" />
        <path d="M 169.8 50 L 169.8 60" />
        <path d="M 186.4 50 L 186.4 60" />
        <path d="M 203 50 L 203 60" />
        <path d="M 219.6 50 L 219.6 60" />
        <path d="M 236.2 50 L 236.2 60" />
        <path d="M 252.8 50 L 252.8 60" />
        <path d="M 269.4 50 L 269.4 60" />
        <path d="M 286 50 L 286 70" />
        <path d="M 302.6 50 L 302.6 60" />
        <path d="M 319.2 50 L 319.2 60" />
        <path d="M 335.8 50 L 335.8 60" />
        <path d="M 352.4 50 L 352.4 60" />
        <path d="M 369 50 L 369 60" />
        <path d="M 385.6 50 L 385.6 60" />
        <path d="M 402.2 50 L 402.2 60" />
        <path d="M 418.8 50 L 418.8 60" />
        <path d="M 435.4 50 L 435.4 60" />
        <path d="M 452 50 L 452 70" />
        <path d="M 468.6 50 L 468.6 60" />
        <path d="M 485.2 50 L 485.2 60" />
        <path d="M 501.8 50 L 501.8 60" />
        <path d="M 518.4 50 L 518.4 60" />
        <path d="M 535 50 L 535 60" />
        <path d="M 551.6 50 L 551.6 60" />
        <path d="M 568.2 50 L 568.2 60" />
        <path d="M 584.8 50 L 584.8 60" />
        <path d="M 601.4 50 L 601.4 60" />
        <path d="M 618 50 L 618 70" />
        <path d="M 634.6 50 L 634.6 60" />
        <path d="M 651.2 50 L 651.2 60" />
        <path d="M 667.8 50 L 667.8 60" />
        <path d="M 684.4 50 L 684.4 60" />
        <path d="M 701 50 L 701 60" />
        <path d="M 717.6 50 L 717.6 60" />
        <path d="M 734.2 50 L 734.2 60" />
        <path d="M 750.8 50 L 750.8 60" />
        <path d="M 767.4 50 L 767.4 60" />
        <path d="M 784 50 L 784 70" />
        <path d="M 800.6 50 L 800.6 60" />
        <path d="M 817.2 50 L 817.2 60" />
        <path d="M 833.8 50 L 833.8 60" />
        <path d="M 850.4 50 L 850.4 60" />
        <path d="M 867 50 L 867 60" />
        <path d="M 883.6 50 L 883.6 60" />
        <path d="M 900.2 50 L 900.2 60" />
        <path d="M 916.8 50 L 916.8 60" />
        <path d="M 933.4 50 L 933.4 60" />
        <path d="M 950 50 L 950 70" />
    </g>
    <g id="frame_0_rightticks">
        <path d="M 950 603.652 L 940 603.652" />
        <path d="M 950 445.478 L 940 445.478" />
        <path d="M 950 386.163 L 940 386.163" />
        <path d="M 950 504.793 L 940 504.793" />
        <path d="M 950 247.761 L 940 247.761" />
        <path d="M 950 405.935 L 940 405.935" />
        <path d="M 950 781.598 L 940 781.598" />
        <path d="M 950 821.141 L 930 821.141" />
        <path d="M 950 307.076 L 940 307.076" />
        <path d="M 950 920 L 930 920" />
        <path d="M 950 722.283 L 930 722.283" />
        <path d="M 950 148.902 L 940 148.902" />
        <path d="M 950 840.913 L 940 840.913" />
        <path d="M 950 485.022 L 940 485.022" />
        <path d="M 950 50.0435 L 940 50.0435" />
        <path d="M 950 524.565 L 930 524.565" />
        <path d="M 950 742.054 L 940 742.054" />
        <path d="M 950 623.424 L 930 623.424" />
        <path d="M 950 208.217 L 940 208.217" />
        <path d="M 950 643.196 L 940 643.196" />
        <path d="M 950 346.62 L 940 346.62" />
        <path d="M 950 109.359 L 940 109.359" />
        <path d="M 950 544.337 L 940 544.337" />
        <path d="M 950 267.533 L 940 267.533" />
        <path d="M 950 761.826 L 940 761.826" />
        <path d="M 950 366.391 L 940 366.391" />
        <path d="M 950 425.707 L 930 425.707" />
        <path d="M 950 662.967 L 940 662.967" />
        <path d="M 950 168.674 L 940 168.674" />
        <path d="M 950 326.848 L 930 326.848" />
        <path d="M 950 564.109 L 940 564.109" />
        <path d="M 950 860.685 L 940 860.685" />
        <path d="M 950 69.8152 L 940 69.8152" />
        <path d="M 950 465.25 L 940 465.25" />
        <path d="M 950 227.989 L 930 227.989" />
        <path d="M 950 682.739 L 940 682.739" />
        <path d="M 950 880.457 L 940 880.457" />
        <path d="M 950 900.228 L 940 900.228" />
        <path d="M 950 89.587 L 940 89.587" />
        <path d="M 950 287.304 L 940 287.304" />
        <path d="M 950 801.37 L 940 801.37" />
        <path d="M 950 583.88 L 940 583.88" />
        <path d="M 950 129.13 L 930 129.13" />
        <path d="M 950 702.511 L 940 702.511" />
        <path d="M 950 188.446 L 940 188.446" />
    </g>
</g>
</g>
</svg>
