<?xml version="1.0" standalone="no"?>
<!DOCTYPE svg PUBLIC "-//W3C//DTD SVG 1.1//EN" "http://www.w3.org/Graphics/SVG/1.1/DTD/svg11.dtd">
<svg style="stroke-linejoin:miter; stroke:black; stroke-width:2.5; text-anchor:middle; fill:none" xmlns="http://www.w3.org/2000/svg" font-family="Helvetica, Arial, FreeSans, Sans, sans, sans-serif" width="1000px" height="1000px" version="1.1" xmlns:xlink="http://www.w3.org/1999/xlink" viewBox="0 0 1000 1000">
<defs>
    <clipPath id="Histogram_0_clip">
        <rect x="120" y="50" width="830" height="870" />
    </clipPath>
    <clipPath id="Histogram_1_clip">
        <rect x="120" y="50" width="830" height="870" />
    </clipPath>
</defs>
<g id="whole_document">
<rect id="background" x="0" y="0" width="1000" height="1000" stroke="none" fill="white" />
<g id="Histogram_0" clip-path="url(#Histogram_0_clip)">
    <path d="M 120 920 L 120 855.389 L 161.5 855.389 L 161.5 636.007 L 203 636.007 L 203 900.717 L 244.5 900.717 L 244.5 129.091 L 286 129.091 L 286 818.442 L 327.5 818.442 L 327.5 871.087 L 369 871.087 L 369 917.231 L 410.5 917.231 L 410.5 919.242 L 452 919.242 L 452 916.487 L 493.5 916.487 L 493.5 918.703 L 535 918.703 L 535 920 L 576.5 920 L 576.5 920 L 618 920 L 618 920 L 659.5 920 L 659.5 920 L 701 920 L 701 920 L 742.5 920 L 742.5 920 L 784 920 L 784 920 L 825.5 920 L 825.5 920 L 867 920 L 867 920 L 908.5 920 L 908.5 920 L 950 920 L 950 920" stroke-width="3" stroke-dasharray="" stroke="black" stroke-opacity="1" fill="DodgerBlue" fill-opacity="1" />
</g>
<g id="Histogram_1" clip-path="url(#Histogram_1_clip)">
    <path d="M 120 920 L 120 920 L 161.5 920 L 161.5 920 L 203 920 L 203 920 L 244.5 920 L 244.5 130.767 L 286 130.767 L 286 818.442 L 327.5 818.442 L 327.5 871.087 L 369 871.087 L 369 917.231 L 410.5 917.231 L 410.5 919.242 L 452 919.242 L 452 916.487 L 493.5 916.487 L 493.5 918.703 L 535 918.703 L 535 920 L 576.5 920 L 576.5 920 L 618 920 L 618 920 L 659.5 920 L 659.5 920 L 701 920 L 701 920 L 742.5 920 L 742.5 920 L 784 920 L 784 920 L 825.5 920 L 825.5 920 L 867 920 L 867 920 L 908.5 920 L 908.5 920 L 950 920 L 950 920" stroke-width="3" stroke-dasharray="" stroke="black" stroke-opacity="1" fill="darkorange" fill-opacity="1" />
</g>
<g id="frame_0">
    <rect id="frame_0_border" x="120" y="50" width="830" height="870" />
    <text id="frame_0_bottomlabel" font-size="30" transform="translate(535, 989.6)" text-anchor="middle" dominant-baseline="middle" stroke="none" fill="black">microseconds</text>
    <g id="frame_0_bottomticks">
        <path d="M 120 920 L 120 900" />
        <text font-size="30" transform="translate(120, 950)" text-anchor="middle" dominant-baseline="middle" stroke="none" fill="black">0</text>
        <path d="M 136.6 920 L 136.6 910" />
        <path d="M 153.2 920 L 153.2 910" />
        <path d="M 169.8 920 L 169.8 910" />
        <path d="M 186.4 920 L 186.4 910" />
        <path d="M 203 920 L 203 910" />
        <path d="M 219.6 920 L 219.6 910" />
        <path d="M 236.2 920 L 236.2 910" />
        <path d="M 252.8 920 L 252.8 910" />
        <path d="M 269.4 920 L 269.4 910" />
        <path d="M 286 920 L 286 900" />
        <text font-size="30" transform="translate(286, 950)" text-anchor="middle" dominant-baseline="middle" stroke="none" fill="black">10</text>
        <path d="M 302.6 920 L 302.6 910" />
        <path d="M 319.2 920 L 319.2 910" />
        <path d="M 335.8 920 L 335.8 910" />
        <path d="M 352.4 920 L 352.4 910" />
        <path d="M 369 920 L 369 910" />
        <path d="M 385.6 920 L 385.6 910" />
        <path d="M 402.2 920 L 402.2 910" />
        <path d="M 418.8 920 L 418.8 910" />
        <path d="M 435.4 920 L 435.4 910" />
        <path d="M 452 920 L 452 900" />
        <text font-size="30" transform="translate(452, 950)" text-anchor="middle" dominant-baseline="middle" stroke="none" fill="black">20</text>
        <path d="M 468.6 920 L 468.6 910" />
        <path d="M 485.2 920 L 485.2 910" />
        <path d="M 501.8 920 L 501.8 910" />
        <path d="M 518.4 920 L 518.4 910" />
        <path d="M 535 920 L 535 910" />
        <path d="M 551.6 920 L 551.6 910" />
        <path d="M 568.2 920 L 568.2 910" />
        <path d="M 584.8 920 L 584.8 910" />
        <path d="M 601.4 920 L 601.4 910" />
        <path d="M 618 920 L 618 900" />
        <text font-size="30" transform="translate(618, 950)" text-anchor="middle" dominant-baseline="middle" stroke="none" fill="black">30</text>
        <path d="M 634.6 920 L 634.6 910" />
        <path d="M 651.2 920 L 651.2 910" />
        <path d="M 667.8 920 L 667.8 910" />
        <path d="M 684.4 920 L 684.4 910" />
        <path d="M 701 920 L 701 910" />
        <path d="M 717.6 920 L 717.6 910" />
        <path d="M 734.2 920 L 734.2 910" />
        <path d="M 750.8 920 L 750.8 910" />
        <path d="M 767.4 920 L 767.4 910" />
        <path d="M 784 920 L 784 900" />
        <text font-size="30" transform="translate(784, 950)" text-anchor="middle" dominant-baseline="middle" stroke="none" fill="black">40</text>
        <path d="M 800.6 920 L 800.6 910" />
        <path d="M 817.2 920 L 817.2 910" />
        <path d="M 833.8 920 L 833.8 910" />
        <path d="M 850.4 920 L 850.4 910" />
        <path d="M 867 920 L 867 910" />
        <path d="M 883.6 920 L 883.6 910" />
        <path d="M 900.2 920 L 900.2 910" />
        <path d="M 916.8 920 L 916.8 910" />
        <path d="M 933.4 920 L 933.4 910" />
        <path d="M 950 920 L 950 900" />
        <text font-size="30" transform="translate(950, 950)" text-anchor="middle" dominant-baseline="middle" stroke="none" fill="black">50</text>
    </g>
    <g id="frame_0_leftticks">
        <path d="M 120 686.801 L 130 686.801" />
        <path d="M 120 570.201 L 130 570.201" />
        <path d="M 120 526.477 L 130 526.477" />
        <path d="M 120 613.926 L 130 613.926" />
        <path d="M 120 424.452 L 130 424.452" />
        <path d="M 120 89.2284 L 130 89.2284" />
        <path d="M 120 541.052 L 130 541.052" />
        <path d="M 120 817.975 L 130 817.975" />
        <path d="M 120 234.978 L 130 234.978" />
        <path d="M 120 701.376 L 130 701.376" />
        <path d="M 120 74.6535 L 130 74.6535" />
        <path d="M 120 920 L 140 920" />
        <text font-size="30" transform="translate(110, 930)" text-anchor="end" dominant-baseline="middle" stroke="none" fill="black">0</text>
        <path d="M 120 497.327 L 130 497.327" />
        <path d="M 120 468.177 L 130 468.177" />
        <path d="M 120 351.577 L 130 351.577" />
        <path d="M 120 861.7 L 130 861.7" />
        <path d="M 120 599.351 L 130 599.351" />
        <path d="M 120 278.703 L 130 278.703" />
        <path d="M 120 774.251 L 140 774.251" />
        <text font-size="30" transform="translate(110, 784.251)" text-anchor="end" dominant-baseline="middle" stroke="none" fill="black">10000</text>
        <path d="M 120 60.0786 L 130 60.0786" />
        <path d="M 120 788.826 L 130 788.826" />
        <path d="M 120 482.752 L 140 482.752" />
        <text font-size="30" transform="translate(110, 492.752)" text-anchor="end" dominant-baseline="middle" stroke="none" fill="black">30000</text>
        <path d="M 120 628.501 L 140 628.501" />
        <text font-size="30" transform="translate(110, 638.501)" text-anchor="end" dominant-baseline="middle" stroke="none" fill="black">20000</text>
        <path d="M 120 395.302 L 130 395.302" />
        <path d="M 120 715.951 L 130 715.951" />
        <path d="M 120 847.125 L 130 847.125" />
        <path d="M 120 322.427 L 130 322.427" />
        <path d="M 120 643.076 L 130 643.076" />
        <path d="M 120 205.828 L 130 205.828" />
        <path d="M 120 439.027 L 130 439.027" />
        <path d="M 120 803.4 L 130 803.4" />
        <path d="M 120 511.902 L 130 511.902" />
        <path d="M 120 555.627 L 130 555.627" />
        <path d="M 120 337.002 L 140 337.002" />
        <text font-size="30" transform="translate(110, 347.002)" text-anchor="end" dominant-baseline="middle" stroke="none" fill="black">40000</text>
        <path d="M 120 730.526 L 130 730.526" />
        <path d="M 120 366.152 L 130 366.152" />
        <path d="M 120 162.103 L 130 162.103" />
        <path d="M 120 176.678 L 130 176.678" />
        <path d="M 120 890.85 L 130 890.85" />
        <path d="M 120 876.275 L 130 876.275" />
        <path d="M 120 293.278 L 130 293.278" />
        <path d="M 120 584.776 L 130 584.776" />
        <path d="M 120 147.528 L 130 147.528" />
        <path d="M 120 409.877 L 130 409.877" />
        <path d="M 120 103.803 L 130 103.803" />
        <path d="M 120 745.101 L 130 745.101" />
        <path d="M 120 657.651 L 130 657.651" />
        <path d="M 120 220.403 L 130 220.403" />
        <path d="M 120 132.953 L 130 132.953" />
        <path d="M 120 905.425 L 130 905.425" />
        <path d="M 120 307.853 L 130 307.853" />
        <path d="M 120 453.602 L 130 453.602" />
        <path d="M 120 832.55 L 130 832.55" />
        <path d="M 120 672.226 L 130 672.226" />
        <path d="M 120 118.378 L 130 118.378" />
        <path d="M 120 264.128 L 130 264.128" />
        <path d="M 120 191.253 L 140 191.253" />
        <text font-size="30" transform="translate(110, 201.253)" text-anchor="end" dominant-baseline="middle" stroke="none" fill="black">50000</text>
        <path d="M 120 759.676 L 130 759.676" />
        <path d="M 120 380.727 L 130 380.727" />
        <path d="M 120 249.553 L 130 249.553" />
    </g>
    <text id="frame_0_toplabel" font-size="30" transform="translate(535, 32.6)" text-anchor="middle" dominant-baseline="middle" stroke="none" fill="black">model.cluster.updateMean</text>
    <g id="frame_0_topticks">
        <path d="M 120 50 L 120 70" />
        <path d="M 136.6 50 L 136.6 60" />
        <path d="M 153.2 50 L 153.2 60" />
        <path d="M 169.8 50 L 169.8 60" />
        <path d="M 186.4 50 L 186.4 60" />
        <path d="M 203 50 L 203 60" />
        <path d="M 219.6 50 L 219.6 60" />
        <path d="M 236.2 50 L 236.2 60" />
        <path d="M 252.8 50 L 252.8 60" />
        <path d="M 269.4 50 L 269.4 60" />
        <path d="M 286 50 L 286 70" />
        <path d="M 302.6 50 L 302.6 60" />
        <path d="M 319.2 50 L 319.2 60" />
        <path d="M 335.8 50 L 335.8 60" />
        <path d="M 352.4 50 L 352.4 60" />
        <path d="M 369 50 L 369 60" />
        <path d="M 385.6 50 L 385.6 60" />
        <path d="M 402.2 50 L 402.2 60" />
        <path d="M 418.8 50 L 418.8 60" />
        <path d="M 435.4 50 L 435.4 60" />
        <path d="M 452 50 L 452 70" />
        <path d="M 468.6 50 L 468.6 60" />
        <path d="M 485.2 50 L 485.2 60" />
        <path d="M 501.8 50 L 501.8 60" />
        <path d="M 518.4 50 L 518.4 60" />
        <path d="M 535 50 L 535 60" />
        <path d="M 551.6 50 L 551.6 60" />
        <path d="M 568.2 50 L 568.2 60" />
        <path d="M 584.8 50 L 584.8 60" />
        <path d="M 601.4 50 L 601.4 60" />
        <path d="M 618 50 L 618 70" />
        <path d="M 634.6 50 L 634.6 60" />
        <path d="M 651.2 50 L 651.2 60" />
        <path d="M 667.8 50 L 667.8 60" />
        <path d="M 684.4 50 L 684.4 60" />
        <path d="M 701 50 L 701 60" />
        <path d="M 717.6 50 L 717.6 60" />
        <path d="M 734.2 50 L 734.2 60" />
        <path d="M 750.8 50 L 750.8 60" />
        <path d="M 767.4 50 L 767.4 60" />
        <path d="M 784 50 L 784 70" />
        <path d="M 800.6 50 L 800.6 60" />
        <path d="M 817.2 50 L 817.2 60" />
        <path d="M 833.8 50 L 833.8 60" />
        <path d="M 850.4 50 L 850.4 60" />
        <path d="M 867 50 L 867 60" />
        <path d="M 883.6 50 L 883.6 60" />
        <path d="M 900.2 50 L 900.2 60" />
        <path d="M 916.8 50 L 916.8 60" />
        <path d="M 933.4 50 L 933.4 60" />
        <path d="M 950 50 L 950 70" />
    </g>
    <g id="frame_0_rightticks">
        <path d="M 950 686.801 L 940 686.801" />
        <path d="M 950 570.201 L 940 570.201" />
        <path d="M 950 526.477 L 940 526.477" />
        <path d="M 950 613.926 L 940 613.926" />
        <path d="M 950 424.452 L 940 424.452" />
        <path d="M 950 89.2284 L 940 89.2284" />
        <path d="M 950 541.052 L 940 541.052" />
        <path d="M 950 817.975 L 940 817.975" />
        <path d="M 950 234.978 L 940 234.978" />
        <path d="M 950 701.376 L 940 701.376" />
        <path d="M 950 74.6535 L 940 74.6535" />
        <path d="M 950 920 L 930 920" />
        <path d="M 950 497.327 L 940 497.327" />
        <path d="M 950 468.177 L 940 468.177" />
        <path d="M 950 351.577 L 940 351.577" />
        <path d="M 950 861.7 L 940 861.7" />
        <path d="M 950 599.351 L 940 599.351" />
        <path d="M 950 278.703 L 940 278.703" />
        <path d="M 950 774.251 L 930 774.251" />
        <path d="M 950 60.0786 L 940 60.0786" />
        <path d="M 950 788.826 L 940 788.826" />
        <path d="M 950 482.752 L 930 482.752" />
        <path d="M 950 628.501 L 930 628.501" />
        <path d="M 950 395.302 L 940 395.302" />
        <path d="M 950 715.951 L 940 715.951" />
        <path d="M 950 847.125 L 940 847.125" />
        <path d="M 950 322.427 L 940 322.427" />
        <path d="M 950 643.076 L 940 643.076" />
        <path d="M 950 205.828 L 940 205.828" />
        <path d="M 950 439.027 L 940 439.027" />
        <path d="M 950 803.4 L 940 803.4" />
        <path d="M 950 511.902 L 940 511.902" />
        <path d="M 950 555.627 L 940 555.627" />
        <path d="M 950 337.002 L 930 337.002" />
        <path d="M 950 730.526 L 940 730.526" />
        <path d="M 950 366.152 L 940 366.152" />
        <path d="M 950 162.103 L 940 162.103" />
        <path d="M 950 176.678 L 940 176.678" />
        <path d="M 950 890.85 L 940 890.85" />
        <path d="M 950 876.275 L 940 876.275" />
        <path d="M 950 293.278 L 940 293.278" />
        <path d="M 950 584.776 L 940 584.776" />
        <path d="M 950 147.528 L 940 147.528" />
        <path d="M 950 409.877 L 940 409.877" />
        <path d="M 950 103.803 L 940 103.803" />
        <path d="M 950 745.101 L 940 745.101" />
        <path d="M 950 657.651 L 940 657.651" />
        <path d="M 950 220.403 L 940 220.403" />
        <path d="M 950 132.953 L 940 132.953" />
        <path d="M 950 905.425 L 940 905.425" />
        <path d="M 950 307.853 L 940 307.853" />
        <path d="M 950 453.602 L 940 453.602" />
        <path d="M 950 832.55 L 940 832.55" />
        <path d="M 950 672.226 L 940 672.226" />
        <path d="M 950 118.378 L 940 118.378" />
        <path d="M 950 264.128 L 940 264.128" />
        <path d="M 950 191.253 L 930 191.253" />
        <path d="M 950 759.676 L 940 759.676" />
        <path d="M 950 380.727 L 940 380.727" />
        <path d="M 950 249.553 L 940 249.553" />
    </g>
</g>
</g>
</svg>
