<?xml version="1.0" standalone="no"?>
<!DOCTYPE svg PUBLIC "-//W3C//DTD SVG 1.1//EN" "http://www.w3.org/Graphics/SVG/1.1/DTD/svg11.dtd">
<svg style="stroke-linejoin:miter; stroke:black; stroke-width:2.5; text-anchor:middle; fill:none" xmlns="http://www.w3.org/2000/svg" font-family="Helvetica, Arial, FreeSans, Sans, sans, sans-serif" width="1000px" height="1000px" version="1.1" xmlns:xlink="http://www.w3.org/1999/xlink" viewBox="0 0 1000 1000">
<defs>
    <clipPath id="Histogram_0_clip">
        <rect x="120" y="50" width="830" height="870" />
    </clipPath>
    <clipPath id="Histogram_1_clip">
        <rect x="120" y="50" width="830" height="870" />
    </clipPath>
</defs>
<g id="whole_document">
<rect id="background" x="0" y="0" width="1000" height="1000" stroke="none" fill="white" />
<g id="Histogram_0" clip-path="url(#Histogram_0_clip)">
    <path d="M 120 920 L 120 129.091 L 161.5 129.091 L 161.5 915.58 L 203 915.58 L 203 313.454 L 244.5 313.454 L 244.5 908.599 L 286 908.599 L 286 914.082 L 327.5 914.082 L 327.5 920 L 369 920 L 369 920 L 410.5 920 L 410.5 919.336 L 452 919.336 L 452 920 L 493.5 920 L 493.5 920 L 535 920 L 535 920 L 576.5 920 L 576.5 920 L 618 920 L 618 920 L 659.5 920 L 659.5 920 L 701 920 L 701 920 L 742.5 920 L 742.5 920 L 784 920 L 784 920 L 825.5 920 L 825.5 920 L 867 920 L 867 920 L 908.5 920 L 908.5 920 L 950 920 L 950 920" stroke-width="3" stroke-dasharray="" stroke="black" stroke-opacity="1" fill="DodgerBlue" fill-opacity="1" />
</g>
<g id="Histogram_1" clip-path="url(#Histogram_1_clip)">
    <path d="M 120 920 L 120 920 L 161.5 920 L 161.5 920 L 203 920 L 203 315.23 L 244.5 315.23 L 244.5 908.599 L 286 908.599 L 286 914.082 L 327.5 914.082 L 327.5 920 L 369 920 L 369 920 L 410.5 920 L 410.5 920 L 452 920 L 452 920 L 493.5 920 L 493.5 920 L 535 920 L 535 920 L 576.5 920 L 576.5 920 L 618 920 L 618 920 L 659.5 920 L 659.5 920 L 701 920 L 701 920 L 742.5 920 L 742.5 920 L 784 920 L 784 920 L 825.5 920 L 825.5 920 L 867 920 L 867 920 L 908.5 920 L 908.5 920 L 950 920 L 950 920" stroke-width="3" stroke-dasharray="" stroke="black" stroke-opacity="1" fill="darkorange" fill-opacity="1" />
</g>
<g id="frame_0">
    <rect id="frame_0_border" x="120" y="50" width="830" height="870" />
    <text id="frame_0_bottomlabel" font-size="30" transform="translate(535, 989.6)" text-anchor="middle" dominant-baseline="middle" stroke="none" fill="black">microseconds</text>
    <g id="frame_0_bottomticks">
        <path d="M 120 920 L 120 900" />
        <text font-size="30" transform="translate(120, 950)" text-anchor="middle" dominant-baseline="middle" stroke="none" fill="black">0</text>
        <path d="M 136.6 920 L 136.6 910" />
        <path d="M 153.2 920 L 153.2 910" />
        <path d="M 169.8 920 L 169.8 910" />
        <path d="M 186.4 920 L 186.4 910" />
        <path d="M 203 920 L 203 910" />
        <path d="M 219.6 920 L 219.6 910" />
        <path d="M 236.2 920 L 236.2 910" />
        <path d="M 252.8 920 L 252.8 910" />
        <path d="M 269.4 920 L 269.4 910" />
        <path d="M 286 920 L 286 900" />
        <text font-size="30" transform="translate(286, 950)" text-anchor="middle" dominant-baseline="middle" stroke="none" fill="black">10</text>
        <path d="M 302.6 920 L 302.6 910" />
        <path d="M 319.2 920 L 319.2 910" />
        <path d="M 335.8 920 L 335.8 910" />
        <path d="M 352.4 920 L 352.4 910" />
        <path d="M 369 920 L 369 910" />
        <path d="M 385.6 920 L 385.6 910" />
        <path d="M 402.2 920 L 402.2 910" />
        <path d="M 418.8 920 L 418.8 910" />
        <path d="M 435.4 920 L 435.4 910" />
        <path d="M 452 920 L 452 900" />
        <text font-size="30" transform="translate(452, 950)" text-anchor="middle" dominant-baseline="middle" stroke="none" fill="black">20</text>
        <path d="M 468.6 920 L 468.6 910" />
        <path d="M 485.2 920 L 485.2 910" />
        <path d="M 501.8 920 L 501.8 910" />
        <path d="M 518.4 920 L 518.4 910" />
        <path d="M 535 920 L 535 910" />
        <path d="M 551.6 920 L 551.6 910" />
        <path d="M 568.2 920 L 568.2 910" />
        <path d="M 584.8 920 L 584.8 910" />
        <path d="M 601.4 920 L 601.4 910" />
        <path d="M 618 920 L 618 900" />
        <text font-size="30" transform="translate(618, 950)" text-anchor="middle" dominant-baseline="middle" stroke="none" fill="black">30</text>
        <path d="M 634.6 920 L 634.6 910" />
        <path d="M 651.2 920 L 651.2 910" />
        <path d="M 667.8 920 L 667.8 910" />
        <path d="M 684.4 920 L 684.4 910" />
        <path d="M 701 920 L 701 910" />
        <path d="M 717.6 920 L 717.6 910" />
        <path d="M 734.2 920 L 734.2 910" />
        <path d="M 750.8 920 L 750.8 910" />
        <path d="M 767.4 920 L 767.4 910" />
        <path d="M 784 920 L 784 900" />
        <text font-size="30" transform="translate(784, 950)" text-anchor="middle" dominant-baseline="middle" stroke="none" fill="black">40</text>
        <path d="M 800.6 920 L 800.6 910" />
        <path d="M 817.2 920 L 817.2 910" />
        <path d="M 833.8 920 L 833.8 910" />
        <path d="M 850.4 920 L 850.4 910" />
        <path d="M 867 920 L 867 910" />
        <path d="M 883.6 920 L 883.6 910" />
        <path d="M 900.2 920 L 900.2 910" />
        <path d="M 916.8 920 L 916.8 910" />
        <path d="M 933.4 920 L 933.4 910" />
        <path d="M 950 920 L 950 900" />
        <text font-size="30" transform="translate(950, 950)" text-anchor="middle" dominant-baseline="middle" stroke="none" fill="black">50</text>
    </g>
    <g id="frame_0_leftticks">
        <path d="M 120 726.76 L 130 726.76" />
        <path d="M 120 630.139 L 130 630.139" />
        <path d="M 120 122.883 L 130 122.883" />
        <path d="M 120 593.907 L 130 593.907" />
        <path d="M 120 159.116 L 130 159.116" />
        <path d="M 120 666.372 L 130 666.372" />
        <path d="M 120 509.364 L 130 509.364" />
        <path d="M 120 231.581 L 130 231.581" />
        <path d="M 120 605.984 L 130 605.984" />
        <path d="M 120 835.457 L 130 835.457" />
        <path d="M 120 352.356 L 130 352.356" />
        <path d="M 120 98.728 L 130 98.728" />
        <path d="M 120 738.837 L 130 738.837" />
        <path d="M 120 195.348 L 140 195.348" />
        <text font-size="30" transform="translate(110, 205.348)" text-anchor="end" dominant-baseline="middle" stroke="none" fill="black">60000</text>
        <path d="M 120 219.503 L 130 219.503" />
        <path d="M 120 920 L 140 920" />
        <text font-size="30" transform="translate(110, 930)" text-anchor="end" dominant-baseline="middle" stroke="none" fill="black">0</text>
        <path d="M 120 569.752 L 130 569.752" />
        <path d="M 120 545.597 L 130 545.597" />
        <path d="M 120 448.976 L 130 448.976" />
        <path d="M 120 871.69 L 130 871.69" />
        <path d="M 120 654.294 L 130 654.294" />
        <path d="M 120 388.589 L 130 388.589" />
        <path d="M 120 799.225 L 140 799.225" />
        <text font-size="30" transform="translate(110, 809.225)" text-anchor="end" dominant-baseline="middle" stroke="none" fill="black">10000</text>
        <path d="M 120 207.426 L 130 207.426" />
        <path d="M 120 811.302 L 130 811.302" />
        <path d="M 120 557.674 L 140 557.674" />
        <text font-size="30" transform="translate(110, 567.674)" text-anchor="end" dominant-baseline="middle" stroke="none" fill="black">30000</text>
        <path d="M 120 436.899 L 140 436.899" />
        <text font-size="30" transform="translate(110, 446.899)" text-anchor="end" dominant-baseline="middle" stroke="none" fill="black">40000</text>
        <path d="M 120 485.209 L 130 485.209" />
        <path d="M 120 86.6505 L 130 86.6505" />
        <path d="M 120 750.915 L 130 750.915" />
        <path d="M 120 859.612 L 130 859.612" />
        <path d="M 120 424.821 L 130 424.821" />
        <path d="M 120 690.527 L 130 690.527" />
        <path d="M 120 110.806 L 130 110.806" />
        <path d="M 120 74.5729 L 140 74.5729" />
        <text font-size="30" transform="translate(110, 84.5729)" text-anchor="end" dominant-baseline="middle" stroke="none" fill="black">70000</text>
        <path d="M 120 328.201 L 130 328.201" />
        <path d="M 120 521.442 L 130 521.442" />
        <path d="M 120 823.38 L 130 823.38" />
        <path d="M 120 581.829 L 130 581.829" />
        <path d="M 120 618.062 L 130 618.062" />
        <path d="M 120 183.271 L 130 183.271" />
        <path d="M 120 62.4954 L 130 62.4954" />
        <path d="M 120 762.992 L 130 762.992" />
        <path d="M 120 461.054 L 130 461.054" />
        <path d="M 120 291.968 L 130 291.968" />
        <path d="M 120 304.046 L 130 304.046" />
        <path d="M 120 895.845 L 130 895.845" />
        <path d="M 120 883.767 L 130 883.767" />
        <path d="M 120 678.449 L 140 678.449" />
        <text font-size="30" transform="translate(110, 688.449)" text-anchor="end" dominant-baseline="middle" stroke="none" fill="black">20000</text>
        <path d="M 120 400.666 L 130 400.666" />
        <path d="M 120 147.038 L 130 147.038" />
        <path d="M 120 50.4179 L 130 50.4179" />
        <path d="M 120 642.217 L 130 642.217" />
        <path d="M 120 279.891 L 130 279.891" />
        <path d="M 120 497.286 L 130 497.286" />
        <path d="M 120 243.658 L 130 243.658" />
        <path d="M 120 775.07 L 130 775.07" />
        <path d="M 120 702.604 L 130 702.604" />
        <path d="M 120 340.279 L 130 340.279" />
        <path d="M 120 267.813 L 130 267.813" />
        <path d="M 120 907.922 L 130 907.922" />
        <path d="M 120 171.193 L 130 171.193" />
        <path d="M 120 412.744 L 130 412.744" />
        <path d="M 120 533.519 L 130 533.519" />
        <path d="M 120 847.535 L 130 847.535" />
        <path d="M 120 714.682 L 130 714.682" />
        <path d="M 120 255.736 L 130 255.736" />
        <path d="M 120 376.511 L 130 376.511" />
        <path d="M 120 316.124 L 140 316.124" />
        <text font-size="30" transform="translate(110, 326.124)" text-anchor="end" dominant-baseline="middle" stroke="none" fill="black">50000</text>
        <path d="M 120 787.147 L 130 787.147" />
        <path d="M 120 134.961 L 130 134.961" />
        <path d="M 120 473.131 L 130 473.131" />
        <path d="M 120 364.434 L 130 364.434" />
    </g>
    <text id="frame_0_toplabel" font-size="30" transform="translate(535, 32.6)" text-anchor="middle" dominant-baseline="middle" stroke="none" fill="black">m.special.lnBeta</text>
    <g id="frame_0_topticks">
        <path d="M 120 50 L 120 70" />
        <path d="M 136.6 50 L 136.6 60" />
        <path d="M 153.2 50 L 153.2 60" />
        <path d="M 169.8 50 L 169.8 60" />
        <path d="M 186.4 50 L 186.4 60" />
        <path d="M 203 50 L 203 60" />
        <path d="M 219.6 50 L 219.6 60" />
        <path d="M 236.2 50 L 236.2 60" />
        <path d="M 252.8 50 L 252.8 60" />
        <path d="M 269.4 50 L 269.4 60" />
        <path d="M 286 50 L 286 70" />
        <path d="M 302.6 50 L 302.6 60" />
        <path d="M 319.2 50 L 319.2 60" />
        <path d="M 335.8 50 L 335.8 60" />
        <path d="M 352.4 50 L 352.4 60" />
        <path d="M 369 50 L 369 60" />
        <path d="M 385.6 50 L 385.6 60" />
        <path d="M 402.2 50 L 402.2 60" />
        <path d="M 418.8 50 L 418.8 60" />
        <path d="M 435.4 50 L 435.4 60" />
        <path d="M 452 50 L 452 70" />
        <path d="M 468.6 50 L 468.6 60" />
        <path d="M 485.2 50 L 485.2 60" />
        <path d="M 501.8 50 L 501.8 60" />
        <path d="M 518.4 50 L 518.4 60" />
        <path d="M 535 50 L 535 60" />
        <path d="M 551.6 50 L 551.6 60" />
        <path d="M 568.2 50 L 568.2 60" />
        <path d="M 584.8 50 L 584.8 60" />
        <path d="M 601.4 50 L 601.4 60" />
        <path d="M 618 50 L 618 70" />
        <path d="M 634.6 50 L 634.6 60" />
        <path d="M 651.2 50 L 651.2 60" />
        <path d="M 667.8 50 L 667.8 60" />
        <path d="M 684.4 50 L 684.4 60" />
        <path d="M 701 50 L 701 60" />
        <path d="M 717.6 50 L 717.6 60" />
        <path d="M 734.2 50 L 734.2 60" />
        <path d="M 750.8 50 L 750.8 60" />
        <path d="M 767.4 50 L 767.4 60" />
        <path d="M 784 50 L 784 70" />
        <path d="M 800.6 50 L 800.6 60" />
        <path d="M 817.2 50 L 817.2 60" />
        <path d="M 833.8 50 L 833.8 60" />
        <path d="M 850.4 50 L 850.4 60" />
        <path d="M 867 50 L 867 60" />
        <path d="M 883.6 50 L 883.6 60" />
        <path d="M 900.2 50 L 900.2 60" />
        <path d="M 916.8 50 L 916.8 60" />
        <path d="M 933.4 50 L 933.4 60" />
        <path d="M 950 50 L 950 70" />
    </g>
    <g id="frame_0_rightticks">
        <path d="M 950 726.76 L 940 726.76" />
        <path d="M 950 630.139 L 940 630.139" />
        <path d="M 950 122.883 L 940 122.883" />
        <path d="M 950 593.907 L 940 593.907" />
        <path d="M 950 159.116 L 940 159.116" />
        <path d="M 950 666.372 L 940 666.372" />
        <path d="M 950 509.364 L 940 509.364" />
        <path d="M 950 231.581 L 940 231.581" />
        <path d="M 950 605.984 L 940 605.984" />
        <path d="M 950 835.457 L 940 835.457" />
        <path d="M 950 352.356 L 940 352.356" />
        <path d="M 950 98.728 L 940 98.728" />
        <path d="M 950 738.837 L 940 738.837" />
        <path d="M 950 195.348 L 930 195.348" />
        <path d="M 950 219.503 L 940 219.503" />
        <path d="M 950 920 L 930 920" />
        <path d="M 950 569.752 L 940 569.752" />
        <path d="M 950 545.597 L 940 545.597" />
        <path d="M 950 448.976 L 940 448.976" />
        <path d="M 950 871.69 L 940 871.69" />
        <path d="M 950 654.294 L 940 654.294" />
        <path d="M 950 388.589 L 940 388.589" />
        <path d="M 950 799.225 L 930 799.225" />
        <path d="M 950 207.426 L 940 207.426" />
        <path d="M 950 811.302 L 940 811.302" />
        <path d="M 950 557.674 L 930 557.674" />
        <path d="M 950 436.899 L 930 436.899" />
        <path d="M 950 485.209 L 940 485.209" />
        <path d="M 950 86.6505 L 940 86.6505" />
        <path d="M 950 750.915 L 940 750.915" />
        <path d="M 950 859.612 L 940 859.612" />
        <path d="M 950 424.821 L 940 424.821" />
        <path d="M 950 690.527 L 940 690.527" />
        <path d="M 950 110.806 L 940 110.806" />
        <path d="M 950 74.5729 L 930 74.5729" />
        <path d="M 950 328.201 L 940 328.201" />
        <path d="M 950 521.442 L 940 521.442" />
        <path d="M 950 823.38 L 940 823.38" />
        <path d="M 950 581.829 L 940 581.829" />
        <path d="M 950 618.062 L 940 618.062" />
        <path d="M 950 183.271 L 940 183.271" />
        <path d="M 950 62.4954 L 940 62.4954" />
        <path d="M 950 762.992 L 940 762.992" />
        <path d="M 950 461.054 L 940 461.054" />
        <path d="M 950 291.968 L 940 291.968" />
        <path d="M 950 304.046 L 940 304.046" />
        <path d="M 950 895.845 L 940 895.845" />
        <path d="M 950 883.767 L 940 883.767" />
        <path d="M 950 678.449 L 930 678.449" />
        <path d="M 950 400.666 L 940 400.666" />
        <path d="M 950 147.038 L 940 147.038" />
        <path d="M 950 50.4179 L 940 50.4179" />
        <path d="M 950 642.217 L 940 642.217" />
        <path d="M 950 279.891 L 940 279.891" />
        <path d="M 950 497.286 L 940 497.286" />
        <path d="M 950 243.658 L 940 243.658" />
        <path d="M 950 775.07 L 940 775.07" />
        <path d="M 950 702.604 L 940 702.604" />
        <path d="M 950 340.279 L 940 340.279" />
        <path d="M 950 267.813 L 940 267.813" />
        <path d="M 950 907.922 L 940 907.922" />
        <path d="M 950 171.193 L 940 171.193" />
        <path d="M 950 412.744 L 940 412.744" />
        <path d="M 950 533.519 L 940 533.519" />
        <path d="M 950 847.535 L 940 847.535" />
        <path d="M 950 714.682 L 940 714.682" />
        <path d="M 950 255.736 L 940 255.736" />
        <path d="M 950 376.511 L 940 376.511" />
        <path d="M 950 316.124 L 930 316.124" />
        <path d="M 950 787.147 L 940 787.147" />
        <path d="M 950 134.961 L 940 134.961" />
        <path d="M 950 473.131 L 940 473.131" />
        <path d="M 950 364.434 L 940 364.434" />
    </g>
</g>
</g>
</svg>
