<?xml version="1.0" standalone="no"?>
<!DOCTYPE svg PUBLIC "-//W3C//DTD SVG 1.1//EN" "http://www.w3.org/Graphics/SVG/1.1/DTD/svg11.dtd">
<svg style="stroke-linejoin:miter; stroke:black; stroke-width:2.5; text-anchor:middle; fill:none" xmlns="http://www.w3.org/2000/svg" font-family="Helvetica, Arial, FreeSans, Sans, sans, sans-serif" width="1000px" height="1000px" version="1.1" xmlns:xlink="http://www.w3.org/1999/xlink" viewBox="0 0 1000 1000">
<defs>
    <clipPath id="Histogram_0_clip">
        <rect x="120" y="50" width="830" height="870" />
    </clipPath>
    <clipPath id="Histogram_1_clip">
        <rect x="120" y="50" width="830" height="870" />
    </clipPath>
</defs>
<g id="whole_document">
<rect id="background" x="0" y="0" width="1000" height="1000" stroke="none" fill="white" />
<g id="Histogram_0" clip-path="url(#Histogram_0_clip)">
    <path d="M 120 920 L 120 129.091 L 161.5 129.091 L 161.5 886.038 L 203 886.038 L 203 920 L 244.5 920 L 244.5 895.322 L 286 895.322 L 286 914.357 L 327.5 914.357 L 327.5 920 L 369 920 L 369 920 L 410.5 920 L 410.5 919.42 L 452 919.42 L 452 920 L 493.5 920 L 493.5 920 L 535 920 L 535 920 L 576.5 920 L 576.5 920 L 618 920 L 618 920 L 659.5 920 L 659.5 920 L 701 920 L 701 920 L 742.5 920 L 742.5 920 L 784 920 L 784 920 L 825.5 920 L 825.5 920 L 867 920 L 867 920 L 908.5 920 L 908.5 920 L 950 920 L 950 920" stroke-width="3" stroke-dasharray="" stroke="black" stroke-opacity="1" fill="DodgerBlue" fill-opacity="1" />
</g>
<g id="Histogram_1" clip-path="url(#Histogram_1_clip)">
    <path d="M 120 920 L 120 920 L 161.5 920 L 161.5 920 L 203 920 L 203 920 L 244.5 920 L 244.5 895.322 L 286 895.322 L 286 914.357 L 327.5 914.357 L 327.5 920 L 369 920 L 369 920 L 410.5 920 L 410.5 919.42 L 452 919.42 L 452 920 L 493.5 920 L 493.5 920 L 535 920 L 535 920 L 576.5 920 L 576.5 920 L 618 920 L 618 920 L 659.5 920 L 659.5 920 L 701 920 L 701 920 L 742.5 920 L 742.5 920 L 784 920 L 784 920 L 825.5 920 L 825.5 920 L 867 920 L 867 920 L 908.5 920 L 908.5 920 L 950 920 L 950 920" stroke-width="3" stroke-dasharray="" stroke="black" stroke-opacity="1" fill="darkorange" fill-opacity="1" />
</g>
<g id="frame_0">
    <rect id="frame_0_border" x="120" y="50" width="830" height="870" />
    <text id="frame_0_bottomlabel" font-size="30" transform="translate(535, 989.6)" text-anchor="middle" dominant-baseline="middle" stroke="none" fill="black">microseconds</text>
    <g id="frame_0_bottomticks">
        <path d="M 120 920 L 120 900" />
        <text font-size="30" transform="translate(120, 950)" text-anchor="middle" dominant-baseline="middle" stroke="none" fill="black">0</text>
        <path d="M 136.6 920 L 136.6 910" />
        <path d="M 153.2 920 L 153.2 910" />
        <path d="M 169.8 920 L 169.8 910" />
        <path d="M 186.4 920 L 186.4 910" />
        <path d="M 203 920 L 203 910" />
        <path d="M 219.6 920 L 219.6 910" />
        <path d="M 236.2 920 L 236.2 910" />
        <path d="M 252.8 920 L 252.8 910" />
        <path d="M 269.4 920 L 269.4 910" />
        <path d="M 286 920 L 286 900" />
        <text font-size="30" transform="translate(286, 950)" text-anchor="middle" dominant-baseline="middle" stroke="none" fill="black">10</text>
        <path d="M 302.6 920 L 302.6 910" />
        <path d="M 319.2 920 L 319.2 910" />
        <path d="M 335.8 920 L 335.8 910" />
        <path d="M 352.4 920 L 352.4 910" />
        <path d="M 369 920 L 369 910" />
        <path d="M 385.6 920 L 385.6 910" />
        <path d="M 402.2 920 L 402.2 910" />
        <path d="M 418.8 920 L 418.8 910" />
        <path d="M 435.4 920 L 435.4 910" />
        <path d="M 452 920 L 452 900" />
        <text font-size="30" transform="translate(452, 950)" text-anchor="middle" dominant-baseline="middle" stroke="none" fill="black">20</text>
        <path d="M 468.6 920 L 468.6 910" />
        <path d="M 485.2 920 L 485.2 910" />
        <path d="M 501.8 920 L 501.8 910" />
        <path d="M 518.4 920 L 518.4 910" />
        <path d="M 535 920 L 535 910" />
        <path d="M 551.6 920 L 551.6 910" />
        <path d="M 568.2 920 L 568.2 910" />
        <path d="M 584.8 920 L 584.8 910" />
        <path d="M 601.4 920 L 601.4 910" />
        <path d="M 618 920 L 618 900" />
        <text font-size="30" transform="translate(618, 950)" text-anchor="middle" dominant-baseline="middle" stroke="none" fill="black">30</text>
        <path d="M 634.6 920 L 634.6 910" />
        <path d="M 651.2 920 L 651.2 910" />
        <path d="M 667.8 920 L 667.8 910" />
        <path d="M 684.4 920 L 684.4 910" />
        <path d="M 701 920 L 701 910" />
        <path d="M 717.6 920 L 717.6 910" />
        <path d="M 734.2 920 L 734.2 910" />
        <path d="M 750.8 920 L 750.8 910" />
        <path d="M 767.4 920 L 767.4 910" />
        <path d="M 784 920 L 784 900" />
        <text font-size="30" transform="translate(784, 950)" text-anchor="middle" dominant-baseline="middle" stroke="none" fill="black">40</text>
        <path d="M 800.6 920 L 800.6 910" />
        <path d="M 817.2 920 L 817.2 910" />
        <path d="M 833.8 920 L 833.8 910" />
        <path d="M 850.4 920 L 850.4 910" />
        <path d="M 867 920 L 867 910" />
        <path d="M 883.6 920 L 883.6 910" />
        <path d="M 900.2 920 L 900.2 910" />
        <path d="M 916.8 920 L 916.8 910" />
        <path d="M 933.4 920 L 933.4 910" />
        <path d="M 950 920 L 950 900" />
        <text font-size="30" transform="translate(950, 950)" text-anchor="middle" dominant-baseline="middle" stroke="none" fill="black">50</text>
    </g>
    <g id="frame_0_leftticks">
        <path d="M 120 198.052 L 130 198.052" />
        <path d="M 120 269.23 L 130 269.23" />
        <path d="M 120 920 L 140 920" />
        <text font-size="30" transform="translate(110, 930)" text-anchor="end" dominant-baseline="middle" stroke="none" fill="black">0</text>
        <path d="M 120 65.8645 L 130 65.8645" />
        <path d="M 120 55.6963 L 130 55.6963" />
        <path d="M 120 736.971 L 130 736.971" />
        <path d="M 120 787.812 L 130 787.812" />
        <path d="M 120 492.932 L 130 492.932" />
        <path d="M 120 523.437 L 130 523.437" />
        <path d="M 120 279.398 L 130 279.398" />
        <path d="M 120 818.317 L 140 818.317" />
        <text font-size="30" transform="translate(110, 828.317)" text-anchor="end" dominant-baseline="middle" stroke="none" fill="black">10000</text>
        <path d="M 120 391.249 L 130 391.249" />
        <path d="M 120 777.644 L 130 777.644" />
        <path d="M 120 259.062 L 130 259.062" />
        <path d="M 120 828.485 L 130 828.485" />
        <path d="M 120 553.942 L 130 553.942" />
        <path d="M 120 289.567 L 130 289.567" />
        <path d="M 120 706.466 L 130 706.466" />
        <path d="M 120 716.634 L 140 716.634" />
        <text font-size="30" transform="translate(110, 726.634)" text-anchor="end" dominant-baseline="middle" stroke="none" fill="black">20000</text>
        <path d="M 120 726.803 L 130 726.803" />
        <path d="M 120 157.379 L 130 157.379" />
        <path d="M 120 838.654 L 130 838.654" />
        <path d="M 120 472.596 L 130 472.596" />
        <path d="M 120 452.259 L 130 452.259" />
        <path d="M 120 625.12 L 130 625.12" />
        <path d="M 120 747.139 L 130 747.139" />
        <path d="M 120 614.952 L 140 614.952" />
        <text font-size="30" transform="translate(110, 624.952)" text-anchor="end" dominant-baseline="middle" stroke="none" fill="black">30000</text>
        <path d="M 120 86.2011 L 130 86.2011" />
        <path d="M 120 401.418 L 130 401.418" />
        <path d="M 120 909.832 L 130 909.832" />
        <path d="M 120 848.822 L 130 848.822" />
        <path d="M 120 350.576 L 130 350.576" />
        <path d="M 120 635.288 L 130 635.288" />
        <path d="M 120 330.24 L 130 330.24" />
        <path d="M 120 96.3694 L 130 96.3694" />
        <path d="M 120 858.99 L 130 858.99" />
        <path d="M 120 808.149 L 130 808.149" />
        <path d="M 120 381.081 L 130 381.081" />
        <path d="M 120 533.605 L 130 533.605" />
        <path d="M 120 421.754 L 130 421.754" />
        <path d="M 120 360.745 L 130 360.745" />
        <path d="M 120 411.586 L 140 411.586" />
        <text font-size="30" transform="translate(110, 421.586)" text-anchor="end" dominant-baseline="middle" stroke="none" fill="black">50000</text>
        <path d="M 120 645.456 L 130 645.456" />
        <path d="M 120 116.706 L 130 116.706" />
        <path d="M 120 757.308 L 130 757.308" />
        <path d="M 120 187.884 L 130 187.884" />
        <path d="M 120 543.774 L 130 543.774" />
        <path d="M 120 218.389 L 130 218.389" />
        <path d="M 120 655.625 L 130 655.625" />
        <path d="M 120 767.476 L 130 767.476" />
        <path d="M 120 869.159 L 130 869.159" />
        <path d="M 120 442.091 L 130 442.091" />
        <path d="M 120 309.903 L 140 309.903" />
        <text font-size="30" transform="translate(110, 319.903)" text-anchor="end" dominant-baseline="middle" stroke="none" fill="black">60000</text>
        <path d="M 120 604.783 L 130 604.783" />
        <path d="M 120 177.716 L 130 177.716" />
        <path d="M 120 228.557 L 130 228.557" />
        <path d="M 120 370.913 L 130 370.913" />
        <path d="M 120 899.663 L 130 899.663" />
        <path d="M 120 340.408 L 130 340.408" />
        <path d="M 120 126.874 L 130 126.874" />
        <path d="M 120 299.735 L 130 299.735" />
        <path d="M 120 76.0328 L 130 76.0328" />
        <path d="M 120 238.725 L 130 238.725" />
        <path d="M 120 208.22 L 140 208.22" />
        <text font-size="30" transform="translate(110, 218.22)" text-anchor="end" dominant-baseline="middle" stroke="none" fill="black">70000</text>
        <path d="M 120 797.981 L 130 797.981" />
        <path d="M 120 675.961 L 130 675.961" />
        <path d="M 120 879.327 L 130 879.327" />
        <path d="M 120 665.793 L 130 665.793" />
        <path d="M 120 137.043 L 130 137.043" />
        <path d="M 120 106.538 L 140 106.538" />
        <text font-size="30" transform="translate(110, 116.538)" text-anchor="end" dominant-baseline="middle" stroke="none" fill="black">80000</text>
        <path d="M 120 248.894 L 130 248.894" />
        <path d="M 120 320.072 L 130 320.072" />
        <path d="M 120 686.13 L 130 686.13" />
        <path d="M 120 564.11 L 130 564.11" />
        <path d="M 120 147.211 L 130 147.211" />
        <path d="M 120 574.279 L 130 574.279" />
        <path d="M 120 431.923 L 130 431.923" />
        <path d="M 120 584.447 L 130 584.447" />
        <path d="M 120 594.615 L 130 594.615" />
        <path d="M 120 167.547 L 130 167.547" />
        <path d="M 120 696.298 L 130 696.298" />
        <path d="M 120 503.101 L 130 503.101" />
        <path d="M 120 513.269 L 140 513.269" />
        <text font-size="30" transform="translate(110, 523.269)" text-anchor="end" dominant-baseline="middle" stroke="none" fill="black">40000</text>
        <path d="M 120 889.495 L 130 889.495" />
        <path d="M 120 462.427 L 130 462.427" />
        <path d="M 120 482.764 L 130 482.764" />
    </g>
    <text id="frame_0_toplabel" font-size="30" transform="translate(535, 32.6)" text-anchor="middle" dominant-baseline="middle" stroke="none" fill="black">a.product</text>
    <g id="frame_0_topticks">
        <path d="M 120 50 L 120 70" />
        <path d="M 136.6 50 L 136.6 60" />
        <path d="M 153.2 50 L 153.2 60" />
        <path d="M 169.8 50 L 169.8 60" />
        <path d="M 186.4 50 L 186.4 60" />
        <path d="M 203 50 L 203 60" />
        <path d="M 219.6 50 L 219.6 60" />
        <path d="M 236.2 50 L 236.2 60" />
        <path d="M 252.8 50 L 252.8 60" />
        <path d="M 269.4 50 L 269.4 60" />
        <path d="M 286 50 L 286 70" />
        <path d="M 302.6 50 L 302.6 60" />
        <path d="M 319.2 50 L 319.2 60" />
        <path d="M 335.8 50 L 335.8 60" />
        <path d="M 352.4 50 L 352.4 60" />
        <path d="M 369 50 L 369 60" />
        <path d="M 385.6 50 L 385.6 60" />
        <path d="M 402.2 50 L 402.2 60" />
        <path d="M 418.8 50 L 418.8 60" />
        <path d="M 435.4 50 L 435.4 60" />
        <path d="M 452 50 L 452 70" />
        <path d="M 468.6 50 L 468.6 60" />
        <path d="M 485.2 50 L 485.2 60" />
        <path d="M 501.8 50 L 501.8 60" />
        <path d="M 518.4 50 L 518.4 60" />
        <path d="M 535 50 L 535 60" />
        <path d="M 551.6 50 L 551.6 60" />
        <path d="M 568.2 50 L 568.2 60" />
        <path d="M 584.8 50 L 584.8 60" />
        <path d="M 601.4 50 L 601.4 60" />
        <path d="M 618 50 L 618 70" />
        <path d="M 634.6 50 L 634.6 60" />
        <path d="M 651.2 50 L 651.2 60" />
        <path d="M 667.8 50 L 667.8 60" />
        <path d="M 684.4 50 L 684.4 60" />
        <path d="M 701 50 L 701 60" />
        <path d="M 717.6 50 L 717.6 60" />
        <path d="M 734.2 50 L 734.2 60" />
        <path d="M 750.8 50 L 750.8 60" />
        <path d="M 767.4 50 L 767.4 60" />
        <path d="M 784 50 L 784 70" />
        <path d="M 800.6 50 L 800.6 60" />
        <path d="M 817.2 50 L 817.2 60" />
        <path d="M 833.8 50 L 833.8 60" />
        <path d="M 850.4 50 L 850.4 60" />
        <path d="M 867 50 L 867 60" />
        <path d="M 883.6 50 L 883.6 60" />
        <path d="M 900.2 50 L 900.2 60" />
        <path d="M 916.8 50 L 916.8 60" />
        <path d="M 933.4 50 L 933.4 60" />
        <path d="M 950 50 L 950 70" />
    </g>
    <g id="frame_0_rightticks">
        <path d="M 950 198.052 L 940 198.052" />
        <path d="M 950 269.23 L 940 269.23" />
        <path d="M 950 920 L 930 920" />
        <path d="M 950 65.8645 L 940 65.8645" />
        <path d="M 950 55.6963 L 940 55.6963" />
        <path d="M 950 736.971 L 940 736.971" />
        <path d="M 950 787.812 L 940 787.812" />
        <path d="M 950 492.932 L 940 492.932" />
        <path d="M 950 523.437 L 940 523.437" />
        <path d="M 950 279.398 L 940 279.398" />
        <path d="M 950 818.317 L 930 818.317" />
        <path d="M 950 391.249 L 940 391.249" />
        <path d="M 950 777.644 L 940 777.644" />
        <path d="M 950 259.062 L 940 259.062" />
        <path d="M 950 828.485 L 940 828.485" />
        <path d="M 950 553.942 L 940 553.942" />
        <path d="M 950 289.567 L 940 289.567" />
        <path d="M 950 706.466 L 940 706.466" />
        <path d="M 950 716.634 L 930 716.634" />
        <path d="M 950 726.803 L 940 726.803" />
        <path d="M 950 157.379 L 940 157.379" />
        <path d="M 950 838.654 L 940 838.654" />
        <path d="M 950 472.596 L 940 472.596" />
        <path d="M 950 452.259 L 940 452.259" />
        <path d="M 950 625.12 L 940 625.12" />
        <path d="M 950 747.139 L 940 747.139" />
        <path d="M 950 614.952 L 930 614.952" />
        <path d="M 950 86.2011 L 940 86.2011" />
        <path d="M 950 401.418 L 940 401.418" />
        <path d="M 950 909.832 L 940 909.832" />
        <path d="M 950 848.822 L 940 848.822" />
        <path d="M 950 350.576 L 940 350.576" />
        <path d="M 950 635.288 L 940 635.288" />
        <path d="M 950 330.24 L 940 330.24" />
        <path d="M 950 96.3694 L 940 96.3694" />
        <path d="M 950 858.99 L 940 858.99" />
        <path d="M 950 808.149 L 940 808.149" />
        <path d="M 950 381.081 L 940 381.081" />
        <path d="M 950 533.605 L 940 533.605" />
        <path d="M 950 421.754 L 940 421.754" />
        <path d="M 950 360.745 L 940 360.745" />
        <path d="M 950 411.586 L 930 411.586" />
        <path d="M 950 645.456 L 940 645.456" />
        <path d="M 950 116.706 L 940 116.706" />
        <path d="M 950 757.308 L 940 757.308" />
        <path d="M 950 187.884 L 940 187.884" />
        <path d="M 950 543.774 L 940 543.774" />
        <path d="M 950 218.389 L 940 218.389" />
        <path d="M 950 655.625 L 940 655.625" />
        <path d="M 950 767.476 L 940 767.476" />
        <path d="M 950 869.159 L 940 869.159" />
        <path d="M 950 442.091 L 940 442.091" />
        <path d="M 950 309.903 L 930 309.903" />
        <path d="M 950 604.783 L 940 604.783" />
        <path d="M 950 177.716 L 940 177.716" />
        <path d="M 950 228.557 L 940 228.557" />
        <path d="M 950 370.913 L 940 370.913" />
        <path d="M 950 899.663 L 940 899.663" />
        <path d="M 950 340.408 L 940 340.408" />
        <path d="M 950 126.874 L 940 126.874" />
        <path d="M 950 299.735 L 940 299.735" />
        <path d="M 950 76.0328 L 940 76.0328" />
        <path d="M 950 238.725 L 940 238.725" />
        <path d="M 950 208.22 L 930 208.22" />
        <path d="M 950 797.981 L 940 797.981" />
        <path d="M 950 675.961 L 940 675.961" />
        <path d="M 950 879.327 L 940 879.327" />
        <path d="M 950 665.793 L 940 665.793" />
        <path d="M 950 137.043 L 940 137.043" />
        <path d="M 950 106.538 L 930 106.538" />
        <path d="M 950 248.894 L 940 248.894" />
        <path d="M 950 320.072 L 940 320.072" />
        <path d="M 950 686.13 L 940 686.13" />
        <path d="M 950 564.11 L 940 564.11" />
        <path d="M 950 147.211 L 940 147.211" />
        <path d="M 950 574.279 L 940 574.279" />
        <path d="M 950 431.923 L 940 431.923" />
        <path d="M 950 584.447 L 940 584.447" />
        <path d="M 950 594.615 L 940 594.615" />
        <path d="M 950 167.547 L 940 167.547" />
        <path d="M 950 696.298 L 940 696.298" />
        <path d="M 950 503.101 L 940 503.101" />
        <path d="M 950 513.269 L 930 513.269" />
        <path d="M 950 889.495 L 940 889.495" />
        <path d="M 950 462.427 L 940 462.427" />
        <path d="M 950 482.764 L 940 482.764" />
    </g>
</g>
</g>
</svg>
