<?xml version="1.0" standalone="no"?>
<!DOCTYPE svg PUBLIC "-//W3C//DTD SVG 1.1//EN" "http://www.w3.org/Graphics/SVG/1.1/DTD/svg11.dtd">
<svg style="stroke-linejoin:miter; stroke:black; stroke-width:2.5; text-anchor:middle; fill:none" xmlns="http://www.w3.org/2000/svg" font-family="Helvetica, Arial, FreeSans, Sans, sans, sans-serif" width="1000px" height="1000px" version="1.1" xmlns:xlink="http://www.w3.org/1999/xlink" viewBox="0 0 1000 1000">
<defs>
    <clipPath id="Histogram_0_clip">
        <rect x="120" y="50" width="830" height="870" />
    </clipPath>
    <clipPath id="Histogram_1_clip">
        <rect x="120" y="50" width="830" height="870" />
    </clipPath>
</defs>
<g id="whole_document">
<rect id="background" x="0" y="0" width="1000" height="1000" stroke="none" fill="white" />
<g id="Histogram_0" clip-path="url(#Histogram_0_clip)">
    <path d="M 120 920 L 120 129.091 L 161.5 129.091 L 161.5 851.473 L 203 851.473 L 203 920 L 244.5 920 L 244.5 262.175 L 286 262.175 L 286 681.623 L 327.5 681.623 L 327.5 906.881 L 369 906.881 L 369 920 L 410.5 920 L 410.5 920 L 452 920 L 452 920 L 493.5 920 L 493.5 920 L 535 920 L 535 920 L 576.5 920 L 576.5 920 L 618 920 L 618 920 L 659.5 920 L 659.5 920 L 701 920 L 701 920 L 742.5 920 L 742.5 920 L 784 920 L 784 920 L 825.5 920 L 825.5 920 L 867 920 L 867 920 L 908.5 920 L 908.5 920 L 950 920 L 950 920" stroke-width="3" stroke-dasharray="" stroke="black" stroke-opacity="1" fill="DodgerBlue" fill-opacity="1" />
</g>
<g id="Histogram_1" clip-path="url(#Histogram_1_clip)">
    <path d="M 120 920 L 120 920 L 161.5 920 L 161.5 920 L 203 920 L 203 920 L 244.5 920 L 244.5 283.234 L 286 283.234 L 286 681.623 L 327.5 681.623 L 327.5 906.881 L 369 906.881 L 369 920 L 410.5 920 L 410.5 920 L 452 920 L 452 920 L 493.5 920 L 493.5 920 L 535 920 L 535 920 L 576.5 920 L 576.5 920 L 618 920 L 618 920 L 659.5 920 L 659.5 920 L 701 920 L 701 920 L 742.5 920 L 742.5 920 L 784 920 L 784 920 L 825.5 920 L 825.5 920 L 867 920 L 867 920 L 908.5 920 L 908.5 920 L 950 920 L 950 920" stroke-width="3" stroke-dasharray="" stroke="black" stroke-opacity="1" fill="darkorange" fill-opacity="1" />
</g>
<g id="frame_0">
    <rect id="frame_0_border" x="120" y="50" width="830" height="870" />
    <text id="frame_0_bottomlabel" font-size="30" transform="translate(535, 989.6)" text-anchor="middle" dominant-baseline="middle" stroke="none" fill="black">microseconds</text>
    <g id="frame_0_bottomticks">
        <path d="M 120 920 L 120 900" />
        <text font-size="30" transform="translate(120, 950)" text-anchor="middle" dominant-baseline="middle" stroke="none" fill="black">0</text>
        <path d="M 136.6 920 L 136.6 910" />
        <path d="M 153.2 920 L 153.2 910" />
        <path d="M 169.8 920 L 169.8 910" />
        <path d="M 186.4 920 L 186.4 910" />
        <path d="M 203 920 L 203 910" />
        <path d="M 219.6 920 L 219.6 910" />
        <path d="M 236.2 920 L 236.2 910" />
        <path d="M 252.8 920 L 252.8 910" />
        <path d="M 269.4 920 L 269.4 910" />
        <path d="M 286 920 L 286 900" />
        <text font-size="30" transform="translate(286, 950)" text-anchor="middle" dominant-baseline="middle" stroke="none" fill="black">10</text>
        <path d="M 302.6 920 L 302.6 910" />
        <path d="M 319.2 920 L 319.2 910" />
        <path d="M 335.8 920 L 335.8 910" />
        <path d="M 352.4 920 L 352.4 910" />
        <path d="M 369 920 L 369 910" />
        <path d="M 385.6 920 L 385.6 910" />
        <path d="M 402.2 920 L 402.2 910" />
        <path d="M 418.8 920 L 418.8 910" />
        <path d="M 435.4 920 L 435.4 910" />
        <path d="M 452 920 L 452 900" />
        <text font-size="30" transform="translate(452, 950)" text-anchor="middle" dominant-baseline="middle" stroke="none" fill="black">20</text>
        <path d="M 468.6 920 L 468.6 910" />
        <path d="M 485.2 920 L 485.2 910" />
        <path d="M 501.8 920 L 501.8 910" />
        <path d="M 518.4 920 L 518.4 910" />
        <path d="M 535 920 L 535 910" />
        <path d="M 551.6 920 L 551.6 910" />
        <path d="M 568.2 920 L 568.2 910" />
        <path d="M 584.8 920 L 584.8 910" />
        <path d="M 601.4 920 L 601.4 910" />
        <path d="M 618 920 L 618 900" />
        <text font-size="30" transform="translate(618, 950)" text-anchor="middle" dominant-baseline="middle" stroke="none" fill="black">30</text>
        <path d="M 634.6 920 L 634.6 910" />
        <path d="M 651.2 920 L 651.2 910" />
        <path d="M 667.8 920 L 667.8 910" />
        <path d="M 684.4 920 L 684.4 910" />
        <path d="M 701 920 L 701 910" />
        <path d="M 717.6 920 L 717.6 910" />
        <path d="M 734.2 920 L 734.2 910" />
        <path d="M 750.8 920 L 750.8 910" />
        <path d="M 767.4 920 L 767.4 910" />
        <path d="M 784 920 L 784 900" />
        <text font-size="30" transform="translate(784, 950)" text-anchor="middle" dominant-baseline="middle" stroke="none" fill="black">40</text>
        <path d="M 800.6 920 L 800.6 910" />
        <path d="M 817.2 920 L 817.2 910" />
        <path d="M 833.8 920 L 833.8 910" />
        <path d="M 850.4 920 L 850.4 910" />
        <path d="M 867 920 L 867 910" />
        <path d="M 883.6 920 L 883.6 910" />
        <path d="M 900.2 920 L 900.2 910" />
        <path d="M 916.8 920 L 916.8 910" />
        <path d="M 933.4 920 L 933.4 910" />
        <path d="M 950 920 L 950 900" />
        <text font-size="30" transform="translate(950, 950)" text-anchor="middle" dominant-baseline="middle" stroke="none" fill="black">50</text>
    </g>
    <g id="frame_0_leftticks">
        <path d="M 120 367.641 L 130 367.641" />
        <path d="M 120 91.4614 L 130 91.4614" />
        <path d="M 120 764.649 L 130 764.649" />
        <path d="M 120 920 L 140 920" />
        <text font-size="30" transform="translate(110, 930)" text-anchor="end" dominant-baseline="middle" stroke="none" fill="black">0</text>
        <path d="M 120 609.298 L 130 609.298" />
        <path d="M 120 315.857 L 130 315.857" />
        <path d="M 120 453.947 L 130 453.947" />
        <path d="M 120 850.955 L 130 850.955" />
        <path d="M 120 264.074 L 130 264.074" />
        <path d="M 120 56.939 L 140 56.939" />
        <text font-size="30" transform="translate(110, 66.939)" text-anchor="end" dominant-baseline="middle" stroke="none" fill="black">5000</text>
        <path d="M 120 695.604 L 130 695.604" />
        <path d="M 120 540.253 L 130 540.253" />
        <path d="M 120 212.29 L 130 212.29" />
        <path d="M 120 384.902 L 130 384.902" />
        <path d="M 120 781.91 L 130 781.91" />
        <path d="M 120 160.506 L 130 160.506" />
        <path d="M 120 626.559 L 130 626.559" />
        <path d="M 120 471.208 L 130 471.208" />
        <path d="M 120 108.723 L 130 108.723" />
        <path d="M 120 868.216 L 130 868.216" />
        <path d="M 120 712.865 L 130 712.865" />
        <path d="M 120 333.119 L 130 333.119" />
        <path d="M 120 557.514 L 130 557.514" />
        <path d="M 120 402.163 L 140 402.163" />
        <text font-size="30" transform="translate(110, 412.163)" text-anchor="end" dominant-baseline="middle" stroke="none" fill="black">3000</text>
        <path d="M 120 281.335 L 130 281.335" />
        <path d="M 120 799.171 L 130 799.171" />
        <path d="M 120 643.82 L 130 643.82" />
        <path d="M 120 229.551 L 140 229.551" />
        <text font-size="30" transform="translate(110, 239.551)" text-anchor="end" dominant-baseline="middle" stroke="none" fill="black">4000</text>
        <path d="M 120 488.47 L 130 488.47" />
        <path d="M 120 885.478 L 130 885.478" />
        <path d="M 120 177.768 L 130 177.768" />
        <path d="M 120 730.127 L 130 730.127" />
        <path d="M 120 574.776 L 140 574.776" />
        <text font-size="30" transform="translate(110, 584.776)" text-anchor="end" dominant-baseline="middle" stroke="none" fill="black">2000</text>
        <path d="M 120 125.984 L 130 125.984" />
        <path d="M 120 419.425 L 130 419.425" />
        <path d="M 120 74.2002 L 130 74.2002" />
        <path d="M 120 816.433 L 130 816.433" />
        <path d="M 120 350.38 L 130 350.38" />
        <path d="M 120 661.082 L 130 661.082" />
        <path d="M 120 505.731 L 130 505.731" />
        <path d="M 120 298.596 L 130 298.596" />
        <path d="M 120 902.739 L 130 902.739" />
        <path d="M 120 195.029 L 130 195.029" />
        <path d="M 120 246.812 L 130 246.812" />
        <path d="M 120 592.037 L 130 592.037" />
        <path d="M 120 436.686 L 130 436.686" />
        <path d="M 120 747.388 L 140 747.388" />
        <text font-size="30" transform="translate(110, 757.388)" text-anchor="end" dominant-baseline="middle" stroke="none" fill="black">1000</text>
        <path d="M 120 833.694 L 130 833.694" />
        <path d="M 120 678.343 L 130 678.343" />
        <path d="M 120 143.245 L 130 143.245" />
        <path d="M 120 522.992 L 130 522.992" />
    </g>
    <text id="frame_0_toplabel" font-size="30" transform="translate(535, 32.6)" text-anchor="middle" dominant-baseline="middle" stroke="none" fill="black">rand.histogram</text>
    <g id="frame_0_topticks">
        <path d="M 120 50 L 120 70" />
        <path d="M 136.6 50 L 136.6 60" />
        <path d="M 153.2 50 L 153.2 60" />
        <path d="M 169.8 50 L 169.8 60" />
        <path d="M 186.4 50 L 186.4 60" />
        <path d="M 203 50 L 203 60" />
        <path d="M 219.6 50 L 219.6 60" />
        <path d="M 236.2 50 L 236.2 60" />
        <path d="M 252.8 50 L 252.8 60" />
        <path d="M 269.4 50 L 269.4 60" />
        <path d="M 286 50 L 286 70" />
        <path d="M 302.6 50 L 302.6 60" />
        <path d="M 319.2 50 L 319.2 60" />
        <path d="M 335.8 50 L 335.8 60" />
        <path d="M 352.4 50 L 352.4 60" />
        <path d="M 369 50 L 369 60" />
        <path d="M 385.6 50 L 385.6 60" />
        <path d="M 402.2 50 L 402.2 60" />
        <path d="M 418.8 50 L 418.8 60" />
        <path d="M 435.4 50 L 435.4 60" />
        <path d="M 452 50 L 452 70" />
        <path d="M 468.6 50 L 468.6 60" />
        <path d="M 485.2 50 L 485.2 60" />
        <path d="M 501.8 50 L 501.8 60" />
        <path d="M 518.4 50 L 518.4 60" />
        <path d="M 535 50 L 535 60" />
        <path d="M 551.6 50 L 551.6 60" />
        <path d="M 568.2 50 L 568.2 60" />
        <path d="M 584.8 50 L 584.8 60" />
        <path d="M 601.4 50 L 601.4 60" />
        <path d="M 618 50 L 618 70" />
        <path d="M 634.6 50 L 634.6 60" />
        <path d="M 651.2 50 L 651.2 60" />
        <path d="M 667.8 50 L 667.8 60" />
        <path d="M 684.4 50 L 684.4 60" />
        <path d="M 701 50 L 701 60" />
        <path d="M 717.6 50 L 717.6 60" />
        <path d="M 734.2 50 L 734.2 60" />
        <path d="M 750.8 50 L 750.8 60" />
        <path d="M 767.4 50 L 767.4 60" />
        <path d="M 784 50 L 784 70" />
        <path d="M 800.6 50 L 800.6 60" />
        <path d="M 817.2 50 L 817.2 60" />
        <path d="M 833.8 50 L 833.8 60" />
        <path d="M 850.4 50 L 850.4 60" />
        <path d="M 867 50 L 867 60" />
        <path d="M 883.6 50 L 883.6 60" />
        <path d="M 900.2 50 L 900.2 60" />
        <path d="M 916.8 50 L 916.8 60" />
        <path d="M 933.4 50 L 933.4 60" />
        <path d="M 950 50 L 950 70" />
    </g>
    <g id="frame_0_rightticks">
        <path d="M 950 367.641 L 940 367.641" />
        <path d="M 950 91.4614 L 940 91.4614" />
        <path d="M 950 764.649 L 940 764.649" />
        <path d="M 950 920 L 930 920" />
        <path d="M 950 609.298 L 940 609.298" />
        <path d="M 950 315.857 L 940 315.857" />
        <path d="M 950 453.947 L 940 453.947" />
        <path d="M 950 850.955 L 940 850.955" />
        <path d="M 950 264.074 L 940 264.074" />
        <path d="M 950 56.939 L 930 56.939" />
        <path d="M 950 695.604 L 940 695.604" />
        <path d="M 950 540.253 L 940 540.253" />
        <path d="M 950 212.29 L 940 212.29" />
        <path d="M 950 384.902 L 940 384.902" />
        <path d="M 950 781.91 L 940 781.91" />
        <path d="M 950 160.506 L 940 160.506" />
        <path d="M 950 626.559 L 940 626.559" />
        <path d="M 950 471.208 L 940 471.208" />
        <path d="M 950 108.723 L 940 108.723" />
        <path d="M 950 868.216 L 940 868.216" />
        <path d="M 950 712.865 L 940 712.865" />
        <path d="M 950 333.119 L 940 333.119" />
        <path d="M 950 557.514 L 940 557.514" />
        <path d="M 950 402.163 L 930 402.163" />
        <path d="M 950 281.335 L 940 281.335" />
        <path d="M 950 799.171 L 940 799.171" />
        <path d="M 950 643.82 L 940 643.82" />
        <path d="M 950 229.551 L 930 229.551" />
        <path d="M 950 488.47 L 940 488.47" />
        <path d="M 950 885.478 L 940 885.478" />
        <path d="M 950 177.768 L 940 177.768" />
        <path d="M 950 730.127 L 940 730.127" />
        <path d="M 950 574.776 L 930 574.776" />
        <path d="M 950 125.984 L 940 125.984" />
        <path d="M 950 419.425 L 940 419.425" />
        <path d="M 950 74.2002 L 940 74.2002" />
        <path d="M 950 816.433 L 940 816.433" />
        <path d="M 950 350.38 L 940 350.38" />
        <path d="M 950 661.082 L 940 661.082" />
        <path d="M 950 505.731 L 940 505.731" />
        <path d="M 950 298.596 L 940 298.596" />
        <path d="M 950 902.739 L 940 902.739" />
        <path d="M 950 195.029 L 940 195.029" />
        <path d="M 950 246.812 L 940 246.812" />
        <path d="M 950 592.037 L 940 592.037" />
        <path d="M 950 436.686 L 940 436.686" />
        <path d="M 950 747.388 L 930 747.388" />
        <path d="M 950 833.694 L 940 833.694" />
        <path d="M 950 678.343 L 940 678.343" />
        <path d="M 950 143.245 L 940 143.245" />
        <path d="M 950 522.992 L 940 522.992" />
    </g>
</g>
</g>
</svg>
