<?xml version="1.0" standalone="no"?>
<!DOCTYPE svg PUBLIC "-//W3C//DTD SVG 1.1//EN" "http://www.w3.org/Graphics/SVG/1.1/DTD/svg11.dtd">
<svg style="stroke-linejoin:miter; stroke:black; stroke-width:2.5; text-anchor:middle; fill:none" xmlns="http://www.w3.org/2000/svg" font-family="Helvetica, Arial, FreeSans, Sans, sans, sans-serif" width="1000px" height="1000px" version="1.1" xmlns:xlink="http://www.w3.org/1999/xlink" viewBox="0 0 1000 1000">
<defs>
    <clipPath id="Histogram_0_clip">
        <rect x="120" y="50" width="830" height="870" />
    </clipPath>
</defs>
<g id="whole_document">
<rect id="background" x="0" y="0" width="1000" height="1000" stroke="none" fill="white" />
<g id="Histogram_0" clip-path="url(#Histogram_0_clip)">
    <path d="M 120 920 L 120 129.091 L 161.5 129.091 L 161.5 835.858 L 203 835.858 L 203 918.421 L 244.5 918.421 L 244.5 920 L 286 920 L 286 920 L 327.5 920 L 327.5 920 L 369 920 L 369 920 L 410.5 920 L 410.5 920 L 452 920 L 452 920 L 493.5 920 L 493.5 920 L 535 920 L 535 920 L 576.5 920 L 576.5 920 L 618 920 L 618 920 L 659.5 920 L 659.5 920 L 701 920 L 701 920 L 742.5 920 L 742.5 920 L 784 920 L 784 920 L 825.5 920 L 825.5 920 L 867 920 L 867 920 L 908.5 920 L 908.5 920 L 950 920 L 950 920" stroke-width="3" stroke-dasharray="" stroke="black" stroke-opacity="1" fill="DodgerBlue" fill-opacity="1" />
</g>
<g id="frame_0">
    <rect id="frame_0_border" x="120" y="50" width="830" height="870" />
    <text id="frame_0_bottomlabel" font-size="30" transform="translate(535, 989.6)" text-anchor="middle" dominant-baseline="middle" stroke="none" fill="black">microseconds</text>
    <g id="frame_0_bottomticks">
        <path d="M 120 920 L 120 900" />
        <text font-size="30" transform="translate(120, 950)" text-anchor="middle" dominant-baseline="middle" stroke="none" fill="black">0</text>
        <path d="M 136.6 920 L 136.6 910" />
        <path d="M 153.2 920 L 153.2 910" />
        <path d="M 169.8 920 L 169.8 910" />
        <path d="M 186.4 920 L 186.4 910" />
        <path d="M 203 920 L 203 910" />
        <path d="M 219.6 920 L 219.6 910" />
        <path d="M 236.2 920 L 236.2 910" />
        <path d="M 252.8 920 L 252.8 910" />
        <path d="M 269.4 920 L 269.4 910" />
        <path d="M 286 920 L 286 900" />
        <text font-size="30" transform="translate(286, 950)" text-anchor="middle" dominant-baseline="middle" stroke="none" fill="black">10</text>
        <path d="M 302.6 920 L 302.6 910" />
        <path d="M 319.2 920 L 319.2 910" />
        <path d="M 335.8 920 L 335.8 910" />
        <path d="M 352.4 920 L 352.4 910" />
        <path d="M 369 920 L 369 910" />
        <path d="M 385.6 920 L 385.6 910" />
        <path d="M 402.2 920 L 402.2 910" />
        <path d="M 418.8 920 L 418.8 910" />
        <path d="M 435.4 920 L 435.4 910" />
        <path d="M 452 920 L 452 900" />
        <text font-size="30" transform="translate(452, 950)" text-anchor="middle" dominant-baseline="middle" stroke="none" fill="black">20</text>
        <path d="M 468.6 920 L 468.6 910" />
        <path d="M 485.2 920 L 485.2 910" />
        <path d="M 501.8 920 L 501.8 910" />
        <path d="M 518.4 920 L 518.4 910" />
        <path d="M 535 920 L 535 910" />
        <path d="M 551.6 920 L 551.6 910" />
        <path d="M 568.2 920 L 568.2 910" />
        <path d="M 584.8 920 L 584.8 910" />
        <path d="M 601.4 920 L 601.4 910" />
        <path d="M 618 920 L 618 900" />
        <text font-size="30" transform="translate(618, 950)" text-anchor="middle" dominant-baseline="middle" stroke="none" fill="black">30</text>
        <path d="M 634.6 920 L 634.6 910" />
        <path d="M 651.2 920 L 651.2 910" />
        <path d="M 667.8 920 L 667.8 910" />
        <path d="M 684.4 920 L 684.4 910" />
        <path d="M 701 920 L 701 910" />
        <path d="M 717.6 920 L 717.6 910" />
        <path d="M 734.2 920 L 734.2 910" />
        <path d="M 750.8 920 L 750.8 910" />
        <path d="M 767.4 920 L 767.4 910" />
        <path d="M 784 920 L 784 900" />
        <text font-size="30" transform="translate(784, 950)" text-anchor="middle" dominant-baseline="middle" stroke="none" fill="black">40</text>
        <path d="M 800.6 920 L 800.6 910" />
        <path d="M 817.2 920 L 817.2 910" />
        <path d="M 833.8 920 L 833.8 910" />
        <path d="M 850.4 920 L 850.4 910" />
        <path d="M 867 920 L 867 910" />
        <path d="M 883.6 920 L 883.6 910" />
        <path d="M 900.2 920 L 900.2 910" />
        <path d="M 916.8 920 L 916.8 910" />
        <path d="M 933.4 920 L 933.4 910" />
        <path d="M 950 920 L 950 900" />
        <text font-size="30" transform="translate(950, 950)" text-anchor="middle" dominant-baseline="middle" stroke="none" fill="black">50</text>
    </g>
    <g id="frame_0_leftticks">
        <path d="M 120 745.748 L 130 745.748" />
        <path d="M 120 658.622 L 130 658.622" />
        <path d="M 120 201.21 L 130 201.21" />
        <path d="M 120 625.949 L 130 625.949" />
        <path d="M 120 233.882 L 130 233.882" />
        <path d="M 120 691.294 L 130 691.294" />
        <path d="M 120 81.4111 L 130 81.4111" />
        <path d="M 120 549.714 L 130 549.714" />
        <path d="M 120 92.3019 L 130 92.3019" />
        <path d="M 120 299.226 L 130 299.226" />
        <path d="M 120 636.84 L 130 636.84" />
        <path d="M 120 843.765 L 130 843.765" />
        <path d="M 120 408.134 L 130 408.134" />
        <path d="M 120 179.428 L 130 179.428" />
        <path d="M 120 756.639 L 130 756.639" />
        <path d="M 120 266.554 L 140 266.554" />
        <text font-size="30" transform="translate(110, 276.554)" text-anchor="end" dominant-baseline="middle" stroke="none" fill="black">60000</text>
        <path d="M 120 288.336 L 130 288.336" />
        <path d="M 120 920 L 140 920" />
        <text font-size="30" transform="translate(110, 930)" text-anchor="end" dominant-baseline="middle" stroke="none" fill="black">0</text>
        <path d="M 120 604.168 L 130 604.168" />
        <path d="M 120 582.386 L 130 582.386" />
        <path d="M 120 495.26 L 130 495.26" />
        <path d="M 120 876.437 L 130 876.437" />
        <path d="M 120 680.403 L 130 680.403" />
        <path d="M 120 70.5204 L 130 70.5204" />
        <path d="M 120 440.806 L 130 440.806" />
        <path d="M 120 811.092 L 140 811.092" />
        <text font-size="30" transform="translate(110, 821.092)" text-anchor="end" dominant-baseline="middle" stroke="none" fill="black">10000</text>
        <path d="M 120 277.445 L 130 277.445" />
        <path d="M 120 821.983 L 130 821.983" />
        <path d="M 120 593.277 L 140 593.277" />
        <text font-size="30" transform="translate(110, 603.277)" text-anchor="end" dominant-baseline="middle" stroke="none" fill="black">30000</text>
        <path d="M 120 484.369 L 140 484.369" />
        <text font-size="30" transform="translate(110, 494.369)" text-anchor="end" dominant-baseline="middle" stroke="none" fill="black">40000</text>
        <path d="M 120 527.932 L 130 527.932" />
        <path d="M 120 168.537 L 130 168.537" />
        <path d="M 120 767.529 L 130 767.529" />
        <path d="M 120 865.546 L 130 865.546" />
        <path d="M 120 473.479 L 130 473.479" />
        <path d="M 120 713.075 L 130 713.075" />
        <path d="M 120 190.319 L 130 190.319" />
        <path d="M 120 157.646 L 140 157.646" />
        <text font-size="30" transform="translate(110, 167.646)" text-anchor="end" dominant-baseline="middle" stroke="none" fill="black">70000</text>
        <path d="M 120 386.353 L 130 386.353" />
        <path d="M 120 560.605 L 130 560.605" />
        <path d="M 120 832.874 L 130 832.874" />
        <path d="M 120 615.059 L 130 615.059" />
        <path d="M 120 647.731 L 130 647.731" />
        <path d="M 120 255.663 L 130 255.663" />
        <path d="M 120 146.756 L 130 146.756" />
        <path d="M 120 778.42 L 130 778.42" />
        <path d="M 120 506.151 L 130 506.151" />
        <path d="M 120 353.68 L 130 353.68" />
        <path d="M 120 364.571 L 130 364.571" />
        <path d="M 120 898.218 L 130 898.218" />
        <path d="M 120 887.328 L 130 887.328" />
        <path d="M 120 702.185 L 140 702.185" />
        <text font-size="30" transform="translate(110, 712.185)" text-anchor="end" dominant-baseline="middle" stroke="none" fill="black">20000</text>
        <path d="M 120 451.697 L 130 451.697" />
        <path d="M 120 222.991 L 130 222.991" />
        <path d="M 120 135.865 L 130 135.865" />
        <path d="M 120 669.512 L 130 669.512" />
        <path d="M 120 342.789 L 130 342.789" />
        <path d="M 120 538.823 L 130 538.823" />
        <path d="M 120 310.117 L 130 310.117" />
        <path d="M 120 789.311 L 130 789.311" />
        <path d="M 120 723.966 L 130 723.966" />
        <path d="M 120 397.243 L 130 397.243" />
        <path d="M 120 124.974 L 130 124.974" />
        <path d="M 120 331.899 L 130 331.899" />
        <path d="M 120 909.109 L 130 909.109" />
        <path d="M 120 244.773 L 130 244.773" />
        <path d="M 120 462.588 L 130 462.588" />
        <path d="M 120 571.496 L 130 571.496" />
        <path d="M 120 114.083 L 130 114.083" />
        <path d="M 120 854.655 L 130 854.655" />
        <path d="M 120 734.857 L 130 734.857" />
        <path d="M 120 321.008 L 130 321.008" />
        <path d="M 120 59.6296 L 130 59.6296" />
        <path d="M 120 429.916 L 130 429.916" />
        <path d="M 120 375.462 L 140 375.462" />
        <text font-size="30" transform="translate(110, 385.462)" text-anchor="end" dominant-baseline="middle" stroke="none" fill="black">50000</text>
        <path d="M 120 800.202 L 130 800.202" />
        <path d="M 120 212.1 L 130 212.1" />
        <path d="M 120 517.042 L 130 517.042" />
        <path d="M 120 103.193 L 130 103.193" />
        <path d="M 120 419.025 L 130 419.025" />
    </g>
    <text id="frame_0_toplabel" font-size="30" transform="translate(535, 32.6)" text-anchor="middle" dominant-baseline="middle" stroke="none" fill="black">a.filterWithIndex</text>
    <g id="frame_0_topticks">
        <path d="M 120 50 L 120 70" />
        <path d="M 136.6 50 L 136.6 60" />
        <path d="M 153.2 50 L 153.2 60" />
        <path d="M 169.8 50 L 169.8 60" />
        <path d="M 186.4 50 L 186.4 60" />
        <path d="M 203 50 L 203 60" />
        <path d="M 219.6 50 L 219.6 60" />
        <path d="M 236.2 50 L 236.2 60" />
        <path d="M 252.8 50 L 252.8 60" />
        <path d="M 269.4 50 L 269.4 60" />
        <path d="M 286 50 L 286 70" />
        <path d="M 302.6 50 L 302.6 60" />
        <path d="M 319.2 50 L 319.2 60" />
        <path d="M 335.8 50 L 335.8 60" />
        <path d="M 352.4 50 L 352.4 60" />
        <path d="M 369 50 L 369 60" />
        <path d="M 385.6 50 L 385.6 60" />
        <path d="M 402.2 50 L 402.2 60" />
        <path d="M 418.8 50 L 418.8 60" />
        <path d="M 435.4 50 L 435.4 60" />
        <path d="M 452 50 L 452 70" />
        <path d="M 468.6 50 L 468.6 60" />
        <path d="M 485.2 50 L 485.2 60" />
        <path d="M 501.8 50 L 501.8 60" />
        <path d="M 518.4 50 L 518.4 60" />
        <path d="M 535 50 L 535 60" />
        <path d="M 551.6 50 L 551.6 60" />
        <path d="M 568.2 50 L 568.2 60" />
        <path d="M 584.8 50 L 584.8 60" />
        <path d="M 601.4 50 L 601.4 60" />
        <path d="M 618 50 L 618 70" />
        <path d="M 634.6 50 L 634.6 60" />
        <path d="M 651.2 50 L 651.2 60" />
        <path d="M 667.8 50 L 667.8 60" />
        <path d="M 684.4 50 L 684.4 60" />
        <path d="M 701 50 L 701 60" />
        <path d="M 717.6 50 L 717.6 60" />
        <path d="M 734.2 50 L 734.2 60" />
        <path d="M 750.8 50 L 750.8 60" />
        <path d="M 767.4 50 L 767.4 60" />
        <path d="M 784 50 L 784 70" />
        <path d="M 800.6 50 L 800.6 60" />
        <path d="M 817.2 50 L 817.2 60" />
        <path d="M 833.8 50 L 833.8 60" />
        <path d="M 850.4 50 L 850.4 60" />
        <path d="M 867 50 L 867 60" />
        <path d="M 883.6 50 L 883.6 60" />
        <path d="M 900.2 50 L 900.2 60" />
        <path d="M 916.8 50 L 916.8 60" />
        <path d="M 933.4 50 L 933.4 60" />
        <path d="M 950 50 L 950 70" />
    </g>
    <g id="frame_0_rightticks">
        <path d="M 950 745.748 L 940 745.748" />
        <path d="M 950 658.622 L 940 658.622" />
        <path d="M 950 201.21 L 940 201.21" />
        <path d="M 950 625.949 L 940 625.949" />
        <path d="M 950 233.882 L 940 233.882" />
        <path d="M 950 691.294 L 940 691.294" />
        <path d="M 950 81.4111 L 940 81.4111" />
        <path d="M 950 549.714 L 940 549.714" />
        <path d="M 950 92.3019 L 940 92.3019" />
        <path d="M 950 299.226 L 940 299.226" />
        <path d="M 950 636.84 L 940 636.84" />
        <path d="M 950 843.765 L 940 843.765" />
        <path d="M 950 408.134 L 940 408.134" />
        <path d="M 950 179.428 L 940 179.428" />
        <path d="M 950 756.639 L 940 756.639" />
        <path d="M 950 266.554 L 930 266.554" />
        <path d="M 950 288.336 L 940 288.336" />
        <path d="M 950 920 L 930 920" />
        <path d="M 950 604.168 L 940 604.168" />
        <path d="M 950 582.386 L 940 582.386" />
        <path d="M 950 495.26 L 940 495.26" />
        <path d="M 950 876.437 L 940 876.437" />
        <path d="M 950 680.403 L 940 680.403" />
        <path d="M 950 70.5204 L 940 70.5204" />
        <path d="M 950 440.806 L 940 440.806" />
        <path d="M 950 811.092 L 930 811.092" />
        <path d="M 950 277.445 L 940 277.445" />
        <path d="M 950 821.983 L 940 821.983" />
        <path d="M 950 593.277 L 930 593.277" />
        <path d="M 950 484.369 L 930 484.369" />
        <path d="M 950 527.932 L 940 527.932" />
        <path d="M 950 168.537 L 940 168.537" />
        <path d="M 950 767.529 L 940 767.529" />
        <path d="M 950 865.546 L 940 865.546" />
        <path d="M 950 473.479 L 940 473.479" />
        <path d="M 950 713.075 L 940 713.075" />
        <path d="M 950 190.319 L 940 190.319" />
        <path d="M 950 157.646 L 930 157.646" />
        <path d="M 950 386.353 L 940 386.353" />
        <path d="M 950 560.605 L 940 560.605" />
        <path d="M 950 832.874 L 940 832.874" />
        <path d="M 950 615.059 L 940 615.059" />
        <path d="M 950 647.731 L 940 647.731" />
        <path d="M 950 255.663 L 940 255.663" />
        <path d="M 950 146.756 L 940 146.756" />
        <path d="M 950 778.42 L 940 778.42" />
        <path d="M 950 506.151 L 940 506.151" />
        <path d="M 950 353.68 L 940 353.68" />
        <path d="M 950 364.571 L 940 364.571" />
        <path d="M 950 898.218 L 940 898.218" />
        <path d="M 950 887.328 L 940 887.328" />
        <path d="M 950 702.185 L 930 702.185" />
        <path d="M 950 451.697 L 940 451.697" />
        <path d="M 950 222.991 L 940 222.991" />
        <path d="M 950 135.865 L 940 135.865" />
        <path d="M 950 669.512 L 940 669.512" />
        <path d="M 950 342.789 L 940 342.789" />
        <path d="M 950 538.823 L 940 538.823" />
        <path d="M 950 310.117 L 940 310.117" />
        <path d="M 950 789.311 L 940 789.311" />
        <path d="M 950 723.966 L 940 723.966" />
        <path d="M 950 397.243 L 940 397.243" />
        <path d="M 950 124.974 L 940 124.974" />
        <path d="M 950 331.899 L 940 331.899" />
        <path d="M 950 909.109 L 940 909.109" />
        <path d="M 950 244.773 L 940 244.773" />
        <path d="M 950 462.588 L 940 462.588" />
        <path d="M 950 571.496 L 940 571.496" />
        <path d="M 950 114.083 L 940 114.083" />
        <path d="M 950 854.655 L 940 854.655" />
        <path d="M 950 734.857 L 940 734.857" />
        <path d="M 950 321.008 L 940 321.008" />
        <path d="M 950 59.6296 L 940 59.6296" />
        <path d="M 950 429.916 L 940 429.916" />
        <path d="M 950 375.462 L 930 375.462" />
        <path d="M 950 800.202 L 940 800.202" />
        <path d="M 950 212.1 L 940 212.1" />
        <path d="M 950 517.042 L 940 517.042" />
        <path d="M 950 103.193 L 940 103.193" />
        <path d="M 950 419.025 L 940 419.025" />
    </g>
</g>
</g>
</svg>
