<?xml version="1.0" standalone="no"?>
<!DOCTYPE svg PUBLIC "-//W3C//DTD SVG 1.1//EN" "http://www.w3.org/Graphics/SVG/1.1/DTD/svg11.dtd">
<svg style="stroke-linejoin:miter; stroke:black; stroke-width:2.5; text-anchor:middle; fill:none" xmlns="http://www.w3.org/2000/svg" font-family="Helvetica, Arial, FreeSans, Sans, sans, sans-serif" width="1000px" height="1000px" version="1.1" xmlns:xlink="http://www.w3.org/1999/xlink" viewBox="0 0 1000 1000">
<defs>
    <clipPath id="Histogram_0_clip">
        <rect x="120" y="50" width="830" height="870" />
    </clipPath>
    <clipPath id="Histogram_1_clip">
        <rect x="120" y="50" width="830" height="870" />
    </clipPath>
</defs>
<g id="whole_document">
<rect id="background" x="0" y="0" width="1000" height="1000" stroke="none" fill="white" />
<g id="Histogram_0" clip-path="url(#Histogram_0_clip)">
    <path d="M 120 920 L 120 129.091 L 161.5 129.091 L 161.5 920 L 203 920 L 203 748.849 L 244.5 748.849 L 244.5 844.387 L 286 844.387 L 286 907.625 L 327.5 907.625 L 327.5 920 L 369 920 L 369 920 L 410.5 920 L 410.5 920 L 452 920 L 452 920 L 493.5 920 L 493.5 920 L 535 920 L 535 920 L 576.5 920 L 576.5 920 L 618 920 L 618 920 L 659.5 920 L 659.5 920 L 701 920 L 701 920 L 742.5 920 L 742.5 920 L 784 920 L 784 920 L 825.5 920 L 825.5 920 L 867 920 L 867 920 L 908.5 920 L 908.5 920 L 950 920 L 950 920" stroke-width="3" stroke-dasharray="" stroke="black" stroke-opacity="1" fill="DodgerBlue" fill-opacity="1" />
</g>
<g id="Histogram_1" clip-path="url(#Histogram_1_clip)">
    <path d="M 120 920 L 120 920 L 161.5 920 L 161.5 920 L 203 920 L 203 748.849 L 244.5 748.849 L 244.5 844.387 L 286 844.387 L 286 907.625 L 327.5 907.625 L 327.5 920 L 369 920 L 369 920 L 410.5 920 L 410.5 920 L 452 920 L 452 920 L 493.5 920 L 493.5 920 L 535 920 L 535 920 L 576.5 920 L 576.5 920 L 618 920 L 618 920 L 659.5 920 L 659.5 920 L 701 920 L 701 920 L 742.5 920 L 742.5 920 L 784 920 L 784 920 L 825.5 920 L 825.5 920 L 867 920 L 867 920 L 908.5 920 L 908.5 920 L 950 920 L 950 920" stroke-width="3" stroke-dasharray="" stroke="black" stroke-opacity="1" fill="darkorange" fill-opacity="1" />
</g>
<g id="frame_0">
    <rect id="frame_0_border" x="120" y="50" width="830" height="870" />
    <text id="frame_0_bottomlabel" font-size="30" transform="translate(535, 989.6)" text-anchor="middle" dominant-baseline="middle" stroke="none" fill="black">microseconds</text>
    <g id="frame_0_bottomticks">
        <path d="M 120 920 L 120 900" />
        <text font-size="30" transform="translate(120, 950)" text-anchor="middle" dominant-baseline="middle" stroke="none" fill="black">0</text>
        <path d="M 136.6 920 L 136.6 910" />
        <path d="M 153.2 920 L 153.2 910" />
        <path d="M 169.8 920 L 169.8 910" />
        <path d="M 186.4 920 L 186.4 910" />
        <path d="M 203 920 L 203 910" />
        <path d="M 219.6 920 L 219.6 910" />
        <path d="M 236.2 920 L 236.2 910" />
        <path d="M 252.8 920 L 252.8 910" />
        <path d="M 269.4 920 L 269.4 910" />
        <path d="M 286 920 L 286 900" />
        <text font-size="30" transform="translate(286, 950)" text-anchor="middle" dominant-baseline="middle" stroke="none" fill="black">10</text>
        <path d="M 302.6 920 L 302.6 910" />
        <path d="M 319.2 920 L 319.2 910" />
        <path d="M 335.8 920 L 335.8 910" />
        <path d="M 352.4 920 L 352.4 910" />
        <path d="M 369 920 L 369 910" />
        <path d="M 385.6 920 L 385.6 910" />
        <path d="M 402.2 920 L 402.2 910" />
        <path d="M 418.8 920 L 418.8 910" />
        <path d="M 435.4 920 L 435.4 910" />
        <path d="M 452 920 L 452 900" />
        <text font-size="30" transform="translate(452, 950)" text-anchor="middle" dominant-baseline="middle" stroke="none" fill="black">20</text>
        <path d="M 468.6 920 L 468.6 910" />
        <path d="M 485.2 920 L 485.2 910" />
        <path d="M 501.8 920 L 501.8 910" />
        <path d="M 518.4 920 L 518.4 910" />
        <path d="M 535 920 L 535 910" />
        <path d="M 551.6 920 L 551.6 910" />
        <path d="M 568.2 920 L 568.2 910" />
        <path d="M 584.8 920 L 584.8 910" />
        <path d="M 601.4 920 L 601.4 910" />
        <path d="M 618 920 L 618 900" />
        <text font-size="30" transform="translate(618, 950)" text-anchor="middle" dominant-baseline="middle" stroke="none" fill="black">30</text>
        <path d="M 634.6 920 L 634.6 910" />
        <path d="M 651.2 920 L 651.2 910" />
        <path d="M 667.8 920 L 667.8 910" />
        <path d="M 684.4 920 L 684.4 910" />
        <path d="M 701 920 L 701 910" />
        <path d="M 717.6 920 L 717.6 910" />
        <path d="M 734.2 920 L 734.2 910" />
        <path d="M 750.8 920 L 750.8 910" />
        <path d="M 767.4 920 L 767.4 910" />
        <path d="M 784 920 L 784 900" />
        <text font-size="30" transform="translate(784, 950)" text-anchor="middle" dominant-baseline="middle" stroke="none" fill="black">40</text>
        <path d="M 800.6 920 L 800.6 910" />
        <path d="M 817.2 920 L 817.2 910" />
        <path d="M 833.8 920 L 833.8 910" />
        <path d="M 850.4 920 L 850.4 910" />
        <path d="M 867 920 L 867 910" />
        <path d="M 883.6 920 L 883.6 910" />
        <path d="M 900.2 920 L 900.2 910" />
        <path d="M 916.8 920 L 916.8 910" />
        <path d="M 933.4 920 L 933.4 910" />
        <path d="M 950 920 L 950 900" />
        <text font-size="30" transform="translate(950, 950)" text-anchor="middle" dominant-baseline="middle" stroke="none" fill="black">50</text>
    </g>
    <g id="frame_0_leftticks">
        <path d="M 120 523.989 L 130 523.989" />
        <path d="M 120 325.983 L 130 325.983" />
        <path d="M 120 808.622 L 130 808.622" />
        <path d="M 120 115.602 L 130 115.602" />
        <path d="M 120 920 L 140 920" />
        <text font-size="30" transform="translate(110, 930)" text-anchor="end" dominant-baseline="middle" stroke="none" fill="black">0</text>
        <path d="M 120 697.244 L 130 697.244" />
        <path d="M 120 486.862 L 130 486.862" />
        <path d="M 120 585.865 L 130 585.865" />
        <path d="M 120 870.499 L 130 870.499" />
        <path d="M 120 449.736 L 130 449.736" />
        <path d="M 120 165.103 L 130 165.103" />
        <path d="M 120 759.12 L 130 759.12" />
        <path d="M 120 647.742 L 130 647.742" />
        <path d="M 120 412.61 L 130 412.61" />
        <path d="M 120 536.364 L 130 536.364" />
        <path d="M 120 820.997 L 130 820.997" />
        <path d="M 120 375.484 L 130 375.484" />
        <path d="M 120 239.355 L 130 239.355" />
        <path d="M 120 709.619 L 130 709.619" />
        <path d="M 120 189.854 L 130 189.854" />
        <path d="M 120 598.241 L 130 598.241" />
        <path d="M 120 338.358 L 130 338.358" />
        <path d="M 120 882.874 L 130 882.874" />
        <path d="M 120 771.496 L 130 771.496" />
        <path d="M 120 499.238 L 130 499.238" />
        <path d="M 120 660.117 L 130 660.117" />
        <path d="M 120 672.493 L 140 672.493" />
        <text font-size="30" transform="translate(110, 682.493)" text-anchor="end" dominant-baseline="middle" stroke="none" fill="black">2000</text>
        <path d="M 120 152.728 L 130 152.728" />
        <path d="M 120 462.112 L 130 462.112" />
        <path d="M 120 78.4757 L 130 78.4757" />
        <path d="M 120 833.372 L 130 833.372" />
        <path d="M 120 721.994 L 130 721.994" />
        <path d="M 120 226.98 L 130 226.98" />
        <path d="M 120 264.106 L 130 264.106" />
        <path d="M 120 610.616 L 130 610.616" />
        <path d="M 120 895.249 L 130 895.249" />
        <path d="M 120 387.86 L 130 387.86" />
        <path d="M 120 783.871 L 130 783.871" />
        <path d="M 120 288.857 L 130 288.857" />
        <path d="M 120 127.977 L 130 127.977" />
        <path d="M 120 276.481 L 130 276.481" />
        <path d="M 120 350.734 L 130 350.734" />
        <path d="M 120 424.986 L 140 424.986" />
        <text font-size="30" transform="translate(110, 434.986)" text-anchor="end" dominant-baseline="middle" stroke="none" fill="black">4000</text>
        <path d="M 120 561.115 L 130 561.115" />
        <path d="M 120 796.246 L 140 796.246" />
        <text font-size="30" transform="translate(110, 806.246)" text-anchor="end" dominant-baseline="middle" stroke="none" fill="black">1000</text>
        <path d="M 120 313.607 L 130 313.607" />
        <path d="M 120 845.748 L 130 845.748" />
        <path d="M 120 511.613 L 130 511.613" />
        <path d="M 120 103.226 L 130 103.226" />
        <path d="M 120 734.37 L 130 734.37" />
        <path d="M 120 301.232 L 140 301.232" />
        <text font-size="30" transform="translate(110, 311.232)" text-anchor="end" dominant-baseline="middle" stroke="none" fill="black">5000</text>
        <path d="M 120 622.991 L 130 622.991" />
        <path d="M 120 474.487 L 130 474.487" />
        <path d="M 120 907.625 L 130 907.625" />
        <path d="M 120 140.352 L 130 140.352" />
        <path d="M 120 400.235 L 130 400.235" />
        <path d="M 120 437.361 L 130 437.361" />
        <path d="M 120 177.479 L 140 177.479" />
        <text font-size="30" transform="translate(110, 187.479)" text-anchor="end" dominant-baseline="middle" stroke="none" fill="black">6000</text>
        <path d="M 120 684.868 L 130 684.868" />
        <path d="M 120 573.49 L 130 573.49" />
        <path d="M 120 202.229 L 130 202.229" />
        <path d="M 120 548.739 L 140 548.739" />
        <text font-size="30" transform="translate(110, 558.739)" text-anchor="end" dominant-baseline="middle" stroke="none" fill="black">3000</text>
        <path d="M 120 858.123 L 130 858.123" />
        <path d="M 120 66.1003 L 130 66.1003" />
        <path d="M 120 214.605 L 130 214.605" />
        <path d="M 120 53.725 L 140 53.725" />
        <text font-size="30" transform="translate(110, 63.725)" text-anchor="end" dominant-baseline="middle" stroke="none" fill="black">7000</text>
        <path d="M 120 746.745 L 130 746.745" />
        <path d="M 120 363.109 L 130 363.109" />
        <path d="M 120 635.367 L 130 635.367" />
        <path d="M 120 251.731 L 130 251.731" />
        <path d="M 120 90.8511 L 130 90.8511" />
    </g>
    <text id="frame_0_toplabel" font-size="30" transform="translate(535, 32.6)" text-anchor="middle" dominant-baseline="middle" stroke="none" fill="black">rand.double</text>
    <g id="frame_0_topticks">
        <path d="M 120 50 L 120 70" />
        <path d="M 136.6 50 L 136.6 60" />
        <path d="M 153.2 50 L 153.2 60" />
        <path d="M 169.8 50 L 169.8 60" />
        <path d="M 186.4 50 L 186.4 60" />
        <path d="M 203 50 L 203 60" />
        <path d="M 219.6 50 L 219.6 60" />
        <path d="M 236.2 50 L 236.2 60" />
        <path d="M 252.8 50 L 252.8 60" />
        <path d="M 269.4 50 L 269.4 60" />
        <path d="M 286 50 L 286 70" />
        <path d="M 302.6 50 L 302.6 60" />
        <path d="M 319.2 50 L 319.2 60" />
        <path d="M 335.8 50 L 335.8 60" />
        <path d="M 352.4 50 L 352.4 60" />
        <path d="M 369 50 L 369 60" />
        <path d="M 385.6 50 L 385.6 60" />
        <path d="M 402.2 50 L 402.2 60" />
        <path d="M 418.8 50 L 418.8 60" />
        <path d="M 435.4 50 L 435.4 60" />
        <path d="M 452 50 L 452 70" />
        <path d="M 468.6 50 L 468.6 60" />
        <path d="M 485.2 50 L 485.2 60" />
        <path d="M 501.8 50 L 501.8 60" />
        <path d="M 518.4 50 L 518.4 60" />
        <path d="M 535 50 L 535 60" />
        <path d="M 551.6 50 L 551.6 60" />
        <path d="M 568.2 50 L 568.2 60" />
        <path d="M 584.8 50 L 584.8 60" />
        <path d="M 601.4 50 L 601.4 60" />
        <path d="M 618 50 L 618 70" />
        <path d="M 634.6 50 L 634.6 60" />
        <path d="M 651.2 50 L 651.2 60" />
        <path d="M 667.8 50 L 667.8 60" />
        <path d="M 684.4 50 L 684.4 60" />
        <path d="M 701 50 L 701 60" />
        <path d="M 717.6 50 L 717.6 60" />
        <path d="M 734.2 50 L 734.2 60" />
        <path d="M 750.8 50 L 750.8 60" />
        <path d="M 767.4 50 L 767.4 60" />
        <path d="M 784 50 L 784 70" />
        <path d="M 800.6 50 L 800.6 60" />
        <path d="M 817.2 50 L 817.2 60" />
        <path d="M 833.8 50 L 833.8 60" />
        <path d="M 850.4 50 L 850.4 60" />
        <path d="M 867 50 L 867 60" />
        <path d="M 883.6 50 L 883.6 60" />
        <path d="M 900.2 50 L 900.2 60" />
        <path d="M 916.8 50 L 916.8 60" />
        <path d="M 933.4 50 L 933.4 60" />
        <path d="M 950 50 L 950 70" />
    </g>
    <g id="frame_0_rightticks">
        <path d="M 950 523.989 L 940 523.989" />
        <path d="M 950 325.983 L 940 325.983" />
        <path d="M 950 808.622 L 940 808.622" />
        <path d="M 950 115.602 L 940 115.602" />
        <path d="M 950 920 L 930 920" />
        <path d="M 950 697.244 L 940 697.244" />
        <path d="M 950 486.862 L 940 486.862" />
        <path d="M 950 585.865 L 940 585.865" />
        <path d="M 950 870.499 L 940 870.499" />
        <path d="M 950 449.736 L 940 449.736" />
        <path d="M 950 165.103 L 940 165.103" />
        <path d="M 950 759.12 L 940 759.12" />
        <path d="M 950 647.742 L 940 647.742" />
        <path d="M 950 412.61 L 940 412.61" />
        <path d="M 950 536.364 L 940 536.364" />
        <path d="M 950 820.997 L 940 820.997" />
        <path d="M 950 375.484 L 940 375.484" />
        <path d="M 950 239.355 L 940 239.355" />
        <path d="M 950 709.619 L 940 709.619" />
        <path d="M 950 189.854 L 940 189.854" />
        <path d="M 950 598.241 L 940 598.241" />
        <path d="M 950 338.358 L 940 338.358" />
        <path d="M 950 882.874 L 940 882.874" />
        <path d="M 950 771.496 L 940 771.496" />
        <path d="M 950 499.238 L 940 499.238" />
        <path d="M 950 660.117 L 940 660.117" />
        <path d="M 950 672.493 L 930 672.493" />
        <path d="M 950 152.728 L 940 152.728" />
        <path d="M 950 462.112 L 940 462.112" />
        <path d="M 950 78.4757 L 940 78.4757" />
        <path d="M 950 833.372 L 940 833.372" />
        <path d="M 950 721.994 L 940 721.994" />
        <path d="M 950 226.98 L 940 226.98" />
        <path d="M 950 264.106 L 940 264.106" />
        <path d="M 950 610.616 L 940 610.616" />
        <path d="M 950 895.249 L 940 895.249" />
        <path d="M 950 387.86 L 940 387.86" />
        <path d="M 950 783.871 L 940 783.871" />
        <path d="M 950 288.857 L 940 288.857" />
        <path d="M 950 127.977 L 940 127.977" />
        <path d="M 950 276.481 L 940 276.481" />
        <path d="M 950 350.734 L 940 350.734" />
        <path d="M 950 424.986 L 930 424.986" />
        <path d="M 950 561.115 L 940 561.115" />
        <path d="M 950 796.246 L 930 796.246" />
        <path d="M 950 313.607 L 940 313.607" />
        <path d="M 950 845.748 L 940 845.748" />
        <path d="M 950 511.613 L 940 511.613" />
        <path d="M 950 103.226 L 940 103.226" />
        <path d="M 950 734.37 L 940 734.37" />
        <path d="M 950 301.232 L 930 301.232" />
        <path d="M 950 622.991 L 940 622.991" />
        <path d="M 950 474.487 L 940 474.487" />
        <path d="M 950 907.625 L 940 907.625" />
        <path d="M 950 140.352 L 940 140.352" />
        <path d="M 950 400.235 L 940 400.235" />
        <path d="M 950 437.361 L 940 437.361" />
        <path d="M 950 177.479 L 930 177.479" />
        <path d="M 950 684.868 L 940 684.868" />
        <path d="M 950 573.49 L 940 573.49" />
        <path d="M 950 202.229 L 940 202.229" />
        <path d="M 950 548.739 L 930 548.739" />
        <path d="M 950 858.123 L 940 858.123" />
        <path d="M 950 66.1003 L 940 66.1003" />
        <path d="M 950 214.605 L 940 214.605" />
        <path d="M 950 53.725 L 930 53.725" />
        <path d="M 950 746.745 L 940 746.745" />
        <path d="M 950 363.109 L 940 363.109" />
        <path d="M 950 635.367 L 940 635.367" />
        <path d="M 950 251.731 L 940 251.731" />
        <path d="M 950 90.8511 L 940 90.8511" />
    </g>
</g>
</g>
</svg>
