<?xml version="1.0" standalone="no"?>
<!DOCTYPE svg PUBLIC "-//W3C//DTD SVG 1.1//EN" "http://www.w3.org/Graphics/SVG/1.1/DTD/svg11.dtd">
<svg style="stroke-linejoin:miter; stroke:black; stroke-width:2.5; text-anchor:middle; fill:none" xmlns="http://www.w3.org/2000/svg" font-family="Helvetica, Arial, FreeSans, Sans, sans, sans-serif" width="1000px" height="1000px" version="1.1" xmlns:xlink="http://www.w3.org/1999/xlink" viewBox="0 0 1000 1000">
<defs>
    <clipPath id="Histogram_0_clip">
        <rect x="120" y="50" width="830" height="870" />
    </clipPath>
</defs>
<g id="whole_document">
<rect id="background" x="0" y="0" width="1000" height="1000" stroke="none" fill="white" />
<g id="Histogram_0" clip-path="url(#Histogram_0_clip)">
    <path d="M 120 920 L 120 129.091 L 161.5 129.091 L 161.5 847.517 L 203 847.517 L 203 904.883 L 244.5 904.883 L 244.5 915.34 L 286 915.34 L 286 918.838 L 327.5 918.838 L 327.5 920 L 369 920 L 369 920 L 410.5 920 L 410.5 920 L 452 920 L 452 920 L 493.5 920 L 493.5 920 L 535 920 L 535 920 L 576.5 920 L 576.5 920 L 618 920 L 618 920 L 659.5 920 L 659.5 920 L 701 920 L 701 920 L 742.5 920 L 742.5 920 L 784 920 L 784 920 L 825.5 920 L 825.5 920 L 867 920 L 867 920 L 908.5 920 L 908.5 920 L 950 920 L 950 920" stroke-width="3" stroke-dasharray="" stroke="black" stroke-opacity="1" fill="DodgerBlue" fill-opacity="1" />
</g>
<g id="frame_0">
    <rect id="frame_0_border" x="120" y="50" width="830" height="870" />
    <text id="frame_0_bottomlabel" font-size="30" transform="translate(535, 989.6)" text-anchor="middle" dominant-baseline="middle" stroke="none" fill="black">microseconds</text>
    <g id="frame_0_bottomticks">
        <path d="M 120 920 L 120 900" />
        <text font-size="30" transform="translate(120, 950)" text-anchor="middle" dominant-baseline="middle" stroke="none" fill="black">0</text>
        <path d="M 136.6 920 L 136.6 910" />
        <path d="M 153.2 920 L 153.2 910" />
        <path d="M 169.8 920 L 169.8 910" />
        <path d="M 186.4 920 L 186.4 910" />
        <path d="M 203 920 L 203 910" />
        <path d="M 219.6 920 L 219.6 910" />
        <path d="M 236.2 920 L 236.2 910" />
        <path d="M 252.8 920 L 252.8 910" />
        <path d="M 269.4 920 L 269.4 910" />
        <path d="M 286 920 L 286 900" />
        <text font-size="30" transform="translate(286, 950)" text-anchor="middle" dominant-baseline="middle" stroke="none" fill="black">10</text>
        <path d="M 302.6 920 L 302.6 910" />
        <path d="M 319.2 920 L 319.2 910" />
        <path d="M 335.8 920 L 335.8 910" />
        <path d="M 352.4 920 L 352.4 910" />
        <path d="M 369 920 L 369 910" />
        <path d="M 385.6 920 L 385.6 910" />
        <path d="M 402.2 920 L 402.2 910" />
        <path d="M 418.8 920 L 418.8 910" />
        <path d="M 435.4 920 L 435.4 910" />
        <path d="M 452 920 L 452 900" />
        <text font-size="30" transform="translate(452, 950)" text-anchor="middle" dominant-baseline="middle" stroke="none" fill="black">20</text>
        <path d="M 468.6 920 L 468.6 910" />
        <path d="M 485.2 920 L 485.2 910" />
        <path d="M 501.8 920 L 501.8 910" />
        <path d="M 518.4 920 L 518.4 910" />
        <path d="M 535 920 L 535 910" />
        <path d="M 551.6 920 L 551.6 910" />
        <path d="M 568.2 920 L 568.2 910" />
        <path d="M 584.8 920 L 584.8 910" />
        <path d="M 601.4 920 L 601.4 910" />
        <path d="M 618 920 L 618 900" />
        <text font-size="30" transform="translate(618, 950)" text-anchor="middle" dominant-baseline="middle" stroke="none" fill="black">30</text>
        <path d="M 634.6 920 L 634.6 910" />
        <path d="M 651.2 920 L 651.2 910" />
        <path d="M 667.8 920 L 667.8 910" />
        <path d="M 684.4 920 L 684.4 910" />
        <path d="M 701 920 L 701 910" />
        <path d="M 717.6 920 L 717.6 910" />
        <path d="M 734.2 920 L 734.2 910" />
        <path d="M 750.8 920 L 750.8 910" />
        <path d="M 767.4 920 L 767.4 910" />
        <path d="M 784 920 L 784 900" />
        <text font-size="30" transform="translate(784, 950)" text-anchor="middle" dominant-baseline="middle" stroke="none" fill="black">40</text>
        <path d="M 800.6 920 L 800.6 910" />
        <path d="M 817.2 920 L 817.2 910" />
        <path d="M 833.8 920 L 833.8 910" />
        <path d="M 850.4 920 L 850.4 910" />
        <path d="M 867 920 L 867 910" />
        <path d="M 883.6 920 L 883.6 910" />
        <path d="M 900.2 920 L 900.2 910" />
        <path d="M 916.8 920 L 916.8 910" />
        <path d="M 933.4 920 L 933.4 910" />
        <path d="M 950 920 L 950 900" />
        <text font-size="30" transform="translate(950, 950)" text-anchor="middle" dominant-baseline="middle" stroke="none" fill="black">50</text>
    </g>
    <g id="frame_0_leftticks">
        <path d="M 120 722.229 L 130 722.229" />
        <path d="M 120 623.344 L 130 623.344" />
        <path d="M 120 104.197 L 130 104.197" />
        <path d="M 120 586.262 L 130 586.262" />
        <path d="M 120 141.279 L 130 141.279" />
        <path d="M 120 660.426 L 130 660.426" />
        <path d="M 120 499.738 L 130 499.738" />
        <path d="M 120 215.442 L 130 215.442" />
        <path d="M 120 598.623 L 130 598.623" />
        <path d="M 120 833.475 L 130 833.475" />
        <path d="M 120 339.049 L 130 339.049" />
        <path d="M 120 79.4752 L 130 79.4752" />
        <path d="M 120 734.59 L 130 734.59" />
        <path d="M 120 178.36 L 140 178.36" />
        <text font-size="30" transform="translate(110, 188.36)" text-anchor="end" dominant-baseline="middle" stroke="none" fill="black">60000</text>
        <path d="M 120 203.082 L 130 203.082" />
        <path d="M 120 920 L 140 920" />
        <text font-size="30" transform="translate(110, 930)" text-anchor="end" dominant-baseline="middle" stroke="none" fill="black">0</text>
        <path d="M 120 561.541 L 130 561.541" />
        <path d="M 120 536.82 L 130 536.82" />
        <path d="M 120 437.934 L 130 437.934" />
        <path d="M 120 870.557 L 130 870.557" />
        <path d="M 120 648.066 L 130 648.066" />
        <path d="M 120 376.131 L 130 376.131" />
        <path d="M 120 796.393 L 140 796.393" />
        <text font-size="30" transform="translate(110, 806.393)" text-anchor="end" dominant-baseline="middle" stroke="none" fill="black">10000</text>
        <path d="M 120 190.721 L 130 190.721" />
        <path d="M 120 808.754 L 130 808.754" />
        <path d="M 120 549.18 L 140 549.18" />
        <text font-size="30" transform="translate(110, 559.18)" text-anchor="end" dominant-baseline="middle" stroke="none" fill="black">30000</text>
        <path d="M 120 425.574 L 140 425.574" />
        <text font-size="30" transform="translate(110, 435.574)" text-anchor="end" dominant-baseline="middle" stroke="none" fill="black">40000</text>
        <path d="M 120 475.016 L 130 475.016" />
        <path d="M 120 67.1146 L 130 67.1146" />
        <path d="M 120 746.951 L 130 746.951" />
        <path d="M 120 858.197 L 130 858.197" />
        <path d="M 120 413.213 L 130 413.213" />
        <path d="M 120 685.147 L 130 685.147" />
        <path d="M 120 91.8359 L 130 91.8359" />
        <path d="M 120 54.7539 L 140 54.7539" />
        <text font-size="30" transform="translate(110, 64.7539)" text-anchor="end" dominant-baseline="middle" stroke="none" fill="black">70000</text>
        <path d="M 120 314.328 L 130 314.328" />
        <path d="M 120 512.098 L 130 512.098" />
        <path d="M 120 821.115 L 130 821.115" />
        <path d="M 120 573.902 L 130 573.902" />
        <path d="M 120 610.984 L 130 610.984" />
        <path d="M 120 166 L 130 166" />
        <path d="M 120 759.311 L 130 759.311" />
        <path d="M 120 450.295 L 130 450.295" />
        <path d="M 120 277.246 L 130 277.246" />
        <path d="M 120 289.606 L 130 289.606" />
        <path d="M 120 895.279 L 130 895.279" />
        <path d="M 120 882.918 L 130 882.918" />
        <path d="M 120 672.787 L 140 672.787" />
        <text font-size="30" transform="translate(110, 682.787)" text-anchor="end" dominant-baseline="middle" stroke="none" fill="black">20000</text>
        <path d="M 120 388.492 L 130 388.492" />
        <path d="M 120 128.918 L 130 128.918" />
        <path d="M 120 635.705 L 130 635.705" />
        <path d="M 120 264.885 L 130 264.885" />
        <path d="M 120 487.377 L 130 487.377" />
        <path d="M 120 227.803 L 130 227.803" />
        <path d="M 120 771.672 L 130 771.672" />
        <path d="M 120 697.508 L 130 697.508" />
        <path d="M 120 326.688 L 130 326.688" />
        <path d="M 120 252.524 L 130 252.524" />
        <path d="M 120 907.639 L 130 907.639" />
        <path d="M 120 153.639 L 130 153.639" />
        <path d="M 120 400.852 L 130 400.852" />
        <path d="M 120 524.459 L 130 524.459" />
        <path d="M 120 845.836 L 130 845.836" />
        <path d="M 120 709.869 L 130 709.869" />
        <path d="M 120 240.164 L 130 240.164" />
        <path d="M 120 363.77 L 130 363.77" />
        <path d="M 120 301.967 L 140 301.967" />
        <text font-size="30" transform="translate(110, 311.967)" text-anchor="end" dominant-baseline="middle" stroke="none" fill="black">50000</text>
        <path d="M 120 784.033 L 130 784.033" />
        <path d="M 120 116.557 L 130 116.557" />
        <path d="M 120 462.656 L 130 462.656" />
        <path d="M 120 351.41 L 130 351.41" />
    </g>
    <text id="frame_0_toplabel" font-size="30" transform="translate(535, 32.6)" text-anchor="middle" dominant-baseline="middle" stroke="none" fill="black">map.split</text>
    <g id="frame_0_topticks">
        <path d="M 120 50 L 120 70" />
        <path d="M 136.6 50 L 136.6 60" />
        <path d="M 153.2 50 L 153.2 60" />
        <path d="M 169.8 50 L 169.8 60" />
        <path d="M 186.4 50 L 186.4 60" />
        <path d="M 203 50 L 203 60" />
        <path d="M 219.6 50 L 219.6 60" />
        <path d="M 236.2 50 L 236.2 60" />
        <path d="M 252.8 50 L 252.8 60" />
        <path d="M 269.4 50 L 269.4 60" />
        <path d="M 286 50 L 286 70" />
        <path d="M 302.6 50 L 302.6 60" />
        <path d="M 319.2 50 L 319.2 60" />
        <path d="M 335.8 50 L 335.8 60" />
        <path d="M 352.4 50 L 352.4 60" />
        <path d="M 369 50 L 369 60" />
        <path d="M 385.6 50 L 385.6 60" />
        <path d="M 402.2 50 L 402.2 60" />
        <path d="M 418.8 50 L 418.8 60" />
        <path d="M 435.4 50 L 435.4 60" />
        <path d="M 452 50 L 452 70" />
        <path d="M 468.6 50 L 468.6 60" />
        <path d="M 485.2 50 L 485.2 60" />
        <path d="M 501.8 50 L 501.8 60" />
        <path d="M 518.4 50 L 518.4 60" />
        <path d="M 535 50 L 535 60" />
        <path d="M 551.6 50 L 551.6 60" />
        <path d="M 568.2 50 L 568.2 60" />
        <path d="M 584.8 50 L 584.8 60" />
        <path d="M 601.4 50 L 601.4 60" />
        <path d="M 618 50 L 618 70" />
        <path d="M 634.6 50 L 634.6 60" />
        <path d="M 651.2 50 L 651.2 60" />
        <path d="M 667.8 50 L 667.8 60" />
        <path d="M 684.4 50 L 684.4 60" />
        <path d="M 701 50 L 701 60" />
        <path d="M 717.6 50 L 717.6 60" />
        <path d="M 734.2 50 L 734.2 60" />
        <path d="M 750.8 50 L 750.8 60" />
        <path d="M 767.4 50 L 767.4 60" />
        <path d="M 784 50 L 784 70" />
        <path d="M 800.6 50 L 800.6 60" />
        <path d="M 817.2 50 L 817.2 60" />
        <path d="M 833.8 50 L 833.8 60" />
        <path d="M 850.4 50 L 850.4 60" />
        <path d="M 867 50 L 867 60" />
        <path d="M 883.6 50 L 883.6 60" />
        <path d="M 900.2 50 L 900.2 60" />
        <path d="M 916.8 50 L 916.8 60" />
        <path d="M 933.4 50 L 933.4 60" />
        <path d="M 950 50 L 950 70" />
    </g>
    <g id="frame_0_rightticks">
        <path d="M 950 722.229 L 940 722.229" />
        <path d="M 950 623.344 L 940 623.344" />
        <path d="M 950 104.197 L 940 104.197" />
        <path d="M 950 586.262 L 940 586.262" />
        <path d="M 950 141.279 L 940 141.279" />
        <path d="M 950 660.426 L 940 660.426" />
        <path d="M 950 499.738 L 940 499.738" />
        <path d="M 950 215.442 L 940 215.442" />
        <path d="M 950 598.623 L 940 598.623" />
        <path d="M 950 833.475 L 940 833.475" />
        <path d="M 950 339.049 L 940 339.049" />
        <path d="M 950 79.4752 L 940 79.4752" />
        <path d="M 950 734.59 L 940 734.59" />
        <path d="M 950 178.36 L 930 178.36" />
        <path d="M 950 203.082 L 940 203.082" />
        <path d="M 950 920 L 930 920" />
        <path d="M 950 561.541 L 940 561.541" />
        <path d="M 950 536.82 L 940 536.82" />
        <path d="M 950 437.934 L 940 437.934" />
        <path d="M 950 870.557 L 940 870.557" />
        <path d="M 950 648.066 L 940 648.066" />
        <path d="M 950 376.131 L 940 376.131" />
        <path d="M 950 796.393 L 930 796.393" />
        <path d="M 950 190.721 L 940 190.721" />
        <path d="M 950 808.754 L 940 808.754" />
        <path d="M 950 549.18 L 930 549.18" />
        <path d="M 950 425.574 L 930 425.574" />
        <path d="M 950 475.016 L 940 475.016" />
        <path d="M 950 67.1146 L 940 67.1146" />
        <path d="M 950 746.951 L 940 746.951" />
        <path d="M 950 858.197 L 940 858.197" />
        <path d="M 950 413.213 L 940 413.213" />
        <path d="M 950 685.147 L 940 685.147" />
        <path d="M 950 91.8359 L 940 91.8359" />
        <path d="M 950 54.7539 L 930 54.7539" />
        <path d="M 950 314.328 L 940 314.328" />
        <path d="M 950 512.098 L 940 512.098" />
        <path d="M 950 821.115 L 940 821.115" />
        <path d="M 950 573.902 L 940 573.902" />
        <path d="M 950 610.984 L 940 610.984" />
        <path d="M 950 166 L 940 166" />
        <path d="M 950 759.311 L 940 759.311" />
        <path d="M 950 450.295 L 940 450.295" />
        <path d="M 950 277.246 L 940 277.246" />
        <path d="M 950 289.606 L 940 289.606" />
        <path d="M 950 895.279 L 940 895.279" />
        <path d="M 950 882.918 L 940 882.918" />
        <path d="M 950 672.787 L 930 672.787" />
        <path d="M 950 388.492 L 940 388.492" />
        <path d="M 950 128.918 L 940 128.918" />
        <path d="M 950 635.705 L 940 635.705" />
        <path d="M 950 264.885 L 940 264.885" />
        <path d="M 950 487.377 L 940 487.377" />
        <path d="M 950 227.803 L 940 227.803" />
        <path d="M 950 771.672 L 940 771.672" />
        <path d="M 950 697.508 L 940 697.508" />
        <path d="M 950 326.688 L 940 326.688" />
        <path d="M 950 252.524 L 940 252.524" />
        <path d="M 950 907.639 L 940 907.639" />
        <path d="M 950 153.639 L 940 153.639" />
        <path d="M 950 400.852 L 940 400.852" />
        <path d="M 950 524.459 L 940 524.459" />
        <path d="M 950 845.836 L 940 845.836" />
        <path d="M 950 709.869 L 940 709.869" />
        <path d="M 950 240.164 L 940 240.164" />
        <path d="M 950 363.77 L 940 363.77" />
        <path d="M 950 301.967 L 930 301.967" />
        <path d="M 950 784.033 L 940 784.033" />
        <path d="M 950 116.557 L 940 116.557" />
        <path d="M 950 462.656 L 940 462.656" />
        <path d="M 950 351.41 L 940 351.41" />
    </g>
</g>
</g>
</svg>
