<?xml version="1.0" standalone="no"?>
<!DOCTYPE svg PUBLIC "-//W3C//DTD SVG 1.1//EN" "http://www.w3.org/Graphics/SVG/1.1/DTD/svg11.dtd">
<svg style="stroke-linejoin:miter; stroke:black; stroke-width:2.5; text-anchor:middle; fill:none" xmlns="http://www.w3.org/2000/svg" font-family="Helvetica, Arial, FreeSans, Sans, sans, sans-serif" width="1000px" height="1000px" version="1.1" xmlns:xlink="http://www.w3.org/1999/xlink" viewBox="0 0 1000 1000">
<defs>
    <clipPath id="Histogram_0_clip">
        <rect x="120" y="50" width="830" height="870" />
    </clipPath>
</defs>
<g id="whole_document">
<rect id="background" x="0" y="0" width="1000" height="1000" stroke="none" fill="white" />
<g id="Histogram_0" clip-path="url(#Histogram_0_clip)">
    <path d="M 120 920 L 120 129.091 L 161.5 129.091 L 161.5 880.529 L 203 880.529 L 203 918.176 L 244.5 918.176 L 244.5 920 L 286 920 L 286 920 L 327.5 920 L 327.5 920 L 369 920 L 369 920 L 410.5 920 L 410.5 920 L 452 920 L 452 920 L 493.5 920 L 493.5 920 L 535 920 L 535 920 L 576.5 920 L 576.5 920 L 618 920 L 618 920 L 659.5 920 L 659.5 920 L 701 920 L 701 920 L 742.5 920 L 742.5 920 L 784 920 L 784 920 L 825.5 920 L 825.5 920 L 867 920 L 867 920 L 908.5 920 L 908.5 920 L 950 920 L 950 920" stroke-width="3" stroke-dasharray="" stroke="black" stroke-opacity="1" fill="DodgerBlue" fill-opacity="1" />
</g>
<g id="frame_0">
    <rect id="frame_0_border" x="120" y="50" width="830" height="870" />
    <text id="frame_0_bottomlabel" font-size="30" transform="translate(535, 989.6)" text-anchor="middle" dominant-baseline="middle" stroke="none" fill="black">microseconds</text>
    <g id="frame_0_bottomticks">
        <path d="M 120 920 L 120 900" />
        <text font-size="30" transform="translate(120, 950)" text-anchor="middle" dominant-baseline="middle" stroke="none" fill="black">0</text>
        <path d="M 136.6 920 L 136.6 910" />
        <path d="M 153.2 920 L 153.2 910" />
        <path d="M 169.8 920 L 169.8 910" />
        <path d="M 186.4 920 L 186.4 910" />
        <path d="M 203 920 L 203 910" />
        <path d="M 219.6 920 L 219.6 910" />
        <path d="M 236.2 920 L 236.2 910" />
        <path d="M 252.8 920 L 252.8 910" />
        <path d="M 269.4 920 L 269.4 910" />
        <path d="M 286 920 L 286 900" />
        <text font-size="30" transform="translate(286, 950)" text-anchor="middle" dominant-baseline="middle" stroke="none" fill="black">10</text>
        <path d="M 302.6 920 L 302.6 910" />
        <path d="M 319.2 920 L 319.2 910" />
        <path d="M 335.8 920 L 335.8 910" />
        <path d="M 352.4 920 L 352.4 910" />
        <path d="M 369 920 L 369 910" />
        <path d="M 385.6 920 L 385.6 910" />
        <path d="M 402.2 920 L 402.2 910" />
        <path d="M 418.8 920 L 418.8 910" />
        <path d="M 435.4 920 L 435.4 910" />
        <path d="M 452 920 L 452 900" />
        <text font-size="30" transform="translate(452, 950)" text-anchor="middle" dominant-baseline="middle" stroke="none" fill="black">20</text>
        <path d="M 468.6 920 L 468.6 910" />
        <path d="M 485.2 920 L 485.2 910" />
        <path d="M 501.8 920 L 501.8 910" />
        <path d="M 518.4 920 L 518.4 910" />
        <path d="M 535 920 L 535 910" />
        <path d="M 551.6 920 L 551.6 910" />
        <path d="M 568.2 920 L 568.2 910" />
        <path d="M 584.8 920 L 584.8 910" />
        <path d="M 601.4 920 L 601.4 910" />
        <path d="M 618 920 L 618 900" />
        <text font-size="30" transform="translate(618, 950)" text-anchor="middle" dominant-baseline="middle" stroke="none" fill="black">30</text>
        <path d="M 634.6 920 L 634.6 910" />
        <path d="M 651.2 920 L 651.2 910" />
        <path d="M 667.8 920 L 667.8 910" />
        <path d="M 684.4 920 L 684.4 910" />
        <path d="M 701 920 L 701 910" />
        <path d="M 717.6 920 L 717.6 910" />
        <path d="M 734.2 920 L 734.2 910" />
        <path d="M 750.8 920 L 750.8 910" />
        <path d="M 767.4 920 L 767.4 910" />
        <path d="M 784 920 L 784 900" />
        <text font-size="30" transform="translate(784, 950)" text-anchor="middle" dominant-baseline="middle" stroke="none" fill="black">40</text>
        <path d="M 800.6 920 L 800.6 910" />
        <path d="M 817.2 920 L 817.2 910" />
        <path d="M 833.8 920 L 833.8 910" />
        <path d="M 850.4 920 L 850.4 910" />
        <path d="M 867 920 L 867 910" />
        <path d="M 883.6 920 L 883.6 910" />
        <path d="M 900.2 920 L 900.2 910" />
        <path d="M 916.8 920 L 916.8 910" />
        <path d="M 933.4 920 L 933.4 910" />
        <path d="M 950 920 L 950 900" />
        <text font-size="30" transform="translate(950, 950)" text-anchor="middle" dominant-baseline="middle" stroke="none" fill="black">50</text>
    </g>
    <g id="frame_0_leftticks">
        <path d="M 120 223.907 L 130 223.907" />
        <path d="M 120 292.536 L 130 292.536" />
        <path d="M 120 920 L 140 920" />
        <text font-size="30" transform="translate(110, 930)" text-anchor="end" dominant-baseline="middle" stroke="none" fill="black">0</text>
        <path d="M 120 96.453 L 130 96.453" />
        <path d="M 120 86.6488 L 130 86.6488" />
        <path d="M 120 743.526 L 130 743.526" />
        <path d="M 120 792.546 L 130 792.546" />
        <path d="M 120 508.226 L 130 508.226" />
        <path d="M 120 537.639 L 130 537.639" />
        <path d="M 120 302.34 L 130 302.34" />
        <path d="M 120 821.959 L 140 821.959" />
        <text font-size="30" transform="translate(110, 831.959)" text-anchor="end" dominant-baseline="middle" stroke="none" fill="black">10000</text>
        <path d="M 120 410.185 L 130 410.185" />
        <path d="M 120 782.742 L 130 782.742" />
        <path d="M 120 694.505 L 130 694.505" />
        <path d="M 120 282.731 L 130 282.731" />
        <path d="M 120 831.763 L 130 831.763" />
        <path d="M 120 567.051 L 130 567.051" />
        <path d="M 120 312.144 L 130 312.144" />
        <path d="M 120 714.113 L 130 714.113" />
        <path d="M 120 723.917 L 140 723.917" />
        <text font-size="30" transform="translate(110, 733.917)" text-anchor="end" dominant-baseline="middle" stroke="none" fill="black">20000</text>
        <path d="M 120 733.722 L 130 733.722" />
        <path d="M 120 184.69 L 130 184.69" />
        <path d="M 120 841.567 L 130 841.567" />
        <path d="M 120 488.618 L 130 488.618" />
        <path d="M 120 469.01 L 130 469.01" />
        <path d="M 120 635.68 L 130 635.68" />
        <path d="M 120 753.33 L 130 753.33" />
        <path d="M 120 625.876 L 140 625.876" />
        <text font-size="30" transform="translate(110, 635.876)" text-anchor="end" dominant-baseline="middle" stroke="none" fill="black">30000</text>
        <path d="M 120 214.103 L 130 214.103" />
        <path d="M 120 419.989 L 130 419.989" />
        <path d="M 120 910.196 L 130 910.196" />
        <path d="M 120 851.371 L 130 851.371" />
        <path d="M 120 116.061 L 130 116.061" />
        <path d="M 120 370.969 L 130 370.969" />
        <path d="M 120 645.484 L 130 645.484" />
        <path d="M 120 351.36 L 130 351.36" />
        <path d="M 120 125.865 L 130 125.865" />
        <path d="M 120 861.175 L 130 861.175" />
        <path d="M 120 812.155 L 130 812.155" />
        <path d="M 120 400.381 L 130 400.381" />
        <path d="M 120 547.443 L 130 547.443" />
        <path d="M 120 439.598 L 130 439.598" />
        <path d="M 120 380.773 L 130 380.773" />
        <path d="M 120 429.793 L 140 429.793" />
        <text font-size="30" transform="translate(110, 439.793)" text-anchor="end" dominant-baseline="middle" stroke="none" fill="black">50000</text>
        <path d="M 120 655.288 L 130 655.288" />
        <path d="M 120 145.474 L 130 145.474" />
        <path d="M 120 763.134 L 130 763.134" />
        <path d="M 120 57.2364 L 130 57.2364" />
        <path d="M 120 557.247 L 130 557.247" />
        <path d="M 120 243.515 L 130 243.515" />
        <path d="M 120 665.093 L 130 665.093" />
        <path d="M 120 772.938 L 130 772.938" />
        <path d="M 120 870.979 L 130 870.979" />
        <path d="M 120 459.206 L 130 459.206" />
        <path d="M 120 331.752 L 140 331.752" />
        <text font-size="30" transform="translate(110, 341.752)" text-anchor="end" dominant-baseline="middle" stroke="none" fill="black">60000</text>
        <path d="M 120 616.072 L 130 616.072" />
        <path d="M 120 204.298 L 130 204.298" />
        <path d="M 120 253.319 L 130 253.319" />
        <path d="M 120 76.8447 L 130 76.8447" />
        <path d="M 120 900.392 L 130 900.392" />
        <path d="M 120 361.165 L 130 361.165" />
        <path d="M 120 155.278 L 130 155.278" />
        <path d="M 120 321.948 L 130 321.948" />
        <path d="M 120 106.257 L 130 106.257" />
        <path d="M 120 263.123 L 130 263.123" />
        <path d="M 120 233.711 L 140 233.711" />
        <text font-size="30" transform="translate(110, 243.711)" text-anchor="end" dominant-baseline="middle" stroke="none" fill="black">70000</text>
        <path d="M 120 802.35 L 130 802.35" />
        <path d="M 120 684.701 L 130 684.701" />
        <path d="M 120 880.783 L 130 880.783" />
        <path d="M 120 674.897 L 130 674.897" />
        <path d="M 120 165.082 L 130 165.082" />
        <path d="M 120 135.669 L 140 135.669" />
        <text font-size="30" transform="translate(110, 145.669)" text-anchor="end" dominant-baseline="middle" stroke="none" fill="black">80000</text>
        <path d="M 120 272.927 L 130 272.927" />
        <path d="M 120 341.556 L 130 341.556" />
        <path d="M 120 67.0406 L 130 67.0406" />
        <path d="M 120 576.855 L 130 576.855" />
        <path d="M 120 174.886 L 130 174.886" />
        <path d="M 120 586.66 L 130 586.66" />
        <path d="M 120 449.402 L 130 449.402" />
        <path d="M 120 390.577 L 130 390.577" />
        <path d="M 120 596.464 L 130 596.464" />
        <path d="M 120 606.268 L 130 606.268" />
        <path d="M 120 194.494 L 130 194.494" />
        <path d="M 120 704.309 L 130 704.309" />
        <path d="M 120 518.031 L 130 518.031" />
        <path d="M 120 527.835 L 140 527.835" />
        <text font-size="30" transform="translate(110, 537.835)" text-anchor="end" dominant-baseline="middle" stroke="none" fill="black">40000</text>
        <path d="M 120 890.588 L 130 890.588" />
        <path d="M 120 478.814 L 130 478.814" />
        <path d="M 120 498.422 L 130 498.422" />
    </g>
    <text id="frame_0_toplabel" font-size="30" transform="translate(535, 32.6)" text-anchor="middle" dominant-baseline="middle" stroke="none" fill="black">a.shuffle</text>
    <g id="frame_0_topticks">
        <path d="M 120 50 L 120 70" />
        <path d="M 136.6 50 L 136.6 60" />
        <path d="M 153.2 50 L 153.2 60" />
        <path d="M 169.8 50 L 169.8 60" />
        <path d="M 186.4 50 L 186.4 60" />
        <path d="M 203 50 L 203 60" />
        <path d="M 219.6 50 L 219.6 60" />
        <path d="M 236.2 50 L 236.2 60" />
        <path d="M 252.8 50 L 252.8 60" />
        <path d="M 269.4 50 L 269.4 60" />
        <path d="M 286 50 L 286 70" />
        <path d="M 302.6 50 L 302.6 60" />
        <path d="M 319.2 50 L 319.2 60" />
        <path d="M 335.8 50 L 335.8 60" />
        <path d="M 352.4 50 L 352.4 60" />
        <path d="M 369 50 L 369 60" />
        <path d="M 385.6 50 L 385.6 60" />
        <path d="M 402.2 50 L 402.2 60" />
        <path d="M 418.8 50 L 418.8 60" />
        <path d="M 435.4 50 L 435.4 60" />
        <path d="M 452 50 L 452 70" />
        <path d="M 468.6 50 L 468.6 60" />
        <path d="M 485.2 50 L 485.2 60" />
        <path d="M 501.8 50 L 501.8 60" />
        <path d="M 518.4 50 L 518.4 60" />
        <path d="M 535 50 L 535 60" />
        <path d="M 551.6 50 L 551.6 60" />
        <path d="M 568.2 50 L 568.2 60" />
        <path d="M 584.8 50 L 584.8 60" />
        <path d="M 601.4 50 L 601.4 60" />
        <path d="M 618 50 L 618 70" />
        <path d="M 634.6 50 L 634.6 60" />
        <path d="M 651.2 50 L 651.2 60" />
        <path d="M 667.8 50 L 667.8 60" />
        <path d="M 684.4 50 L 684.4 60" />
        <path d="M 701 50 L 701 60" />
        <path d="M 717.6 50 L 717.6 60" />
        <path d="M 734.2 50 L 734.2 60" />
        <path d="M 750.8 50 L 750.8 60" />
        <path d="M 767.4 50 L 767.4 60" />
        <path d="M 784 50 L 784 70" />
        <path d="M 800.6 50 L 800.6 60" />
        <path d="M 817.2 50 L 817.2 60" />
        <path d="M 833.8 50 L 833.8 60" />
        <path d="M 850.4 50 L 850.4 60" />
        <path d="M 867 50 L 867 60" />
        <path d="M 883.6 50 L 883.6 60" />
        <path d="M 900.2 50 L 900.2 60" />
        <path d="M 916.8 50 L 916.8 60" />
        <path d="M 933.4 50 L 933.4 60" />
        <path d="M 950 50 L 950 70" />
    </g>
    <g id="frame_0_rightticks">
        <path d="M 950 223.907 L 940 223.907" />
        <path d="M 950 292.536 L 940 292.536" />
        <path d="M 950 920 L 930 920" />
        <path d="M 950 96.453 L 940 96.453" />
        <path d="M 950 86.6488 L 940 86.6488" />
        <path d="M 950 743.526 L 940 743.526" />
        <path d="M 950 792.546 L 940 792.546" />
        <path d="M 950 508.226 L 940 508.226" />
        <path d="M 950 537.639 L 940 537.639" />
        <path d="M 950 302.34 L 940 302.34" />
        <path d="M 950 821.959 L 930 821.959" />
        <path d="M 950 410.185 L 940 410.185" />
        <path d="M 950 782.742 L 940 782.742" />
        <path d="M 950 694.505 L 940 694.505" />
        <path d="M 950 282.731 L 940 282.731" />
        <path d="M 950 831.763 L 940 831.763" />
        <path d="M 950 567.051 L 940 567.051" />
        <path d="M 950 312.144 L 940 312.144" />
        <path d="M 950 714.113 L 940 714.113" />
        <path d="M 950 723.917 L 930 723.917" />
        <path d="M 950 733.722 L 940 733.722" />
        <path d="M 950 184.69 L 940 184.69" />
        <path d="M 950 841.567 L 940 841.567" />
        <path d="M 950 488.618 L 940 488.618" />
        <path d="M 950 469.01 L 940 469.01" />
        <path d="M 950 635.68 L 940 635.68" />
        <path d="M 950 753.33 L 940 753.33" />
        <path d="M 950 625.876 L 930 625.876" />
        <path d="M 950 214.103 L 940 214.103" />
        <path d="M 950 419.989 L 940 419.989" />
        <path d="M 950 910.196 L 940 910.196" />
        <path d="M 950 851.371 L 940 851.371" />
        <path d="M 950 116.061 L 940 116.061" />
        <path d="M 950 370.969 L 940 370.969" />
        <path d="M 950 645.484 L 940 645.484" />
        <path d="M 950 351.36 L 940 351.36" />
        <path d="M 950 125.865 L 940 125.865" />
        <path d="M 950 861.175 L 940 861.175" />
        <path d="M 950 812.155 L 940 812.155" />
        <path d="M 950 400.381 L 940 400.381" />
        <path d="M 950 547.443 L 940 547.443" />
        <path d="M 950 439.598 L 940 439.598" />
        <path d="M 950 380.773 L 940 380.773" />
        <path d="M 950 429.793 L 930 429.793" />
        <path d="M 950 655.288 L 940 655.288" />
        <path d="M 950 145.474 L 940 145.474" />
        <path d="M 950 763.134 L 940 763.134" />
        <path d="M 950 57.2364 L 940 57.2364" />
        <path d="M 950 557.247 L 940 557.247" />
        <path d="M 950 243.515 L 940 243.515" />
        <path d="M 950 665.093 L 940 665.093" />
        <path d="M 950 772.938 L 940 772.938" />
        <path d="M 950 870.979 L 940 870.979" />
        <path d="M 950 459.206 L 940 459.206" />
        <path d="M 950 331.752 L 930 331.752" />
        <path d="M 950 616.072 L 940 616.072" />
        <path d="M 950 204.298 L 940 204.298" />
        <path d="M 950 253.319 L 940 253.319" />
        <path d="M 950 76.8447 L 940 76.8447" />
        <path d="M 950 900.392 L 940 900.392" />
        <path d="M 950 361.165 L 940 361.165" />
        <path d="M 950 155.278 L 940 155.278" />
        <path d="M 950 321.948 L 940 321.948" />
        <path d="M 950 106.257 L 940 106.257" />
        <path d="M 950 263.123 L 940 263.123" />
        <path d="M 950 233.711 L 930 233.711" />
        <path d="M 950 802.35 L 940 802.35" />
        <path d="M 950 684.701 L 940 684.701" />
        <path d="M 950 880.783 L 940 880.783" />
        <path d="M 950 674.897 L 940 674.897" />
        <path d="M 950 165.082 L 940 165.082" />
        <path d="M 950 135.669 L 930 135.669" />
        <path d="M 950 272.927 L 940 272.927" />
        <path d="M 950 341.556 L 940 341.556" />
        <path d="M 950 67.0406 L 940 67.0406" />
        <path d="M 950 576.855 L 940 576.855" />
        <path d="M 950 174.886 L 940 174.886" />
        <path d="M 950 586.66 L 940 586.66" />
        <path d="M 950 449.402 L 940 449.402" />
        <path d="M 950 390.577 L 940 390.577" />
        <path d="M 950 596.464 L 940 596.464" />
        <path d="M 950 606.268 L 940 606.268" />
        <path d="M 950 194.494 L 940 194.494" />
        <path d="M 950 704.309 L 940 704.309" />
        <path d="M 950 518.031 L 940 518.031" />
        <path d="M 950 527.835 L 930 527.835" />
        <path d="M 950 890.588 L 940 890.588" />
        <path d="M 950 478.814 L 940 478.814" />
        <path d="M 950 498.422 L 940 498.422" />
    </g>
</g>
</g>
</svg>
