<?xml version="1.0" standalone="no"?>
<!DOCTYPE svg PUBLIC "-//W3C//DTD SVG 1.1//EN" "http://www.w3.org/Graphics/SVG/1.1/DTD/svg11.dtd">
<svg style="stroke-linejoin:miter; stroke:black; stroke-width:2.5; text-anchor:middle; fill:none" xmlns="http://www.w3.org/2000/svg" font-family="Helvetica, Arial, FreeSans, Sans, sans, sans-serif" width="1000px" height="1000px" version="1.1" xmlns:xlink="http://www.w3.org/1999/xlink" viewBox="0 0 1000 1000">
<defs>
    <clipPath id="Histogram_0_clip">
        <rect x="120" y="50" width="830" height="870" />
    </clipPath>
</defs>
<g id="whole_document">
<rect id="background" x="0" y="0" width="1000" height="1000" stroke="none" fill="white" />
<g id="Histogram_0" clip-path="url(#Histogram_0_clip)">
    <path d="M 120 920 L 120 129.091 L 161.5 129.091 L 161.5 897.938 L 203 897.938 L 203 920 L 244.5 920 L 244.5 920 L 286 920 L 286 888.582 L 327.5 888.582 L 327.5 920 L 369 920 L 369 920 L 410.5 920 L 410.5 920 L 452 920 L 452 920 L 493.5 920 L 493.5 920 L 535 920 L 535 920 L 576.5 920 L 576.5 920 L 618 920 L 618 920 L 659.5 920 L 659.5 920 L 701 920 L 701 920 L 742.5 920 L 742.5 920 L 784 920 L 784 920 L 825.5 920 L 825.5 920 L 867 920 L 867 920 L 908.5 920 L 908.5 920 L 950 920 L 950 920" stroke-width="3" stroke-dasharray="" stroke="black" stroke-opacity="1" fill="DodgerBlue" fill-opacity="1" />
</g>
<g id="frame_0">
    <rect id="frame_0_border" x="120" y="50" width="830" height="870" />
    <text id="frame_0_bottomlabel" font-size="30" transform="translate(535, 989.6)" text-anchor="middle" dominant-baseline="middle" stroke="none" fill="black">microseconds</text>
    <g id="frame_0_bottomticks">
        <path d="M 120 920 L 120 900" />
        <text font-size="30" transform="translate(120, 950)" text-anchor="middle" dominant-baseline="middle" stroke="none" fill="black">0</text>
        <path d="M 136.6 920 L 136.6 910" />
        <path d="M 153.2 920 L 153.2 910" />
        <path d="M 169.8 920 L 169.8 910" />
        <path d="M 186.4 920 L 186.4 910" />
        <path d="M 203 920 L 203 910" />
        <path d="M 219.6 920 L 219.6 910" />
        <path d="M 236.2 920 L 236.2 910" />
        <path d="M 252.8 920 L 252.8 910" />
        <path d="M 269.4 920 L 269.4 910" />
        <path d="M 286 920 L 286 900" />
        <text font-size="30" transform="translate(286, 950)" text-anchor="middle" dominant-baseline="middle" stroke="none" fill="black">10</text>
        <path d="M 302.6 920 L 302.6 910" />
        <path d="M 319.2 920 L 319.2 910" />
        <path d="M 335.8 920 L 335.8 910" />
        <path d="M 352.4 920 L 352.4 910" />
        <path d="M 369 920 L 369 910" />
        <path d="M 385.6 920 L 385.6 910" />
        <path d="M 402.2 920 L 402.2 910" />
        <path d="M 418.8 920 L 418.8 910" />
        <path d="M 435.4 920 L 435.4 910" />
        <path d="M 452 920 L 452 900" />
        <text font-size="30" transform="translate(452, 950)" text-anchor="middle" dominant-baseline="middle" stroke="none" fill="black">20</text>
        <path d="M 468.6 920 L 468.6 910" />
        <path d="M 485.2 920 L 485.2 910" />
        <path d="M 501.8 920 L 501.8 910" />
        <path d="M 518.4 920 L 518.4 910" />
        <path d="M 535 920 L 535 910" />
        <path d="M 551.6 920 L 551.6 910" />
        <path d="M 568.2 920 L 568.2 910" />
        <path d="M 584.8 920 L 584.8 910" />
        <path d="M 601.4 920 L 601.4 910" />
        <path d="M 618 920 L 618 900" />
        <text font-size="30" transform="translate(618, 950)" text-anchor="middle" dominant-baseline="middle" stroke="none" fill="black">30</text>
        <path d="M 634.6 920 L 634.6 910" />
        <path d="M 651.2 920 L 651.2 910" />
        <path d="M 667.8 920 L 667.8 910" />
        <path d="M 684.4 920 L 684.4 910" />
        <path d="M 701 920 L 701 910" />
        <path d="M 717.6 920 L 717.6 910" />
        <path d="M 734.2 920 L 734.2 910" />
        <path d="M 750.8 920 L 750.8 910" />
        <path d="M 767.4 920 L 767.4 910" />
        <path d="M 784 920 L 784 900" />
        <text font-size="30" transform="translate(784, 950)" text-anchor="middle" dominant-baseline="middle" stroke="none" fill="black">40</text>
        <path d="M 800.6 920 L 800.6 910" />
        <path d="M 817.2 920 L 817.2 910" />
        <path d="M 833.8 920 L 833.8 910" />
        <path d="M 850.4 920 L 850.4 910" />
        <path d="M 867 920 L 867 910" />
        <path d="M 883.6 920 L 883.6 910" />
        <path d="M 900.2 920 L 900.2 910" />
        <path d="M 916.8 920 L 916.8 910" />
        <path d="M 933.4 920 L 933.4 910" />
        <path d="M 950 920 L 950 900" />
        <text font-size="30" transform="translate(950, 950)" text-anchor="middle" dominant-baseline="middle" stroke="none" fill="black">50</text>
    </g>
    <g id="frame_0_leftticks">
        <path d="M 120 627.057 L 130 627.057" />
        <path d="M 120 480.586 L 130 480.586" />
        <path d="M 120 425.659 L 130 425.659" />
        <path d="M 120 535.513 L 130 535.513" />
        <path d="M 120 297.496 L 130 297.496" />
        <path d="M 120 443.968 L 130 443.968" />
        <path d="M 120 791.838 L 130 791.838" />
        <path d="M 120 59.4804 L 130 59.4804" />
        <path d="M 120 645.366 L 130 645.366" />
        <path d="M 120 920 L 140 920" />
        <text font-size="30" transform="translate(110, 930)" text-anchor="end" dominant-baseline="middle" stroke="none" fill="black">0</text>
        <path d="M 120 389.041 L 130 389.041" />
        <path d="M 120 352.423 L 130 352.423" />
        <path d="M 120 205.952 L 130 205.952" />
        <path d="M 120 846.764 L 130 846.764" />
        <path d="M 120 517.204 L 130 517.204" />
        <path d="M 120 114.407 L 130 114.407" />
        <path d="M 120 736.911 L 140 736.911" />
        <text font-size="30" transform="translate(110, 746.911)" text-anchor="end" dominant-baseline="middle" stroke="none" fill="black">10000</text>
        <path d="M 120 553.821 L 140 553.821" />
        <text font-size="30" transform="translate(110, 563.821)" text-anchor="end" dominant-baseline="middle" stroke="none" fill="black">20000</text>
        <path d="M 120 755.22 L 130 755.22" />
        <path d="M 120 260.879 L 130 260.879" />
        <path d="M 120 663.675 L 130 663.675" />
        <path d="M 120 828.455 L 130 828.455" />
        <path d="M 120 169.334 L 130 169.334" />
        <path d="M 120 572.13 L 130 572.13" />
        <path d="M 120 315.805 L 130 315.805" />
        <path d="M 120 773.529 L 130 773.529" />
        <path d="M 120 407.35 L 130 407.35" />
        <path d="M 120 462.277 L 130 462.277" />
        <path d="M 120 681.984 L 130 681.984" />
        <path d="M 120 224.261 L 130 224.261" />
        <path d="M 120 370.732 L 140 370.732" />
        <text font-size="30" transform="translate(110, 380.732)" text-anchor="end" dominant-baseline="middle" stroke="none" fill="black">30000</text>
        <path d="M 120 883.382 L 130 883.382" />
        <path d="M 120 865.073 L 130 865.073" />
        <path d="M 120 132.716 L 130 132.716" />
        <path d="M 120 498.895 L 130 498.895" />
        <path d="M 120 279.188 L 130 279.188" />
        <path d="M 120 700.293 L 130 700.293" />
        <path d="M 120 590.439 L 130 590.439" />
        <path d="M 120 901.691 L 130 901.691" />
        <path d="M 120 151.025 L 130 151.025" />
        <path d="M 120 334.114 L 130 334.114" />
        <path d="M 120 810.146 L 130 810.146" />
        <path d="M 120 608.748 L 130 608.748" />
        <path d="M 120 187.643 L 140 187.643" />
        <text font-size="30" transform="translate(110, 197.643)" text-anchor="end" dominant-baseline="middle" stroke="none" fill="black">40000</text>
        <path d="M 120 96.0982 L 130 96.0982" />
        <path d="M 120 718.602 L 130 718.602" />
        <path d="M 120 242.57 L 130 242.57" />
        <path d="M 120 77.7893 L 130 77.7893" />
    </g>
    <text id="frame_0_toplabel" font-size="30" transform="translate(535, 32.6)" text-anchor="middle" dominant-baseline="middle" stroke="none" fill="black">m.link.cloglog</text>
    <g id="frame_0_topticks">
        <path d="M 120 50 L 120 70" />
        <path d="M 136.6 50 L 136.6 60" />
        <path d="M 153.2 50 L 153.2 60" />
        <path d="M 169.8 50 L 169.8 60" />
        <path d="M 186.4 50 L 186.4 60" />
        <path d="M 203 50 L 203 60" />
        <path d="M 219.6 50 L 219.6 60" />
        <path d="M 236.2 50 L 236.2 60" />
        <path d="M 252.8 50 L 252.8 60" />
        <path d="M 269.4 50 L 269.4 60" />
        <path d="M 286 50 L 286 70" />
        <path d="M 302.6 50 L 302.6 60" />
        <path d="M 319.2 50 L 319.2 60" />
        <path d="M 335.8 50 L 335.8 60" />
        <path d="M 352.4 50 L 352.4 60" />
        <path d="M 369 50 L 369 60" />
        <path d="M 385.6 50 L 385.6 60" />
        <path d="M 402.2 50 L 402.2 60" />
        <path d="M 418.8 50 L 418.8 60" />
        <path d="M 435.4 50 L 435.4 60" />
        <path d="M 452 50 L 452 70" />
        <path d="M 468.6 50 L 468.6 60" />
        <path d="M 485.2 50 L 485.2 60" />
        <path d="M 501.8 50 L 501.8 60" />
        <path d="M 518.4 50 L 518.4 60" />
        <path d="M 535 50 L 535 60" />
        <path d="M 551.6 50 L 551.6 60" />
        <path d="M 568.2 50 L 568.2 60" />
        <path d="M 584.8 50 L 584.8 60" />
        <path d="M 601.4 50 L 601.4 60" />
        <path d="M 618 50 L 618 70" />
        <path d="M 634.6 50 L 634.6 60" />
        <path d="M 651.2 50 L 651.2 60" />
        <path d="M 667.8 50 L 667.8 60" />
        <path d="M 684.4 50 L 684.4 60" />
        <path d="M 701 50 L 701 60" />
        <path d="M 717.6 50 L 717.6 60" />
        <path d="M 734.2 50 L 734.2 60" />
        <path d="M 750.8 50 L 750.8 60" />
        <path d="M 767.4 50 L 767.4 60" />
        <path d="M 784 50 L 784 70" />
        <path d="M 800.6 50 L 800.6 60" />
        <path d="M 817.2 50 L 817.2 60" />
        <path d="M 833.8 50 L 833.8 60" />
        <path d="M 850.4 50 L 850.4 60" />
        <path d="M 867 50 L 867 60" />
        <path d="M 883.6 50 L 883.6 60" />
        <path d="M 900.2 50 L 900.2 60" />
        <path d="M 916.8 50 L 916.8 60" />
        <path d="M 933.4 50 L 933.4 60" />
        <path d="M 950 50 L 950 70" />
    </g>
    <g id="frame_0_rightticks">
        <path d="M 950 627.057 L 940 627.057" />
        <path d="M 950 480.586 L 940 480.586" />
        <path d="M 950 425.659 L 940 425.659" />
        <path d="M 950 535.513 L 940 535.513" />
        <path d="M 950 297.496 L 940 297.496" />
        <path d="M 950 443.968 L 940 443.968" />
        <path d="M 950 791.838 L 940 791.838" />
        <path d="M 950 59.4804 L 940 59.4804" />
        <path d="M 950 645.366 L 940 645.366" />
        <path d="M 950 920 L 930 920" />
        <path d="M 950 389.041 L 940 389.041" />
        <path d="M 950 352.423 L 940 352.423" />
        <path d="M 950 205.952 L 940 205.952" />
        <path d="M 950 846.764 L 940 846.764" />
        <path d="M 950 517.204 L 940 517.204" />
        <path d="M 950 114.407 L 940 114.407" />
        <path d="M 950 736.911 L 930 736.911" />
        <path d="M 950 553.821 L 930 553.821" />
        <path d="M 950 755.22 L 940 755.22" />
        <path d="M 950 260.879 L 940 260.879" />
        <path d="M 950 663.675 L 940 663.675" />
        <path d="M 950 828.455 L 940 828.455" />
        <path d="M 950 169.334 L 940 169.334" />
        <path d="M 950 572.13 L 940 572.13" />
        <path d="M 950 315.805 L 940 315.805" />
        <path d="M 950 773.529 L 940 773.529" />
        <path d="M 950 407.35 L 940 407.35" />
        <path d="M 950 462.277 L 940 462.277" />
        <path d="M 950 681.984 L 940 681.984" />
        <path d="M 950 224.261 L 940 224.261" />
        <path d="M 950 370.732 L 930 370.732" />
        <path d="M 950 883.382 L 940 883.382" />
        <path d="M 950 865.073 L 940 865.073" />
        <path d="M 950 132.716 L 940 132.716" />
        <path d="M 950 498.895 L 940 498.895" />
        <path d="M 950 279.188 L 940 279.188" />
        <path d="M 950 700.293 L 940 700.293" />
        <path d="M 950 590.439 L 940 590.439" />
        <path d="M 950 901.691 L 940 901.691" />
        <path d="M 950 151.025 L 940 151.025" />
        <path d="M 950 334.114 L 940 334.114" />
        <path d="M 950 810.146 L 940 810.146" />
        <path d="M 950 608.748 L 940 608.748" />
        <path d="M 950 187.643 L 930 187.643" />
        <path d="M 950 96.0982 L 940 96.0982" />
        <path d="M 950 718.602 L 940 718.602" />
        <path d="M 950 242.57 L 940 242.57" />
        <path d="M 950 77.7893 L 940 77.7893" />
    </g>
</g>
</g>
</svg>
