<?xml version="1.0" standalone="no"?>
<!DOCTYPE svg PUBLIC "-//W3C//DTD SVG 1.1//EN" "http://www.w3.org/Graphics/SVG/1.1/DTD/svg11.dtd">
<svg style="stroke-linejoin:miter; stroke:black; stroke-width:2.5; text-anchor:middle; fill:none" xmlns="http://www.w3.org/2000/svg" font-family="Helvetica, Arial, FreeSans, Sans, sans, sans-serif" width="1000px" height="1000px" version="1.1" xmlns:xlink="http://www.w3.org/1999/xlink" viewBox="0 0 1000 1000">
<defs>
    <clipPath id="Histogram_0_clip">
        <rect x="120" y="50" width="830" height="870" />
    </clipPath>
    <clipPath id="Histogram_1_clip">
        <rect x="120" y="50" width="830" height="870" />
    </clipPath>
</defs>
<g id="whole_document">
<rect id="background" x="0" y="0" width="1000" height="1000" stroke="none" fill="white" />
<g id="Histogram_0" clip-path="url(#Histogram_0_clip)">
    <path d="M 120 920 L 120 920 L 161.5 920 L 161.5 920 L 203 920 L 203 920 L 244.5 920 L 244.5 129.091 L 286 129.091 L 286 430.864 L 327.5 430.864 L 327.5 757.418 L 369 757.418 L 369 788.22 L 410.5 788.22 L 410.5 882.713 L 452 882.713 L 452 908.883 L 493.5 908.883 L 493.5 920 L 535 920 L 535 884.102 L 576.5 884.102 L 576.5 895.682 L 618 895.682 L 618 881.786 L 659.5 881.786 L 659.5 912.82 L 701 912.82 L 701 907.03 L 742.5 907.03 L 742.5 913.978 L 784 913.978 L 784 914.21 L 825.5 914.21 L 825.5 920 L 867 920 L 867 920 L 908.5 920 L 908.5 915.136 L 950 915.136 L 950 920" stroke-width="3" stroke-dasharray="" stroke="black" stroke-opacity="1" fill="DodgerBlue" fill-opacity="1" />
</g>
<g id="Histogram_1" clip-path="url(#Histogram_1_clip)">
    <path d="M 120 920 L 120 920 L 161.5 920 L 161.5 920 L 203 920 L 203 920 L 244.5 920 L 244.5 129.091 L 286 129.091 L 286 430.864 L 327.5 430.864 L 327.5 757.418 L 369 757.418 L 369 788.22 L 410.5 788.22 L 410.5 882.713 L 452 882.713 L 452 908.883 L 493.5 908.883 L 493.5 920 L 535 920 L 535 892.903 L 576.5 892.903 L 576.5 895.682 L 618 895.682 L 618 904.714 L 659.5 904.714 L 659.5 912.82 L 701 912.82 L 701 913.284 L 742.5 913.284 L 742.5 913.978 L 784 913.978 L 784 914.21 L 825.5 914.21 L 825.5 920 L 867 920 L 867 920 L 908.5 920 L 908.5 915.136 L 950 915.136 L 950 920" stroke-width="3" stroke-dasharray="" stroke="black" stroke-opacity="1" fill="darkorange" fill-opacity="1" />
</g>
<g id="frame_0">
    <rect id="frame_0_border" x="120" y="50" width="830" height="870" />
    <text id="frame_0_bottomlabel" font-size="30" transform="translate(535, 989.6)" text-anchor="middle" dominant-baseline="middle" stroke="none" fill="black">microseconds</text>
    <g id="frame_0_bottomticks">
        <path d="M 120 920 L 120 900" />
        <text font-size="30" transform="translate(120, 950)" text-anchor="middle" dominant-baseline="middle" stroke="none" fill="black">0</text>
        <path d="M 136.6 920 L 136.6 910" />
        <path d="M 153.2 920 L 153.2 910" />
        <path d="M 169.8 920 L 169.8 910" />
        <path d="M 186.4 920 L 186.4 910" />
        <path d="M 203 920 L 203 910" />
        <path d="M 219.6 920 L 219.6 910" />
        <path d="M 236.2 920 L 236.2 910" />
        <path d="M 252.8 920 L 252.8 910" />
        <path d="M 269.4 920 L 269.4 910" />
        <path d="M 286 920 L 286 900" />
        <text font-size="30" transform="translate(286, 950)" text-anchor="middle" dominant-baseline="middle" stroke="none" fill="black">10</text>
        <path d="M 302.6 920 L 302.6 910" />
        <path d="M 319.2 920 L 319.2 910" />
        <path d="M 335.8 920 L 335.8 910" />
        <path d="M 352.4 920 L 352.4 910" />
        <path d="M 369 920 L 369 910" />
        <path d="M 385.6 920 L 385.6 910" />
        <path d="M 402.2 920 L 402.2 910" />
        <path d="M 418.8 920 L 418.8 910" />
        <path d="M 435.4 920 L 435.4 910" />
        <path d="M 452 920 L 452 900" />
        <text font-size="30" transform="translate(452, 950)" text-anchor="middle" dominant-baseline="middle" stroke="none" fill="black">20</text>
        <path d="M 468.6 920 L 468.6 910" />
        <path d="M 485.2 920 L 485.2 910" />
        <path d="M 501.8 920 L 501.8 910" />
        <path d="M 518.4 920 L 518.4 910" />
        <path d="M 535 920 L 535 910" />
        <path d="M 551.6 920 L 551.6 910" />
        <path d="M 568.2 920 L 568.2 910" />
        <path d="M 584.8 920 L 584.8 910" />
        <path d="M 601.4 920 L 601.4 910" />
        <path d="M 618 920 L 618 900" />
        <text font-size="30" transform="translate(618, 950)" text-anchor="middle" dominant-baseline="middle" stroke="none" fill="black">30</text>
        <path d="M 634.6 920 L 634.6 910" />
        <path d="M 651.2 920 L 651.2 910" />
        <path d="M 667.8 920 L 667.8 910" />
        <path d="M 684.4 920 L 684.4 910" />
        <path d="M 701 920 L 701 910" />
        <path d="M 717.6 920 L 717.6 910" />
        <path d="M 734.2 920 L 734.2 910" />
        <path d="M 750.8 920 L 750.8 910" />
        <path d="M 767.4 920 L 767.4 910" />
        <path d="M 784 920 L 784 900" />
        <text font-size="30" transform="translate(784, 950)" text-anchor="middle" dominant-baseline="middle" stroke="none" fill="black">40</text>
        <path d="M 800.6 920 L 800.6 910" />
        <path d="M 817.2 920 L 817.2 910" />
        <path d="M 833.8 920 L 833.8 910" />
        <path d="M 850.4 920 L 850.4 910" />
        <path d="M 867 920 L 867 910" />
        <path d="M 883.6 920 L 883.6 910" />
        <path d="M 900.2 920 L 900.2 910" />
        <path d="M 916.8 920 L 916.8 910" />
        <path d="M 933.4 920 L 933.4 910" />
        <path d="M 950 920 L 950 900" />
        <text font-size="30" transform="translate(950, 950)" text-anchor="middle" dominant-baseline="middle" stroke="none" fill="black">50</text>
    </g>
    <g id="frame_0_leftticks">
        <path d="M 120 178.885 L 130 178.885" />
        <path d="M 120 920 L 140 920" />
        <text font-size="30" transform="translate(110, 930)" text-anchor="end" dominant-baseline="middle" stroke="none" fill="black">0</text>
        <path d="M 120 711.561 L 130 711.561" />
        <path d="M 120 503.123 L 130 503.123" />
        <path d="M 120 109.405 L 140 109.405" />
        <text font-size="30" transform="translate(110, 119.405)" text-anchor="end" dominant-baseline="middle" stroke="none" fill="black">3500</text>
        <path d="M 120 294.684 L 130 294.684" />
        <path d="M 120 827.361 L 130 827.361" />
        <path d="M 120 618.922 L 130 618.922" />
        <path d="M 120 410.483 L 130 410.483" />
        <path d="M 120 202.044 L 130 202.044" />
        <path d="M 120 734.721 L 130 734.721" />
        <path d="M 120 526.282 L 130 526.282" />
        <path d="M 120 317.844 L 130 317.844" />
        <path d="M 120 850.52 L 130 850.52" />
        <path d="M 120 642.082 L 130 642.082" />
        <path d="M 120 132.565 L 130 132.565" />
        <path d="M 120 433.643 L 130 433.643" />
        <path d="M 120 225.204 L 140 225.204" />
        <text font-size="30" transform="translate(110, 235.204)" text-anchor="end" dominant-baseline="middle" stroke="none" fill="black">3000</text>
        <path d="M 120 804.201 L 140 804.201" />
        <text font-size="30" transform="translate(110, 814.201)" text-anchor="end" dominant-baseline="middle" stroke="none" fill="black">500</text>
        <path d="M 120 757.881 L 130 757.881" />
        <path d="M 120 549.442 L 130 549.442" />
        <path d="M 120 341.004 L 140 341.004" />
        <text font-size="30" transform="translate(110, 351.004)" text-anchor="end" dominant-baseline="middle" stroke="none" fill="black">2500</text>
        <path d="M 120 873.68 L 130 873.68" />
        <path d="M 120 665.242 L 130 665.242" />
        <path d="M 120 456.803 L 140 456.803" />
        <text font-size="30" transform="translate(110, 466.803)" text-anchor="end" dominant-baseline="middle" stroke="none" fill="black">2000</text>
        <path d="M 120 248.364 L 130 248.364" />
        <path d="M 120 781.041 L 130 781.041" />
        <path d="M 120 155.725 L 130 155.725" />
        <path d="M 120 572.602 L 140 572.602" />
        <text font-size="30" transform="translate(110, 582.602)" text-anchor="end" dominant-baseline="middle" stroke="none" fill="black">1500</text>
        <path d="M 120 364.163 L 130 364.163" />
        <path d="M 120 86.2452 L 130 86.2452" />
        <path d="M 120 896.84 L 130 896.84" />
        <path d="M 120 688.401 L 140 688.401" />
        <text font-size="30" transform="translate(110, 698.401)" text-anchor="end" dominant-baseline="middle" stroke="none" fill="black">1000</text>
        <path d="M 120 479.963 L 130 479.963" />
        <path d="M 120 271.524 L 130 271.524" />
        <path d="M 120 63.0853 L 130 63.0853" />
        <path d="M 120 595.762 L 130 595.762" />
        <path d="M 120 387.323 L 130 387.323" />
    </g>
    <text id="frame_0_toplabel" font-size="30" transform="translate(535, 32.6)" text-anchor="middle" dominant-baseline="middle" stroke="none" fill="black">la.eigenBasis</text>
    <g id="frame_0_topticks">
        <path d="M 120 50 L 120 70" />
        <path d="M 136.6 50 L 136.6 60" />
        <path d="M 153.2 50 L 153.2 60" />
        <path d="M 169.8 50 L 169.8 60" />
        <path d="M 186.4 50 L 186.4 60" />
        <path d="M 203 50 L 203 60" />
        <path d="M 219.6 50 L 219.6 60" />
        <path d="M 236.2 50 L 236.2 60" />
        <path d="M 252.8 50 L 252.8 60" />
        <path d="M 269.4 50 L 269.4 60" />
        <path d="M 286 50 L 286 70" />
        <path d="M 302.6 50 L 302.6 60" />
        <path d="M 319.2 50 L 319.2 60" />
        <path d="M 335.8 50 L 335.8 60" />
        <path d="M 352.4 50 L 352.4 60" />
        <path d="M 369 50 L 369 60" />
        <path d="M 385.6 50 L 385.6 60" />
        <path d="M 402.2 50 L 402.2 60" />
        <path d="M 418.8 50 L 418.8 60" />
        <path d="M 435.4 50 L 435.4 60" />
        <path d="M 452 50 L 452 70" />
        <path d="M 468.6 50 L 468.6 60" />
        <path d="M 485.2 50 L 485.2 60" />
        <path d="M 501.8 50 L 501.8 60" />
        <path d="M 518.4 50 L 518.4 60" />
        <path d="M 535 50 L 535 60" />
        <path d="M 551.6 50 L 551.6 60" />
        <path d="M 568.2 50 L 568.2 60" />
        <path d="M 584.8 50 L 584.8 60" />
        <path d="M 601.4 50 L 601.4 60" />
        <path d="M 618 50 L 618 70" />
        <path d="M 634.6 50 L 634.6 60" />
        <path d="M 651.2 50 L 651.2 60" />
        <path d="M 667.8 50 L 667.8 60" />
        <path d="M 684.4 50 L 684.4 60" />
        <path d="M 701 50 L 701 60" />
        <path d="M 717.6 50 L 717.6 60" />
        <path d="M 734.2 50 L 734.2 60" />
        <path d="M 750.8 50 L 750.8 60" />
        <path d="M 767.4 50 L 767.4 60" />
        <path d="M 784 50 L 784 70" />
        <path d="M 800.6 50 L 800.6 60" />
        <path d="M 817.2 50 L 817.2 60" />
        <path d="M 833.8 50 L 833.8 60" />
        <path d="M 850.4 50 L 850.4 60" />
        <path d="M 867 50 L 867 60" />
        <path d="M 883.6 50 L 883.6 60" />
        <path d="M 900.2 50 L 900.2 60" />
        <path d="M 916.8 50 L 916.8 60" />
        <path d="M 933.4 50 L 933.4 60" />
        <path d="M 950 50 L 950 70" />
    </g>
    <g id="frame_0_rightticks">
        <path d="M 950 178.885 L 940 178.885" />
        <path d="M 950 920 L 930 920" />
        <path d="M 950 711.561 L 940 711.561" />
        <path d="M 950 503.123 L 940 503.123" />
        <path d="M 950 109.405 L 930 109.405" />
        <path d="M 950 294.684 L 940 294.684" />
        <path d="M 950 827.361 L 940 827.361" />
        <path d="M 950 618.922 L 940 618.922" />
        <path d="M 950 410.483 L 940 410.483" />
        <path d="M 950 202.044 L 940 202.044" />
        <path d="M 950 734.721 L 940 734.721" />
        <path d="M 950 526.282 L 940 526.282" />
        <path d="M 950 317.844 L 940 317.844" />
        <path d="M 950 850.52 L 940 850.52" />
        <path d="M 950 642.082 L 940 642.082" />
        <path d="M 950 132.565 L 940 132.565" />
        <path d="M 950 433.643 L 940 433.643" />
        <path d="M 950 225.204 L 930 225.204" />
        <path d="M 950 804.201 L 930 804.201" />
        <path d="M 950 757.881 L 940 757.881" />
        <path d="M 950 549.442 L 940 549.442" />
        <path d="M 950 341.004 L 930 341.004" />
        <path d="M 950 873.68 L 940 873.68" />
        <path d="M 950 665.242 L 940 665.242" />
        <path d="M 950 456.803 L 930 456.803" />
        <path d="M 950 248.364 L 940 248.364" />
        <path d="M 950 781.041 L 940 781.041" />
        <path d="M 950 155.725 L 940 155.725" />
        <path d="M 950 572.602 L 930 572.602" />
        <path d="M 950 364.163 L 940 364.163" />
        <path d="M 950 86.2452 L 940 86.2452" />
        <path d="M 950 896.84 L 940 896.84" />
        <path d="M 950 688.401 L 930 688.401" />
        <path d="M 950 479.963 L 940 479.963" />
        <path d="M 950 271.524 L 940 271.524" />
        <path d="M 950 63.0853 L 940 63.0853" />
        <path d="M 950 595.762 L 940 595.762" />
        <path d="M 950 387.323 L 940 387.323" />
    </g>
</g>
</g>
</svg>
