<?xml version="1.0" standalone="no"?>
<!DOCTYPE svg PUBLIC "-//W3C//DTD SVG 1.1//EN" "http://www.w3.org/Graphics/SVG/1.1/DTD/svg11.dtd">
<svg style="stroke-linejoin:miter; stroke:black; stroke-width:2.5; text-anchor:middle; fill:none" xmlns="http://www.w3.org/2000/svg" font-family="Helvetica, Arial, FreeSans, Sans, sans, sans-serif" width="1000px" height="1000px" version="1.1" xmlns:xlink="http://www.w3.org/1999/xlink" viewBox="0 0 1000 1000">
<defs>
    <clipPath id="Histogram_0_clip">
        <rect x="120" y="50" width="830" height="870" />
    </clipPath>
    <clipPath id="Histogram_1_clip">
        <rect x="120" y="50" width="830" height="870" />
    </clipPath>
</defs>
<g id="whole_document">
<rect id="background" x="0" y="0" width="1000" height="1000" stroke="none" fill="white" />
<g id="Histogram_0" clip-path="url(#Histogram_0_clip)">
    <path d="M 120 920 L 120 700.356 L 161.5 700.356 L 161.5 129.091 L 203 129.091 L 203 896.955 L 244.5 896.955 L 244.5 920 L 286 920 L 286 910.14 L 327.5 910.14 L 327.5 910.853 L 369 910.853 L 369 920 L 410.5 920 L 410.5 920 L 452 920 L 452 920 L 493.5 920 L 493.5 920 L 535 920 L 535 920 L 576.5 920 L 576.5 920 L 618 920 L 618 920 L 659.5 920 L 659.5 920 L 701 920 L 701 920 L 742.5 920 L 742.5 920 L 784 920 L 784 920 L 825.5 920 L 825.5 920 L 867 920 L 867 920 L 908.5 920 L 908.5 920 L 950 920 L 950 920" stroke-width="3" stroke-dasharray="" stroke="black" stroke-opacity="1" fill="DodgerBlue" fill-opacity="1" />
</g>
<g id="Histogram_1" clip-path="url(#Histogram_1_clip)">
    <path d="M 120 920 L 120 920 L 161.5 920 L 161.5 920 L 203 920 L 203 920 L 244.5 920 L 244.5 920 L 286 920 L 286 910.14 L 327.5 910.14 L 327.5 910.853 L 369 910.853 L 369 920 L 410.5 920 L 410.5 920 L 452 920 L 452 920 L 493.5 920 L 493.5 920 L 535 920 L 535 920 L 576.5 920 L 576.5 920 L 618 920 L 618 920 L 659.5 920 L 659.5 920 L 701 920 L 701 920 L 742.5 920 L 742.5 920 L 784 920 L 784 920 L 825.5 920 L 825.5 920 L 867 920 L 867 920 L 908.5 920 L 908.5 920 L 950 920 L 950 920" stroke-width="3" stroke-dasharray="" stroke="black" stroke-opacity="1" fill="darkorange" fill-opacity="1" />
</g>
<g id="frame_0">
    <rect id="frame_0_border" x="120" y="50" width="830" height="870" />
    <text id="frame_0_bottomlabel" font-size="30" transform="translate(535, 989.6)" text-anchor="middle" dominant-baseline="middle" stroke="none" fill="black">microseconds</text>
    <g id="frame_0_bottomticks">
        <path d="M 120 920 L 120 900" />
        <text font-size="30" transform="translate(120, 950)" text-anchor="middle" dominant-baseline="middle" stroke="none" fill="black">0</text>
        <path d="M 136.6 920 L 136.6 910" />
        <path d="M 153.2 920 L 153.2 910" />
        <path d="M 169.8 920 L 169.8 910" />
        <path d="M 186.4 920 L 186.4 910" />
        <path d="M 203 920 L 203 910" />
        <path d="M 219.6 920 L 219.6 910" />
        <path d="M 236.2 920 L 236.2 910" />
        <path d="M 252.8 920 L 252.8 910" />
        <path d="M 269.4 920 L 269.4 910" />
        <path d="M 286 920 L 286 900" />
        <text font-size="30" transform="translate(286, 950)" text-anchor="middle" dominant-baseline="middle" stroke="none" fill="black">10</text>
        <path d="M 302.6 920 L 302.6 910" />
        <path d="M 319.2 920 L 319.2 910" />
        <path d="M 335.8 920 L 335.8 910" />
        <path d="M 352.4 920 L 352.4 910" />
        <path d="M 369 920 L 369 910" />
        <path d="M 385.6 920 L 385.6 910" />
        <path d="M 402.2 920 L 402.2 910" />
        <path d="M 418.8 920 L 418.8 910" />
        <path d="M 435.4 920 L 435.4 910" />
        <path d="M 452 920 L 452 900" />
        <text font-size="30" transform="translate(452, 950)" text-anchor="middle" dominant-baseline="middle" stroke="none" fill="black">20</text>
        <path d="M 468.6 920 L 468.6 910" />
        <path d="M 485.2 920 L 485.2 910" />
        <path d="M 501.8 920 L 501.8 910" />
        <path d="M 518.4 920 L 518.4 910" />
        <path d="M 535 920 L 535 910" />
        <path d="M 551.6 920 L 551.6 910" />
        <path d="M 568.2 920 L 568.2 910" />
        <path d="M 584.8 920 L 584.8 910" />
        <path d="M 601.4 920 L 601.4 910" />
        <path d="M 618 920 L 618 900" />
        <text font-size="30" transform="translate(618, 950)" text-anchor="middle" dominant-baseline="middle" stroke="none" fill="black">30</text>
        <path d="M 634.6 920 L 634.6 910" />
        <path d="M 651.2 920 L 651.2 910" />
        <path d="M 667.8 920 L 667.8 910" />
        <path d="M 684.4 920 L 684.4 910" />
        <path d="M 701 920 L 701 910" />
        <path d="M 717.6 920 L 717.6 910" />
        <path d="M 734.2 920 L 734.2 910" />
        <path d="M 750.8 920 L 750.8 910" />
        <path d="M 767.4 920 L 767.4 910" />
        <path d="M 784 920 L 784 900" />
        <text font-size="30" transform="translate(784, 950)" text-anchor="middle" dominant-baseline="middle" stroke="none" fill="black">40</text>
        <path d="M 800.6 920 L 800.6 910" />
        <path d="M 817.2 920 L 817.2 910" />
        <path d="M 833.8 920 L 833.8 910" />
        <path d="M 850.4 920 L 850.4 910" />
        <path d="M 867 920 L 867 910" />
        <path d="M 883.6 920 L 883.6 910" />
        <path d="M 900.2 920 L 900.2 910" />
        <path d="M 916.8 920 L 916.8 910" />
        <path d="M 933.4 920 L 933.4 910" />
        <path d="M 950 920 L 950 900" />
        <text font-size="30" transform="translate(950, 950)" text-anchor="middle" dominant-baseline="middle" stroke="none" fill="black">50</text>
    </g>
    <g id="frame_0_leftticks">
        <path d="M 120 539.869 L 130 539.869" />
        <path d="M 120 349.804 L 130 349.804" />
        <path d="M 120 813.088 L 130 813.088" />
        <path d="M 120 147.86 L 130 147.86" />
        <path d="M 120 920 L 140 920" />
        <text font-size="30" transform="translate(110, 930)" text-anchor="end" dominant-baseline="middle" stroke="none" fill="black">0</text>
        <path d="M 120 706.177 L 130 706.177" />
        <path d="M 120 504.232 L 130 504.232" />
        <path d="M 120 599.265 L 130 599.265" />
        <path d="M 120 872.484 L 130 872.484" />
        <path d="M 120 468.595 L 130 468.595" />
        <path d="M 120 195.376 L 130 195.376" />
        <path d="M 120 765.572 L 130 765.572" />
        <path d="M 120 658.66 L 130 658.66" />
        <path d="M 120 432.958 L 130 432.958" />
        <path d="M 120 551.749 L 130 551.749" />
        <path d="M 120 824.967 L 130 824.967" />
        <path d="M 120 397.321 L 130 397.321" />
        <path d="M 120 266.651 L 130 266.651" />
        <path d="M 120 718.056 L 130 718.056" />
        <path d="M 120 219.134 L 130 219.134" />
        <path d="M 120 64.7063 L 130 64.7063" />
        <path d="M 120 611.144 L 130 611.144" />
        <path d="M 120 361.683 L 130 361.683" />
        <path d="M 120 884.363 L 130 884.363" />
        <path d="M 120 777.451 L 130 777.451" />
        <path d="M 120 516.111 L 130 516.111" />
        <path d="M 120 670.539 L 130 670.539" />
        <path d="M 120 682.418 L 140 682.418" />
        <text font-size="30" transform="translate(110, 692.418)" text-anchor="end" dominant-baseline="middle" stroke="none" fill="black">2000</text>
        <path d="M 120 183.497 L 130 183.497" />
        <path d="M 120 480.474 L 130 480.474" />
        <path d="M 120 112.223 L 130 112.223" />
        <path d="M 120 836.846 L 130 836.846" />
        <path d="M 120 729.935 L 130 729.935" />
        <path d="M 120 254.772 L 130 254.772" />
        <path d="M 120 290.409 L 130 290.409" />
        <path d="M 120 623.023 L 130 623.023" />
        <path d="M 120 896.242 L 130 896.242" />
        <path d="M 120 409.2 L 130 409.2" />
        <path d="M 120 789.33 L 130 789.33" />
        <path d="M 120 314.167 L 130 314.167" />
        <path d="M 120 159.739 L 130 159.739" />
        <path d="M 120 302.288 L 130 302.288" />
        <path d="M 120 373.562 L 130 373.562" />
        <path d="M 120 444.837 L 140 444.837" />
        <text font-size="30" transform="translate(110, 454.837)" text-anchor="end" dominant-baseline="middle" stroke="none" fill="black">4000</text>
        <path d="M 120 575.507 L 130 575.507" />
        <path d="M 120 801.209 L 140 801.209" />
        <text font-size="30" transform="translate(110, 811.209)" text-anchor="end" dominant-baseline="middle" stroke="none" fill="black">1000</text>
        <path d="M 120 337.925 L 130 337.925" />
        <path d="M 120 848.726 L 130 848.726" />
        <path d="M 120 527.99 L 130 527.99" />
        <path d="M 120 135.981 L 130 135.981" />
        <path d="M 120 741.814 L 130 741.814" />
        <path d="M 120 207.255 L 140 207.255" />
        <text font-size="30" transform="translate(110, 217.255)" text-anchor="end" dominant-baseline="middle" stroke="none" fill="black">6000</text>
        <path d="M 120 326.046 L 140 326.046" />
        <text font-size="30" transform="translate(110, 336.046)" text-anchor="end" dominant-baseline="middle" stroke="none" fill="black">5000</text>
        <path d="M 120 634.902 L 130 634.902" />
        <path d="M 120 492.353 L 130 492.353" />
        <path d="M 120 52.8272 L 130 52.8272" />
        <path d="M 120 908.121 L 130 908.121" />
        <path d="M 120 171.618 L 130 171.618" />
        <path d="M 120 421.079 L 130 421.079" />
        <path d="M 120 456.716 L 130 456.716" />
        <path d="M 120 76.5854 L 130 76.5854" />
        <path d="M 120 694.297 L 130 694.297" />
        <path d="M 120 587.386 L 130 587.386" />
        <path d="M 120 231.013 L 130 231.013" />
        <path d="M 120 563.628 L 140 563.628" />
        <text font-size="30" transform="translate(110, 573.628)" text-anchor="end" dominant-baseline="middle" stroke="none" fill="black">3000</text>
        <path d="M 120 860.605 L 130 860.605" />
        <path d="M 120 100.344 L 130 100.344" />
        <path d="M 120 242.892 L 130 242.892" />
        <path d="M 120 88.4645 L 140 88.4645" />
        <text font-size="30" transform="translate(110, 98.4645)" text-anchor="end" dominant-baseline="middle" stroke="none" fill="black">7000</text>
        <path d="M 120 753.693 L 130 753.693" />
        <path d="M 120 385.441 L 130 385.441" />
        <path d="M 120 646.781 L 130 646.781" />
        <path d="M 120 278.53 L 130 278.53" />
        <path d="M 120 124.102 L 130 124.102" />
    </g>
    <text id="frame_0_toplabel" font-size="30" transform="translate(535, 32.6)" text-anchor="middle" dominant-baseline="middle" stroke="none" fill="black">re.rindex</text>
    <g id="frame_0_topticks">
        <path d="M 120 50 L 120 70" />
        <path d="M 136.6 50 L 136.6 60" />
        <path d="M 153.2 50 L 153.2 60" />
        <path d="M 169.8 50 L 169.8 60" />
        <path d="M 186.4 50 L 186.4 60" />
        <path d="M 203 50 L 203 60" />
        <path d="M 219.6 50 L 219.6 60" />
        <path d="M 236.2 50 L 236.2 60" />
        <path d="M 252.8 50 L 252.8 60" />
        <path d="M 269.4 50 L 269.4 60" />
        <path d="M 286 50 L 286 70" />
        <path d="M 302.6 50 L 302.6 60" />
        <path d="M 319.2 50 L 319.2 60" />
        <path d="M 335.8 50 L 335.8 60" />
        <path d="M 352.4 50 L 352.4 60" />
        <path d="M 369 50 L 369 60" />
        <path d="M 385.6 50 L 385.6 60" />
        <path d="M 402.2 50 L 402.2 60" />
        <path d="M 418.8 50 L 418.8 60" />
        <path d="M 435.4 50 L 435.4 60" />
        <path d="M 452 50 L 452 70" />
        <path d="M 468.6 50 L 468.6 60" />
        <path d="M 485.2 50 L 485.2 60" />
        <path d="M 501.8 50 L 501.8 60" />
        <path d="M 518.4 50 L 518.4 60" />
        <path d="M 535 50 L 535 60" />
        <path d="M 551.6 50 L 551.6 60" />
        <path d="M 568.2 50 L 568.2 60" />
        <path d="M 584.8 50 L 584.8 60" />
        <path d="M 601.4 50 L 601.4 60" />
        <path d="M 618 50 L 618 70" />
        <path d="M 634.6 50 L 634.6 60" />
        <path d="M 651.2 50 L 651.2 60" />
        <path d="M 667.8 50 L 667.8 60" />
        <path d="M 684.4 50 L 684.4 60" />
        <path d="M 701 50 L 701 60" />
        <path d="M 717.6 50 L 717.6 60" />
        <path d="M 734.2 50 L 734.2 60" />
        <path d="M 750.8 50 L 750.8 60" />
        <path d="M 767.4 50 L 767.4 60" />
        <path d="M 784 50 L 784 70" />
        <path d="M 800.6 50 L 800.6 60" />
        <path d="M 817.2 50 L 817.2 60" />
        <path d="M 833.8 50 L 833.8 60" />
        <path d="M 850.4 50 L 850.4 60" />
        <path d="M 867 50 L 867 60" />
        <path d="M 883.6 50 L 883.6 60" />
        <path d="M 900.2 50 L 900.2 60" />
        <path d="M 916.8 50 L 916.8 60" />
        <path d="M 933.4 50 L 933.4 60" />
        <path d="M 950 50 L 950 70" />
    </g>
    <g id="frame_0_rightticks">
        <path d="M 950 539.869 L 940 539.869" />
        <path d="M 950 349.804 L 940 349.804" />
        <path d="M 950 813.088 L 940 813.088" />
        <path d="M 950 147.86 L 940 147.86" />
        <path d="M 950 920 L 930 920" />
        <path d="M 950 706.177 L 940 706.177" />
        <path d="M 950 504.232 L 940 504.232" />
        <path d="M 950 599.265 L 940 599.265" />
        <path d="M 950 872.484 L 940 872.484" />
        <path d="M 950 468.595 L 940 468.595" />
        <path d="M 950 195.376 L 940 195.376" />
        <path d="M 950 765.572 L 940 765.572" />
        <path d="M 950 658.66 L 940 658.66" />
        <path d="M 950 432.958 L 940 432.958" />
        <path d="M 950 551.749 L 940 551.749" />
        <path d="M 950 824.967 L 940 824.967" />
        <path d="M 950 397.321 L 940 397.321" />
        <path d="M 950 266.651 L 940 266.651" />
        <path d="M 950 718.056 L 940 718.056" />
        <path d="M 950 219.134 L 940 219.134" />
        <path d="M 950 64.7063 L 940 64.7063" />
        <path d="M 950 611.144 L 940 611.144" />
        <path d="M 950 361.683 L 940 361.683" />
        <path d="M 950 884.363 L 940 884.363" />
        <path d="M 950 777.451 L 940 777.451" />
        <path d="M 950 516.111 L 940 516.111" />
        <path d="M 950 670.539 L 940 670.539" />
        <path d="M 950 682.418 L 930 682.418" />
        <path d="M 950 183.497 L 940 183.497" />
        <path d="M 950 480.474 L 940 480.474" />
        <path d="M 950 112.223 L 940 112.223" />
        <path d="M 950 836.846 L 940 836.846" />
        <path d="M 950 729.935 L 940 729.935" />
        <path d="M 950 254.772 L 940 254.772" />
        <path d="M 950 290.409 L 940 290.409" />
        <path d="M 950 623.023 L 940 623.023" />
        <path d="M 950 896.242 L 940 896.242" />
        <path d="M 950 409.2 L 940 409.2" />
        <path d="M 950 789.33 L 940 789.33" />
        <path d="M 950 314.167 L 940 314.167" />
        <path d="M 950 159.739 L 940 159.739" />
        <path d="M 950 302.288 L 940 302.288" />
        <path d="M 950 373.562 L 940 373.562" />
        <path d="M 950 444.837 L 930 444.837" />
        <path d="M 950 575.507 L 940 575.507" />
        <path d="M 950 801.209 L 930 801.209" />
        <path d="M 950 337.925 L 940 337.925" />
        <path d="M 950 848.726 L 940 848.726" />
        <path d="M 950 527.99 L 940 527.99" />
        <path d="M 950 135.981 L 940 135.981" />
        <path d="M 950 741.814 L 940 741.814" />
        <path d="M 950 207.255 L 930 207.255" />
        <path d="M 950 326.046 L 930 326.046" />
        <path d="M 950 634.902 L 940 634.902" />
        <path d="M 950 492.353 L 940 492.353" />
        <path d="M 950 52.8272 L 940 52.8272" />
        <path d="M 950 908.121 L 940 908.121" />
        <path d="M 950 171.618 L 940 171.618" />
        <path d="M 950 421.079 L 940 421.079" />
        <path d="M 950 456.716 L 940 456.716" />
        <path d="M 950 76.5854 L 940 76.5854" />
        <path d="M 950 694.297 L 940 694.297" />
        <path d="M 950 587.386 L 940 587.386" />
        <path d="M 950 231.013 L 940 231.013" />
        <path d="M 950 563.628 L 930 563.628" />
        <path d="M 950 860.605 L 940 860.605" />
        <path d="M 950 100.344 L 940 100.344" />
        <path d="M 950 242.892 L 940 242.892" />
        <path d="M 950 88.4645 L 930 88.4645" />
        <path d="M 950 753.693 L 940 753.693" />
        <path d="M 950 385.441 L 940 385.441" />
        <path d="M 950 646.781 L 940 646.781" />
        <path d="M 950 278.53 L 940 278.53" />
        <path d="M 950 124.102 L 940 124.102" />
    </g>
</g>
</g>
</svg>
