<?xml version="1.0" standalone="no"?>
<!DOCTYPE svg PUBLIC "-//W3C//DTD SVG 1.1//EN" "http://www.w3.org/Graphics/SVG/1.1/DTD/svg11.dtd">
<svg style="stroke-linejoin:miter; stroke:black; stroke-width:2.5; text-anchor:middle; fill:none" xmlns="http://www.w3.org/2000/svg" font-family="Helvetica, Arial, FreeSans, Sans, sans, sans-serif" width="1000px" height="1000px" version="1.1" xmlns:xlink="http://www.w3.org/1999/xlink" viewBox="0 0 1000 1000">
<defs>
    <clipPath id="Histogram_0_clip">
        <rect x="120" y="50" width="830" height="870" />
    </clipPath>
    <clipPath id="Histogram_1_clip">
        <rect x="120" y="50" width="830" height="870" />
    </clipPath>
</defs>
<g id="whole_document">
<rect id="background" x="0" y="0" width="1000" height="1000" stroke="none" fill="white" />
<g id="Histogram_0" clip-path="url(#Histogram_0_clip)">
    <path d="M 120 920 L 120 652.183 L 161.5 652.183 L 161.5 129.091 L 203 129.091 L 203 920 L 244.5 920 L 244.5 920 L 286 920 L 286 910.012 L 327.5 910.012 L 327.5 910.825 L 369 910.825 L 369 920 L 410.5 920 L 410.5 920 L 452 920 L 452 920 L 493.5 920 L 493.5 920 L 535 920 L 535 920 L 576.5 920 L 576.5 920 L 618 920 L 618 920 L 659.5 920 L 659.5 920 L 701 920 L 701 920 L 742.5 920 L 742.5 920 L 784 920 L 784 920 L 825.5 920 L 825.5 920 L 867 920 L 867 920 L 908.5 920 L 908.5 920 L 950 920 L 950 920" stroke-width="3" stroke-dasharray="" stroke="black" stroke-opacity="1" fill="DodgerBlue" fill-opacity="1" />
</g>
<g id="Histogram_1" clip-path="url(#Histogram_1_clip)">
    <path d="M 120 920 L 120 920 L 161.5 920 L 161.5 920 L 203 920 L 203 920 L 244.5 920 L 244.5 920 L 286 920 L 286 910.012 L 327.5 910.012 L 327.5 910.825 L 369 910.825 L 369 920 L 410.5 920 L 410.5 920 L 452 920 L 452 920 L 493.5 920 L 493.5 920 L 535 920 L 535 920 L 576.5 920 L 576.5 920 L 618 920 L 618 920 L 659.5 920 L 659.5 920 L 701 920 L 701 920 L 742.5 920 L 742.5 920 L 784 920 L 784 920 L 825.5 920 L 825.5 920 L 867 920 L 867 920 L 908.5 920 L 908.5 920 L 950 920 L 950 920" stroke-width="3" stroke-dasharray="" stroke="black" stroke-opacity="1" fill="darkorange" fill-opacity="1" />
</g>
<g id="frame_0">
    <rect id="frame_0_border" x="120" y="50" width="830" height="870" />
    <text id="frame_0_bottomlabel" font-size="30" transform="translate(535, 989.6)" text-anchor="middle" dominant-baseline="middle" stroke="none" fill="black">microseconds</text>
    <g id="frame_0_bottomticks">
        <path d="M 120 920 L 120 900" />
        <text font-size="30" transform="translate(120, 950)" text-anchor="middle" dominant-baseline="middle" stroke="none" fill="black">0</text>
        <path d="M 136.6 920 L 136.6 910" />
        <path d="M 153.2 920 L 153.2 910" />
        <path d="M 169.8 920 L 169.8 910" />
        <path d="M 186.4 920 L 186.4 910" />
        <path d="M 203 920 L 203 910" />
        <path d="M 219.6 920 L 219.6 910" />
        <path d="M 236.2 920 L 236.2 910" />
        <path d="M 252.8 920 L 252.8 910" />
        <path d="M 269.4 920 L 269.4 910" />
        <path d="M 286 920 L 286 900" />
        <text font-size="30" transform="translate(286, 950)" text-anchor="middle" dominant-baseline="middle" stroke="none" fill="black">10</text>
        <path d="M 302.6 920 L 302.6 910" />
        <path d="M 319.2 920 L 319.2 910" />
        <path d="M 335.8 920 L 335.8 910" />
        <path d="M 352.4 920 L 352.4 910" />
        <path d="M 369 920 L 369 910" />
        <path d="M 385.6 920 L 385.6 910" />
        <path d="M 402.2 920 L 402.2 910" />
        <path d="M 418.8 920 L 418.8 910" />
        <path d="M 435.4 920 L 435.4 910" />
        <path d="M 452 920 L 452 900" />
        <text font-size="30" transform="translate(452, 950)" text-anchor="middle" dominant-baseline="middle" stroke="none" fill="black">20</text>
        <path d="M 468.6 920 L 468.6 910" />
        <path d="M 485.2 920 L 485.2 910" />
        <path d="M 501.8 920 L 501.8 910" />
        <path d="M 518.4 920 L 518.4 910" />
        <path d="M 535 920 L 535 910" />
        <path d="M 551.6 920 L 551.6 910" />
        <path d="M 568.2 920 L 568.2 910" />
        <path d="M 584.8 920 L 584.8 910" />
        <path d="M 601.4 920 L 601.4 910" />
        <path d="M 618 920 L 618 900" />
        <text font-size="30" transform="translate(618, 950)" text-anchor="middle" dominant-baseline="middle" stroke="none" fill="black">30</text>
        <path d="M 634.6 920 L 634.6 910" />
        <path d="M 651.2 920 L 651.2 910" />
        <path d="M 667.8 920 L 667.8 910" />
        <path d="M 684.4 920 L 684.4 910" />
        <path d="M 701 920 L 701 910" />
        <path d="M 717.6 920 L 717.6 910" />
        <path d="M 734.2 920 L 734.2 910" />
        <path d="M 750.8 920 L 750.8 910" />
        <path d="M 767.4 920 L 767.4 910" />
        <path d="M 784 920 L 784 900" />
        <text font-size="30" transform="translate(784, 950)" text-anchor="middle" dominant-baseline="middle" stroke="none" fill="black">40</text>
        <path d="M 800.6 920 L 800.6 910" />
        <path d="M 817.2 920 L 817.2 910" />
        <path d="M 833.8 920 L 833.8 910" />
        <path d="M 850.4 920 L 850.4 910" />
        <path d="M 867 920 L 867 910" />
        <path d="M 883.6 920 L 883.6 910" />
        <path d="M 900.2 920 L 900.2 910" />
        <path d="M 916.8 920 L 916.8 910" />
        <path d="M 933.4 920 L 933.4 910" />
        <path d="M 950 920 L 950 900" />
        <text font-size="30" transform="translate(950, 950)" text-anchor="middle" dominant-baseline="middle" stroke="none" fill="black">50</text>
    </g>
    <g id="frame_0_leftticks">
        <path d="M 120 548.354 L 130 548.354" />
        <path d="M 120 362.531 L 130 362.531" />
        <path d="M 120 815.475 L 130 815.475" />
        <path d="M 120 165.094 L 130 165.094" />
        <path d="M 120 920 L 140 920" />
        <text font-size="30" transform="translate(110, 930)" text-anchor="end" dominant-baseline="middle" stroke="none" fill="black">0</text>
        <path d="M 120 710.949 L 130 710.949" />
        <path d="M 120 513.512 L 130 513.512" />
        <path d="M 120 606.424 L 130 606.424" />
        <path d="M 120 873.544 L 130 873.544" />
        <path d="M 120 478.67 L 130 478.67" />
        <path d="M 120 211.55 L 130 211.55" />
        <path d="M 120 769.019 L 130 769.019" />
        <path d="M 120 664.493 L 130 664.493" />
        <path d="M 120 443.829 L 130 443.829" />
        <path d="M 120 559.968 L 130 559.968" />
        <path d="M 120 60.5687 L 130 60.5687" />
        <path d="M 120 827.089 L 130 827.089" />
        <path d="M 120 408.987 L 130 408.987" />
        <path d="M 120 281.233 L 130 281.233" />
        <path d="M 120 722.563 L 130 722.563" />
        <path d="M 120 234.778 L 130 234.778" />
        <path d="M 120 83.7966 L 130 83.7966" />
        <path d="M 120 618.038 L 130 618.038" />
        <path d="M 120 374.145 L 130 374.145" />
        <path d="M 120 885.158 L 130 885.158" />
        <path d="M 120 780.633 L 130 780.633" />
        <path d="M 120 525.126 L 130 525.126" />
        <path d="M 120 676.107 L 130 676.107" />
        <path d="M 120 687.721 L 140 687.721" />
        <text font-size="30" transform="translate(110, 697.721)" text-anchor="end" dominant-baseline="middle" stroke="none" fill="black">2000</text>
        <path d="M 120 199.936 L 130 199.936" />
        <path d="M 120 490.284 L 130 490.284" />
        <path d="M 120 130.252 L 130 130.252" />
        <path d="M 120 838.702 L 130 838.702" />
        <path d="M 120 734.177 L 130 734.177" />
        <path d="M 120 269.62 L 130 269.62" />
        <path d="M 120 304.461 L 130 304.461" />
        <path d="M 120 629.652 L 130 629.652" />
        <path d="M 120 896.772 L 130 896.772" />
        <path d="M 120 420.601 L 130 420.601" />
        <path d="M 120 792.247 L 130 792.247" />
        <path d="M 120 327.689 L 130 327.689" />
        <path d="M 120 176.708 L 130 176.708" />
        <path d="M 120 316.075 L 130 316.075" />
        <path d="M 120 385.759 L 130 385.759" />
        <path d="M 120 455.443 L 140 455.443" />
        <text font-size="30" transform="translate(110, 465.443)" text-anchor="end" dominant-baseline="middle" stroke="none" fill="black">4000</text>
        <path d="M 120 583.196 L 130 583.196" />
        <path d="M 120 803.861 L 140 803.861" />
        <text font-size="30" transform="translate(110, 813.861)" text-anchor="end" dominant-baseline="middle" stroke="none" fill="black">1000</text>
        <path d="M 120 350.917 L 130 350.917" />
        <path d="M 120 850.316 L 130 850.316" />
        <path d="M 120 536.74 L 130 536.74" />
        <path d="M 120 153.48 L 130 153.48" />
        <path d="M 120 745.791 L 130 745.791" />
        <path d="M 120 223.164 L 140 223.164" />
        <text font-size="30" transform="translate(110, 233.164)" text-anchor="end" dominant-baseline="middle" stroke="none" fill="black">6000</text>
        <path d="M 120 339.303 L 140 339.303" />
        <text font-size="30" transform="translate(110, 349.303)" text-anchor="end" dominant-baseline="middle" stroke="none" fill="black">5000</text>
        <path d="M 120 641.266 L 130 641.266" />
        <path d="M 120 501.898 L 130 501.898" />
        <path d="M 120 72.1826 L 130 72.1826" />
        <path d="M 120 908.386 L 130 908.386" />
        <path d="M 120 188.322 L 130 188.322" />
        <path d="M 120 432.215 L 130 432.215" />
        <path d="M 120 467.056 L 130 467.056" />
        <path d="M 120 95.4105 L 130 95.4105" />
        <path d="M 120 699.335 L 130 699.335" />
        <path d="M 120 594.81 L 130 594.81" />
        <path d="M 120 246.392 L 130 246.392" />
        <path d="M 120 571.582 L 140 571.582" />
        <text font-size="30" transform="translate(110, 581.582)" text-anchor="end" dominant-baseline="middle" stroke="none" fill="black">3000</text>
        <path d="M 120 861.93 L 130 861.93" />
        <path d="M 120 118.638 L 130 118.638" />
        <path d="M 120 258.006 L 130 258.006" />
        <path d="M 120 107.024 L 140 107.024" />
        <text font-size="30" transform="translate(110, 117.024)" text-anchor="end" dominant-baseline="middle" stroke="none" fill="black">7000</text>
        <path d="M 120 757.405 L 130 757.405" />
        <path d="M 120 397.373 L 130 397.373" />
        <path d="M 120 652.879 L 130 652.879" />
        <path d="M 120 292.847 L 130 292.847" />
        <path d="M 120 141.866 L 130 141.866" />
    </g>
    <text id="frame_0_toplabel" font-size="30" transform="translate(535, 32.6)" text-anchor="middle" dominant-baseline="middle" stroke="none" fill="black">re.findfirst</text>
    <g id="frame_0_topticks">
        <path d="M 120 50 L 120 70" />
        <path d="M 136.6 50 L 136.6 60" />
        <path d="M 153.2 50 L 153.2 60" />
        <path d="M 169.8 50 L 169.8 60" />
        <path d="M 186.4 50 L 186.4 60" />
        <path d="M 203 50 L 203 60" />
        <path d="M 219.6 50 L 219.6 60" />
        <path d="M 236.2 50 L 236.2 60" />
        <path d="M 252.8 50 L 252.8 60" />
        <path d="M 269.4 50 L 269.4 60" />
        <path d="M 286 50 L 286 70" />
        <path d="M 302.6 50 L 302.6 60" />
        <path d="M 319.2 50 L 319.2 60" />
        <path d="M 335.8 50 L 335.8 60" />
        <path d="M 352.4 50 L 352.4 60" />
        <path d="M 369 50 L 369 60" />
        <path d="M 385.6 50 L 385.6 60" />
        <path d="M 402.2 50 L 402.2 60" />
        <path d="M 418.8 50 L 418.8 60" />
        <path d="M 435.4 50 L 435.4 60" />
        <path d="M 452 50 L 452 70" />
        <path d="M 468.6 50 L 468.6 60" />
        <path d="M 485.2 50 L 485.2 60" />
        <path d="M 501.8 50 L 501.8 60" />
        <path d="M 518.4 50 L 518.4 60" />
        <path d="M 535 50 L 535 60" />
        <path d="M 551.6 50 L 551.6 60" />
        <path d="M 568.2 50 L 568.2 60" />
        <path d="M 584.8 50 L 584.8 60" />
        <path d="M 601.4 50 L 601.4 60" />
        <path d="M 618 50 L 618 70" />
        <path d="M 634.6 50 L 634.6 60" />
        <path d="M 651.2 50 L 651.2 60" />
        <path d="M 667.8 50 L 667.8 60" />
        <path d="M 684.4 50 L 684.4 60" />
        <path d="M 701 50 L 701 60" />
        <path d="M 717.6 50 L 717.6 60" />
        <path d="M 734.2 50 L 734.2 60" />
        <path d="M 750.8 50 L 750.8 60" />
        <path d="M 767.4 50 L 767.4 60" />
        <path d="M 784 50 L 784 70" />
        <path d="M 800.6 50 L 800.6 60" />
        <path d="M 817.2 50 L 817.2 60" />
        <path d="M 833.8 50 L 833.8 60" />
        <path d="M 850.4 50 L 850.4 60" />
        <path d="M 867 50 L 867 60" />
        <path d="M 883.6 50 L 883.6 60" />
        <path d="M 900.2 50 L 900.2 60" />
        <path d="M 916.8 50 L 916.8 60" />
        <path d="M 933.4 50 L 933.4 60" />
        <path d="M 950 50 L 950 70" />
    </g>
    <g id="frame_0_rightticks">
        <path d="M 950 548.354 L 940 548.354" />
        <path d="M 950 362.531 L 940 362.531" />
        <path d="M 950 815.475 L 940 815.475" />
        <path d="M 950 165.094 L 940 165.094" />
        <path d="M 950 920 L 930 920" />
        <path d="M 950 710.949 L 940 710.949" />
        <path d="M 950 513.512 L 940 513.512" />
        <path d="M 950 606.424 L 940 606.424" />
        <path d="M 950 873.544 L 940 873.544" />
        <path d="M 950 478.67 L 940 478.67" />
        <path d="M 950 211.55 L 940 211.55" />
        <path d="M 950 769.019 L 940 769.019" />
        <path d="M 950 664.493 L 940 664.493" />
        <path d="M 950 443.829 L 940 443.829" />
        <path d="M 950 559.968 L 940 559.968" />
        <path d="M 950 60.5687 L 940 60.5687" />
        <path d="M 950 827.089 L 940 827.089" />
        <path d="M 950 408.987 L 940 408.987" />
        <path d="M 950 281.233 L 940 281.233" />
        <path d="M 950 722.563 L 940 722.563" />
        <path d="M 950 234.778 L 940 234.778" />
        <path d="M 950 83.7966 L 940 83.7966" />
        <path d="M 950 618.038 L 940 618.038" />
        <path d="M 950 374.145 L 940 374.145" />
        <path d="M 950 885.158 L 940 885.158" />
        <path d="M 950 780.633 L 940 780.633" />
        <path d="M 950 525.126 L 940 525.126" />
        <path d="M 950 676.107 L 940 676.107" />
        <path d="M 950 687.721 L 930 687.721" />
        <path d="M 950 199.936 L 940 199.936" />
        <path d="M 950 490.284 L 940 490.284" />
        <path d="M 950 130.252 L 940 130.252" />
        <path d="M 950 838.702 L 940 838.702" />
        <path d="M 950 734.177 L 940 734.177" />
        <path d="M 950 269.62 L 940 269.62" />
        <path d="M 950 304.461 L 940 304.461" />
        <path d="M 950 629.652 L 940 629.652" />
        <path d="M 950 896.772 L 940 896.772" />
        <path d="M 950 420.601 L 940 420.601" />
        <path d="M 950 792.247 L 940 792.247" />
        <path d="M 950 327.689 L 940 327.689" />
        <path d="M 950 176.708 L 940 176.708" />
        <path d="M 950 316.075 L 940 316.075" />
        <path d="M 950 385.759 L 940 385.759" />
        <path d="M 950 455.443 L 930 455.443" />
        <path d="M 950 583.196 L 940 583.196" />
        <path d="M 950 803.861 L 930 803.861" />
        <path d="M 950 350.917 L 940 350.917" />
        <path d="M 950 850.316 L 940 850.316" />
        <path d="M 950 536.74 L 940 536.74" />
        <path d="M 950 153.48 L 940 153.48" />
        <path d="M 950 745.791 L 940 745.791" />
        <path d="M 950 223.164 L 930 223.164" />
        <path d="M 950 339.303 L 930 339.303" />
        <path d="M 950 641.266 L 940 641.266" />
        <path d="M 950 501.898 L 940 501.898" />
        <path d="M 950 72.1826 L 940 72.1826" />
        <path d="M 950 908.386 L 940 908.386" />
        <path d="M 950 188.322 L 940 188.322" />
        <path d="M 950 432.215 L 940 432.215" />
        <path d="M 950 467.056 L 940 467.056" />
        <path d="M 950 95.4105 L 940 95.4105" />
        <path d="M 950 699.335 L 940 699.335" />
        <path d="M 950 594.81 L 940 594.81" />
        <path d="M 950 246.392 L 940 246.392" />
        <path d="M 950 571.582 L 930 571.582" />
        <path d="M 950 861.93 L 940 861.93" />
        <path d="M 950 118.638 L 940 118.638" />
        <path d="M 950 258.006 L 940 258.006" />
        <path d="M 950 107.024 L 930 107.024" />
        <path d="M 950 757.405 L 940 757.405" />
        <path d="M 950 397.373 L 940 397.373" />
        <path d="M 950 652.879 L 940 652.879" />
        <path d="M 950 292.847 L 940 292.847" />
        <path d="M 950 141.866 L 940 141.866" />
    </g>
</g>
</g>
</svg>
