<?xml version="1.0" standalone="no"?>
<!DOCTYPE svg PUBLIC "-//W3C//DTD SVG 1.1//EN" "http://www.w3.org/Graphics/SVG/1.1/DTD/svg11.dtd">
<svg style="stroke-linejoin:miter; stroke:black; stroke-width:2.5; text-anchor:middle; fill:none" xmlns="http://www.w3.org/2000/svg" font-family="Helvetica, Arial, FreeSans, Sans, sans, sans-serif" width="1000px" height="1000px" version="1.1" xmlns:xlink="http://www.w3.org/1999/xlink" viewBox="0 0 1000 1000">
<defs>
    <clipPath id="Histogram_0_clip">
        <rect x="120" y="50" width="830" height="870" />
    </clipPath>
</defs>
<g id="whole_document">
<rect id="background" x="0" y="0" width="1000" height="1000" stroke="none" fill="white" />
<g id="Histogram_0" clip-path="url(#Histogram_0_clip)">
    <path d="M 120 920 L 120 129.091 L 161.5 129.091 L 161.5 835.434 L 203 835.434 L 203 906.714 L 244.5 906.714 L 244.5 920 L 286 920 L 286 918.452 L 327.5 918.452 L 327.5 920 L 369 920 L 369 918.811 L 410.5 918.811 L 410.5 920 L 452 920 L 452 920 L 493.5 920 L 493.5 920 L 535 920 L 535 920 L 576.5 920 L 576.5 920 L 618 920 L 618 920 L 659.5 920 L 659.5 920 L 701 920 L 701 920 L 742.5 920 L 742.5 920 L 784 920 L 784 920 L 825.5 920 L 825.5 920 L 867 920 L 867 920 L 908.5 920 L 908.5 920 L 950 920 L 950 920" stroke-width="3" stroke-dasharray="" stroke="black" stroke-opacity="1" fill="DodgerBlue" fill-opacity="1" />
</g>
<g id="frame_0">
    <rect id="frame_0_border" x="120" y="50" width="830" height="870" />
    <text id="frame_0_bottomlabel" font-size="30" transform="translate(535, 989.6)" text-anchor="middle" dominant-baseline="middle" stroke="none" fill="black">microseconds</text>
    <g id="frame_0_bottomticks">
        <path d="M 120 920 L 120 900" />
        <text font-size="30" transform="translate(120, 950)" text-anchor="middle" dominant-baseline="middle" stroke="none" fill="black">0</text>
        <path d="M 136.6 920 L 136.6 910" />
        <path d="M 153.2 920 L 153.2 910" />
        <path d="M 169.8 920 L 169.8 910" />
        <path d="M 186.4 920 L 186.4 910" />
        <path d="M 203 920 L 203 910" />
        <path d="M 219.6 920 L 219.6 910" />
        <path d="M 236.2 920 L 236.2 910" />
        <path d="M 252.8 920 L 252.8 910" />
        <path d="M 269.4 920 L 269.4 910" />
        <path d="M 286 920 L 286 900" />
        <text font-size="30" transform="translate(286, 950)" text-anchor="middle" dominant-baseline="middle" stroke="none" fill="black">10</text>
        <path d="M 302.6 920 L 302.6 910" />
        <path d="M 319.2 920 L 319.2 910" />
        <path d="M 335.8 920 L 335.8 910" />
        <path d="M 352.4 920 L 352.4 910" />
        <path d="M 369 920 L 369 910" />
        <path d="M 385.6 920 L 385.6 910" />
        <path d="M 402.2 920 L 402.2 910" />
        <path d="M 418.8 920 L 418.8 910" />
        <path d="M 435.4 920 L 435.4 910" />
        <path d="M 452 920 L 452 900" />
        <text font-size="30" transform="translate(452, 950)" text-anchor="middle" dominant-baseline="middle" stroke="none" fill="black">20</text>
        <path d="M 468.6 920 L 468.6 910" />
        <path d="M 485.2 920 L 485.2 910" />
        <path d="M 501.8 920 L 501.8 910" />
        <path d="M 518.4 920 L 518.4 910" />
        <path d="M 535 920 L 535 910" />
        <path d="M 551.6 920 L 551.6 910" />
        <path d="M 568.2 920 L 568.2 910" />
        <path d="M 584.8 920 L 584.8 910" />
        <path d="M 601.4 920 L 601.4 910" />
        <path d="M 618 920 L 618 900" />
        <text font-size="30" transform="translate(618, 950)" text-anchor="middle" dominant-baseline="middle" stroke="none" fill="black">30</text>
        <path d="M 634.6 920 L 634.6 910" />
        <path d="M 651.2 920 L 651.2 910" />
        <path d="M 667.8 920 L 667.8 910" />
        <path d="M 684.4 920 L 684.4 910" />
        <path d="M 701 920 L 701 910" />
        <path d="M 717.6 920 L 717.6 910" />
        <path d="M 734.2 920 L 734.2 910" />
        <path d="M 750.8 920 L 750.8 910" />
        <path d="M 767.4 920 L 767.4 910" />
        <path d="M 784 920 L 784 900" />
        <text font-size="30" transform="translate(784, 950)" text-anchor="middle" dominant-baseline="middle" stroke="none" fill="black">40</text>
        <path d="M 800.6 920 L 800.6 910" />
        <path d="M 817.2 920 L 817.2 910" />
        <path d="M 833.8 920 L 833.8 910" />
        <path d="M 850.4 920 L 850.4 910" />
        <path d="M 867 920 L 867 910" />
        <path d="M 883.6 920 L 883.6 910" />
        <path d="M 900.2 920 L 900.2 910" />
        <path d="M 916.8 920 L 916.8 910" />
        <path d="M 933.4 920 L 933.4 910" />
        <path d="M 950 920 L 950 900" />
        <text font-size="30" transform="translate(950, 950)" text-anchor="middle" dominant-baseline="middle" stroke="none" fill="black">50</text>
    </g>
    <g id="frame_0_leftticks">
        <path d="M 120 618.047 L 130 618.047" />
        <path d="M 120 467.071 L 130 467.071" />
        <path d="M 120 410.454 L 130 410.454" />
        <path d="M 120 523.687 L 130 523.687" />
        <path d="M 120 278.35 L 130 278.35" />
        <path d="M 120 429.326 L 130 429.326" />
        <path d="M 120 787.896 L 130 787.896" />
        <path d="M 120 636.919 L 130 636.919" />
        <path d="M 120 920 L 140 920" />
        <text font-size="30" transform="translate(110, 930)" text-anchor="end" dominant-baseline="middle" stroke="none" fill="black">0</text>
        <path d="M 120 372.71 L 130 372.71" />
        <path d="M 120 334.966 L 130 334.966" />
        <path d="M 120 183.99 L 130 183.99" />
        <path d="M 120 844.512 L 130 844.512" />
        <path d="M 120 504.815 L 130 504.815" />
        <path d="M 120 89.6294 L 130 89.6294" />
        <path d="M 120 731.279 L 140 731.279" />
        <text font-size="30" transform="translate(110, 741.279)" text-anchor="end" dominant-baseline="middle" stroke="none" fill="black">10000</text>
        <path d="M 120 542.559 L 140 542.559" />
        <text font-size="30" transform="translate(110, 552.559)" text-anchor="end" dominant-baseline="middle" stroke="none" fill="black">20000</text>
        <path d="M 120 750.151 L 130 750.151" />
        <path d="M 120 240.606 L 130 240.606" />
        <path d="M 120 655.791 L 130 655.791" />
        <path d="M 120 825.64 L 130 825.64" />
        <path d="M 120 146.246 L 130 146.246" />
        <path d="M 120 561.431 L 130 561.431" />
        <path d="M 120 297.222 L 130 297.222" />
        <path d="M 120 769.024 L 130 769.024" />
        <path d="M 120 391.582 L 130 391.582" />
        <path d="M 120 448.199 L 130 448.199" />
        <path d="M 120 674.663 L 130 674.663" />
        <path d="M 120 202.862 L 130 202.862" />
        <path d="M 120 353.838 L 140 353.838" />
        <text font-size="30" transform="translate(110, 363.838)" text-anchor="end" dominant-baseline="middle" stroke="none" fill="black">30000</text>
        <path d="M 120 882.256 L 130 882.256" />
        <path d="M 120 863.384 L 130 863.384" />
        <path d="M 120 108.501 L 130 108.501" />
        <path d="M 120 485.943 L 130 485.943" />
        <path d="M 120 259.478 L 130 259.478" />
        <path d="M 120 693.535 L 130 693.535" />
        <path d="M 120 580.303 L 130 580.303" />
        <path d="M 120 901.128 L 130 901.128" />
        <path d="M 120 127.374 L 130 127.374" />
        <path d="M 120 316.094 L 130 316.094" />
        <path d="M 120 806.768 L 130 806.768" />
        <path d="M 120 599.175 L 130 599.175" />
        <path d="M 120 165.118 L 140 165.118" />
        <text font-size="30" transform="translate(110, 175.118)" text-anchor="end" dominant-baseline="middle" stroke="none" fill="black">40000</text>
        <path d="M 120 70.7574 L 130 70.7574" />
        <path d="M 120 712.407 L 130 712.407" />
        <path d="M 120 221.734 L 130 221.734" />
        <path d="M 120 51.8853 L 130 51.8853" />
    </g>
    <text id="frame_0_toplabel" font-size="30" transform="translate(535, 32.6)" text-anchor="middle" dominant-baseline="middle" stroke="none" fill="black">bytes.isAscii</text>
    <g id="frame_0_topticks">
        <path d="M 120 50 L 120 70" />
        <path d="M 136.6 50 L 136.6 60" />
        <path d="M 153.2 50 L 153.2 60" />
        <path d="M 169.8 50 L 169.8 60" />
        <path d="M 186.4 50 L 186.4 60" />
        <path d="M 203 50 L 203 60" />
        <path d="M 219.6 50 L 219.6 60" />
        <path d="M 236.2 50 L 236.2 60" />
        <path d="M 252.8 50 L 252.8 60" />
        <path d="M 269.4 50 L 269.4 60" />
        <path d="M 286 50 L 286 70" />
        <path d="M 302.6 50 L 302.6 60" />
        <path d="M 319.2 50 L 319.2 60" />
        <path d="M 335.8 50 L 335.8 60" />
        <path d="M 352.4 50 L 352.4 60" />
        <path d="M 369 50 L 369 60" />
        <path d="M 385.6 50 L 385.6 60" />
        <path d="M 402.2 50 L 402.2 60" />
        <path d="M 418.8 50 L 418.8 60" />
        <path d="M 435.4 50 L 435.4 60" />
        <path d="M 452 50 L 452 70" />
        <path d="M 468.6 50 L 468.6 60" />
        <path d="M 485.2 50 L 485.2 60" />
        <path d="M 501.8 50 L 501.8 60" />
        <path d="M 518.4 50 L 518.4 60" />
        <path d="M 535 50 L 535 60" />
        <path d="M 551.6 50 L 551.6 60" />
        <path d="M 568.2 50 L 568.2 60" />
        <path d="M 584.8 50 L 584.8 60" />
        <path d="M 601.4 50 L 601.4 60" />
        <path d="M 618 50 L 618 70" />
        <path d="M 634.6 50 L 634.6 60" />
        <path d="M 651.2 50 L 651.2 60" />
        <path d="M 667.8 50 L 667.8 60" />
        <path d="M 684.4 50 L 684.4 60" />
        <path d="M 701 50 L 701 60" />
        <path d="M 717.6 50 L 717.6 60" />
        <path d="M 734.2 50 L 734.2 60" />
        <path d="M 750.8 50 L 750.8 60" />
        <path d="M 767.4 50 L 767.4 60" />
        <path d="M 784 50 L 784 70" />
        <path d="M 800.6 50 L 800.6 60" />
        <path d="M 817.2 50 L 817.2 60" />
        <path d="M 833.8 50 L 833.8 60" />
        <path d="M 850.4 50 L 850.4 60" />
        <path d="M 867 50 L 867 60" />
        <path d="M 883.6 50 L 883.6 60" />
        <path d="M 900.2 50 L 900.2 60" />
        <path d="M 916.8 50 L 916.8 60" />
        <path d="M 933.4 50 L 933.4 60" />
        <path d="M 950 50 L 950 70" />
    </g>
    <g id="frame_0_rightticks">
        <path d="M 950 618.047 L 940 618.047" />
        <path d="M 950 467.071 L 940 467.071" />
        <path d="M 950 410.454 L 940 410.454" />
        <path d="M 950 523.687 L 940 523.687" />
        <path d="M 950 278.35 L 940 278.35" />
        <path d="M 950 429.326 L 940 429.326" />
        <path d="M 950 787.896 L 940 787.896" />
        <path d="M 950 636.919 L 940 636.919" />
        <path d="M 950 920 L 930 920" />
        <path d="M 950 372.71 L 940 372.71" />
        <path d="M 950 334.966 L 940 334.966" />
        <path d="M 950 183.99 L 940 183.99" />
        <path d="M 950 844.512 L 940 844.512" />
        <path d="M 950 504.815 L 940 504.815" />
        <path d="M 950 89.6294 L 940 89.6294" />
        <path d="M 950 731.279 L 930 731.279" />
        <path d="M 950 542.559 L 930 542.559" />
        <path d="M 950 750.151 L 940 750.151" />
        <path d="M 950 240.606 L 940 240.606" />
        <path d="M 950 655.791 L 940 655.791" />
        <path d="M 950 825.64 L 940 825.64" />
        <path d="M 950 146.246 L 940 146.246" />
        <path d="M 950 561.431 L 940 561.431" />
        <path d="M 950 297.222 L 940 297.222" />
        <path d="M 950 769.024 L 940 769.024" />
        <path d="M 950 391.582 L 940 391.582" />
        <path d="M 950 448.199 L 940 448.199" />
        <path d="M 950 674.663 L 940 674.663" />
        <path d="M 950 202.862 L 940 202.862" />
        <path d="M 950 353.838 L 930 353.838" />
        <path d="M 950 882.256 L 940 882.256" />
        <path d="M 950 863.384 L 940 863.384" />
        <path d="M 950 108.501 L 940 108.501" />
        <path d="M 950 485.943 L 940 485.943" />
        <path d="M 950 259.478 L 940 259.478" />
        <path d="M 950 693.535 L 940 693.535" />
        <path d="M 950 580.303 L 940 580.303" />
        <path d="M 950 901.128 L 940 901.128" />
        <path d="M 950 127.374 L 940 127.374" />
        <path d="M 950 316.094 L 940 316.094" />
        <path d="M 950 806.768 L 940 806.768" />
        <path d="M 950 599.175 L 940 599.175" />
        <path d="M 950 165.118 L 930 165.118" />
        <path d="M 950 70.7574 L 940 70.7574" />
        <path d="M 950 712.407 L 940 712.407" />
        <path d="M 950 221.734 L 940 221.734" />
        <path d="M 950 51.8853 L 940 51.8853" />
    </g>
</g>
</g>
</svg>
