<?xml version="1.0" standalone="no"?>
<!DOCTYPE svg PUBLIC "-//W3C//DTD SVG 1.1//EN" "http://www.w3.org/Graphics/SVG/1.1/DTD/svg11.dtd">
<svg style="stroke-linejoin:miter; stroke:black; stroke-width:2.5; text-anchor:middle; fill:none" xmlns="http://www.w3.org/2000/svg" font-family="Helvetica, Arial, FreeSans, Sans, sans, sans-serif" width="1000px" height="1000px" version="1.1" xmlns:xlink="http://www.w3.org/1999/xlink" viewBox="0 0 1000 1000">
<defs>
    <clipPath id="Histogram_0_clip">
        <rect x="120" y="50" width="830" height="870" />
    </clipPath>
</defs>
<g id="whole_document">
<rect id="background" x="0" y="0" width="1000" height="1000" stroke="none" fill="white" />
<g id="Histogram_0" clip-path="url(#Histogram_0_clip)">
    <path d="M 120 920 L 120 129.091 L 161.5 129.091 L 161.5 920 L 203 920 L 203 920 L 244.5 920 L 244.5 920 L 286 920 L 286 920 L 327.5 920 L 327.5 920 L 369 920 L 369 920 L 410.5 920 L 410.5 920 L 452 920 L 452 920 L 493.5 920 L 493.5 920 L 535 920 L 535 920 L 576.5 920 L 576.5 920 L 618 920 L 618 920 L 659.5 920 L 659.5 920 L 701 920 L 701 920 L 742.5 920 L 742.5 920 L 784 920 L 784 920 L 825.5 920 L 825.5 920 L 867 920 L 867 920 L 908.5 920 L 908.5 920 L 950 920 L 950 920" stroke-width="3" stroke-dasharray="" stroke="black" stroke-opacity="1" fill="DodgerBlue" fill-opacity="1" />
</g>
<g id="frame_0">
    <rect id="frame_0_border" x="120" y="50" width="830" height="870" />
    <text id="frame_0_bottomlabel" font-size="30" transform="translate(535, 989.6)" text-anchor="middle" dominant-baseline="middle" stroke="none" fill="black">microseconds</text>
    <g id="frame_0_bottomticks">
        <path d="M 120 920 L 120 900" />
        <text font-size="30" transform="translate(120, 950)" text-anchor="middle" dominant-baseline="middle" stroke="none" fill="black">0</text>
        <path d="M 136.6 920 L 136.6 910" />
        <path d="M 153.2 920 L 153.2 910" />
        <path d="M 169.8 920 L 169.8 910" />
        <path d="M 186.4 920 L 186.4 910" />
        <path d="M 203 920 L 203 910" />
        <path d="M 219.6 920 L 219.6 910" />
        <path d="M 236.2 920 L 236.2 910" />
        <path d="M 252.8 920 L 252.8 910" />
        <path d="M 269.4 920 L 269.4 910" />
        <path d="M 286 920 L 286 900" />
        <text font-size="30" transform="translate(286, 950)" text-anchor="middle" dominant-baseline="middle" stroke="none" fill="black">10</text>
        <path d="M 302.6 920 L 302.6 910" />
        <path d="M 319.2 920 L 319.2 910" />
        <path d="M 335.8 920 L 335.8 910" />
        <path d="M 352.4 920 L 352.4 910" />
        <path d="M 369 920 L 369 910" />
        <path d="M 385.6 920 L 385.6 910" />
        <path d="M 402.2 920 L 402.2 910" />
        <path d="M 418.8 920 L 418.8 910" />
        <path d="M 435.4 920 L 435.4 910" />
        <path d="M 452 920 L 452 900" />
        <text font-size="30" transform="translate(452, 950)" text-anchor="middle" dominant-baseline="middle" stroke="none" fill="black">20</text>
        <path d="M 468.6 920 L 468.6 910" />
        <path d="M 485.2 920 L 485.2 910" />
        <path d="M 501.8 920 L 501.8 910" />
        <path d="M 518.4 920 L 518.4 910" />
        <path d="M 535 920 L 535 910" />
        <path d="M 551.6 920 L 551.6 910" />
        <path d="M 568.2 920 L 568.2 910" />
        <path d="M 584.8 920 L 584.8 910" />
        <path d="M 601.4 920 L 601.4 910" />
        <path d="M 618 920 L 618 900" />
        <text font-size="30" transform="translate(618, 950)" text-anchor="middle" dominant-baseline="middle" stroke="none" fill="black">30</text>
        <path d="M 634.6 920 L 634.6 910" />
        <path d="M 651.2 920 L 651.2 910" />
        <path d="M 667.8 920 L 667.8 910" />
        <path d="M 684.4 920 L 684.4 910" />
        <path d="M 701 920 L 701 910" />
        <path d="M 717.6 920 L 717.6 910" />
        <path d="M 734.2 920 L 734.2 910" />
        <path d="M 750.8 920 L 750.8 910" />
        <path d="M 767.4 920 L 767.4 910" />
        <path d="M 784 920 L 784 900" />
        <text font-size="30" transform="translate(784, 950)" text-anchor="middle" dominant-baseline="middle" stroke="none" fill="black">40</text>
        <path d="M 800.6 920 L 800.6 910" />
        <path d="M 817.2 920 L 817.2 910" />
        <path d="M 833.8 920 L 833.8 910" />
        <path d="M 850.4 920 L 850.4 910" />
        <path d="M 867 920 L 867 910" />
        <path d="M 883.6 920 L 883.6 910" />
        <path d="M 900.2 920 L 900.2 910" />
        <path d="M 916.8 920 L 916.8 910" />
        <path d="M 933.4 920 L 933.4 910" />
        <path d="M 950 920 L 950 900" />
        <text font-size="30" transform="translate(950, 950)" text-anchor="middle" dominant-baseline="middle" stroke="none" fill="black">50</text>
    </g>
    <g id="frame_0_leftticks">
        <path d="M 120 435.207 L 130 435.207" />
        <path d="M 120 192.811 L 130 192.811" />
        <path d="M 120 101.912 L 130 101.912" />
        <path d="M 120 283.71 L 130 283.71" />
        <path d="M 120 132.212 L 130 132.212" />
        <path d="M 120 707.903 L 130 707.903" />
        <path d="M 120 465.507 L 140 465.507" />
        <text font-size="30" transform="translate(110, 475.507)" text-anchor="end" dominant-baseline="middle" stroke="none" fill="black">15000</text>
        <path d="M 120 617.005 L 140 617.005" />
        <text font-size="30" transform="translate(110, 627.005)" text-anchor="end" dominant-baseline="middle" stroke="none" fill="black">10000</text>
        <path d="M 120 920 L 140 920" />
        <text font-size="30" transform="translate(110, 930)" text-anchor="end" dominant-baseline="middle" stroke="none" fill="black">0</text>
        <path d="M 120 798.802 L 130 798.802" />
        <path d="M 120 253.41 L 130 253.41" />
        <path d="M 120 647.304 L 130 647.304" />
        <path d="M 120 495.806 L 130 495.806" />
        <path d="M 120 768.502 L 140 768.502" />
        <text font-size="30" transform="translate(110, 778.502)" text-anchor="end" dominant-baseline="middle" stroke="none" fill="black">5000</text>
        <path d="M 120 314.009 L 140 314.009" />
        <text font-size="30" transform="translate(110, 324.009)" text-anchor="end" dominant-baseline="middle" stroke="none" fill="black">20000</text>
        <path d="M 120 344.309 L 130 344.309" />
        <path d="M 120 677.604 L 130 677.604" />
        <path d="M 120 71.6127 L 130 71.6127" />
        <path d="M 120 162.511 L 140 162.511" />
        <text font-size="30" transform="translate(110, 172.511)" text-anchor="end" dominant-baseline="middle" stroke="none" fill="black">25000</text>
        <path d="M 120 526.106 L 130 526.106" />
        <path d="M 120 374.608 L 130 374.608" />
        <path d="M 120 829.101 L 130 829.101" />
        <path d="M 120 223.11 L 130 223.11" />
        <path d="M 120 556.405 L 130 556.405" />
        <path d="M 120 859.401 L 130 859.401" />
        <path d="M 120 889.7 L 130 889.7" />
        <path d="M 120 738.203 L 130 738.203" />
        <path d="M 120 404.908 L 130 404.908" />
        <path d="M 120 586.705 L 130 586.705" />
    </g>
    <text id="frame_0_toplabel" font-size="30" transform="translate(535, 32.6)" text-anchor="middle" dominant-baseline="middle" stroke="none" fill="black">fixed.toBytes</text>
    <g id="frame_0_topticks">
        <path d="M 120 50 L 120 70" />
        <path d="M 136.6 50 L 136.6 60" />
        <path d="M 153.2 50 L 153.2 60" />
        <path d="M 169.8 50 L 169.8 60" />
        <path d="M 186.4 50 L 186.4 60" />
        <path d="M 203 50 L 203 60" />
        <path d="M 219.6 50 L 219.6 60" />
        <path d="M 236.2 50 L 236.2 60" />
        <path d="M 252.8 50 L 252.8 60" />
        <path d="M 269.4 50 L 269.4 60" />
        <path d="M 286 50 L 286 70" />
        <path d="M 302.6 50 L 302.6 60" />
        <path d="M 319.2 50 L 319.2 60" />
        <path d="M 335.8 50 L 335.8 60" />
        <path d="M 352.4 50 L 352.4 60" />
        <path d="M 369 50 L 369 60" />
        <path d="M 385.6 50 L 385.6 60" />
        <path d="M 402.2 50 L 402.2 60" />
        <path d="M 418.8 50 L 418.8 60" />
        <path d="M 435.4 50 L 435.4 60" />
        <path d="M 452 50 L 452 70" />
        <path d="M 468.6 50 L 468.6 60" />
        <path d="M 485.2 50 L 485.2 60" />
        <path d="M 501.8 50 L 501.8 60" />
        <path d="M 518.4 50 L 518.4 60" />
        <path d="M 535 50 L 535 60" />
        <path d="M 551.6 50 L 551.6 60" />
        <path d="M 568.2 50 L 568.2 60" />
        <path d="M 584.8 50 L 584.8 60" />
        <path d="M 601.4 50 L 601.4 60" />
        <path d="M 618 50 L 618 70" />
        <path d="M 634.6 50 L 634.6 60" />
        <path d="M 651.2 50 L 651.2 60" />
        <path d="M 667.8 50 L 667.8 60" />
        <path d="M 684.4 50 L 684.4 60" />
        <path d="M 701 50 L 701 60" />
        <path d="M 717.6 50 L 717.6 60" />
        <path d="M 734.2 50 L 734.2 60" />
        <path d="M 750.8 50 L 750.8 60" />
        <path d="M 767.4 50 L 767.4 60" />
        <path d="M 784 50 L 784 70" />
        <path d="M 800.6 50 L 800.6 60" />
        <path d="M 817.2 50 L 817.2 60" />
        <path d="M 833.8 50 L 833.8 60" />
        <path d="M 850.4 50 L 850.4 60" />
        <path d="M 867 50 L 867 60" />
        <path d="M 883.6 50 L 883.6 60" />
        <path d="M 900.2 50 L 900.2 60" />
        <path d="M 916.8 50 L 916.8 60" />
        <path d="M 933.4 50 L 933.4 60" />
        <path d="M 950 50 L 950 70" />
    </g>
    <g id="frame_0_rightticks">
        <path d="M 950 435.207 L 940 435.207" />
        <path d="M 950 192.811 L 940 192.811" />
        <path d="M 950 101.912 L 940 101.912" />
        <path d="M 950 283.71 L 940 283.71" />
        <path d="M 950 132.212 L 940 132.212" />
        <path d="M 950 707.903 L 940 707.903" />
        <path d="M 950 465.507 L 930 465.507" />
        <path d="M 950 617.005 L 930 617.005" />
        <path d="M 950 920 L 930 920" />
        <path d="M 950 798.802 L 940 798.802" />
        <path d="M 950 253.41 L 940 253.41" />
        <path d="M 950 647.304 L 940 647.304" />
        <path d="M 950 495.806 L 940 495.806" />
        <path d="M 950 768.502 L 930 768.502" />
        <path d="M 950 314.009 L 930 314.009" />
        <path d="M 950 344.309 L 940 344.309" />
        <path d="M 950 677.604 L 940 677.604" />
        <path d="M 950 71.6127 L 940 71.6127" />
        <path d="M 950 162.511 L 930 162.511" />
        <path d="M 950 526.106 L 940 526.106" />
        <path d="M 950 374.608 L 940 374.608" />
        <path d="M 950 829.101 L 940 829.101" />
        <path d="M 950 223.11 L 940 223.11" />
        <path d="M 950 556.405 L 940 556.405" />
        <path d="M 950 859.401 L 940 859.401" />
        <path d="M 950 889.7 L 940 889.7" />
        <path d="M 950 738.203 L 940 738.203" />
        <path d="M 950 404.908 L 940 404.908" />
        <path d="M 950 586.705 L 940 586.705" />
    </g>
</g>
</g>
</svg>
