<?xml version="1.0" standalone="no"?>
<!DOCTYPE svg PUBLIC "-//W3C//DTD SVG 1.1//EN" "http://www.w3.org/Graphics/SVG/1.1/DTD/svg11.dtd">
<svg style="stroke-linejoin:miter; stroke:black; stroke-width:2.5; text-anchor:middle; fill:none" xmlns="http://www.w3.org/2000/svg" font-family="Helvetica, Arial, FreeSans, Sans, sans, sans-serif" width="1000px" height="1000px" version="1.1" xmlns:xlink="http://www.w3.org/1999/xlink" viewBox="0 0 1000 1000">
<defs>
    <clipPath id="Histogram_0_clip">
        <rect x="120" y="50" width="830" height="870" />
    </clipPath>
    <clipPath id="Histogram_1_clip">
        <rect x="120" y="50" width="830" height="870" />
    </clipPath>
</defs>
<g id="whole_document">
<rect id="background" x="0" y="0" width="1000" height="1000" stroke="none" fill="white" />
<g id="Histogram_0" clip-path="url(#Histogram_0_clip)">
    <path d="M 120 920 L 120 920 L 161.5 920 L 161.5 920 L 203 920 L 203 463.235 L 244.5 463.235 L 244.5 129.091 L 286 129.091 L 286 660.962 L 327.5 660.962 L 327.5 920 L 369 920 L 369 920 L 410.5 920 L 410.5 840.296 L 452 840.296 L 452 920 L 493.5 920 L 493.5 920 L 535 920 L 535 920 L 576.5 920 L 576.5 920 L 618 920 L 618 920 L 659.5 920 L 659.5 920 L 701 920 L 701 877.082 L 742.5 877.082 L 742.5 920 L 784 920 L 784 920 L 825.5 920 L 825.5 920 L 867 920 L 867 920 L 908.5 920 L 908.5 920 L 950 920 L 950 920" stroke-width="3" stroke-dasharray="" stroke="black" stroke-opacity="1" fill="DodgerBlue" fill-opacity="1" />
</g>
<g id="Histogram_1" clip-path="url(#Histogram_1_clip)">
    <path d="M 120 920 L 120 920 L 161.5 920 L 161.5 920 L 203 920 L 203 920 L 244.5 920 L 244.5 920 L 286 920 L 286 660.962 L 327.5 660.962 L 327.5 920 L 369 920 L 369 920 L 410.5 920 L 410.5 840.296 L 452 840.296 L 452 920 L 493.5 920 L 493.5 920 L 535 920 L 535 920 L 576.5 920 L 576.5 920 L 618 920 L 618 920 L 659.5 920 L 659.5 920 L 701 920 L 701 877.082 L 742.5 877.082 L 742.5 920 L 784 920 L 784 920 L 825.5 920 L 825.5 920 L 867 920 L 867 920 L 908.5 920 L 908.5 920 L 950 920 L 950 920" stroke-width="3" stroke-dasharray="" stroke="black" stroke-opacity="1" fill="darkorange" fill-opacity="1" />
</g>
<g id="frame_0">
    <rect id="frame_0_border" x="120" y="50" width="830" height="870" />
    <text id="frame_0_bottomlabel" font-size="30" transform="translate(535, 989.6)" text-anchor="middle" dominant-baseline="middle" stroke="none" fill="black">microseconds</text>
    <g id="frame_0_bottomticks">
        <path d="M 120 920 L 120 900" />
        <text font-size="30" transform="translate(120, 950)" text-anchor="middle" dominant-baseline="middle" stroke="none" fill="black">0</text>
        <path d="M 136.6 920 L 136.6 910" />
        <path d="M 153.2 920 L 153.2 910" />
        <path d="M 169.8 920 L 169.8 910" />
        <path d="M 186.4 920 L 186.4 910" />
        <path d="M 203 920 L 203 910" />
        <path d="M 219.6 920 L 219.6 910" />
        <path d="M 236.2 920 L 236.2 910" />
        <path d="M 252.8 920 L 252.8 910" />
        <path d="M 269.4 920 L 269.4 910" />
        <path d="M 286 920 L 286 900" />
        <text font-size="30" transform="translate(286, 950)" text-anchor="middle" dominant-baseline="middle" stroke="none" fill="black">10</text>
        <path d="M 302.6 920 L 302.6 910" />
        <path d="M 319.2 920 L 319.2 910" />
        <path d="M 335.8 920 L 335.8 910" />
        <path d="M 352.4 920 L 352.4 910" />
        <path d="M 369 920 L 369 910" />
        <path d="M 385.6 920 L 385.6 910" />
        <path d="M 402.2 920 L 402.2 910" />
        <path d="M 418.8 920 L 418.8 910" />
        <path d="M 435.4 920 L 435.4 910" />
        <path d="M 452 920 L 452 900" />
        <text font-size="30" transform="translate(452, 950)" text-anchor="middle" dominant-baseline="middle" stroke="none" fill="black">20</text>
        <path d="M 468.6 920 L 468.6 910" />
        <path d="M 485.2 920 L 485.2 910" />
        <path d="M 501.8 920 L 501.8 910" />
        <path d="M 518.4 920 L 518.4 910" />
        <path d="M 535 920 L 535 910" />
        <path d="M 551.6 920 L 551.6 910" />
        <path d="M 568.2 920 L 568.2 910" />
        <path d="M 584.8 920 L 584.8 910" />
        <path d="M 601.4 920 L 601.4 910" />
        <path d="M 618 920 L 618 900" />
        <text font-size="30" transform="translate(618, 950)" text-anchor="middle" dominant-baseline="middle" stroke="none" fill="black">30</text>
        <path d="M 634.6 920 L 634.6 910" />
        <path d="M 651.2 920 L 651.2 910" />
        <path d="M 667.8 920 L 667.8 910" />
        <path d="M 684.4 920 L 684.4 910" />
        <path d="M 701 920 L 701 910" />
        <path d="M 717.6 920 L 717.6 910" />
        <path d="M 734.2 920 L 734.2 910" />
        <path d="M 750.8 920 L 750.8 910" />
        <path d="M 767.4 920 L 767.4 910" />
        <path d="M 784 920 L 784 900" />
        <text font-size="30" transform="translate(784, 950)" text-anchor="middle" dominant-baseline="middle" stroke="none" fill="black">40</text>
        <path d="M 800.6 920 L 800.6 910" />
        <path d="M 817.2 920 L 817.2 910" />
        <path d="M 833.8 920 L 833.8 910" />
        <path d="M 850.4 920 L 850.4 910" />
        <path d="M 867 920 L 867 910" />
        <path d="M 883.6 920 L 883.6 910" />
        <path d="M 900.2 920 L 900.2 910" />
        <path d="M 916.8 920 L 916.8 910" />
        <path d="M 933.4 920 L 933.4 910" />
        <path d="M 950 920 L 950 900" />
        <text font-size="30" transform="translate(950, 950)" text-anchor="middle" dominant-baseline="middle" stroke="none" fill="black">50</text>
    </g>
    <g id="frame_0_leftticks">
        <path d="M 120 920 L 140 920" />
        <text font-size="30" transform="translate(110, 930)" text-anchor="end" dominant-baseline="middle" stroke="none" fill="black">0</text>
        <path d="M 120 720.74 L 130 720.74" />
        <path d="M 120 521.48 L 130 521.48" />
        <path d="M 120 322.22 L 130 322.22" />
        <path d="M 120 122.96 L 130 122.96" />
        <path d="M 120 904.672 L 130 904.672" />
        <path d="M 120 705.412 L 130 705.412" />
        <path d="M 120 506.152 L 130 506.152" />
        <path d="M 120 306.892 L 140 306.892" />
        <text font-size="30" transform="translate(110, 316.892)" text-anchor="end" dominant-baseline="middle" stroke="none" fill="black">400</text>
        <path d="M 120 107.632 L 130 107.632" />
        <path d="M 120 889.345 L 130 889.345" />
        <path d="M 120 690.085 L 130 690.085" />
        <path d="M 120 490.825 L 130 490.825" />
        <path d="M 120 291.564 L 130 291.564" />
        <path d="M 120 92.3044 L 130 92.3044" />
        <path d="M 120 874.017 L 130 874.017" />
        <path d="M 120 674.757 L 130 674.757" />
        <path d="M 120 475.497 L 130 475.497" />
        <path d="M 120 276.237 L 130 276.237" />
        <path d="M 120 76.9767 L 130 76.9767" />
        <path d="M 120 858.689 L 130 858.689" />
        <path d="M 120 659.429 L 130 659.429" />
        <path d="M 120 460.169 L 140 460.169" />
        <text font-size="30" transform="translate(110, 470.169)" text-anchor="end" dominant-baseline="middle" stroke="none" fill="black">300</text>
        <path d="M 120 260.909 L 130 260.909" />
        <path d="M 120 61.649 L 130 61.649" />
        <path d="M 120 843.362 L 130 843.362" />
        <path d="M 120 644.101 L 130 644.101" />
        <path d="M 120 444.841 L 130 444.841" />
        <path d="M 120 245.581 L 130 245.581" />
        <path d="M 120 828.034 L 130 828.034" />
        <path d="M 120 628.774 L 130 628.774" />
        <path d="M 120 429.514 L 130 429.514" />
        <path d="M 120 230.254 L 130 230.254" />
        <path d="M 120 812.706 L 130 812.706" />
        <path d="M 120 613.446 L 140 613.446" />
        <text font-size="30" transform="translate(110, 623.446)" text-anchor="end" dominant-baseline="middle" stroke="none" fill="black">200</text>
        <path d="M 120 414.186 L 130 414.186" />
        <path d="M 120 214.926 L 130 214.926" />
        <path d="M 120 797.378 L 130 797.378" />
        <path d="M 120 598.118 L 130 598.118" />
        <path d="M 120 398.858 L 130 398.858" />
        <path d="M 120 199.598 L 130 199.598" />
        <path d="M 120 782.051 L 130 782.051" />
        <path d="M 120 582.791 L 130 582.791" />
        <path d="M 120 383.531 L 130 383.531" />
        <path d="M 120 184.271 L 130 184.271" />
        <path d="M 120 766.723 L 140 766.723" />
        <text font-size="30" transform="translate(110, 776.723)" text-anchor="end" dominant-baseline="middle" stroke="none" fill="black">100</text>
        <path d="M 120 567.463 L 130 567.463" />
        <path d="M 120 368.203 L 130 368.203" />
        <path d="M 120 168.943 L 130 168.943" />
        <path d="M 120 751.395 L 130 751.395" />
        <path d="M 120 552.135 L 130 552.135" />
        <path d="M 120 352.875 L 130 352.875" />
        <path d="M 120 153.615 L 140 153.615" />
        <text font-size="30" transform="translate(110, 163.615)" text-anchor="end" dominant-baseline="middle" stroke="none" fill="black">500</text>
        <path d="M 120 736.068 L 130 736.068" />
        <path d="M 120 536.808 L 130 536.808" />
        <path d="M 120 337.548 L 130 337.548" />
        <path d="M 120 138.288 L 130 138.288" />
    </g>
    <text id="frame_0_toplabel" font-size="30" transform="translate(535, 32.6)" text-anchor="middle" dominant-baseline="middle" stroke="none" fill="black">parse.double</text>
    <g id="frame_0_topticks">
        <path d="M 120 50 L 120 70" />
        <path d="M 136.6 50 L 136.6 60" />
        <path d="M 153.2 50 L 153.2 60" />
        <path d="M 169.8 50 L 169.8 60" />
        <path d="M 186.4 50 L 186.4 60" />
        <path d="M 203 50 L 203 60" />
        <path d="M 219.6 50 L 219.6 60" />
        <path d="M 236.2 50 L 236.2 60" />
        <path d="M 252.8 50 L 252.8 60" />
        <path d="M 269.4 50 L 269.4 60" />
        <path d="M 286 50 L 286 70" />
        <path d="M 302.6 50 L 302.6 60" />
        <path d="M 319.2 50 L 319.2 60" />
        <path d="M 335.8 50 L 335.8 60" />
        <path d="M 352.4 50 L 352.4 60" />
        <path d="M 369 50 L 369 60" />
        <path d="M 385.6 50 L 385.6 60" />
        <path d="M 402.2 50 L 402.2 60" />
        <path d="M 418.8 50 L 418.8 60" />
        <path d="M 435.4 50 L 435.4 60" />
        <path d="M 452 50 L 452 70" />
        <path d="M 468.6 50 L 468.6 60" />
        <path d="M 485.2 50 L 485.2 60" />
        <path d="M 501.8 50 L 501.8 60" />
        <path d="M 518.4 50 L 518.4 60" />
        <path d="M 535 50 L 535 60" />
        <path d="M 551.6 50 L 551.6 60" />
        <path d="M 568.2 50 L 568.2 60" />
        <path d="M 584.8 50 L 584.8 60" />
        <path d="M 601.4 50 L 601.4 60" />
        <path d="M 618 50 L 618 70" />
        <path d="M 634.6 50 L 634.6 60" />
        <path d="M 651.2 50 L 651.2 60" />
        <path d="M 667.8 50 L 667.8 60" />
        <path d="M 684.4 50 L 684.4 60" />
        <path d="M 701 50 L 701 60" />
        <path d="M 717.6 50 L 717.6 60" />
        <path d="M 734.2 50 L 734.2 60" />
        <path d="M 750.8 50 L 750.8 60" />
        <path d="M 767.4 50 L 767.4 60" />
        <path d="M 784 50 L 784 70" />
        <path d="M 800.6 50 L 800.6 60" />
        <path d="M 817.2 50 L 817.2 60" />
        <path d="M 833.8 50 L 833.8 60" />
        <path d="M 850.4 50 L 850.4 60" />
        <path d="M 867 50 L 867 60" />
        <path d="M 883.6 50 L 883.6 60" />
        <path d="M 900.2 50 L 900.2 60" />
        <path d="M 916.8 50 L 916.8 60" />
        <path d="M 933.4 50 L 933.4 60" />
        <path d="M 950 50 L 950 70" />
    </g>
    <g id="frame_0_rightticks">
        <path d="M 950 920 L 930 920" />
        <path d="M 950 720.74 L 940 720.74" />
        <path d="M 950 521.48 L 940 521.48" />
        <path d="M 950 322.22 L 940 322.22" />
        <path d="M 950 122.96 L 940 122.96" />
        <path d="M 950 904.672 L 940 904.672" />
        <path d="M 950 705.412 L 940 705.412" />
        <path d="M 950 506.152 L 940 506.152" />
        <path d="M 950 306.892 L 930 306.892" />
        <path d="M 950 107.632 L 940 107.632" />
        <path d="M 950 889.345 L 940 889.345" />
        <path d="M 950 690.085 L 940 690.085" />
        <path d="M 950 490.825 L 940 490.825" />
        <path d="M 950 291.564 L 940 291.564" />
        <path d="M 950 92.3044 L 940 92.3044" />
        <path d="M 950 874.017 L 940 874.017" />
        <path d="M 950 674.757 L 940 674.757" />
        <path d="M 950 475.497 L 940 475.497" />
        <path d="M 950 276.237 L 940 276.237" />
        <path d="M 950 76.9767 L 940 76.9767" />
        <path d="M 950 858.689 L 940 858.689" />
        <path d="M 950 659.429 L 940 659.429" />
        <path d="M 950 460.169 L 930 460.169" />
        <path d="M 950 260.909 L 940 260.909" />
        <path d="M 950 61.649 L 940 61.649" />
        <path d="M 950 843.362 L 940 843.362" />
        <path d="M 950 644.101 L 940 644.101" />
        <path d="M 950 444.841 L 940 444.841" />
        <path d="M 950 245.581 L 940 245.581" />
        <path d="M 950 828.034 L 940 828.034" />
        <path d="M 950 628.774 L 940 628.774" />
        <path d="M 950 429.514 L 940 429.514" />
        <path d="M 950 230.254 L 940 230.254" />
        <path d="M 950 812.706 L 940 812.706" />
        <path d="M 950 613.446 L 930 613.446" />
        <path d="M 950 414.186 L 940 414.186" />
        <path d="M 950 214.926 L 940 214.926" />
        <path d="M 950 797.378 L 940 797.378" />
        <path d="M 950 598.118 L 940 598.118" />
        <path d="M 950 398.858 L 940 398.858" />
        <path d="M 950 199.598 L 940 199.598" />
        <path d="M 950 782.051 L 940 782.051" />
        <path d="M 950 582.791 L 940 582.791" />
        <path d="M 950 383.531 L 940 383.531" />
        <path d="M 950 184.271 L 940 184.271" />
        <path d="M 950 766.723 L 930 766.723" />
        <path d="M 950 567.463 L 940 567.463" />
        <path d="M 950 368.203 L 940 368.203" />
        <path d="M 950 168.943 L 940 168.943" />
        <path d="M 950 751.395 L 940 751.395" />
        <path d="M 950 552.135 L 940 552.135" />
        <path d="M 950 352.875 L 940 352.875" />
        <path d="M 950 153.615 L 930 153.615" />
        <path d="M 950 736.068 L 940 736.068" />
        <path d="M 950 536.808 L 940 536.808" />
        <path d="M 950 337.548 L 940 337.548" />
        <path d="M 950 138.288 L 940 138.288" />
    </g>
</g>
</g>
</svg>
