<?xml version="1.0" standalone="no"?>
<!DOCTYPE svg PUBLIC "-//W3C//DTD SVG 1.1//EN" "http://www.w3.org/Graphics/SVG/1.1/DTD/svg11.dtd">
<svg style="stroke-linejoin:miter; stroke:black; stroke-width:2.5; text-anchor:middle; fill:none" xmlns="http://www.w3.org/2000/svg" font-family="Helvetica, Arial, FreeSans, Sans, sans, sans-serif" width="1000px" height="1000px" version="1.1" xmlns:xlink="http://www.w3.org/1999/xlink" viewBox="0 0 1000 1000">
<defs>
    <clipPath id="Histogram_0_clip">
        <rect x="120" y="50" width="830" height="870" />
    </clipPath>
    <clipPath id="Histogram_1_clip">
        <rect x="120" y="50" width="830" height="870" />
    </clipPath>
</defs>
<g id="whole_document">
<rect id="background" x="0" y="0" width="1000" height="1000" stroke="none" fill="white" />
<g id="Histogram_0" clip-path="url(#Histogram_0_clip)">
    <path d="M 120 920 L 120 623.752 L 161.5 623.752 L 161.5 862.946 L 203 862.946 L 203 129.091 L 244.5 129.091 L 244.5 780.993 L 286 780.993 L 286 920 L 327.5 920 L 327.5 913.432 L 369 913.432 L 369 908.04 L 410.5 908.04 L 410.5 909.315 L 452 909.315 L 452 920 L 493.5 920 L 493.5 920 L 535 920 L 535 920 L 576.5 920 L 576.5 920 L 618 920 L 618 920 L 659.5 920 L 659.5 920 L 701 920 L 701 920 L 742.5 920 L 742.5 920 L 784 920 L 784 920 L 825.5 920 L 825.5 920 L 867 920 L 867 920 L 908.5 920 L 908.5 920 L 950 920 L 950 920" stroke-width="3" stroke-dasharray="" stroke="black" stroke-opacity="1" fill="DodgerBlue" fill-opacity="1" />
</g>
<g id="Histogram_1" clip-path="url(#Histogram_1_clip)">
    <path d="M 120 920 L 120 920 L 161.5 920 L 161.5 920 L 203 920 L 203 129.091 L 244.5 129.091 L 244.5 780.993 L 286 780.993 L 286 920 L 327.5 920 L 327.5 913.432 L 369 913.432 L 369 908.04 L 410.5 908.04 L 410.5 909.315 L 452 909.315 L 452 920 L 493.5 920 L 493.5 920 L 535 920 L 535 920 L 576.5 920 L 576.5 920 L 618 920 L 618 920 L 659.5 920 L 659.5 920 L 701 920 L 701 920 L 742.5 920 L 742.5 920 L 784 920 L 784 920 L 825.5 920 L 825.5 920 L 867 920 L 867 920 L 908.5 920 L 908.5 920 L 950 920 L 950 920" stroke-width="3" stroke-dasharray="" stroke="black" stroke-opacity="1" fill="darkorange" fill-opacity="1" />
</g>
<g id="frame_0">
    <rect id="frame_0_border" x="120" y="50" width="830" height="870" />
    <text id="frame_0_bottomlabel" font-size="30" transform="translate(535, 989.6)" text-anchor="middle" dominant-baseline="middle" stroke="none" fill="black">microseconds</text>
    <g id="frame_0_bottomticks">
        <path d="M 120 920 L 120 900" />
        <text font-size="30" transform="translate(120, 950)" text-anchor="middle" dominant-baseline="middle" stroke="none" fill="black">0</text>
        <path d="M 136.6 920 L 136.6 910" />
        <path d="M 153.2 920 L 153.2 910" />
        <path d="M 169.8 920 L 169.8 910" />
        <path d="M 186.4 920 L 186.4 910" />
        <path d="M 203 920 L 203 910" />
        <path d="M 219.6 920 L 219.6 910" />
        <path d="M 236.2 920 L 236.2 910" />
        <path d="M 252.8 920 L 252.8 910" />
        <path d="M 269.4 920 L 269.4 910" />
        <path d="M 286 920 L 286 900" />
        <text font-size="30" transform="translate(286, 950)" text-anchor="middle" dominant-baseline="middle" stroke="none" fill="black">10</text>
        <path d="M 302.6 920 L 302.6 910" />
        <path d="M 319.2 920 L 319.2 910" />
        <path d="M 335.8 920 L 335.8 910" />
        <path d="M 352.4 920 L 352.4 910" />
        <path d="M 369 920 L 369 910" />
        <path d="M 385.6 920 L 385.6 910" />
        <path d="M 402.2 920 L 402.2 910" />
        <path d="M 418.8 920 L 418.8 910" />
        <path d="M 435.4 920 L 435.4 910" />
        <path d="M 452 920 L 452 900" />
        <text font-size="30" transform="translate(452, 950)" text-anchor="middle" dominant-baseline="middle" stroke="none" fill="black">20</text>
        <path d="M 468.6 920 L 468.6 910" />
        <path d="M 485.2 920 L 485.2 910" />
        <path d="M 501.8 920 L 501.8 910" />
        <path d="M 518.4 920 L 518.4 910" />
        <path d="M 535 920 L 535 910" />
        <path d="M 551.6 920 L 551.6 910" />
        <path d="M 568.2 920 L 568.2 910" />
        <path d="M 584.8 920 L 584.8 910" />
        <path d="M 601.4 920 L 601.4 910" />
        <path d="M 618 920 L 618 900" />
        <text font-size="30" transform="translate(618, 950)" text-anchor="middle" dominant-baseline="middle" stroke="none" fill="black">30</text>
        <path d="M 634.6 920 L 634.6 910" />
        <path d="M 651.2 920 L 651.2 910" />
        <path d="M 667.8 920 L 667.8 910" />
        <path d="M 684.4 920 L 684.4 910" />
        <path d="M 701 920 L 701 910" />
        <path d="M 717.6 920 L 717.6 910" />
        <path d="M 734.2 920 L 734.2 910" />
        <path d="M 750.8 920 L 750.8 910" />
        <path d="M 767.4 920 L 767.4 910" />
        <path d="M 784 920 L 784 900" />
        <text font-size="30" transform="translate(784, 950)" text-anchor="middle" dominant-baseline="middle" stroke="none" fill="black">40</text>
        <path d="M 800.6 920 L 800.6 910" />
        <path d="M 817.2 920 L 817.2 910" />
        <path d="M 833.8 920 L 833.8 910" />
        <path d="M 850.4 920 L 850.4 910" />
        <path d="M 867 920 L 867 910" />
        <path d="M 883.6 920 L 883.6 910" />
        <path d="M 900.2 920 L 900.2 910" />
        <path d="M 916.8 920 L 916.8 910" />
        <path d="M 933.4 920 L 933.4 910" />
        <path d="M 950 920 L 950 900" />
        <text font-size="30" transform="translate(950, 950)" text-anchor="middle" dominant-baseline="middle" stroke="none" fill="black">50</text>
    </g>
    <g id="frame_0_leftticks">
        <path d="M 120 292.606 L 130 292.606" />
        <path d="M 120 920 L 140 920" />
        <text font-size="30" transform="translate(110, 930)" text-anchor="end" dominant-baseline="middle" stroke="none" fill="black">0</text>
        <path d="M 120 518.075 L 130 518.075" />
        <path d="M 120 743.545 L 130 743.545" />
        <path d="M 120 263.196 L 130 263.196" />
        <path d="M 120 341.621 L 130 341.621" />
        <path d="M 120 567.091 L 130 567.091" />
        <path d="M 120 233.787 L 140 233.787" />
        <text font-size="30" transform="translate(110, 243.787)" text-anchor="end" dominant-baseline="middle" stroke="none" fill="black">7000</text>
        <path d="M 120 165.166 L 130 165.166" />
        <path d="M 120 390.636 L 130 390.636" />
        <path d="M 120 204.378 L 130 204.378" />
        <path d="M 120 616.106 L 130 616.106" />
        <path d="M 120 841.576 L 130 841.576" />
        <path d="M 120 802.364 L 130 802.364" />
        <path d="M 120 439.651 L 130 439.651" />
        <path d="M 120 665.121 L 130 665.121" />
        <path d="M 120 772.954 L 130 772.954" />
        <path d="M 120 890.591 L 130 890.591" />
        <path d="M 120 488.666 L 130 488.666" />
        <path d="M 120 116.151 L 130 116.151" />
        <path d="M 120 714.136 L 130 714.136" />
        <path d="M 120 312.212 L 130 312.212" />
        <path d="M 120 86.7418 L 130 86.7418" />
        <path d="M 120 537.682 L 130 537.682" />
        <path d="M 120 763.151 L 130 763.151" />
        <path d="M 120 684.727 L 130 684.727" />
        <path d="M 120 361.227 L 130 361.227" />
        <path d="M 120 586.697 L 130 586.697" />
        <path d="M 120 184.772 L 130 184.772" />
        <path d="M 120 410.242 L 130 410.242" />
        <path d="M 120 635.712 L 130 635.712" />
        <path d="M 120 861.182 L 130 861.182" />
        <path d="M 120 910.197 L 130 910.197" />
        <path d="M 120 459.257 L 130 459.257" />
        <path d="M 120 57.3327 L 130 57.3327" />
        <path d="M 120 253.393 L 130 253.393" />
        <path d="M 120 282.803 L 130 282.803" />
        <path d="M 120 508.272 L 130 508.272" />
        <path d="M 120 223.984 L 130 223.984" />
        <path d="M 120 733.742 L 130 733.742" />
        <path d="M 120 331.818 L 140 331.818" />
        <text font-size="30" transform="translate(110, 341.818)" text-anchor="end" dominant-baseline="middle" stroke="none" fill="black">6000</text>
        <path d="M 120 821.97 L 140 821.97" />
        <text font-size="30" transform="translate(110, 831.97)" text-anchor="end" dominant-baseline="middle" stroke="none" fill="black">1000</text>
        <path d="M 120 557.288 L 130 557.288" />
        <path d="M 120 155.363 L 130 155.363" />
        <path d="M 120 792.561 L 130 792.561" />
        <path d="M 120 380.833 L 130 380.833" />
        <path d="M 120 606.303 L 130 606.303" />
        <path d="M 120 135.757 L 140 135.757" />
        <text font-size="30" transform="translate(110, 145.757)" text-anchor="end" dominant-baseline="middle" stroke="none" fill="black">8000</text>
        <path d="M 120 831.773 L 130 831.773" />
        <path d="M 120 429.848 L 140 429.848" />
        <text font-size="30" transform="translate(110, 439.848)" text-anchor="end" dominant-baseline="middle" stroke="none" fill="black">5000</text>
        <path d="M 120 106.348 L 130 106.348" />
        <path d="M 120 655.318 L 130 655.318" />
        <path d="M 120 880.788 L 130 880.788" />
        <path d="M 120 76.9387 L 130 76.9387" />
        <path d="M 120 478.863 L 130 478.863" />
        <path d="M 120 704.333 L 130 704.333" />
        <path d="M 120 302.409 L 130 302.409" />
        <path d="M 120 527.878 L 140 527.878" />
        <text font-size="30" transform="translate(110, 537.878)" text-anchor="end" dominant-baseline="middle" stroke="none" fill="black">4000</text>
        <path d="M 120 753.348 L 130 753.348" />
        <path d="M 120 351.424 L 130 351.424" />
        <path d="M 120 576.894 L 130 576.894" />
        <path d="M 120 174.969 L 130 174.969" />
        <path d="M 120 273 L 130 273" />
        <path d="M 120 400.439 L 130 400.439" />
        <path d="M 120 625.909 L 140 625.909" />
        <text font-size="30" transform="translate(110, 635.909)" text-anchor="end" dominant-baseline="middle" stroke="none" fill="black">3000</text>
        <path d="M 120 243.59 L 130 243.59" />
        <path d="M 120 851.379 L 130 851.379" />
        <path d="M 120 449.454 L 130 449.454" />
        <path d="M 120 214.181 L 130 214.181" />
        <path d="M 120 674.924 L 130 674.924" />
        <path d="M 120 900.394 L 130 900.394" />
        <path d="M 120 812.167 L 130 812.167" />
        <path d="M 120 498.469 L 130 498.469" />
        <path d="M 120 96.5448 L 130 96.5448" />
        <path d="M 120 782.757 L 130 782.757" />
        <path d="M 120 322.015 L 130 322.015" />
        <path d="M 120 547.485 L 130 547.485" />
        <path d="M 120 125.954 L 130 125.954" />
        <path d="M 120 145.56 L 130 145.56" />
        <path d="M 120 371.03 L 130 371.03" />
        <path d="M 120 723.939 L 140 723.939" />
        <text font-size="30" transform="translate(110, 733.939)" text-anchor="end" dominant-baseline="middle" stroke="none" fill="black">2000</text>
        <path d="M 120 596.5 L 130 596.5" />
        <path d="M 120 194.575 L 130 194.575" />
        <path d="M 120 694.53 L 130 694.53" />
        <path d="M 120 420.045 L 130 420.045" />
        <path d="M 120 645.515 L 130 645.515" />
        <path d="M 120 870.985 L 130 870.985" />
        <path d="M 120 469.06 L 130 469.06" />
        <path d="M 120 67.1357 L 130 67.1357" />
    </g>
    <text id="frame_0_toplabel" font-size="30" transform="translate(535, 32.6)" text-anchor="middle" dominant-baseline="middle" stroke="none" fill="black">metric.taxicab</text>
    <g id="frame_0_topticks">
        <path d="M 120 50 L 120 70" />
        <path d="M 136.6 50 L 136.6 60" />
        <path d="M 153.2 50 L 153.2 60" />
        <path d="M 169.8 50 L 169.8 60" />
        <path d="M 186.4 50 L 186.4 60" />
        <path d="M 203 50 L 203 60" />
        <path d="M 219.6 50 L 219.6 60" />
        <path d="M 236.2 50 L 236.2 60" />
        <path d="M 252.8 50 L 252.8 60" />
        <path d="M 269.4 50 L 269.4 60" />
        <path d="M 286 50 L 286 70" />
        <path d="M 302.6 50 L 302.6 60" />
        <path d="M 319.2 50 L 319.2 60" />
        <path d="M 335.8 50 L 335.8 60" />
        <path d="M 352.4 50 L 352.4 60" />
        <path d="M 369 50 L 369 60" />
        <path d="M 385.6 50 L 385.6 60" />
        <path d="M 402.2 50 L 402.2 60" />
        <path d="M 418.8 50 L 418.8 60" />
        <path d="M 435.4 50 L 435.4 60" />
        <path d="M 452 50 L 452 70" />
        <path d="M 468.6 50 L 468.6 60" />
        <path d="M 485.2 50 L 485.2 60" />
        <path d="M 501.8 50 L 501.8 60" />
        <path d="M 518.4 50 L 518.4 60" />
        <path d="M 535 50 L 535 60" />
        <path d="M 551.6 50 L 551.6 60" />
        <path d="M 568.2 50 L 568.2 60" />
        <path d="M 584.8 50 L 584.8 60" />
        <path d="M 601.4 50 L 601.4 60" />
        <path d="M 618 50 L 618 70" />
        <path d="M 634.6 50 L 634.6 60" />
        <path d="M 651.2 50 L 651.2 60" />
        <path d="M 667.8 50 L 667.8 60" />
        <path d="M 684.4 50 L 684.4 60" />
        <path d="M 701 50 L 701 60" />
        <path d="M 717.6 50 L 717.6 60" />
        <path d="M 734.2 50 L 734.2 60" />
        <path d="M 750.8 50 L 750.8 60" />
        <path d="M 767.4 50 L 767.4 60" />
        <path d="M 784 50 L 784 70" />
        <path d="M 800.6 50 L 800.6 60" />
        <path d="M 817.2 50 L 817.2 60" />
        <path d="M 833.8 50 L 833.8 60" />
        <path d="M 850.4 50 L 850.4 60" />
        <path d="M 867 50 L 867 60" />
        <path d="M 883.6 50 L 883.6 60" />
        <path d="M 900.2 50 L 900.2 60" />
        <path d="M 916.8 50 L 916.8 60" />
        <path d="M 933.4 50 L 933.4 60" />
        <path d="M 950 50 L 950 70" />
    </g>
    <g id="frame_0_rightticks">
        <path d="M 950 292.606 L 940 292.606" />
        <path d="M 950 920 L 930 920" />
        <path d="M 950 518.075 L 940 518.075" />
        <path d="M 950 743.545 L 940 743.545" />
        <path d="M 950 263.196 L 940 263.196" />
        <path d="M 950 341.621 L 940 341.621" />
        <path d="M 950 567.091 L 940 567.091" />
        <path d="M 950 233.787 L 930 233.787" />
        <path d="M 950 165.166 L 940 165.166" />
        <path d="M 950 390.636 L 940 390.636" />
        <path d="M 950 204.378 L 940 204.378" />
        <path d="M 950 616.106 L 940 616.106" />
        <path d="M 950 841.576 L 940 841.576" />
        <path d="M 950 802.364 L 940 802.364" />
        <path d="M 950 439.651 L 940 439.651" />
        <path d="M 950 665.121 L 940 665.121" />
        <path d="M 950 772.954 L 940 772.954" />
        <path d="M 950 890.591 L 940 890.591" />
        <path d="M 950 488.666 L 940 488.666" />
        <path d="M 950 116.151 L 940 116.151" />
        <path d="M 950 714.136 L 940 714.136" />
        <path d="M 950 312.212 L 940 312.212" />
        <path d="M 950 86.7418 L 940 86.7418" />
        <path d="M 950 537.682 L 940 537.682" />
        <path d="M 950 763.151 L 940 763.151" />
        <path d="M 950 684.727 L 940 684.727" />
        <path d="M 950 361.227 L 940 361.227" />
        <path d="M 950 586.697 L 940 586.697" />
        <path d="M 950 184.772 L 940 184.772" />
        <path d="M 950 410.242 L 940 410.242" />
        <path d="M 950 635.712 L 940 635.712" />
        <path d="M 950 861.182 L 940 861.182" />
        <path d="M 950 910.197 L 940 910.197" />
        <path d="M 950 459.257 L 940 459.257" />
        <path d="M 950 57.3327 L 940 57.3327" />
        <path d="M 950 253.393 L 940 253.393" />
        <path d="M 950 282.803 L 940 282.803" />
        <path d="M 950 508.272 L 940 508.272" />
        <path d="M 950 223.984 L 940 223.984" />
        <path d="M 950 733.742 L 940 733.742" />
        <path d="M 950 331.818 L 930 331.818" />
        <path d="M 950 821.97 L 930 821.97" />
        <path d="M 950 557.288 L 940 557.288" />
        <path d="M 950 155.363 L 940 155.363" />
        <path d="M 950 792.561 L 940 792.561" />
        <path d="M 950 380.833 L 940 380.833" />
        <path d="M 950 606.303 L 940 606.303" />
        <path d="M 950 135.757 L 930 135.757" />
        <path d="M 950 831.773 L 940 831.773" />
        <path d="M 950 429.848 L 930 429.848" />
        <path d="M 950 106.348 L 940 106.348" />
        <path d="M 950 655.318 L 940 655.318" />
        <path d="M 950 880.788 L 940 880.788" />
        <path d="M 950 76.9387 L 940 76.9387" />
        <path d="M 950 478.863 L 940 478.863" />
        <path d="M 950 704.333 L 940 704.333" />
        <path d="M 950 302.409 L 940 302.409" />
        <path d="M 950 527.878 L 930 527.878" />
        <path d="M 950 753.348 L 940 753.348" />
        <path d="M 950 351.424 L 940 351.424" />
        <path d="M 950 576.894 L 940 576.894" />
        <path d="M 950 174.969 L 940 174.969" />
        <path d="M 950 273 L 940 273" />
        <path d="M 950 400.439 L 940 400.439" />
        <path d="M 950 625.909 L 930 625.909" />
        <path d="M 950 243.59 L 940 243.59" />
        <path d="M 950 851.379 L 940 851.379" />
        <path d="M 950 449.454 L 940 449.454" />
        <path d="M 950 214.181 L 940 214.181" />
        <path d="M 950 674.924 L 940 674.924" />
        <path d="M 950 900.394 L 940 900.394" />
        <path d="M 950 812.167 L 940 812.167" />
        <path d="M 950 498.469 L 940 498.469" />
        <path d="M 950 96.5448 L 940 96.5448" />
        <path d="M 950 782.757 L 940 782.757" />
        <path d="M 950 322.015 L 940 322.015" />
        <path d="M 950 547.485 L 940 547.485" />
        <path d="M 950 125.954 L 940 125.954" />
        <path d="M 950 145.56 L 940 145.56" />
        <path d="M 950 371.03 L 940 371.03" />
        <path d="M 950 723.939 L 930 723.939" />
        <path d="M 950 596.5 L 940 596.5" />
        <path d="M 950 194.575 L 940 194.575" />
        <path d="M 950 694.53 L 940 694.53" />
        <path d="M 950 420.045 L 940 420.045" />
        <path d="M 950 645.515 L 940 645.515" />
        <path d="M 950 870.985 L 940 870.985" />
        <path d="M 950 469.06 L 940 469.06" />
        <path d="M 950 67.1357 L 940 67.1357" />
    </g>
</g>
</g>
</svg>
