<?xml version="1.0" standalone="no"?>
<!DOCTYPE svg PUBLIC "-//W3C//DTD SVG 1.1//EN" "http://www.w3.org/Graphics/SVG/1.1/DTD/svg11.dtd">
<svg style="stroke-linejoin:miter; stroke:black; stroke-width:2.5; text-anchor:middle; fill:none" xmlns="http://www.w3.org/2000/svg" font-family="Helvetica, Arial, FreeSans, Sans, sans, sans-serif" width="1000px" height="1000px" version="1.1" xmlns:xlink="http://www.w3.org/1999/xlink" viewBox="0 0 1000 1000">
<defs>
    <clipPath id="Histogram_0_clip">
        <rect x="120" y="50" width="830" height="870" />
    </clipPath>
</defs>
<g id="whole_document">
<rect id="background" x="0" y="0" width="1000" height="1000" stroke="none" fill="white" />
<g id="Histogram_0" clip-path="url(#Histogram_0_clip)">
    <path d="M 120 920 L 120 129.091 L 161.5 129.091 L 161.5 920 L 203 920 L 203 920 L 244.5 920 L 244.5 920 L 286 920 L 286 920 L 327.5 920 L 327.5 920 L 369 920 L 369 920 L 410.5 920 L 410.5 920 L 452 920 L 452 920 L 493.5 920 L 493.5 920 L 535 920 L 535 920 L 576.5 920 L 576.5 920 L 618 920 L 618 920 L 659.5 920 L 659.5 920 L 701 920 L 701 920 L 742.5 920 L 742.5 920 L 784 920 L 784 920 L 825.5 920 L 825.5 920 L 867 920 L 867 920 L 908.5 920 L 908.5 920 L 950 920 L 950 920" stroke-width="3" stroke-dasharray="" stroke="black" stroke-opacity="1" fill="DodgerBlue" fill-opacity="1" />
</g>
<g id="frame_0">
    <rect id="frame_0_border" x="120" y="50" width="830" height="870" />
    <text id="frame_0_bottomlabel" font-size="30" transform="translate(535, 989.6)" text-anchor="middle" dominant-baseline="middle" stroke="none" fill="black">microseconds</text>
    <g id="frame_0_bottomticks">
        <path d="M 120 920 L 120 900" />
        <text font-size="30" transform="translate(120, 950)" text-anchor="middle" dominant-baseline="middle" stroke="none" fill="black">0</text>
        <path d="M 136.6 920 L 136.6 910" />
        <path d="M 153.2 920 L 153.2 910" />
        <path d="M 169.8 920 L 169.8 910" />
        <path d="M 186.4 920 L 186.4 910" />
        <path d="M 203 920 L 203 910" />
        <path d="M 219.6 920 L 219.6 910" />
        <path d="M 236.2 920 L 236.2 910" />
        <path d="M 252.8 920 L 252.8 910" />
        <path d="M 269.4 920 L 269.4 910" />
        <path d="M 286 920 L 286 900" />
        <text font-size="30" transform="translate(286, 950)" text-anchor="middle" dominant-baseline="middle" stroke="none" fill="black">10</text>
        <path d="M 302.6 920 L 302.6 910" />
        <path d="M 319.2 920 L 319.2 910" />
        <path d="M 335.8 920 L 335.8 910" />
        <path d="M 352.4 920 L 352.4 910" />
        <path d="M 369 920 L 369 910" />
        <path d="M 385.6 920 L 385.6 910" />
        <path d="M 402.2 920 L 402.2 910" />
        <path d="M 418.8 920 L 418.8 910" />
        <path d="M 435.4 920 L 435.4 910" />
        <path d="M 452 920 L 452 900" />
        <text font-size="30" transform="translate(452, 950)" text-anchor="middle" dominant-baseline="middle" stroke="none" fill="black">20</text>
        <path d="M 468.6 920 L 468.6 910" />
        <path d="M 485.2 920 L 485.2 910" />
        <path d="M 501.8 920 L 501.8 910" />
        <path d="M 518.4 920 L 518.4 910" />
        <path d="M 535 920 L 535 910" />
        <path d="M 551.6 920 L 551.6 910" />
        <path d="M 568.2 920 L 568.2 910" />
        <path d="M 584.8 920 L 584.8 910" />
        <path d="M 601.4 920 L 601.4 910" />
        <path d="M 618 920 L 618 900" />
        <text font-size="30" transform="translate(618, 950)" text-anchor="middle" dominant-baseline="middle" stroke="none" fill="black">30</text>
        <path d="M 634.6 920 L 634.6 910" />
        <path d="M 651.2 920 L 651.2 910" />
        <path d="M 667.8 920 L 667.8 910" />
        <path d="M 684.4 920 L 684.4 910" />
        <path d="M 701 920 L 701 910" />
        <path d="M 717.6 920 L 717.6 910" />
        <path d="M 734.2 920 L 734.2 910" />
        <path d="M 750.8 920 L 750.8 910" />
        <path d="M 767.4 920 L 767.4 910" />
        <path d="M 784 920 L 784 900" />
        <text font-size="30" transform="translate(784, 950)" text-anchor="middle" dominant-baseline="middle" stroke="none" fill="black">40</text>
        <path d="M 800.6 920 L 800.6 910" />
        <path d="M 817.2 920 L 817.2 910" />
        <path d="M 833.8 920 L 833.8 910" />
        <path d="M 850.4 920 L 850.4 910" />
        <path d="M 867 920 L 867 910" />
        <path d="M 883.6 920 L 883.6 910" />
        <path d="M 900.2 920 L 900.2 910" />
        <path d="M 916.8 920 L 916.8 910" />
        <path d="M 933.4 920 L 933.4 910" />
        <path d="M 950 920 L 950 900" />
        <text font-size="30" transform="translate(950, 950)" text-anchor="middle" dominant-baseline="middle" stroke="none" fill="black">50</text>
    </g>
    <g id="frame_0_leftticks">
        <path d="M 120 602.087 L 130 602.087" />
        <path d="M 120 443.13 L 130 443.13" />
        <path d="M 120 383.521 L 130 383.521" />
        <path d="M 120 502.739 L 130 502.739" />
        <path d="M 120 244.434 L 130 244.434" />
        <path d="M 120 403.391 L 130 403.391" />
        <path d="M 120 780.913 L 130 780.913" />
        <path d="M 120 820.652 L 140 820.652" />
        <text font-size="30" transform="translate(110, 830.652)" text-anchor="end" dominant-baseline="middle" stroke="none" fill="black">5000</text>
        <path d="M 120 304.043 L 130 304.043" />
        <path d="M 120 920 L 140 920" />
        <text font-size="30" transform="translate(110, 930)" text-anchor="end" dominant-baseline="middle" stroke="none" fill="black">0</text>
        <path d="M 120 721.304 L 140 721.304" />
        <text font-size="30" transform="translate(110, 731.304)" text-anchor="end" dominant-baseline="middle" stroke="none" fill="black">10000</text>
        <path d="M 120 145.086 L 130 145.086" />
        <path d="M 120 840.522 L 130 840.522" />
        <path d="M 120 482.869 L 130 482.869" />
        <path d="M 120 522.608 L 140 522.608" />
        <text font-size="30" transform="translate(110, 532.608)" text-anchor="end" dominant-baseline="middle" stroke="none" fill="black">20000</text>
        <path d="M 120 741.174 L 130 741.174" />
        <path d="M 120 621.956 L 140 621.956" />
        <text font-size="30" transform="translate(110, 631.956)" text-anchor="end" dominant-baseline="middle" stroke="none" fill="black">15000</text>
        <path d="M 120 204.695 L 130 204.695" />
        <path d="M 120 641.826 L 130 641.826" />
        <path d="M 120 343.782 L 130 343.782" />
        <path d="M 120 105.347 L 130 105.347" />
        <path d="M 120 542.478 L 130 542.478" />
        <path d="M 120 264.303 L 130 264.303" />
        <path d="M 120 761.043 L 130 761.043" />
        <path d="M 120 363.651 L 130 363.651" />
        <path d="M 120 423.26 L 140 423.26" />
        <text font-size="30" transform="translate(110, 433.26)" text-anchor="end" dominant-baseline="middle" stroke="none" fill="black">25000</text>
        <path d="M 120 661.695 L 130 661.695" />
        <path d="M 120 164.956 L 130 164.956" />
        <path d="M 120 323.912 L 140 323.912" />
        <text font-size="30" transform="translate(110, 333.912)" text-anchor="end" dominant-baseline="middle" stroke="none" fill="black">30000</text>
        <path d="M 120 562.347 L 130 562.347" />
        <path d="M 120 860.391 L 130 860.391" />
        <path d="M 120 65.6076 L 130 65.6076" />
        <path d="M 120 462.999 L 130 462.999" />
        <path d="M 120 224.564 L 140 224.564" />
        <text font-size="30" transform="translate(110, 234.564)" text-anchor="end" dominant-baseline="middle" stroke="none" fill="black">35000</text>
        <path d="M 120 681.565 L 130 681.565" />
        <path d="M 120 880.261 L 130 880.261" />
        <path d="M 120 900.13 L 130 900.13" />
        <path d="M 120 85.4772 L 130 85.4772" />
        <path d="M 120 284.173 L 130 284.173" />
        <path d="M 120 800.782 L 130 800.782" />
        <path d="M 120 582.217 L 130 582.217" />
        <path d="M 120 125.216 L 140 125.216" />
        <text font-size="30" transform="translate(110, 135.216)" text-anchor="end" dominant-baseline="middle" stroke="none" fill="black">40000</text>
        <path d="M 120 701.434 L 130 701.434" />
        <path d="M 120 184.825 L 130 184.825" />
    </g>
    <text id="frame_0_toplabel" font-size="30" transform="translate(535, 32.6)" text-anchor="middle" dominant-baseline="middle" stroke="none" fill="black">s.translate</text>
    <g id="frame_0_topticks">
        <path d="M 120 50 L 120 70" />
        <path d="M 136.6 50 L 136.6 60" />
        <path d="M 153.2 50 L 153.2 60" />
        <path d="M 169.8 50 L 169.8 60" />
        <path d="M 186.4 50 L 186.4 60" />
        <path d="M 203 50 L 203 60" />
        <path d="M 219.6 50 L 219.6 60" />
        <path d="M 236.2 50 L 236.2 60" />
        <path d="M 252.8 50 L 252.8 60" />
        <path d="M 269.4 50 L 269.4 60" />
        <path d="M 286 50 L 286 70" />
        <path d="M 302.6 50 L 302.6 60" />
        <path d="M 319.2 50 L 319.2 60" />
        <path d="M 335.8 50 L 335.8 60" />
        <path d="M 352.4 50 L 352.4 60" />
        <path d="M 369 50 L 369 60" />
        <path d="M 385.6 50 L 385.6 60" />
        <path d="M 402.2 50 L 402.2 60" />
        <path d="M 418.8 50 L 418.8 60" />
        <path d="M 435.4 50 L 435.4 60" />
        <path d="M 452 50 L 452 70" />
        <path d="M 468.6 50 L 468.6 60" />
        <path d="M 485.2 50 L 485.2 60" />
        <path d="M 501.8 50 L 501.8 60" />
        <path d="M 518.4 50 L 518.4 60" />
        <path d="M 535 50 L 535 60" />
        <path d="M 551.6 50 L 551.6 60" />
        <path d="M 568.2 50 L 568.2 60" />
        <path d="M 584.8 50 L 584.8 60" />
        <path d="M 601.4 50 L 601.4 60" />
        <path d="M 618 50 L 618 70" />
        <path d="M 634.6 50 L 634.6 60" />
        <path d="M 651.2 50 L 651.2 60" />
        <path d="M 667.8 50 L 667.8 60" />
        <path d="M 684.4 50 L 684.4 60" />
        <path d="M 701 50 L 701 60" />
        <path d="M 717.6 50 L 717.6 60" />
        <path d="M 734.2 50 L 734.2 60" />
        <path d="M 750.8 50 L 750.8 60" />
        <path d="M 767.4 50 L 767.4 60" />
        <path d="M 784 50 L 784 70" />
        <path d="M 800.6 50 L 800.6 60" />
        <path d="M 817.2 50 L 817.2 60" />
        <path d="M 833.8 50 L 833.8 60" />
        <path d="M 850.4 50 L 850.4 60" />
        <path d="M 867 50 L 867 60" />
        <path d="M 883.6 50 L 883.6 60" />
        <path d="M 900.2 50 L 900.2 60" />
        <path d="M 916.8 50 L 916.8 60" />
        <path d="M 933.4 50 L 933.4 60" />
        <path d="M 950 50 L 950 70" />
    </g>
    <g id="frame_0_rightticks">
        <path d="M 950 602.087 L 940 602.087" />
        <path d="M 950 443.13 L 940 443.13" />
        <path d="M 950 383.521 L 940 383.521" />
        <path d="M 950 502.739 L 940 502.739" />
        <path d="M 950 244.434 L 940 244.434" />
        <path d="M 950 403.391 L 940 403.391" />
        <path d="M 950 780.913 L 940 780.913" />
        <path d="M 950 820.652 L 930 820.652" />
        <path d="M 950 304.043 L 940 304.043" />
        <path d="M 950 920 L 930 920" />
        <path d="M 950 721.304 L 930 721.304" />
        <path d="M 950 145.086 L 940 145.086" />
        <path d="M 950 840.522 L 940 840.522" />
        <path d="M 950 482.869 L 940 482.869" />
        <path d="M 950 522.608 L 930 522.608" />
        <path d="M 950 741.174 L 940 741.174" />
        <path d="M 950 621.956 L 930 621.956" />
        <path d="M 950 204.695 L 940 204.695" />
        <path d="M 950 641.826 L 940 641.826" />
        <path d="M 950 343.782 L 940 343.782" />
        <path d="M 950 105.347 L 940 105.347" />
        <path d="M 950 542.478 L 940 542.478" />
        <path d="M 950 264.303 L 940 264.303" />
        <path d="M 950 761.043 L 940 761.043" />
        <path d="M 950 363.651 L 940 363.651" />
        <path d="M 950 423.26 L 930 423.26" />
        <path d="M 950 661.695 L 940 661.695" />
        <path d="M 950 164.956 L 940 164.956" />
        <path d="M 950 323.912 L 930 323.912" />
        <path d="M 950 562.347 L 940 562.347" />
        <path d="M 950 860.391 L 940 860.391" />
        <path d="M 950 65.6076 L 940 65.6076" />
        <path d="M 950 462.999 L 940 462.999" />
        <path d="M 950 224.564 L 930 224.564" />
        <path d="M 950 681.565 L 940 681.565" />
        <path d="M 950 880.261 L 940 880.261" />
        <path d="M 950 900.13 L 940 900.13" />
        <path d="M 950 85.4772 L 940 85.4772" />
        <path d="M 950 284.173 L 940 284.173" />
        <path d="M 950 800.782 L 940 800.782" />
        <path d="M 950 582.217 L 940 582.217" />
        <path d="M 950 125.216 L 930 125.216" />
        <path d="M 950 701.434 L 940 701.434" />
        <path d="M 950 184.825 L 940 184.825" />
    </g>
</g>
</g>
</svg>
