<?xml version="1.0" standalone="no"?>
<!DOCTYPE svg PUBLIC "-//W3C//DTD SVG 1.1//EN" "http://www.w3.org/Graphics/SVG/1.1/DTD/svg11.dtd">
<svg style="stroke-linejoin:miter; stroke:black; stroke-width:2.5; text-anchor:middle; fill:none" xmlns="http://www.w3.org/2000/svg" font-family="Helvetica, Arial, FreeSans, Sans, sans, sans-serif" width="1000px" height="1000px" version="1.1" xmlns:xlink="http://www.w3.org/1999/xlink" viewBox="0 0 1000 1000">
<defs>
    <clipPath id="Histogram_0_clip">
        <rect x="120" y="50" width="830" height="870" />
    </clipPath>
    <clipPath id="Histogram_1_clip">
        <rect x="120" y="50" width="830" height="870" />
    </clipPath>
</defs>
<g id="whole_document">
<rect id="background" x="0" y="0" width="1000" height="1000" stroke="none" fill="white" />
<g id="Histogram_0" clip-path="url(#Histogram_0_clip)">
    <path d="M 120 920 L 120 129.091 L 161.5 129.091 L 161.5 902.524 L 203 902.524 L 203 724.576 L 244.5 724.576 L 244.5 886.137 L 286 886.137 L 286 916.823 L 327.5 916.823 L 327.5 918.97 L 369 918.97 L 369 917.792 L 410.5 917.792 L 410.5 919.502 L 452 919.502 L 452 919.886 L 493.5 919.886 L 493.5 919.963 L 535 919.963 L 535 919.942 L 576.5 919.942 L 576.5 919.992 L 618 919.992 L 618 920 L 659.5 920 L 659.5 919.994 L 701 919.994 L 701 920 L 742.5 920 L 742.5 920 L 784 920 L 784 919.995 L 825.5 919.995 L 825.5 920 L 867 920 L 867 920 L 908.5 920 L 908.5 920 L 950 920 L 950 920" stroke-width="3" stroke-dasharray="" stroke="black" stroke-opacity="1" fill="DodgerBlue" fill-opacity="1" />
</g>
<g id="Histogram_1" clip-path="url(#Histogram_1_clip)">
    <path d="M 120 920 L 120 920 L 161.5 920 L 161.5 920 L 203 920 L 203 920 L 244.5 920 L 244.5 890.529 L 286 890.529 L 286 919.92 L 327.5 919.92 L 327.5 919.59 L 369 919.59 L 369 918.536 L 410.5 918.536 L 410.5 919.773 L 452 919.773 L 452 919.938 L 493.5 919.938 L 493.5 920 L 535 920 L 535 919.991 L 576.5 919.991 L 576.5 919.992 L 618 919.992 L 618 920 L 659.5 920 L 659.5 920 L 701 920 L 701 920 L 742.5 920 L 742.5 920 L 784 920 L 784 920 L 825.5 920 L 825.5 920 L 867 920 L 867 920 L 908.5 920 L 908.5 920 L 950 920 L 950 920" stroke-width="3" stroke-dasharray="" stroke="black" stroke-opacity="1" fill="darkorange" fill-opacity="1" />
</g>
<g id="frame_0">
    <rect id="frame_0_border" x="120" y="50" width="830" height="870" />
    <text id="frame_0_bottomlabel" font-size="30" transform="translate(535, 989.6)" text-anchor="middle" dominant-baseline="middle" stroke="none" fill="black">microseconds</text>
    <g id="frame_0_bottomticks">
        <path d="M 120 920 L 120 900" />
        <text font-size="30" transform="translate(120, 950)" text-anchor="middle" dominant-baseline="middle" stroke="none" fill="black">0</text>
        <path d="M 136.6 920 L 136.6 910" />
        <path d="M 153.2 920 L 153.2 910" />
        <path d="M 169.8 920 L 169.8 910" />
        <path d="M 186.4 920 L 186.4 910" />
        <path d="M 203 920 L 203 910" />
        <path d="M 219.6 920 L 219.6 910" />
        <path d="M 236.2 920 L 236.2 910" />
        <path d="M 252.8 920 L 252.8 910" />
        <path d="M 269.4 920 L 269.4 910" />
        <path d="M 286 920 L 286 900" />
        <text font-size="30" transform="translate(286, 950)" text-anchor="middle" dominant-baseline="middle" stroke="none" fill="black">10</text>
        <path d="M 302.6 920 L 302.6 910" />
        <path d="M 319.2 920 L 319.2 910" />
        <path d="M 335.8 920 L 335.8 910" />
        <path d="M 352.4 920 L 352.4 910" />
        <path d="M 369 920 L 369 910" />
        <path d="M 385.6 920 L 385.6 910" />
        <path d="M 402.2 920 L 402.2 910" />
        <path d="M 418.8 920 L 418.8 910" />
        <path d="M 435.4 920 L 435.4 910" />
        <path d="M 452 920 L 452 900" />
        <text font-size="30" transform="translate(452, 950)" text-anchor="middle" dominant-baseline="middle" stroke="none" fill="black">20</text>
        <path d="M 468.6 920 L 468.6 910" />
        <path d="M 485.2 920 L 485.2 910" />
        <path d="M 501.8 920 L 501.8 910" />
        <path d="M 518.4 920 L 518.4 910" />
        <path d="M 535 920 L 535 910" />
        <path d="M 551.6 920 L 551.6 910" />
        <path d="M 568.2 920 L 568.2 910" />
        <path d="M 584.8 920 L 584.8 910" />
        <path d="M 601.4 920 L 601.4 910" />
        <path d="M 618 920 L 618 900" />
        <text font-size="30" transform="translate(618, 950)" text-anchor="middle" dominant-baseline="middle" stroke="none" fill="black">30</text>
        <path d="M 634.6 920 L 634.6 910" />
        <path d="M 651.2 920 L 651.2 910" />
        <path d="M 667.8 920 L 667.8 910" />
        <path d="M 684.4 920 L 684.4 910" />
        <path d="M 701 920 L 701 910" />
        <path d="M 717.6 920 L 717.6 910" />
        <path d="M 734.2 920 L 734.2 910" />
        <path d="M 750.8 920 L 750.8 910" />
        <path d="M 767.4 920 L 767.4 910" />
        <path d="M 784 920 L 784 900" />
        <text font-size="30" transform="translate(784, 950)" text-anchor="middle" dominant-baseline="middle" stroke="none" fill="black">40</text>
        <path d="M 800.6 920 L 800.6 910" />
        <path d="M 817.2 920 L 817.2 910" />
        <path d="M 833.8 920 L 833.8 910" />
        <path d="M 850.4 920 L 850.4 910" />
        <path d="M 867 920 L 867 910" />
        <path d="M 883.6 920 L 883.6 910" />
        <path d="M 900.2 920 L 900.2 910" />
        <path d="M 916.8 920 L 916.8 910" />
        <path d="M 933.4 920 L 933.4 910" />
        <path d="M 950 920 L 950 900" />
        <text font-size="30" transform="translate(950, 950)" text-anchor="middle" dominant-baseline="middle" stroke="none" fill="black">50</text>
    </g>
    <g id="frame_0_leftticks">
        <path d="M 120 659.834 L 130 659.834" />
        <path d="M 120 789.917 L 130 789.917" />
        <path d="M 120 161.183 L 140 161.183" />
        <text font-size="30" transform="translate(110, 171.183)" text-anchor="end" dominant-baseline="middle" stroke="none" fill="black">3.5×10⁶</text>
        <path d="M 120 920 L 140 920" />
        <text font-size="30" transform="translate(110, 930)" text-anchor="end" dominant-baseline="middle" stroke="none" fill="black">0</text>
        <path d="M 120 421.349 L 130 421.349" />
        <path d="M 120 681.515 L 130 681.515" />
        <path d="M 120 182.864 L 130 182.864" />
        <path d="M 120 443.03 L 130 443.03" />
        <path d="M 120 703.195 L 140 703.195" />
        <text font-size="30" transform="translate(110, 713.195)" text-anchor="end" dominant-baseline="middle" stroke="none" fill="black">10⁶</text>
        <path d="M 120 204.544 L 130 204.544" />
        <path d="M 120 529.751 L 130 529.751" />
        <path d="M 120 464.71 L 130 464.71" />
        <path d="M 120 898.32 L 130 898.32" />
        <path d="M 120 226.225 L 130 226.225" />
        <path d="M 120 486.391 L 140 486.391" />
        <text font-size="30" transform="translate(110, 496.391)" text-anchor="end" dominant-baseline="middle" stroke="none" fill="black">2×10⁶</text>
        <path d="M 120 746.556 L 130 746.556" />
        <path d="M 120 247.905 L 130 247.905" />
        <path d="M 120 508.071 L 130 508.071" />
        <path d="M 120 768.237 L 130 768.237" />
        <path d="M 120 269.586 L 140 269.586" />
        <text font-size="30" transform="translate(110, 279.586)" text-anchor="end" dominant-baseline="middle" stroke="none" fill="black">3×10⁶</text>
        <path d="M 120 876.639 L 130 876.639" />
        <path d="M 120 724.876 L 130 724.876" />
        <path d="M 120 291.266 L 130 291.266" />
        <path d="M 120 551.432 L 130 551.432" />
        <path d="M 120 52.7811 L 140 52.7811" />
        <text font-size="30" transform="translate(110, 62.7811)" text-anchor="end" dominant-baseline="middle" stroke="none" fill="black">4×10⁶</text>
        <path d="M 120 811.598 L 140 811.598" />
        <text font-size="30" transform="translate(110, 821.598)" text-anchor="end" dominant-baseline="middle" stroke="none" fill="black">500000</text>
        <path d="M 120 312.947 L 130 312.947" />
        <path d="M 120 573.112 L 130 573.112" />
        <path d="M 120 74.4615 L 130 74.4615" />
        <path d="M 120 833.278 L 130 833.278" />
        <path d="M 120 334.627 L 130 334.627" />
        <path d="M 120 854.959 L 130 854.959" />
        <path d="M 120 594.793 L 140 594.793" />
        <text font-size="30" transform="translate(110, 604.793)" text-anchor="end" dominant-baseline="middle" stroke="none" fill="black">1.5×10⁶</text>
        <path d="M 120 96.142 L 130 96.142" />
        <path d="M 120 356.308 L 130 356.308" />
        <path d="M 120 616.473 L 130 616.473" />
        <path d="M 120 117.822 L 130 117.822" />
        <path d="M 120 377.988 L 140 377.988" />
        <text font-size="30" transform="translate(110, 387.988)" text-anchor="end" dominant-baseline="middle" stroke="none" fill="black">2.5×10⁶</text>
        <path d="M 120 638.154 L 130 638.154" />
        <path d="M 120 139.503 L 130 139.503" />
        <path d="M 120 399.669 L 130 399.669" />
    </g>
    <text id="frame_0_toplabel" font-size="30" transform="translate(535, 32.6)" text-anchor="middle" dominant-baseline="middle" stroke="none" fill="black">s.number</text>
    <g id="frame_0_topticks">
        <path d="M 120 50 L 120 70" />
        <path d="M 136.6 50 L 136.6 60" />
        <path d="M 153.2 50 L 153.2 60" />
        <path d="M 169.8 50 L 169.8 60" />
        <path d="M 186.4 50 L 186.4 60" />
        <path d="M 203 50 L 203 60" />
        <path d="M 219.6 50 L 219.6 60" />
        <path d="M 236.2 50 L 236.2 60" />
        <path d="M 252.8 50 L 252.8 60" />
        <path d="M 269.4 50 L 269.4 60" />
        <path d="M 286 50 L 286 70" />
        <path d="M 302.6 50 L 302.6 60" />
        <path d="M 319.2 50 L 319.2 60" />
        <path d="M 335.8 50 L 335.8 60" />
        <path d="M 352.4 50 L 352.4 60" />
        <path d="M 369 50 L 369 60" />
        <path d="M 385.6 50 L 385.6 60" />
        <path d="M 402.2 50 L 402.2 60" />
        <path d="M 418.8 50 L 418.8 60" />
        <path d="M 435.4 50 L 435.4 60" />
        <path d="M 452 50 L 452 70" />
        <path d="M 468.6 50 L 468.6 60" />
        <path d="M 485.2 50 L 485.2 60" />
        <path d="M 501.8 50 L 501.8 60" />
        <path d="M 518.4 50 L 518.4 60" />
        <path d="M 535 50 L 535 60" />
        <path d="M 551.6 50 L 551.6 60" />
        <path d="M 568.2 50 L 568.2 60" />
        <path d="M 584.8 50 L 584.8 60" />
        <path d="M 601.4 50 L 601.4 60" />
        <path d="M 618 50 L 618 70" />
        <path d="M 634.6 50 L 634.6 60" />
        <path d="M 651.2 50 L 651.2 60" />
        <path d="M 667.8 50 L 667.8 60" />
        <path d="M 684.4 50 L 684.4 60" />
        <path d="M 701 50 L 701 60" />
        <path d="M 717.6 50 L 717.6 60" />
        <path d="M 734.2 50 L 734.2 60" />
        <path d="M 750.8 50 L 750.8 60" />
        <path d="M 767.4 50 L 767.4 60" />
        <path d="M 784 50 L 784 70" />
        <path d="M 800.6 50 L 800.6 60" />
        <path d="M 817.2 50 L 817.2 60" />
        <path d="M 833.8 50 L 833.8 60" />
        <path d="M 850.4 50 L 850.4 60" />
        <path d="M 867 50 L 867 60" />
        <path d="M 883.6 50 L 883.6 60" />
        <path d="M 900.2 50 L 900.2 60" />
        <path d="M 916.8 50 L 916.8 60" />
        <path d="M 933.4 50 L 933.4 60" />
        <path d="M 950 50 L 950 70" />
    </g>
    <g id="frame_0_rightticks">
        <path d="M 950 659.834 L 940 659.834" />
        <path d="M 950 789.917 L 940 789.917" />
        <path d="M 950 161.183 L 930 161.183" />
        <path d="M 950 920 L 930 920" />
        <path d="M 950 421.349 L 940 421.349" />
        <path d="M 950 681.515 L 940 681.515" />
        <path d="M 950 182.864 L 940 182.864" />
        <path d="M 950 443.03 L 940 443.03" />
        <path d="M 950 703.195 L 930 703.195" />
        <path d="M 950 204.544 L 940 204.544" />
        <path d="M 950 529.751 L 940 529.751" />
        <path d="M 950 464.71 L 940 464.71" />
        <path d="M 950 898.32 L 940 898.32" />
        <path d="M 950 226.225 L 940 226.225" />
        <path d="M 950 486.391 L 930 486.391" />
        <path d="M 950 746.556 L 940 746.556" />
        <path d="M 950 247.905 L 940 247.905" />
        <path d="M 950 508.071 L 940 508.071" />
        <path d="M 950 768.237 L 940 768.237" />
        <path d="M 950 269.586 L 930 269.586" />
        <path d="M 950 876.639 L 940 876.639" />
        <path d="M 950 724.876 L 940 724.876" />
        <path d="M 950 291.266 L 940 291.266" />
        <path d="M 950 551.432 L 940 551.432" />
        <path d="M 950 52.7811 L 930 52.7811" />
        <path d="M 950 811.598 L 930 811.598" />
        <path d="M 950 312.947 L 940 312.947" />
        <path d="M 950 573.112 L 940 573.112" />
        <path d="M 950 74.4615 L 940 74.4615" />
        <path d="M 950 833.278 L 940 833.278" />
        <path d="M 950 334.627 L 940 334.627" />
        <path d="M 950 854.959 L 940 854.959" />
        <path d="M 950 594.793 L 930 594.793" />
        <path d="M 950 96.142 L 940 96.142" />
        <path d="M 950 356.308 L 940 356.308" />
        <path d="M 950 616.473 L 940 616.473" />
        <path d="M 950 117.822 L 940 117.822" />
        <path d="M 950 377.988 L 930 377.988" />
        <path d="M 950 638.154 L 940 638.154" />
        <path d="M 950 139.503 L 940 139.503" />
        <path d="M 950 399.669 L 940 399.669" />
    </g>
</g>
</g>
</svg>
