<?xml version="1.0" standalone="no"?>
<!DOCTYPE svg PUBLIC "-//W3C//DTD SVG 1.1//EN" "http://www.w3.org/Graphics/SVG/1.1/DTD/svg11.dtd">
<svg style="stroke-linejoin:miter; stroke:black; stroke-width:2.5; text-anchor:middle; fill:none" xmlns="http://www.w3.org/2000/svg" font-family="Helvetica, Arial, FreeSans, Sans, sans, sans-serif" width="1000px" height="1000px" version="1.1" xmlns:xlink="http://www.w3.org/1999/xlink" viewBox="0 0 1000 1000">
<defs>
    <clipPath id="Histogram_0_clip">
        <rect x="120" y="50" width="830" height="870" />
    </clipPath>
</defs>
<g id="whole_document">
<rect id="background" x="0" y="0" width="1000" height="1000" stroke="none" fill="white" />
<g id="Histogram_0" clip-path="url(#Histogram_0_clip)">
    <path d="M 120 920 L 120 129.091 L 161.5 129.091 L 161.5 851.55 L 203 851.55 L 203 899.91 L 244.5 899.91 L 244.5 920 L 286 920 L 286 920 L 327.5 920 L 327.5 920 L 369 920 L 369 920 L 410.5 920 L 410.5 920 L 452 920 L 452 920 L 493.5 920 L 493.5 920 L 535 920 L 535 920 L 576.5 920 L 576.5 920 L 618 920 L 618 920 L 659.5 920 L 659.5 920 L 701 920 L 701 920 L 742.5 920 L 742.5 920 L 784 920 L 784 920 L 825.5 920 L 825.5 920 L 867 920 L 867 920 L 908.5 920 L 908.5 920 L 950 920 L 950 920" stroke-width="3" stroke-dasharray="" stroke="black" stroke-opacity="1" fill="DodgerBlue" fill-opacity="1" />
</g>
<g id="frame_0">
    <rect id="frame_0_border" x="120" y="50" width="830" height="870" />
    <text id="frame_0_bottomlabel" font-size="30" transform="translate(535, 989.6)" text-anchor="middle" dominant-baseline="middle" stroke="none" fill="black">microseconds</text>
    <g id="frame_0_bottomticks">
        <path d="M 120 920 L 120 900" />
        <text font-size="30" transform="translate(120, 950)" text-anchor="middle" dominant-baseline="middle" stroke="none" fill="black">0</text>
        <path d="M 136.6 920 L 136.6 910" />
        <path d="M 153.2 920 L 153.2 910" />
        <path d="M 169.8 920 L 169.8 910" />
        <path d="M 186.4 920 L 186.4 910" />
        <path d="M 203 920 L 203 910" />
        <path d="M 219.6 920 L 219.6 910" />
        <path d="M 236.2 920 L 236.2 910" />
        <path d="M 252.8 920 L 252.8 910" />
        <path d="M 269.4 920 L 269.4 910" />
        <path d="M 286 920 L 286 900" />
        <text font-size="30" transform="translate(286, 950)" text-anchor="middle" dominant-baseline="middle" stroke="none" fill="black">10</text>
        <path d="M 302.6 920 L 302.6 910" />
        <path d="M 319.2 920 L 319.2 910" />
        <path d="M 335.8 920 L 335.8 910" />
        <path d="M 352.4 920 L 352.4 910" />
        <path d="M 369 920 L 369 910" />
        <path d="M 385.6 920 L 385.6 910" />
        <path d="M 402.2 920 L 402.2 910" />
        <path d="M 418.8 920 L 418.8 910" />
        <path d="M 435.4 920 L 435.4 910" />
        <path d="M 452 920 L 452 900" />
        <text font-size="30" transform="translate(452, 950)" text-anchor="middle" dominant-baseline="middle" stroke="none" fill="black">20</text>
        <path d="M 468.6 920 L 468.6 910" />
        <path d="M 485.2 920 L 485.2 910" />
        <path d="M 501.8 920 L 501.8 910" />
        <path d="M 518.4 920 L 518.4 910" />
        <path d="M 535 920 L 535 910" />
        <path d="M 551.6 920 L 551.6 910" />
        <path d="M 568.2 920 L 568.2 910" />
        <path d="M 584.8 920 L 584.8 910" />
        <path d="M 601.4 920 L 601.4 910" />
        <path d="M 618 920 L 618 900" />
        <text font-size="30" transform="translate(618, 950)" text-anchor="middle" dominant-baseline="middle" stroke="none" fill="black">30</text>
        <path d="M 634.6 920 L 634.6 910" />
        <path d="M 651.2 920 L 651.2 910" />
        <path d="M 667.8 920 L 667.8 910" />
        <path d="M 684.4 920 L 684.4 910" />
        <path d="M 701 920 L 701 910" />
        <path d="M 717.6 920 L 717.6 910" />
        <path d="M 734.2 920 L 734.2 910" />
        <path d="M 750.8 920 L 750.8 910" />
        <path d="M 767.4 920 L 767.4 910" />
        <path d="M 784 920 L 784 900" />
        <text font-size="30" transform="translate(784, 950)" text-anchor="middle" dominant-baseline="middle" stroke="none" fill="black">40</text>
        <path d="M 800.6 920 L 800.6 910" />
        <path d="M 817.2 920 L 817.2 910" />
        <path d="M 833.8 920 L 833.8 910" />
        <path d="M 850.4 920 L 850.4 910" />
        <path d="M 867 920 L 867 910" />
        <path d="M 883.6 920 L 883.6 910" />
        <path d="M 900.2 920 L 900.2 910" />
        <path d="M 916.8 920 L 916.8 910" />
        <path d="M 933.4 920 L 933.4 910" />
        <path d="M 950 920 L 950 900" />
        <text font-size="30" transform="translate(950, 950)" text-anchor="middle" dominant-baseline="middle" stroke="none" fill="black">50</text>
    </g>
    <g id="frame_0_leftticks">
        <path d="M 120 752.41 L 130 752.41" />
        <path d="M 120 668.615 L 130 668.615" />
        <path d="M 120 228.692 L 130 228.692" />
        <path d="M 120 637.192 L 130 637.192" />
        <path d="M 120 260.115 L 130 260.115" />
        <path d="M 120 700.038 L 130 700.038" />
        <path d="M 120 113.474 L 130 113.474" />
        <path d="M 120 563.871 L 130 563.871" />
        <path d="M 120 123.948 L 130 123.948" />
        <path d="M 120 322.961 L 130 322.961" />
        <path d="M 120 647.666 L 130 647.666" />
        <path d="M 120 846.679 L 130 846.679" />
        <path d="M 120 427.705 L 130 427.705" />
        <path d="M 120 207.743 L 130 207.743" />
        <path d="M 120 762.884 L 130 762.884" />
        <path d="M 120 71.5762 L 130 71.5762" />
        <path d="M 120 291.538 L 140 291.538" />
        <text font-size="30" transform="translate(110, 301.538)" text-anchor="end" dominant-baseline="middle" stroke="none" fill="black">60000</text>
        <path d="M 120 312.487 L 130 312.487" />
        <path d="M 120 920 L 140 920" />
        <text font-size="30" transform="translate(110, 930)" text-anchor="end" dominant-baseline="middle" stroke="none" fill="black">0</text>
        <path d="M 120 616.243 L 130 616.243" />
        <path d="M 120 595.295 L 130 595.295" />
        <path d="M 120 511.5 L 130 511.5" />
        <path d="M 120 878.103 L 130 878.103" />
        <path d="M 120 689.564 L 130 689.564" />
        <path d="M 120 102.999 L 130 102.999" />
        <path d="M 120 459.128 L 130 459.128" />
        <path d="M 120 815.256 L 140 815.256" />
        <text font-size="30" transform="translate(110, 825.256)" text-anchor="end" dominant-baseline="middle" stroke="none" fill="black">10000</text>
        <path d="M 120 302.012 L 130 302.012" />
        <path d="M 120 825.731 L 130 825.731" />
        <path d="M 120 605.769 L 140 605.769" />
        <text font-size="30" transform="translate(110, 615.769)" text-anchor="end" dominant-baseline="middle" stroke="none" fill="black">30000</text>
        <path d="M 120 501.025 L 140 501.025" />
        <text font-size="30" transform="translate(110, 511.025)" text-anchor="end" dominant-baseline="middle" stroke="none" fill="black">40000</text>
        <path d="M 120 542.923 L 130 542.923" />
        <path d="M 120 197.269 L 130 197.269" />
        <path d="M 120 773.359 L 130 773.359" />
        <path d="M 120 867.628 L 130 867.628" />
        <path d="M 120 490.551 L 130 490.551" />
        <path d="M 120 720.987 L 130 720.987" />
        <path d="M 120 218.217 L 130 218.217" />
        <path d="M 120 186.794 L 140 186.794" />
        <text font-size="30" transform="translate(110, 196.794)" text-anchor="end" dominant-baseline="middle" stroke="none" fill="black">70000</text>
        <path d="M 120 406.756 L 130 406.756" />
        <path d="M 120 574.346 L 130 574.346" />
        <path d="M 120 836.205 L 130 836.205" />
        <path d="M 120 626.718 L 130 626.718" />
        <path d="M 120 658.141 L 130 658.141" />
        <path d="M 120 281.064 L 130 281.064" />
        <path d="M 120 176.32 L 130 176.32" />
        <path d="M 120 783.833 L 130 783.833" />
        <path d="M 120 521.974 L 130 521.974" />
        <path d="M 120 82.0505 L 140 82.0505" />
        <text font-size="30" transform="translate(110, 92.0505)" text-anchor="end" dominant-baseline="middle" stroke="none" fill="black">80000</text>
        <path d="M 120 375.333 L 130 375.333" />
        <path d="M 120 385.807 L 130 385.807" />
        <path d="M 120 899.051 L 130 899.051" />
        <path d="M 120 888.577 L 130 888.577" />
        <path d="M 120 710.513 L 140 710.513" />
        <text font-size="30" transform="translate(110, 720.513)" text-anchor="end" dominant-baseline="middle" stroke="none" fill="black">20000</text>
        <path d="M 120 469.602 L 130 469.602" />
        <path d="M 120 249.64 L 130 249.64" />
        <path d="M 120 165.845 L 130 165.845" />
        <path d="M 120 679.09 L 130 679.09" />
        <path d="M 120 61.1018 L 130 61.1018" />
        <path d="M 120 364.858 L 130 364.858" />
        <path d="M 120 553.397 L 130 553.397" />
        <path d="M 120 333.435 L 130 333.435" />
        <path d="M 120 794.308 L 130 794.308" />
        <path d="M 120 731.461 L 130 731.461" />
        <path d="M 120 417.23 L 130 417.23" />
        <path d="M 120 155.371 L 130 155.371" />
        <path d="M 120 50.6274 L 130 50.6274" />
        <path d="M 120 354.384 L 130 354.384" />
        <path d="M 120 909.526 L 130 909.526" />
        <path d="M 120 270.589 L 130 270.589" />
        <path d="M 120 480.077 L 130 480.077" />
        <path d="M 120 584.82 L 130 584.82" />
        <path d="M 120 144.897 L 130 144.897" />
        <path d="M 120 857.154 L 130 857.154" />
        <path d="M 120 741.936 L 130 741.936" />
        <path d="M 120 343.91 L 130 343.91" />
        <path d="M 120 92.5249 L 130 92.5249" />
        <path d="M 120 448.653 L 130 448.653" />
        <path d="M 120 396.282 L 140 396.282" />
        <text font-size="30" transform="translate(110, 406.282)" text-anchor="end" dominant-baseline="middle" stroke="none" fill="black">50000</text>
        <path d="M 120 804.782 L 130 804.782" />
        <path d="M 120 239.166 L 130 239.166" />
        <path d="M 120 532.448 L 130 532.448" />
        <path d="M 120 134.422 L 130 134.422" />
        <path d="M 120 438.179 L 130 438.179" />
    </g>
    <text id="frame_0_toplabel" font-size="30" transform="translate(535, 32.6)" text-anchor="middle" dominant-baseline="middle" stroke="none" fill="black">a.flatten</text>
    <g id="frame_0_topticks">
        <path d="M 120 50 L 120 70" />
        <path d="M 136.6 50 L 136.6 60" />
        <path d="M 153.2 50 L 153.2 60" />
        <path d="M 169.8 50 L 169.8 60" />
        <path d="M 186.4 50 L 186.4 60" />
        <path d="M 203 50 L 203 60" />
        <path d="M 219.6 50 L 219.6 60" />
        <path d="M 236.2 50 L 236.2 60" />
        <path d="M 252.8 50 L 252.8 60" />
        <path d="M 269.4 50 L 269.4 60" />
        <path d="M 286 50 L 286 70" />
        <path d="M 302.6 50 L 302.6 60" />
        <path d="M 319.2 50 L 319.2 60" />
        <path d="M 335.8 50 L 335.8 60" />
        <path d="M 352.4 50 L 352.4 60" />
        <path d="M 369 50 L 369 60" />
        <path d="M 385.6 50 L 385.6 60" />
        <path d="M 402.2 50 L 402.2 60" />
        <path d="M 418.8 50 L 418.8 60" />
        <path d="M 435.4 50 L 435.4 60" />
        <path d="M 452 50 L 452 70" />
        <path d="M 468.6 50 L 468.6 60" />
        <path d="M 485.2 50 L 485.2 60" />
        <path d="M 501.8 50 L 501.8 60" />
        <path d="M 518.4 50 L 518.4 60" />
        <path d="M 535 50 L 535 60" />
        <path d="M 551.6 50 L 551.6 60" />
        <path d="M 568.2 50 L 568.2 60" />
        <path d="M 584.8 50 L 584.8 60" />
        <path d="M 601.4 50 L 601.4 60" />
        <path d="M 618 50 L 618 70" />
        <path d="M 634.6 50 L 634.6 60" />
        <path d="M 651.2 50 L 651.2 60" />
        <path d="M 667.8 50 L 667.8 60" />
        <path d="M 684.4 50 L 684.4 60" />
        <path d="M 701 50 L 701 60" />
        <path d="M 717.6 50 L 717.6 60" />
        <path d="M 734.2 50 L 734.2 60" />
        <path d="M 750.8 50 L 750.8 60" />
        <path d="M 767.4 50 L 767.4 60" />
        <path d="M 784 50 L 784 70" />
        <path d="M 800.6 50 L 800.6 60" />
        <path d="M 817.2 50 L 817.2 60" />
        <path d="M 833.8 50 L 833.8 60" />
        <path d="M 850.4 50 L 850.4 60" />
        <path d="M 867 50 L 867 60" />
        <path d="M 883.6 50 L 883.6 60" />
        <path d="M 900.2 50 L 900.2 60" />
        <path d="M 916.8 50 L 916.8 60" />
        <path d="M 933.4 50 L 933.4 60" />
        <path d="M 950 50 L 950 70" />
    </g>
    <g id="frame_0_rightticks">
        <path d="M 950 752.41 L 940 752.41" />
        <path d="M 950 668.615 L 940 668.615" />
        <path d="M 950 228.692 L 940 228.692" />
        <path d="M 950 637.192 L 940 637.192" />
        <path d="M 950 260.115 L 940 260.115" />
        <path d="M 950 700.038 L 940 700.038" />
        <path d="M 950 113.474 L 940 113.474" />
        <path d="M 950 563.871 L 940 563.871" />
        <path d="M 950 123.948 L 940 123.948" />
        <path d="M 950 322.961 L 940 322.961" />
        <path d="M 950 647.666 L 940 647.666" />
        <path d="M 950 846.679 L 940 846.679" />
        <path d="M 950 427.705 L 940 427.705" />
        <path d="M 950 207.743 L 940 207.743" />
        <path d="M 950 762.884 L 940 762.884" />
        <path d="M 950 71.5762 L 940 71.5762" />
        <path d="M 950 291.538 L 930 291.538" />
        <path d="M 950 312.487 L 940 312.487" />
        <path d="M 950 920 L 930 920" />
        <path d="M 950 616.243 L 940 616.243" />
        <path d="M 950 595.295 L 940 595.295" />
        <path d="M 950 511.5 L 940 511.5" />
        <path d="M 950 878.103 L 940 878.103" />
        <path d="M 950 689.564 L 940 689.564" />
        <path d="M 950 102.999 L 940 102.999" />
        <path d="M 950 459.128 L 940 459.128" />
        <path d="M 950 815.256 L 930 815.256" />
        <path d="M 950 302.012 L 940 302.012" />
        <path d="M 950 825.731 L 940 825.731" />
        <path d="M 950 605.769 L 930 605.769" />
        <path d="M 950 501.025 L 930 501.025" />
        <path d="M 950 542.923 L 940 542.923" />
        <path d="M 950 197.269 L 940 197.269" />
        <path d="M 950 773.359 L 940 773.359" />
        <path d="M 950 867.628 L 940 867.628" />
        <path d="M 950 490.551 L 940 490.551" />
        <path d="M 950 720.987 L 940 720.987" />
        <path d="M 950 218.217 L 940 218.217" />
        <path d="M 950 186.794 L 930 186.794" />
        <path d="M 950 406.756 L 940 406.756" />
        <path d="M 950 574.346 L 940 574.346" />
        <path d="M 950 836.205 L 940 836.205" />
        <path d="M 950 626.718 L 940 626.718" />
        <path d="M 950 658.141 L 940 658.141" />
        <path d="M 950 281.064 L 940 281.064" />
        <path d="M 950 176.32 L 940 176.32" />
        <path d="M 950 783.833 L 940 783.833" />
        <path d="M 950 521.974 L 940 521.974" />
        <path d="M 950 82.0505 L 930 82.0505" />
        <path d="M 950 375.333 L 940 375.333" />
        <path d="M 950 385.807 L 940 385.807" />
        <path d="M 950 899.051 L 940 899.051" />
        <path d="M 950 888.577 L 940 888.577" />
        <path d="M 950 710.513 L 930 710.513" />
        <path d="M 950 469.602 L 940 469.602" />
        <path d="M 950 249.64 L 940 249.64" />
        <path d="M 950 165.845 L 940 165.845" />
        <path d="M 950 679.09 L 940 679.09" />
        <path d="M 950 61.1018 L 940 61.1018" />
        <path d="M 950 364.858 L 940 364.858" />
        <path d="M 950 553.397 L 940 553.397" />
        <path d="M 950 333.435 L 940 333.435" />
        <path d="M 950 794.308 L 940 794.308" />
        <path d="M 950 731.461 L 940 731.461" />
        <path d="M 950 417.23 L 940 417.23" />
        <path d="M 950 155.371 L 940 155.371" />
        <path d="M 950 50.6274 L 940 50.6274" />
        <path d="M 950 354.384 L 940 354.384" />
        <path d="M 950 909.526 L 940 909.526" />
        <path d="M 950 270.589 L 940 270.589" />
        <path d="M 950 480.077 L 940 480.077" />
        <path d="M 950 584.82 L 940 584.82" />
        <path d="M 950 144.897 L 940 144.897" />
        <path d="M 950 857.154 L 940 857.154" />
        <path d="M 950 741.936 L 940 741.936" />
        <path d="M 950 343.91 L 940 343.91" />
        <path d="M 950 92.5249 L 940 92.5249" />
        <path d="M 950 448.653 L 940 448.653" />
        <path d="M 950 396.282 L 930 396.282" />
        <path d="M 950 804.782 L 940 804.782" />
        <path d="M 950 239.166 L 940 239.166" />
        <path d="M 950 532.448 L 940 532.448" />
        <path d="M 950 134.422 L 940 134.422" />
        <path d="M 950 438.179 L 940 438.179" />
    </g>
</g>
</g>
</svg>
