<?xml version="1.0" standalone="no"?>
<!DOCTYPE svg PUBLIC "-//W3C//DTD SVG 1.1//EN" "http://www.w3.org/Graphics/SVG/1.1/DTD/svg11.dtd">
<svg style="stroke-linejoin:miter; stroke:black; stroke-width:2.5; text-anchor:middle; fill:none" xmlns="http://www.w3.org/2000/svg" font-family="Helvetica, Arial, FreeSans, Sans, sans, sans-serif" width="1000px" height="1000px" version="1.1" xmlns:xlink="http://www.w3.org/1999/xlink" viewBox="0 0 1000 1000">
<defs>
    <clipPath id="Histogram_0_clip">
        <rect x="120" y="50" width="830" height="870" />
    </clipPath>
    <clipPath id="Histogram_1_clip">
        <rect x="120" y="50" width="830" height="870" />
    </clipPath>
</defs>
<g id="whole_document">
<rect id="background" x="0" y="0" width="1000" height="1000" stroke="none" fill="white" />
<g id="Histogram_0" clip-path="url(#Histogram_0_clip)">
    <path d="M 120 920 L 120 129.091 L 161.5 129.091 L 161.5 919.607 L 203 919.607 L 203 919.695 L 244.5 919.695 L 244.5 920 L 286 920 L 286 920 L 327.5 920 L 327.5 920 L 369 920 L 369 920 L 410.5 920 L 410.5 920 L 452 920 L 452 920 L 493.5 920 L 493.5 920 L 535 920 L 535 920 L 576.5 920 L 576.5 920 L 618 920 L 618 920 L 659.5 920 L 659.5 920 L 701 920 L 701 920 L 742.5 920 L 742.5 920 L 784 920 L 784 920 L 825.5 920 L 825.5 920 L 867 920 L 867 920 L 908.5 920 L 908.5 920 L 950 920 L 950 920" stroke-width="3" stroke-dasharray="" stroke="black" stroke-opacity="1" fill="DodgerBlue" fill-opacity="1" />
</g>
<g id="Histogram_1" clip-path="url(#Histogram_1_clip)">
    <path d="M 120 920 L 120 920 L 161.5 920 L 161.5 920 L 203 920 L 203 919.695 L 244.5 919.695 L 244.5 920 L 286 920 L 286 920 L 327.5 920 L 327.5 920 L 369 920 L 369 920 L 410.5 920 L 410.5 920 L 452 920 L 452 920 L 493.5 920 L 493.5 920 L 535 920 L 535 920 L 576.5 920 L 576.5 920 L 618 920 L 618 920 L 659.5 920 L 659.5 920 L 701 920 L 701 920 L 742.5 920 L 742.5 920 L 784 920 L 784 920 L 825.5 920 L 825.5 920 L 867 920 L 867 920 L 908.5 920 L 908.5 920 L 950 920 L 950 920" stroke-width="3" stroke-dasharray="" stroke="black" stroke-opacity="1" fill="darkorange" fill-opacity="1" />
</g>
<g id="frame_0">
    <rect id="frame_0_border" x="120" y="50" width="830" height="870" />
    <text id="frame_0_bottomlabel" font-size="30" transform="translate(535, 989.6)" text-anchor="middle" dominant-baseline="middle" stroke="none" fill="black">microseconds</text>
    <g id="frame_0_bottomticks">
        <path d="M 120 920 L 120 900" />
        <text font-size="30" transform="translate(120, 950)" text-anchor="middle" dominant-baseline="middle" stroke="none" fill="black">0</text>
        <path d="M 136.6 920 L 136.6 910" />
        <path d="M 153.2 920 L 153.2 910" />
        <path d="M 169.8 920 L 169.8 910" />
        <path d="M 186.4 920 L 186.4 910" />
        <path d="M 203 920 L 203 910" />
        <path d="M 219.6 920 L 219.6 910" />
        <path d="M 236.2 920 L 236.2 910" />
        <path d="M 252.8 920 L 252.8 910" />
        <path d="M 269.4 920 L 269.4 910" />
        <path d="M 286 920 L 286 900" />
        <text font-size="30" transform="translate(286, 950)" text-anchor="middle" dominant-baseline="middle" stroke="none" fill="black">10</text>
        <path d="M 302.6 920 L 302.6 910" />
        <path d="M 319.2 920 L 319.2 910" />
        <path d="M 335.8 920 L 335.8 910" />
        <path d="M 352.4 920 L 352.4 910" />
        <path d="M 369 920 L 369 910" />
        <path d="M 385.6 920 L 385.6 910" />
        <path d="M 402.2 920 L 402.2 910" />
        <path d="M 418.8 920 L 418.8 910" />
        <path d="M 435.4 920 L 435.4 910" />
        <path d="M 452 920 L 452 900" />
        <text font-size="30" transform="translate(452, 950)" text-anchor="middle" dominant-baseline="middle" stroke="none" fill="black">20</text>
        <path d="M 468.6 920 L 468.6 910" />
        <path d="M 485.2 920 L 485.2 910" />
        <path d="M 501.8 920 L 501.8 910" />
        <path d="M 518.4 920 L 518.4 910" />
        <path d="M 535 920 L 535 910" />
        <path d="M 551.6 920 L 551.6 910" />
        <path d="M 568.2 920 L 568.2 910" />
        <path d="M 584.8 920 L 584.8 910" />
        <path d="M 601.4 920 L 601.4 910" />
        <path d="M 618 920 L 618 900" />
        <text font-size="30" transform="translate(618, 950)" text-anchor="middle" dominant-baseline="middle" stroke="none" fill="black">30</text>
        <path d="M 634.6 920 L 634.6 910" />
        <path d="M 651.2 920 L 651.2 910" />
        <path d="M 667.8 920 L 667.8 910" />
        <path d="M 684.4 920 L 684.4 910" />
        <path d="M 701 920 L 701 910" />
        <path d="M 717.6 920 L 717.6 910" />
        <path d="M 734.2 920 L 734.2 910" />
        <path d="M 750.8 920 L 750.8 910" />
        <path d="M 767.4 920 L 767.4 910" />
        <path d="M 784 920 L 784 900" />
        <text font-size="30" transform="translate(784, 950)" text-anchor="middle" dominant-baseline="middle" stroke="none" fill="black">40</text>
        <path d="M 800.6 920 L 800.6 910" />
        <path d="M 817.2 920 L 817.2 910" />
        <path d="M 833.8 920 L 833.8 910" />
        <path d="M 850.4 920 L 850.4 910" />
        <path d="M 867 920 L 867 910" />
        <path d="M 883.6 920 L 883.6 910" />
        <path d="M 900.2 920 L 900.2 910" />
        <path d="M 916.8 920 L 916.8 910" />
        <path d="M 933.4 920 L 933.4 910" />
        <path d="M 950 920 L 950 900" />
        <text font-size="30" transform="translate(950, 950)" text-anchor="middle" dominant-baseline="middle" stroke="none" fill="black">50</text>
    </g>
    <g id="frame_0_leftticks">
        <path d="M 120 761.112 L 130 761.112" />
        <path d="M 120 602.225 L 130 602.225" />
        <path d="M 120 920 L 140 920" />
        <text font-size="30" transform="translate(110, 930)" text-anchor="end" dominant-baseline="middle" stroke="none" fill="black">0</text>
        <path d="M 120 910.07 L 130 910.07" />
        <path d="M 120 185.144 L 130 185.144" />
        <path d="M 120 105.701 L 130 105.701" />
        <path d="M 120 810.765 L 130 810.765" />
        <path d="M 120 492.989 L 130 492.989" />
        <path d="M 120 284.449 L 130 284.449" />
        <path d="M 120 75.9092 L 130 75.9092" />
        <path d="M 120 592.294 L 130 592.294" />
        <path d="M 120 890.209 L 130 890.209" />
        <path d="M 120 175.214 L 130 175.214" />
        <path d="M 120 900.139 L 130 900.139" />
        <path d="M 120 691.599 L 130 691.599" />
        <path d="M 120 552.572 L 130 552.572" />
        <path d="M 120 483.059 L 130 483.059" />
        <path d="M 120 274.519 L 130 274.519" />
        <path d="M 120 85.8397 L 130 85.8397" />
        <path d="M 120 383.754 L 130 383.754" />
        <path d="M 120 532.711 L 130 532.711" />
        <path d="M 120 790.904 L 130 790.904" />
        <path d="M 120 582.364 L 130 582.364" />
        <path d="M 120 373.824 L 130 373.824" />
        <path d="M 120 165.284 L 130 165.284" />
        <path d="M 120 711.46 L 130 711.46" />
        <path d="M 120 681.668 L 130 681.668" />
        <path d="M 120 473.128 L 130 473.128" />
        <path d="M 120 264.588 L 130 264.588" />
        <path d="M 120 780.973 L 130 780.973" />
        <path d="M 120 572.433 L 130 572.433" />
        <path d="M 120 542.642 L 130 542.642" />
        <path d="M 120 830.626 L 130 830.626" />
        <path d="M 120 363.893 L 130 363.893" />
        <path d="M 120 155.353 L 130 155.353" />
        <path d="M 120 880.278 L 130 880.278" />
        <path d="M 120 671.738 L 130 671.738" />
        <path d="M 120 463.198 L 130 463.198" />
        <path d="M 120 254.658 L 130 254.658" />
        <path d="M 120 56.0483 L 130 56.0483" />
        <path d="M 120 721.39 L 140 721.39" />
        <text font-size="30" transform="translate(110, 731.39)" text-anchor="end" dominant-baseline="middle" stroke="none" fill="black">200000</text>
        <path d="M 120 771.043 L 130 771.043" />
        <path d="M 120 562.503 L 130 562.503" />
        <path d="M 120 353.963 L 130 353.963" />
        <path d="M 120 701.529 L 130 701.529" />
        <path d="M 120 840.556 L 130 840.556" />
        <path d="M 120 641.947 L 130 641.947" />
        <path d="M 120 244.727 L 130 244.727" />
        <path d="M 120 65.9787 L 130 65.9787" />
        <path d="M 120 195.075 L 130 195.075" />
        <path d="M 120 344.032 L 130 344.032" />
        <path d="M 120 135.492 L 130 135.492" />
        <path d="M 120 860.417 L 130 860.417" />
        <path d="M 120 443.337 L 130 443.337" />
        <path d="M 120 661.808 L 130 661.808" />
        <path d="M 120 294.38 L 130 294.38" />
        <path d="M 120 751.182 L 130 751.182" />
        <path d="M 120 334.102 L 130 334.102" />
        <path d="M 120 125.562 L 140 125.562" />
        <text font-size="30" transform="translate(110, 135.562)" text-anchor="end" dominant-baseline="middle" stroke="none" fill="black">800000</text>
        <path d="M 120 651.877 L 130 651.877" />
        <path d="M 120 870.348 L 130 870.348" />
        <path d="M 120 433.406 L 130 433.406" />
        <path d="M 120 224.866 L 140 224.866" />
        <text font-size="30" transform="translate(110, 234.866)" text-anchor="end" dominant-baseline="middle" stroke="none" fill="black">700000</text>
        <path d="M 120 850.487 L 130 850.487" />
        <path d="M 120 741.251 L 130 741.251" />
        <path d="M 120 800.834 L 130 800.834" />
        <path d="M 120 502.92 L 130 502.92" />
        <path d="M 120 234.797 L 130 234.797" />
        <path d="M 120 324.171 L 140 324.171" />
        <text font-size="30" transform="translate(110, 334.171)" text-anchor="end" dominant-baseline="middle" stroke="none" fill="black">600000</text>
        <path d="M 120 115.631 L 130 115.631" />
        <path d="M 120 423.476 L 140 423.476" />
        <text font-size="30" transform="translate(110, 433.476)" text-anchor="end" dominant-baseline="middle" stroke="none" fill="black">500000</text>
        <path d="M 120 632.016 L 130 632.016" />
        <path d="M 120 214.936 L 130 214.936" />
        <path d="M 120 731.321 L 130 731.321" />
        <path d="M 120 522.781 L 140 522.781" />
        <text font-size="30" transform="translate(110, 532.781)" text-anchor="end" dominant-baseline="middle" stroke="none" fill="black">400000</text>
        <path d="M 120 314.241 L 130 314.241" />
        <path d="M 120 145.423 L 130 145.423" />
        <path d="M 120 393.685 L 130 393.685" />
        <path d="M 120 622.086 L 140 622.086" />
        <text font-size="30" transform="translate(110, 632.086)" text-anchor="end" dominant-baseline="middle" stroke="none" fill="black">300000</text>
        <path d="M 120 413.546 L 130 413.546" />
        <path d="M 120 205.005 L 130 205.005" />
        <path d="M 120 453.267 L 130 453.267" />
        <path d="M 120 512.85 L 130 512.85" />
        <path d="M 120 304.31 L 130 304.31" />
        <path d="M 120 95.7702 L 130 95.7702" />
        <path d="M 120 820.695 L 140 820.695" />
        <text font-size="30" transform="translate(110, 830.695)" text-anchor="end" dominant-baseline="middle" stroke="none" fill="black">100000</text>
        <path d="M 120 403.615 L 130 403.615" />
        <path d="M 120 612.155 L 130 612.155" />
    </g>
    <text id="frame_0_toplabel" font-size="30" transform="translate(535, 32.6)" text-anchor="middle" dominant-baseline="middle" stroke="none" fill="black">*</text>
    <g id="frame_0_topticks">
        <path d="M 120 50 L 120 70" />
        <path d="M 136.6 50 L 136.6 60" />
        <path d="M 153.2 50 L 153.2 60" />
        <path d="M 169.8 50 L 169.8 60" />
        <path d="M 186.4 50 L 186.4 60" />
        <path d="M 203 50 L 203 60" />
        <path d="M 219.6 50 L 219.6 60" />
        <path d="M 236.2 50 L 236.2 60" />
        <path d="M 252.8 50 L 252.8 60" />
        <path d="M 269.4 50 L 269.4 60" />
        <path d="M 286 50 L 286 70" />
        <path d="M 302.6 50 L 302.6 60" />
        <path d="M 319.2 50 L 319.2 60" />
        <path d="M 335.8 50 L 335.8 60" />
        <path d="M 352.4 50 L 352.4 60" />
        <path d="M 369 50 L 369 60" />
        <path d="M 385.6 50 L 385.6 60" />
        <path d="M 402.2 50 L 402.2 60" />
        <path d="M 418.8 50 L 418.8 60" />
        <path d="M 435.4 50 L 435.4 60" />
        <path d="M 452 50 L 452 70" />
        <path d="M 468.6 50 L 468.6 60" />
        <path d="M 485.2 50 L 485.2 60" />
        <path d="M 501.8 50 L 501.8 60" />
        <path d="M 518.4 50 L 518.4 60" />
        <path d="M 535 50 L 535 60" />
        <path d="M 551.6 50 L 551.6 60" />
        <path d="M 568.2 50 L 568.2 60" />
        <path d="M 584.8 50 L 584.8 60" />
        <path d="M 601.4 50 L 601.4 60" />
        <path d="M 618 50 L 618 70" />
        <path d="M 634.6 50 L 634.6 60" />
        <path d="M 651.2 50 L 651.2 60" />
        <path d="M 667.8 50 L 667.8 60" />
        <path d="M 684.4 50 L 684.4 60" />
        <path d="M 701 50 L 701 60" />
        <path d="M 717.6 50 L 717.6 60" />
        <path d="M 734.2 50 L 734.2 60" />
        <path d="M 750.8 50 L 750.8 60" />
        <path d="M 767.4 50 L 767.4 60" />
        <path d="M 784 50 L 784 70" />
        <path d="M 800.6 50 L 800.6 60" />
        <path d="M 817.2 50 L 817.2 60" />
        <path d="M 833.8 50 L 833.8 60" />
        <path d="M 850.4 50 L 850.4 60" />
        <path d="M 867 50 L 867 60" />
        <path d="M 883.6 50 L 883.6 60" />
        <path d="M 900.2 50 L 900.2 60" />
        <path d="M 916.8 50 L 916.8 60" />
        <path d="M 933.4 50 L 933.4 60" />
        <path d="M 950 50 L 950 70" />
    </g>
    <g id="frame_0_rightticks">
        <path d="M 950 761.112 L 940 761.112" />
        <path d="M 950 602.225 L 940 602.225" />
        <path d="M 950 920 L 930 920" />
        <path d="M 950 910.07 L 940 910.07" />
        <path d="M 950 185.144 L 940 185.144" />
        <path d="M 950 105.701 L 940 105.701" />
        <path d="M 950 810.765 L 940 810.765" />
        <path d="M 950 492.989 L 940 492.989" />
        <path d="M 950 284.449 L 940 284.449" />
        <path d="M 950 75.9092 L 940 75.9092" />
        <path d="M 950 592.294 L 940 592.294" />
        <path d="M 950 890.209 L 940 890.209" />
        <path d="M 950 175.214 L 940 175.214" />
        <path d="M 950 900.139 L 940 900.139" />
        <path d="M 950 691.599 L 940 691.599" />
        <path d="M 950 552.572 L 940 552.572" />
        <path d="M 950 483.059 L 940 483.059" />
        <path d="M 950 274.519 L 940 274.519" />
        <path d="M 950 85.8397 L 940 85.8397" />
        <path d="M 950 383.754 L 940 383.754" />
        <path d="M 950 532.711 L 940 532.711" />
        <path d="M 950 790.904 L 940 790.904" />
        <path d="M 950 582.364 L 940 582.364" />
        <path d="M 950 373.824 L 940 373.824" />
        <path d="M 950 165.284 L 940 165.284" />
        <path d="M 950 711.46 L 940 711.46" />
        <path d="M 950 681.668 L 940 681.668" />
        <path d="M 950 473.128 L 940 473.128" />
        <path d="M 950 264.588 L 940 264.588" />
        <path d="M 950 780.973 L 940 780.973" />
        <path d="M 950 572.433 L 940 572.433" />
        <path d="M 950 542.642 L 940 542.642" />
        <path d="M 950 830.626 L 940 830.626" />
        <path d="M 950 363.893 L 940 363.893" />
        <path d="M 950 155.353 L 940 155.353" />
        <path d="M 950 880.278 L 940 880.278" />
        <path d="M 950 671.738 L 940 671.738" />
        <path d="M 950 463.198 L 940 463.198" />
        <path d="M 950 254.658 L 940 254.658" />
        <path d="M 950 56.0483 L 940 56.0483" />
        <path d="M 950 721.39 L 930 721.39" />
        <path d="M 950 771.043 L 940 771.043" />
        <path d="M 950 562.503 L 940 562.503" />
        <path d="M 950 353.963 L 940 353.963" />
        <path d="M 950 701.529 L 940 701.529" />
        <path d="M 950 840.556 L 940 840.556" />
        <path d="M 950 641.947 L 940 641.947" />
        <path d="M 950 244.727 L 940 244.727" />
        <path d="M 950 65.9787 L 940 65.9787" />
        <path d="M 950 195.075 L 940 195.075" />
        <path d="M 950 344.032 L 940 344.032" />
        <path d="M 950 135.492 L 940 135.492" />
        <path d="M 950 860.417 L 940 860.417" />
        <path d="M 950 443.337 L 940 443.337" />
        <path d="M 950 661.808 L 940 661.808" />
        <path d="M 950 294.38 L 940 294.38" />
        <path d="M 950 751.182 L 940 751.182" />
        <path d="M 950 334.102 L 940 334.102" />
        <path d="M 950 125.562 L 930 125.562" />
        <path d="M 950 651.877 L 940 651.877" />
        <path d="M 950 870.348 L 940 870.348" />
        <path d="M 950 433.406 L 940 433.406" />
        <path d="M 950 224.866 L 930 224.866" />
        <path d="M 950 850.487 L 940 850.487" />
        <path d="M 950 741.251 L 940 741.251" />
        <path d="M 950 800.834 L 940 800.834" />
        <path d="M 950 502.92 L 940 502.92" />
        <path d="M 950 234.797 L 940 234.797" />
        <path d="M 950 324.171 L 930 324.171" />
        <path d="M 950 115.631 L 940 115.631" />
        <path d="M 950 423.476 L 930 423.476" />
        <path d="M 950 632.016 L 940 632.016" />
        <path d="M 950 214.936 L 940 214.936" />
        <path d="M 950 731.321 L 940 731.321" />
        <path d="M 950 522.781 L 930 522.781" />
        <path d="M 950 314.241 L 940 314.241" />
        <path d="M 950 145.423 L 940 145.423" />
        <path d="M 950 393.685 L 940 393.685" />
        <path d="M 950 622.086 L 930 622.086" />
        <path d="M 950 413.546 L 940 413.546" />
        <path d="M 950 205.005 L 940 205.005" />
        <path d="M 950 453.267 L 940 453.267" />
        <path d="M 950 512.85 L 940 512.85" />
        <path d="M 950 304.31 L 940 304.31" />
        <path d="M 950 95.7702 L 940 95.7702" />
        <path d="M 950 820.695 L 930 820.695" />
        <path d="M 950 403.615 L 940 403.615" />
        <path d="M 950 612.155 L 940 612.155" />
    </g>
</g>
</g>
</svg>
