<?xml version="1.0" standalone="no"?>
<!DOCTYPE svg PUBLIC "-//W3C//DTD SVG 1.1//EN" "http://www.w3.org/Graphics/SVG/1.1/DTD/svg11.dtd">
<svg style="stroke-linejoin:miter; stroke:black; stroke-width:2.5; text-anchor:middle; fill:none" xmlns="http://www.w3.org/2000/svg" font-family="Helvetica, Arial, FreeSans, Sans, sans, sans-serif" width="1000px" height="1000px" version="1.1" xmlns:xlink="http://www.w3.org/1999/xlink" viewBox="0 0 1000 1000">
<defs>
    <clipPath id="Histogram_0_clip">
        <rect x="120" y="50" width="830" height="870" />
    </clipPath>
</defs>
<g id="whole_document">
<rect id="background" x="0" y="0" width="1000" height="1000" stroke="none" fill="white" />
<g id="Histogram_0" clip-path="url(#Histogram_0_clip)">
    <path d="M 120 920 L 120 129.091 L 161.5 129.091 L 161.5 853.996 L 203 853.996 L 203 920 L 244.5 920 L 244.5 920 L 286 920 L 286 920 L 327.5 920 L 327.5 920 L 369 920 L 369 920 L 410.5 920 L 410.5 920 L 452 920 L 452 920 L 493.5 920 L 493.5 920 L 535 920 L 535 920 L 576.5 920 L 576.5 920 L 618 920 L 618 920 L 659.5 920 L 659.5 920 L 701 920 L 701 920 L 742.5 920 L 742.5 920 L 784 920 L 784 920 L 825.5 920 L 825.5 920 L 867 920 L 867 920 L 908.5 920 L 908.5 920 L 950 920 L 950 920" stroke-width="3" stroke-dasharray="" stroke="black" stroke-opacity="1" fill="DodgerBlue" fill-opacity="1" />
</g>
<g id="frame_0">
    <rect id="frame_0_border" x="120" y="50" width="830" height="870" />
    <text id="frame_0_bottomlabel" font-size="30" transform="translate(535, 989.6)" text-anchor="middle" dominant-baseline="middle" stroke="none" fill="black">microseconds</text>
    <g id="frame_0_bottomticks">
        <path d="M 120 920 L 120 900" />
        <text font-size="30" transform="translate(120, 950)" text-anchor="middle" dominant-baseline="middle" stroke="none" fill="black">0</text>
        <path d="M 136.6 920 L 136.6 910" />
        <path d="M 153.2 920 L 153.2 910" />
        <path d="M 169.8 920 L 169.8 910" />
        <path d="M 186.4 920 L 186.4 910" />
        <path d="M 203 920 L 203 910" />
        <path d="M 219.6 920 L 219.6 910" />
        <path d="M 236.2 920 L 236.2 910" />
        <path d="M 252.8 920 L 252.8 910" />
        <path d="M 269.4 920 L 269.4 910" />
        <path d="M 286 920 L 286 900" />
        <text font-size="30" transform="translate(286, 950)" text-anchor="middle" dominant-baseline="middle" stroke="none" fill="black">10</text>
        <path d="M 302.6 920 L 302.6 910" />
        <path d="M 319.2 920 L 319.2 910" />
        <path d="M 335.8 920 L 335.8 910" />
        <path d="M 352.4 920 L 352.4 910" />
        <path d="M 369 920 L 369 910" />
        <path d="M 385.6 920 L 385.6 910" />
        <path d="M 402.2 920 L 402.2 910" />
        <path d="M 418.8 920 L 418.8 910" />
        <path d="M 435.4 920 L 435.4 910" />
        <path d="M 452 920 L 452 900" />
        <text font-size="30" transform="translate(452, 950)" text-anchor="middle" dominant-baseline="middle" stroke="none" fill="black">20</text>
        <path d="M 468.6 920 L 468.6 910" />
        <path d="M 485.2 920 L 485.2 910" />
        <path d="M 501.8 920 L 501.8 910" />
        <path d="M 518.4 920 L 518.4 910" />
        <path d="M 535 920 L 535 910" />
        <path d="M 551.6 920 L 551.6 910" />
        <path d="M 568.2 920 L 568.2 910" />
        <path d="M 584.8 920 L 584.8 910" />
        <path d="M 601.4 920 L 601.4 910" />
        <path d="M 618 920 L 618 900" />
        <text font-size="30" transform="translate(618, 950)" text-anchor="middle" dominant-baseline="middle" stroke="none" fill="black">30</text>
        <path d="M 634.6 920 L 634.6 910" />
        <path d="M 651.2 920 L 651.2 910" />
        <path d="M 667.8 920 L 667.8 910" />
        <path d="M 684.4 920 L 684.4 910" />
        <path d="M 701 920 L 701 910" />
        <path d="M 717.6 920 L 717.6 910" />
        <path d="M 734.2 920 L 734.2 910" />
        <path d="M 750.8 920 L 750.8 910" />
        <path d="M 767.4 920 L 767.4 910" />
        <path d="M 784 920 L 784 900" />
        <text font-size="30" transform="translate(784, 950)" text-anchor="middle" dominant-baseline="middle" stroke="none" fill="black">40</text>
        <path d="M 800.6 920 L 800.6 910" />
        <path d="M 817.2 920 L 817.2 910" />
        <path d="M 833.8 920 L 833.8 910" />
        <path d="M 850.4 920 L 850.4 910" />
        <path d="M 867 920 L 867 910" />
        <path d="M 883.6 920 L 883.6 910" />
        <path d="M 900.2 920 L 900.2 910" />
        <path d="M 916.8 920 L 916.8 910" />
        <path d="M 933.4 920 L 933.4 910" />
        <path d="M 950 920 L 950 900" />
        <text font-size="30" transform="translate(950, 950)" text-anchor="middle" dominant-baseline="middle" stroke="none" fill="black">50</text>
    </g>
    <g id="frame_0_leftticks">
        <path d="M 120 587.38 L 130 587.38" />
        <path d="M 120 421.069 L 130 421.069" />
        <path d="M 120 98.8432 L 130 98.8432" />
        <path d="M 120 826.45 L 130 826.45" />
        <path d="M 120 244.365 L 130 244.365" />
        <path d="M 120 920 L 140 920" />
        <text font-size="30" transform="translate(110, 930)" text-anchor="end" dominant-baseline="middle" stroke="none" fill="black">0</text>
        <path d="M 120 88.4488 L 140 88.4488" />
        <text font-size="30" transform="translate(110, 98.4488)" text-anchor="end" dominant-baseline="middle" stroke="none" fill="black">8000</text>
        <path d="M 120 732.901 L 130 732.901" />
        <path d="M 120 556.196 L 130 556.196" />
        <path d="M 120 639.351 L 130 639.351" />
        <path d="M 120 119.632 L 130 119.632" />
        <path d="M 120 878.422 L 130 878.422" />
        <path d="M 120 525.013 L 130 525.013" />
        <path d="M 120 285.942 L 130 285.942" />
        <path d="M 120 130.026 L 130 130.026" />
        <path d="M 120 784.873 L 130 784.873" />
        <path d="M 120 691.323 L 130 691.323" />
        <path d="M 120 493.83 L 130 493.83" />
        <path d="M 120 67.6601 L 130 67.6601" />
        <path d="M 120 597.774 L 130 597.774" />
        <path d="M 120 150.815 L 130 150.815" />
        <path d="M 120 836.845 L 130 836.845" />
        <path d="M 120 462.647 L 130 462.647" />
        <path d="M 120 348.309 L 130 348.309" />
        <path d="M 120 743.295 L 130 743.295" />
        <path d="M 120 192.393 L 140 192.393" />
        <text font-size="30" transform="translate(110, 202.393)" text-anchor="end" dominant-baseline="middle" stroke="none" fill="black">7000</text>
        <path d="M 120 306.731 L 130 306.731" />
        <path d="M 120 171.604 L 130 171.604" />
        <path d="M 120 649.746 L 130 649.746" />
        <path d="M 120 431.464 L 130 431.464" />
        <path d="M 120 888.817 L 130 888.817" />
        <path d="M 120 795.267 L 130 795.267" />
        <path d="M 120 566.591 L 130 566.591" />
        <path d="M 120 701.718 L 130 701.718" />
        <path d="M 120 109.238 L 130 109.238" />
        <path d="M 120 712.112 L 140 712.112" />
        <text font-size="30" transform="translate(110, 722.112)" text-anchor="end" dominant-baseline="middle" stroke="none" fill="black">2000</text>
        <path d="M 120 275.548 L 130 275.548" />
        <path d="M 120 535.408 L 130 535.408" />
        <path d="M 120 213.182 L 130 213.182" />
        <path d="M 120 78.0545 L 130 78.0545" />
        <path d="M 120 847.239 L 130 847.239" />
        <path d="M 120 753.69 L 130 753.69" />
        <path d="M 120 337.914 L 130 337.914" />
        <path d="M 120 369.097 L 130 369.097" />
        <path d="M 120 660.14 L 130 660.14" />
        <path d="M 120 140.421 L 130 140.421" />
        <path d="M 120 899.211 L 130 899.211" />
        <path d="M 120 473.041 L 130 473.041" />
        <path d="M 120 805.662 L 130 805.662" />
        <path d="M 120 389.886 L 130 389.886" />
        <path d="M 120 254.759 L 130 254.759" />
        <path d="M 120 379.492 L 130 379.492" />
        <path d="M 120 441.858 L 130 441.858" />
        <path d="M 120 504.224 L 140 504.224" />
        <text font-size="30" transform="translate(110, 514.224)" text-anchor="end" dominant-baseline="middle" stroke="none" fill="black">4000</text>
        <path d="M 120 618.563 L 130 618.563" />
        <path d="M 120 816.056 L 140 816.056" />
        <text font-size="30" transform="translate(110, 826.056)" text-anchor="end" dominant-baseline="middle" stroke="none" fill="black">1000</text>
        <path d="M 120 410.675 L 130 410.675" />
        <path d="M 120 857.634 L 130 857.634" />
        <path d="M 120 576.985 L 130 576.985" />
        <path d="M 120 233.97 L 130 233.97" />
        <path d="M 120 764.084 L 130 764.084" />
        <path d="M 120 296.337 L 140 296.337" />
        <text font-size="30" transform="translate(110, 306.337)" text-anchor="end" dominant-baseline="middle" stroke="none" fill="black">6000</text>
        <path d="M 120 400.281 L 140 400.281" />
        <text font-size="30" transform="translate(110, 410.281)" text-anchor="end" dominant-baseline="middle" stroke="none" fill="black">5000</text>
        <path d="M 120 670.535 L 130 670.535" />
        <path d="M 120 545.802 L 130 545.802" />
        <path d="M 120 161.21 L 130 161.21" />
        <path d="M 120 909.606 L 130 909.606" />
        <path d="M 120 265.153 L 130 265.153" />
        <path d="M 120 483.436 L 130 483.436" />
        <path d="M 120 514.619 L 130 514.619" />
        <path d="M 120 181.998 L 130 181.998" />
        <path d="M 120 722.507 L 130 722.507" />
        <path d="M 120 628.957 L 130 628.957" />
        <path d="M 120 317.125 L 130 317.125" />
        <path d="M 120 608.168 L 140 608.168" />
        <text font-size="30" transform="translate(110, 618.168)" text-anchor="end" dominant-baseline="middle" stroke="none" fill="black">3000</text>
        <path d="M 120 868.028 L 130 868.028" />
        <path d="M 120 202.787 L 130 202.787" />
        <path d="M 120 327.52 L 130 327.52" />
        <path d="M 120 57.2657 L 130 57.2657" />
        <path d="M 120 774.479 L 130 774.479" />
        <path d="M 120 452.252 L 130 452.252" />
        <path d="M 120 680.929 L 130 680.929" />
        <path d="M 120 358.703 L 130 358.703" />
        <path d="M 120 223.576 L 130 223.576" />
    </g>
    <text id="frame_0_toplabel" font-size="30" transform="translate(535, 32.6)" text-anchor="middle" dominant-baseline="middle" stroke="none" fill="black">s.lstrip</text>
    <g id="frame_0_topticks">
        <path d="M 120 50 L 120 70" />
        <path d="M 136.6 50 L 136.6 60" />
        <path d="M 153.2 50 L 153.2 60" />
        <path d="M 169.8 50 L 169.8 60" />
        <path d="M 186.4 50 L 186.4 60" />
        <path d="M 203 50 L 203 60" />
        <path d="M 219.6 50 L 219.6 60" />
        <path d="M 236.2 50 L 236.2 60" />
        <path d="M 252.8 50 L 252.8 60" />
        <path d="M 269.4 50 L 269.4 60" />
        <path d="M 286 50 L 286 70" />
        <path d="M 302.6 50 L 302.6 60" />
        <path d="M 319.2 50 L 319.2 60" />
        <path d="M 335.8 50 L 335.8 60" />
        <path d="M 352.4 50 L 352.4 60" />
        <path d="M 369 50 L 369 60" />
        <path d="M 385.6 50 L 385.6 60" />
        <path d="M 402.2 50 L 402.2 60" />
        <path d="M 418.8 50 L 418.8 60" />
        <path d="M 435.4 50 L 435.4 60" />
        <path d="M 452 50 L 452 70" />
        <path d="M 468.6 50 L 468.6 60" />
        <path d="M 485.2 50 L 485.2 60" />
        <path d="M 501.8 50 L 501.8 60" />
        <path d="M 518.4 50 L 518.4 60" />
        <path d="M 535 50 L 535 60" />
        <path d="M 551.6 50 L 551.6 60" />
        <path d="M 568.2 50 L 568.2 60" />
        <path d="M 584.8 50 L 584.8 60" />
        <path d="M 601.4 50 L 601.4 60" />
        <path d="M 618 50 L 618 70" />
        <path d="M 634.6 50 L 634.6 60" />
        <path d="M 651.2 50 L 651.2 60" />
        <path d="M 667.8 50 L 667.8 60" />
        <path d="M 684.4 50 L 684.4 60" />
        <path d="M 701 50 L 701 60" />
        <path d="M 717.6 50 L 717.6 60" />
        <path d="M 734.2 50 L 734.2 60" />
        <path d="M 750.8 50 L 750.8 60" />
        <path d="M 767.4 50 L 767.4 60" />
        <path d="M 784 50 L 784 70" />
        <path d="M 800.6 50 L 800.6 60" />
        <path d="M 817.2 50 L 817.2 60" />
        <path d="M 833.8 50 L 833.8 60" />
        <path d="M 850.4 50 L 850.4 60" />
        <path d="M 867 50 L 867 60" />
        <path d="M 883.6 50 L 883.6 60" />
        <path d="M 900.2 50 L 900.2 60" />
        <path d="M 916.8 50 L 916.8 60" />
        <path d="M 933.4 50 L 933.4 60" />
        <path d="M 950 50 L 950 70" />
    </g>
    <g id="frame_0_rightticks">
        <path d="M 950 587.38 L 940 587.38" />
        <path d="M 950 421.069 L 940 421.069" />
        <path d="M 950 98.8432 L 940 98.8432" />
        <path d="M 950 826.45 L 940 826.45" />
        <path d="M 950 244.365 L 940 244.365" />
        <path d="M 950 920 L 930 920" />
        <path d="M 950 88.4488 L 930 88.4488" />
        <path d="M 950 732.901 L 940 732.901" />
        <path d="M 950 556.196 L 940 556.196" />
        <path d="M 950 639.351 L 940 639.351" />
        <path d="M 950 119.632 L 940 119.632" />
        <path d="M 950 878.422 L 940 878.422" />
        <path d="M 950 525.013 L 940 525.013" />
        <path d="M 950 285.942 L 940 285.942" />
        <path d="M 950 130.026 L 940 130.026" />
        <path d="M 950 784.873 L 940 784.873" />
        <path d="M 950 691.323 L 940 691.323" />
        <path d="M 950 493.83 L 940 493.83" />
        <path d="M 950 67.6601 L 940 67.6601" />
        <path d="M 950 597.774 L 940 597.774" />
        <path d="M 950 150.815 L 940 150.815" />
        <path d="M 950 836.845 L 940 836.845" />
        <path d="M 950 462.647 L 940 462.647" />
        <path d="M 950 348.309 L 940 348.309" />
        <path d="M 950 743.295 L 940 743.295" />
        <path d="M 950 192.393 L 930 192.393" />
        <path d="M 950 306.731 L 940 306.731" />
        <path d="M 950 171.604 L 940 171.604" />
        <path d="M 950 649.746 L 940 649.746" />
        <path d="M 950 431.464 L 940 431.464" />
        <path d="M 950 888.817 L 940 888.817" />
        <path d="M 950 795.267 L 940 795.267" />
        <path d="M 950 566.591 L 940 566.591" />
        <path d="M 950 701.718 L 940 701.718" />
        <path d="M 950 109.238 L 940 109.238" />
        <path d="M 950 712.112 L 930 712.112" />
        <path d="M 950 275.548 L 940 275.548" />
        <path d="M 950 535.408 L 940 535.408" />
        <path d="M 950 213.182 L 940 213.182" />
        <path d="M 950 78.0545 L 940 78.0545" />
        <path d="M 950 847.239 L 940 847.239" />
        <path d="M 950 753.69 L 940 753.69" />
        <path d="M 950 337.914 L 940 337.914" />
        <path d="M 950 369.097 L 940 369.097" />
        <path d="M 950 660.14 L 940 660.14" />
        <path d="M 950 140.421 L 940 140.421" />
        <path d="M 950 899.211 L 940 899.211" />
        <path d="M 950 473.041 L 940 473.041" />
        <path d="M 950 805.662 L 940 805.662" />
        <path d="M 950 389.886 L 940 389.886" />
        <path d="M 950 254.759 L 940 254.759" />
        <path d="M 950 379.492 L 940 379.492" />
        <path d="M 950 441.858 L 940 441.858" />
        <path d="M 950 504.224 L 930 504.224" />
        <path d="M 950 618.563 L 940 618.563" />
        <path d="M 950 816.056 L 930 816.056" />
        <path d="M 950 410.675 L 940 410.675" />
        <path d="M 950 857.634 L 940 857.634" />
        <path d="M 950 576.985 L 940 576.985" />
        <path d="M 950 233.97 L 940 233.97" />
        <path d="M 950 764.084 L 940 764.084" />
        <path d="M 950 296.337 L 930 296.337" />
        <path d="M 950 400.281 L 930 400.281" />
        <path d="M 950 670.535 L 940 670.535" />
        <path d="M 950 545.802 L 940 545.802" />
        <path d="M 950 161.21 L 940 161.21" />
        <path d="M 950 909.606 L 940 909.606" />
        <path d="M 950 265.153 L 940 265.153" />
        <path d="M 950 483.436 L 940 483.436" />
        <path d="M 950 514.619 L 940 514.619" />
        <path d="M 950 181.998 L 940 181.998" />
        <path d="M 950 722.507 L 940 722.507" />
        <path d="M 950 628.957 L 940 628.957" />
        <path d="M 950 317.125 L 940 317.125" />
        <path d="M 950 608.168 L 930 608.168" />
        <path d="M 950 868.028 L 940 868.028" />
        <path d="M 950 202.787 L 940 202.787" />
        <path d="M 950 327.52 L 940 327.52" />
        <path d="M 950 57.2657 L 940 57.2657" />
        <path d="M 950 774.479 L 940 774.479" />
        <path d="M 950 452.252 L 940 452.252" />
        <path d="M 950 680.929 L 940 680.929" />
        <path d="M 950 358.703 L 940 358.703" />
        <path d="M 950 223.576 L 940 223.576" />
    </g>
</g>
</g>
</svg>
