<?xml version="1.0" standalone="no"?>
<!DOCTYPE svg PUBLIC "-//W3C//DTD SVG 1.1//EN" "http://www.w3.org/Graphics/SVG/1.1/DTD/svg11.dtd">
<svg style="stroke-linejoin:miter; stroke:black; stroke-width:2.5; text-anchor:middle; fill:none" xmlns="http://www.w3.org/2000/svg" font-family="Helvetica, Arial, FreeSans, Sans, sans, sans-serif" width="1000px" height="1000px" version="1.1" xmlns:xlink="http://www.w3.org/1999/xlink" viewBox="0 0 1000 1000">
<defs>
    <clipPath id="Histogram_0_clip">
        <rect x="120" y="50" width="830" height="870" />
    </clipPath>
    <clipPath id="Histogram_1_clip">
        <rect x="120" y="50" width="830" height="870" />
    </clipPath>
</defs>
<g id="whole_document">
<rect id="background" x="0" y="0" width="1000" height="1000" stroke="none" fill="white" />
<g id="Histogram_0" clip-path="url(#Histogram_0_clip)">
    <path d="M 120 920 L 120 920 L 161.5 920 L 161.5 920 L 203 920 L 203 869.679 L 244.5 869.679 L 244.5 129.091 L 286 129.091 L 286 738.894 L 327.5 738.894 L 327.5 872.84 L 369 872.84 L 369 821.547 L 410.5 821.547 L 410.5 828.596 L 452 828.596 L 452 849.016 L 493.5 849.016 L 493.5 889.249 L 535 889.249 L 535 891.558 L 576.5 891.558 L 576.5 915.624 L 618 915.624 L 618 912.099 L 659.5 912.099 L 659.5 912.707 L 701 912.707 L 701 916.475 L 742.5 916.475 L 742.5 916.84 L 784 916.84 L 784 920 L 825.5 920 L 825.5 914.287 L 867 914.287 L 867 920 L 908.5 920 L 908.5 917.448 L 950 917.448 L 950 920" stroke-width="3" stroke-dasharray="" stroke="black" stroke-opacity="1" fill="DodgerBlue" fill-opacity="1" />
</g>
<g id="Histogram_1" clip-path="url(#Histogram_1_clip)">
    <path d="M 120 920 L 120 920 L 161.5 920 L 161.5 920 L 203 920 L 203 887.182 L 244.5 887.182 L 244.5 129.091 L 286 129.091 L 286 748.861 L 327.5 748.861 L 327.5 891.801 L 369 891.801 L 369 828.596 L 410.5 828.596 L 410.5 828.596 L 452 828.596 L 452 854.729 L 493.5 854.729 L 493.5 894.232 L 535 894.232 L 535 891.558 L 576.5 891.558 L 576.5 915.624 L 618 915.624 L 618 912.099 L 659.5 912.099 L 659.5 912.707 L 701 912.707 L 701 916.475 L 742.5 916.475 L 742.5 916.84 L 784 916.84 L 784 920 L 825.5 920 L 825.5 920 L 867 920 L 867 920 L 908.5 920 L 908.5 917.448 L 950 917.448 L 950 920" stroke-width="3" stroke-dasharray="" stroke="black" stroke-opacity="1" fill="darkorange" fill-opacity="1" />
</g>
<g id="frame_0">
    <rect id="frame_0_border" x="120" y="50" width="830" height="870" />
    <text id="frame_0_bottomlabel" font-size="30" transform="translate(535, 989.6)" text-anchor="middle" dominant-baseline="middle" stroke="none" fill="black">microseconds</text>
    <g id="frame_0_bottomticks">
        <path d="M 120 920 L 120 900" />
        <text font-size="30" transform="translate(120, 950)" text-anchor="middle" dominant-baseline="middle" stroke="none" fill="black">0</text>
        <path d="M 136.6 920 L 136.6 910" />
        <path d="M 153.2 920 L 153.2 910" />
        <path d="M 169.8 920 L 169.8 910" />
        <path d="M 186.4 920 L 186.4 910" />
        <path d="M 203 920 L 203 910" />
        <path d="M 219.6 920 L 219.6 910" />
        <path d="M 236.2 920 L 236.2 910" />
        <path d="M 252.8 920 L 252.8 910" />
        <path d="M 269.4 920 L 269.4 910" />
        <path d="M 286 920 L 286 900" />
        <text font-size="30" transform="translate(286, 950)" text-anchor="middle" dominant-baseline="middle" stroke="none" fill="black">10</text>
        <path d="M 302.6 920 L 302.6 910" />
        <path d="M 319.2 920 L 319.2 910" />
        <path d="M 335.8 920 L 335.8 910" />
        <path d="M 352.4 920 L 352.4 910" />
        <path d="M 369 920 L 369 910" />
        <path d="M 385.6 920 L 385.6 910" />
        <path d="M 402.2 920 L 402.2 910" />
        <path d="M 418.8 920 L 418.8 910" />
        <path d="M 435.4 920 L 435.4 910" />
        <path d="M 452 920 L 452 900" />
        <text font-size="30" transform="translate(452, 950)" text-anchor="middle" dominant-baseline="middle" stroke="none" fill="black">20</text>
        <path d="M 468.6 920 L 468.6 910" />
        <path d="M 485.2 920 L 485.2 910" />
        <path d="M 501.8 920 L 501.8 910" />
        <path d="M 518.4 920 L 518.4 910" />
        <path d="M 535 920 L 535 910" />
        <path d="M 551.6 920 L 551.6 910" />
        <path d="M 568.2 920 L 568.2 910" />
        <path d="M 584.8 920 L 584.8 910" />
        <path d="M 601.4 920 L 601.4 910" />
        <path d="M 618 920 L 618 900" />
        <text font-size="30" transform="translate(618, 950)" text-anchor="middle" dominant-baseline="middle" stroke="none" fill="black">30</text>
        <path d="M 634.6 920 L 634.6 910" />
        <path d="M 651.2 920 L 651.2 910" />
        <path d="M 667.8 920 L 667.8 910" />
        <path d="M 684.4 920 L 684.4 910" />
        <path d="M 701 920 L 701 910" />
        <path d="M 717.6 920 L 717.6 910" />
        <path d="M 734.2 920 L 734.2 910" />
        <path d="M 750.8 920 L 750.8 910" />
        <path d="M 767.4 920 L 767.4 910" />
        <path d="M 784 920 L 784 900" />
        <text font-size="30" transform="translate(784, 950)" text-anchor="middle" dominant-baseline="middle" stroke="none" fill="black">40</text>
        <path d="M 800.6 920 L 800.6 910" />
        <path d="M 817.2 920 L 817.2 910" />
        <path d="M 833.8 920 L 833.8 910" />
        <path d="M 850.4 920 L 850.4 910" />
        <path d="M 867 920 L 867 910" />
        <path d="M 883.6 920 L 883.6 910" />
        <path d="M 900.2 920 L 900.2 910" />
        <path d="M 916.8 920 L 916.8 910" />
        <path d="M 933.4 920 L 933.4 910" />
        <path d="M 950 920 L 950 900" />
        <text font-size="30" transform="translate(950, 950)" text-anchor="middle" dominant-baseline="middle" stroke="none" fill="black">50</text>
    </g>
    <g id="frame_0_leftticks">
        <path d="M 120 531.048 L 130 531.048" />
        <path d="M 120 336.572 L 130 336.572" />
        <path d="M 120 810.607 L 130 810.607" />
        <path d="M 120 129.942 L 130 129.942" />
        <path d="M 120 920 L 140 920" />
        <text font-size="30" transform="translate(110, 930)" text-anchor="end" dominant-baseline="middle" stroke="none" fill="black">0</text>
        <path d="M 120 701.215 L 130 701.215" />
        <path d="M 120 494.584 L 130 494.584" />
        <path d="M 120 591.822 L 130 591.822" />
        <path d="M 120 871.381 L 130 871.381" />
        <path d="M 120 458.12 L 130 458.12" />
        <path d="M 120 178.561 L 130 178.561" />
        <path d="M 120 761.988 L 130 761.988" />
        <path d="M 120 652.596 L 130 652.596" />
        <path d="M 120 421.656 L 130 421.656" />
        <path d="M 120 543.203 L 130 543.203" />
        <path d="M 120 822.762 L 130 822.762" />
        <path d="M 120 385.191 L 130 385.191" />
        <path d="M 120 251.489 L 130 251.489" />
        <path d="M 120 713.369 L 130 713.369" />
        <path d="M 120 202.87 L 130 202.87" />
        <path d="M 120 603.977 L 130 603.977" />
        <path d="M 120 348.727 L 130 348.727" />
        <path d="M 120 883.536 L 130 883.536" />
        <path d="M 120 774.143 L 130 774.143" />
        <path d="M 120 506.739 L 130 506.739" />
        <path d="M 120 664.75 L 130 664.75" />
        <path d="M 120 676.905 L 140 676.905" />
        <text font-size="30" transform="translate(110, 686.905)" text-anchor="end" dominant-baseline="middle" stroke="none" fill="black">2000</text>
        <path d="M 120 166.406 L 130 166.406" />
        <path d="M 120 470.275 L 130 470.275" />
        <path d="M 120 93.4775 L 130 93.4775" />
        <path d="M 120 834.917 L 130 834.917" />
        <path d="M 120 725.524 L 130 725.524" />
        <path d="M 120 239.334 L 130 239.334" />
        <path d="M 120 275.799 L 130 275.799" />
        <path d="M 120 616.131 L 130 616.131" />
        <path d="M 120 895.691 L 130 895.691" />
        <path d="M 120 397.346 L 130 397.346" />
        <path d="M 120 786.298 L 130 786.298" />
        <path d="M 120 300.108 L 130 300.108" />
        <path d="M 120 142.096 L 130 142.096" />
        <path d="M 120 287.953 L 130 287.953" />
        <path d="M 120 360.882 L 130 360.882" />
        <path d="M 120 433.81 L 140 433.81" />
        <text font-size="30" transform="translate(110, 443.81)" text-anchor="end" dominant-baseline="middle" stroke="none" fill="black">4000</text>
        <path d="M 120 567.512 L 130 567.512" />
        <path d="M 120 798.453 L 140 798.453" />
        <text font-size="30" transform="translate(110, 808.453)" text-anchor="end" dominant-baseline="middle" stroke="none" fill="black">1000</text>
        <path d="M 120 324.418 L 130 324.418" />
        <path d="M 120 847.072 L 130 847.072" />
        <path d="M 120 518.893 L 130 518.893" />
        <path d="M 120 117.787 L 130 117.787" />
        <path d="M 120 737.679 L 130 737.679" />
        <path d="M 120 190.715 L 140 190.715" />
        <text font-size="30" transform="translate(110, 200.715)" text-anchor="end" dominant-baseline="middle" stroke="none" fill="black">6000</text>
        <path d="M 120 312.263 L 140 312.263" />
        <text font-size="30" transform="translate(110, 322.263)" text-anchor="end" dominant-baseline="middle" stroke="none" fill="black">5000</text>
        <path d="M 120 628.286 L 130 628.286" />
        <path d="M 120 482.429 L 130 482.429" />
        <path d="M 120 907.845 L 130 907.845" />
        <path d="M 120 154.251 L 130 154.251" />
        <path d="M 120 409.501 L 130 409.501" />
        <path d="M 120 445.965 L 130 445.965" />
        <path d="M 120 57.0133 L 130 57.0133" />
        <path d="M 120 689.06 L 130 689.06" />
        <path d="M 120 579.667 L 130 579.667" />
        <path d="M 120 215.025 L 130 215.025" />
        <path d="M 120 555.358 L 140 555.358" />
        <text font-size="30" transform="translate(110, 565.358)" text-anchor="end" dominant-baseline="middle" stroke="none" fill="black">3000</text>
        <path d="M 120 859.226 L 130 859.226" />
        <path d="M 120 81.3228 L 130 81.3228" />
        <path d="M 120 227.18 L 130 227.18" />
        <path d="M 120 69.168 L 140 69.168" />
        <text font-size="30" transform="translate(110, 79.168)" text-anchor="end" dominant-baseline="middle" stroke="none" fill="black">7000</text>
        <path d="M 120 749.834 L 130 749.834" />
        <path d="M 120 373.037 L 130 373.037" />
        <path d="M 120 640.441 L 130 640.441" />
        <path d="M 120 263.644 L 130 263.644" />
        <path d="M 120 105.632 L 130 105.632" />
    </g>
    <text id="frame_0_toplabel" font-size="30" transform="translate(535, 32.6)" text-anchor="middle" dominant-baseline="middle" stroke="none" fill="black">la.dot</text>
    <g id="frame_0_topticks">
        <path d="M 120 50 L 120 70" />
        <path d="M 136.6 50 L 136.6 60" />
        <path d="M 153.2 50 L 153.2 60" />
        <path d="M 169.8 50 L 169.8 60" />
        <path d="M 186.4 50 L 186.4 60" />
        <path d="M 203 50 L 203 60" />
        <path d="M 219.6 50 L 219.6 60" />
        <path d="M 236.2 50 L 236.2 60" />
        <path d="M 252.8 50 L 252.8 60" />
        <path d="M 269.4 50 L 269.4 60" />
        <path d="M 286 50 L 286 70" />
        <path d="M 302.6 50 L 302.6 60" />
        <path d="M 319.2 50 L 319.2 60" />
        <path d="M 335.8 50 L 335.8 60" />
        <path d="M 352.4 50 L 352.4 60" />
        <path d="M 369 50 L 369 60" />
        <path d="M 385.6 50 L 385.6 60" />
        <path d="M 402.2 50 L 402.2 60" />
        <path d="M 418.8 50 L 418.8 60" />
        <path d="M 435.4 50 L 435.4 60" />
        <path d="M 452 50 L 452 70" />
        <path d="M 468.6 50 L 468.6 60" />
        <path d="M 485.2 50 L 485.2 60" />
        <path d="M 501.8 50 L 501.8 60" />
        <path d="M 518.4 50 L 518.4 60" />
        <path d="M 535 50 L 535 60" />
        <path d="M 551.6 50 L 551.6 60" />
        <path d="M 568.2 50 L 568.2 60" />
        <path d="M 584.8 50 L 584.8 60" />
        <path d="M 601.4 50 L 601.4 60" />
        <path d="M 618 50 L 618 70" />
        <path d="M 634.6 50 L 634.6 60" />
        <path d="M 651.2 50 L 651.2 60" />
        <path d="M 667.8 50 L 667.8 60" />
        <path d="M 684.4 50 L 684.4 60" />
        <path d="M 701 50 L 701 60" />
        <path d="M 717.6 50 L 717.6 60" />
        <path d="M 734.2 50 L 734.2 60" />
        <path d="M 750.8 50 L 750.8 60" />
        <path d="M 767.4 50 L 767.4 60" />
        <path d="M 784 50 L 784 70" />
        <path d="M 800.6 50 L 800.6 60" />
        <path d="M 817.2 50 L 817.2 60" />
        <path d="M 833.8 50 L 833.8 60" />
        <path d="M 850.4 50 L 850.4 60" />
        <path d="M 867 50 L 867 60" />
        <path d="M 883.6 50 L 883.6 60" />
        <path d="M 900.2 50 L 900.2 60" />
        <path d="M 916.8 50 L 916.8 60" />
        <path d="M 933.4 50 L 933.4 60" />
        <path d="M 950 50 L 950 70" />
    </g>
    <g id="frame_0_rightticks">
        <path d="M 950 531.048 L 940 531.048" />
        <path d="M 950 336.572 L 940 336.572" />
        <path d="M 950 810.607 L 940 810.607" />
        <path d="M 950 129.942 L 940 129.942" />
        <path d="M 950 920 L 930 920" />
        <path d="M 950 701.215 L 940 701.215" />
        <path d="M 950 494.584 L 940 494.584" />
        <path d="M 950 591.822 L 940 591.822" />
        <path d="M 950 871.381 L 940 871.381" />
        <path d="M 950 458.12 L 940 458.12" />
        <path d="M 950 178.561 L 940 178.561" />
        <path d="M 950 761.988 L 940 761.988" />
        <path d="M 950 652.596 L 940 652.596" />
        <path d="M 950 421.656 L 940 421.656" />
        <path d="M 950 543.203 L 940 543.203" />
        <path d="M 950 822.762 L 940 822.762" />
        <path d="M 950 385.191 L 940 385.191" />
        <path d="M 950 251.489 L 940 251.489" />
        <path d="M 950 713.369 L 940 713.369" />
        <path d="M 950 202.87 L 940 202.87" />
        <path d="M 950 603.977 L 940 603.977" />
        <path d="M 950 348.727 L 940 348.727" />
        <path d="M 950 883.536 L 940 883.536" />
        <path d="M 950 774.143 L 940 774.143" />
        <path d="M 950 506.739 L 940 506.739" />
        <path d="M 950 664.75 L 940 664.75" />
        <path d="M 950 676.905 L 930 676.905" />
        <path d="M 950 166.406 L 940 166.406" />
        <path d="M 950 470.275 L 940 470.275" />
        <path d="M 950 93.4775 L 940 93.4775" />
        <path d="M 950 834.917 L 940 834.917" />
        <path d="M 950 725.524 L 940 725.524" />
        <path d="M 950 239.334 L 940 239.334" />
        <path d="M 950 275.799 L 940 275.799" />
        <path d="M 950 616.131 L 940 616.131" />
        <path d="M 950 895.691 L 940 895.691" />
        <path d="M 950 397.346 L 940 397.346" />
        <path d="M 950 786.298 L 940 786.298" />
        <path d="M 950 300.108 L 940 300.108" />
        <path d="M 950 142.096 L 940 142.096" />
        <path d="M 950 287.953 L 940 287.953" />
        <path d="M 950 360.882 L 940 360.882" />
        <path d="M 950 433.81 L 930 433.81" />
        <path d="M 950 567.512 L 940 567.512" />
        <path d="M 950 798.453 L 930 798.453" />
        <path d="M 950 324.418 L 940 324.418" />
        <path d="M 950 847.072 L 940 847.072" />
        <path d="M 950 518.893 L 940 518.893" />
        <path d="M 950 117.787 L 940 117.787" />
        <path d="M 950 737.679 L 940 737.679" />
        <path d="M 950 190.715 L 930 190.715" />
        <path d="M 950 312.263 L 930 312.263" />
        <path d="M 950 628.286 L 940 628.286" />
        <path d="M 950 482.429 L 940 482.429" />
        <path d="M 950 907.845 L 940 907.845" />
        <path d="M 950 154.251 L 940 154.251" />
        <path d="M 950 409.501 L 940 409.501" />
        <path d="M 950 445.965 L 940 445.965" />
        <path d="M 950 57.0133 L 940 57.0133" />
        <path d="M 950 689.06 L 940 689.06" />
        <path d="M 950 579.667 L 940 579.667" />
        <path d="M 950 215.025 L 940 215.025" />
        <path d="M 950 555.358 L 930 555.358" />
        <path d="M 950 859.226 L 940 859.226" />
        <path d="M 950 81.3228 L 940 81.3228" />
        <path d="M 950 227.18 L 940 227.18" />
        <path d="M 950 69.168 L 930 69.168" />
        <path d="M 950 749.834 L 940 749.834" />
        <path d="M 950 373.037 L 940 373.037" />
        <path d="M 950 640.441 L 940 640.441" />
        <path d="M 950 263.644 L 940 263.644" />
        <path d="M 950 105.632 L 940 105.632" />
    </g>
</g>
</g>
</svg>
