<?xml version="1.0" standalone="no"?>
<!DOCTYPE svg PUBLIC "-//W3C//DTD SVG 1.1//EN" "http://www.w3.org/Graphics/SVG/1.1/DTD/svg11.dtd">
<svg style="stroke-linejoin:miter; stroke:black; stroke-width:2.5; text-anchor:middle; fill:none" xmlns="http://www.w3.org/2000/svg" font-family="Helvetica, Arial, FreeSans, Sans, sans, sans-serif" width="1000px" height="1000px" version="1.1" xmlns:xlink="http://www.w3.org/1999/xlink" viewBox="0 0 1000 1000">
<defs>
    <clipPath id="Histogram_0_clip">
        <rect x="120" y="50" width="830" height="870" />
    </clipPath>
</defs>
<g id="whole_document">
<rect id="background" x="0" y="0" width="1000" height="1000" stroke="none" fill="white" />
<g id="Histogram_0" clip-path="url(#Histogram_0_clip)">
    <path d="M 120 920 L 120 129.091 L 161.5 129.091 L 161.5 920 L 203 920 L 203 920 L 244.5 920 L 244.5 920 L 286 920 L 286 920 L 327.5 920 L 327.5 920 L 369 920 L 369 920 L 410.5 920 L 410.5 920 L 452 920 L 452 920 L 493.5 920 L 493.5 920 L 535 920 L 535 920 L 576.5 920 L 576.5 920 L 618 920 L 618 920 L 659.5 920 L 659.5 920 L 701 920 L 701 920 L 742.5 920 L 742.5 920 L 784 920 L 784 920 L 825.5 920 L 825.5 920 L 867 920 L 867 920 L 908.5 920 L 908.5 920 L 950 920 L 950 920" stroke-width="3" stroke-dasharray="" stroke="black" stroke-opacity="1" fill="DodgerBlue" fill-opacity="1" />
</g>
<g id="frame_0">
    <rect id="frame_0_border" x="120" y="50" width="830" height="870" />
    <text id="frame_0_bottomlabel" font-size="30" transform="translate(535, 989.6)" text-anchor="middle" dominant-baseline="middle" stroke="none" fill="black">microseconds</text>
    <g id="frame_0_bottomticks">
        <path d="M 120 920 L 120 900" />
        <text font-size="30" transform="translate(120, 950)" text-anchor="middle" dominant-baseline="middle" stroke="none" fill="black">0</text>
        <path d="M 136.6 920 L 136.6 910" />
        <path d="M 153.2 920 L 153.2 910" />
        <path d="M 169.8 920 L 169.8 910" />
        <path d="M 186.4 920 L 186.4 910" />
        <path d="M 203 920 L 203 910" />
        <path d="M 219.6 920 L 219.6 910" />
        <path d="M 236.2 920 L 236.2 910" />
        <path d="M 252.8 920 L 252.8 910" />
        <path d="M 269.4 920 L 269.4 910" />
        <path d="M 286 920 L 286 900" />
        <text font-size="30" transform="translate(286, 950)" text-anchor="middle" dominant-baseline="middle" stroke="none" fill="black">10</text>
        <path d="M 302.6 920 L 302.6 910" />
        <path d="M 319.2 920 L 319.2 910" />
        <path d="M 335.8 920 L 335.8 910" />
        <path d="M 352.4 920 L 352.4 910" />
        <path d="M 369 920 L 369 910" />
        <path d="M 385.6 920 L 385.6 910" />
        <path d="M 402.2 920 L 402.2 910" />
        <path d="M 418.8 920 L 418.8 910" />
        <path d="M 435.4 920 L 435.4 910" />
        <path d="M 452 920 L 452 900" />
        <text font-size="30" transform="translate(452, 950)" text-anchor="middle" dominant-baseline="middle" stroke="none" fill="black">20</text>
        <path d="M 468.6 920 L 468.6 910" />
        <path d="M 485.2 920 L 485.2 910" />
        <path d="M 501.8 920 L 501.8 910" />
        <path d="M 518.4 920 L 518.4 910" />
        <path d="M 535 920 L 535 910" />
        <path d="M 551.6 920 L 551.6 910" />
        <path d="M 568.2 920 L 568.2 910" />
        <path d="M 584.8 920 L 584.8 910" />
        <path d="M 601.4 920 L 601.4 910" />
        <path d="M 618 920 L 618 900" />
        <text font-size="30" transform="translate(618, 950)" text-anchor="middle" dominant-baseline="middle" stroke="none" fill="black">30</text>
        <path d="M 634.6 920 L 634.6 910" />
        <path d="M 651.2 920 L 651.2 910" />
        <path d="M 667.8 920 L 667.8 910" />
        <path d="M 684.4 920 L 684.4 910" />
        <path d="M 701 920 L 701 910" />
        <path d="M 717.6 920 L 717.6 910" />
        <path d="M 734.2 920 L 734.2 910" />
        <path d="M 750.8 920 L 750.8 910" />
        <path d="M 767.4 920 L 767.4 910" />
        <path d="M 784 920 L 784 900" />
        <text font-size="30" transform="translate(784, 950)" text-anchor="middle" dominant-baseline="middle" stroke="none" fill="black">40</text>
        <path d="M 800.6 920 L 800.6 910" />
        <path d="M 817.2 920 L 817.2 910" />
        <path d="M 833.8 920 L 833.8 910" />
        <path d="M 850.4 920 L 850.4 910" />
        <path d="M 867 920 L 867 910" />
        <path d="M 883.6 920 L 883.6 910" />
        <path d="M 900.2 920 L 900.2 910" />
        <path d="M 916.8 920 L 916.8 910" />
        <path d="M 933.4 920 L 933.4 910" />
        <path d="M 950 920 L 950 900" />
        <text font-size="30" transform="translate(950, 950)" text-anchor="middle" dominant-baseline="middle" stroke="none" fill="black">50</text>
    </g>
    <g id="frame_0_leftticks">
        <path d="M 120 723.686 L 130 723.686" />
        <path d="M 120 625.529 L 130 625.529" />
        <path d="M 120 920 L 140 920" />
        <text font-size="30" transform="translate(110, 930)" text-anchor="end" dominant-baseline="middle" stroke="none" fill="black">0</text>
        <path d="M 120 404.676 L 130 404.676" />
        <path d="M 120 527.372 L 130 527.372" />
        <path d="M 120 699.147 L 130 699.147" />
        <path d="M 120 134.745 L 130 134.745" />
        <path d="M 120 257.441 L 130 257.441" />
        <path d="M 120 895.461 L 130 895.461" />
        <path d="M 120 870.922 L 130 870.922" />
        <path d="M 120 650.069 L 130 650.069" />
        <path d="M 120 110.206 L 130 110.206" />
        <path d="M 120 846.382 L 130 846.382" />
        <path d="M 120 797.304 L 140 797.304" />
        <text font-size="30" transform="translate(110, 807.304)" text-anchor="end" dominant-baseline="middle" stroke="none" fill="black">50000</text>
        <path d="M 120 232.902 L 130 232.902" />
        <path d="M 120 355.598 L 130 355.598" />
        <path d="M 120 478.294 L 130 478.294" />
        <path d="M 120 821.843 L 130 821.843" />
        <path d="M 120 281.98 L 130 281.98" />
        <path d="M 120 85.6663 L 130 85.6663" />
        <path d="M 120 208.362 L 130 208.362" />
        <path d="M 120 600.99 L 130 600.99" />
        <path d="M 120 331.059 L 130 331.059" />
        <path d="M 120 453.755 L 130 453.755" />
        <path d="M 120 576.451 L 130 576.451" />
        <path d="M 120 61.1271 L 140 61.1271" />
        <text font-size="30" transform="translate(110, 71.1271)" text-anchor="end" dominant-baseline="middle" stroke="none" fill="black">350000</text>
        <path d="M 120 772.765 L 130 772.765" />
        <path d="M 120 502.833 L 130 502.833" />
        <path d="M 120 183.823 L 140 183.823" />
        <text font-size="30" transform="translate(110, 193.823)" text-anchor="end" dominant-baseline="middle" stroke="none" fill="black">300000</text>
        <path d="M 120 306.519 L 140 306.519" />
        <text font-size="30" transform="translate(110, 316.519)" text-anchor="end" dominant-baseline="middle" stroke="none" fill="black">250000</text>
        <path d="M 120 748.225 L 130 748.225" />
        <path d="M 120 429.215 L 140 429.215" />
        <text font-size="30" transform="translate(110, 439.215)" text-anchor="end" dominant-baseline="middle" stroke="none" fill="black">200000</text>
        <path d="M 120 551.912 L 140 551.912" />
        <text font-size="30" transform="translate(110, 561.912)" text-anchor="end" dominant-baseline="middle" stroke="none" fill="black">150000</text>
        <path d="M 120 674.608 L 140 674.608" />
        <text font-size="30" transform="translate(110, 684.608)" text-anchor="end" dominant-baseline="middle" stroke="none" fill="black">100000</text>
        <path d="M 120 380.137 L 130 380.137" />
        <path d="M 120 159.284 L 130 159.284" />
    </g>
    <text id="frame_0_toplabel" font-size="30" transform="translate(535, 32.6)" text-anchor="middle" dominant-baseline="middle" stroke="none" fill="black">metric.absDiff</text>
    <g id="frame_0_topticks">
        <path d="M 120 50 L 120 70" />
        <path d="M 136.6 50 L 136.6 60" />
        <path d="M 153.2 50 L 153.2 60" />
        <path d="M 169.8 50 L 169.8 60" />
        <path d="M 186.4 50 L 186.4 60" />
        <path d="M 203 50 L 203 60" />
        <path d="M 219.6 50 L 219.6 60" />
        <path d="M 236.2 50 L 236.2 60" />
        <path d="M 252.8 50 L 252.8 60" />
        <path d="M 269.4 50 L 269.4 60" />
        <path d="M 286 50 L 286 70" />
        <path d="M 302.6 50 L 302.6 60" />
        <path d="M 319.2 50 L 319.2 60" />
        <path d="M 335.8 50 L 335.8 60" />
        <path d="M 352.4 50 L 352.4 60" />
        <path d="M 369 50 L 369 60" />
        <path d="M 385.6 50 L 385.6 60" />
        <path d="M 402.2 50 L 402.2 60" />
        <path d="M 418.8 50 L 418.8 60" />
        <path d="M 435.4 50 L 435.4 60" />
        <path d="M 452 50 L 452 70" />
        <path d="M 468.6 50 L 468.6 60" />
        <path d="M 485.2 50 L 485.2 60" />
        <path d="M 501.8 50 L 501.8 60" />
        <path d="M 518.4 50 L 518.4 60" />
        <path d="M 535 50 L 535 60" />
        <path d="M 551.6 50 L 551.6 60" />
        <path d="M 568.2 50 L 568.2 60" />
        <path d="M 584.8 50 L 584.8 60" />
        <path d="M 601.4 50 L 601.4 60" />
        <path d="M 618 50 L 618 70" />
        <path d="M 634.6 50 L 634.6 60" />
        <path d="M 651.2 50 L 651.2 60" />
        <path d="M 667.8 50 L 667.8 60" />
        <path d="M 684.4 50 L 684.4 60" />
        <path d="M 701 50 L 701 60" />
        <path d="M 717.6 50 L 717.6 60" />
        <path d="M 734.2 50 L 734.2 60" />
        <path d="M 750.8 50 L 750.8 60" />
        <path d="M 767.4 50 L 767.4 60" />
        <path d="M 784 50 L 784 70" />
        <path d="M 800.6 50 L 800.6 60" />
        <path d="M 817.2 50 L 817.2 60" />
        <path d="M 833.8 50 L 833.8 60" />
        <path d="M 850.4 50 L 850.4 60" />
        <path d="M 867 50 L 867 60" />
        <path d="M 883.6 50 L 883.6 60" />
        <path d="M 900.2 50 L 900.2 60" />
        <path d="M 916.8 50 L 916.8 60" />
        <path d="M 933.4 50 L 933.4 60" />
        <path d="M 950 50 L 950 70" />
    </g>
    <g id="frame_0_rightticks">
        <path d="M 950 723.686 L 940 723.686" />
        <path d="M 950 625.529 L 940 625.529" />
        <path d="M 950 920 L 930 920" />
        <path d="M 950 404.676 L 940 404.676" />
        <path d="M 950 527.372 L 940 527.372" />
        <path d="M 950 699.147 L 940 699.147" />
        <path d="M 950 134.745 L 940 134.745" />
        <path d="M 950 257.441 L 940 257.441" />
        <path d="M 950 895.461 L 940 895.461" />
        <path d="M 950 870.922 L 940 870.922" />
        <path d="M 950 650.069 L 940 650.069" />
        <path d="M 950 110.206 L 940 110.206" />
        <path d="M 950 846.382 L 940 846.382" />
        <path d="M 950 797.304 L 930 797.304" />
        <path d="M 950 232.902 L 940 232.902" />
        <path d="M 950 355.598 L 940 355.598" />
        <path d="M 950 478.294 L 940 478.294" />
        <path d="M 950 821.843 L 940 821.843" />
        <path d="M 950 281.98 L 940 281.98" />
        <path d="M 950 85.6663 L 940 85.6663" />
        <path d="M 950 208.362 L 940 208.362" />
        <path d="M 950 600.99 L 940 600.99" />
        <path d="M 950 331.059 L 940 331.059" />
        <path d="M 950 453.755 L 940 453.755" />
        <path d="M 950 576.451 L 940 576.451" />
        <path d="M 950 61.1271 L 930 61.1271" />
        <path d="M 950 772.765 L 940 772.765" />
        <path d="M 950 502.833 L 940 502.833" />
        <path d="M 950 183.823 L 930 183.823" />
        <path d="M 950 306.519 L 930 306.519" />
        <path d="M 950 748.225 L 940 748.225" />
        <path d="M 950 429.215 L 930 429.215" />
        <path d="M 950 551.912 L 930 551.912" />
        <path d="M 950 674.608 L 930 674.608" />
        <path d="M 950 380.137 L 940 380.137" />
        <path d="M 950 159.284 L 940 159.284" />
    </g>
</g>
</g>
</svg>
