<?xml version="1.0" standalone="no"?>
<!DOCTYPE svg PUBLIC "-//W3C//DTD SVG 1.1//EN" "http://www.w3.org/Graphics/SVG/1.1/DTD/svg11.dtd">
<svg style="stroke-linejoin:miter; stroke:black; stroke-width:2.5; text-anchor:middle; fill:none" xmlns="http://www.w3.org/2000/svg" font-family="Helvetica, Arial, FreeSans, Sans, sans, sans-serif" width="1000px" height="1000px" version="1.1" xmlns:xlink="http://www.w3.org/1999/xlink" viewBox="0 0 1000 1000">
<defs>
    <clipPath id="Histogram_0_clip">
        <rect x="120" y="50" width="830" height="870" />
    </clipPath>
    <clipPath id="Histogram_1_clip">
        <rect x="120" y="50" width="830" height="870" />
    </clipPath>
</defs>
<g id="whole_document">
<rect id="background" x="0" y="0" width="1000" height="1000" stroke="none" fill="white" />
<g id="Histogram_0" clip-path="url(#Histogram_0_clip)">
    <path d="M 120 920 L 120 134.8 L 161.5 134.8 L 161.5 129.091 L 203 129.091 L 203 828.726 L 244.5 828.726 L 244.5 707.332 L 286 707.332 L 286 905.401 L 327.5 905.401 L 327.5 915.104 L 369 915.104 L 369 916.091 L 410.5 916.091 L 410.5 916.184 L 452 916.184 L 452 918.666 L 493.5 918.666 L 493.5 919.5 L 535 919.5 L 535 919.707 L 576.5 919.707 L 576.5 919.883 L 618 919.883 L 618 919.96 L 659.5 919.96 L 659.5 919.944 L 701 919.944 L 701 919.961 L 742.5 919.961 L 742.5 919.968 L 784 919.968 L 784 919.954 L 825.5 919.954 L 825.5 919.974 L 867 919.974 L 867 920 L 908.5 920 L 908.5 919.974 L 950 919.974 L 950 920" stroke-width="3" stroke-dasharray="" stroke="black" stroke-opacity="1" fill="DodgerBlue" fill-opacity="1" />
</g>
<g id="Histogram_1" clip-path="url(#Histogram_1_clip)">
    <path d="M 120 920 L 120 920 L 161.5 920 L 161.5 920 L 203 920 L 203 920 L 244.5 920 L 244.5 729.817 L 286 729.817 L 286 914.859 L 327.5 914.859 L 327.5 919.618 L 369 919.618 L 369 916.817 L 410.5 916.817 L 410.5 917.165 L 452 917.165 L 452 919.528 L 493.5 919.528 L 493.5 919.994 L 535 919.994 L 535 919.947 L 576.5 919.947 L 576.5 919.956 L 618 919.956 L 618 919.978 L 659.5 919.978 L 659.5 920 L 701 920 L 701 919.992 L 742.5 919.992 L 742.5 920 L 784 920 L 784 919.997 L 825.5 919.997 L 825.5 919.997 L 867 919.997 L 867 920 L 908.5 920 L 908.5 920 L 950 920 L 950 920" stroke-width="3" stroke-dasharray="" stroke="black" stroke-opacity="1" fill="darkorange" fill-opacity="1" />
</g>
<g id="frame_0">
    <rect id="frame_0_border" x="120" y="50" width="830" height="870" />
    <text id="frame_0_bottomlabel" font-size="30" transform="translate(535, 989.6)" text-anchor="middle" dominant-baseline="middle" stroke="none" fill="black">microseconds</text>
    <g id="frame_0_bottomticks">
        <path d="M 120 920 L 120 900" />
        <text font-size="30" transform="translate(120, 950)" text-anchor="middle" dominant-baseline="middle" stroke="none" fill="black">0</text>
        <path d="M 136.6 920 L 136.6 910" />
        <path d="M 153.2 920 L 153.2 910" />
        <path d="M 169.8 920 L 169.8 910" />
        <path d="M 186.4 920 L 186.4 910" />
        <path d="M 203 920 L 203 910" />
        <path d="M 219.6 920 L 219.6 910" />
        <path d="M 236.2 920 L 236.2 910" />
        <path d="M 252.8 920 L 252.8 910" />
        <path d="M 269.4 920 L 269.4 910" />
        <path d="M 286 920 L 286 900" />
        <text font-size="30" transform="translate(286, 950)" text-anchor="middle" dominant-baseline="middle" stroke="none" fill="black">10</text>
        <path d="M 302.6 920 L 302.6 910" />
        <path d="M 319.2 920 L 319.2 910" />
        <path d="M 335.8 920 L 335.8 910" />
        <path d="M 352.4 920 L 352.4 910" />
        <path d="M 369 920 L 369 910" />
        <path d="M 385.6 920 L 385.6 910" />
        <path d="M 402.2 920 L 402.2 910" />
        <path d="M 418.8 920 L 418.8 910" />
        <path d="M 435.4 920 L 435.4 910" />
        <path d="M 452 920 L 452 900" />
        <text font-size="30" transform="translate(452, 950)" text-anchor="middle" dominant-baseline="middle" stroke="none" fill="black">20</text>
        <path d="M 468.6 920 L 468.6 910" />
        <path d="M 485.2 920 L 485.2 910" />
        <path d="M 501.8 920 L 501.8 910" />
        <path d="M 518.4 920 L 518.4 910" />
        <path d="M 535 920 L 535 910" />
        <path d="M 551.6 920 L 551.6 910" />
        <path d="M 568.2 920 L 568.2 910" />
        <path d="M 584.8 920 L 584.8 910" />
        <path d="M 601.4 920 L 601.4 910" />
        <path d="M 618 920 L 618 900" />
        <text font-size="30" transform="translate(618, 950)" text-anchor="middle" dominant-baseline="middle" stroke="none" fill="black">30</text>
        <path d="M 634.6 920 L 634.6 910" />
        <path d="M 651.2 920 L 651.2 910" />
        <path d="M 667.8 920 L 667.8 910" />
        <path d="M 684.4 920 L 684.4 910" />
        <path d="M 701 920 L 701 910" />
        <path d="M 717.6 920 L 717.6 910" />
        <path d="M 734.2 920 L 734.2 910" />
        <path d="M 750.8 920 L 750.8 910" />
        <path d="M 767.4 920 L 767.4 910" />
        <path d="M 784 920 L 784 900" />
        <text font-size="30" transform="translate(784, 950)" text-anchor="middle" dominant-baseline="middle" stroke="none" fill="black">40</text>
        <path d="M 800.6 920 L 800.6 910" />
        <path d="M 817.2 920 L 817.2 910" />
        <path d="M 833.8 920 L 833.8 910" />
        <path d="M 850.4 920 L 850.4 910" />
        <path d="M 867 920 L 867 910" />
        <path d="M 883.6 920 L 883.6 910" />
        <path d="M 900.2 920 L 900.2 910" />
        <path d="M 916.8 920 L 916.8 910" />
        <path d="M 933.4 920 L 933.4 910" />
        <path d="M 950 920 L 950 900" />
        <text font-size="30" transform="translate(950, 950)" text-anchor="middle" dominant-baseline="middle" stroke="none" fill="black">50</text>
    </g>
    <g id="frame_0_leftticks">
        <path d="M 120 755.886 L 130 755.886" />
        <path d="M 120 837.943 L 130 837.943" />
        <path d="M 120 441.333 L 130 441.333" />
        <path d="M 120 920 L 140 920" />
        <text font-size="30" transform="translate(110, 930)" text-anchor="end" dominant-baseline="middle" stroke="none" fill="black">0</text>
        <path d="M 120 126.781 L 130 126.781" />
        <path d="M 120 605.448 L 130 605.448" />
        <path d="M 120 290.895 L 130 290.895" />
        <path d="M 120 769.562 L 130 769.562" />
        <path d="M 120 455.009 L 130 455.009" />
        <path d="M 120 140.457 L 130 140.457" />
        <path d="M 120 619.124 L 130 619.124" />
        <path d="M 120 304.571 L 130 304.571" />
        <path d="M 120 783.238 L 140 783.238" />
        <text font-size="30" transform="translate(110, 793.238)" text-anchor="end" dominant-baseline="middle" stroke="none" fill="black">10⁶</text>
        <path d="M 120 468.686 L 130 468.686" />
        <path d="M 120 673.829 L 130 673.829" />
        <path d="M 120 632.8 L 130 632.8" />
        <path d="M 120 906.324 L 130 906.324" />
        <path d="M 120 318.247 L 130 318.247" />
        <path d="M 120 482.362 L 130 482.362" />
        <path d="M 120 167.809 L 130 167.809" />
        <path d="M 120 646.476 L 140 646.476" />
        <text font-size="30" transform="translate(110, 656.476)" text-anchor="end" dominant-baseline="middle" stroke="none" fill="black">2×10⁶</text>
        <path d="M 120 331.924 L 130 331.924" />
        <path d="M 120 810.59 L 130 810.59" />
        <path d="M 120 496.038 L 130 496.038" />
        <path d="M 120 181.486 L 130 181.486" />
        <path d="M 120 660.152 L 130 660.152" />
        <path d="M 120 345.6 L 130 345.6" />
        <path d="M 120 824.267 L 130 824.267" />
        <path d="M 120 509.714 L 140 509.714" />
        <text font-size="30" transform="translate(110, 519.714)" text-anchor="end" dominant-baseline="middle" stroke="none" fill="black">3×10⁶</text>
        <path d="M 120 195.162 L 130 195.162" />
        <path d="M 120 892.648 L 130 892.648" />
        <path d="M 120 796.914 L 130 796.914" />
        <path d="M 120 359.276 L 130 359.276" />
        <path d="M 120 523.39 L 130 523.39" />
        <path d="M 120 208.838 L 130 208.838" />
        <path d="M 120 687.505 L 130 687.505" />
        <path d="M 120 372.952 L 140 372.952" />
        <text font-size="30" transform="translate(110, 382.952)" text-anchor="end" dominant-baseline="middle" stroke="none" fill="black">4×10⁶</text>
        <path d="M 120 851.619 L 130 851.619" />
        <path d="M 120 277.219 L 130 277.219" />
        <path d="M 120 537.067 L 130 537.067" />
        <path d="M 120 222.514 L 130 222.514" />
        <path d="M 120 701.181 L 130 701.181" />
        <path d="M 120 58.3998 L 130 58.3998" />
        <path d="M 120 236.19 L 140 236.19" />
        <text font-size="30" transform="translate(110, 246.19)" text-anchor="end" dominant-baseline="middle" stroke="none" fill="black">5×10⁶</text>
        <path d="M 120 386.628 L 130 386.628" />
        <path d="M 120 865.295 L 130 865.295" />
        <path d="M 120 72.0759 L 130 72.0759" />
        <path d="M 120 550.743 L 130 550.743" />
        <path d="M 120 878.971 L 130 878.971" />
        <path d="M 120 714.857 L 130 714.857" />
        <path d="M 120 400.305 L 130 400.305" />
        <path d="M 120 85.7521 L 130 85.7521" />
        <path d="M 120 564.419 L 130 564.419" />
        <path d="M 120 154.133 L 130 154.133" />
        <path d="M 120 249.866 L 130 249.866" />
        <path d="M 120 728.533 L 130 728.533" />
        <path d="M 120 413.981 L 130 413.981" />
        <path d="M 120 99.4283 L 140 99.4283" />
        <text font-size="30" transform="translate(110, 109.428)" text-anchor="end" dominant-baseline="middle" stroke="none" fill="black">6×10⁶</text>
        <path d="M 120 578.095 L 130 578.095" />
        <path d="M 120 263.543 L 130 263.543" />
        <path d="M 120 742.209 L 130 742.209" />
        <path d="M 120 427.657 L 130 427.657" />
        <path d="M 120 113.105 L 130 113.105" />
        <path d="M 120 591.771 L 130 591.771" />
    </g>
    <text id="frame_0_toplabel" font-size="30" transform="translate(535, 32.6)" text-anchor="middle" dominant-baseline="middle" stroke="none" fill="black">map.zipmap</text>
    <g id="frame_0_topticks">
        <path d="M 120 50 L 120 70" />
        <path d="M 136.6 50 L 136.6 60" />
        <path d="M 153.2 50 L 153.2 60" />
        <path d="M 169.8 50 L 169.8 60" />
        <path d="M 186.4 50 L 186.4 60" />
        <path d="M 203 50 L 203 60" />
        <path d="M 219.6 50 L 219.6 60" />
        <path d="M 236.2 50 L 236.2 60" />
        <path d="M 252.8 50 L 252.8 60" />
        <path d="M 269.4 50 L 269.4 60" />
        <path d="M 286 50 L 286 70" />
        <path d="M 302.6 50 L 302.6 60" />
        <path d="M 319.2 50 L 319.2 60" />
        <path d="M 335.8 50 L 335.8 60" />
        <path d="M 352.4 50 L 352.4 60" />
        <path d="M 369 50 L 369 60" />
        <path d="M 385.6 50 L 385.6 60" />
        <path d="M 402.2 50 L 402.2 60" />
        <path d="M 418.8 50 L 418.8 60" />
        <path d="M 435.4 50 L 435.4 60" />
        <path d="M 452 50 L 452 70" />
        <path d="M 468.6 50 L 468.6 60" />
        <path d="M 485.2 50 L 485.2 60" />
        <path d="M 501.8 50 L 501.8 60" />
        <path d="M 518.4 50 L 518.4 60" />
        <path d="M 535 50 L 535 60" />
        <path d="M 551.6 50 L 551.6 60" />
        <path d="M 568.2 50 L 568.2 60" />
        <path d="M 584.8 50 L 584.8 60" />
        <path d="M 601.4 50 L 601.4 60" />
        <path d="M 618 50 L 618 70" />
        <path d="M 634.6 50 L 634.6 60" />
        <path d="M 651.2 50 L 651.2 60" />
        <path d="M 667.8 50 L 667.8 60" />
        <path d="M 684.4 50 L 684.4 60" />
        <path d="M 701 50 L 701 60" />
        <path d="M 717.6 50 L 717.6 60" />
        <path d="M 734.2 50 L 734.2 60" />
        <path d="M 750.8 50 L 750.8 60" />
        <path d="M 767.4 50 L 767.4 60" />
        <path d="M 784 50 L 784 70" />
        <path d="M 800.6 50 L 800.6 60" />
        <path d="M 817.2 50 L 817.2 60" />
        <path d="M 833.8 50 L 833.8 60" />
        <path d="M 850.4 50 L 850.4 60" />
        <path d="M 867 50 L 867 60" />
        <path d="M 883.6 50 L 883.6 60" />
        <path d="M 900.2 50 L 900.2 60" />
        <path d="M 916.8 50 L 916.8 60" />
        <path d="M 933.4 50 L 933.4 60" />
        <path d="M 950 50 L 950 70" />
    </g>
    <g id="frame_0_rightticks">
        <path d="M 950 755.886 L 940 755.886" />
        <path d="M 950 837.943 L 940 837.943" />
        <path d="M 950 441.333 L 940 441.333" />
        <path d="M 950 920 L 930 920" />
        <path d="M 950 126.781 L 940 126.781" />
        <path d="M 950 605.448 L 940 605.448" />
        <path d="M 950 290.895 L 940 290.895" />
        <path d="M 950 769.562 L 940 769.562" />
        <path d="M 950 455.009 L 940 455.009" />
        <path d="M 950 140.457 L 940 140.457" />
        <path d="M 950 619.124 L 940 619.124" />
        <path d="M 950 304.571 L 940 304.571" />
        <path d="M 950 783.238 L 930 783.238" />
        <path d="M 950 468.686 L 940 468.686" />
        <path d="M 950 673.829 L 940 673.829" />
        <path d="M 950 632.8 L 940 632.8" />
        <path d="M 950 906.324 L 940 906.324" />
        <path d="M 950 318.247 L 940 318.247" />
        <path d="M 950 482.362 L 940 482.362" />
        <path d="M 950 167.809 L 940 167.809" />
        <path d="M 950 646.476 L 930 646.476" />
        <path d="M 950 331.924 L 940 331.924" />
        <path d="M 950 810.59 L 940 810.59" />
        <path d="M 950 496.038 L 940 496.038" />
        <path d="M 950 181.486 L 940 181.486" />
        <path d="M 950 660.152 L 940 660.152" />
        <path d="M 950 345.6 L 940 345.6" />
        <path d="M 950 824.267 L 940 824.267" />
        <path d="M 950 509.714 L 930 509.714" />
        <path d="M 950 195.162 L 940 195.162" />
        <path d="M 950 892.648 L 940 892.648" />
        <path d="M 950 796.914 L 940 796.914" />
        <path d="M 950 359.276 L 940 359.276" />
        <path d="M 950 523.39 L 940 523.39" />
        <path d="M 950 208.838 L 940 208.838" />
        <path d="M 950 687.505 L 940 687.505" />
        <path d="M 950 372.952 L 930 372.952" />
        <path d="M 950 851.619 L 940 851.619" />
        <path d="M 950 277.219 L 940 277.219" />
        <path d="M 950 537.067 L 940 537.067" />
        <path d="M 950 222.514 L 940 222.514" />
        <path d="M 950 701.181 L 940 701.181" />
        <path d="M 950 58.3998 L 940 58.3998" />
        <path d="M 950 236.19 L 930 236.19" />
        <path d="M 950 386.628 L 940 386.628" />
        <path d="M 950 865.295 L 940 865.295" />
        <path d="M 950 72.0759 L 940 72.0759" />
        <path d="M 950 550.743 L 940 550.743" />
        <path d="M 950 878.971 L 940 878.971" />
        <path d="M 950 714.857 L 940 714.857" />
        <path d="M 950 400.305 L 940 400.305" />
        <path d="M 950 85.7521 L 940 85.7521" />
        <path d="M 950 564.419 L 940 564.419" />
        <path d="M 950 154.133 L 940 154.133" />
        <path d="M 950 249.866 L 940 249.866" />
        <path d="M 950 728.533 L 940 728.533" />
        <path d="M 950 413.981 L 940 413.981" />
        <path d="M 950 99.4283 L 930 99.4283" />
        <path d="M 950 578.095 L 940 578.095" />
        <path d="M 950 263.543 L 940 263.543" />
        <path d="M 950 742.209 L 940 742.209" />
        <path d="M 950 427.657 L 940 427.657" />
        <path d="M 950 113.105 L 940 113.105" />
        <path d="M 950 591.771 L 940 591.771" />
    </g>
</g>
</g>
</svg>
