<?xml version="1.0" standalone="no"?>
<!DOCTYPE svg PUBLIC "-//W3C//DTD SVG 1.1//EN" "http://www.w3.org/Graphics/SVG/1.1/DTD/svg11.dtd">
<svg style="stroke-linejoin:miter; stroke:black; stroke-width:2.5; text-anchor:middle; fill:none" xmlns="http://www.w3.org/2000/svg" font-family="Helvetica, Arial, FreeSans, Sans, sans, sans-serif" width="1000px" height="1000px" version="1.1" xmlns:xlink="http://www.w3.org/1999/xlink" viewBox="0 0 1000 1000">
<defs>
    <clipPath id="Histogram_0_clip">
        <rect x="120" y="50" width="830" height="870" />
    </clipPath>
    <clipPath id="Histogram_1_clip">
        <rect x="120" y="50" width="830" height="870" />
    </clipPath>
</defs>
<g id="whole_document">
<rect id="background" x="0" y="0" width="1000" height="1000" stroke="none" fill="white" />
<g id="Histogram_0" clip-path="url(#Histogram_0_clip)">
    <path d="M 120 920 L 120 530.858 L 161.5 530.858 L 161.5 894.986 L 203 894.986 L 203 129.091 L 244.5 129.091 L 244.5 623.29 L 286 623.29 L 286 856.513 L 327.5 856.513 L 327.5 920 L 369 920 L 369 920 L 410.5 920 L 410.5 920 L 452 920 L 452 920 L 493.5 920 L 493.5 920 L 535 920 L 535 920 L 576.5 920 L 576.5 920 L 618 920 L 618 920 L 659.5 920 L 659.5 920 L 701 920 L 701 920 L 742.5 920 L 742.5 920 L 784 920 L 784 920 L 825.5 920 L 825.5 920 L 867 920 L 867 920 L 908.5 920 L 908.5 920 L 950 920 L 950 920" stroke-width="3" stroke-dasharray="" stroke="black" stroke-opacity="1" fill="DodgerBlue" fill-opacity="1" />
</g>
<g id="Histogram_1" clip-path="url(#Histogram_1_clip)">
    <path d="M 120 920 L 120 920 L 161.5 920 L 161.5 920 L 203 920 L 203 129.091 L 244.5 129.091 L 244.5 623.29 L 286 623.29 L 286 856.513 L 327.5 856.513 L 327.5 920 L 369 920 L 369 920 L 410.5 920 L 410.5 920 L 452 920 L 452 920 L 493.5 920 L 493.5 920 L 535 920 L 535 920 L 576.5 920 L 576.5 920 L 618 920 L 618 920 L 659.5 920 L 659.5 920 L 701 920 L 701 920 L 742.5 920 L 742.5 920 L 784 920 L 784 920 L 825.5 920 L 825.5 920 L 867 920 L 867 920 L 908.5 920 L 908.5 920 L 950 920 L 950 920" stroke-width="3" stroke-dasharray="" stroke="black" stroke-opacity="1" fill="darkorange" fill-opacity="1" />
</g>
<g id="frame_0">
    <rect id="frame_0_border" x="120" y="50" width="830" height="870" />
    <text id="frame_0_bottomlabel" font-size="30" transform="translate(535, 989.6)" text-anchor="middle" dominant-baseline="middle" stroke="none" fill="black">microseconds</text>
    <g id="frame_0_bottomticks">
        <path d="M 120 920 L 120 900" />
        <text font-size="30" transform="translate(120, 950)" text-anchor="middle" dominant-baseline="middle" stroke="none" fill="black">0</text>
        <path d="M 136.6 920 L 136.6 910" />
        <path d="M 153.2 920 L 153.2 910" />
        <path d="M 169.8 920 L 169.8 910" />
        <path d="M 186.4 920 L 186.4 910" />
        <path d="M 203 920 L 203 910" />
        <path d="M 219.6 920 L 219.6 910" />
        <path d="M 236.2 920 L 236.2 910" />
        <path d="M 252.8 920 L 252.8 910" />
        <path d="M 269.4 920 L 269.4 910" />
        <path d="M 286 920 L 286 900" />
        <text font-size="30" transform="translate(286, 950)" text-anchor="middle" dominant-baseline="middle" stroke="none" fill="black">10</text>
        <path d="M 302.6 920 L 302.6 910" />
        <path d="M 319.2 920 L 319.2 910" />
        <path d="M 335.8 920 L 335.8 910" />
        <path d="M 352.4 920 L 352.4 910" />
        <path d="M 369 920 L 369 910" />
        <path d="M 385.6 920 L 385.6 910" />
        <path d="M 402.2 920 L 402.2 910" />
        <path d="M 418.8 920 L 418.8 910" />
        <path d="M 435.4 920 L 435.4 910" />
        <path d="M 452 920 L 452 900" />
        <text font-size="30" transform="translate(452, 950)" text-anchor="middle" dominant-baseline="middle" stroke="none" fill="black">20</text>
        <path d="M 468.6 920 L 468.6 910" />
        <path d="M 485.2 920 L 485.2 910" />
        <path d="M 501.8 920 L 501.8 910" />
        <path d="M 518.4 920 L 518.4 910" />
        <path d="M 535 920 L 535 910" />
        <path d="M 551.6 920 L 551.6 910" />
        <path d="M 568.2 920 L 568.2 910" />
        <path d="M 584.8 920 L 584.8 910" />
        <path d="M 601.4 920 L 601.4 910" />
        <path d="M 618 920 L 618 900" />
        <text font-size="30" transform="translate(618, 950)" text-anchor="middle" dominant-baseline="middle" stroke="none" fill="black">30</text>
        <path d="M 634.6 920 L 634.6 910" />
        <path d="M 651.2 920 L 651.2 910" />
        <path d="M 667.8 920 L 667.8 910" />
        <path d="M 684.4 920 L 684.4 910" />
        <path d="M 701 920 L 701 910" />
        <path d="M 717.6 920 L 717.6 910" />
        <path d="M 734.2 920 L 734.2 910" />
        <path d="M 750.8 920 L 750.8 910" />
        <path d="M 767.4 920 L 767.4 910" />
        <path d="M 784 920 L 784 900" />
        <text font-size="30" transform="translate(784, 950)" text-anchor="middle" dominant-baseline="middle" stroke="none" fill="black">40</text>
        <path d="M 800.6 920 L 800.6 910" />
        <path d="M 817.2 920 L 817.2 910" />
        <path d="M 833.8 920 L 833.8 910" />
        <path d="M 850.4 920 L 850.4 910" />
        <path d="M 867 920 L 867 910" />
        <path d="M 883.6 920 L 883.6 910" />
        <path d="M 900.2 920 L 900.2 910" />
        <path d="M 916.8 920 L 916.8 910" />
        <path d="M 933.4 920 L 933.4 910" />
        <path d="M 950 920 L 950 900" />
        <text font-size="30" transform="translate(950, 950)" text-anchor="middle" dominant-baseline="middle" stroke="none" fill="black">50</text>
    </g>
    <g id="frame_0_leftticks">
        <path d="M 120 538.839 L 130 538.839" />
        <path d="M 120 348.258 L 130 348.258" />
        <path d="M 120 812.798 L 130 812.798" />
        <path d="M 120 145.767 L 130 145.767" />
        <path d="M 120 920 L 140 920" />
        <text font-size="30" transform="translate(110, 930)" text-anchor="end" dominant-baseline="middle" stroke="none" fill="black">0</text>
        <path d="M 120 705.597 L 130 705.597" />
        <path d="M 120 503.105 L 130 503.105" />
        <path d="M 120 598.395 L 130 598.395" />
        <path d="M 120 872.355 L 130 872.355" />
        <path d="M 120 467.371 L 130 467.371" />
        <path d="M 120 193.412 L 130 193.412" />
        <path d="M 120 765.153 L 130 765.153" />
        <path d="M 120 657.952 L 130 657.952" />
        <path d="M 120 431.637 L 130 431.637" />
        <path d="M 120 550.75 L 130 550.75" />
        <path d="M 120 824.71 L 130 824.71" />
        <path d="M 120 395.904 L 130 395.904" />
        <path d="M 120 264.88 L 130 264.88" />
        <path d="M 120 717.508 L 130 717.508" />
        <path d="M 120 217.234 L 130 217.234" />
        <path d="M 120 62.3877 L 130 62.3877" />
        <path d="M 120 610.307 L 130 610.307" />
        <path d="M 120 360.17 L 130 360.17" />
        <path d="M 120 884.266 L 130 884.266" />
        <path d="M 120 777.065 L 130 777.065" />
        <path d="M 120 515.016 L 130 515.016" />
        <path d="M 120 669.863 L 130 669.863" />
        <path d="M 120 681.774 L 140 681.774" />
        <text font-size="30" transform="translate(110, 691.774)" text-anchor="end" dominant-baseline="middle" stroke="none" fill="black">2000</text>
        <path d="M 120 181.501 L 130 181.501" />
        <path d="M 120 479.283 L 130 479.283" />
        <path d="M 120 110.033 L 130 110.033" />
        <path d="M 120 836.621 L 130 836.621" />
        <path d="M 120 729.419 L 130 729.419" />
        <path d="M 120 252.968 L 130 252.968" />
        <path d="M 120 288.702 L 130 288.702" />
        <path d="M 120 622.218 L 130 622.218" />
        <path d="M 120 896.177 L 130 896.177" />
        <path d="M 120 407.815 L 130 407.815" />
        <path d="M 120 788.976 L 130 788.976" />
        <path d="M 120 312.525 L 130 312.525" />
        <path d="M 120 157.678 L 130 157.678" />
        <path d="M 120 300.613 L 130 300.613" />
        <path d="M 120 372.081 L 130 372.081" />
        <path d="M 120 443.549 L 140 443.549" />
        <text font-size="30" transform="translate(110, 453.549)" text-anchor="end" dominant-baseline="middle" stroke="none" fill="black">4000</text>
        <path d="M 120 574.573 L 130 574.573" />
        <path d="M 120 800.887 L 140 800.887" />
        <text font-size="30" transform="translate(110, 810.887)" text-anchor="end" dominant-baseline="middle" stroke="none" fill="black">1000</text>
        <path d="M 120 336.347 L 130 336.347" />
        <path d="M 120 848.532 L 130 848.532" />
        <path d="M 120 526.928 L 130 526.928" />
        <path d="M 120 133.855 L 130 133.855" />
        <path d="M 120 741.331 L 130 741.331" />
        <path d="M 120 205.323 L 140 205.323" />
        <text font-size="30" transform="translate(110, 215.323)" text-anchor="end" dominant-baseline="middle" stroke="none" fill="black">6000</text>
        <path d="M 120 324.436 L 140 324.436" />
        <text font-size="30" transform="translate(110, 334.436)" text-anchor="end" dominant-baseline="middle" stroke="none" fill="black">5000</text>
        <path d="M 120 634.129 L 130 634.129" />
        <path d="M 120 491.194 L 130 491.194" />
        <path d="M 120 50.4765 L 130 50.4765" />
        <path d="M 120 908.089 L 130 908.089" />
        <path d="M 120 169.589 L 130 169.589" />
        <path d="M 120 419.726 L 130 419.726" />
        <path d="M 120 455.46 L 130 455.46" />
        <path d="M 120 74.299 L 130 74.299" />
        <path d="M 120 693.686 L 130 693.686" />
        <path d="M 120 586.484 L 130 586.484" />
        <path d="M 120 229.146 L 130 229.146" />
        <path d="M 120 562.662 L 140 562.662" />
        <text font-size="30" transform="translate(110, 572.662)" text-anchor="end" dominant-baseline="middle" stroke="none" fill="black">3000</text>
        <path d="M 120 860.444 L 130 860.444" />
        <path d="M 120 98.1216 L 130 98.1216" />
        <path d="M 120 241.057 L 130 241.057" />
        <path d="M 120 86.2103 L 140 86.2103" />
        <text font-size="30" transform="translate(110, 96.2103)" text-anchor="end" dominant-baseline="middle" stroke="none" fill="black">7000</text>
        <path d="M 120 753.242 L 130 753.242" />
        <path d="M 120 383.992 L 130 383.992" />
        <path d="M 120 646.041 L 130 646.041" />
        <path d="M 120 276.791 L 130 276.791" />
        <path d="M 120 121.944 L 130 121.944" />
    </g>
    <text id="frame_0_toplabel" font-size="30" transform="translate(535, 32.6)" text-anchor="middle" dominant-baseline="middle" stroke="none" fill="black">metric.squaredEuclidean</text>
    <g id="frame_0_topticks">
        <path d="M 120 50 L 120 70" />
        <path d="M 136.6 50 L 136.6 60" />
        <path d="M 153.2 50 L 153.2 60" />
        <path d="M 169.8 50 L 169.8 60" />
        <path d="M 186.4 50 L 186.4 60" />
        <path d="M 203 50 L 203 60" />
        <path d="M 219.6 50 L 219.6 60" />
        <path d="M 236.2 50 L 236.2 60" />
        <path d="M 252.8 50 L 252.8 60" />
        <path d="M 269.4 50 L 269.4 60" />
        <path d="M 286 50 L 286 70" />
        <path d="M 302.6 50 L 302.6 60" />
        <path d="M 319.2 50 L 319.2 60" />
        <path d="M 335.8 50 L 335.8 60" />
        <path d="M 352.4 50 L 352.4 60" />
        <path d="M 369 50 L 369 60" />
        <path d="M 385.6 50 L 385.6 60" />
        <path d="M 402.2 50 L 402.2 60" />
        <path d="M 418.8 50 L 418.8 60" />
        <path d="M 435.4 50 L 435.4 60" />
        <path d="M 452 50 L 452 70" />
        <path d="M 468.6 50 L 468.6 60" />
        <path d="M 485.2 50 L 485.2 60" />
        <path d="M 501.8 50 L 501.8 60" />
        <path d="M 518.4 50 L 518.4 60" />
        <path d="M 535 50 L 535 60" />
        <path d="M 551.6 50 L 551.6 60" />
        <path d="M 568.2 50 L 568.2 60" />
        <path d="M 584.8 50 L 584.8 60" />
        <path d="M 601.4 50 L 601.4 60" />
        <path d="M 618 50 L 618 70" />
        <path d="M 634.6 50 L 634.6 60" />
        <path d="M 651.2 50 L 651.2 60" />
        <path d="M 667.8 50 L 667.8 60" />
        <path d="M 684.4 50 L 684.4 60" />
        <path d="M 701 50 L 701 60" />
        <path d="M 717.6 50 L 717.6 60" />
        <path d="M 734.2 50 L 734.2 60" />
        <path d="M 750.8 50 L 750.8 60" />
        <path d="M 767.4 50 L 767.4 60" />
        <path d="M 784 50 L 784 70" />
        <path d="M 800.6 50 L 800.6 60" />
        <path d="M 817.2 50 L 817.2 60" />
        <path d="M 833.8 50 L 833.8 60" />
        <path d="M 850.4 50 L 850.4 60" />
        <path d="M 867 50 L 867 60" />
        <path d="M 883.6 50 L 883.6 60" />
        <path d="M 900.2 50 L 900.2 60" />
        <path d="M 916.8 50 L 916.8 60" />
        <path d="M 933.4 50 L 933.4 60" />
        <path d="M 950 50 L 950 70" />
    </g>
    <g id="frame_0_rightticks">
        <path d="M 950 538.839 L 940 538.839" />
        <path d="M 950 348.258 L 940 348.258" />
        <path d="M 950 812.798 L 940 812.798" />
        <path d="M 950 145.767 L 940 145.767" />
        <path d="M 950 920 L 930 920" />
        <path d="M 950 705.597 L 940 705.597" />
        <path d="M 950 503.105 L 940 503.105" />
        <path d="M 950 598.395 L 940 598.395" />
        <path d="M 950 872.355 L 940 872.355" />
        <path d="M 950 467.371 L 940 467.371" />
        <path d="M 950 193.412 L 940 193.412" />
        <path d="M 950 765.153 L 940 765.153" />
        <path d="M 950 657.952 L 940 657.952" />
        <path d="M 950 431.637 L 940 431.637" />
        <path d="M 950 550.75 L 940 550.75" />
        <path d="M 950 824.71 L 940 824.71" />
        <path d="M 950 395.904 L 940 395.904" />
        <path d="M 950 264.88 L 940 264.88" />
        <path d="M 950 717.508 L 940 717.508" />
        <path d="M 950 217.234 L 940 217.234" />
        <path d="M 950 62.3877 L 940 62.3877" />
        <path d="M 950 610.307 L 940 610.307" />
        <path d="M 950 360.17 L 940 360.17" />
        <path d="M 950 884.266 L 940 884.266" />
        <path d="M 950 777.065 L 940 777.065" />
        <path d="M 950 515.016 L 940 515.016" />
        <path d="M 950 669.863 L 940 669.863" />
        <path d="M 950 681.774 L 930 681.774" />
        <path d="M 950 181.501 L 940 181.501" />
        <path d="M 950 479.283 L 940 479.283" />
        <path d="M 950 110.033 L 940 110.033" />
        <path d="M 950 836.621 L 940 836.621" />
        <path d="M 950 729.419 L 940 729.419" />
        <path d="M 950 252.968 L 940 252.968" />
        <path d="M 950 288.702 L 940 288.702" />
        <path d="M 950 622.218 L 940 622.218" />
        <path d="M 950 896.177 L 940 896.177" />
        <path d="M 950 407.815 L 940 407.815" />
        <path d="M 950 788.976 L 940 788.976" />
        <path d="M 950 312.525 L 940 312.525" />
        <path d="M 950 157.678 L 940 157.678" />
        <path d="M 950 300.613 L 940 300.613" />
        <path d="M 950 372.081 L 940 372.081" />
        <path d="M 950 443.549 L 930 443.549" />
        <path d="M 950 574.573 L 940 574.573" />
        <path d="M 950 800.887 L 930 800.887" />
        <path d="M 950 336.347 L 940 336.347" />
        <path d="M 950 848.532 L 940 848.532" />
        <path d="M 950 526.928 L 940 526.928" />
        <path d="M 950 133.855 L 940 133.855" />
        <path d="M 950 741.331 L 940 741.331" />
        <path d="M 950 205.323 L 930 205.323" />
        <path d="M 950 324.436 L 930 324.436" />
        <path d="M 950 634.129 L 940 634.129" />
        <path d="M 950 491.194 L 940 491.194" />
        <path d="M 950 50.4765 L 940 50.4765" />
        <path d="M 950 908.089 L 940 908.089" />
        <path d="M 950 169.589 L 940 169.589" />
        <path d="M 950 419.726 L 940 419.726" />
        <path d="M 950 455.46 L 940 455.46" />
        <path d="M 950 74.299 L 940 74.299" />
        <path d="M 950 693.686 L 940 693.686" />
        <path d="M 950 586.484 L 940 586.484" />
        <path d="M 950 229.146 L 940 229.146" />
        <path d="M 950 562.662 L 930 562.662" />
        <path d="M 950 860.444 L 940 860.444" />
        <path d="M 950 98.1216 L 940 98.1216" />
        <path d="M 950 241.057 L 940 241.057" />
        <path d="M 950 86.2103 L 930 86.2103" />
        <path d="M 950 753.242 L 940 753.242" />
        <path d="M 950 383.992 L 940 383.992" />
        <path d="M 950 646.041 L 940 646.041" />
        <path d="M 950 276.791 L 940 276.791" />
        <path d="M 950 121.944 L 940 121.944" />
    </g>
</g>
</g>
</svg>
