<?xml version="1.0" standalone="no"?>
<!DOCTYPE svg PUBLIC "-//W3C//DTD SVG 1.1//EN" "http://www.w3.org/Graphics/SVG/1.1/DTD/svg11.dtd">
<svg style="stroke-linejoin:miter; stroke:black; stroke-width:2.5; text-anchor:middle; fill:none" xmlns="http://www.w3.org/2000/svg" font-family="Helvetica, Arial, FreeSans, Sans, sans, sans-serif" width="1000px" height="1000px" version="1.1" xmlns:xlink="http://www.w3.org/1999/xlink" viewBox="0 0 1000 1000">
<defs>
    <clipPath id="Histogram_0_clip">
        <rect x="120" y="50" width="830" height="870" />
    </clipPath>
    <clipPath id="Histogram_1_clip">
        <rect x="120" y="50" width="830" height="870" />
    </clipPath>
</defs>
<g id="whole_document">
<rect id="background" x="0" y="0" width="1000" height="1000" stroke="none" fill="white" />
<g id="Histogram_0" clip-path="url(#Histogram_0_clip)">
    <path d="M 120 920 L 120 579.774 L 161.5 579.774 L 161.5 893.297 L 203 893.297 L 203 920 L 244.5 920 L 244.5 129.091 L 286 129.091 L 286 906.427 L 327.5 906.427 L 327.5 912.623 L 369 912.623 L 369 917.212 L 410.5 917.212 L 410.5 917.551 L 452 917.551 L 452 919.307 L 493.5 919.307 L 493.5 920 L 535 920 L 535 920 L 576.5 920 L 576.5 920 L 618 920 L 618 920 L 659.5 920 L 659.5 920 L 701 920 L 701 920 L 742.5 920 L 742.5 920 L 784 920 L 784 920 L 825.5 920 L 825.5 920 L 867 920 L 867 920 L 908.5 920 L 908.5 920 L 950 920 L 950 920" stroke-width="3" stroke-dasharray="" stroke="black" stroke-opacity="1" fill="DodgerBlue" fill-opacity="1" />
</g>
<g id="Histogram_1" clip-path="url(#Histogram_1_clip)">
    <path d="M 120 920 L 120 920 L 161.5 920 L 161.5 920 L 203 920 L 203 920 L 244.5 920 L 244.5 129.091 L 286 129.091 L 286 906.427 L 327.5 906.427 L 327.5 912.623 L 369 912.623 L 369 917.212 L 410.5 917.212 L 410.5 917.551 L 452 917.551 L 452 919.307 L 493.5 919.307 L 493.5 920 L 535 920 L 535 920 L 576.5 920 L 576.5 920 L 618 920 L 618 920 L 659.5 920 L 659.5 920 L 701 920 L 701 920 L 742.5 920 L 742.5 920 L 784 920 L 784 920 L 825.5 920 L 825.5 920 L 867 920 L 867 920 L 908.5 920 L 908.5 920 L 950 920 L 950 920" stroke-width="3" stroke-dasharray="" stroke="black" stroke-opacity="1" fill="darkorange" fill-opacity="1" />
</g>
<g id="frame_0">
    <rect id="frame_0_border" x="120" y="50" width="830" height="870" />
    <text id="frame_0_bottomlabel" font-size="30" transform="translate(535, 989.6)" text-anchor="middle" dominant-baseline="middle" stroke="none" fill="black">microseconds</text>
    <g id="frame_0_bottomticks">
        <path d="M 120 920 L 120 900" />
        <text font-size="30" transform="translate(120, 950)" text-anchor="middle" dominant-baseline="middle" stroke="none" fill="black">0</text>
        <path d="M 136.6 920 L 136.6 910" />
        <path d="M 153.2 920 L 153.2 910" />
        <path d="M 169.8 920 L 169.8 910" />
        <path d="M 186.4 920 L 186.4 910" />
        <path d="M 203 920 L 203 910" />
        <path d="M 219.6 920 L 219.6 910" />
        <path d="M 236.2 920 L 236.2 910" />
        <path d="M 252.8 920 L 252.8 910" />
        <path d="M 269.4 920 L 269.4 910" />
        <path d="M 286 920 L 286 900" />
        <text font-size="30" transform="translate(286, 950)" text-anchor="middle" dominant-baseline="middle" stroke="none" fill="black">10</text>
        <path d="M 302.6 920 L 302.6 910" />
        <path d="M 319.2 920 L 319.2 910" />
        <path d="M 335.8 920 L 335.8 910" />
        <path d="M 352.4 920 L 352.4 910" />
        <path d="M 369 920 L 369 910" />
        <path d="M 385.6 920 L 385.6 910" />
        <path d="M 402.2 920 L 402.2 910" />
        <path d="M 418.8 920 L 418.8 910" />
        <path d="M 435.4 920 L 435.4 910" />
        <path d="M 452 920 L 452 900" />
        <text font-size="30" transform="translate(452, 950)" text-anchor="middle" dominant-baseline="middle" stroke="none" fill="black">20</text>
        <path d="M 468.6 920 L 468.6 910" />
        <path d="M 485.2 920 L 485.2 910" />
        <path d="M 501.8 920 L 501.8 910" />
        <path d="M 518.4 920 L 518.4 910" />
        <path d="M 535 920 L 535 910" />
        <path d="M 551.6 920 L 551.6 910" />
        <path d="M 568.2 920 L 568.2 910" />
        <path d="M 584.8 920 L 584.8 910" />
        <path d="M 601.4 920 L 601.4 910" />
        <path d="M 618 920 L 618 900" />
        <text font-size="30" transform="translate(618, 950)" text-anchor="middle" dominant-baseline="middle" stroke="none" fill="black">30</text>
        <path d="M 634.6 920 L 634.6 910" />
        <path d="M 651.2 920 L 651.2 910" />
        <path d="M 667.8 920 L 667.8 910" />
        <path d="M 684.4 920 L 684.4 910" />
        <path d="M 701 920 L 701 910" />
        <path d="M 717.6 920 L 717.6 910" />
        <path d="M 734.2 920 L 734.2 910" />
        <path d="M 750.8 920 L 750.8 910" />
        <path d="M 767.4 920 L 767.4 910" />
        <path d="M 784 920 L 784 900" />
        <text font-size="30" transform="translate(784, 950)" text-anchor="middle" dominant-baseline="middle" stroke="none" fill="black">40</text>
        <path d="M 800.6 920 L 800.6 910" />
        <path d="M 817.2 920 L 817.2 910" />
        <path d="M 833.8 920 L 833.8 910" />
        <path d="M 850.4 920 L 850.4 910" />
        <path d="M 867 920 L 867 910" />
        <path d="M 883.6 920 L 883.6 910" />
        <path d="M 900.2 920 L 900.2 910" />
        <path d="M 916.8 920 L 916.8 910" />
        <path d="M 933.4 920 L 933.4 910" />
        <path d="M 950 920 L 950 900" />
        <text font-size="30" transform="translate(950, 950)" text-anchor="middle" dominant-baseline="middle" stroke="none" fill="black">50</text>
    </g>
    <g id="frame_0_leftticks">
        <path d="M 120 683.947 L 130 683.947" />
        <path d="M 120 565.921 L 130 565.921" />
        <path d="M 120 521.661 L 130 521.661" />
        <path d="M 120 610.181 L 130 610.181" />
        <path d="M 120 418.388 L 130 418.388" />
        <path d="M 120 79.0625 L 130 79.0625" />
        <path d="M 120 536.414 L 130 536.414" />
        <path d="M 120 816.727 L 130 816.727" />
        <path d="M 120 226.595 L 130 226.595" />
        <path d="M 120 698.701 L 130 698.701" />
        <path d="M 120 64.3092 L 130 64.3092" />
        <path d="M 120 920 L 140 920" />
        <text font-size="30" transform="translate(110, 930)" text-anchor="end" dominant-baseline="middle" stroke="none" fill="black">0</text>
        <path d="M 120 492.155 L 130 492.155" />
        <path d="M 120 462.648 L 130 462.648" />
        <path d="M 120 344.622 L 130 344.622" />
        <path d="M 120 860.987 L 130 860.987" />
        <path d="M 120 595.428 L 130 595.428" />
        <path d="M 120 270.855 L 130 270.855" />
        <path d="M 120 772.467 L 140 772.467" />
        <text font-size="30" transform="translate(110, 782.467)" text-anchor="end" dominant-baseline="middle" stroke="none" fill="black">10000</text>
        <path d="M 120 329.868 L 140 329.868" />
        <text font-size="30" transform="translate(110, 339.868)" text-anchor="end" dominant-baseline="middle" stroke="none" fill="black">40000</text>
        <path d="M 120 787.22 L 130 787.22" />
        <path d="M 120 477.401 L 140 477.401" />
        <text font-size="30" transform="translate(110, 487.401)" text-anchor="end" dominant-baseline="middle" stroke="none" fill="black">30000</text>
        <path d="M 120 388.882 L 130 388.882" />
        <path d="M 120 713.454 L 130 713.454" />
        <path d="M 120 846.234 L 130 846.234" />
        <path d="M 120 315.115 L 130 315.115" />
        <path d="M 120 639.688 L 130 639.688" />
        <path d="M 120 197.089 L 130 197.089" />
        <path d="M 120 433.141 L 130 433.141" />
        <path d="M 120 801.974 L 130 801.974" />
        <path d="M 120 506.908 L 130 506.908" />
        <path d="M 120 551.168 L 130 551.168" />
        <path d="M 120 624.934 L 140 624.934" />
        <text font-size="30" transform="translate(110, 634.934)" text-anchor="end" dominant-baseline="middle" stroke="none" fill="black">20000</text>
        <path d="M 120 728.207 L 130 728.207" />
        <path d="M 120 359.375 L 130 359.375" />
        <path d="M 120 152.829 L 130 152.829" />
        <path d="M 120 167.582 L 130 167.582" />
        <path d="M 120 890.493 L 130 890.493" />
        <path d="M 120 875.74 L 130 875.74" />
        <path d="M 120 285.609 L 130 285.609" />
        <path d="M 120 580.674 L 130 580.674" />
        <path d="M 120 138.076 L 130 138.076" />
        <path d="M 120 403.635 L 130 403.635" />
        <path d="M 120 93.8158 L 130 93.8158" />
        <path d="M 120 742.961 L 130 742.961" />
        <path d="M 120 654.441 L 130 654.441" />
        <path d="M 120 211.842 L 130 211.842" />
        <path d="M 120 123.322 L 130 123.322" />
        <path d="M 120 905.247 L 130 905.247" />
        <path d="M 120 300.362 L 130 300.362" />
        <path d="M 120 447.895 L 130 447.895" />
        <path d="M 120 831.48 L 130 831.48" />
        <path d="M 120 669.194 L 130 669.194" />
        <path d="M 120 108.569 L 130 108.569" />
        <path d="M 120 256.102 L 130 256.102" />
        <path d="M 120 182.336 L 140 182.336" />
        <text font-size="30" transform="translate(110, 192.336)" text-anchor="end" dominant-baseline="middle" stroke="none" fill="black">50000</text>
        <path d="M 120 757.714 L 130 757.714" />
        <path d="M 120 374.128 L 130 374.128" />
        <path d="M 120 241.349 L 130 241.349" />
    </g>
    <text id="frame_0_toplabel" font-size="30" transform="translate(535, 32.6)" text-anchor="middle" dominant-baseline="middle" stroke="none" fill="black">prob.dist.geometricQF</text>
    <g id="frame_0_topticks">
        <path d="M 120 50 L 120 70" />
        <path d="M 136.6 50 L 136.6 60" />
        <path d="M 153.2 50 L 153.2 60" />
        <path d="M 169.8 50 L 169.8 60" />
        <path d="M 186.4 50 L 186.4 60" />
        <path d="M 203 50 L 203 60" />
        <path d="M 219.6 50 L 219.6 60" />
        <path d="M 236.2 50 L 236.2 60" />
        <path d="M 252.8 50 L 252.8 60" />
        <path d="M 269.4 50 L 269.4 60" />
        <path d="M 286 50 L 286 70" />
        <path d="M 302.6 50 L 302.6 60" />
        <path d="M 319.2 50 L 319.2 60" />
        <path d="M 335.8 50 L 335.8 60" />
        <path d="M 352.4 50 L 352.4 60" />
        <path d="M 369 50 L 369 60" />
        <path d="M 385.6 50 L 385.6 60" />
        <path d="M 402.2 50 L 402.2 60" />
        <path d="M 418.8 50 L 418.8 60" />
        <path d="M 435.4 50 L 435.4 60" />
        <path d="M 452 50 L 452 70" />
        <path d="M 468.6 50 L 468.6 60" />
        <path d="M 485.2 50 L 485.2 60" />
        <path d="M 501.8 50 L 501.8 60" />
        <path d="M 518.4 50 L 518.4 60" />
        <path d="M 535 50 L 535 60" />
        <path d="M 551.6 50 L 551.6 60" />
        <path d="M 568.2 50 L 568.2 60" />
        <path d="M 584.8 50 L 584.8 60" />
        <path d="M 601.4 50 L 601.4 60" />
        <path d="M 618 50 L 618 70" />
        <path d="M 634.6 50 L 634.6 60" />
        <path d="M 651.2 50 L 651.2 60" />
        <path d="M 667.8 50 L 667.8 60" />
        <path d="M 684.4 50 L 684.4 60" />
        <path d="M 701 50 L 701 60" />
        <path d="M 717.6 50 L 717.6 60" />
        <path d="M 734.2 50 L 734.2 60" />
        <path d="M 750.8 50 L 750.8 60" />
        <path d="M 767.4 50 L 767.4 60" />
        <path d="M 784 50 L 784 70" />
        <path d="M 800.6 50 L 800.6 60" />
        <path d="M 817.2 50 L 817.2 60" />
        <path d="M 833.8 50 L 833.8 60" />
        <path d="M 850.4 50 L 850.4 60" />
        <path d="M 867 50 L 867 60" />
        <path d="M 883.6 50 L 883.6 60" />
        <path d="M 900.2 50 L 900.2 60" />
        <path d="M 916.8 50 L 916.8 60" />
        <path d="M 933.4 50 L 933.4 60" />
        <path d="M 950 50 L 950 70" />
    </g>
    <g id="frame_0_rightticks">
        <path d="M 950 683.947 L 940 683.947" />
        <path d="M 950 565.921 L 940 565.921" />
        <path d="M 950 521.661 L 940 521.661" />
        <path d="M 950 610.181 L 940 610.181" />
        <path d="M 950 418.388 L 940 418.388" />
        <path d="M 950 79.0625 L 940 79.0625" />
        <path d="M 950 536.414 L 940 536.414" />
        <path d="M 950 816.727 L 940 816.727" />
        <path d="M 950 226.595 L 940 226.595" />
        <path d="M 950 698.701 L 940 698.701" />
        <path d="M 950 64.3092 L 940 64.3092" />
        <path d="M 950 920 L 930 920" />
        <path d="M 950 492.155 L 940 492.155" />
        <path d="M 950 462.648 L 940 462.648" />
        <path d="M 950 344.622 L 940 344.622" />
        <path d="M 950 860.987 L 940 860.987" />
        <path d="M 950 595.428 L 940 595.428" />
        <path d="M 950 270.855 L 940 270.855" />
        <path d="M 950 772.467 L 930 772.467" />
        <path d="M 950 329.868 L 930 329.868" />
        <path d="M 950 787.22 L 940 787.22" />
        <path d="M 950 477.401 L 930 477.401" />
        <path d="M 950 388.882 L 940 388.882" />
        <path d="M 950 713.454 L 940 713.454" />
        <path d="M 950 846.234 L 940 846.234" />
        <path d="M 950 315.115 L 940 315.115" />
        <path d="M 950 639.688 L 940 639.688" />
        <path d="M 950 197.089 L 940 197.089" />
        <path d="M 950 433.141 L 940 433.141" />
        <path d="M 950 801.974 L 940 801.974" />
        <path d="M 950 506.908 L 940 506.908" />
        <path d="M 950 551.168 L 940 551.168" />
        <path d="M 950 624.934 L 930 624.934" />
        <path d="M 950 728.207 L 940 728.207" />
        <path d="M 950 359.375 L 940 359.375" />
        <path d="M 950 152.829 L 940 152.829" />
        <path d="M 950 167.582 L 940 167.582" />
        <path d="M 950 890.493 L 940 890.493" />
        <path d="M 950 875.74 L 940 875.74" />
        <path d="M 950 285.609 L 940 285.609" />
        <path d="M 950 580.674 L 940 580.674" />
        <path d="M 950 138.076 L 940 138.076" />
        <path d="M 950 403.635 L 940 403.635" />
        <path d="M 950 93.8158 L 940 93.8158" />
        <path d="M 950 742.961 L 940 742.961" />
        <path d="M 950 654.441 L 940 654.441" />
        <path d="M 950 211.842 L 940 211.842" />
        <path d="M 950 123.322 L 940 123.322" />
        <path d="M 950 905.247 L 940 905.247" />
        <path d="M 950 300.362 L 940 300.362" />
        <path d="M 950 447.895 L 940 447.895" />
        <path d="M 950 831.48 L 940 831.48" />
        <path d="M 950 669.194 L 940 669.194" />
        <path d="M 950 108.569 L 940 108.569" />
        <path d="M 950 256.102 L 940 256.102" />
        <path d="M 950 182.336 L 930 182.336" />
        <path d="M 950 757.714 L 940 757.714" />
        <path d="M 950 374.128 L 940 374.128" />
        <path d="M 950 241.349 L 940 241.349" />
    </g>
</g>
</g>
</svg>
