<?xml version="1.0" standalone="no"?>
<!DOCTYPE svg PUBLIC "-//W3C//DTD SVG 1.1//EN" "http://www.w3.org/Graphics/SVG/1.1/DTD/svg11.dtd">
<svg style="stroke-linejoin:miter; stroke:black; stroke-width:2.5; text-anchor:middle; fill:none" xmlns="http://www.w3.org/2000/svg" font-family="Helvetica, Arial, FreeSans, Sans, sans, sans-serif" width="1000px" height="1000px" version="1.1" xmlns:xlink="http://www.w3.org/1999/xlink" viewBox="0 0 1000 1000">
<defs>
    <clipPath id="Histogram_0_clip">
        <rect x="120" y="50" width="830" height="870" />
    </clipPath>
    <clipPath id="Histogram_1_clip">
        <rect x="120" y="50" width="830" height="870" />
    </clipPath>
</defs>
<g id="whole_document">
<rect id="background" x="0" y="0" width="1000" height="1000" stroke="none" fill="white" />
<g id="Histogram_0" clip-path="url(#Histogram_0_clip)">
    <path d="M 120 920 L 120 485.325 L 161.5 485.325 L 161.5 919.045 L 203 919.045 L 203 920 L 244.5 920 L 244.5 129.091 L 286 129.091 L 286 915.96 L 327.5 915.96 L 327.5 918.869 L 369 918.869 L 369 915.231 L 410.5 915.231 L 410.5 915.436 L 452 915.436 L 452 910.736 L 493.5 910.736 L 493.5 919.755 L 535 919.755 L 535 919.772 L 576.5 919.772 L 576.5 920 L 618 920 L 618 920 L 659.5 920 L 659.5 920 L 701 920 L 701 920 L 742.5 920 L 742.5 920 L 784 920 L 784 920 L 825.5 920 L 825.5 920 L 867 920 L 867 920 L 908.5 920 L 908.5 920 L 950 920 L 950 920" stroke-width="3" stroke-dasharray="" stroke="black" stroke-opacity="1" fill="DodgerBlue" fill-opacity="1" />
</g>
<g id="Histogram_1" clip-path="url(#Histogram_1_clip)">
    <path d="M 120 920 L 120 920 L 161.5 920 L 161.5 920 L 203 920 L 203 920 L 244.5 920 L 244.5 129.091 L 286 129.091 L 286 915.96 L 327.5 915.96 L 327.5 918.869 L 369 918.869 L 369 915.231 L 410.5 915.231 L 410.5 919.844 L 452 919.844 L 452 920 L 493.5 920 L 493.5 919.937 L 535 919.937 L 535 919.944 L 576.5 919.944 L 576.5 920 L 618 920 L 618 920 L 659.5 920 L 659.5 920 L 701 920 L 701 920 L 742.5 920 L 742.5 920 L 784 920 L 784 920 L 825.5 920 L 825.5 920 L 867 920 L 867 920 L 908.5 920 L 908.5 920 L 950 920 L 950 920" stroke-width="3" stroke-dasharray="" stroke="black" stroke-opacity="1" fill="darkorange" fill-opacity="1" />
</g>
<g id="frame_0">
    <rect id="frame_0_border" x="120" y="50" width="830" height="870" />
    <text id="frame_0_bottomlabel" font-size="30" transform="translate(535, 989.6)" text-anchor="middle" dominant-baseline="middle" stroke="none" fill="black">microseconds</text>
    <g id="frame_0_bottomticks">
        <path d="M 120 920 L 120 900" />
        <text font-size="30" transform="translate(120, 950)" text-anchor="middle" dominant-baseline="middle" stroke="none" fill="black">0</text>
        <path d="M 136.6 920 L 136.6 910" />
        <path d="M 153.2 920 L 153.2 910" />
        <path d="M 169.8 920 L 169.8 910" />
        <path d="M 186.4 920 L 186.4 910" />
        <path d="M 203 920 L 203 910" />
        <path d="M 219.6 920 L 219.6 910" />
        <path d="M 236.2 920 L 236.2 910" />
        <path d="M 252.8 920 L 252.8 910" />
        <path d="M 269.4 920 L 269.4 910" />
        <path d="M 286 920 L 286 900" />
        <text font-size="30" transform="translate(286, 950)" text-anchor="middle" dominant-baseline="middle" stroke="none" fill="black">10</text>
        <path d="M 302.6 920 L 302.6 910" />
        <path d="M 319.2 920 L 319.2 910" />
        <path d="M 335.8 920 L 335.8 910" />
        <path d="M 352.4 920 L 352.4 910" />
        <path d="M 369 920 L 369 910" />
        <path d="M 385.6 920 L 385.6 910" />
        <path d="M 402.2 920 L 402.2 910" />
        <path d="M 418.8 920 L 418.8 910" />
        <path d="M 435.4 920 L 435.4 910" />
        <path d="M 452 920 L 452 900" />
        <text font-size="30" transform="translate(452, 950)" text-anchor="middle" dominant-baseline="middle" stroke="none" fill="black">20</text>
        <path d="M 468.6 920 L 468.6 910" />
        <path d="M 485.2 920 L 485.2 910" />
        <path d="M 501.8 920 L 501.8 910" />
        <path d="M 518.4 920 L 518.4 910" />
        <path d="M 535 920 L 535 910" />
        <path d="M 551.6 920 L 551.6 910" />
        <path d="M 568.2 920 L 568.2 910" />
        <path d="M 584.8 920 L 584.8 910" />
        <path d="M 601.4 920 L 601.4 910" />
        <path d="M 618 920 L 618 900" />
        <text font-size="30" transform="translate(618, 950)" text-anchor="middle" dominant-baseline="middle" stroke="none" fill="black">30</text>
        <path d="M 634.6 920 L 634.6 910" />
        <path d="M 651.2 920 L 651.2 910" />
        <path d="M 667.8 920 L 667.8 910" />
        <path d="M 684.4 920 L 684.4 910" />
        <path d="M 701 920 L 701 910" />
        <path d="M 717.6 920 L 717.6 910" />
        <path d="M 734.2 920 L 734.2 910" />
        <path d="M 750.8 920 L 750.8 910" />
        <path d="M 767.4 920 L 767.4 910" />
        <path d="M 784 920 L 784 900" />
        <text font-size="30" transform="translate(784, 950)" text-anchor="middle" dominant-baseline="middle" stroke="none" fill="black">40</text>
        <path d="M 800.6 920 L 800.6 910" />
        <path d="M 817.2 920 L 817.2 910" />
        <path d="M 833.8 920 L 833.8 910" />
        <path d="M 850.4 920 L 850.4 910" />
        <path d="M 867 920 L 867 910" />
        <path d="M 883.6 920 L 883.6 910" />
        <path d="M 900.2 920 L 900.2 910" />
        <path d="M 916.8 920 L 916.8 910" />
        <path d="M 933.4 920 L 933.4 910" />
        <path d="M 950 920 L 950 900" />
        <text font-size="30" transform="translate(950, 950)" text-anchor="middle" dominant-baseline="middle" stroke="none" fill="black">50</text>
    </g>
    <g id="frame_0_leftticks">
        <path d="M 120 804.735 L 130 804.735" />
        <path d="M 120 747.103 L 130 747.103" />
        <path d="M 120 545.39 L 130 545.39" />
        <path d="M 120 242.82 L 130 242.82" />
        <path d="M 120 920 L 140 920" />
        <text font-size="30" transform="translate(110, 930)" text-anchor="end" dominant-baseline="middle" stroke="none" fill="black">0</text>
        <path d="M 120 617.43 L 130 617.43" />
        <path d="M 120 314.86 L 130 314.86" />
        <path d="M 120 689.471 L 130 689.471" />
        <path d="M 120 790.327 L 130 790.327" />
        <path d="M 120 84.3307 L 130 84.3307" />
        <path d="M 120 458.941 L 130 458.941" />
        <path d="M 120 156.371 L 130 156.371" />
        <path d="M 120 530.982 L 130 530.982" />
        <path d="M 120 905.592 L 130 905.592" />
        <path d="M 120 891.184 L 130 891.184" />
        <path d="M 120 761.511 L 130 761.511" />
        <path d="M 120 300.452 L 130 300.452" />
        <path d="M 120 372.493 L 130 372.493" />
        <path d="M 120 141.963 L 130 141.963" />
        <path d="M 120 69.9226 L 130 69.9226" />
        <path d="M 120 444.533 L 130 444.533" />
        <path d="M 120 876.776 L 130 876.776" />
        <path d="M 120 847.96 L 130 847.96" />
        <path d="M 120 516.573 L 130 516.573" />
        <path d="M 120 214.004 L 130 214.004" />
        <path d="M 120 588.614 L 130 588.614" />
        <path d="M 120 819.143 L 130 819.143" />
        <path d="M 120 286.044 L 130 286.044" />
        <path d="M 120 660.654 L 130 660.654" />
        <path d="M 120 862.368 L 130 862.368" />
        <path d="M 120 603.022 L 130 603.022" />
        <path d="M 120 358.084 L 130 358.084" />
        <path d="M 120 55.5146 L 140 55.5146" />
        <text font-size="30" transform="translate(110, 65.5146)" text-anchor="end" dominant-baseline="middle" stroke="none" fill="black">600000</text>
        <path d="M 120 430.125 L 130 430.125" />
        <path d="M 120 127.555 L 130 127.555" />
        <path d="M 120 502.165 L 130 502.165" />
        <path d="M 120 199.595 L 140 199.595" />
        <text font-size="30" transform="translate(110, 209.595)" text-anchor="end" dominant-baseline="middle" stroke="none" fill="black">500000</text>
        <path d="M 120 732.695 L 130 732.695" />
        <path d="M 120 574.206 L 130 574.206" />
        <path d="M 120 271.636 L 130 271.636" />
        <path d="M 120 646.246 L 130 646.246" />
        <path d="M 120 343.676 L 140 343.676" />
        <text font-size="30" transform="translate(110, 353.676)" text-anchor="end" dominant-baseline="middle" stroke="none" fill="black">400000</text>
        <path d="M 120 718.287 L 130 718.287" />
        <path d="M 120 415.717 L 130 415.717" />
        <path d="M 120 833.551 L 130 833.551" />
        <path d="M 120 675.062 L 130 675.062" />
        <path d="M 120 113.147 L 130 113.147" />
        <path d="M 120 487.757 L 140 487.757" />
        <text font-size="30" transform="translate(110, 497.757)" text-anchor="end" dominant-baseline="middle" stroke="none" fill="black">300000</text>
        <path d="M 120 386.901 L 130 386.901" />
        <path d="M 120 559.798 L 130 559.798" />
        <path d="M 120 228.412 L 130 228.412" />
        <path d="M 120 257.228 L 130 257.228" />
        <path d="M 120 703.879 L 130 703.879" />
        <path d="M 120 329.268 L 130 329.268" />
        <path d="M 120 631.838 L 140 631.838" />
        <text font-size="30" transform="translate(110, 641.838)" text-anchor="end" dominant-baseline="middle" stroke="none" fill="black">200000</text>
        <path d="M 120 185.187 L 130 185.187" />
        <path d="M 120 401.309 L 130 401.309" />
        <path d="M 120 98.7388 L 130 98.7388" />
        <path d="M 120 775.919 L 140 775.919" />
        <text font-size="30" transform="translate(110, 785.919)" text-anchor="end" dominant-baseline="middle" stroke="none" fill="black">100000</text>
        <path d="M 120 170.779 L 130 170.779" />
        <path d="M 120 473.349 L 130 473.349" />
    </g>
    <text id="frame_0_toplabel" font-size="30" transform="translate(535, 32.6)" text-anchor="middle" dominant-baseline="middle" stroke="none" fill="black">prob.dist.binomialCDF</text>
    <g id="frame_0_topticks">
        <path d="M 120 50 L 120 70" />
        <path d="M 136.6 50 L 136.6 60" />
        <path d="M 153.2 50 L 153.2 60" />
        <path d="M 169.8 50 L 169.8 60" />
        <path d="M 186.4 50 L 186.4 60" />
        <path d="M 203 50 L 203 60" />
        <path d="M 219.6 50 L 219.6 60" />
        <path d="M 236.2 50 L 236.2 60" />
        <path d="M 252.8 50 L 252.8 60" />
        <path d="M 269.4 50 L 269.4 60" />
        <path d="M 286 50 L 286 70" />
        <path d="M 302.6 50 L 302.6 60" />
        <path d="M 319.2 50 L 319.2 60" />
        <path d="M 335.8 50 L 335.8 60" />
        <path d="M 352.4 50 L 352.4 60" />
        <path d="M 369 50 L 369 60" />
        <path d="M 385.6 50 L 385.6 60" />
        <path d="M 402.2 50 L 402.2 60" />
        <path d="M 418.8 50 L 418.8 60" />
        <path d="M 435.4 50 L 435.4 60" />
        <path d="M 452 50 L 452 70" />
        <path d="M 468.6 50 L 468.6 60" />
        <path d="M 485.2 50 L 485.2 60" />
        <path d="M 501.8 50 L 501.8 60" />
        <path d="M 518.4 50 L 518.4 60" />
        <path d="M 535 50 L 535 60" />
        <path d="M 551.6 50 L 551.6 60" />
        <path d="M 568.2 50 L 568.2 60" />
        <path d="M 584.8 50 L 584.8 60" />
        <path d="M 601.4 50 L 601.4 60" />
        <path d="M 618 50 L 618 70" />
        <path d="M 634.6 50 L 634.6 60" />
        <path d="M 651.2 50 L 651.2 60" />
        <path d="M 667.8 50 L 667.8 60" />
        <path d="M 684.4 50 L 684.4 60" />
        <path d="M 701 50 L 701 60" />
        <path d="M 717.6 50 L 717.6 60" />
        <path d="M 734.2 50 L 734.2 60" />
        <path d="M 750.8 50 L 750.8 60" />
        <path d="M 767.4 50 L 767.4 60" />
        <path d="M 784 50 L 784 70" />
        <path d="M 800.6 50 L 800.6 60" />
        <path d="M 817.2 50 L 817.2 60" />
        <path d="M 833.8 50 L 833.8 60" />
        <path d="M 850.4 50 L 850.4 60" />
        <path d="M 867 50 L 867 60" />
        <path d="M 883.6 50 L 883.6 60" />
        <path d="M 900.2 50 L 900.2 60" />
        <path d="M 916.8 50 L 916.8 60" />
        <path d="M 933.4 50 L 933.4 60" />
        <path d="M 950 50 L 950 70" />
    </g>
    <g id="frame_0_rightticks">
        <path d="M 950 804.735 L 940 804.735" />
        <path d="M 950 747.103 L 940 747.103" />
        <path d="M 950 545.39 L 940 545.39" />
        <path d="M 950 242.82 L 940 242.82" />
        <path d="M 950 920 L 930 920" />
        <path d="M 950 617.43 L 940 617.43" />
        <path d="M 950 314.86 L 940 314.86" />
        <path d="M 950 689.471 L 940 689.471" />
        <path d="M 950 790.327 L 940 790.327" />
        <path d="M 950 84.3307 L 940 84.3307" />
        <path d="M 950 458.941 L 940 458.941" />
        <path d="M 950 156.371 L 940 156.371" />
        <path d="M 950 530.982 L 940 530.982" />
        <path d="M 950 905.592 L 940 905.592" />
        <path d="M 950 891.184 L 940 891.184" />
        <path d="M 950 761.511 L 940 761.511" />
        <path d="M 950 300.452 L 940 300.452" />
        <path d="M 950 372.493 L 940 372.493" />
        <path d="M 950 141.963 L 940 141.963" />
        <path d="M 950 69.9226 L 940 69.9226" />
        <path d="M 950 444.533 L 940 444.533" />
        <path d="M 950 876.776 L 940 876.776" />
        <path d="M 950 847.96 L 940 847.96" />
        <path d="M 950 516.573 L 940 516.573" />
        <path d="M 950 214.004 L 940 214.004" />
        <path d="M 950 588.614 L 940 588.614" />
        <path d="M 950 819.143 L 940 819.143" />
        <path d="M 950 286.044 L 940 286.044" />
        <path d="M 950 660.654 L 940 660.654" />
        <path d="M 950 862.368 L 940 862.368" />
        <path d="M 950 603.022 L 940 603.022" />
        <path d="M 950 358.084 L 940 358.084" />
        <path d="M 950 55.5146 L 930 55.5146" />
        <path d="M 950 430.125 L 940 430.125" />
        <path d="M 950 127.555 L 940 127.555" />
        <path d="M 950 502.165 L 940 502.165" />
        <path d="M 950 199.595 L 930 199.595" />
        <path d="M 950 732.695 L 940 732.695" />
        <path d="M 950 574.206 L 940 574.206" />
        <path d="M 950 271.636 L 940 271.636" />
        <path d="M 950 646.246 L 940 646.246" />
        <path d="M 950 343.676 L 930 343.676" />
        <path d="M 950 718.287 L 940 718.287" />
        <path d="M 950 415.717 L 940 415.717" />
        <path d="M 950 833.551 L 940 833.551" />
        <path d="M 950 675.062 L 940 675.062" />
        <path d="M 950 113.147 L 940 113.147" />
        <path d="M 950 487.757 L 930 487.757" />
        <path d="M 950 386.901 L 940 386.901" />
        <path d="M 950 559.798 L 940 559.798" />
        <path d="M 950 228.412 L 940 228.412" />
        <path d="M 950 257.228 L 940 257.228" />
        <path d="M 950 703.879 L 940 703.879" />
        <path d="M 950 329.268 L 940 329.268" />
        <path d="M 950 631.838 L 930 631.838" />
        <path d="M 950 185.187 L 940 185.187" />
        <path d="M 950 401.309 L 940 401.309" />
        <path d="M 950 98.7388 L 940 98.7388" />
        <path d="M 950 775.919 L 930 775.919" />
        <path d="M 950 170.779 L 940 170.779" />
        <path d="M 950 473.349 L 940 473.349" />
    </g>
</g>
</g>
</svg>
