<?xml version="1.0" standalone="no"?>
<!DOCTYPE svg PUBLIC "-//W3C//DTD SVG 1.1//EN" "http://www.w3.org/Graphics/SVG/1.1/DTD/svg11.dtd">
<svg style="stroke-linejoin:miter; stroke:black; stroke-width:2.5; text-anchor:middle; fill:none" xmlns="http://www.w3.org/2000/svg" font-family="Helvetica, Arial, FreeSans, Sans, sans, sans-serif" width="1000px" height="1000px" version="1.1" xmlns:xlink="http://www.w3.org/1999/xlink" viewBox="0 0 1000 1000">
<defs>
    <clipPath id="Histogram_0_clip">
        <rect x="120" y="50" width="830" height="870" />
    </clipPath>
</defs>
<g id="whole_document">
<rect id="background" x="0" y="0" width="1000" height="1000" stroke="none" fill="white" />
<g id="Histogram_0" clip-path="url(#Histogram_0_clip)">
    <path d="M 120 920 L 120 129.091 L 161.5 129.091 L 161.5 881.835 L 203 881.835 L 203 914.266 L 244.5 914.266 L 244.5 920 L 286 920 L 286 919.785 L 327.5 919.785 L 327.5 920 L 369 920 L 369 920 L 410.5 920 L 410.5 920 L 452 920 L 452 920 L 493.5 920 L 493.5 919.883 L 535 919.883 L 535 919.902 L 576.5 919.902 L 576.5 920 L 618 920 L 618 920 L 659.5 920 L 659.5 920 L 701 920 L 701 920 L 742.5 920 L 742.5 920 L 784 920 L 784 920 L 825.5 920 L 825.5 920 L 867 920 L 867 920 L 908.5 920 L 908.5 920 L 950 920 L 950 920" stroke-width="3" stroke-dasharray="" stroke="black" stroke-opacity="1" fill="DodgerBlue" fill-opacity="1" />
</g>
<g id="frame_0">
    <rect id="frame_0_border" x="120" y="50" width="830" height="870" />
    <text id="frame_0_bottomlabel" font-size="30" transform="translate(535, 989.6)" text-anchor="middle" dominant-baseline="middle" stroke="none" fill="black">microseconds</text>
    <g id="frame_0_bottomticks">
        <path d="M 120 920 L 120 900" />
        <text font-size="30" transform="translate(120, 950)" text-anchor="middle" dominant-baseline="middle" stroke="none" fill="black">0</text>
        <path d="M 136.6 920 L 136.6 910" />
        <path d="M 153.2 920 L 153.2 910" />
        <path d="M 169.8 920 L 169.8 910" />
        <path d="M 186.4 920 L 186.4 910" />
        <path d="M 203 920 L 203 910" />
        <path d="M 219.6 920 L 219.6 910" />
        <path d="M 236.2 920 L 236.2 910" />
        <path d="M 252.8 920 L 252.8 910" />
        <path d="M 269.4 920 L 269.4 910" />
        <path d="M 286 920 L 286 900" />
        <text font-size="30" transform="translate(286, 950)" text-anchor="middle" dominant-baseline="middle" stroke="none" fill="black">10</text>
        <path d="M 302.6 920 L 302.6 910" />
        <path d="M 319.2 920 L 319.2 910" />
        <path d="M 335.8 920 L 335.8 910" />
        <path d="M 352.4 920 L 352.4 910" />
        <path d="M 369 920 L 369 910" />
        <path d="M 385.6 920 L 385.6 910" />
        <path d="M 402.2 920 L 402.2 910" />
        <path d="M 418.8 920 L 418.8 910" />
        <path d="M 435.4 920 L 435.4 910" />
        <path d="M 452 920 L 452 900" />
        <text font-size="30" transform="translate(452, 950)" text-anchor="middle" dominant-baseline="middle" stroke="none" fill="black">20</text>
        <path d="M 468.6 920 L 468.6 910" />
        <path d="M 485.2 920 L 485.2 910" />
        <path d="M 501.8 920 L 501.8 910" />
        <path d="M 518.4 920 L 518.4 910" />
        <path d="M 535 920 L 535 910" />
        <path d="M 551.6 920 L 551.6 910" />
        <path d="M 568.2 920 L 568.2 910" />
        <path d="M 584.8 920 L 584.8 910" />
        <path d="M 601.4 920 L 601.4 910" />
        <path d="M 618 920 L 618 900" />
        <text font-size="30" transform="translate(618, 950)" text-anchor="middle" dominant-baseline="middle" stroke="none" fill="black">30</text>
        <path d="M 634.6 920 L 634.6 910" />
        <path d="M 651.2 920 L 651.2 910" />
        <path d="M 667.8 920 L 667.8 910" />
        <path d="M 684.4 920 L 684.4 910" />
        <path d="M 701 920 L 701 910" />
        <path d="M 717.6 920 L 717.6 910" />
        <path d="M 734.2 920 L 734.2 910" />
        <path d="M 750.8 920 L 750.8 910" />
        <path d="M 767.4 920 L 767.4 910" />
        <path d="M 784 920 L 784 900" />
        <text font-size="30" transform="translate(784, 950)" text-anchor="middle" dominant-baseline="middle" stroke="none" fill="black">40</text>
        <path d="M 800.6 920 L 800.6 910" />
        <path d="M 817.2 920 L 817.2 910" />
        <path d="M 833.8 920 L 833.8 910" />
        <path d="M 850.4 920 L 850.4 910" />
        <path d="M 867 920 L 867 910" />
        <path d="M 883.6 920 L 883.6 910" />
        <path d="M 900.2 920 L 900.2 910" />
        <path d="M 916.8 920 L 916.8 910" />
        <path d="M 933.4 920 L 933.4 910" />
        <path d="M 950 920 L 950 900" />
        <text font-size="30" transform="translate(950, 950)" text-anchor="middle" dominant-baseline="middle" stroke="none" fill="black">50</text>
    </g>
    <g id="frame_0_leftticks">
        <path d="M 120 712.807 L 130 712.807" />
        <path d="M 120 609.21 L 130 609.21" />
        <path d="M 120 920 L 140 920" />
        <text font-size="30" transform="translate(110, 930)" text-anchor="end" dominant-baseline="middle" stroke="none" fill="black">0</text>
        <path d="M 120 376.117 L 130 376.117" />
        <path d="M 120 505.613 L 130 505.613" />
        <path d="M 120 686.907 L 130 686.907" />
        <path d="M 120 91.2263 L 130 91.2263" />
        <path d="M 120 220.722 L 130 220.722" />
        <path d="M 120 894.101 L 130 894.101" />
        <path d="M 120 868.202 L 130 868.202" />
        <path d="M 120 635.109 L 130 635.109" />
        <path d="M 120 65.3271 L 130 65.3271" />
        <path d="M 120 842.302 L 130 842.302" />
        <path d="M 120 790.504 L 140 790.504" />
        <text font-size="30" transform="translate(110, 800.504)" text-anchor="end" dominant-baseline="middle" stroke="none" fill="black">50000</text>
        <path d="M 120 194.823 L 130 194.823" />
        <path d="M 120 324.319 L 130 324.319" />
        <path d="M 120 453.815 L 130 453.815" />
        <path d="M 120 816.403 L 130 816.403" />
        <path d="M 120 246.621 L 130 246.621" />
        <path d="M 120 168.924 L 130 168.924" />
        <path d="M 120 583.311 L 130 583.311" />
        <path d="M 120 298.42 L 130 298.42" />
        <path d="M 120 427.916 L 130 427.916" />
        <path d="M 120 557.412 L 130 557.412" />
        <path d="M 120 764.605 L 130 764.605" />
        <path d="M 120 479.714 L 130 479.714" />
        <path d="M 120 143.025 L 140 143.025" />
        <text font-size="30" transform="translate(110, 153.025)" text-anchor="end" dominant-baseline="middle" stroke="none" fill="black">300000</text>
        <path d="M 120 272.521 L 140 272.521" />
        <text font-size="30" transform="translate(110, 282.521)" text-anchor="end" dominant-baseline="middle" stroke="none" fill="black">250000</text>
        <path d="M 120 738.706 L 130 738.706" />
        <path d="M 120 402.016 L 140 402.016" />
        <text font-size="30" transform="translate(110, 412.016)" text-anchor="end" dominant-baseline="middle" stroke="none" fill="black">200000</text>
        <path d="M 120 531.512 L 140 531.512" />
        <text font-size="30" transform="translate(110, 541.512)" text-anchor="end" dominant-baseline="middle" stroke="none" fill="black">150000</text>
        <path d="M 120 661.008 L 140 661.008" />
        <text font-size="30" transform="translate(110, 671.008)" text-anchor="end" dominant-baseline="middle" stroke="none" fill="black">100000</text>
        <path d="M 120 350.218 L 130 350.218" />
        <path d="M 120 117.125 L 130 117.125" />
    </g>
    <text id="frame_0_toplabel" font-size="30" transform="translate(535, 32.6)" text-anchor="middle" dominant-baseline="middle" stroke="none" fill="black">a.rindex</text>
    <g id="frame_0_topticks">
        <path d="M 120 50 L 120 70" />
        <path d="M 136.6 50 L 136.6 60" />
        <path d="M 153.2 50 L 153.2 60" />
        <path d="M 169.8 50 L 169.8 60" />
        <path d="M 186.4 50 L 186.4 60" />
        <path d="M 203 50 L 203 60" />
        <path d="M 219.6 50 L 219.6 60" />
        <path d="M 236.2 50 L 236.2 60" />
        <path d="M 252.8 50 L 252.8 60" />
        <path d="M 269.4 50 L 269.4 60" />
        <path d="M 286 50 L 286 70" />
        <path d="M 302.6 50 L 302.6 60" />
        <path d="M 319.2 50 L 319.2 60" />
        <path d="M 335.8 50 L 335.8 60" />
        <path d="M 352.4 50 L 352.4 60" />
        <path d="M 369 50 L 369 60" />
        <path d="M 385.6 50 L 385.6 60" />
        <path d="M 402.2 50 L 402.2 60" />
        <path d="M 418.8 50 L 418.8 60" />
        <path d="M 435.4 50 L 435.4 60" />
        <path d="M 452 50 L 452 70" />
        <path d="M 468.6 50 L 468.6 60" />
        <path d="M 485.2 50 L 485.2 60" />
        <path d="M 501.8 50 L 501.8 60" />
        <path d="M 518.4 50 L 518.4 60" />
        <path d="M 535 50 L 535 60" />
        <path d="M 551.6 50 L 551.6 60" />
        <path d="M 568.2 50 L 568.2 60" />
        <path d="M 584.8 50 L 584.8 60" />
        <path d="M 601.4 50 L 601.4 60" />
        <path d="M 618 50 L 618 70" />
        <path d="M 634.6 50 L 634.6 60" />
        <path d="M 651.2 50 L 651.2 60" />
        <path d="M 667.8 50 L 667.8 60" />
        <path d="M 684.4 50 L 684.4 60" />
        <path d="M 701 50 L 701 60" />
        <path d="M 717.6 50 L 717.6 60" />
        <path d="M 734.2 50 L 734.2 60" />
        <path d="M 750.8 50 L 750.8 60" />
        <path d="M 767.4 50 L 767.4 60" />
        <path d="M 784 50 L 784 70" />
        <path d="M 800.6 50 L 800.6 60" />
        <path d="M 817.2 50 L 817.2 60" />
        <path d="M 833.8 50 L 833.8 60" />
        <path d="M 850.4 50 L 850.4 60" />
        <path d="M 867 50 L 867 60" />
        <path d="M 883.6 50 L 883.6 60" />
        <path d="M 900.2 50 L 900.2 60" />
        <path d="M 916.8 50 L 916.8 60" />
        <path d="M 933.4 50 L 933.4 60" />
        <path d="M 950 50 L 950 70" />
    </g>
    <g id="frame_0_rightticks">
        <path d="M 950 712.807 L 940 712.807" />
        <path d="M 950 609.21 L 940 609.21" />
        <path d="M 950 920 L 930 920" />
        <path d="M 950 376.117 L 940 376.117" />
        <path d="M 950 505.613 L 940 505.613" />
        <path d="M 950 686.907 L 940 686.907" />
        <path d="M 950 91.2263 L 940 91.2263" />
        <path d="M 950 220.722 L 940 220.722" />
        <path d="M 950 894.101 L 940 894.101" />
        <path d="M 950 868.202 L 940 868.202" />
        <path d="M 950 635.109 L 940 635.109" />
        <path d="M 950 65.3271 L 940 65.3271" />
        <path d="M 950 842.302 L 940 842.302" />
        <path d="M 950 790.504 L 930 790.504" />
        <path d="M 950 194.823 L 940 194.823" />
        <path d="M 950 324.319 L 940 324.319" />
        <path d="M 950 453.815 L 940 453.815" />
        <path d="M 950 816.403 L 940 816.403" />
        <path d="M 950 246.621 L 940 246.621" />
        <path d="M 950 168.924 L 940 168.924" />
        <path d="M 950 583.311 L 940 583.311" />
        <path d="M 950 298.42 L 940 298.42" />
        <path d="M 950 427.916 L 940 427.916" />
        <path d="M 950 557.412 L 940 557.412" />
        <path d="M 950 764.605 L 940 764.605" />
        <path d="M 950 479.714 L 940 479.714" />
        <path d="M 950 143.025 L 930 143.025" />
        <path d="M 950 272.521 L 930 272.521" />
        <path d="M 950 738.706 L 940 738.706" />
        <path d="M 950 402.016 L 930 402.016" />
        <path d="M 950 531.512 L 930 531.512" />
        <path d="M 950 661.008 L 930 661.008" />
        <path d="M 950 350.218 L 940 350.218" />
        <path d="M 950 117.125 L 940 117.125" />
    </g>
</g>
</g>
</svg>
