<?xml version="1.0" standalone="no"?>
<!DOCTYPE svg PUBLIC "-//W3C//DTD SVG 1.1//EN" "http://www.w3.org/Graphics/SVG/1.1/DTD/svg11.dtd">
<svg style="stroke-linejoin:miter; stroke:black; stroke-width:2.5; text-anchor:middle; fill:none" xmlns="http://www.w3.org/2000/svg" font-family="Helvetica, Arial, FreeSans, Sans, sans, sans-serif" width="1000px" height="1000px" version="1.1" xmlns:xlink="http://www.w3.org/1999/xlink" viewBox="0 0 1000 1000">
<defs>
    <clipPath id="Histogram_0_clip">
        <rect x="120" y="50" width="830" height="870" />
    </clipPath>
    <clipPath id="Histogram_1_clip">
        <rect x="120" y="50" width="830" height="870" />
    </clipPath>
</defs>
<g id="whole_document">
<rect id="background" x="0" y="0" width="1000" height="1000" stroke="none" fill="white" />
<g id="Histogram_0" clip-path="url(#Histogram_0_clip)">
    <path d="M 120 920 L 120 129.091 L 161.5 129.091 L 161.5 920 L 203 920 L 203 920 L 244.5 920 L 244.5 903.299 L 286 903.299 L 286 918.007 L 327.5 918.007 L 327.5 920 L 369 920 L 369 920 L 410.5 920 L 410.5 920 L 452 920 L 452 920 L 493.5 920 L 493.5 920 L 535 920 L 535 920 L 576.5 920 L 576.5 920 L 618 920 L 618 920 L 659.5 920 L 659.5 920 L 701 920 L 701 920 L 742.5 920 L 742.5 920 L 784 920 L 784 920 L 825.5 920 L 825.5 920 L 867 920 L 867 920 L 908.5 920 L 908.5 920 L 950 920 L 950 920" stroke-width="3" stroke-dasharray="" stroke="black" stroke-opacity="1" fill="DodgerBlue" fill-opacity="1" />
</g>
<g id="Histogram_1" clip-path="url(#Histogram_1_clip)">
    <path d="M 120 920 L 120 920 L 161.5 920 L 161.5 920 L 203 920 L 203 920 L 244.5 920 L 244.5 903.299 L 286 903.299 L 286 918.007 L 327.5 918.007 L 327.5 920 L 369 920 L 369 920 L 410.5 920 L 410.5 920 L 452 920 L 452 920 L 493.5 920 L 493.5 920 L 535 920 L 535 920 L 576.5 920 L 576.5 920 L 618 920 L 618 920 L 659.5 920 L 659.5 920 L 701 920 L 701 920 L 742.5 920 L 742.5 920 L 784 920 L 784 920 L 825.5 920 L 825.5 920 L 867 920 L 867 920 L 908.5 920 L 908.5 920 L 950 920 L 950 920" stroke-width="3" stroke-dasharray="" stroke="black" stroke-opacity="1" fill="darkorange" fill-opacity="1" />
</g>
<g id="frame_0">
    <rect id="frame_0_border" x="120" y="50" width="830" height="870" />
    <text id="frame_0_bottomlabel" font-size="30" transform="translate(535, 989.6)" text-anchor="middle" dominant-baseline="middle" stroke="none" fill="black">microseconds</text>
    <g id="frame_0_bottomticks">
        <path d="M 120 920 L 120 900" />
        <text font-size="30" transform="translate(120, 950)" text-anchor="middle" dominant-baseline="middle" stroke="none" fill="black">0</text>
        <path d="M 136.6 920 L 136.6 910" />
        <path d="M 153.2 920 L 153.2 910" />
        <path d="M 169.8 920 L 169.8 910" />
        <path d="M 186.4 920 L 186.4 910" />
        <path d="M 203 920 L 203 910" />
        <path d="M 219.6 920 L 219.6 910" />
        <path d="M 236.2 920 L 236.2 910" />
        <path d="M 252.8 920 L 252.8 910" />
        <path d="M 269.4 920 L 269.4 910" />
        <path d="M 286 920 L 286 900" />
        <text font-size="30" transform="translate(286, 950)" text-anchor="middle" dominant-baseline="middle" stroke="none" fill="black">10</text>
        <path d="M 302.6 920 L 302.6 910" />
        <path d="M 319.2 920 L 319.2 910" />
        <path d="M 335.8 920 L 335.8 910" />
        <path d="M 352.4 920 L 352.4 910" />
        <path d="M 369 920 L 369 910" />
        <path d="M 385.6 920 L 385.6 910" />
        <path d="M 402.2 920 L 402.2 910" />
        <path d="M 418.8 920 L 418.8 910" />
        <path d="M 435.4 920 L 435.4 910" />
        <path d="M 452 920 L 452 900" />
        <text font-size="30" transform="translate(452, 950)" text-anchor="middle" dominant-baseline="middle" stroke="none" fill="black">20</text>
        <path d="M 468.6 920 L 468.6 910" />
        <path d="M 485.2 920 L 485.2 910" />
        <path d="M 501.8 920 L 501.8 910" />
        <path d="M 518.4 920 L 518.4 910" />
        <path d="M 535 920 L 535 910" />
        <path d="M 551.6 920 L 551.6 910" />
        <path d="M 568.2 920 L 568.2 910" />
        <path d="M 584.8 920 L 584.8 910" />
        <path d="M 601.4 920 L 601.4 910" />
        <path d="M 618 920 L 618 900" />
        <text font-size="30" transform="translate(618, 950)" text-anchor="middle" dominant-baseline="middle" stroke="none" fill="black">30</text>
        <path d="M 634.6 920 L 634.6 910" />
        <path d="M 651.2 920 L 651.2 910" />
        <path d="M 667.8 920 L 667.8 910" />
        <path d="M 684.4 920 L 684.4 910" />
        <path d="M 701 920 L 701 910" />
        <path d="M 717.6 920 L 717.6 910" />
        <path d="M 734.2 920 L 734.2 910" />
        <path d="M 750.8 920 L 750.8 910" />
        <path d="M 767.4 920 L 767.4 910" />
        <path d="M 784 920 L 784 900" />
        <text font-size="30" transform="translate(784, 950)" text-anchor="middle" dominant-baseline="middle" stroke="none" fill="black">40</text>
        <path d="M 800.6 920 L 800.6 910" />
        <path d="M 817.2 920 L 817.2 910" />
        <path d="M 833.8 920 L 833.8 910" />
        <path d="M 850.4 920 L 850.4 910" />
        <path d="M 867 920 L 867 910" />
        <path d="M 883.6 920 L 883.6 910" />
        <path d="M 900.2 920 L 900.2 910" />
        <path d="M 916.8 920 L 916.8 910" />
        <path d="M 933.4 920 L 933.4 910" />
        <path d="M 950 920 L 950 900" />
        <text font-size="30" transform="translate(950, 950)" text-anchor="middle" dominant-baseline="middle" stroke="none" fill="black">50</text>
    </g>
    <g id="frame_0_leftticks">
        <path d="M 120 591.319 L 130 591.319" />
        <path d="M 120 426.979 L 130 426.979" />
        <path d="M 120 365.351 L 130 365.351" />
        <path d="M 120 488.606 L 130 488.606" />
        <path d="M 120 221.553 L 130 221.553" />
        <path d="M 120 385.893 L 130 385.893" />
        <path d="M 120 776.202 L 130 776.202" />
        <path d="M 120 817.287 L 140 817.287" />
        <text font-size="30" transform="translate(110, 827.287)" text-anchor="end" dominant-baseline="middle" stroke="none" fill="black">5000</text>
        <path d="M 120 283.181 L 130 283.181" />
        <path d="M 120 920 L 140 920" />
        <text font-size="30" transform="translate(110, 930)" text-anchor="end" dominant-baseline="middle" stroke="none" fill="black">0</text>
        <path d="M 120 714.574 L 140 714.574" />
        <text font-size="30" transform="translate(110, 724.574)" text-anchor="end" dominant-baseline="middle" stroke="none" fill="black">10000</text>
        <path d="M 120 118.84 L 130 118.84" />
        <path d="M 120 837.83 L 130 837.83" />
        <path d="M 120 468.064 L 130 468.064" />
        <path d="M 120 509.149 L 140 509.149" />
        <text font-size="30" transform="translate(110, 519.149)" text-anchor="end" dominant-baseline="middle" stroke="none" fill="black">20000</text>
        <path d="M 120 735.117 L 130 735.117" />
        <path d="M 120 611.862 L 140 611.862" />
        <text font-size="30" transform="translate(110, 621.862)" text-anchor="end" dominant-baseline="middle" stroke="none" fill="black">15000</text>
        <path d="M 120 180.468 L 130 180.468" />
        <path d="M 120 632.404 L 130 632.404" />
        <path d="M 120 324.266 L 130 324.266" />
        <path d="M 120 77.7551 L 130 77.7551" />
        <path d="M 120 529.691 L 130 529.691" />
        <path d="M 120 242.096 L 130 242.096" />
        <path d="M 120 755.66 L 130 755.66" />
        <path d="M 120 344.808 L 130 344.808" />
        <path d="M 120 406.436 L 140 406.436" />
        <text font-size="30" transform="translate(110, 416.436)" text-anchor="end" dominant-baseline="middle" stroke="none" fill="black">25000</text>
        <path d="M 120 652.947 L 130 652.947" />
        <path d="M 120 139.383 L 130 139.383" />
        <path d="M 120 303.723 L 140 303.723" />
        <text font-size="30" transform="translate(110, 313.723)" text-anchor="end" dominant-baseline="middle" stroke="none" fill="black">30000</text>
        <path d="M 120 550.234 L 130 550.234" />
        <path d="M 120 858.372 L 130 858.372" />
        <path d="M 120 447.521 L 130 447.521" />
        <path d="M 120 201.01 L 140 201.01" />
        <text font-size="30" transform="translate(110, 211.01)" text-anchor="end" dominant-baseline="middle" stroke="none" fill="black">35000</text>
        <path d="M 120 673.489 L 130 673.489" />
        <path d="M 120 878.915 L 130 878.915" />
        <path d="M 120 899.457 L 130 899.457" />
        <path d="M 120 57.2125 L 130 57.2125" />
        <path d="M 120 262.638 L 130 262.638" />
        <path d="M 120 796.745 L 130 796.745" />
        <path d="M 120 570.776 L 130 570.776" />
        <path d="M 120 98.2976 L 140 98.2976" />
        <text font-size="30" transform="translate(110, 108.298)" text-anchor="end" dominant-baseline="middle" stroke="none" fill="black">40000</text>
        <path d="M 120 694.032 L 130 694.032" />
        <path d="M 120 159.925 L 130 159.925" />
    </g>
    <text id="frame_0_toplabel" font-size="30" transform="translate(535, 32.6)" text-anchor="middle" dominant-baseline="middle" stroke="none" fill="black">cast.long</text>
    <g id="frame_0_topticks">
        <path d="M 120 50 L 120 70" />
        <path d="M 136.6 50 L 136.6 60" />
        <path d="M 153.2 50 L 153.2 60" />
        <path d="M 169.8 50 L 169.8 60" />
        <path d="M 186.4 50 L 186.4 60" />
        <path d="M 203 50 L 203 60" />
        <path d="M 219.6 50 L 219.6 60" />
        <path d="M 236.2 50 L 236.2 60" />
        <path d="M 252.8 50 L 252.8 60" />
        <path d="M 269.4 50 L 269.4 60" />
        <path d="M 286 50 L 286 70" />
        <path d="M 302.6 50 L 302.6 60" />
        <path d="M 319.2 50 L 319.2 60" />
        <path d="M 335.8 50 L 335.8 60" />
        <path d="M 352.4 50 L 352.4 60" />
        <path d="M 369 50 L 369 60" />
        <path d="M 385.6 50 L 385.6 60" />
        <path d="M 402.2 50 L 402.2 60" />
        <path d="M 418.8 50 L 418.8 60" />
        <path d="M 435.4 50 L 435.4 60" />
        <path d="M 452 50 L 452 70" />
        <path d="M 468.6 50 L 468.6 60" />
        <path d="M 485.2 50 L 485.2 60" />
        <path d="M 501.8 50 L 501.8 60" />
        <path d="M 518.4 50 L 518.4 60" />
        <path d="M 535 50 L 535 60" />
        <path d="M 551.6 50 L 551.6 60" />
        <path d="M 568.2 50 L 568.2 60" />
        <path d="M 584.8 50 L 584.8 60" />
        <path d="M 601.4 50 L 601.4 60" />
        <path d="M 618 50 L 618 70" />
        <path d="M 634.6 50 L 634.6 60" />
        <path d="M 651.2 50 L 651.2 60" />
        <path d="M 667.8 50 L 667.8 60" />
        <path d="M 684.4 50 L 684.4 60" />
        <path d="M 701 50 L 701 60" />
        <path d="M 717.6 50 L 717.6 60" />
        <path d="M 734.2 50 L 734.2 60" />
        <path d="M 750.8 50 L 750.8 60" />
        <path d="M 767.4 50 L 767.4 60" />
        <path d="M 784 50 L 784 70" />
        <path d="M 800.6 50 L 800.6 60" />
        <path d="M 817.2 50 L 817.2 60" />
        <path d="M 833.8 50 L 833.8 60" />
        <path d="M 850.4 50 L 850.4 60" />
        <path d="M 867 50 L 867 60" />
        <path d="M 883.6 50 L 883.6 60" />
        <path d="M 900.2 50 L 900.2 60" />
        <path d="M 916.8 50 L 916.8 60" />
        <path d="M 933.4 50 L 933.4 60" />
        <path d="M 950 50 L 950 70" />
    </g>
    <g id="frame_0_rightticks">
        <path d="M 950 591.319 L 940 591.319" />
        <path d="M 950 426.979 L 940 426.979" />
        <path d="M 950 365.351 L 940 365.351" />
        <path d="M 950 488.606 L 940 488.606" />
        <path d="M 950 221.553 L 940 221.553" />
        <path d="M 950 385.893 L 940 385.893" />
        <path d="M 950 776.202 L 940 776.202" />
        <path d="M 950 817.287 L 930 817.287" />
        <path d="M 950 283.181 L 940 283.181" />
        <path d="M 950 920 L 930 920" />
        <path d="M 950 714.574 L 930 714.574" />
        <path d="M 950 118.84 L 940 118.84" />
        <path d="M 950 837.83 L 940 837.83" />
        <path d="M 950 468.064 L 940 468.064" />
        <path d="M 950 509.149 L 930 509.149" />
        <path d="M 950 735.117 L 940 735.117" />
        <path d="M 950 611.862 L 930 611.862" />
        <path d="M 950 180.468 L 940 180.468" />
        <path d="M 950 632.404 L 940 632.404" />
        <path d="M 950 324.266 L 940 324.266" />
        <path d="M 950 77.7551 L 940 77.7551" />
        <path d="M 950 529.691 L 940 529.691" />
        <path d="M 950 242.096 L 940 242.096" />
        <path d="M 950 755.66 L 940 755.66" />
        <path d="M 950 344.808 L 940 344.808" />
        <path d="M 950 406.436 L 930 406.436" />
        <path d="M 950 652.947 L 940 652.947" />
        <path d="M 950 139.383 L 940 139.383" />
        <path d="M 950 303.723 L 930 303.723" />
        <path d="M 950 550.234 L 940 550.234" />
        <path d="M 950 858.372 L 940 858.372" />
        <path d="M 950 447.521 L 940 447.521" />
        <path d="M 950 201.01 L 930 201.01" />
        <path d="M 950 673.489 L 940 673.489" />
        <path d="M 950 878.915 L 940 878.915" />
        <path d="M 950 899.457 L 940 899.457" />
        <path d="M 950 57.2125 L 940 57.2125" />
        <path d="M 950 262.638 L 940 262.638" />
        <path d="M 950 796.745 L 940 796.745" />
        <path d="M 950 570.776 L 940 570.776" />
        <path d="M 950 98.2976 L 930 98.2976" />
        <path d="M 950 694.032 L 940 694.032" />
        <path d="M 950 159.925 L 940 159.925" />
    </g>
</g>
</g>
</svg>
