<?xml version="1.0" standalone="no"?>
<!DOCTYPE svg PUBLIC "-//W3C//DTD SVG 1.1//EN" "http://www.w3.org/Graphics/SVG/1.1/DTD/svg11.dtd">
<svg style="stroke-linejoin:miter; stroke:black; stroke-width:2.5; text-anchor:middle; fill:none" xmlns="http://www.w3.org/2000/svg" font-family="Helvetica, Arial, FreeSans, Sans, sans, sans-serif" width="1000px" height="1000px" version="1.1" xmlns:xlink="http://www.w3.org/1999/xlink" viewBox="0 0 1000 1000">
<defs>
    <clipPath id="Histogram_0_clip">
        <rect x="120" y="50" width="830" height="870" />
    </clipPath>
    <clipPath id="Histogram_1_clip">
        <rect x="120" y="50" width="830" height="870" />
    </clipPath>
</defs>
<g id="whole_document">
<rect id="background" x="0" y="0" width="1000" height="1000" stroke="none" fill="white" />
<g id="Histogram_0" clip-path="url(#Histogram_0_clip)">
    <path d="M 120 920 L 120 129.091 L 161.5 129.091 L 161.5 912.517 L 203 912.517 L 203 919.758 L 244.5 919.758 L 244.5 704.016 L 286 704.016 L 286 919.61 L 327.5 919.61 L 327.5 919.766 L 369 919.766 L 369 919.118 L 410.5 919.118 L 410.5 920 L 452 920 L 452 920 L 493.5 920 L 493.5 920 L 535 920 L 535 920 L 576.5 920 L 576.5 920 L 618 920 L 618 919.989 L 659.5 919.989 L 659.5 920 L 701 920 L 701 920 L 742.5 920 L 742.5 920 L 784 920 L 784 920 L 825.5 920 L 825.5 920 L 867 920 L 867 920 L 908.5 920 L 908.5 920 L 950 920 L 950 920" stroke-width="3" stroke-dasharray="" stroke="black" stroke-opacity="1" fill="DodgerBlue" fill-opacity="1" />
</g>
<g id="Histogram_1" clip-path="url(#Histogram_1_clip)">
    <path d="M 120 920 L 120 920 L 161.5 920 L 161.5 920 L 203 920 L 203 920 L 244.5 920 L 244.5 704.016 L 286 704.016 L 286 919.61 L 327.5 919.61 L 327.5 919.766 L 369 919.766 L 369 919.118 L 410.5 919.118 L 410.5 920 L 452 920 L 452 920 L 493.5 920 L 493.5 920 L 535 920 L 535 920 L 576.5 920 L 576.5 920 L 618 920 L 618 919.989 L 659.5 919.989 L 659.5 920 L 701 920 L 701 920 L 742.5 920 L 742.5 920 L 784 920 L 784 920 L 825.5 920 L 825.5 920 L 867 920 L 867 920 L 908.5 920 L 908.5 920 L 950 920 L 950 920" stroke-width="3" stroke-dasharray="" stroke="black" stroke-opacity="1" fill="darkorange" fill-opacity="1" />
</g>
<g id="frame_0">
    <rect id="frame_0_border" x="120" y="50" width="830" height="870" />
    <text id="frame_0_bottomlabel" font-size="30" transform="translate(535, 989.6)" text-anchor="middle" dominant-baseline="middle" stroke="none" fill="black">microseconds</text>
    <g id="frame_0_bottomticks">
        <path d="M 120 920 L 120 900" />
        <text font-size="30" transform="translate(120, 950)" text-anchor="middle" dominant-baseline="middle" stroke="none" fill="black">0</text>
        <path d="M 136.6 920 L 136.6 910" />
        <path d="M 153.2 920 L 153.2 910" />
        <path d="M 169.8 920 L 169.8 910" />
        <path d="M 186.4 920 L 186.4 910" />
        <path d="M 203 920 L 203 910" />
        <path d="M 219.6 920 L 219.6 910" />
        <path d="M 236.2 920 L 236.2 910" />
        <path d="M 252.8 920 L 252.8 910" />
        <path d="M 269.4 920 L 269.4 910" />
        <path d="M 286 920 L 286 900" />
        <text font-size="30" transform="translate(286, 950)" text-anchor="middle" dominant-baseline="middle" stroke="none" fill="black">10</text>
        <path d="M 302.6 920 L 302.6 910" />
        <path d="M 319.2 920 L 319.2 910" />
        <path d="M 335.8 920 L 335.8 910" />
        <path d="M 352.4 920 L 352.4 910" />
        <path d="M 369 920 L 369 910" />
        <path d="M 385.6 920 L 385.6 910" />
        <path d="M 402.2 920 L 402.2 910" />
        <path d="M 418.8 920 L 418.8 910" />
        <path d="M 435.4 920 L 435.4 910" />
        <path d="M 452 920 L 452 900" />
        <text font-size="30" transform="translate(452, 950)" text-anchor="middle" dominant-baseline="middle" stroke="none" fill="black">20</text>
        <path d="M 468.6 920 L 468.6 910" />
        <path d="M 485.2 920 L 485.2 910" />
        <path d="M 501.8 920 L 501.8 910" />
        <path d="M 518.4 920 L 518.4 910" />
        <path d="M 535 920 L 535 910" />
        <path d="M 551.6 920 L 551.6 910" />
        <path d="M 568.2 920 L 568.2 910" />
        <path d="M 584.8 920 L 584.8 910" />
        <path d="M 601.4 920 L 601.4 910" />
        <path d="M 618 920 L 618 900" />
        <text font-size="30" transform="translate(618, 950)" text-anchor="middle" dominant-baseline="middle" stroke="none" fill="black">30</text>
        <path d="M 634.6 920 L 634.6 910" />
        <path d="M 651.2 920 L 651.2 910" />
        <path d="M 667.8 920 L 667.8 910" />
        <path d="M 684.4 920 L 684.4 910" />
        <path d="M 701 920 L 701 910" />
        <path d="M 717.6 920 L 717.6 910" />
        <path d="M 734.2 920 L 734.2 910" />
        <path d="M 750.8 920 L 750.8 910" />
        <path d="M 767.4 920 L 767.4 910" />
        <path d="M 784 920 L 784 900" />
        <text font-size="30" transform="translate(784, 950)" text-anchor="middle" dominant-baseline="middle" stroke="none" fill="black">40</text>
        <path d="M 800.6 920 L 800.6 910" />
        <path d="M 817.2 920 L 817.2 910" />
        <path d="M 833.8 920 L 833.8 910" />
        <path d="M 850.4 920 L 850.4 910" />
        <path d="M 867 920 L 867 910" />
        <path d="M 883.6 920 L 883.6 910" />
        <path d="M 900.2 920 L 900.2 910" />
        <path d="M 916.8 920 L 916.8 910" />
        <path d="M 933.4 920 L 933.4 910" />
        <path d="M 950 920 L 950 900" />
        <text font-size="30" transform="translate(950, 950)" text-anchor="middle" dominant-baseline="middle" stroke="none" fill="black">50</text>
    </g>
    <g id="frame_0_leftticks">
        <path d="M 120 853.589 L 130 853.589" />
        <path d="M 120 521.536 L 130 521.536" />
        <path d="M 120 720.768 L 130 720.768" />
        <path d="M 120 920 L 140 920" />
        <text font-size="30" transform="translate(110, 930)" text-anchor="end" dominant-baseline="middle" stroke="none" fill="black">0</text>
        <path d="M 120 156.278 L 130 156.278" />
        <path d="M 120 355.51 L 130 355.51" />
        <path d="M 120 554.742 L 130 554.742" />
        <path d="M 120 753.973 L 140 753.973" />
        <text font-size="30" transform="translate(110, 763.973)" text-anchor="end" dominant-baseline="middle" stroke="none" fill="black">500000</text>
        <path d="M 120 189.483 L 130 189.483" />
        <path d="M 120 388.715 L 130 388.715" />
        <path d="M 120 587.947 L 140 587.947" />
        <text font-size="30" transform="translate(110, 597.947)" text-anchor="end" dominant-baseline="middle" stroke="none" fill="black">10⁶</text>
        <path d="M 120 787.179 L 130 787.179" />
        <path d="M 120 322.304 L 130 322.304" />
        <path d="M 120 222.688 L 130 222.688" />
        <path d="M 120 886.795 L 130 886.795" />
        <path d="M 120 421.92 L 140 421.92" />
        <text font-size="30" transform="translate(110, 431.92)" text-anchor="end" dominant-baseline="middle" stroke="none" fill="black">1.5×10⁶</text>
        <path d="M 120 621.152 L 130 621.152" />
        <path d="M 120 820.384 L 130 820.384" />
        <path d="M 120 56.6618 L 130 56.6618" />
        <path d="M 120 255.894 L 140 255.894" />
        <text font-size="30" transform="translate(110, 265.894)" text-anchor="end" dominant-baseline="middle" stroke="none" fill="black">2×10⁶</text>
        <path d="M 120 455.126 L 130 455.126" />
        <path d="M 120 654.357 L 130 654.357" />
        <path d="M 120 89.8671 L 140 89.8671" />
        <text font-size="30" transform="translate(110, 99.8671)" text-anchor="end" dominant-baseline="middle" stroke="none" fill="black">2.5×10⁶</text>
        <path d="M 120 289.099 L 130 289.099" />
        <path d="M 120 488.331 L 130 488.331" />
        <path d="M 120 687.563 L 130 687.563" />
        <path d="M 120 123.072 L 130 123.072" />
    </g>
    <text id="frame_0_toplabel" font-size="30" transform="translate(535, 32.6)" text-anchor="middle" dominant-baseline="middle" stroke="none" fill="black">time.isSecondOfMinute</text>
    <g id="frame_0_topticks">
        <path d="M 120 50 L 120 70" />
        <path d="M 136.6 50 L 136.6 60" />
        <path d="M 153.2 50 L 153.2 60" />
        <path d="M 169.8 50 L 169.8 60" />
        <path d="M 186.4 50 L 186.4 60" />
        <path d="M 203 50 L 203 60" />
        <path d="M 219.6 50 L 219.6 60" />
        <path d="M 236.2 50 L 236.2 60" />
        <path d="M 252.8 50 L 252.8 60" />
        <path d="M 269.4 50 L 269.4 60" />
        <path d="M 286 50 L 286 70" />
        <path d="M 302.6 50 L 302.6 60" />
        <path d="M 319.2 50 L 319.2 60" />
        <path d="M 335.8 50 L 335.8 60" />
        <path d="M 352.4 50 L 352.4 60" />
        <path d="M 369 50 L 369 60" />
        <path d="M 385.6 50 L 385.6 60" />
        <path d="M 402.2 50 L 402.2 60" />
        <path d="M 418.8 50 L 418.8 60" />
        <path d="M 435.4 50 L 435.4 60" />
        <path d="M 452 50 L 452 70" />
        <path d="M 468.6 50 L 468.6 60" />
        <path d="M 485.2 50 L 485.2 60" />
        <path d="M 501.8 50 L 501.8 60" />
        <path d="M 518.4 50 L 518.4 60" />
        <path d="M 535 50 L 535 60" />
        <path d="M 551.6 50 L 551.6 60" />
        <path d="M 568.2 50 L 568.2 60" />
        <path d="M 584.8 50 L 584.8 60" />
        <path d="M 601.4 50 L 601.4 60" />
        <path d="M 618 50 L 618 70" />
        <path d="M 634.6 50 L 634.6 60" />
        <path d="M 651.2 50 L 651.2 60" />
        <path d="M 667.8 50 L 667.8 60" />
        <path d="M 684.4 50 L 684.4 60" />
        <path d="M 701 50 L 701 60" />
        <path d="M 717.6 50 L 717.6 60" />
        <path d="M 734.2 50 L 734.2 60" />
        <path d="M 750.8 50 L 750.8 60" />
        <path d="M 767.4 50 L 767.4 60" />
        <path d="M 784 50 L 784 70" />
        <path d="M 800.6 50 L 800.6 60" />
        <path d="M 817.2 50 L 817.2 60" />
        <path d="M 833.8 50 L 833.8 60" />
        <path d="M 850.4 50 L 850.4 60" />
        <path d="M 867 50 L 867 60" />
        <path d="M 883.6 50 L 883.6 60" />
        <path d="M 900.2 50 L 900.2 60" />
        <path d="M 916.8 50 L 916.8 60" />
        <path d="M 933.4 50 L 933.4 60" />
        <path d="M 950 50 L 950 70" />
    </g>
    <g id="frame_0_rightticks">
        <path d="M 950 853.589 L 940 853.589" />
        <path d="M 950 521.536 L 940 521.536" />
        <path d="M 950 720.768 L 940 720.768" />
        <path d="M 950 920 L 930 920" />
        <path d="M 950 156.278 L 940 156.278" />
        <path d="M 950 355.51 L 940 355.51" />
        <path d="M 950 554.742 L 940 554.742" />
        <path d="M 950 753.973 L 930 753.973" />
        <path d="M 950 189.483 L 940 189.483" />
        <path d="M 950 388.715 L 940 388.715" />
        <path d="M 950 587.947 L 930 587.947" />
        <path d="M 950 787.179 L 940 787.179" />
        <path d="M 950 322.304 L 940 322.304" />
        <path d="M 950 222.688 L 940 222.688" />
        <path d="M 950 886.795 L 940 886.795" />
        <path d="M 950 421.92 L 930 421.92" />
        <path d="M 950 621.152 L 940 621.152" />
        <path d="M 950 820.384 L 940 820.384" />
        <path d="M 950 56.6618 L 940 56.6618" />
        <path d="M 950 255.894 L 930 255.894" />
        <path d="M 950 455.126 L 940 455.126" />
        <path d="M 950 654.357 L 940 654.357" />
        <path d="M 950 89.8671 L 930 89.8671" />
        <path d="M 950 289.099 L 940 289.099" />
        <path d="M 950 488.331 L 940 488.331" />
        <path d="M 950 687.563 L 940 687.563" />
        <path d="M 950 123.072 L 940 123.072" />
    </g>
</g>
</g>
</svg>
