<?xml version="1.0" standalone="no"?>
<!DOCTYPE svg PUBLIC "-//W3C//DTD SVG 1.1//EN" "http://www.w3.org/Graphics/SVG/1.1/DTD/svg11.dtd">
<svg style="stroke-linejoin:miter; stroke:black; stroke-width:2.5; text-anchor:middle; fill:none" xmlns="http://www.w3.org/2000/svg" font-family="Helvetica, Arial, FreeSans, Sans, sans, sans-serif" width="1000px" height="1000px" version="1.1" xmlns:xlink="http://www.w3.org/1999/xlink" viewBox="0 0 1000 1000">
<defs>
    <clipPath id="Histogram_0_clip">
        <rect x="120" y="50" width="830" height="870" />
    </clipPath>
    <clipPath id="Histogram_1_clip">
        <rect x="120" y="50" width="830" height="870" />
    </clipPath>
</defs>
<g id="whole_document">
<rect id="background" x="0" y="0" width="1000" height="1000" stroke="none" fill="white" />
<g id="Histogram_0" clip-path="url(#Histogram_0_clip)">
    <path d="M 120 920 L 120 129.091 L 161.5 129.091 L 161.5 884.832 L 203 884.832 L 203 912.091 L 244.5 912.091 L 244.5 684.005 L 286 684.005 L 286 912.227 L 327.5 912.227 L 327.5 917.947 L 369 917.947 L 369 907.712 L 410.5 907.712 L 410.5 916.962 L 452 916.962 L 452 916.032 L 493.5 916.032 L 493.5 918.878 L 535 918.878 L 535 918.905 L 576.5 918.905 L 576.5 920 L 618 920 L 618 920 L 659.5 920 L 659.5 920 L 701 920 L 701 918.44 L 742.5 918.44 L 742.5 920 L 784 920 L 784 920 L 825.5 920 L 825.5 920 L 867 920 L 867 920 L 908.5 920 L 908.5 920 L 950 920 L 950 920" stroke-width="3" stroke-dasharray="" stroke="black" stroke-opacity="1" fill="DodgerBlue" fill-opacity="1" />
</g>
<g id="Histogram_1" clip-path="url(#Histogram_1_clip)">
    <path d="M 120 920 L 120 920 L 161.5 920 L 161.5 920 L 203 920 L 203 920 L 244.5 920 L 244.5 690.793 L 286 690.793 L 286 917.4 L 327.5 917.4 L 327.5 917.947 L 369 917.947 L 369 909.463 L 410.5 909.463 L 410.5 918.495 L 452 918.495 L 452 916.032 L 493.5 916.032 L 493.5 920 L 535 920 L 535 920 L 576.5 920 L 576.5 920 L 618 920 L 618 920 L 659.5 920 L 659.5 920 L 701 920 L 701 920 L 742.5 920 L 742.5 920 L 784 920 L 784 920 L 825.5 920 L 825.5 920 L 867 920 L 867 920 L 908.5 920 L 908.5 920 L 950 920 L 950 920" stroke-width="3" stroke-dasharray="" stroke="black" stroke-opacity="1" fill="darkorange" fill-opacity="1" />
</g>
<g id="frame_0">
    <rect id="frame_0_border" x="120" y="50" width="830" height="870" />
    <text id="frame_0_bottomlabel" font-size="30" transform="translate(535, 989.6)" text-anchor="middle" dominant-baseline="middle" stroke="none" fill="black">microseconds</text>
    <g id="frame_0_bottomticks">
        <path d="M 120 920 L 120 900" />
        <text font-size="30" transform="translate(120, 950)" text-anchor="middle" dominant-baseline="middle" stroke="none" fill="black">0</text>
        <path d="M 136.6 920 L 136.6 910" />
        <path d="M 153.2 920 L 153.2 910" />
        <path d="M 169.8 920 L 169.8 910" />
        <path d="M 186.4 920 L 186.4 910" />
        <path d="M 203 920 L 203 910" />
        <path d="M 219.6 920 L 219.6 910" />
        <path d="M 236.2 920 L 236.2 910" />
        <path d="M 252.8 920 L 252.8 910" />
        <path d="M 269.4 920 L 269.4 910" />
        <path d="M 286 920 L 286 900" />
        <text font-size="30" transform="translate(286, 950)" text-anchor="middle" dominant-baseline="middle" stroke="none" fill="black">10</text>
        <path d="M 302.6 920 L 302.6 910" />
        <path d="M 319.2 920 L 319.2 910" />
        <path d="M 335.8 920 L 335.8 910" />
        <path d="M 352.4 920 L 352.4 910" />
        <path d="M 369 920 L 369 910" />
        <path d="M 385.6 920 L 385.6 910" />
        <path d="M 402.2 920 L 402.2 910" />
        <path d="M 418.8 920 L 418.8 910" />
        <path d="M 435.4 920 L 435.4 910" />
        <path d="M 452 920 L 452 900" />
        <text font-size="30" transform="translate(452, 950)" text-anchor="middle" dominant-baseline="middle" stroke="none" fill="black">20</text>
        <path d="M 468.6 920 L 468.6 910" />
        <path d="M 485.2 920 L 485.2 910" />
        <path d="M 501.8 920 L 501.8 910" />
        <path d="M 518.4 920 L 518.4 910" />
        <path d="M 535 920 L 535 910" />
        <path d="M 551.6 920 L 551.6 910" />
        <path d="M 568.2 920 L 568.2 910" />
        <path d="M 584.8 920 L 584.8 910" />
        <path d="M 601.4 920 L 601.4 910" />
        <path d="M 618 920 L 618 900" />
        <text font-size="30" transform="translate(618, 950)" text-anchor="middle" dominant-baseline="middle" stroke="none" fill="black">30</text>
        <path d="M 634.6 920 L 634.6 910" />
        <path d="M 651.2 920 L 651.2 910" />
        <path d="M 667.8 920 L 667.8 910" />
        <path d="M 684.4 920 L 684.4 910" />
        <path d="M 701 920 L 701 910" />
        <path d="M 717.6 920 L 717.6 910" />
        <path d="M 734.2 920 L 734.2 910" />
        <path d="M 750.8 920 L 750.8 910" />
        <path d="M 767.4 920 L 767.4 910" />
        <path d="M 784 920 L 784 900" />
        <text font-size="30" transform="translate(784, 950)" text-anchor="middle" dominant-baseline="middle" stroke="none" fill="black">40</text>
        <path d="M 800.6 920 L 800.6 910" />
        <path d="M 817.2 920 L 817.2 910" />
        <path d="M 833.8 920 L 833.8 910" />
        <path d="M 850.4 920 L 850.4 910" />
        <path d="M 867 920 L 867 910" />
        <path d="M 883.6 920 L 883.6 910" />
        <path d="M 900.2 920 L 900.2 910" />
        <path d="M 916.8 920 L 916.8 910" />
        <path d="M 933.4 920 L 933.4 910" />
        <path d="M 950 920 L 950 900" />
        <text font-size="30" transform="translate(950, 950)" text-anchor="middle" dominant-baseline="middle" stroke="none" fill="black">50</text>
    </g>
    <g id="frame_0_leftticks">
        <path d="M 120 482.111 L 130 482.111" />
        <path d="M 120 263.167 L 130 263.167" />
        <path d="M 120 181.063 L 130 181.063" />
        <path d="M 120 345.271 L 130 345.271" />
        <path d="M 120 208.431 L 130 208.431" />
        <path d="M 120 728.424 L 130 728.424" />
        <path d="M 120 783.16 L 140 783.16" />
        <text font-size="30" transform="translate(110, 793.16)" text-anchor="end" dominant-baseline="middle" stroke="none" fill="black">5000</text>
        <path d="M 120 71.5906 L 130 71.5906" />
        <path d="M 120 646.32 L 140 646.32" />
        <text font-size="30" transform="translate(110, 656.32)" text-anchor="end" dominant-baseline="middle" stroke="none" fill="black">10000</text>
        <path d="M 120 920 L 140 920" />
        <text font-size="30" transform="translate(110, 930)" text-anchor="end" dominant-baseline="middle" stroke="none" fill="black">0</text>
        <path d="M 120 810.528 L 130 810.528" />
        <path d="M 120 317.903 L 130 317.903" />
        <path d="M 120 673.688 L 130 673.688" />
        <path d="M 120 509.479 L 140 509.479" />
        <text font-size="30" transform="translate(110, 519.479)" text-anchor="end" dominant-baseline="middle" stroke="none" fill="black">15000</text>
        <path d="M 120 536.847 L 130 536.847" />
        <path d="M 120 126.327 L 130 126.327" />
        <path d="M 120 372.639 L 140 372.639" />
        <text font-size="30" transform="translate(110, 382.639)" text-anchor="end" dominant-baseline="middle" stroke="none" fill="black">20000</text>
        <path d="M 120 400.007 L 130 400.007" />
        <path d="M 120 701.056 L 130 701.056" />
        <path d="M 120 153.695 L 130 153.695" />
        <path d="M 120 235.799 L 140 235.799" />
        <text font-size="30" transform="translate(110, 245.799)" text-anchor="end" dominant-baseline="middle" stroke="none" fill="black">25000</text>
        <path d="M 120 564.215 L 130 564.215" />
        <path d="M 120 98.9587 L 140 98.9587" />
        <text font-size="30" transform="translate(110, 108.959)" text-anchor="end" dominant-baseline="middle" stroke="none" fill="black">30000</text>
        <path d="M 120 427.375 L 130 427.375" />
        <path d="M 120 837.896 L 130 837.896" />
        <path d="M 120 290.535 L 130 290.535" />
        <path d="M 120 591.583 L 130 591.583" />
        <path d="M 120 865.264 L 130 865.264" />
        <path d="M 120 892.632 L 130 892.632" />
        <path d="M 120 755.792 L 130 755.792" />
        <path d="M 120 454.743 L 130 454.743" />
        <path d="M 120 618.952 L 130 618.952" />
    </g>
    <text id="frame_0_toplabel" font-size="30" transform="translate(535, 32.6)" text-anchor="middle" dominant-baseline="middle" stroke="none" fill="black">a.combinations</text>
    <g id="frame_0_topticks">
        <path d="M 120 50 L 120 70" />
        <path d="M 136.6 50 L 136.6 60" />
        <path d="M 153.2 50 L 153.2 60" />
        <path d="M 169.8 50 L 169.8 60" />
        <path d="M 186.4 50 L 186.4 60" />
        <path d="M 203 50 L 203 60" />
        <path d="M 219.6 50 L 219.6 60" />
        <path d="M 236.2 50 L 236.2 60" />
        <path d="M 252.8 50 L 252.8 60" />
        <path d="M 269.4 50 L 269.4 60" />
        <path d="M 286 50 L 286 70" />
        <path d="M 302.6 50 L 302.6 60" />
        <path d="M 319.2 50 L 319.2 60" />
        <path d="M 335.8 50 L 335.8 60" />
        <path d="M 352.4 50 L 352.4 60" />
        <path d="M 369 50 L 369 60" />
        <path d="M 385.6 50 L 385.6 60" />
        <path d="M 402.2 50 L 402.2 60" />
        <path d="M 418.8 50 L 418.8 60" />
        <path d="M 435.4 50 L 435.4 60" />
        <path d="M 452 50 L 452 70" />
        <path d="M 468.6 50 L 468.6 60" />
        <path d="M 485.2 50 L 485.2 60" />
        <path d="M 501.8 50 L 501.8 60" />
        <path d="M 518.4 50 L 518.4 60" />
        <path d="M 535 50 L 535 60" />
        <path d="M 551.6 50 L 551.6 60" />
        <path d="M 568.2 50 L 568.2 60" />
        <path d="M 584.8 50 L 584.8 60" />
        <path d="M 601.4 50 L 601.4 60" />
        <path d="M 618 50 L 618 70" />
        <path d="M 634.6 50 L 634.6 60" />
        <path d="M 651.2 50 L 651.2 60" />
        <path d="M 667.8 50 L 667.8 60" />
        <path d="M 684.4 50 L 684.4 60" />
        <path d="M 701 50 L 701 60" />
        <path d="M 717.6 50 L 717.6 60" />
        <path d="M 734.2 50 L 734.2 60" />
        <path d="M 750.8 50 L 750.8 60" />
        <path d="M 767.4 50 L 767.4 60" />
        <path d="M 784 50 L 784 70" />
        <path d="M 800.6 50 L 800.6 60" />
        <path d="M 817.2 50 L 817.2 60" />
        <path d="M 833.8 50 L 833.8 60" />
        <path d="M 850.4 50 L 850.4 60" />
        <path d="M 867 50 L 867 60" />
        <path d="M 883.6 50 L 883.6 60" />
        <path d="M 900.2 50 L 900.2 60" />
        <path d="M 916.8 50 L 916.8 60" />
        <path d="M 933.4 50 L 933.4 60" />
        <path d="M 950 50 L 950 70" />
    </g>
    <g id="frame_0_rightticks">
        <path d="M 950 482.111 L 940 482.111" />
        <path d="M 950 263.167 L 940 263.167" />
        <path d="M 950 181.063 L 940 181.063" />
        <path d="M 950 345.271 L 940 345.271" />
        <path d="M 950 208.431 L 940 208.431" />
        <path d="M 950 728.424 L 940 728.424" />
        <path d="M 950 783.16 L 930 783.16" />
        <path d="M 950 71.5906 L 940 71.5906" />
        <path d="M 950 646.32 L 930 646.32" />
        <path d="M 950 920 L 930 920" />
        <path d="M 950 810.528 L 940 810.528" />
        <path d="M 950 317.903 L 940 317.903" />
        <path d="M 950 673.688 L 940 673.688" />
        <path d="M 950 509.479 L 930 509.479" />
        <path d="M 950 536.847 L 940 536.847" />
        <path d="M 950 126.327 L 940 126.327" />
        <path d="M 950 372.639 L 930 372.639" />
        <path d="M 950 400.007 L 940 400.007" />
        <path d="M 950 701.056 L 940 701.056" />
        <path d="M 950 153.695 L 940 153.695" />
        <path d="M 950 235.799 L 930 235.799" />
        <path d="M 950 564.215 L 940 564.215" />
        <path d="M 950 98.9587 L 930 98.9587" />
        <path d="M 950 427.375 L 940 427.375" />
        <path d="M 950 837.896 L 940 837.896" />
        <path d="M 950 290.535 L 940 290.535" />
        <path d="M 950 591.583 L 940 591.583" />
        <path d="M 950 865.264 L 940 865.264" />
        <path d="M 950 892.632 L 940 892.632" />
        <path d="M 950 755.792 L 940 755.792" />
        <path d="M 950 454.743 L 940 454.743" />
        <path d="M 950 618.952 L 940 618.952" />
    </g>
</g>
</g>
</svg>
