<?xml version="1.0" standalone="no"?>
<!DOCTYPE svg PUBLIC "-//W3C//DTD SVG 1.1//EN" "http://www.w3.org/Graphics/SVG/1.1/DTD/svg11.dtd">
<svg style="stroke-linejoin:miter; stroke:black; stroke-width:2.5; text-anchor:middle; fill:none" xmlns="http://www.w3.org/2000/svg" font-family="Helvetica, Arial, FreeSans, Sans, sans, sans-serif" width="1000px" height="1000px" version="1.1" xmlns:xlink="http://www.w3.org/1999/xlink" viewBox="0 0 1000 1000">
<defs>
    <clipPath id="Histogram_0_clip">
        <rect x="120" y="50" width="830" height="870" />
    </clipPath>
</defs>
<g id="whole_document">
<rect id="background" x="0" y="0" width="1000" height="1000" stroke="none" fill="white" />
<g id="Histogram_0" clip-path="url(#Histogram_0_clip)">
    <path d="M 120 920 L 120 129.091 L 161.5 129.091 L 161.5 915.744 L 203 915.744 L 203 916.1 L 244.5 916.1 L 244.5 920 L 286 920 L 286 920 L 327.5 920 L 327.5 920 L 369 920 L 369 920 L 410.5 920 L 410.5 920 L 452 920 L 452 920 L 493.5 920 L 493.5 920 L 535 920 L 535 920 L 576.5 920 L 576.5 920 L 618 920 L 618 920 L 659.5 920 L 659.5 920 L 701 920 L 701 920 L 742.5 920 L 742.5 920 L 784 920 L 784 920 L 825.5 920 L 825.5 920 L 867 920 L 867 920 L 908.5 920 L 908.5 920 L 950 920 L 950 920" stroke-width="3" stroke-dasharray="" stroke="black" stroke-opacity="1" fill="DodgerBlue" fill-opacity="1" />
</g>
<g id="frame_0">
    <rect id="frame_0_border" x="120" y="50" width="830" height="870" />
    <text id="frame_0_bottomlabel" font-size="30" transform="translate(535, 989.6)" text-anchor="middle" dominant-baseline="middle" stroke="none" fill="black">microseconds</text>
    <g id="frame_0_bottomticks">
        <path d="M 120 920 L 120 900" />
        <text font-size="30" transform="translate(120, 950)" text-anchor="middle" dominant-baseline="middle" stroke="none" fill="black">0</text>
        <path d="M 136.6 920 L 136.6 910" />
        <path d="M 153.2 920 L 153.2 910" />
        <path d="M 169.8 920 L 169.8 910" />
        <path d="M 186.4 920 L 186.4 910" />
        <path d="M 203 920 L 203 910" />
        <path d="M 219.6 920 L 219.6 910" />
        <path d="M 236.2 920 L 236.2 910" />
        <path d="M 252.8 920 L 252.8 910" />
        <path d="M 269.4 920 L 269.4 910" />
        <path d="M 286 920 L 286 900" />
        <text font-size="30" transform="translate(286, 950)" text-anchor="middle" dominant-baseline="middle" stroke="none" fill="black">10</text>
        <path d="M 302.6 920 L 302.6 910" />
        <path d="M 319.2 920 L 319.2 910" />
        <path d="M 335.8 920 L 335.8 910" />
        <path d="M 352.4 920 L 352.4 910" />
        <path d="M 369 920 L 369 910" />
        <path d="M 385.6 920 L 385.6 910" />
        <path d="M 402.2 920 L 402.2 910" />
        <path d="M 418.8 920 L 418.8 910" />
        <path d="M 435.4 920 L 435.4 910" />
        <path d="M 452 920 L 452 900" />
        <text font-size="30" transform="translate(452, 950)" text-anchor="middle" dominant-baseline="middle" stroke="none" fill="black">20</text>
        <path d="M 468.6 920 L 468.6 910" />
        <path d="M 485.2 920 L 485.2 910" />
        <path d="M 501.8 920 L 501.8 910" />
        <path d="M 518.4 920 L 518.4 910" />
        <path d="M 535 920 L 535 910" />
        <path d="M 551.6 920 L 551.6 910" />
        <path d="M 568.2 920 L 568.2 910" />
        <path d="M 584.8 920 L 584.8 910" />
        <path d="M 601.4 920 L 601.4 910" />
        <path d="M 618 920 L 618 900" />
        <text font-size="30" transform="translate(618, 950)" text-anchor="middle" dominant-baseline="middle" stroke="none" fill="black">30</text>
        <path d="M 634.6 920 L 634.6 910" />
        <path d="M 651.2 920 L 651.2 910" />
        <path d="M 667.8 920 L 667.8 910" />
        <path d="M 684.4 920 L 684.4 910" />
        <path d="M 701 920 L 701 910" />
        <path d="M 717.6 920 L 717.6 910" />
        <path d="M 734.2 920 L 734.2 910" />
        <path d="M 750.8 920 L 750.8 910" />
        <path d="M 767.4 920 L 767.4 910" />
        <path d="M 784 920 L 784 900" />
        <text font-size="30" transform="translate(784, 950)" text-anchor="middle" dominant-baseline="middle" stroke="none" fill="black">40</text>
        <path d="M 800.6 920 L 800.6 910" />
        <path d="M 817.2 920 L 817.2 910" />
        <path d="M 833.8 920 L 833.8 910" />
        <path d="M 850.4 920 L 850.4 910" />
        <path d="M 867 920 L 867 910" />
        <path d="M 883.6 920 L 883.6 910" />
        <path d="M 900.2 920 L 900.2 910" />
        <path d="M 916.8 920 L 916.8 910" />
        <path d="M 933.4 920 L 933.4 910" />
        <path d="M 950 920 L 950 900" />
        <text font-size="30" transform="translate(950, 950)" text-anchor="middle" dominant-baseline="middle" stroke="none" fill="black">50</text>
    </g>
    <g id="frame_0_leftticks">
        <path d="M 120 603.28 L 130 603.28" />
        <path d="M 120 444.92 L 130 444.92" />
        <path d="M 120 385.535 L 130 385.535" />
        <path d="M 120 504.305 L 130 504.305" />
        <path d="M 120 246.97 L 130 246.97" />
        <path d="M 120 405.33 L 130 405.33" />
        <path d="M 120 781.435 L 130 781.435" />
        <path d="M 120 821.025 L 140 821.025" />
        <text font-size="30" transform="translate(110, 831.025)" text-anchor="end" dominant-baseline="middle" stroke="none" fill="black">5000</text>
        <path d="M 120 306.355 L 130 306.355" />
        <path d="M 120 920 L 140 920" />
        <text font-size="30" transform="translate(110, 930)" text-anchor="end" dominant-baseline="middle" stroke="none" fill="black">0</text>
        <path d="M 120 722.05 L 140 722.05" />
        <text font-size="30" transform="translate(110, 732.05)" text-anchor="end" dominant-baseline="middle" stroke="none" fill="black">10000</text>
        <path d="M 120 147.995 L 130 147.995" />
        <path d="M 120 840.82 L 130 840.82" />
        <path d="M 120 484.51 L 130 484.51" />
        <path d="M 120 524.1 L 140 524.1" />
        <text font-size="30" transform="translate(110, 534.1)" text-anchor="end" dominant-baseline="middle" stroke="none" fill="black">20000</text>
        <path d="M 120 741.845 L 130 741.845" />
        <path d="M 120 623.075 L 140 623.075" />
        <text font-size="30" transform="translate(110, 633.075)" text-anchor="end" dominant-baseline="middle" stroke="none" fill="black">15000</text>
        <path d="M 120 207.38 L 130 207.38" />
        <path d="M 120 642.87 L 130 642.87" />
        <path d="M 120 345.945 L 130 345.945" />
        <path d="M 120 108.405 L 130 108.405" />
        <path d="M 120 543.895 L 130 543.895" />
        <path d="M 120 266.765 L 130 266.765" />
        <path d="M 120 761.64 L 130 761.64" />
        <path d="M 120 365.74 L 130 365.74" />
        <path d="M 120 425.125 L 140 425.125" />
        <text font-size="30" transform="translate(110, 435.125)" text-anchor="end" dominant-baseline="middle" stroke="none" fill="black">25000</text>
        <path d="M 120 662.665 L 130 662.665" />
        <path d="M 120 167.79 L 130 167.79" />
        <path d="M 120 326.15 L 140 326.15" />
        <text font-size="30" transform="translate(110, 336.15)" text-anchor="end" dominant-baseline="middle" stroke="none" fill="black">30000</text>
        <path d="M 120 563.69 L 130 563.69" />
        <path d="M 120 860.615 L 130 860.615" />
        <path d="M 120 68.8151 L 130 68.8151" />
        <path d="M 120 464.715 L 130 464.715" />
        <path d="M 120 227.175 L 140 227.175" />
        <text font-size="30" transform="translate(110, 237.175)" text-anchor="end" dominant-baseline="middle" stroke="none" fill="black">35000</text>
        <path d="M 120 682.46 L 130 682.46" />
        <path d="M 120 880.41 L 130 880.41" />
        <path d="M 120 900.205 L 130 900.205" />
        <path d="M 120 88.6101 L 130 88.6101" />
        <path d="M 120 286.56 L 130 286.56" />
        <path d="M 120 801.23 L 130 801.23" />
        <path d="M 120 583.485 L 130 583.485" />
        <path d="M 120 128.2 L 140 128.2" />
        <text font-size="30" transform="translate(110, 138.2)" text-anchor="end" dominant-baseline="middle" stroke="none" fill="black">40000</text>
        <path d="M 120 702.255 L 130 702.255" />
        <path d="M 120 187.585 L 130 187.585" />
    </g>
    <text id="frame_0_toplabel" font-size="30" transform="translate(535, 32.6)" text-anchor="middle" dominant-baseline="middle" stroke="none" fill="black">map.except</text>
    <g id="frame_0_topticks">
        <path d="M 120 50 L 120 70" />
        <path d="M 136.6 50 L 136.6 60" />
        <path d="M 153.2 50 L 153.2 60" />
        <path d="M 169.8 50 L 169.8 60" />
        <path d="M 186.4 50 L 186.4 60" />
        <path d="M 203 50 L 203 60" />
        <path d="M 219.6 50 L 219.6 60" />
        <path d="M 236.2 50 L 236.2 60" />
        <path d="M 252.8 50 L 252.8 60" />
        <path d="M 269.4 50 L 269.4 60" />
        <path d="M 286 50 L 286 70" />
        <path d="M 302.6 50 L 302.6 60" />
        <path d="M 319.2 50 L 319.2 60" />
        <path d="M 335.8 50 L 335.8 60" />
        <path d="M 352.4 50 L 352.4 60" />
        <path d="M 369 50 L 369 60" />
        <path d="M 385.6 50 L 385.6 60" />
        <path d="M 402.2 50 L 402.2 60" />
        <path d="M 418.8 50 L 418.8 60" />
        <path d="M 435.4 50 L 435.4 60" />
        <path d="M 452 50 L 452 70" />
        <path d="M 468.6 50 L 468.6 60" />
        <path d="M 485.2 50 L 485.2 60" />
        <path d="M 501.8 50 L 501.8 60" />
        <path d="M 518.4 50 L 518.4 60" />
        <path d="M 535 50 L 535 60" />
        <path d="M 551.6 50 L 551.6 60" />
        <path d="M 568.2 50 L 568.2 60" />
        <path d="M 584.8 50 L 584.8 60" />
        <path d="M 601.4 50 L 601.4 60" />
        <path d="M 618 50 L 618 70" />
        <path d="M 634.6 50 L 634.6 60" />
        <path d="M 651.2 50 L 651.2 60" />
        <path d="M 667.8 50 L 667.8 60" />
        <path d="M 684.4 50 L 684.4 60" />
        <path d="M 701 50 L 701 60" />
        <path d="M 717.6 50 L 717.6 60" />
        <path d="M 734.2 50 L 734.2 60" />
        <path d="M 750.8 50 L 750.8 60" />
        <path d="M 767.4 50 L 767.4 60" />
        <path d="M 784 50 L 784 70" />
        <path d="M 800.6 50 L 800.6 60" />
        <path d="M 817.2 50 L 817.2 60" />
        <path d="M 833.8 50 L 833.8 60" />
        <path d="M 850.4 50 L 850.4 60" />
        <path d="M 867 50 L 867 60" />
        <path d="M 883.6 50 L 883.6 60" />
        <path d="M 900.2 50 L 900.2 60" />
        <path d="M 916.8 50 L 916.8 60" />
        <path d="M 933.4 50 L 933.4 60" />
        <path d="M 950 50 L 950 70" />
    </g>
    <g id="frame_0_rightticks">
        <path d="M 950 603.28 L 940 603.28" />
        <path d="M 950 444.92 L 940 444.92" />
        <path d="M 950 385.535 L 940 385.535" />
        <path d="M 950 504.305 L 940 504.305" />
        <path d="M 950 246.97 L 940 246.97" />
        <path d="M 950 405.33 L 940 405.33" />
        <path d="M 950 781.435 L 940 781.435" />
        <path d="M 950 821.025 L 930 821.025" />
        <path d="M 950 306.355 L 940 306.355" />
        <path d="M 950 920 L 930 920" />
        <path d="M 950 722.05 L 930 722.05" />
        <path d="M 950 147.995 L 940 147.995" />
        <path d="M 950 840.82 L 940 840.82" />
        <path d="M 950 484.51 L 940 484.51" />
        <path d="M 950 524.1 L 930 524.1" />
        <path d="M 950 741.845 L 940 741.845" />
        <path d="M 950 623.075 L 930 623.075" />
        <path d="M 950 207.38 L 940 207.38" />
        <path d="M 950 642.87 L 940 642.87" />
        <path d="M 950 345.945 L 940 345.945" />
        <path d="M 950 108.405 L 940 108.405" />
        <path d="M 950 543.895 L 940 543.895" />
        <path d="M 950 266.765 L 940 266.765" />
        <path d="M 950 761.64 L 940 761.64" />
        <path d="M 950 365.74 L 940 365.74" />
        <path d="M 950 425.125 L 930 425.125" />
        <path d="M 950 662.665 L 940 662.665" />
        <path d="M 950 167.79 L 940 167.79" />
        <path d="M 950 326.15 L 930 326.15" />
        <path d="M 950 563.69 L 940 563.69" />
        <path d="M 950 860.615 L 940 860.615" />
        <path d="M 950 68.8151 L 940 68.8151" />
        <path d="M 950 464.715 L 940 464.715" />
        <path d="M 950 227.175 L 930 227.175" />
        <path d="M 950 682.46 L 940 682.46" />
        <path d="M 950 880.41 L 940 880.41" />
        <path d="M 950 900.205 L 940 900.205" />
        <path d="M 950 88.6101 L 940 88.6101" />
        <path d="M 950 286.56 L 940 286.56" />
        <path d="M 950 801.23 L 940 801.23" />
        <path d="M 950 583.485 L 940 583.485" />
        <path d="M 950 128.2 L 930 128.2" />
        <path d="M 950 702.255 L 940 702.255" />
        <path d="M 950 187.585 L 940 187.585" />
    </g>
</g>
</g>
</svg>
