<?xml version="1.0" standalone="no"?>
<!DOCTYPE svg PUBLIC "-//W3C//DTD SVG 1.1//EN" "http://www.w3.org/Graphics/SVG/1.1/DTD/svg11.dtd">
<svg style="stroke-linejoin:miter; stroke:black; stroke-width:2.5; text-anchor:middle; fill:none" xmlns="http://www.w3.org/2000/svg" font-family="Helvetica, Arial, FreeSans, Sans, sans, sans-serif" width="1000px" height="1000px" version="1.1" xmlns:xlink="http://www.w3.org/1999/xlink" viewBox="0 0 1000 1000">
<defs>
    <clipPath id="Histogram_0_clip">
        <rect x="120" y="50" width="830" height="870" />
    </clipPath>
    <clipPath id="Histogram_1_clip">
        <rect x="120" y="50" width="830" height="870" />
    </clipPath>
</defs>
<g id="whole_document">
<rect id="background" x="0" y="0" width="1000" height="1000" stroke="none" fill="white" />
<g id="Histogram_0" clip-path="url(#Histogram_0_clip)">
    <path d="M 120 920 L 120 129.091 L 161.5 129.091 L 161.5 791.449 L 203 791.449 L 203 916.179 L 244.5 916.179 L 244.5 822.359 L 286 822.359 L 286 912.511 L 327.5 912.511 L 327.5 914.594 L 369 914.594 L 369 920 L 410.5 920 L 410.5 920 L 452 920 L 452 920 L 493.5 920 L 493.5 920 L 535 920 L 535 920 L 576.5 920 L 576.5 920 L 618 920 L 618 913.696 L 659.5 913.696 L 659.5 920 L 701 920 L 701 920 L 742.5 920 L 742.5 920 L 784 920 L 784 920 L 825.5 920 L 825.5 920 L 867 920 L 867 917.899 L 908.5 917.899 L 908.5 918.376 L 950 918.376 L 950 920" stroke-width="3" stroke-dasharray="" stroke="black" stroke-opacity="1" fill="DodgerBlue" fill-opacity="1" />
</g>
<g id="Histogram_1" clip-path="url(#Histogram_1_clip)">
    <path d="M 120 920 L 120 920 L 161.5 920 L 161.5 920 L 203 920 L 203 920 L 244.5 920 L 244.5 822.359 L 286 822.359 L 286 912.511 L 327.5 912.511 L 327.5 914.594 L 369 914.594 L 369 920 L 410.5 920 L 410.5 920 L 452 920 L 452 920 L 493.5 920 L 493.5 920 L 535 920 L 535 920 L 576.5 920 L 576.5 920 L 618 920 L 618 920 L 659.5 920 L 659.5 920 L 701 920 L 701 920 L 742.5 920 L 742.5 920 L 784 920 L 784 920 L 825.5 920 L 825.5 920 L 867 920 L 867 920 L 908.5 920 L 908.5 920 L 950 920 L 950 920" stroke-width="3" stroke-dasharray="" stroke="black" stroke-opacity="1" fill="darkorange" fill-opacity="1" />
</g>
<g id="frame_0">
    <rect id="frame_0_border" x="120" y="50" width="830" height="870" />
    <text id="frame_0_bottomlabel" font-size="30" transform="translate(535, 989.6)" text-anchor="middle" dominant-baseline="middle" stroke="none" fill="black">microseconds</text>
    <g id="frame_0_bottomticks">
        <path d="M 120 920 L 120 900" />
        <text font-size="30" transform="translate(120, 950)" text-anchor="middle" dominant-baseline="middle" stroke="none" fill="black">0</text>
        <path d="M 136.6 920 L 136.6 910" />
        <path d="M 153.2 920 L 153.2 910" />
        <path d="M 169.8 920 L 169.8 910" />
        <path d="M 186.4 920 L 186.4 910" />
        <path d="M 203 920 L 203 910" />
        <path d="M 219.6 920 L 219.6 910" />
        <path d="M 236.2 920 L 236.2 910" />
        <path d="M 252.8 920 L 252.8 910" />
        <path d="M 269.4 920 L 269.4 910" />
        <path d="M 286 920 L 286 900" />
        <text font-size="30" transform="translate(286, 950)" text-anchor="middle" dominant-baseline="middle" stroke="none" fill="black">10</text>
        <path d="M 302.6 920 L 302.6 910" />
        <path d="M 319.2 920 L 319.2 910" />
        <path d="M 335.8 920 L 335.8 910" />
        <path d="M 352.4 920 L 352.4 910" />
        <path d="M 369 920 L 369 910" />
        <path d="M 385.6 920 L 385.6 910" />
        <path d="M 402.2 920 L 402.2 910" />
        <path d="M 418.8 920 L 418.8 910" />
        <path d="M 435.4 920 L 435.4 910" />
        <path d="M 452 920 L 452 900" />
        <text font-size="30" transform="translate(452, 950)" text-anchor="middle" dominant-baseline="middle" stroke="none" fill="black">20</text>
        <path d="M 468.6 920 L 468.6 910" />
        <path d="M 485.2 920 L 485.2 910" />
        <path d="M 501.8 920 L 501.8 910" />
        <path d="M 518.4 920 L 518.4 910" />
        <path d="M 535 920 L 535 910" />
        <path d="M 551.6 920 L 551.6 910" />
        <path d="M 568.2 920 L 568.2 910" />
        <path d="M 584.8 920 L 584.8 910" />
        <path d="M 601.4 920 L 601.4 910" />
        <path d="M 618 920 L 618 900" />
        <text font-size="30" transform="translate(618, 950)" text-anchor="middle" dominant-baseline="middle" stroke="none" fill="black">30</text>
        <path d="M 634.6 920 L 634.6 910" />
        <path d="M 651.2 920 L 651.2 910" />
        <path d="M 667.8 920 L 667.8 910" />
        <path d="M 684.4 920 L 684.4 910" />
        <path d="M 701 920 L 701 910" />
        <path d="M 717.6 920 L 717.6 910" />
        <path d="M 734.2 920 L 734.2 910" />
        <path d="M 750.8 920 L 750.8 910" />
        <path d="M 767.4 920 L 767.4 910" />
        <path d="M 784 920 L 784 900" />
        <text font-size="30" transform="translate(784, 950)" text-anchor="middle" dominant-baseline="middle" stroke="none" fill="black">40</text>
        <path d="M 800.6 920 L 800.6 910" />
        <path d="M 817.2 920 L 817.2 910" />
        <path d="M 833.8 920 L 833.8 910" />
        <path d="M 850.4 920 L 850.4 910" />
        <path d="M 867 920 L 867 910" />
        <path d="M 883.6 920 L 883.6 910" />
        <path d="M 900.2 920 L 900.2 910" />
        <path d="M 916.8 920 L 916.8 910" />
        <path d="M 933.4 920 L 933.4 910" />
        <path d="M 950 920 L 950 900" />
        <text font-size="30" transform="translate(950, 950)" text-anchor="middle" dominant-baseline="middle" stroke="none" fill="black">50</text>
    </g>
    <g id="frame_0_leftticks">
        <path d="M 120 614.335 L 130 614.335" />
        <path d="M 120 461.502 L 130 461.502" />
        <path d="M 120 404.19 L 130 404.19" />
        <path d="M 120 518.814 L 130 518.814" />
        <path d="M 120 270.461 L 130 270.461" />
        <path d="M 120 423.294 L 130 423.294" />
        <path d="M 120 786.271 L 130 786.271" />
        <path d="M 120 633.439 L 130 633.439" />
        <path d="M 120 920 L 140 920" />
        <text font-size="30" transform="translate(110, 930)" text-anchor="end" dominant-baseline="middle" stroke="none" fill="black">0</text>
        <path d="M 120 365.982 L 130 365.982" />
        <path d="M 120 327.773 L 130 327.773" />
        <path d="M 120 174.941 L 130 174.941" />
        <path d="M 120 843.584 L 130 843.584" />
        <path d="M 120 499.71 L 130 499.71" />
        <path d="M 120 79.4203 L 130 79.4203" />
        <path d="M 120 728.959 L 140 728.959" />
        <text font-size="30" transform="translate(110, 738.959)" text-anchor="end" dominant-baseline="middle" stroke="none" fill="black">10000</text>
        <path d="M 120 537.918 L 140 537.918" />
        <text font-size="30" transform="translate(110, 547.918)" text-anchor="end" dominant-baseline="middle" stroke="none" fill="black">20000</text>
        <path d="M 120 748.063 L 130 748.063" />
        <path d="M 120 232.253 L 130 232.253" />
        <path d="M 120 652.543 L 130 652.543" />
        <path d="M 120 824.48 L 130 824.48" />
        <path d="M 120 136.733 L 130 136.733" />
        <path d="M 120 557.022 L 130 557.022" />
        <path d="M 120 289.565 L 130 289.565" />
        <path d="M 120 767.167 L 130 767.167" />
        <path d="M 120 385.086 L 130 385.086" />
        <path d="M 120 442.398 L 130 442.398" />
        <path d="M 120 671.647 L 130 671.647" />
        <path d="M 120 194.045 L 130 194.045" />
        <path d="M 120 346.877 L 140 346.877" />
        <text font-size="30" transform="translate(110, 356.877)" text-anchor="end" dominant-baseline="middle" stroke="none" fill="black">30000</text>
        <path d="M 120 881.792 L 130 881.792" />
        <path d="M 120 862.688 L 130 862.688" />
        <path d="M 120 98.5244 L 130 98.5244" />
        <path d="M 120 480.606 L 130 480.606" />
        <path d="M 120 251.357 L 130 251.357" />
        <path d="M 120 690.751 L 130 690.751" />
        <path d="M 120 576.126 L 130 576.126" />
        <path d="M 120 900.896 L 130 900.896" />
        <path d="M 120 117.628 L 130 117.628" />
        <path d="M 120 308.669 L 130 308.669" />
        <path d="M 120 805.375 L 130 805.375" />
        <path d="M 120 595.231 L 130 595.231" />
        <path d="M 120 155.837 L 140 155.837" />
        <text font-size="30" transform="translate(110, 165.837)" text-anchor="end" dominant-baseline="middle" stroke="none" fill="black">40000</text>
        <path d="M 120 60.3162 L 130 60.3162" />
        <path d="M 120 709.855 L 130 709.855" />
        <path d="M 120 213.149 L 130 213.149" />
    </g>
    <text id="frame_0_toplabel" font-size="30" transform="translate(535, 32.6)" text-anchor="middle" dominant-baseline="middle" stroke="none" fill="black">a.median</text>
    <g id="frame_0_topticks">
        <path d="M 120 50 L 120 70" />
        <path d="M 136.6 50 L 136.6 60" />
        <path d="M 153.2 50 L 153.2 60" />
        <path d="M 169.8 50 L 169.8 60" />
        <path d="M 186.4 50 L 186.4 60" />
        <path d="M 203 50 L 203 60" />
        <path d="M 219.6 50 L 219.6 60" />
        <path d="M 236.2 50 L 236.2 60" />
        <path d="M 252.8 50 L 252.8 60" />
        <path d="M 269.4 50 L 269.4 60" />
        <path d="M 286 50 L 286 70" />
        <path d="M 302.6 50 L 302.6 60" />
        <path d="M 319.2 50 L 319.2 60" />
        <path d="M 335.8 50 L 335.8 60" />
        <path d="M 352.4 50 L 352.4 60" />
        <path d="M 369 50 L 369 60" />
        <path d="M 385.6 50 L 385.6 60" />
        <path d="M 402.2 50 L 402.2 60" />
        <path d="M 418.8 50 L 418.8 60" />
        <path d="M 435.4 50 L 435.4 60" />
        <path d="M 452 50 L 452 70" />
        <path d="M 468.6 50 L 468.6 60" />
        <path d="M 485.2 50 L 485.2 60" />
        <path d="M 501.8 50 L 501.8 60" />
        <path d="M 518.4 50 L 518.4 60" />
        <path d="M 535 50 L 535 60" />
        <path d="M 551.6 50 L 551.6 60" />
        <path d="M 568.2 50 L 568.2 60" />
        <path d="M 584.8 50 L 584.8 60" />
        <path d="M 601.4 50 L 601.4 60" />
        <path d="M 618 50 L 618 70" />
        <path d="M 634.6 50 L 634.6 60" />
        <path d="M 651.2 50 L 651.2 60" />
        <path d="M 667.8 50 L 667.8 60" />
        <path d="M 684.4 50 L 684.4 60" />
        <path d="M 701 50 L 701 60" />
        <path d="M 717.6 50 L 717.6 60" />
        <path d="M 734.2 50 L 734.2 60" />
        <path d="M 750.8 50 L 750.8 60" />
        <path d="M 767.4 50 L 767.4 60" />
        <path d="M 784 50 L 784 70" />
        <path d="M 800.6 50 L 800.6 60" />
        <path d="M 817.2 50 L 817.2 60" />
        <path d="M 833.8 50 L 833.8 60" />
        <path d="M 850.4 50 L 850.4 60" />
        <path d="M 867 50 L 867 60" />
        <path d="M 883.6 50 L 883.6 60" />
        <path d="M 900.2 50 L 900.2 60" />
        <path d="M 916.8 50 L 916.8 60" />
        <path d="M 933.4 50 L 933.4 60" />
        <path d="M 950 50 L 950 70" />
    </g>
    <g id="frame_0_rightticks">
        <path d="M 950 614.335 L 940 614.335" />
        <path d="M 950 461.502 L 940 461.502" />
        <path d="M 950 404.19 L 940 404.19" />
        <path d="M 950 518.814 L 940 518.814" />
        <path d="M 950 270.461 L 940 270.461" />
        <path d="M 950 423.294 L 940 423.294" />
        <path d="M 950 786.271 L 940 786.271" />
        <path d="M 950 633.439 L 940 633.439" />
        <path d="M 950 920 L 930 920" />
        <path d="M 950 365.982 L 940 365.982" />
        <path d="M 950 327.773 L 940 327.773" />
        <path d="M 950 174.941 L 940 174.941" />
        <path d="M 950 843.584 L 940 843.584" />
        <path d="M 950 499.71 L 940 499.71" />
        <path d="M 950 79.4203 L 940 79.4203" />
        <path d="M 950 728.959 L 930 728.959" />
        <path d="M 950 537.918 L 930 537.918" />
        <path d="M 950 748.063 L 940 748.063" />
        <path d="M 950 232.253 L 940 232.253" />
        <path d="M 950 652.543 L 940 652.543" />
        <path d="M 950 824.48 L 940 824.48" />
        <path d="M 950 136.733 L 940 136.733" />
        <path d="M 950 557.022 L 940 557.022" />
        <path d="M 950 289.565 L 940 289.565" />
        <path d="M 950 767.167 L 940 767.167" />
        <path d="M 950 385.086 L 940 385.086" />
        <path d="M 950 442.398 L 940 442.398" />
        <path d="M 950 671.647 L 940 671.647" />
        <path d="M 950 194.045 L 940 194.045" />
        <path d="M 950 346.877 L 930 346.877" />
        <path d="M 950 881.792 L 940 881.792" />
        <path d="M 950 862.688 L 940 862.688" />
        <path d="M 950 98.5244 L 940 98.5244" />
        <path d="M 950 480.606 L 940 480.606" />
        <path d="M 950 251.357 L 940 251.357" />
        <path d="M 950 690.751 L 940 690.751" />
        <path d="M 950 576.126 L 940 576.126" />
        <path d="M 950 900.896 L 940 900.896" />
        <path d="M 950 117.628 L 940 117.628" />
        <path d="M 950 308.669 L 940 308.669" />
        <path d="M 950 805.375 L 940 805.375" />
        <path d="M 950 595.231 L 940 595.231" />
        <path d="M 950 155.837 L 930 155.837" />
        <path d="M 950 60.3162 L 940 60.3162" />
        <path d="M 950 709.855 L 940 709.855" />
        <path d="M 950 213.149 L 940 213.149" />
    </g>
</g>
</g>
</svg>
