<?xml version="1.0" standalone="no"?>
<!DOCTYPE svg PUBLIC "-//W3C//DTD SVG 1.1//EN" "http://www.w3.org/Graphics/SVG/1.1/DTD/svg11.dtd">
<svg style="stroke-linejoin:miter; stroke:black; stroke-width:2.5; text-anchor:middle; fill:none" xmlns="http://www.w3.org/2000/svg" font-family="Helvetica, Arial, FreeSans, Sans, sans, sans-serif" width="1000px" height="1000px" version="1.1" xmlns:xlink="http://www.w3.org/1999/xlink" viewBox="0 0 1000 1000">
<defs>
    <clipPath id="Histogram_0_clip">
        <rect x="120" y="50" width="830" height="870" />
    </clipPath>
    <clipPath id="Histogram_1_clip">
        <rect x="120" y="50" width="830" height="870" />
    </clipPath>
</defs>
<g id="whole_document">
<rect id="background" x="0" y="0" width="1000" height="1000" stroke="none" fill="white" />
<g id="Histogram_0" clip-path="url(#Histogram_0_clip)">
    <path d="M 120 920 L 120 920 L 161.5 920 L 161.5 920 L 203 920 L 203 920 L 244.5 920 L 244.5 129.091 L 286 129.091 L 286 920 L 327.5 920 L 327.5 920 L 369 920 L 369 710.591 L 410.5 710.591 L 410.5 734.82 L 452 734.82 L 452 842.121 L 493.5 842.121 L 493.5 849.043 L 535 849.043 L 535 920 L 576.5 920 L 576.5 920 L 618 920 L 618 920 L 659.5 920 L 659.5 920 L 701 920 L 701 920 L 742.5 920 L 742.5 920 L 784 920 L 784 920 L 825.5 920 L 825.5 920 L 867 920 L 867 920 L 908.5 920 L 908.5 920 L 950 920 L 950 920" stroke-width="3" stroke-dasharray="" stroke="black" stroke-opacity="1" fill="DodgerBlue" fill-opacity="1" />
</g>
<g id="Histogram_1" clip-path="url(#Histogram_1_clip)">
    <path d="M 120 920 L 120 920 L 161.5 920 L 161.5 920 L 203 920 L 203 920 L 244.5 920 L 244.5 920 L 286 920 L 286 920 L 327.5 920 L 327.5 920 L 369 920 L 369 920 L 410.5 920 L 410.5 734.82 L 452 734.82 L 452 842.121 L 493.5 842.121 L 493.5 849.043 L 535 849.043 L 535 920 L 576.5 920 L 576.5 920 L 618 920 L 618 920 L 659.5 920 L 659.5 920 L 701 920 L 701 920 L 742.5 920 L 742.5 920 L 784 920 L 784 920 L 825.5 920 L 825.5 920 L 867 920 L 867 920 L 908.5 920 L 908.5 920 L 950 920 L 950 920" stroke-width="3" stroke-dasharray="" stroke="black" stroke-opacity="1" fill="darkorange" fill-opacity="1" />
</g>
<g id="frame_0">
    <rect id="frame_0_border" x="120" y="50" width="830" height="870" />
    <text id="frame_0_bottomlabel" font-size="30" transform="translate(535, 989.6)" text-anchor="middle" dominant-baseline="middle" stroke="none" fill="black">microseconds</text>
    <g id="frame_0_bottomticks">
        <path d="M 120 920 L 120 900" />
        <text font-size="30" transform="translate(120, 950)" text-anchor="middle" dominant-baseline="middle" stroke="none" fill="black">0</text>
        <path d="M 136.6 920 L 136.6 910" />
        <path d="M 153.2 920 L 153.2 910" />
        <path d="M 169.8 920 L 169.8 910" />
        <path d="M 186.4 920 L 186.4 910" />
        <path d="M 203 920 L 203 910" />
        <path d="M 219.6 920 L 219.6 910" />
        <path d="M 236.2 920 L 236.2 910" />
        <path d="M 252.8 920 L 252.8 910" />
        <path d="M 269.4 920 L 269.4 910" />
        <path d="M 286 920 L 286 900" />
        <text font-size="30" transform="translate(286, 950)" text-anchor="middle" dominant-baseline="middle" stroke="none" fill="black">10</text>
        <path d="M 302.6 920 L 302.6 910" />
        <path d="M 319.2 920 L 319.2 910" />
        <path d="M 335.8 920 L 335.8 910" />
        <path d="M 352.4 920 L 352.4 910" />
        <path d="M 369 920 L 369 910" />
        <path d="M 385.6 920 L 385.6 910" />
        <path d="M 402.2 920 L 402.2 910" />
        <path d="M 418.8 920 L 418.8 910" />
        <path d="M 435.4 920 L 435.4 910" />
        <path d="M 452 920 L 452 900" />
        <text font-size="30" transform="translate(452, 950)" text-anchor="middle" dominant-baseline="middle" stroke="none" fill="black">20</text>
        <path d="M 468.6 920 L 468.6 910" />
        <path d="M 485.2 920 L 485.2 910" />
        <path d="M 501.8 920 L 501.8 910" />
        <path d="M 518.4 920 L 518.4 910" />
        <path d="M 535 920 L 535 910" />
        <path d="M 551.6 920 L 551.6 910" />
        <path d="M 568.2 920 L 568.2 910" />
        <path d="M 584.8 920 L 584.8 910" />
        <path d="M 601.4 920 L 601.4 910" />
        <path d="M 618 920 L 618 900" />
        <text font-size="30" transform="translate(618, 950)" text-anchor="middle" dominant-baseline="middle" stroke="none" fill="black">30</text>
        <path d="M 634.6 920 L 634.6 910" />
        <path d="M 651.2 920 L 651.2 910" />
        <path d="M 667.8 920 L 667.8 910" />
        <path d="M 684.4 920 L 684.4 910" />
        <path d="M 701 920 L 701 910" />
        <path d="M 717.6 920 L 717.6 910" />
        <path d="M 734.2 920 L 734.2 910" />
        <path d="M 750.8 920 L 750.8 910" />
        <path d="M 767.4 920 L 767.4 910" />
        <path d="M 784 920 L 784 900" />
        <text font-size="30" transform="translate(784, 950)" text-anchor="middle" dominant-baseline="middle" stroke="none" fill="black">40</text>
        <path d="M 800.6 920 L 800.6 910" />
        <path d="M 817.2 920 L 817.2 910" />
        <path d="M 833.8 920 L 833.8 910" />
        <path d="M 850.4 920 L 850.4 910" />
        <path d="M 867 920 L 867 910" />
        <path d="M 883.6 920 L 883.6 910" />
        <path d="M 900.2 920 L 900.2 910" />
        <path d="M 916.8 920 L 916.8 910" />
        <path d="M 933.4 920 L 933.4 910" />
        <path d="M 950 920 L 950 900" />
        <text font-size="30" transform="translate(950, 950)" text-anchor="middle" dominant-baseline="middle" stroke="none" fill="black">50</text>
    </g>
    <g id="frame_0_leftticks">
        <path d="M 120 920 L 140 920" />
        <text font-size="30" transform="translate(110, 930)" text-anchor="end" dominant-baseline="middle" stroke="none" fill="black">0</text>
        <path d="M 120 695.015 L 130 695.015" />
        <path d="M 120 470.03 L 130 470.03" />
        <path d="M 120 245.045 L 130 245.045" />
        <path d="M 120 902.693 L 130 902.693" />
        <path d="M 120 677.708 L 130 677.708" />
        <path d="M 120 452.723 L 130 452.723" />
        <path d="M 120 227.738 L 140 227.738" />
        <text font-size="30" transform="translate(110, 237.738)" text-anchor="end" dominant-baseline="middle" stroke="none" fill="black">400</text>
        <path d="M 120 885.387 L 130 885.387" />
        <path d="M 120 660.402 L 130 660.402" />
        <path d="M 120 435.417 L 130 435.417" />
        <path d="M 120 210.432 L 130 210.432" />
        <path d="M 120 868.08 L 130 868.08" />
        <path d="M 120 643.095 L 130 643.095" />
        <path d="M 120 418.11 L 130 418.11" />
        <path d="M 120 193.125 L 130 193.125" />
        <path d="M 120 850.774 L 130 850.774" />
        <path d="M 120 625.789 L 130 625.789" />
        <path d="M 120 400.804 L 140 400.804" />
        <text font-size="30" transform="translate(110, 410.804)" text-anchor="end" dominant-baseline="middle" stroke="none" fill="black">300</text>
        <path d="M 120 175.819 L 130 175.819" />
        <path d="M 120 833.467 L 130 833.467" />
        <path d="M 120 608.482 L 130 608.482" />
        <path d="M 120 383.497 L 130 383.497" />
        <path d="M 120 158.512 L 130 158.512" />
        <path d="M 120 816.161 L 130 816.161" />
        <path d="M 120 591.176 L 130 591.176" />
        <path d="M 120 366.191 L 130 366.191" />
        <path d="M 120 141.205 L 130 141.205" />
        <path d="M 120 798.854 L 130 798.854" />
        <path d="M 120 573.869 L 140 573.869" />
        <text font-size="30" transform="translate(110, 583.869)" text-anchor="end" dominant-baseline="middle" stroke="none" fill="black">200</text>
        <path d="M 120 348.884 L 130 348.884" />
        <path d="M 120 123.899 L 130 123.899" />
        <path d="M 120 781.548 L 130 781.548" />
        <path d="M 120 556.563 L 130 556.563" />
        <path d="M 120 331.577 L 130 331.577" />
        <path d="M 120 106.592 L 130 106.592" />
        <path d="M 120 764.241 L 130 764.241" />
        <path d="M 120 539.256 L 130 539.256" />
        <path d="M 120 314.271 L 130 314.271" />
        <path d="M 120 89.2859 L 130 89.2859" />
        <path d="M 120 746.935 L 140 746.935" />
        <text font-size="30" transform="translate(110, 756.935)" text-anchor="end" dominant-baseline="middle" stroke="none" fill="black">100</text>
        <path d="M 120 521.949 L 130 521.949" />
        <path d="M 120 296.964 L 130 296.964" />
        <path d="M 120 71.9793 L 130 71.9793" />
        <path d="M 120 729.628 L 130 729.628" />
        <path d="M 120 504.643 L 130 504.643" />
        <path d="M 120 279.658 L 130 279.658" />
        <path d="M 120 54.6728 L 140 54.6728" />
        <text font-size="30" transform="translate(110, 64.6728)" text-anchor="end" dominant-baseline="middle" stroke="none" fill="black">500</text>
        <path d="M 120 712.321 L 130 712.321" />
        <path d="M 120 487.336 L 130 487.336" />
        <path d="M 120 262.351 L 130 262.351" />
    </g>
    <text id="frame_0_toplabel" font-size="30" transform="translate(535, 32.6)" text-anchor="middle" dominant-baseline="middle" stroke="none" fill="black">parse.float</text>
    <g id="frame_0_topticks">
        <path d="M 120 50 L 120 70" />
        <path d="M 136.6 50 L 136.6 60" />
        <path d="M 153.2 50 L 153.2 60" />
        <path d="M 169.8 50 L 169.8 60" />
        <path d="M 186.4 50 L 186.4 60" />
        <path d="M 203 50 L 203 60" />
        <path d="M 219.6 50 L 219.6 60" />
        <path d="M 236.2 50 L 236.2 60" />
        <path d="M 252.8 50 L 252.8 60" />
        <path d="M 269.4 50 L 269.4 60" />
        <path d="M 286 50 L 286 70" />
        <path d="M 302.6 50 L 302.6 60" />
        <path d="M 319.2 50 L 319.2 60" />
        <path d="M 335.8 50 L 335.8 60" />
        <path d="M 352.4 50 L 352.4 60" />
        <path d="M 369 50 L 369 60" />
        <path d="M 385.6 50 L 385.6 60" />
        <path d="M 402.2 50 L 402.2 60" />
        <path d="M 418.8 50 L 418.8 60" />
        <path d="M 435.4 50 L 435.4 60" />
        <path d="M 452 50 L 452 70" />
        <path d="M 468.6 50 L 468.6 60" />
        <path d="M 485.2 50 L 485.2 60" />
        <path d="M 501.8 50 L 501.8 60" />
        <path d="M 518.4 50 L 518.4 60" />
        <path d="M 535 50 L 535 60" />
        <path d="M 551.6 50 L 551.6 60" />
        <path d="M 568.2 50 L 568.2 60" />
        <path d="M 584.8 50 L 584.8 60" />
        <path d="M 601.4 50 L 601.4 60" />
        <path d="M 618 50 L 618 70" />
        <path d="M 634.6 50 L 634.6 60" />
        <path d="M 651.2 50 L 651.2 60" />
        <path d="M 667.8 50 L 667.8 60" />
        <path d="M 684.4 50 L 684.4 60" />
        <path d="M 701 50 L 701 60" />
        <path d="M 717.6 50 L 717.6 60" />
        <path d="M 734.2 50 L 734.2 60" />
        <path d="M 750.8 50 L 750.8 60" />
        <path d="M 767.4 50 L 767.4 60" />
        <path d="M 784 50 L 784 70" />
        <path d="M 800.6 50 L 800.6 60" />
        <path d="M 817.2 50 L 817.2 60" />
        <path d="M 833.8 50 L 833.8 60" />
        <path d="M 850.4 50 L 850.4 60" />
        <path d="M 867 50 L 867 60" />
        <path d="M 883.6 50 L 883.6 60" />
        <path d="M 900.2 50 L 900.2 60" />
        <path d="M 916.8 50 L 916.8 60" />
        <path d="M 933.4 50 L 933.4 60" />
        <path d="M 950 50 L 950 70" />
    </g>
    <g id="frame_0_rightticks">
        <path d="M 950 920 L 930 920" />
        <path d="M 950 695.015 L 940 695.015" />
        <path d="M 950 470.03 L 940 470.03" />
        <path d="M 950 245.045 L 940 245.045" />
        <path d="M 950 902.693 L 940 902.693" />
        <path d="M 950 677.708 L 940 677.708" />
        <path d="M 950 452.723 L 940 452.723" />
        <path d="M 950 227.738 L 930 227.738" />
        <path d="M 950 885.387 L 940 885.387" />
        <path d="M 950 660.402 L 940 660.402" />
        <path d="M 950 435.417 L 940 435.417" />
        <path d="M 950 210.432 L 940 210.432" />
        <path d="M 950 868.08 L 940 868.08" />
        <path d="M 950 643.095 L 940 643.095" />
        <path d="M 950 418.11 L 940 418.11" />
        <path d="M 950 193.125 L 940 193.125" />
        <path d="M 950 850.774 L 940 850.774" />
        <path d="M 950 625.789 L 940 625.789" />
        <path d="M 950 400.804 L 930 400.804" />
        <path d="M 950 175.819 L 940 175.819" />
        <path d="M 950 833.467 L 940 833.467" />
        <path d="M 950 608.482 L 940 608.482" />
        <path d="M 950 383.497 L 940 383.497" />
        <path d="M 950 158.512 L 940 158.512" />
        <path d="M 950 816.161 L 940 816.161" />
        <path d="M 950 591.176 L 940 591.176" />
        <path d="M 950 366.191 L 940 366.191" />
        <path d="M 950 141.205 L 940 141.205" />
        <path d="M 950 798.854 L 940 798.854" />
        <path d="M 950 573.869 L 930 573.869" />
        <path d="M 950 348.884 L 940 348.884" />
        <path d="M 950 123.899 L 940 123.899" />
        <path d="M 950 781.548 L 940 781.548" />
        <path d="M 950 556.563 L 940 556.563" />
        <path d="M 950 331.577 L 940 331.577" />
        <path d="M 950 106.592 L 940 106.592" />
        <path d="M 950 764.241 L 940 764.241" />
        <path d="M 950 539.256 L 940 539.256" />
        <path d="M 950 314.271 L 940 314.271" />
        <path d="M 950 89.2859 L 940 89.2859" />
        <path d="M 950 746.935 L 930 746.935" />
        <path d="M 950 521.949 L 940 521.949" />
        <path d="M 950 296.964 L 940 296.964" />
        <path d="M 950 71.9793 L 940 71.9793" />
        <path d="M 950 729.628 L 940 729.628" />
        <path d="M 950 504.643 L 940 504.643" />
        <path d="M 950 279.658 L 940 279.658" />
        <path d="M 950 54.6728 L 930 54.6728" />
        <path d="M 950 712.321 L 940 712.321" />
        <path d="M 950 487.336 L 940 487.336" />
        <path d="M 950 262.351 L 940 262.351" />
    </g>
</g>
</g>
</svg>
