<?xml version="1.0" standalone="no"?>
<!DOCTYPE svg PUBLIC "-//W3C//DTD SVG 1.1//EN" "http://www.w3.org/Graphics/SVG/1.1/DTD/svg11.dtd">
<svg style="stroke-linejoin:miter; stroke:black; stroke-width:2.5; text-anchor:middle; fill:none" xmlns="http://www.w3.org/2000/svg" font-family="Helvetica, Arial, FreeSans, Sans, sans, sans-serif" width="1000px" height="1000px" version="1.1" xmlns:xlink="http://www.w3.org/1999/xlink" viewBox="0 0 1000 1000">
<defs>
    <clipPath id="Histogram_0_clip">
        <rect x="120" y="50" width="830" height="870" />
    </clipPath>
</defs>
<g id="whole_document">
<rect id="background" x="0" y="0" width="1000" height="1000" stroke="none" fill="white" />
<g id="Histogram_0" clip-path="url(#Histogram_0_clip)">
    <path d="M 120 920 L 120 129.091 L 161.5 129.091 L 161.5 911.601 L 203 911.601 L 203 919.63 L 244.5 919.63 L 244.5 920 L 286 920 L 286 920 L 327.5 920 L 327.5 920 L 369 920 L 369 920 L 410.5 920 L 410.5 920 L 452 920 L 452 920 L 493.5 920 L 493.5 920 L 535 920 L 535 920 L 576.5 920 L 576.5 920 L 618 920 L 618 920 L 659.5 920 L 659.5 920 L 701 920 L 701 920 L 742.5 920 L 742.5 920 L 784 920 L 784 920 L 825.5 920 L 825.5 920 L 867 920 L 867 920 L 908.5 920 L 908.5 920 L 950 920 L 950 920" stroke-width="3" stroke-dasharray="" stroke="black" stroke-opacity="1" fill="DodgerBlue" fill-opacity="1" />
</g>
<g id="frame_0">
    <rect id="frame_0_border" x="120" y="50" width="830" height="870" />
    <text id="frame_0_bottomlabel" font-size="30" transform="translate(535, 989.6)" text-anchor="middle" dominant-baseline="middle" stroke="none" fill="black">microseconds</text>
    <g id="frame_0_bottomticks">
        <path d="M 120 920 L 120 900" />
        <text font-size="30" transform="translate(120, 950)" text-anchor="middle" dominant-baseline="middle" stroke="none" fill="black">0</text>
        <path d="M 136.6 920 L 136.6 910" />
        <path d="M 153.2 920 L 153.2 910" />
        <path d="M 169.8 920 L 169.8 910" />
        <path d="M 186.4 920 L 186.4 910" />
        <path d="M 203 920 L 203 910" />
        <path d="M 219.6 920 L 219.6 910" />
        <path d="M 236.2 920 L 236.2 910" />
        <path d="M 252.8 920 L 252.8 910" />
        <path d="M 269.4 920 L 269.4 910" />
        <path d="M 286 920 L 286 900" />
        <text font-size="30" transform="translate(286, 950)" text-anchor="middle" dominant-baseline="middle" stroke="none" fill="black">10</text>
        <path d="M 302.6 920 L 302.6 910" />
        <path d="M 319.2 920 L 319.2 910" />
        <path d="M 335.8 920 L 335.8 910" />
        <path d="M 352.4 920 L 352.4 910" />
        <path d="M 369 920 L 369 910" />
        <path d="M 385.6 920 L 385.6 910" />
        <path d="M 402.2 920 L 402.2 910" />
        <path d="M 418.8 920 L 418.8 910" />
        <path d="M 435.4 920 L 435.4 910" />
        <path d="M 452 920 L 452 900" />
        <text font-size="30" transform="translate(452, 950)" text-anchor="middle" dominant-baseline="middle" stroke="none" fill="black">20</text>
        <path d="M 468.6 920 L 468.6 910" />
        <path d="M 485.2 920 L 485.2 910" />
        <path d="M 501.8 920 L 501.8 910" />
        <path d="M 518.4 920 L 518.4 910" />
        <path d="M 535 920 L 535 910" />
        <path d="M 551.6 920 L 551.6 910" />
        <path d="M 568.2 920 L 568.2 910" />
        <path d="M 584.8 920 L 584.8 910" />
        <path d="M 601.4 920 L 601.4 910" />
        <path d="M 618 920 L 618 900" />
        <text font-size="30" transform="translate(618, 950)" text-anchor="middle" dominant-baseline="middle" stroke="none" fill="black">30</text>
        <path d="M 634.6 920 L 634.6 910" />
        <path d="M 651.2 920 L 651.2 910" />
        <path d="M 667.8 920 L 667.8 910" />
        <path d="M 684.4 920 L 684.4 910" />
        <path d="M 701 920 L 701 910" />
        <path d="M 717.6 920 L 717.6 910" />
        <path d="M 734.2 920 L 734.2 910" />
        <path d="M 750.8 920 L 750.8 910" />
        <path d="M 767.4 920 L 767.4 910" />
        <path d="M 784 920 L 784 900" />
        <text font-size="30" transform="translate(784, 950)" text-anchor="middle" dominant-baseline="middle" stroke="none" fill="black">40</text>
        <path d="M 800.6 920 L 800.6 910" />
        <path d="M 817.2 920 L 817.2 910" />
        <path d="M 833.8 920 L 833.8 910" />
        <path d="M 850.4 920 L 850.4 910" />
        <path d="M 867 920 L 867 910" />
        <path d="M 883.6 920 L 883.6 910" />
        <path d="M 900.2 920 L 900.2 910" />
        <path d="M 916.8 920 L 916.8 910" />
        <path d="M 933.4 920 L 933.4 910" />
        <path d="M 950 920 L 950 900" />
        <text font-size="30" transform="translate(950, 950)" text-anchor="middle" dominant-baseline="middle" stroke="none" fill="black">50</text>
    </g>
    <g id="frame_0_leftticks">
        <path d="M 120 767.606 L 130 767.606" />
        <path d="M 120 691.41 L 130 691.41" />
        <path d="M 120 424.721 L 130 424.721" />
        <path d="M 120 920 L 140 920" />
        <text font-size="30" transform="translate(110, 930)" text-anchor="end" dominant-baseline="middle" stroke="none" fill="black">0</text>
        <path d="M 120 519.967 L 130 519.967" />
        <path d="M 120 119.934 L 130 119.934" />
        <path d="M 120 615.213 L 130 615.213" />
        <path d="M 120 748.557 L 130 748.557" />
        <path d="M 120 310.426 L 130 310.426" />
        <path d="M 120 405.672 L 130 405.672" />
        <path d="M 120 900.951 L 130 900.951" />
        <path d="M 120 881.902 L 130 881.902" />
        <path d="M 120 710.459 L 130 710.459" />
        <path d="M 120 100.885 L 130 100.885" />
        <path d="M 120 196.131 L 130 196.131" />
        <path d="M 120 291.377 L 130 291.377" />
        <path d="M 120 862.852 L 130 862.852" />
        <path d="M 120 824.754 L 130 824.754" />
        <path d="M 120 386.623 L 130 386.623" />
        <path d="M 120 481.869 L 130 481.869" />
        <path d="M 120 786.656 L 130 786.656" />
        <path d="M 120 81.8356 L 130 81.8356" />
        <path d="M 120 577.115 L 130 577.115" />
        <path d="M 120 843.803 L 130 843.803" />
        <path d="M 120 500.918 L 130 500.918" />
        <path d="M 120 177.082 L 130 177.082" />
        <path d="M 120 272.327 L 130 272.327" />
        <path d="M 120 367.573 L 130 367.573" />
        <path d="M 120 672.361 L 130 672.361" />
        <path d="M 120 462.819 L 130 462.819" />
        <path d="M 120 62.7864 L 130 62.7864" />
        <path d="M 120 558.065 L 130 558.065" />
        <path d="M 120 158.032 L 140 158.032" />
        <text font-size="30" transform="translate(110, 168.032)" text-anchor="end" dominant-baseline="middle" stroke="none" fill="black">400000</text>
        <path d="M 120 653.311 L 130 653.311" />
        <path d="M 120 253.278 L 130 253.278" />
        <path d="M 120 805.705 L 130 805.705" />
        <path d="M 120 596.164 L 130 596.164" />
        <path d="M 120 348.524 L 140 348.524" />
        <text font-size="30" transform="translate(110, 358.524)" text-anchor="end" dominant-baseline="middle" stroke="none" fill="black">300000</text>
        <path d="M 120 215.18 L 130 215.18" />
        <path d="M 120 443.77 L 130 443.77" />
        <path d="M 120 634.262 L 130 634.262" />
        <path d="M 120 138.983 L 130 138.983" />
        <path d="M 120 539.016 L 140 539.016" />
        <text font-size="30" transform="translate(110, 549.016)" text-anchor="end" dominant-baseline="middle" stroke="none" fill="black">200000</text>
        <path d="M 120 234.229 L 130 234.229" />
        <path d="M 120 729.508 L 140 729.508" />
        <text font-size="30" transform="translate(110, 739.508)" text-anchor="end" dominant-baseline="middle" stroke="none" fill="black">100000</text>
        <path d="M 120 329.475 L 130 329.475" />
    </g>
    <text id="frame_0_toplabel" font-size="30" transform="translate(535, 32.6)" text-anchor="middle" dominant-baseline="middle" stroke="none" fill="black">model.tree.missingWalk</text>
    <g id="frame_0_topticks">
        <path d="M 120 50 L 120 70" />
        <path d="M 136.6 50 L 136.6 60" />
        <path d="M 153.2 50 L 153.2 60" />
        <path d="M 169.8 50 L 169.8 60" />
        <path d="M 186.4 50 L 186.4 60" />
        <path d="M 203 50 L 203 60" />
        <path d="M 219.6 50 L 219.6 60" />
        <path d="M 236.2 50 L 236.2 60" />
        <path d="M 252.8 50 L 252.8 60" />
        <path d="M 269.4 50 L 269.4 60" />
        <path d="M 286 50 L 286 70" />
        <path d="M 302.6 50 L 302.6 60" />
        <path d="M 319.2 50 L 319.2 60" />
        <path d="M 335.8 50 L 335.8 60" />
        <path d="M 352.4 50 L 352.4 60" />
        <path d="M 369 50 L 369 60" />
        <path d="M 385.6 50 L 385.6 60" />
        <path d="M 402.2 50 L 402.2 60" />
        <path d="M 418.8 50 L 418.8 60" />
        <path d="M 435.4 50 L 435.4 60" />
        <path d="M 452 50 L 452 70" />
        <path d="M 468.6 50 L 468.6 60" />
        <path d="M 485.2 50 L 485.2 60" />
        <path d="M 501.8 50 L 501.8 60" />
        <path d="M 518.4 50 L 518.4 60" />
        <path d="M 535 50 L 535 60" />
        <path d="M 551.6 50 L 551.6 60" />
        <path d="M 568.2 50 L 568.2 60" />
        <path d="M 584.8 50 L 584.8 60" />
        <path d="M 601.4 50 L 601.4 60" />
        <path d="M 618 50 L 618 70" />
        <path d="M 634.6 50 L 634.6 60" />
        <path d="M 651.2 50 L 651.2 60" />
        <path d="M 667.8 50 L 667.8 60" />
        <path d="M 684.4 50 L 684.4 60" />
        <path d="M 701 50 L 701 60" />
        <path d="M 717.6 50 L 717.6 60" />
        <path d="M 734.2 50 L 734.2 60" />
        <path d="M 750.8 50 L 750.8 60" />
        <path d="M 767.4 50 L 767.4 60" />
        <path d="M 784 50 L 784 70" />
        <path d="M 800.6 50 L 800.6 60" />
        <path d="M 817.2 50 L 817.2 60" />
        <path d="M 833.8 50 L 833.8 60" />
        <path d="M 850.4 50 L 850.4 60" />
        <path d="M 867 50 L 867 60" />
        <path d="M 883.6 50 L 883.6 60" />
        <path d="M 900.2 50 L 900.2 60" />
        <path d="M 916.8 50 L 916.8 60" />
        <path d="M 933.4 50 L 933.4 60" />
        <path d="M 950 50 L 950 70" />
    </g>
    <g id="frame_0_rightticks">
        <path d="M 950 767.606 L 940 767.606" />
        <path d="M 950 691.41 L 940 691.41" />
        <path d="M 950 424.721 L 940 424.721" />
        <path d="M 950 920 L 930 920" />
        <path d="M 950 519.967 L 940 519.967" />
        <path d="M 950 119.934 L 940 119.934" />
        <path d="M 950 615.213 L 940 615.213" />
        <path d="M 950 748.557 L 940 748.557" />
        <path d="M 950 310.426 L 940 310.426" />
        <path d="M 950 405.672 L 940 405.672" />
        <path d="M 950 900.951 L 940 900.951" />
        <path d="M 950 881.902 L 940 881.902" />
        <path d="M 950 710.459 L 940 710.459" />
        <path d="M 950 100.885 L 940 100.885" />
        <path d="M 950 196.131 L 940 196.131" />
        <path d="M 950 291.377 L 940 291.377" />
        <path d="M 950 862.852 L 940 862.852" />
        <path d="M 950 824.754 L 940 824.754" />
        <path d="M 950 386.623 L 940 386.623" />
        <path d="M 950 481.869 L 940 481.869" />
        <path d="M 950 786.656 L 940 786.656" />
        <path d="M 950 81.8356 L 940 81.8356" />
        <path d="M 950 577.115 L 940 577.115" />
        <path d="M 950 843.803 L 940 843.803" />
        <path d="M 950 500.918 L 940 500.918" />
        <path d="M 950 177.082 L 940 177.082" />
        <path d="M 950 272.327 L 940 272.327" />
        <path d="M 950 367.573 L 940 367.573" />
        <path d="M 950 672.361 L 940 672.361" />
        <path d="M 950 462.819 L 940 462.819" />
        <path d="M 950 62.7864 L 940 62.7864" />
        <path d="M 950 558.065 L 940 558.065" />
        <path d="M 950 158.032 L 930 158.032" />
        <path d="M 950 653.311 L 940 653.311" />
        <path d="M 950 253.278 L 940 253.278" />
        <path d="M 950 805.705 L 940 805.705" />
        <path d="M 950 596.164 L 940 596.164" />
        <path d="M 950 348.524 L 930 348.524" />
        <path d="M 950 215.18 L 940 215.18" />
        <path d="M 950 443.77 L 940 443.77" />
        <path d="M 950 634.262 L 940 634.262" />
        <path d="M 950 138.983 L 940 138.983" />
        <path d="M 950 539.016 L 930 539.016" />
        <path d="M 950 234.229 L 940 234.229" />
        <path d="M 950 729.508 L 930 729.508" />
        <path d="M 950 329.475 L 940 329.475" />
    </g>
</g>
</g>
</svg>
