<?xml version="1.0" standalone="no"?>
<!DOCTYPE svg PUBLIC "-//W3C//DTD SVG 1.1//EN" "http://www.w3.org/Graphics/SVG/1.1/DTD/svg11.dtd">
<svg style="stroke-linejoin:miter; stroke:black; stroke-width:2.5; text-anchor:middle; fill:none" xmlns="http://www.w3.org/2000/svg" font-family="Helvetica, Arial, FreeSans, Sans, sans, sans-serif" width="1000px" height="1000px" version="1.1" xmlns:xlink="http://www.w3.org/1999/xlink" viewBox="0 0 1000 1000">
<defs>
    <clipPath id="Histogram_0_clip">
        <rect x="120" y="50" width="830" height="870" />
    </clipPath>
    <clipPath id="Histogram_1_clip">
        <rect x="120" y="50" width="830" height="870" />
    </clipPath>
</defs>
<g id="whole_document">
<rect id="background" x="0" y="0" width="1000" height="1000" stroke="none" fill="white" />
<g id="Histogram_0" clip-path="url(#Histogram_0_clip)">
    <path d="M 120 920 L 120 129.091 L 161.5 129.091 L 161.5 764.408 L 203 764.408 L 203 920 L 244.5 920 L 244.5 920 L 286 920 L 286 920 L 327.5 920 L 327.5 837.449 L 369 837.449 L 369 845.542 L 410.5 845.542 L 410.5 864.562 L 452 864.562 L 452 900.779 L 493.5 900.779 L 493.5 910.895 L 535 910.895 L 535 920 L 576.5 920 L 576.5 920 L 618 920 L 618 920 L 659.5 920 L 659.5 920 L 701 920 L 701 920 L 742.5 920 L 742.5 920 L 784 920 L 784 920 L 825.5 920 L 825.5 920 L 867 920 L 867 920 L 908.5 920 L 908.5 920 L 950 920 L 950 920" stroke-width="3" stroke-dasharray="" stroke="black" stroke-opacity="1" fill="DodgerBlue" fill-opacity="1" />
</g>
<g id="Histogram_1" clip-path="url(#Histogram_1_clip)">
    <path d="M 120 920 L 120 920 L 161.5 920 L 161.5 920 L 203 920 L 203 920 L 244.5 920 L 244.5 920 L 286 920 L 286 920 L 327.5 920 L 327.5 837.449 L 369 837.449 L 369 845.542 L 410.5 845.542 L 410.5 864.562 L 452 864.562 L 452 900.779 L 493.5 900.779 L 493.5 910.895 L 535 910.895 L 535 920 L 576.5 920 L 576.5 920 L 618 920 L 618 920 L 659.5 920 L 659.5 920 L 701 920 L 701 920 L 742.5 920 L 742.5 920 L 784 920 L 784 920 L 825.5 920 L 825.5 920 L 867 920 L 867 920 L 908.5 920 L 908.5 920 L 950 920 L 950 920" stroke-width="3" stroke-dasharray="" stroke="black" stroke-opacity="1" fill="darkorange" fill-opacity="1" />
</g>
<g id="frame_0">
    <rect id="frame_0_border" x="120" y="50" width="830" height="870" />
    <text id="frame_0_bottomlabel" font-size="30" transform="translate(535, 989.6)" text-anchor="middle" dominant-baseline="middle" stroke="none" fill="black">microseconds</text>
    <g id="frame_0_bottomticks">
        <path d="M 120 920 L 120 900" />
        <text font-size="30" transform="translate(120, 950)" text-anchor="middle" dominant-baseline="middle" stroke="none" fill="black">0</text>
        <path d="M 136.6 920 L 136.6 910" />
        <path d="M 153.2 920 L 153.2 910" />
        <path d="M 169.8 920 L 169.8 910" />
        <path d="M 186.4 920 L 186.4 910" />
        <path d="M 203 920 L 203 910" />
        <path d="M 219.6 920 L 219.6 910" />
        <path d="M 236.2 920 L 236.2 910" />
        <path d="M 252.8 920 L 252.8 910" />
        <path d="M 269.4 920 L 269.4 910" />
        <path d="M 286 920 L 286 900" />
        <text font-size="30" transform="translate(286, 950)" text-anchor="middle" dominant-baseline="middle" stroke="none" fill="black">10</text>
        <path d="M 302.6 920 L 302.6 910" />
        <path d="M 319.2 920 L 319.2 910" />
        <path d="M 335.8 920 L 335.8 910" />
        <path d="M 352.4 920 L 352.4 910" />
        <path d="M 369 920 L 369 910" />
        <path d="M 385.6 920 L 385.6 910" />
        <path d="M 402.2 920 L 402.2 910" />
        <path d="M 418.8 920 L 418.8 910" />
        <path d="M 435.4 920 L 435.4 910" />
        <path d="M 452 920 L 452 900" />
        <text font-size="30" transform="translate(452, 950)" text-anchor="middle" dominant-baseline="middle" stroke="none" fill="black">20</text>
        <path d="M 468.6 920 L 468.6 910" />
        <path d="M 485.2 920 L 485.2 910" />
        <path d="M 501.8 920 L 501.8 910" />
        <path d="M 518.4 920 L 518.4 910" />
        <path d="M 535 920 L 535 910" />
        <path d="M 551.6 920 L 551.6 910" />
        <path d="M 568.2 920 L 568.2 910" />
        <path d="M 584.8 920 L 584.8 910" />
        <path d="M 601.4 920 L 601.4 910" />
        <path d="M 618 920 L 618 900" />
        <text font-size="30" transform="translate(618, 950)" text-anchor="middle" dominant-baseline="middle" stroke="none" fill="black">30</text>
        <path d="M 634.6 920 L 634.6 910" />
        <path d="M 651.2 920 L 651.2 910" />
        <path d="M 667.8 920 L 667.8 910" />
        <path d="M 684.4 920 L 684.4 910" />
        <path d="M 701 920 L 701 910" />
        <path d="M 717.6 920 L 717.6 910" />
        <path d="M 734.2 920 L 734.2 910" />
        <path d="M 750.8 920 L 750.8 910" />
        <path d="M 767.4 920 L 767.4 910" />
        <path d="M 784 920 L 784 900" />
        <text font-size="30" transform="translate(784, 950)" text-anchor="middle" dominant-baseline="middle" stroke="none" fill="black">40</text>
        <path d="M 800.6 920 L 800.6 910" />
        <path d="M 817.2 920 L 817.2 910" />
        <path d="M 833.8 920 L 833.8 910" />
        <path d="M 850.4 920 L 850.4 910" />
        <path d="M 867 920 L 867 910" />
        <path d="M 883.6 920 L 883.6 910" />
        <path d="M 900.2 920 L 900.2 910" />
        <path d="M 916.8 920 L 916.8 910" />
        <path d="M 933.4 920 L 933.4 910" />
        <path d="M 950 920 L 950 900" />
        <text font-size="30" transform="translate(950, 950)" text-anchor="middle" dominant-baseline="middle" stroke="none" fill="black">50</text>
    </g>
    <g id="frame_0_leftticks">
        <path d="M 120 272.543 L 130 272.543" />
        <path d="M 120 920 L 140 920" />
        <text font-size="30" transform="translate(110, 930)" text-anchor="end" dominant-baseline="middle" stroke="none" fill="black">0</text>
        <path d="M 120 737.903 L 130 737.903" />
        <path d="M 120 555.805 L 130 555.805" />
        <path d="M 120 211.844 L 140 211.844" />
        <text font-size="30" transform="translate(110, 221.844)" text-anchor="end" dominant-baseline="middle" stroke="none" fill="black">3500</text>
        <path d="M 120 373.708 L 130 373.708" />
        <path d="M 120 839.068 L 130 839.068" />
        <path d="M 120 151.145 L 130 151.145" />
        <path d="M 120 656.971 L 130 656.971" />
        <path d="M 120 474.873 L 130 474.873" />
        <path d="M 120 90.4458 L 130 90.4458" />
        <path d="M 120 292.776 L 130 292.776" />
        <path d="M 120 758.136 L 130 758.136" />
        <path d="M 120 576.039 L 130 576.039" />
        <path d="M 120 393.941 L 130 393.941" />
        <path d="M 120 859.301 L 130 859.301" />
        <path d="M 120 677.204 L 130 677.204" />
        <path d="M 120 232.077 L 130 232.077" />
        <path d="M 120 495.106 L 130 495.106" />
        <path d="M 120 313.009 L 140 313.009" />
        <text font-size="30" transform="translate(110, 323.009)" text-anchor="end" dominant-baseline="middle" stroke="none" fill="black">3000</text>
        <path d="M 120 818.835 L 140 818.835" />
        <text font-size="30" transform="translate(110, 828.835)" text-anchor="end" dominant-baseline="middle" stroke="none" fill="black">500</text>
        <path d="M 120 778.369 L 130 778.369" />
        <path d="M 120 596.272 L 130 596.272" />
        <path d="M 120 110.679 L 140 110.679" />
        <text font-size="30" transform="translate(110, 120.679)" text-anchor="end" dominant-baseline="middle" stroke="none" fill="black">4000</text>
        <path d="M 120 414.174 L 140 414.174" />
        <text font-size="30" transform="translate(110, 424.174)" text-anchor="end" dominant-baseline="middle" stroke="none" fill="black">2500</text>
        <path d="M 120 879.534 L 130 879.534" />
        <path d="M 120 697.437 L 130 697.437" />
        <path d="M 120 515.339 L 140 515.339" />
        <text font-size="30" transform="translate(110, 525.339)" text-anchor="end" dominant-baseline="middle" stroke="none" fill="black">2000</text>
        <path d="M 120 333.242 L 130 333.242" />
        <path d="M 120 798.602 L 130 798.602" />
        <path d="M 120 252.31 L 130 252.31" />
        <path d="M 120 616.505 L 140 616.505" />
        <text font-size="30" transform="translate(110, 626.505)" text-anchor="end" dominant-baseline="middle" stroke="none" fill="black">1500</text>
        <path d="M 120 434.407 L 130 434.407" />
        <path d="M 120 191.611 L 130 191.611" />
        <path d="M 120 899.767 L 130 899.767" />
        <path d="M 120 70.2128 L 130 70.2128" />
        <path d="M 120 130.912 L 130 130.912" />
        <path d="M 120 535.572 L 130 535.572" />
        <path d="M 120 353.475 L 130 353.475" />
        <path d="M 120 717.67 L 140 717.67" />
        <text font-size="30" transform="translate(110, 727.67)" text-anchor="end" dominant-baseline="middle" stroke="none" fill="black">1000</text>
        <path d="M 120 171.378 L 130 171.378" />
        <path d="M 120 636.738 L 130 636.738" />
        <path d="M 120 454.64 L 130 454.64" />
    </g>
    <text id="frame_0_toplabel" font-size="30" transform="translate(535, 32.6)" text-anchor="middle" dominant-baseline="middle" stroke="none" fill="black">bytes.fromBase64</text>
    <g id="frame_0_topticks">
        <path d="M 120 50 L 120 70" />
        <path d="M 136.6 50 L 136.6 60" />
        <path d="M 153.2 50 L 153.2 60" />
        <path d="M 169.8 50 L 169.8 60" />
        <path d="M 186.4 50 L 186.4 60" />
        <path d="M 203 50 L 203 60" />
        <path d="M 219.6 50 L 219.6 60" />
        <path d="M 236.2 50 L 236.2 60" />
        <path d="M 252.8 50 L 252.8 60" />
        <path d="M 269.4 50 L 269.4 60" />
        <path d="M 286 50 L 286 70" />
        <path d="M 302.6 50 L 302.6 60" />
        <path d="M 319.2 50 L 319.2 60" />
        <path d="M 335.8 50 L 335.8 60" />
        <path d="M 352.4 50 L 352.4 60" />
        <path d="M 369 50 L 369 60" />
        <path d="M 385.6 50 L 385.6 60" />
        <path d="M 402.2 50 L 402.2 60" />
        <path d="M 418.8 50 L 418.8 60" />
        <path d="M 435.4 50 L 435.4 60" />
        <path d="M 452 50 L 452 70" />
        <path d="M 468.6 50 L 468.6 60" />
        <path d="M 485.2 50 L 485.2 60" />
        <path d="M 501.8 50 L 501.8 60" />
        <path d="M 518.4 50 L 518.4 60" />
        <path d="M 535 50 L 535 60" />
        <path d="M 551.6 50 L 551.6 60" />
        <path d="M 568.2 50 L 568.2 60" />
        <path d="M 584.8 50 L 584.8 60" />
        <path d="M 601.4 50 L 601.4 60" />
        <path d="M 618 50 L 618 70" />
        <path d="M 634.6 50 L 634.6 60" />
        <path d="M 651.2 50 L 651.2 60" />
        <path d="M 667.8 50 L 667.8 60" />
        <path d="M 684.4 50 L 684.4 60" />
        <path d="M 701 50 L 701 60" />
        <path d="M 717.6 50 L 717.6 60" />
        <path d="M 734.2 50 L 734.2 60" />
        <path d="M 750.8 50 L 750.8 60" />
        <path d="M 767.4 50 L 767.4 60" />
        <path d="M 784 50 L 784 70" />
        <path d="M 800.6 50 L 800.6 60" />
        <path d="M 817.2 50 L 817.2 60" />
        <path d="M 833.8 50 L 833.8 60" />
        <path d="M 850.4 50 L 850.4 60" />
        <path d="M 867 50 L 867 60" />
        <path d="M 883.6 50 L 883.6 60" />
        <path d="M 900.2 50 L 900.2 60" />
        <path d="M 916.8 50 L 916.8 60" />
        <path d="M 933.4 50 L 933.4 60" />
        <path d="M 950 50 L 950 70" />
    </g>
    <g id="frame_0_rightticks">
        <path d="M 950 272.543 L 940 272.543" />
        <path d="M 950 920 L 930 920" />
        <path d="M 950 737.903 L 940 737.903" />
        <path d="M 950 555.805 L 940 555.805" />
        <path d="M 950 211.844 L 930 211.844" />
        <path d="M 950 373.708 L 940 373.708" />
        <path d="M 950 839.068 L 940 839.068" />
        <path d="M 950 151.145 L 940 151.145" />
        <path d="M 950 656.971 L 940 656.971" />
        <path d="M 950 474.873 L 940 474.873" />
        <path d="M 950 90.4458 L 940 90.4458" />
        <path d="M 950 292.776 L 940 292.776" />
        <path d="M 950 758.136 L 940 758.136" />
        <path d="M 950 576.039 L 940 576.039" />
        <path d="M 950 393.941 L 940 393.941" />
        <path d="M 950 859.301 L 940 859.301" />
        <path d="M 950 677.204 L 940 677.204" />
        <path d="M 950 232.077 L 940 232.077" />
        <path d="M 950 495.106 L 940 495.106" />
        <path d="M 950 313.009 L 930 313.009" />
        <path d="M 950 818.835 L 930 818.835" />
        <path d="M 950 778.369 L 940 778.369" />
        <path d="M 950 596.272 L 940 596.272" />
        <path d="M 950 110.679 L 930 110.679" />
        <path d="M 950 414.174 L 930 414.174" />
        <path d="M 950 879.534 L 940 879.534" />
        <path d="M 950 697.437 L 940 697.437" />
        <path d="M 950 515.339 L 930 515.339" />
        <path d="M 950 333.242 L 940 333.242" />
        <path d="M 950 798.602 L 940 798.602" />
        <path d="M 950 252.31 L 940 252.31" />
        <path d="M 950 616.505 L 930 616.505" />
        <path d="M 950 434.407 L 940 434.407" />
        <path d="M 950 191.611 L 940 191.611" />
        <path d="M 950 899.767 L 940 899.767" />
        <path d="M 950 70.2128 L 940 70.2128" />
        <path d="M 950 130.912 L 940 130.912" />
        <path d="M 950 535.572 L 940 535.572" />
        <path d="M 950 353.475 L 940 353.475" />
        <path d="M 950 717.67 L 930 717.67" />
        <path d="M 950 171.378 L 940 171.378" />
        <path d="M 950 636.738 L 940 636.738" />
        <path d="M 950 454.64 L 940 454.64" />
    </g>
</g>
</g>
</svg>
