<?xml version="1.0" standalone="no"?>
<!DOCTYPE svg PUBLIC "-//W3C//DTD SVG 1.1//EN" "http://www.w3.org/Graphics/SVG/1.1/DTD/svg11.dtd">
<svg style="stroke-linejoin:miter; stroke:black; stroke-width:2.5; text-anchor:middle; fill:none" xmlns="http://www.w3.org/2000/svg" font-family="Helvetica, Arial, FreeSans, Sans, sans, sans-serif" width="1000px" height="1000px" version="1.1" xmlns:xlink="http://www.w3.org/1999/xlink" viewBox="0 0 1000 1000">
<defs>
    <clipPath id="Histogram_0_clip">
        <rect x="120" y="50" width="830" height="870" />
    </clipPath>
</defs>
<g id="whole_document">
<rect id="background" x="0" y="0" width="1000" height="1000" stroke="none" fill="white" />
<g id="Histogram_0" clip-path="url(#Histogram_0_clip)">
    <path d="M 120 920 L 120 129.091 L 161.5 129.091 L 161.5 857.57 L 203 857.57 L 203 919.96 L 244.5 919.96 L 244.5 920 L 286 920 L 286 920 L 327.5 920 L 327.5 920 L 369 920 L 369 920 L 410.5 920 L 410.5 920 L 452 920 L 452 920 L 493.5 920 L 493.5 920 L 535 920 L 535 920 L 576.5 920 L 576.5 920 L 618 920 L 618 920 L 659.5 920 L 659.5 920 L 701 920 L 701 920 L 742.5 920 L 742.5 920 L 784 920 L 784 920 L 825.5 920 L 825.5 920 L 867 920 L 867 920 L 908.5 920 L 908.5 920 L 950 920 L 950 920" stroke-width="3" stroke-dasharray="" stroke="black" stroke-opacity="1" fill="DodgerBlue" fill-opacity="1" />
</g>
<g id="frame_0">
    <rect id="frame_0_border" x="120" y="50" width="830" height="870" />
    <text id="frame_0_bottomlabel" font-size="30" transform="translate(535, 989.6)" text-anchor="middle" dominant-baseline="middle" stroke="none" fill="black">microseconds</text>
    <g id="frame_0_bottomticks">
        <path d="M 120 920 L 120 900" />
        <text font-size="30" transform="translate(120, 950)" text-anchor="middle" dominant-baseline="middle" stroke="none" fill="black">0</text>
        <path d="M 136.6 920 L 136.6 910" />
        <path d="M 153.2 920 L 153.2 910" />
        <path d="M 169.8 920 L 169.8 910" />
        <path d="M 186.4 920 L 186.4 910" />
        <path d="M 203 920 L 203 910" />
        <path d="M 219.6 920 L 219.6 910" />
        <path d="M 236.2 920 L 236.2 910" />
        <path d="M 252.8 920 L 252.8 910" />
        <path d="M 269.4 920 L 269.4 910" />
        <path d="M 286 920 L 286 900" />
        <text font-size="30" transform="translate(286, 950)" text-anchor="middle" dominant-baseline="middle" stroke="none" fill="black">10</text>
        <path d="M 302.6 920 L 302.6 910" />
        <path d="M 319.2 920 L 319.2 910" />
        <path d="M 335.8 920 L 335.8 910" />
        <path d="M 352.4 920 L 352.4 910" />
        <path d="M 369 920 L 369 910" />
        <path d="M 385.6 920 L 385.6 910" />
        <path d="M 402.2 920 L 402.2 910" />
        <path d="M 418.8 920 L 418.8 910" />
        <path d="M 435.4 920 L 435.4 910" />
        <path d="M 452 920 L 452 900" />
        <text font-size="30" transform="translate(452, 950)" text-anchor="middle" dominant-baseline="middle" stroke="none" fill="black">20</text>
        <path d="M 468.6 920 L 468.6 910" />
        <path d="M 485.2 920 L 485.2 910" />
        <path d="M 501.8 920 L 501.8 910" />
        <path d="M 518.4 920 L 518.4 910" />
        <path d="M 535 920 L 535 910" />
        <path d="M 551.6 920 L 551.6 910" />
        <path d="M 568.2 920 L 568.2 910" />
        <path d="M 584.8 920 L 584.8 910" />
        <path d="M 601.4 920 L 601.4 910" />
        <path d="M 618 920 L 618 900" />
        <text font-size="30" transform="translate(618, 950)" text-anchor="middle" dominant-baseline="middle" stroke="none" fill="black">30</text>
        <path d="M 634.6 920 L 634.6 910" />
        <path d="M 651.2 920 L 651.2 910" />
        <path d="M 667.8 920 L 667.8 910" />
        <path d="M 684.4 920 L 684.4 910" />
        <path d="M 701 920 L 701 910" />
        <path d="M 717.6 920 L 717.6 910" />
        <path d="M 734.2 920 L 734.2 910" />
        <path d="M 750.8 920 L 750.8 910" />
        <path d="M 767.4 920 L 767.4 910" />
        <path d="M 784 920 L 784 900" />
        <text font-size="30" transform="translate(784, 950)" text-anchor="middle" dominant-baseline="middle" stroke="none" fill="black">40</text>
        <path d="M 800.6 920 L 800.6 910" />
        <path d="M 817.2 920 L 817.2 910" />
        <path d="M 833.8 920 L 833.8 910" />
        <path d="M 850.4 920 L 850.4 910" />
        <path d="M 867 920 L 867 910" />
        <path d="M 883.6 920 L 883.6 910" />
        <path d="M 900.2 920 L 900.2 910" />
        <path d="M 916.8 920 L 916.8 910" />
        <path d="M 933.4 920 L 933.4 910" />
        <path d="M 950 920 L 950 900" />
        <text font-size="30" transform="translate(950, 950)" text-anchor="middle" dominant-baseline="middle" stroke="none" fill="black">50</text>
    </g>
    <g id="frame_0_leftticks">
        <path d="M 120 665.911 L 130 665.911" />
        <path d="M 120 792.956 L 130 792.956" />
        <path d="M 120 178.908 L 140 178.908" />
        <text font-size="30" transform="translate(110, 188.908)" text-anchor="end" dominant-baseline="middle" stroke="none" fill="black">3.5×10⁶</text>
        <path d="M 120 920 L 140 920" />
        <text font-size="30" transform="translate(110, 930)" text-anchor="end" dominant-baseline="middle" stroke="none" fill="black">0</text>
        <path d="M 120 432.996 L 130 432.996" />
        <path d="M 120 687.085 L 130 687.085" />
        <path d="M 120 200.082 L 130 200.082" />
        <path d="M 120 454.17 L 130 454.17" />
        <path d="M 120 708.259 L 140 708.259" />
        <text font-size="30" transform="translate(110, 718.259)" text-anchor="end" dominant-baseline="middle" stroke="none" fill="black">10⁶</text>
        <path d="M 120 221.256 L 130 221.256" />
        <path d="M 120 538.867 L 130 538.867" />
        <path d="M 120 475.345 L 130 475.345" />
        <path d="M 120 898.826 L 130 898.826" />
        <path d="M 120 242.43 L 130 242.43" />
        <path d="M 120 496.519 L 140 496.519" />
        <text font-size="30" transform="translate(110, 506.519)" text-anchor="end" dominant-baseline="middle" stroke="none" fill="black">2×10⁶</text>
        <path d="M 120 750.607 L 130 750.607" />
        <path d="M 120 263.604 L 130 263.604" />
        <path d="M 120 517.693 L 130 517.693" />
        <path d="M 120 771.782 L 130 771.782" />
        <path d="M 120 284.778 L 140 284.778" />
        <text font-size="30" transform="translate(110, 294.778)" text-anchor="end" dominant-baseline="middle" stroke="none" fill="black">3×10⁶</text>
        <path d="M 120 877.652 L 130 877.652" />
        <path d="M 120 729.433 L 130 729.433" />
        <path d="M 120 51.8631 L 130 51.8631" />
        <path d="M 120 305.952 L 130 305.952" />
        <path d="M 120 560.041 L 130 560.041" />
        <path d="M 120 73.0372 L 140 73.0372" />
        <text font-size="30" transform="translate(110, 83.0372)" text-anchor="end" dominant-baseline="middle" stroke="none" fill="black">4×10⁶</text>
        <path d="M 120 814.13 L 140 814.13" />
        <text font-size="30" transform="translate(110, 824.13)" text-anchor="end" dominant-baseline="middle" stroke="none" fill="black">500000</text>
        <path d="M 120 327.126 L 130 327.126" />
        <path d="M 120 581.215 L 130 581.215" />
        <path d="M 120 94.2113 L 130 94.2113" />
        <path d="M 120 835.304 L 130 835.304" />
        <path d="M 120 348.3 L 130 348.3" />
        <path d="M 120 856.478 L 130 856.478" />
        <path d="M 120 602.389 L 140 602.389" />
        <text font-size="30" transform="translate(110, 612.389)" text-anchor="end" dominant-baseline="middle" stroke="none" fill="black">1.5×10⁶</text>
        <path d="M 120 115.385 L 130 115.385" />
        <path d="M 120 369.474 L 130 369.474" />
        <path d="M 120 623.563 L 130 623.563" />
        <path d="M 120 136.559 L 130 136.559" />
        <path d="M 120 390.648 L 140 390.648" />
        <text font-size="30" transform="translate(110, 400.648)" text-anchor="end" dominant-baseline="middle" stroke="none" fill="black">2.5×10⁶</text>
        <path d="M 120 644.737 L 130 644.737" />
        <path d="M 120 157.733 L 130 157.733" />
        <path d="M 120 411.822 L 130 411.822" />
    </g>
    <text id="frame_0_toplabel" font-size="30" transform="translate(535, 32.6)" text-anchor="middle" dominant-baseline="middle" stroke="none" fill="black">a.subseqto</text>
    <g id="frame_0_topticks">
        <path d="M 120 50 L 120 70" />
        <path d="M 136.6 50 L 136.6 60" />
        <path d="M 153.2 50 L 153.2 60" />
        <path d="M 169.8 50 L 169.8 60" />
        <path d="M 186.4 50 L 186.4 60" />
        <path d="M 203 50 L 203 60" />
        <path d="M 219.6 50 L 219.6 60" />
        <path d="M 236.2 50 L 236.2 60" />
        <path d="M 252.8 50 L 252.8 60" />
        <path d="M 269.4 50 L 269.4 60" />
        <path d="M 286 50 L 286 70" />
        <path d="M 302.6 50 L 302.6 60" />
        <path d="M 319.2 50 L 319.2 60" />
        <path d="M 335.8 50 L 335.8 60" />
        <path d="M 352.4 50 L 352.4 60" />
        <path d="M 369 50 L 369 60" />
        <path d="M 385.6 50 L 385.6 60" />
        <path d="M 402.2 50 L 402.2 60" />
        <path d="M 418.8 50 L 418.8 60" />
        <path d="M 435.4 50 L 435.4 60" />
        <path d="M 452 50 L 452 70" />
        <path d="M 468.6 50 L 468.6 60" />
        <path d="M 485.2 50 L 485.2 60" />
        <path d="M 501.8 50 L 501.8 60" />
        <path d="M 518.4 50 L 518.4 60" />
        <path d="M 535 50 L 535 60" />
        <path d="M 551.6 50 L 551.6 60" />
        <path d="M 568.2 50 L 568.2 60" />
        <path d="M 584.8 50 L 584.8 60" />
        <path d="M 601.4 50 L 601.4 60" />
        <path d="M 618 50 L 618 70" />
        <path d="M 634.6 50 L 634.6 60" />
        <path d="M 651.2 50 L 651.2 60" />
        <path d="M 667.8 50 L 667.8 60" />
        <path d="M 684.4 50 L 684.4 60" />
        <path d="M 701 50 L 701 60" />
        <path d="M 717.6 50 L 717.6 60" />
        <path d="M 734.2 50 L 734.2 60" />
        <path d="M 750.8 50 L 750.8 60" />
        <path d="M 767.4 50 L 767.4 60" />
        <path d="M 784 50 L 784 70" />
        <path d="M 800.6 50 L 800.6 60" />
        <path d="M 817.2 50 L 817.2 60" />
        <path d="M 833.8 50 L 833.8 60" />
        <path d="M 850.4 50 L 850.4 60" />
        <path d="M 867 50 L 867 60" />
        <path d="M 883.6 50 L 883.6 60" />
        <path d="M 900.2 50 L 900.2 60" />
        <path d="M 916.8 50 L 916.8 60" />
        <path d="M 933.4 50 L 933.4 60" />
        <path d="M 950 50 L 950 70" />
    </g>
    <g id="frame_0_rightticks">
        <path d="M 950 665.911 L 940 665.911" />
        <path d="M 950 792.956 L 940 792.956" />
        <path d="M 950 178.908 L 930 178.908" />
        <path d="M 950 920 L 930 920" />
        <path d="M 950 432.996 L 940 432.996" />
        <path d="M 950 687.085 L 940 687.085" />
        <path d="M 950 200.082 L 940 200.082" />
        <path d="M 950 454.17 L 940 454.17" />
        <path d="M 950 708.259 L 930 708.259" />
        <path d="M 950 221.256 L 940 221.256" />
        <path d="M 950 538.867 L 940 538.867" />
        <path d="M 950 475.345 L 940 475.345" />
        <path d="M 950 898.826 L 940 898.826" />
        <path d="M 950 242.43 L 940 242.43" />
        <path d="M 950 496.519 L 930 496.519" />
        <path d="M 950 750.607 L 940 750.607" />
        <path d="M 950 263.604 L 940 263.604" />
        <path d="M 950 517.693 L 940 517.693" />
        <path d="M 950 771.782 L 940 771.782" />
        <path d="M 950 284.778 L 930 284.778" />
        <path d="M 950 877.652 L 940 877.652" />
        <path d="M 950 729.433 L 940 729.433" />
        <path d="M 950 51.8631 L 940 51.8631" />
        <path d="M 950 305.952 L 940 305.952" />
        <path d="M 950 560.041 L 940 560.041" />
        <path d="M 950 73.0372 L 930 73.0372" />
        <path d="M 950 814.13 L 930 814.13" />
        <path d="M 950 327.126 L 940 327.126" />
        <path d="M 950 581.215 L 940 581.215" />
        <path d="M 950 94.2113 L 940 94.2113" />
        <path d="M 950 835.304 L 940 835.304" />
        <path d="M 950 348.3 L 940 348.3" />
        <path d="M 950 856.478 L 940 856.478" />
        <path d="M 950 602.389 L 930 602.389" />
        <path d="M 950 115.385 L 940 115.385" />
        <path d="M 950 369.474 L 940 369.474" />
        <path d="M 950 623.563 L 940 623.563" />
        <path d="M 950 136.559 L 940 136.559" />
        <path d="M 950 390.648 L 930 390.648" />
        <path d="M 950 644.737 L 940 644.737" />
        <path d="M 950 157.733 L 940 157.733" />
        <path d="M 950 411.822 L 940 411.822" />
    </g>
</g>
</g>
</svg>
