<?xml version="1.0" standalone="no"?>
<!DOCTYPE svg PUBLIC "-//W3C//DTD SVG 1.1//EN" "http://www.w3.org/Graphics/SVG/1.1/DTD/svg11.dtd">
<svg style="stroke-linejoin:miter; stroke:black; stroke-width:2.5; text-anchor:middle; fill:none" xmlns="http://www.w3.org/2000/svg" font-family="Helvetica, Arial, FreeSans, Sans, sans, sans-serif" width="1000px" height="1000px" version="1.1" xmlns:xlink="http://www.w3.org/1999/xlink" viewBox="0 0 1000 1000">
<defs>
    <clipPath id="Histogram_0_clip">
        <rect x="120" y="50" width="830" height="870" />
    </clipPath>
    <clipPath id="Histogram_1_clip">
        <rect x="120" y="50" width="830" height="870" />
    </clipPath>
</defs>
<g id="whole_document">
<rect id="background" x="0" y="0" width="1000" height="1000" stroke="none" fill="white" />
<g id="Histogram_0" clip-path="url(#Histogram_0_clip)">
    <path d="M 120 920 L 120 129.091 L 161.5 129.091 L 161.5 919.642 L 203 919.642 L 203 920 L 244.5 920 L 244.5 679.953 L 286 679.953 L 286 919.699 L 327.5 919.699 L 327.5 919.545 L 369 919.545 L 369 919.028 L 410.5 919.028 L 410.5 920 L 452 920 L 452 920 L 493.5 920 L 493.5 920 L 535 920 L 535 920 L 576.5 920 L 576.5 920 L 618 920 L 618 920 L 659.5 920 L 659.5 920 L 701 920 L 701 920 L 742.5 920 L 742.5 920 L 784 920 L 784 920 L 825.5 920 L 825.5 920 L 867 920 L 867 920 L 908.5 920 L 908.5 920 L 950 920 L 950 920" stroke-width="3" stroke-dasharray="" stroke="black" stroke-opacity="1" fill="DodgerBlue" fill-opacity="1" />
</g>
<g id="Histogram_1" clip-path="url(#Histogram_1_clip)">
    <path d="M 120 920 L 120 920 L 161.5 920 L 161.5 920 L 203 920 L 203 920 L 244.5 920 L 244.5 679.953 L 286 679.953 L 286 919.699 L 327.5 919.699 L 327.5 919.545 L 369 919.545 L 369 919.028 L 410.5 919.028 L 410.5 920 L 452 920 L 452 920 L 493.5 920 L 493.5 920 L 535 920 L 535 920 L 576.5 920 L 576.5 920 L 618 920 L 618 920 L 659.5 920 L 659.5 920 L 701 920 L 701 920 L 742.5 920 L 742.5 920 L 784 920 L 784 920 L 825.5 920 L 825.5 920 L 867 920 L 867 920 L 908.5 920 L 908.5 920 L 950 920 L 950 920" stroke-width="3" stroke-dasharray="" stroke="black" stroke-opacity="1" fill="darkorange" fill-opacity="1" />
</g>
<g id="frame_0">
    <rect id="frame_0_border" x="120" y="50" width="830" height="870" />
    <text id="frame_0_bottomlabel" font-size="30" transform="translate(535, 989.6)" text-anchor="middle" dominant-baseline="middle" stroke="none" fill="black">microseconds</text>
    <g id="frame_0_bottomticks">
        <path d="M 120 920 L 120 900" />
        <text font-size="30" transform="translate(120, 950)" text-anchor="middle" dominant-baseline="middle" stroke="none" fill="black">0</text>
        <path d="M 136.6 920 L 136.6 910" />
        <path d="M 153.2 920 L 153.2 910" />
        <path d="M 169.8 920 L 169.8 910" />
        <path d="M 186.4 920 L 186.4 910" />
        <path d="M 203 920 L 203 910" />
        <path d="M 219.6 920 L 219.6 910" />
        <path d="M 236.2 920 L 236.2 910" />
        <path d="M 252.8 920 L 252.8 910" />
        <path d="M 269.4 920 L 269.4 910" />
        <path d="M 286 920 L 286 900" />
        <text font-size="30" transform="translate(286, 950)" text-anchor="middle" dominant-baseline="middle" stroke="none" fill="black">10</text>
        <path d="M 302.6 920 L 302.6 910" />
        <path d="M 319.2 920 L 319.2 910" />
        <path d="M 335.8 920 L 335.8 910" />
        <path d="M 352.4 920 L 352.4 910" />
        <path d="M 369 920 L 369 910" />
        <path d="M 385.6 920 L 385.6 910" />
        <path d="M 402.2 920 L 402.2 910" />
        <path d="M 418.8 920 L 418.8 910" />
        <path d="M 435.4 920 L 435.4 910" />
        <path d="M 452 920 L 452 900" />
        <text font-size="30" transform="translate(452, 950)" text-anchor="middle" dominant-baseline="middle" stroke="none" fill="black">20</text>
        <path d="M 468.6 920 L 468.6 910" />
        <path d="M 485.2 920 L 485.2 910" />
        <path d="M 501.8 920 L 501.8 910" />
        <path d="M 518.4 920 L 518.4 910" />
        <path d="M 535 920 L 535 910" />
        <path d="M 551.6 920 L 551.6 910" />
        <path d="M 568.2 920 L 568.2 910" />
        <path d="M 584.8 920 L 584.8 910" />
        <path d="M 601.4 920 L 601.4 910" />
        <path d="M 618 920 L 618 900" />
        <text font-size="30" transform="translate(618, 950)" text-anchor="middle" dominant-baseline="middle" stroke="none" fill="black">30</text>
        <path d="M 634.6 920 L 634.6 910" />
        <path d="M 651.2 920 L 651.2 910" />
        <path d="M 667.8 920 L 667.8 910" />
        <path d="M 684.4 920 L 684.4 910" />
        <path d="M 701 920 L 701 910" />
        <path d="M 717.6 920 L 717.6 910" />
        <path d="M 734.2 920 L 734.2 910" />
        <path d="M 750.8 920 L 750.8 910" />
        <path d="M 767.4 920 L 767.4 910" />
        <path d="M 784 920 L 784 900" />
        <text font-size="30" transform="translate(784, 950)" text-anchor="middle" dominant-baseline="middle" stroke="none" fill="black">40</text>
        <path d="M 800.6 920 L 800.6 910" />
        <path d="M 817.2 920 L 817.2 910" />
        <path d="M 833.8 920 L 833.8 910" />
        <path d="M 850.4 920 L 850.4 910" />
        <path d="M 867 920 L 867 910" />
        <path d="M 883.6 920 L 883.6 910" />
        <path d="M 900.2 920 L 900.2 910" />
        <path d="M 916.8 920 L 916.8 910" />
        <path d="M 933.4 920 L 933.4 910" />
        <path d="M 950 920 L 950 900" />
        <text font-size="30" transform="translate(950, 950)" text-anchor="middle" dominant-baseline="middle" stroke="none" fill="black">50</text>
    </g>
    <g id="frame_0_leftticks">
        <path d="M 120 726.971 L 130 726.971" />
        <path d="M 120 823.485 L 130 823.485" />
        <path d="M 120 356.998 L 130 356.998" />
        <path d="M 120 920 L 140 920" />
        <text font-size="30" transform="translate(110, 930)" text-anchor="end" dominant-baseline="middle" stroke="none" fill="black">0</text>
        <path d="M 120 550.027 L 130 550.027" />
        <path d="M 120 180.055 L 130 180.055" />
        <path d="M 120 743.057 L 130 743.057" />
        <path d="M 120 373.084 L 130 373.084" />
        <path d="M 120 566.113 L 130 566.113" />
        <path d="M 120 196.141 L 130 196.141" />
        <path d="M 120 759.142 L 140 759.142" />
        <text font-size="30" transform="translate(110, 769.142)" text-anchor="end" dominant-baseline="middle" stroke="none" fill="black">10⁶</text>
        <path d="M 120 389.17 L 130 389.17" />
        <path d="M 120 630.456 L 130 630.456" />
        <path d="M 120 582.199 L 130 582.199" />
        <path d="M 120 903.914 L 130 903.914" />
        <path d="M 120 212.226 L 130 212.226" />
        <path d="M 120 405.256 L 130 405.256" />
        <path d="M 120 598.285 L 140 598.285" />
        <text font-size="30" transform="translate(110, 608.285)" text-anchor="end" dominant-baseline="middle" stroke="none" fill="black">2×10⁶</text>
        <path d="M 120 228.312 L 130 228.312" />
        <path d="M 120 791.314 L 130 791.314" />
        <path d="M 120 421.341 L 130 421.341" />
        <path d="M 120 51.3687 L 130 51.3687" />
        <path d="M 120 614.37 L 130 614.37" />
        <path d="M 120 244.398 L 130 244.398" />
        <path d="M 120 807.4 L 130 807.4" />
        <path d="M 120 437.427 L 140 437.427" />
        <text font-size="30" transform="translate(110, 447.427)" text-anchor="end" dominant-baseline="middle" stroke="none" fill="black">3×10⁶</text>
        <path d="M 120 67.4544 L 130 67.4544" />
        <path d="M 120 887.828 L 130 887.828" />
        <path d="M 120 775.228 L 130 775.228" />
        <path d="M 120 260.484 L 130 260.484" />
        <path d="M 120 453.513 L 130 453.513" />
        <path d="M 120 83.5402 L 130 83.5402" />
        <path d="M 120 646.542 L 130 646.542" />
        <path d="M 120 276.569 L 140 276.569" />
        <text font-size="30" transform="translate(110, 286.569)" text-anchor="end" dominant-baseline="middle" stroke="none" fill="black">4×10⁶</text>
        <path d="M 120 839.571 L 130 839.571" />
        <path d="M 120 163.969 L 130 163.969" />
        <path d="M 120 469.599 L 130 469.599" />
        <path d="M 120 99.626 L 130 99.626" />
        <path d="M 120 662.628 L 130 662.628" />
        <path d="M 120 115.712 L 140 115.712" />
        <text font-size="30" transform="translate(110, 125.712)" text-anchor="end" dominant-baseline="middle" stroke="none" fill="black">5×10⁶</text>
        <path d="M 120 292.655 L 130 292.655" />
        <path d="M 120 855.657 L 130 855.657" />
        <path d="M 120 485.684 L 130 485.684" />
        <path d="M 120 871.743 L 130 871.743" />
        <path d="M 120 678.714 L 130 678.714" />
        <path d="M 120 308.741 L 130 308.741" />
        <path d="M 120 501.77 L 130 501.77" />
        <path d="M 120 131.797 L 130 131.797" />
        <path d="M 120 694.799 L 130 694.799" />
        <path d="M 120 324.827 L 130 324.827" />
        <path d="M 120 517.856 L 130 517.856" />
        <path d="M 120 147.883 L 130 147.883" />
        <path d="M 120 710.885 L 130 710.885" />
        <path d="M 120 340.912 L 130 340.912" />
        <path d="M 120 533.942 L 130 533.942" />
    </g>
    <text id="frame_0_toplabel" font-size="30" transform="translate(535, 32.6)" text-anchor="middle" dominant-baseline="middle" stroke="none" fill="black">stat.sample.updateEWMA</text>
    <g id="frame_0_topticks">
        <path d="M 120 50 L 120 70" />
        <path d="M 136.6 50 L 136.6 60" />
        <path d="M 153.2 50 L 153.2 60" />
        <path d="M 169.8 50 L 169.8 60" />
        <path d="M 186.4 50 L 186.4 60" />
        <path d="M 203 50 L 203 60" />
        <path d="M 219.6 50 L 219.6 60" />
        <path d="M 236.2 50 L 236.2 60" />
        <path d="M 252.8 50 L 252.8 60" />
        <path d="M 269.4 50 L 269.4 60" />
        <path d="M 286 50 L 286 70" />
        <path d="M 302.6 50 L 302.6 60" />
        <path d="M 319.2 50 L 319.2 60" />
        <path d="M 335.8 50 L 335.8 60" />
        <path d="M 352.4 50 L 352.4 60" />
        <path d="M 369 50 L 369 60" />
        <path d="M 385.6 50 L 385.6 60" />
        <path d="M 402.2 50 L 402.2 60" />
        <path d="M 418.8 50 L 418.8 60" />
        <path d="M 435.4 50 L 435.4 60" />
        <path d="M 452 50 L 452 70" />
        <path d="M 468.6 50 L 468.6 60" />
        <path d="M 485.2 50 L 485.2 60" />
        <path d="M 501.8 50 L 501.8 60" />
        <path d="M 518.4 50 L 518.4 60" />
        <path d="M 535 50 L 535 60" />
        <path d="M 551.6 50 L 551.6 60" />
        <path d="M 568.2 50 L 568.2 60" />
        <path d="M 584.8 50 L 584.8 60" />
        <path d="M 601.4 50 L 601.4 60" />
        <path d="M 618 50 L 618 70" />
        <path d="M 634.6 50 L 634.6 60" />
        <path d="M 651.2 50 L 651.2 60" />
        <path d="M 667.8 50 L 667.8 60" />
        <path d="M 684.4 50 L 684.4 60" />
        <path d="M 701 50 L 701 60" />
        <path d="M 717.6 50 L 717.6 60" />
        <path d="M 734.2 50 L 734.2 60" />
        <path d="M 750.8 50 L 750.8 60" />
        <path d="M 767.4 50 L 767.4 60" />
        <path d="M 784 50 L 784 70" />
        <path d="M 800.6 50 L 800.6 60" />
        <path d="M 817.2 50 L 817.2 60" />
        <path d="M 833.8 50 L 833.8 60" />
        <path d="M 850.4 50 L 850.4 60" />
        <path d="M 867 50 L 867 60" />
        <path d="M 883.6 50 L 883.6 60" />
        <path d="M 900.2 50 L 900.2 60" />
        <path d="M 916.8 50 L 916.8 60" />
        <path d="M 933.4 50 L 933.4 60" />
        <path d="M 950 50 L 950 70" />
    </g>
    <g id="frame_0_rightticks">
        <path d="M 950 726.971 L 940 726.971" />
        <path d="M 950 823.485 L 940 823.485" />
        <path d="M 950 356.998 L 940 356.998" />
        <path d="M 950 920 L 930 920" />
        <path d="M 950 550.027 L 940 550.027" />
        <path d="M 950 180.055 L 940 180.055" />
        <path d="M 950 743.057 L 940 743.057" />
        <path d="M 950 373.084 L 940 373.084" />
        <path d="M 950 566.113 L 940 566.113" />
        <path d="M 950 196.141 L 940 196.141" />
        <path d="M 950 759.142 L 930 759.142" />
        <path d="M 950 389.17 L 940 389.17" />
        <path d="M 950 630.456 L 940 630.456" />
        <path d="M 950 582.199 L 940 582.199" />
        <path d="M 950 903.914 L 940 903.914" />
        <path d="M 950 212.226 L 940 212.226" />
        <path d="M 950 405.256 L 940 405.256" />
        <path d="M 950 598.285 L 930 598.285" />
        <path d="M 950 228.312 L 940 228.312" />
        <path d="M 950 791.314 L 940 791.314" />
        <path d="M 950 421.341 L 940 421.341" />
        <path d="M 950 51.3687 L 940 51.3687" />
        <path d="M 950 614.37 L 940 614.37" />
        <path d="M 950 244.398 L 940 244.398" />
        <path d="M 950 807.4 L 940 807.4" />
        <path d="M 950 437.427 L 930 437.427" />
        <path d="M 950 67.4544 L 940 67.4544" />
        <path d="M 950 887.828 L 940 887.828" />
        <path d="M 950 775.228 L 940 775.228" />
        <path d="M 950 260.484 L 940 260.484" />
        <path d="M 950 453.513 L 940 453.513" />
        <path d="M 950 83.5402 L 940 83.5402" />
        <path d="M 950 646.542 L 940 646.542" />
        <path d="M 950 276.569 L 930 276.569" />
        <path d="M 950 839.571 L 940 839.571" />
        <path d="M 950 163.969 L 940 163.969" />
        <path d="M 950 469.599 L 940 469.599" />
        <path d="M 950 99.626 L 940 99.626" />
        <path d="M 950 662.628 L 940 662.628" />
        <path d="M 950 115.712 L 930 115.712" />
        <path d="M 950 292.655 L 940 292.655" />
        <path d="M 950 855.657 L 940 855.657" />
        <path d="M 950 485.684 L 940 485.684" />
        <path d="M 950 871.743 L 940 871.743" />
        <path d="M 950 678.714 L 940 678.714" />
        <path d="M 950 308.741 L 940 308.741" />
        <path d="M 950 501.77 L 940 501.77" />
        <path d="M 950 131.797 L 940 131.797" />
        <path d="M 950 694.799 L 940 694.799" />
        <path d="M 950 324.827 L 940 324.827" />
        <path d="M 950 517.856 L 940 517.856" />
        <path d="M 950 147.883 L 940 147.883" />
        <path d="M 950 710.885 L 940 710.885" />
        <path d="M 950 340.912 L 940 340.912" />
        <path d="M 950 533.942 L 940 533.942" />
    </g>
</g>
</g>
</svg>
