<?xml version="1.0" standalone="no"?>
<!DOCTYPE svg PUBLIC "-//W3C//DTD SVG 1.1//EN" "http://www.w3.org/Graphics/SVG/1.1/DTD/svg11.dtd">
<svg style="stroke-linejoin:miter; stroke:black; stroke-width:2.5; text-anchor:middle; fill:none" xmlns="http://www.w3.org/2000/svg" font-family="Helvetica, Arial, FreeSans, Sans, sans, sans-serif" width="1000px" height="1000px" version="1.1" xmlns:xlink="http://www.w3.org/1999/xlink" viewBox="0 0 1000 1000">
<defs>
    <clipPath id="Histogram_0_clip">
        <rect x="120" y="50" width="830" height="870" />
    </clipPath>
    <clipPath id="Histogram_1_clip">
        <rect x="120" y="50" width="830" height="870" />
    </clipPath>
</defs>
<g id="whole_document">
<rect id="background" x="0" y="0" width="1000" height="1000" stroke="none" fill="white" />
<g id="Histogram_0" clip-path="url(#Histogram_0_clip)">
    <path d="M 120 920 L 120 405.017 L 161.5 405.017 L 161.5 780.951 L 203 780.951 L 203 129.091 L 244.5 129.091 L 244.5 871.315 L 286 871.315 L 286 913.233 L 327.5 913.233 L 327.5 909.276 L 369 909.276 L 369 920 L 410.5 920 L 410.5 918.158 L 452 918.158 L 452 919.431 L 493.5 919.431 L 493.5 920 L 535 920 L 535 920 L 576.5 920 L 576.5 920 L 618 920 L 618 920 L 659.5 920 L 659.5 920 L 701 920 L 701 920 L 742.5 920 L 742.5 920 L 784 920 L 784 920 L 825.5 920 L 825.5 920 L 867 920 L 867 920 L 908.5 920 L 908.5 920 L 950 920 L 950 920" stroke-width="3" stroke-dasharray="" stroke="black" stroke-opacity="1" fill="DodgerBlue" fill-opacity="1" />
</g>
<g id="Histogram_1" clip-path="url(#Histogram_1_clip)">
    <path d="M 120 920 L 120 920 L 161.5 920 L 161.5 920 L 203 920 L 203 138.632 L 244.5 138.632 L 244.5 906.74 L 286 906.74 L 286 913.233 L 327.5 913.233 L 327.5 909.276 L 369 909.276 L 369 920 L 410.5 920 L 410.5 918.158 L 452 918.158 L 452 919.431 L 493.5 919.431 L 493.5 920 L 535 920 L 535 920 L 576.5 920 L 576.5 920 L 618 920 L 618 920 L 659.5 920 L 659.5 920 L 701 920 L 701 920 L 742.5 920 L 742.5 920 L 784 920 L 784 920 L 825.5 920 L 825.5 920 L 867 920 L 867 920 L 908.5 920 L 908.5 920 L 950 920 L 950 920" stroke-width="3" stroke-dasharray="" stroke="black" stroke-opacity="1" fill="darkorange" fill-opacity="1" />
</g>
<g id="frame_0">
    <rect id="frame_0_border" x="120" y="50" width="830" height="870" />
    <text id="frame_0_bottomlabel" font-size="30" transform="translate(535, 989.6)" text-anchor="middle" dominant-baseline="middle" stroke="none" fill="black">microseconds</text>
    <g id="frame_0_bottomticks">
        <path d="M 120 920 L 120 900" />
        <text font-size="30" transform="translate(120, 950)" text-anchor="middle" dominant-baseline="middle" stroke="none" fill="black">0</text>
        <path d="M 136.6 920 L 136.6 910" />
        <path d="M 153.2 920 L 153.2 910" />
        <path d="M 169.8 920 L 169.8 910" />
        <path d="M 186.4 920 L 186.4 910" />
        <path d="M 203 920 L 203 910" />
        <path d="M 219.6 920 L 219.6 910" />
        <path d="M 236.2 920 L 236.2 910" />
        <path d="M 252.8 920 L 252.8 910" />
        <path d="M 269.4 920 L 269.4 910" />
        <path d="M 286 920 L 286 900" />
        <text font-size="30" transform="translate(286, 950)" text-anchor="middle" dominant-baseline="middle" stroke="none" fill="black">10</text>
        <path d="M 302.6 920 L 302.6 910" />
        <path d="M 319.2 920 L 319.2 910" />
        <path d="M 335.8 920 L 335.8 910" />
        <path d="M 352.4 920 L 352.4 910" />
        <path d="M 369 920 L 369 910" />
        <path d="M 385.6 920 L 385.6 910" />
        <path d="M 402.2 920 L 402.2 910" />
        <path d="M 418.8 920 L 418.8 910" />
        <path d="M 435.4 920 L 435.4 910" />
        <path d="M 452 920 L 452 900" />
        <text font-size="30" transform="translate(452, 950)" text-anchor="middle" dominant-baseline="middle" stroke="none" fill="black">20</text>
        <path d="M 468.6 920 L 468.6 910" />
        <path d="M 485.2 920 L 485.2 910" />
        <path d="M 501.8 920 L 501.8 910" />
        <path d="M 518.4 920 L 518.4 910" />
        <path d="M 535 920 L 535 910" />
        <path d="M 551.6 920 L 551.6 910" />
        <path d="M 568.2 920 L 568.2 910" />
        <path d="M 584.8 920 L 584.8 910" />
        <path d="M 601.4 920 L 601.4 910" />
        <path d="M 618 920 L 618 900" />
        <text font-size="30" transform="translate(618, 950)" text-anchor="middle" dominant-baseline="middle" stroke="none" fill="black">30</text>
        <path d="M 634.6 920 L 634.6 910" />
        <path d="M 651.2 920 L 651.2 910" />
        <path d="M 667.8 920 L 667.8 910" />
        <path d="M 684.4 920 L 684.4 910" />
        <path d="M 701 920 L 701 910" />
        <path d="M 717.6 920 L 717.6 910" />
        <path d="M 734.2 920 L 734.2 910" />
        <path d="M 750.8 920 L 750.8 910" />
        <path d="M 767.4 920 L 767.4 910" />
        <path d="M 784 920 L 784 900" />
        <text font-size="30" transform="translate(784, 950)" text-anchor="middle" dominant-baseline="middle" stroke="none" fill="black">40</text>
        <path d="M 800.6 920 L 800.6 910" />
        <path d="M 817.2 920 L 817.2 910" />
        <path d="M 833.8 920 L 833.8 910" />
        <path d="M 850.4 920 L 850.4 910" />
        <path d="M 867 920 L 867 910" />
        <path d="M 883.6 920 L 883.6 910" />
        <path d="M 900.2 920 L 900.2 910" />
        <path d="M 916.8 920 L 916.8 910" />
        <path d="M 933.4 920 L 933.4 910" />
        <path d="M 950 920 L 950 900" />
        <text font-size="30" transform="translate(950, 950)" text-anchor="middle" dominant-baseline="middle" stroke="none" fill="black">50</text>
    </g>
    <g id="frame_0_leftticks">
        <path d="M 120 738.043 L 130 738.043" />
        <path d="M 120 647.065 L 130 647.065" />
        <path d="M 120 169.428 L 130 169.428" />
        <path d="M 120 612.948 L 130 612.948" />
        <path d="M 120 203.545 L 130 203.545" />
        <path d="M 120 681.182 L 130 681.182" />
        <path d="M 120 533.342 L 130 533.342" />
        <path d="M 120 55.7055 L 130 55.7055" />
        <path d="M 120 271.779 L 130 271.779" />
        <path d="M 120 624.32 L 130 624.32" />
        <path d="M 120 840.394 L 130 840.394" />
        <path d="M 120 385.502 L 130 385.502" />
        <path d="M 120 146.684 L 130 146.684" />
        <path d="M 120 749.416 L 130 749.416" />
        <path d="M 120 237.662 L 140 237.662" />
        <text font-size="30" transform="translate(110, 247.662)" text-anchor="end" dominant-baseline="middle" stroke="none" fill="black">60000</text>
        <path d="M 120 260.407 L 130 260.407" />
        <path d="M 120 920 L 140 920" />
        <text font-size="30" transform="translate(110, 930)" text-anchor="end" dominant-baseline="middle" stroke="none" fill="black">0</text>
        <path d="M 120 590.203 L 130 590.203" />
        <path d="M 120 567.459 L 130 567.459" />
        <path d="M 120 476.48 L 130 476.48" />
        <path d="M 120 874.511 L 130 874.511" />
        <path d="M 120 669.809 L 130 669.809" />
        <path d="M 120 419.619 L 130 419.619" />
        <path d="M 120 806.277 L 140 806.277" />
        <text font-size="30" transform="translate(110, 816.277)" text-anchor="end" dominant-baseline="middle" stroke="none" fill="black">10000</text>
        <path d="M 120 249.035 L 130 249.035" />
        <path d="M 120 817.649 L 130 817.649" />
        <path d="M 120 578.831 L 140 578.831" />
        <text font-size="30" transform="translate(110, 588.831)" text-anchor="end" dominant-baseline="middle" stroke="none" fill="black">30000</text>
        <path d="M 120 465.108 L 140 465.108" />
        <text font-size="30" transform="translate(110, 475.108)" text-anchor="end" dominant-baseline="middle" stroke="none" fill="black">40000</text>
        <path d="M 120 510.597 L 130 510.597" />
        <path d="M 120 135.312 L 130 135.312" />
        <path d="M 120 760.788 L 130 760.788" />
        <path d="M 120 863.139 L 130 863.139" />
        <path d="M 120 453.736 L 130 453.736" />
        <path d="M 120 703.926 L 130 703.926" />
        <path d="M 120 158.056 L 130 158.056" />
        <path d="M 120 123.939 L 140 123.939" />
        <text font-size="30" transform="translate(110, 133.939)" text-anchor="end" dominant-baseline="middle" stroke="none" fill="black">70000</text>
        <path d="M 120 362.757 L 130 362.757" />
        <path d="M 120 544.714 L 130 544.714" />
        <path d="M 120 829.022 L 130 829.022" />
        <path d="M 120 601.576 L 130 601.576" />
        <path d="M 120 635.693 L 130 635.693" />
        <path d="M 120 226.29 L 130 226.29" />
        <path d="M 120 112.567 L 130 112.567" />
        <path d="M 120 772.16 L 130 772.16" />
        <path d="M 120 487.853 L 130 487.853" />
        <path d="M 120 328.641 L 130 328.641" />
        <path d="M 120 340.013 L 130 340.013" />
        <path d="M 120 897.255 L 130 897.255" />
        <path d="M 120 885.883 L 130 885.883" />
        <path d="M 120 692.554 L 140 692.554" />
        <text font-size="30" transform="translate(110, 702.554)" text-anchor="end" dominant-baseline="middle" stroke="none" fill="black">20000</text>
        <path d="M 120 430.991 L 130 430.991" />
        <path d="M 120 192.173 L 130 192.173" />
        <path d="M 120 101.195 L 130 101.195" />
        <path d="M 120 658.437 L 130 658.437" />
        <path d="M 120 317.268 L 130 317.268" />
        <path d="M 120 521.97 L 130 521.97" />
        <path d="M 120 283.151 L 130 283.151" />
        <path d="M 120 783.532 L 130 783.532" />
        <path d="M 120 715.299 L 130 715.299" />
        <path d="M 120 374.13 L 130 374.13" />
        <path d="M 120 89.8224 L 130 89.8224" />
        <path d="M 120 305.896 L 130 305.896" />
        <path d="M 120 908.628 L 130 908.628" />
        <path d="M 120 214.918 L 130 214.918" />
        <path d="M 120 442.364 L 130 442.364" />
        <path d="M 120 556.087 L 130 556.087" />
        <path d="M 120 78.4501 L 130 78.4501" />
        <path d="M 120 851.766 L 130 851.766" />
        <path d="M 120 726.671 L 130 726.671" />
        <path d="M 120 294.524 L 130 294.524" />
        <path d="M 120 408.247 L 130 408.247" />
        <path d="M 120 351.385 L 140 351.385" />
        <text font-size="30" transform="translate(110, 361.385)" text-anchor="end" dominant-baseline="middle" stroke="none" fill="black">50000</text>
        <path d="M 120 794.905 L 130 794.905" />
        <path d="M 120 180.801 L 130 180.801" />
        <path d="M 120 499.225 L 130 499.225" />
        <path d="M 120 67.0778 L 130 67.0778" />
        <path d="M 120 396.874 L 130 396.874" />
    </g>
    <text id="frame_0_toplabel" font-size="30" transform="translate(535, 32.6)" text-anchor="middle" dominant-baseline="middle" stroke="none" fill="black">rand.string</text>
    <g id="frame_0_topticks">
        <path d="M 120 50 L 120 70" />
        <path d="M 136.6 50 L 136.6 60" />
        <path d="M 153.2 50 L 153.2 60" />
        <path d="M 169.8 50 L 169.8 60" />
        <path d="M 186.4 50 L 186.4 60" />
        <path d="M 203 50 L 203 60" />
        <path d="M 219.6 50 L 219.6 60" />
        <path d="M 236.2 50 L 236.2 60" />
        <path d="M 252.8 50 L 252.8 60" />
        <path d="M 269.4 50 L 269.4 60" />
        <path d="M 286 50 L 286 70" />
        <path d="M 302.6 50 L 302.6 60" />
        <path d="M 319.2 50 L 319.2 60" />
        <path d="M 335.8 50 L 335.8 60" />
        <path d="M 352.4 50 L 352.4 60" />
        <path d="M 369 50 L 369 60" />
        <path d="M 385.6 50 L 385.6 60" />
        <path d="M 402.2 50 L 402.2 60" />
        <path d="M 418.8 50 L 418.8 60" />
        <path d="M 435.4 50 L 435.4 60" />
        <path d="M 452 50 L 452 70" />
        <path d="M 468.6 50 L 468.6 60" />
        <path d="M 485.2 50 L 485.2 60" />
        <path d="M 501.8 50 L 501.8 60" />
        <path d="M 518.4 50 L 518.4 60" />
        <path d="M 535 50 L 535 60" />
        <path d="M 551.6 50 L 551.6 60" />
        <path d="M 568.2 50 L 568.2 60" />
        <path d="M 584.8 50 L 584.8 60" />
        <path d="M 601.4 50 L 601.4 60" />
        <path d="M 618 50 L 618 70" />
        <path d="M 634.6 50 L 634.6 60" />
        <path d="M 651.2 50 L 651.2 60" />
        <path d="M 667.8 50 L 667.8 60" />
        <path d="M 684.4 50 L 684.4 60" />
        <path d="M 701 50 L 701 60" />
        <path d="M 717.6 50 L 717.6 60" />
        <path d="M 734.2 50 L 734.2 60" />
        <path d="M 750.8 50 L 750.8 60" />
        <path d="M 767.4 50 L 767.4 60" />
        <path d="M 784 50 L 784 70" />
        <path d="M 800.6 50 L 800.6 60" />
        <path d="M 817.2 50 L 817.2 60" />
        <path d="M 833.8 50 L 833.8 60" />
        <path d="M 850.4 50 L 850.4 60" />
        <path d="M 867 50 L 867 60" />
        <path d="M 883.6 50 L 883.6 60" />
        <path d="M 900.2 50 L 900.2 60" />
        <path d="M 916.8 50 L 916.8 60" />
        <path d="M 933.4 50 L 933.4 60" />
        <path d="M 950 50 L 950 70" />
    </g>
    <g id="frame_0_rightticks">
        <path d="M 950 738.043 L 940 738.043" />
        <path d="M 950 647.065 L 940 647.065" />
        <path d="M 950 169.428 L 940 169.428" />
        <path d="M 950 612.948 L 940 612.948" />
        <path d="M 950 203.545 L 940 203.545" />
        <path d="M 950 681.182 L 940 681.182" />
        <path d="M 950 533.342 L 940 533.342" />
        <path d="M 950 55.7055 L 940 55.7055" />
        <path d="M 950 271.779 L 940 271.779" />
        <path d="M 950 624.32 L 940 624.32" />
        <path d="M 950 840.394 L 940 840.394" />
        <path d="M 950 385.502 L 940 385.502" />
        <path d="M 950 146.684 L 940 146.684" />
        <path d="M 950 749.416 L 940 749.416" />
        <path d="M 950 237.662 L 930 237.662" />
        <path d="M 950 260.407 L 940 260.407" />
        <path d="M 950 920 L 930 920" />
        <path d="M 950 590.203 L 940 590.203" />
        <path d="M 950 567.459 L 940 567.459" />
        <path d="M 950 476.48 L 940 476.48" />
        <path d="M 950 874.511 L 940 874.511" />
        <path d="M 950 669.809 L 940 669.809" />
        <path d="M 950 419.619 L 940 419.619" />
        <path d="M 950 806.277 L 930 806.277" />
        <path d="M 950 249.035 L 940 249.035" />
        <path d="M 950 817.649 L 940 817.649" />
        <path d="M 950 578.831 L 930 578.831" />
        <path d="M 950 465.108 L 930 465.108" />
        <path d="M 950 510.597 L 940 510.597" />
        <path d="M 950 135.312 L 940 135.312" />
        <path d="M 950 760.788 L 940 760.788" />
        <path d="M 950 863.139 L 940 863.139" />
        <path d="M 950 453.736 L 940 453.736" />
        <path d="M 950 703.926 L 940 703.926" />
        <path d="M 950 158.056 L 940 158.056" />
        <path d="M 950 123.939 L 930 123.939" />
        <path d="M 950 362.757 L 940 362.757" />
        <path d="M 950 544.714 L 940 544.714" />
        <path d="M 950 829.022 L 940 829.022" />
        <path d="M 950 601.576 L 940 601.576" />
        <path d="M 950 635.693 L 940 635.693" />
        <path d="M 950 226.29 L 940 226.29" />
        <path d="M 950 112.567 L 940 112.567" />
        <path d="M 950 772.16 L 940 772.16" />
        <path d="M 950 487.853 L 940 487.853" />
        <path d="M 950 328.641 L 940 328.641" />
        <path d="M 950 340.013 L 940 340.013" />
        <path d="M 950 897.255 L 940 897.255" />
        <path d="M 950 885.883 L 940 885.883" />
        <path d="M 950 692.554 L 930 692.554" />
        <path d="M 950 430.991 L 940 430.991" />
        <path d="M 950 192.173 L 940 192.173" />
        <path d="M 950 101.195 L 940 101.195" />
        <path d="M 950 658.437 L 940 658.437" />
        <path d="M 950 317.268 L 940 317.268" />
        <path d="M 950 521.97 L 940 521.97" />
        <path d="M 950 283.151 L 940 283.151" />
        <path d="M 950 783.532 L 940 783.532" />
        <path d="M 950 715.299 L 940 715.299" />
        <path d="M 950 374.13 L 940 374.13" />
        <path d="M 950 89.8224 L 940 89.8224" />
        <path d="M 950 305.896 L 940 305.896" />
        <path d="M 950 908.628 L 940 908.628" />
        <path d="M 950 214.918 L 940 214.918" />
        <path d="M 950 442.364 L 940 442.364" />
        <path d="M 950 556.087 L 940 556.087" />
        <path d="M 950 78.4501 L 940 78.4501" />
        <path d="M 950 851.766 L 940 851.766" />
        <path d="M 950 726.671 L 940 726.671" />
        <path d="M 950 294.524 L 940 294.524" />
        <path d="M 950 408.247 L 940 408.247" />
        <path d="M 950 351.385 L 930 351.385" />
        <path d="M 950 794.905 L 940 794.905" />
        <path d="M 950 180.801 L 940 180.801" />
        <path d="M 950 499.225 L 940 499.225" />
        <path d="M 950 67.0778 L 940 67.0778" />
        <path d="M 950 396.874 L 940 396.874" />
    </g>
</g>
</g>
</svg>
