<?xml version="1.0" standalone="no"?>
<!DOCTYPE svg PUBLIC "-//W3C//DTD SVG 1.1//EN" "http://www.w3.org/Graphics/SVG/1.1/DTD/svg11.dtd">
<svg style="stroke-linejoin:miter; stroke:black; stroke-width:2.5; text-anchor:middle; fill:none" xmlns="http://www.w3.org/2000/svg" font-family="Helvetica, Arial, FreeSans, Sans, sans, sans-serif" width="1000px" height="1000px" version="1.1" xmlns:xlink="http://www.w3.org/1999/xlink" viewBox="0 0 1000 1000">
<defs>
    <clipPath id="Histogram_0_clip">
        <rect x="120" y="50" width="830" height="870" />
    </clipPath>
    <clipPath id="Histogram_1_clip">
        <rect x="120" y="50" width="830" height="870" />
    </clipPath>
</defs>
<g id="whole_document">
<rect id="background" x="0" y="0" width="1000" height="1000" stroke="none" fill="white" />
<g id="Histogram_0" clip-path="url(#Histogram_0_clip)">
    <path d="M 120 920 L 120 129.091 L 161.5 129.091 L 161.5 920 L 203 920 L 203 913.61 L 244.5 913.61 L 244.5 920 L 286 920 L 286 920 L 327.5 920 L 327.5 920 L 369 920 L 369 920 L 410.5 920 L 410.5 920 L 452 920 L 452 920 L 493.5 920 L 493.5 920 L 535 920 L 535 920 L 576.5 920 L 576.5 920 L 618 920 L 618 920 L 659.5 920 L 659.5 920 L 701 920 L 701 920 L 742.5 920 L 742.5 920 L 784 920 L 784 920 L 825.5 920 L 825.5 920 L 867 920 L 867 920 L 908.5 920 L 908.5 920 L 950 920 L 950 920" stroke-width="3" stroke-dasharray="" stroke="black" stroke-opacity="1" fill="DodgerBlue" fill-opacity="1" />
</g>
<g id="Histogram_1" clip-path="url(#Histogram_1_clip)">
    <path d="M 120 920 L 120 920 L 161.5 920 L 161.5 920 L 203 920 L 203 913.61 L 244.5 913.61 L 244.5 920 L 286 920 L 286 920 L 327.5 920 L 327.5 920 L 369 920 L 369 920 L 410.5 920 L 410.5 920 L 452 920 L 452 920 L 493.5 920 L 493.5 920 L 535 920 L 535 920 L 576.5 920 L 576.5 920 L 618 920 L 618 920 L 659.5 920 L 659.5 920 L 701 920 L 701 920 L 742.5 920 L 742.5 920 L 784 920 L 784 920 L 825.5 920 L 825.5 920 L 867 920 L 867 920 L 908.5 920 L 908.5 920 L 950 920 L 950 920" stroke-width="3" stroke-dasharray="" stroke="black" stroke-opacity="1" fill="darkorange" fill-opacity="1" />
</g>
<g id="frame_0">
    <rect id="frame_0_border" x="120" y="50" width="830" height="870" />
    <text id="frame_0_bottomlabel" font-size="30" transform="translate(535, 989.6)" text-anchor="middle" dominant-baseline="middle" stroke="none" fill="black">microseconds</text>
    <g id="frame_0_bottomticks">
        <path d="M 120 920 L 120 900" />
        <text font-size="30" transform="translate(120, 950)" text-anchor="middle" dominant-baseline="middle" stroke="none" fill="black">0</text>
        <path d="M 136.6 920 L 136.6 910" />
        <path d="M 153.2 920 L 153.2 910" />
        <path d="M 169.8 920 L 169.8 910" />
        <path d="M 186.4 920 L 186.4 910" />
        <path d="M 203 920 L 203 910" />
        <path d="M 219.6 920 L 219.6 910" />
        <path d="M 236.2 920 L 236.2 910" />
        <path d="M 252.8 920 L 252.8 910" />
        <path d="M 269.4 920 L 269.4 910" />
        <path d="M 286 920 L 286 900" />
        <text font-size="30" transform="translate(286, 950)" text-anchor="middle" dominant-baseline="middle" stroke="none" fill="black">10</text>
        <path d="M 302.6 920 L 302.6 910" />
        <path d="M 319.2 920 L 319.2 910" />
        <path d="M 335.8 920 L 335.8 910" />
        <path d="M 352.4 920 L 352.4 910" />
        <path d="M 369 920 L 369 910" />
        <path d="M 385.6 920 L 385.6 910" />
        <path d="M 402.2 920 L 402.2 910" />
        <path d="M 418.8 920 L 418.8 910" />
        <path d="M 435.4 920 L 435.4 910" />
        <path d="M 452 920 L 452 900" />
        <text font-size="30" transform="translate(452, 950)" text-anchor="middle" dominant-baseline="middle" stroke="none" fill="black">20</text>
        <path d="M 468.6 920 L 468.6 910" />
        <path d="M 485.2 920 L 485.2 910" />
        <path d="M 501.8 920 L 501.8 910" />
        <path d="M 518.4 920 L 518.4 910" />
        <path d="M 535 920 L 535 910" />
        <path d="M 551.6 920 L 551.6 910" />
        <path d="M 568.2 920 L 568.2 910" />
        <path d="M 584.8 920 L 584.8 910" />
        <path d="M 601.4 920 L 601.4 910" />
        <path d="M 618 920 L 618 900" />
        <text font-size="30" transform="translate(618, 950)" text-anchor="middle" dominant-baseline="middle" stroke="none" fill="black">30</text>
        <path d="M 634.6 920 L 634.6 910" />
        <path d="M 651.2 920 L 651.2 910" />
        <path d="M 667.8 920 L 667.8 910" />
        <path d="M 684.4 920 L 684.4 910" />
        <path d="M 701 920 L 701 910" />
        <path d="M 717.6 920 L 717.6 910" />
        <path d="M 734.2 920 L 734.2 910" />
        <path d="M 750.8 920 L 750.8 910" />
        <path d="M 767.4 920 L 767.4 910" />
        <path d="M 784 920 L 784 900" />
        <text font-size="30" transform="translate(784, 950)" text-anchor="middle" dominant-baseline="middle" stroke="none" fill="black">40</text>
        <path d="M 800.6 920 L 800.6 910" />
        <path d="M 817.2 920 L 817.2 910" />
        <path d="M 833.8 920 L 833.8 910" />
        <path d="M 850.4 920 L 850.4 910" />
        <path d="M 867 920 L 867 910" />
        <path d="M 883.6 920 L 883.6 910" />
        <path d="M 900.2 920 L 900.2 910" />
        <path d="M 916.8 920 L 916.8 910" />
        <path d="M 933.4 920 L 933.4 910" />
        <path d="M 950 920 L 950 900" />
        <text font-size="30" transform="translate(950, 950)" text-anchor="middle" dominant-baseline="middle" stroke="none" fill="black">50</text>
    </g>
    <g id="frame_0_leftticks">
        <path d="M 120 779.021 L 130 779.021" />
        <path d="M 120 708.531 L 130 708.531" />
        <path d="M 120 461.817 L 130 461.817" />
        <path d="M 120 91.7454 L 130 91.7454" />
        <path d="M 120 920 L 140 920" />
        <text font-size="30" transform="translate(110, 930)" text-anchor="end" dominant-baseline="middle" stroke="none" fill="black">0</text>
        <path d="M 120 549.929 L 130 549.929" />
        <path d="M 120 179.858 L 130 179.858" />
        <path d="M 120 638.041 L 130 638.041" />
        <path d="M 120 761.398 L 130 761.398" />
        <path d="M 120 356.082 L 130 356.082" />
        <path d="M 120 444.194 L 130 444.194" />
        <path d="M 120 902.378 L 130 902.378" />
        <path d="M 120 884.755 L 130 884.755" />
        <path d="M 120 726.153 L 130 726.153" />
        <path d="M 120 162.235 L 130 162.235" />
        <path d="M 120 250.347 L 130 250.347" />
        <path d="M 120 338.46 L 130 338.46" />
        <path d="M 120 867.133 L 130 867.133" />
        <path d="M 120 831.888 L 130 831.888" />
        <path d="M 120 426.572 L 130 426.572" />
        <path d="M 120 56.5006 L 130 56.5006" />
        <path d="M 120 514.684 L 130 514.684" />
        <path d="M 120 796.643 L 130 796.643" />
        <path d="M 120 144.613 L 130 144.613" />
        <path d="M 120 602.796 L 130 602.796" />
        <path d="M 120 849.51 L 130 849.51" />
        <path d="M 120 532.306 L 130 532.306" />
        <path d="M 120 232.725 L 130 232.725" />
        <path d="M 120 320.837 L 130 320.837" />
        <path d="M 120 408.949 L 130 408.949" />
        <path d="M 120 690.908 L 130 690.908" />
        <path d="M 120 497.062 L 130 497.062" />
        <path d="M 120 126.99 L 130 126.99" />
        <path d="M 120 585.174 L 130 585.174" />
        <path d="M 120 215.103 L 140 215.103" />
        <text font-size="30" transform="translate(110, 225.103)" text-anchor="end" dominant-baseline="middle" stroke="none" fill="black">400000</text>
        <path d="M 120 673.286 L 130 673.286" />
        <path d="M 120 303.215 L 130 303.215" />
        <path d="M 120 814.265 L 130 814.265" />
        <path d="M 120 620.419 L 130 620.419" />
        <path d="M 120 391.327 L 140 391.327" />
        <text font-size="30" transform="translate(110, 401.327)" text-anchor="end" dominant-baseline="middle" stroke="none" fill="black">300000</text>
        <path d="M 120 267.97 L 130 267.97" />
        <path d="M 120 479.439 L 130 479.439" />
        <path d="M 120 74.123 L 130 74.123" />
        <path d="M 120 109.368 L 130 109.368" />
        <path d="M 120 655.663 L 130 655.663" />
        <path d="M 120 197.48 L 130 197.48" />
        <path d="M 120 567.551 L 140 567.551" />
        <text font-size="30" transform="translate(110, 577.551)" text-anchor="end" dominant-baseline="middle" stroke="none" fill="black">200000</text>
        <path d="M 120 285.592 L 130 285.592" />
        <path d="M 120 743.776 L 140 743.776" />
        <text font-size="30" transform="translate(110, 753.776)" text-anchor="end" dominant-baseline="middle" stroke="none" fill="black">100000</text>
        <path d="M 120 373.704 L 130 373.704" />
    </g>
    <text id="frame_0_toplabel" font-size="30" transform="translate(535, 32.6)" text-anchor="middle" dominant-baseline="middle" stroke="none" fill="black">%</text>
    <g id="frame_0_topticks">
        <path d="M 120 50 L 120 70" />
        <path d="M 136.6 50 L 136.6 60" />
        <path d="M 153.2 50 L 153.2 60" />
        <path d="M 169.8 50 L 169.8 60" />
        <path d="M 186.4 50 L 186.4 60" />
        <path d="M 203 50 L 203 60" />
        <path d="M 219.6 50 L 219.6 60" />
        <path d="M 236.2 50 L 236.2 60" />
        <path d="M 252.8 50 L 252.8 60" />
        <path d="M 269.4 50 L 269.4 60" />
        <path d="M 286 50 L 286 70" />
        <path d="M 302.6 50 L 302.6 60" />
        <path d="M 319.2 50 L 319.2 60" />
        <path d="M 335.8 50 L 335.8 60" />
        <path d="M 352.4 50 L 352.4 60" />
        <path d="M 369 50 L 369 60" />
        <path d="M 385.6 50 L 385.6 60" />
        <path d="M 402.2 50 L 402.2 60" />
        <path d="M 418.8 50 L 418.8 60" />
        <path d="M 435.4 50 L 435.4 60" />
        <path d="M 452 50 L 452 70" />
        <path d="M 468.6 50 L 468.6 60" />
        <path d="M 485.2 50 L 485.2 60" />
        <path d="M 501.8 50 L 501.8 60" />
        <path d="M 518.4 50 L 518.4 60" />
        <path d="M 535 50 L 535 60" />
        <path d="M 551.6 50 L 551.6 60" />
        <path d="M 568.2 50 L 568.2 60" />
        <path d="M 584.8 50 L 584.8 60" />
        <path d="M 601.4 50 L 601.4 60" />
        <path d="M 618 50 L 618 70" />
        <path d="M 634.6 50 L 634.6 60" />
        <path d="M 651.2 50 L 651.2 60" />
        <path d="M 667.8 50 L 667.8 60" />
        <path d="M 684.4 50 L 684.4 60" />
        <path d="M 701 50 L 701 60" />
        <path d="M 717.6 50 L 717.6 60" />
        <path d="M 734.2 50 L 734.2 60" />
        <path d="M 750.8 50 L 750.8 60" />
        <path d="M 767.4 50 L 767.4 60" />
        <path d="M 784 50 L 784 70" />
        <path d="M 800.6 50 L 800.6 60" />
        <path d="M 817.2 50 L 817.2 60" />
        <path d="M 833.8 50 L 833.8 60" />
        <path d="M 850.4 50 L 850.4 60" />
        <path d="M 867 50 L 867 60" />
        <path d="M 883.6 50 L 883.6 60" />
        <path d="M 900.2 50 L 900.2 60" />
        <path d="M 916.8 50 L 916.8 60" />
        <path d="M 933.4 50 L 933.4 60" />
        <path d="M 950 50 L 950 70" />
    </g>
    <g id="frame_0_rightticks">
        <path d="M 950 779.021 L 940 779.021" />
        <path d="M 950 708.531 L 940 708.531" />
        <path d="M 950 461.817 L 940 461.817" />
        <path d="M 950 91.7454 L 940 91.7454" />
        <path d="M 950 920 L 930 920" />
        <path d="M 950 549.929 L 940 549.929" />
        <path d="M 950 179.858 L 940 179.858" />
        <path d="M 950 638.041 L 940 638.041" />
        <path d="M 950 761.398 L 940 761.398" />
        <path d="M 950 356.082 L 940 356.082" />
        <path d="M 950 444.194 L 940 444.194" />
        <path d="M 950 902.378 L 940 902.378" />
        <path d="M 950 884.755 L 940 884.755" />
        <path d="M 950 726.153 L 940 726.153" />
        <path d="M 950 162.235 L 940 162.235" />
        <path d="M 950 250.347 L 940 250.347" />
        <path d="M 950 338.46 L 940 338.46" />
        <path d="M 950 867.133 L 940 867.133" />
        <path d="M 950 831.888 L 940 831.888" />
        <path d="M 950 426.572 L 940 426.572" />
        <path d="M 950 56.5006 L 940 56.5006" />
        <path d="M 950 514.684 L 940 514.684" />
        <path d="M 950 796.643 L 940 796.643" />
        <path d="M 950 144.613 L 940 144.613" />
        <path d="M 950 602.796 L 940 602.796" />
        <path d="M 950 849.51 L 940 849.51" />
        <path d="M 950 532.306 L 940 532.306" />
        <path d="M 950 232.725 L 940 232.725" />
        <path d="M 950 320.837 L 940 320.837" />
        <path d="M 950 408.949 L 940 408.949" />
        <path d="M 950 690.908 L 940 690.908" />
        <path d="M 950 497.062 L 940 497.062" />
        <path d="M 950 126.99 L 940 126.99" />
        <path d="M 950 585.174 L 940 585.174" />
        <path d="M 950 215.103 L 930 215.103" />
        <path d="M 950 673.286 L 940 673.286" />
        <path d="M 950 303.215 L 940 303.215" />
        <path d="M 950 814.265 L 940 814.265" />
        <path d="M 950 620.419 L 940 620.419" />
        <path d="M 950 391.327 L 930 391.327" />
        <path d="M 950 267.97 L 940 267.97" />
        <path d="M 950 479.439 L 940 479.439" />
        <path d="M 950 74.123 L 940 74.123" />
        <path d="M 950 109.368 L 940 109.368" />
        <path d="M 950 655.663 L 940 655.663" />
        <path d="M 950 197.48 L 940 197.48" />
        <path d="M 950 567.551 L 930 567.551" />
        <path d="M 950 285.592 L 940 285.592" />
        <path d="M 950 743.776 L 930 743.776" />
        <path d="M 950 373.704 L 940 373.704" />
    </g>
</g>
</g>
</svg>
