<?xml version="1.0" standalone="no"?>
<!DOCTYPE svg PUBLIC "-//W3C//DTD SVG 1.1//EN" "http://www.w3.org/Graphics/SVG/1.1/DTD/svg11.dtd">
<svg style="stroke-linejoin:miter; stroke:black; stroke-width:2.5; text-anchor:middle; fill:none" xmlns="http://www.w3.org/2000/svg" font-family="Helvetica, Arial, FreeSans, Sans, sans, sans-serif" width="1000px" height="1000px" version="1.1" xmlns:xlink="http://www.w3.org/1999/xlink" viewBox="0 0 1000 1000">
<defs>
    <clipPath id="Histogram_0_clip">
        <rect x="120" y="50" width="830" height="870" />
    </clipPath>
    <clipPath id="Histogram_1_clip">
        <rect x="120" y="50" width="830" height="870" />
    </clipPath>
</defs>
<g id="whole_document">
<rect id="background" x="0" y="0" width="1000" height="1000" stroke="none" fill="white" />
<g id="Histogram_0" clip-path="url(#Histogram_0_clip)">
    <path d="M 120 920 L 120 129.091 L 161.5 129.091 L 161.5 785.048 L 203 785.048 L 203 334.259 L 244.5 334.259 L 244.5 740.323 L 286 740.323 L 286 909.4 L 327.5 909.4 L 327.5 915.746 L 369 915.746 L 369 918.81 L 410.5 918.81 L 410.5 916.034 L 452 916.034 L 452 919.099 L 493.5 919.099 L 493.5 920 L 535 920 L 535 920 L 576.5 920 L 576.5 920 L 618 920 L 618 920 L 659.5 920 L 659.5 920 L 701 920 L 701 920 L 742.5 920 L 742.5 920 L 784 920 L 784 920 L 825.5 920 L 825.5 920 L 867 920 L 867 920 L 908.5 920 L 908.5 920 L 950 920 L 950 920" stroke-width="3" stroke-dasharray="" stroke="black" stroke-opacity="1" fill="DodgerBlue" fill-opacity="1" />
</g>
<g id="Histogram_1" clip-path="url(#Histogram_1_clip)">
    <path d="M 120 920 L 120 920 L 161.5 920 L 161.5 920 L 203 920 L 203 334.259 L 244.5 334.259 L 244.5 740.323 L 286 740.323 L 286 909.4 L 327.5 909.4 L 327.5 915.746 L 369 915.746 L 369 918.81 L 410.5 918.81 L 410.5 916.034 L 452 916.034 L 452 919.099 L 493.5 919.099 L 493.5 920 L 535 920 L 535 920 L 576.5 920 L 576.5 920 L 618 920 L 618 920 L 659.5 920 L 659.5 920 L 701 920 L 701 920 L 742.5 920 L 742.5 920 L 784 920 L 784 920 L 825.5 920 L 825.5 920 L 867 920 L 867 920 L 908.5 920 L 908.5 920 L 950 920 L 950 920" stroke-width="3" stroke-dasharray="" stroke="black" stroke-opacity="1" fill="darkorange" fill-opacity="1" />
</g>
<g id="frame_0">
    <rect id="frame_0_border" x="120" y="50" width="830" height="870" />
    <text id="frame_0_bottomlabel" font-size="30" transform="translate(535, 989.6)" text-anchor="middle" dominant-baseline="middle" stroke="none" fill="black">microseconds</text>
    <g id="frame_0_bottomticks">
        <path d="M 120 920 L 120 900" />
        <text font-size="30" transform="translate(120, 950)" text-anchor="middle" dominant-baseline="middle" stroke="none" fill="black">0</text>
        <path d="M 136.6 920 L 136.6 910" />
        <path d="M 153.2 920 L 153.2 910" />
        <path d="M 169.8 920 L 169.8 910" />
        <path d="M 186.4 920 L 186.4 910" />
        <path d="M 203 920 L 203 910" />
        <path d="M 219.6 920 L 219.6 910" />
        <path d="M 236.2 920 L 236.2 910" />
        <path d="M 252.8 920 L 252.8 910" />
        <path d="M 269.4 920 L 269.4 910" />
        <path d="M 286 920 L 286 900" />
        <text font-size="30" transform="translate(286, 950)" text-anchor="middle" dominant-baseline="middle" stroke="none" fill="black">10</text>
        <path d="M 302.6 920 L 302.6 910" />
        <path d="M 319.2 920 L 319.2 910" />
        <path d="M 335.8 920 L 335.8 910" />
        <path d="M 352.4 920 L 352.4 910" />
        <path d="M 369 920 L 369 910" />
        <path d="M 385.6 920 L 385.6 910" />
        <path d="M 402.2 920 L 402.2 910" />
        <path d="M 418.8 920 L 418.8 910" />
        <path d="M 435.4 920 L 435.4 910" />
        <path d="M 452 920 L 452 900" />
        <text font-size="30" transform="translate(452, 950)" text-anchor="middle" dominant-baseline="middle" stroke="none" fill="black">20</text>
        <path d="M 468.6 920 L 468.6 910" />
        <path d="M 485.2 920 L 485.2 910" />
        <path d="M 501.8 920 L 501.8 910" />
        <path d="M 518.4 920 L 518.4 910" />
        <path d="M 535 920 L 535 910" />
        <path d="M 551.6 920 L 551.6 910" />
        <path d="M 568.2 920 L 568.2 910" />
        <path d="M 584.8 920 L 584.8 910" />
        <path d="M 601.4 920 L 601.4 910" />
        <path d="M 618 920 L 618 900" />
        <text font-size="30" transform="translate(618, 950)" text-anchor="middle" dominant-baseline="middle" stroke="none" fill="black">30</text>
        <path d="M 634.6 920 L 634.6 910" />
        <path d="M 651.2 920 L 651.2 910" />
        <path d="M 667.8 920 L 667.8 910" />
        <path d="M 684.4 920 L 684.4 910" />
        <path d="M 701 920 L 701 910" />
        <path d="M 717.6 920 L 717.6 910" />
        <path d="M 734.2 920 L 734.2 910" />
        <path d="M 750.8 920 L 750.8 910" />
        <path d="M 767.4 920 L 767.4 910" />
        <path d="M 784 920 L 784 900" />
        <text font-size="30" transform="translate(784, 950)" text-anchor="middle" dominant-baseline="middle" stroke="none" fill="black">40</text>
        <path d="M 800.6 920 L 800.6 910" />
        <path d="M 817.2 920 L 817.2 910" />
        <path d="M 833.8 920 L 833.8 910" />
        <path d="M 850.4 920 L 850.4 910" />
        <path d="M 867 920 L 867 910" />
        <path d="M 883.6 920 L 883.6 910" />
        <path d="M 900.2 920 L 900.2 910" />
        <path d="M 916.8 920 L 916.8 910" />
        <path d="M 933.4 920 L 933.4 910" />
        <path d="M 950 920 L 950 900" />
        <text font-size="30" transform="translate(950, 950)" text-anchor="middle" dominant-baseline="middle" stroke="none" fill="black">50</text>
    </g>
    <g id="frame_0_leftticks">
        <path d="M 120 631.564 L 130 631.564" />
        <path d="M 120 487.346 L 130 487.346" />
        <path d="M 120 433.265 L 130 433.265" />
        <path d="M 120 541.428 L 130 541.428" />
        <path d="M 120 307.074 L 130 307.074" />
        <path d="M 120 451.292 L 130 451.292" />
        <path d="M 120 793.809 L 130 793.809" />
        <path d="M 120 72.7197 L 130 72.7197" />
        <path d="M 120 649.591 L 130 649.591" />
        <path d="M 120 920 L 140 920" />
        <text font-size="30" transform="translate(110, 930)" text-anchor="end" dominant-baseline="middle" stroke="none" fill="black">0</text>
        <path d="M 120 397.21 L 130 397.21" />
        <path d="M 120 361.156 L 130 361.156" />
        <path d="M 120 216.938 L 130 216.938" />
        <path d="M 120 847.891 L 130 847.891" />
        <path d="M 120 523.401 L 130 523.401" />
        <path d="M 120 126.801 L 130 126.801" />
        <path d="M 120 739.728 L 140 739.728" />
        <text font-size="30" transform="translate(110, 749.728)" text-anchor="end" dominant-baseline="middle" stroke="none" fill="black">10000</text>
        <path d="M 120 559.455 L 140 559.455" />
        <text font-size="30" transform="translate(110, 569.455)" text-anchor="end" dominant-baseline="middle" stroke="none" fill="black">20000</text>
        <path d="M 120 757.755 L 130 757.755" />
        <path d="M 120 271.019 L 130 271.019" />
        <path d="M 120 667.619 L 130 667.619" />
        <path d="M 120 829.864 L 130 829.864" />
        <path d="M 120 180.883 L 130 180.883" />
        <path d="M 120 577.482 L 130 577.482" />
        <path d="M 120 325.101 L 130 325.101" />
        <path d="M 120 775.782 L 130 775.782" />
        <path d="M 120 415.237 L 130 415.237" />
        <path d="M 120 469.319 L 130 469.319" />
        <path d="M 120 685.646 L 130 685.646" />
        <path d="M 120 234.965 L 130 234.965" />
        <path d="M 120 379.183 L 140 379.183" />
        <text font-size="30" transform="translate(110, 389.183)" text-anchor="end" dominant-baseline="middle" stroke="none" fill="black">30000</text>
        <path d="M 120 883.946 L 130 883.946" />
        <path d="M 120 865.918 L 130 865.918" />
        <path d="M 120 144.829 L 130 144.829" />
        <path d="M 120 505.373 L 130 505.373" />
        <path d="M 120 289.047 L 130 289.047" />
        <path d="M 120 703.673 L 130 703.673" />
        <path d="M 120 595.51 L 130 595.51" />
        <path d="M 120 54.6925 L 130 54.6925" />
        <path d="M 120 901.973 L 130 901.973" />
        <path d="M 120 162.856 L 130 162.856" />
        <path d="M 120 343.128 L 130 343.128" />
        <path d="M 120 811.837 L 130 811.837" />
        <path d="M 120 613.537 L 130 613.537" />
        <path d="M 120 198.91 L 140 198.91" />
        <text font-size="30" transform="translate(110, 208.91)" text-anchor="end" dominant-baseline="middle" stroke="none" fill="black">40000</text>
        <path d="M 120 108.774 L 130 108.774" />
        <path d="M 120 721.7 L 130 721.7" />
        <path d="M 120 252.992 L 130 252.992" />
        <path d="M 120 90.747 L 130 90.747" />
    </g>
    <text id="frame_0_toplabel" font-size="30" transform="translate(535, 32.6)" text-anchor="middle" dominant-baseline="middle" stroke="none" fill="black">rand.bytes</text>
    <g id="frame_0_topticks">
        <path d="M 120 50 L 120 70" />
        <path d="M 136.6 50 L 136.6 60" />
        <path d="M 153.2 50 L 153.2 60" />
        <path d="M 169.8 50 L 169.8 60" />
        <path d="M 186.4 50 L 186.4 60" />
        <path d="M 203 50 L 203 60" />
        <path d="M 219.6 50 L 219.6 60" />
        <path d="M 236.2 50 L 236.2 60" />
        <path d="M 252.8 50 L 252.8 60" />
        <path d="M 269.4 50 L 269.4 60" />
        <path d="M 286 50 L 286 70" />
        <path d="M 302.6 50 L 302.6 60" />
        <path d="M 319.2 50 L 319.2 60" />
        <path d="M 335.8 50 L 335.8 60" />
        <path d="M 352.4 50 L 352.4 60" />
        <path d="M 369 50 L 369 60" />
        <path d="M 385.6 50 L 385.6 60" />
        <path d="M 402.2 50 L 402.2 60" />
        <path d="M 418.8 50 L 418.8 60" />
        <path d="M 435.4 50 L 435.4 60" />
        <path d="M 452 50 L 452 70" />
        <path d="M 468.6 50 L 468.6 60" />
        <path d="M 485.2 50 L 485.2 60" />
        <path d="M 501.8 50 L 501.8 60" />
        <path d="M 518.4 50 L 518.4 60" />
        <path d="M 535 50 L 535 60" />
        <path d="M 551.6 50 L 551.6 60" />
        <path d="M 568.2 50 L 568.2 60" />
        <path d="M 584.8 50 L 584.8 60" />
        <path d="M 601.4 50 L 601.4 60" />
        <path d="M 618 50 L 618 70" />
        <path d="M 634.6 50 L 634.6 60" />
        <path d="M 651.2 50 L 651.2 60" />
        <path d="M 667.8 50 L 667.8 60" />
        <path d="M 684.4 50 L 684.4 60" />
        <path d="M 701 50 L 701 60" />
        <path d="M 717.6 50 L 717.6 60" />
        <path d="M 734.2 50 L 734.2 60" />
        <path d="M 750.8 50 L 750.8 60" />
        <path d="M 767.4 50 L 767.4 60" />
        <path d="M 784 50 L 784 70" />
        <path d="M 800.6 50 L 800.6 60" />
        <path d="M 817.2 50 L 817.2 60" />
        <path d="M 833.8 50 L 833.8 60" />
        <path d="M 850.4 50 L 850.4 60" />
        <path d="M 867 50 L 867 60" />
        <path d="M 883.6 50 L 883.6 60" />
        <path d="M 900.2 50 L 900.2 60" />
        <path d="M 916.8 50 L 916.8 60" />
        <path d="M 933.4 50 L 933.4 60" />
        <path d="M 950 50 L 950 70" />
    </g>
    <g id="frame_0_rightticks">
        <path d="M 950 631.564 L 940 631.564" />
        <path d="M 950 487.346 L 940 487.346" />
        <path d="M 950 433.265 L 940 433.265" />
        <path d="M 950 541.428 L 940 541.428" />
        <path d="M 950 307.074 L 940 307.074" />
        <path d="M 950 451.292 L 940 451.292" />
        <path d="M 950 793.809 L 940 793.809" />
        <path d="M 950 72.7197 L 940 72.7197" />
        <path d="M 950 649.591 L 940 649.591" />
        <path d="M 950 920 L 930 920" />
        <path d="M 950 397.21 L 940 397.21" />
        <path d="M 950 361.156 L 940 361.156" />
        <path d="M 950 216.938 L 940 216.938" />
        <path d="M 950 847.891 L 940 847.891" />
        <path d="M 950 523.401 L 940 523.401" />
        <path d="M 950 126.801 L 940 126.801" />
        <path d="M 950 739.728 L 930 739.728" />
        <path d="M 950 559.455 L 930 559.455" />
        <path d="M 950 757.755 L 940 757.755" />
        <path d="M 950 271.019 L 940 271.019" />
        <path d="M 950 667.619 L 940 667.619" />
        <path d="M 950 829.864 L 940 829.864" />
        <path d="M 950 180.883 L 940 180.883" />
        <path d="M 950 577.482 L 940 577.482" />
        <path d="M 950 325.101 L 940 325.101" />
        <path d="M 950 775.782 L 940 775.782" />
        <path d="M 950 415.237 L 940 415.237" />
        <path d="M 950 469.319 L 940 469.319" />
        <path d="M 950 685.646 L 940 685.646" />
        <path d="M 950 234.965 L 940 234.965" />
        <path d="M 950 379.183 L 930 379.183" />
        <path d="M 950 883.946 L 940 883.946" />
        <path d="M 950 865.918 L 940 865.918" />
        <path d="M 950 144.829 L 940 144.829" />
        <path d="M 950 505.373 L 940 505.373" />
        <path d="M 950 289.047 L 940 289.047" />
        <path d="M 950 703.673 L 940 703.673" />
        <path d="M 950 595.51 L 940 595.51" />
        <path d="M 950 54.6925 L 940 54.6925" />
        <path d="M 950 901.973 L 940 901.973" />
        <path d="M 950 162.856 L 940 162.856" />
        <path d="M 950 343.128 L 940 343.128" />
        <path d="M 950 811.837 L 940 811.837" />
        <path d="M 950 613.537 L 940 613.537" />
        <path d="M 950 198.91 L 930 198.91" />
        <path d="M 950 108.774 L 940 108.774" />
        <path d="M 950 721.7 L 940 721.7" />
        <path d="M 950 252.992 L 940 252.992" />
        <path d="M 950 90.747 L 940 90.747" />
    </g>
</g>
</g>
</svg>
