<?xml version="1.0" standalone="no"?>
<!DOCTYPE svg PUBLIC "-//W3C//DTD SVG 1.1//EN" "http://www.w3.org/Graphics/SVG/1.1/DTD/svg11.dtd">
<svg style="stroke-linejoin:miter; stroke:black; stroke-width:2.5; text-anchor:middle; fill:none" xmlns="http://www.w3.org/2000/svg" font-family="Helvetica, Arial, FreeSans, Sans, sans, sans-serif" width="1000px" height="1000px" version="1.1" xmlns:xlink="http://www.w3.org/1999/xlink" viewBox="0 0 1000 1000">
<defs>
    <clipPath id="Histogram_0_clip">
        <rect x="120" y="50" width="830" height="870" />
    </clipPath>
    <clipPath id="Histogram_1_clip">
        <rect x="120" y="50" width="830" height="870" />
    </clipPath>
</defs>
<g id="whole_document">
<rect id="background" x="0" y="0" width="1000" height="1000" stroke="none" fill="white" />
<g id="Histogram_0" clip-path="url(#Histogram_0_clip)">
    <path d="M 120 920 L 120 518.37 L 161.5 518.37 L 161.5 129.091 L 203 129.091 L 203 699.666 L 244.5 699.666 L 244.5 817.222 L 286 817.222 L 286 880.741 L 327.5 880.741 L 327.5 920 L 369 920 L 369 920 L 410.5 920 L 410.5 920 L 452 920 L 452 909.854 L 493.5 909.854 L 493.5 920 L 535 920 L 535 920 L 576.5 920 L 576.5 920 L 618 920 L 618 920 L 659.5 920 L 659.5 920 L 701 920 L 701 920 L 742.5 920 L 742.5 920 L 784 920 L 784 920 L 825.5 920 L 825.5 920 L 867 920 L 867 920 L 908.5 920 L 908.5 920 L 950 920 L 950 920" stroke-width="3" stroke-dasharray="" stroke="black" stroke-opacity="1" fill="DodgerBlue" fill-opacity="1" />
</g>
<g id="Histogram_1" clip-path="url(#Histogram_1_clip)">
    <path d="M 120 920 L 120 920 L 161.5 920 L 161.5 920 L 203 920 L 203 920 L 244.5 920 L 244.5 920 L 286 920 L 286 901.253 L 327.5 901.253 L 327.5 920 L 369 920 L 369 920 L 410.5 920 L 410.5 920 L 452 920 L 452 909.854 L 493.5 909.854 L 493.5 920 L 535 920 L 535 920 L 576.5 920 L 576.5 920 L 618 920 L 618 920 L 659.5 920 L 659.5 920 L 701 920 L 701 920 L 742.5 920 L 742.5 920 L 784 920 L 784 920 L 825.5 920 L 825.5 920 L 867 920 L 867 920 L 908.5 920 L 908.5 920 L 950 920 L 950 920" stroke-width="3" stroke-dasharray="" stroke="black" stroke-opacity="1" fill="darkorange" fill-opacity="1" />
</g>
<g id="frame_0">
    <rect id="frame_0_border" x="120" y="50" width="830" height="870" />
    <text id="frame_0_bottomlabel" font-size="30" transform="translate(535, 989.6)" text-anchor="middle" dominant-baseline="middle" stroke="none" fill="black">microseconds</text>
    <g id="frame_0_bottomticks">
        <path d="M 120 920 L 120 900" />
        <text font-size="30" transform="translate(120, 950)" text-anchor="middle" dominant-baseline="middle" stroke="none" fill="black">0</text>
        <path d="M 136.6 920 L 136.6 910" />
        <path d="M 153.2 920 L 153.2 910" />
        <path d="M 169.8 920 L 169.8 910" />
        <path d="M 186.4 920 L 186.4 910" />
        <path d="M 203 920 L 203 910" />
        <path d="M 219.6 920 L 219.6 910" />
        <path d="M 236.2 920 L 236.2 910" />
        <path d="M 252.8 920 L 252.8 910" />
        <path d="M 269.4 920 L 269.4 910" />
        <path d="M 286 920 L 286 900" />
        <text font-size="30" transform="translate(286, 950)" text-anchor="middle" dominant-baseline="middle" stroke="none" fill="black">10</text>
        <path d="M 302.6 920 L 302.6 910" />
        <path d="M 319.2 920 L 319.2 910" />
        <path d="M 335.8 920 L 335.8 910" />
        <path d="M 352.4 920 L 352.4 910" />
        <path d="M 369 920 L 369 910" />
        <path d="M 385.6 920 L 385.6 910" />
        <path d="M 402.2 920 L 402.2 910" />
        <path d="M 418.8 920 L 418.8 910" />
        <path d="M 435.4 920 L 435.4 910" />
        <path d="M 452 920 L 452 900" />
        <text font-size="30" transform="translate(452, 950)" text-anchor="middle" dominant-baseline="middle" stroke="none" fill="black">20</text>
        <path d="M 468.6 920 L 468.6 910" />
        <path d="M 485.2 920 L 485.2 910" />
        <path d="M 501.8 920 L 501.8 910" />
        <path d="M 518.4 920 L 518.4 910" />
        <path d="M 535 920 L 535 910" />
        <path d="M 551.6 920 L 551.6 910" />
        <path d="M 568.2 920 L 568.2 910" />
        <path d="M 584.8 920 L 584.8 910" />
        <path d="M 601.4 920 L 601.4 910" />
        <path d="M 618 920 L 618 900" />
        <text font-size="30" transform="translate(618, 950)" text-anchor="middle" dominant-baseline="middle" stroke="none" fill="black">30</text>
        <path d="M 634.6 920 L 634.6 910" />
        <path d="M 651.2 920 L 651.2 910" />
        <path d="M 667.8 920 L 667.8 910" />
        <path d="M 684.4 920 L 684.4 910" />
        <path d="M 701 920 L 701 910" />
        <path d="M 717.6 920 L 717.6 910" />
        <path d="M 734.2 920 L 734.2 910" />
        <path d="M 750.8 920 L 750.8 910" />
        <path d="M 767.4 920 L 767.4 910" />
        <path d="M 784 920 L 784 900" />
        <text font-size="30" transform="translate(784, 950)" text-anchor="middle" dominant-baseline="middle" stroke="none" fill="black">40</text>
        <path d="M 800.6 920 L 800.6 910" />
        <path d="M 817.2 920 L 817.2 910" />
        <path d="M 833.8 920 L 833.8 910" />
        <path d="M 850.4 920 L 850.4 910" />
        <path d="M 867 920 L 867 910" />
        <path d="M 883.6 920 L 883.6 910" />
        <path d="M 900.2 920 L 900.2 910" />
        <path d="M 916.8 920 L 916.8 910" />
        <path d="M 933.4 920 L 933.4 910" />
        <path d="M 950 920 L 950 900" />
        <text font-size="30" transform="translate(950, 950)" text-anchor="middle" dominant-baseline="middle" stroke="none" fill="black">50</text>
    </g>
    <g id="frame_0_leftticks">
        <path d="M 120 214.225 L 130 214.225" />
        <path d="M 120 920 L 140 920" />
        <text font-size="30" transform="translate(110, 930)" text-anchor="end" dominant-baseline="middle" stroke="none" fill="black">0</text>
        <path d="M 120 721.501 L 130 721.501" />
        <path d="M 120 523.002 L 130 523.002" />
        <path d="M 120 148.059 L 140 148.059" />
        <text font-size="30" transform="translate(110, 158.059)" text-anchor="end" dominant-baseline="middle" stroke="none" fill="black">3500</text>
        <path d="M 120 324.502 L 130 324.502" />
        <path d="M 120 831.778 L 130 831.778" />
        <path d="M 120 81.8922 L 130 81.8922" />
        <path d="M 120 633.279 L 130 633.279" />
        <path d="M 120 434.78 L 130 434.78" />
        <path d="M 120 236.28 L 130 236.28" />
        <path d="M 120 743.556 L 130 743.556" />
        <path d="M 120 545.057 L 130 545.057" />
        <path d="M 120 346.558 L 130 346.558" />
        <path d="M 120 853.834 L 130 853.834" />
        <path d="M 120 655.334 L 130 655.334" />
        <path d="M 120 170.114 L 130 170.114" />
        <path d="M 120 456.835 L 130 456.835" />
        <path d="M 120 258.336 L 140 258.336" />
        <text font-size="30" transform="translate(110, 268.336)" text-anchor="end" dominant-baseline="middle" stroke="none" fill="black">3000</text>
        <path d="M 120 809.723 L 140 809.723" />
        <text font-size="30" transform="translate(110, 819.723)" text-anchor="end" dominant-baseline="middle" stroke="none" fill="black">500</text>
        <path d="M 120 765.612 L 130 765.612" />
        <path d="M 120 567.113 L 130 567.113" />
        <path d="M 120 368.613 L 140 368.613" />
        <text font-size="30" transform="translate(110, 378.613)" text-anchor="end" dominant-baseline="middle" stroke="none" fill="black">2500</text>
        <path d="M 120 875.889 L 130 875.889" />
        <path d="M 120 677.39 L 130 677.39" />
        <path d="M 120 478.891 L 140 478.891" />
        <text font-size="30" transform="translate(110, 488.891)" text-anchor="end" dominant-baseline="middle" stroke="none" fill="black">2000</text>
        <path d="M 120 280.391 L 130 280.391" />
        <path d="M 120 787.667 L 130 787.667" />
        <path d="M 120 192.17 L 130 192.17" />
        <path d="M 120 589.168 L 140 589.168" />
        <text font-size="30" transform="translate(110, 599.168)" text-anchor="end" dominant-baseline="middle" stroke="none" fill="black">1500</text>
        <path d="M 120 390.669 L 130 390.669" />
        <path d="M 120 126.003 L 130 126.003" />
        <path d="M 120 897.945 L 130 897.945" />
        <path d="M 120 699.445 L 140 699.445" />
        <text font-size="30" transform="translate(110, 709.445)" text-anchor="end" dominant-baseline="middle" stroke="none" fill="black">1000</text>
        <path d="M 120 59.8367 L 130 59.8367" />
        <path d="M 120 500.946 L 130 500.946" />
        <path d="M 120 302.447 L 130 302.447" />
        <path d="M 120 103.948 L 130 103.948" />
        <path d="M 120 611.223 L 130 611.223" />
        <path d="M 120 412.724 L 130 412.724" />
    </g>
    <text id="frame_0_toplabel" font-size="30" transform="translate(535, 32.6)" text-anchor="middle" dominant-baseline="middle" stroke="none" fill="black">re.indexall</text>
    <g id="frame_0_topticks">
        <path d="M 120 50 L 120 70" />
        <path d="M 136.6 50 L 136.6 60" />
        <path d="M 153.2 50 L 153.2 60" />
        <path d="M 169.8 50 L 169.8 60" />
        <path d="M 186.4 50 L 186.4 60" />
        <path d="M 203 50 L 203 60" />
        <path d="M 219.6 50 L 219.6 60" />
        <path d="M 236.2 50 L 236.2 60" />
        <path d="M 252.8 50 L 252.8 60" />
        <path d="M 269.4 50 L 269.4 60" />
        <path d="M 286 50 L 286 70" />
        <path d="M 302.6 50 L 302.6 60" />
        <path d="M 319.2 50 L 319.2 60" />
        <path d="M 335.8 50 L 335.8 60" />
        <path d="M 352.4 50 L 352.4 60" />
        <path d="M 369 50 L 369 60" />
        <path d="M 385.6 50 L 385.6 60" />
        <path d="M 402.2 50 L 402.2 60" />
        <path d="M 418.8 50 L 418.8 60" />
        <path d="M 435.4 50 L 435.4 60" />
        <path d="M 452 50 L 452 70" />
        <path d="M 468.6 50 L 468.6 60" />
        <path d="M 485.2 50 L 485.2 60" />
        <path d="M 501.8 50 L 501.8 60" />
        <path d="M 518.4 50 L 518.4 60" />
        <path d="M 535 50 L 535 60" />
        <path d="M 551.6 50 L 551.6 60" />
        <path d="M 568.2 50 L 568.2 60" />
        <path d="M 584.8 50 L 584.8 60" />
        <path d="M 601.4 50 L 601.4 60" />
        <path d="M 618 50 L 618 70" />
        <path d="M 634.6 50 L 634.6 60" />
        <path d="M 651.2 50 L 651.2 60" />
        <path d="M 667.8 50 L 667.8 60" />
        <path d="M 684.4 50 L 684.4 60" />
        <path d="M 701 50 L 701 60" />
        <path d="M 717.6 50 L 717.6 60" />
        <path d="M 734.2 50 L 734.2 60" />
        <path d="M 750.8 50 L 750.8 60" />
        <path d="M 767.4 50 L 767.4 60" />
        <path d="M 784 50 L 784 70" />
        <path d="M 800.6 50 L 800.6 60" />
        <path d="M 817.2 50 L 817.2 60" />
        <path d="M 833.8 50 L 833.8 60" />
        <path d="M 850.4 50 L 850.4 60" />
        <path d="M 867 50 L 867 60" />
        <path d="M 883.6 50 L 883.6 60" />
        <path d="M 900.2 50 L 900.2 60" />
        <path d="M 916.8 50 L 916.8 60" />
        <path d="M 933.4 50 L 933.4 60" />
        <path d="M 950 50 L 950 70" />
    </g>
    <g id="frame_0_rightticks">
        <path d="M 950 214.225 L 940 214.225" />
        <path d="M 950 920 L 930 920" />
        <path d="M 950 721.501 L 940 721.501" />
        <path d="M 950 523.002 L 940 523.002" />
        <path d="M 950 148.059 L 930 148.059" />
        <path d="M 950 324.502 L 940 324.502" />
        <path d="M 950 831.778 L 940 831.778" />
        <path d="M 950 81.8922 L 940 81.8922" />
        <path d="M 950 633.279 L 940 633.279" />
        <path d="M 950 434.78 L 940 434.78" />
        <path d="M 950 236.28 L 940 236.28" />
        <path d="M 950 743.556 L 940 743.556" />
        <path d="M 950 545.057 L 940 545.057" />
        <path d="M 950 346.558 L 940 346.558" />
        <path d="M 950 853.834 L 940 853.834" />
        <path d="M 950 655.334 L 940 655.334" />
        <path d="M 950 170.114 L 940 170.114" />
        <path d="M 950 456.835 L 940 456.835" />
        <path d="M 950 258.336 L 930 258.336" />
        <path d="M 950 809.723 L 930 809.723" />
        <path d="M 950 765.612 L 940 765.612" />
        <path d="M 950 567.113 L 940 567.113" />
        <path d="M 950 368.613 L 930 368.613" />
        <path d="M 950 875.889 L 940 875.889" />
        <path d="M 950 677.39 L 940 677.39" />
        <path d="M 950 478.891 L 930 478.891" />
        <path d="M 950 280.391 L 940 280.391" />
        <path d="M 950 787.667 L 940 787.667" />
        <path d="M 950 192.17 L 940 192.17" />
        <path d="M 950 589.168 L 930 589.168" />
        <path d="M 950 390.669 L 940 390.669" />
        <path d="M 950 126.003 L 940 126.003" />
        <path d="M 950 897.945 L 940 897.945" />
        <path d="M 950 699.445 L 930 699.445" />
        <path d="M 950 59.8367 L 940 59.8367" />
        <path d="M 950 500.946 L 940 500.946" />
        <path d="M 950 302.447 L 940 302.447" />
        <path d="M 950 103.948 L 940 103.948" />
        <path d="M 950 611.223 L 940 611.223" />
        <path d="M 950 412.724 L 940 412.724" />
    </g>
</g>
</g>
</svg>
