<?xml version="1.0" standalone="no"?>
<!DOCTYPE svg PUBLIC "-//W3C//DTD SVG 1.1//EN" "http://www.w3.org/Graphics/SVG/1.1/DTD/svg11.dtd">
<svg style="stroke-linejoin:miter; stroke:black; stroke-width:2.5; text-anchor:middle; fill:none" xmlns="http://www.w3.org/2000/svg" font-family="Helvetica, Arial, FreeSans, Sans, sans, sans-serif" width="1000px" height="1000px" version="1.1" xmlns:xlink="http://www.w3.org/1999/xlink" viewBox="0 0 1000 1000">
<defs>
    <clipPath id="Histogram_0_clip">
        <rect x="120" y="50" width="830" height="870" />
    </clipPath>
    <clipPath id="Histogram_1_clip">
        <rect x="120" y="50" width="830" height="870" />
    </clipPath>
</defs>
<g id="whole_document">
<rect id="background" x="0" y="0" width="1000" height="1000" stroke="none" fill="white" />
<g id="Histogram_0" clip-path="url(#Histogram_0_clip)">
    <path d="M 120 920 L 120 920 L 161.5 920 L 161.5 920 L 203 920 L 203 920 L 244.5 920 L 244.5 129.091 L 286 129.091 L 286 915.446 L 327.5 915.446 L 327.5 919.506 L 369 919.506 L 369 916.197 L 410.5 916.197 L 410.5 806.13 L 452 806.13 L 452 882.763 L 493.5 882.763 L 493.5 919.244 L 535 919.244 L 535 919.81 L 576.5 919.81 L 576.5 920 L 618 920 L 618 920 L 659.5 920 L 659.5 920 L 701 920 L 701 920 L 742.5 920 L 742.5 920 L 784 920 L 784 920 L 825.5 920 L 825.5 920 L 867 920 L 867 920 L 908.5 920 L 908.5 920 L 950 920 L 950 920" stroke-width="3" stroke-dasharray="" stroke="black" stroke-opacity="1" fill="DodgerBlue" fill-opacity="1" />
</g>
<g id="Histogram_1" clip-path="url(#Histogram_1_clip)">
    <path d="M 120 920 L 120 920 L 161.5 920 L 161.5 920 L 203 920 L 203 920 L 244.5 920 L 244.5 129.091 L 286 129.091 L 286 915.446 L 327.5 915.446 L 327.5 919.506 L 369 919.506 L 369 916.197 L 410.5 916.197 L 410.5 919.406 L 452 919.406 L 452 919.664 L 493.5 919.664 L 493.5 920 L 535 920 L 535 920 L 576.5 920 L 576.5 920 L 618 920 L 618 920 L 659.5 920 L 659.5 920 L 701 920 L 701 920 L 742.5 920 L 742.5 920 L 784 920 L 784 920 L 825.5 920 L 825.5 920 L 867 920 L 867 920 L 908.5 920 L 908.5 920 L 950 920 L 950 920" stroke-width="3" stroke-dasharray="" stroke="black" stroke-opacity="1" fill="darkorange" fill-opacity="1" />
</g>
<g id="frame_0">
    <rect id="frame_0_border" x="120" y="50" width="830" height="870" />
    <text id="frame_0_bottomlabel" font-size="30" transform="translate(535, 989.6)" text-anchor="middle" dominant-baseline="middle" stroke="none" fill="black">microseconds</text>
    <g id="frame_0_bottomticks">
        <path d="M 120 920 L 120 900" />
        <text font-size="30" transform="translate(120, 950)" text-anchor="middle" dominant-baseline="middle" stroke="none" fill="black">0</text>
        <path d="M 136.6 920 L 136.6 910" />
        <path d="M 153.2 920 L 153.2 910" />
        <path d="M 169.8 920 L 169.8 910" />
        <path d="M 186.4 920 L 186.4 910" />
        <path d="M 203 920 L 203 910" />
        <path d="M 219.6 920 L 219.6 910" />
        <path d="M 236.2 920 L 236.2 910" />
        <path d="M 252.8 920 L 252.8 910" />
        <path d="M 269.4 920 L 269.4 910" />
        <path d="M 286 920 L 286 900" />
        <text font-size="30" transform="translate(286, 950)" text-anchor="middle" dominant-baseline="middle" stroke="none" fill="black">10</text>
        <path d="M 302.6 920 L 302.6 910" />
        <path d="M 319.2 920 L 319.2 910" />
        <path d="M 335.8 920 L 335.8 910" />
        <path d="M 352.4 920 L 352.4 910" />
        <path d="M 369 920 L 369 910" />
        <path d="M 385.6 920 L 385.6 910" />
        <path d="M 402.2 920 L 402.2 910" />
        <path d="M 418.8 920 L 418.8 910" />
        <path d="M 435.4 920 L 435.4 910" />
        <path d="M 452 920 L 452 900" />
        <text font-size="30" transform="translate(452, 950)" text-anchor="middle" dominant-baseline="middle" stroke="none" fill="black">20</text>
        <path d="M 468.6 920 L 468.6 910" />
        <path d="M 485.2 920 L 485.2 910" />
        <path d="M 501.8 920 L 501.8 910" />
        <path d="M 518.4 920 L 518.4 910" />
        <path d="M 535 920 L 535 910" />
        <path d="M 551.6 920 L 551.6 910" />
        <path d="M 568.2 920 L 568.2 910" />
        <path d="M 584.8 920 L 584.8 910" />
        <path d="M 601.4 920 L 601.4 910" />
        <path d="M 618 920 L 618 900" />
        <text font-size="30" transform="translate(618, 950)" text-anchor="middle" dominant-baseline="middle" stroke="none" fill="black">30</text>
        <path d="M 634.6 920 L 634.6 910" />
        <path d="M 651.2 920 L 651.2 910" />
        <path d="M 667.8 920 L 667.8 910" />
        <path d="M 684.4 920 L 684.4 910" />
        <path d="M 701 920 L 701 910" />
        <path d="M 717.6 920 L 717.6 910" />
        <path d="M 734.2 920 L 734.2 910" />
        <path d="M 750.8 920 L 750.8 910" />
        <path d="M 767.4 920 L 767.4 910" />
        <path d="M 784 920 L 784 900" />
        <text font-size="30" transform="translate(784, 950)" text-anchor="middle" dominant-baseline="middle" stroke="none" fill="black">40</text>
        <path d="M 800.6 920 L 800.6 910" />
        <path d="M 817.2 920 L 817.2 910" />
        <path d="M 833.8 920 L 833.8 910" />
        <path d="M 850.4 920 L 850.4 910" />
        <path d="M 867 920 L 867 910" />
        <path d="M 883.6 920 L 883.6 910" />
        <path d="M 900.2 920 L 900.2 910" />
        <path d="M 916.8 920 L 916.8 910" />
        <path d="M 933.4 920 L 933.4 910" />
        <path d="M 950 920 L 950 900" />
        <text font-size="30" transform="translate(950, 950)" text-anchor="middle" dominant-baseline="middle" stroke="none" fill="black">50</text>
    </g>
    <g id="frame_0_leftticks">
        <path d="M 120 762.976 L 130 762.976" />
        <path d="M 120 56.3682 L 130 56.3682" />
        <path d="M 120 920 L 140 920" />
        <text font-size="30" transform="translate(110, 930)" text-anchor="end" dominant-baseline="middle" stroke="none" fill="black">0</text>
        <path d="M 120 910.186 L 130 910.186" />
        <path d="M 120 605.952 L 130 605.952" />
        <path d="M 120 193.764 L 130 193.764" />
        <path d="M 120 115.252 L 130 115.252" />
        <path d="M 120 812.046 L 130 812.046" />
        <path d="M 120 497.998 L 130 497.998" />
        <path d="M 120 291.904 L 130 291.904" />
        <path d="M 120 85.8102 L 130 85.8102" />
        <path d="M 120 596.138 L 130 596.138" />
        <path d="M 120 890.558 L 130 890.558" />
        <path d="M 120 183.95 L 130 183.95" />
        <path d="M 120 900.372 L 130 900.372" />
        <path d="M 120 694.278 L 130 694.278" />
        <path d="M 120 556.882 L 130 556.882" />
        <path d="M 120 488.184 L 130 488.184" />
        <path d="M 120 282.09 L 130 282.09" />
        <path d="M 120 95.6242 L 130 95.6242" />
        <path d="M 120 390.044 L 130 390.044" />
        <path d="M 120 537.254 L 130 537.254" />
        <path d="M 120 792.418 L 130 792.418" />
        <path d="M 120 586.324 L 130 586.324" />
        <path d="M 120 380.23 L 130 380.23" />
        <path d="M 120 174.136 L 130 174.136" />
        <path d="M 120 713.906 L 130 713.906" />
        <path d="M 120 684.464 L 130 684.464" />
        <path d="M 120 478.37 L 130 478.37" />
        <path d="M 120 272.276 L 130 272.276" />
        <path d="M 120 782.604 L 130 782.604" />
        <path d="M 120 576.51 L 130 576.51" />
        <path d="M 120 547.068 L 130 547.068" />
        <path d="M 120 831.674 L 130 831.674" />
        <path d="M 120 370.416 L 130 370.416" />
        <path d="M 120 164.322 L 130 164.322" />
        <path d="M 120 880.744 L 130 880.744" />
        <path d="M 120 674.65 L 130 674.65" />
        <path d="M 120 468.556 L 130 468.556" />
        <path d="M 120 262.462 L 130 262.462" />
        <path d="M 120 66.1822 L 130 66.1822" />
        <path d="M 120 723.72 L 140 723.72" />
        <text font-size="30" transform="translate(110, 733.72)" text-anchor="end" dominant-baseline="middle" stroke="none" fill="black">200000</text>
        <path d="M 120 772.79 L 130 772.79" />
        <path d="M 120 566.696 L 130 566.696" />
        <path d="M 120 360.602 L 130 360.602" />
        <path d="M 120 704.092 L 130 704.092" />
        <path d="M 120 841.488 L 130 841.488" />
        <path d="M 120 645.208 L 130 645.208" />
        <path d="M 120 252.648 L 130 252.648" />
        <path d="M 120 75.9962 L 130 75.9962" />
        <path d="M 120 203.578 L 130 203.578" />
        <path d="M 120 350.788 L 130 350.788" />
        <path d="M 120 144.694 L 130 144.694" />
        <path d="M 120 861.116 L 130 861.116" />
        <path d="M 120 448.928 L 130 448.928" />
        <path d="M 120 664.836 L 130 664.836" />
        <path d="M 120 301.718 L 130 301.718" />
        <path d="M 120 753.162 L 130 753.162" />
        <path d="M 120 340.974 L 130 340.974" />
        <path d="M 120 134.88 L 140 134.88" />
        <text font-size="30" transform="translate(110, 144.88)" text-anchor="end" dominant-baseline="middle" stroke="none" fill="black">800000</text>
        <path d="M 120 655.022 L 130 655.022" />
        <path d="M 120 870.93 L 130 870.93" />
        <path d="M 120 439.114 L 130 439.114" />
        <path d="M 120 233.02 L 140 233.02" />
        <text font-size="30" transform="translate(110, 243.02)" text-anchor="end" dominant-baseline="middle" stroke="none" fill="black">700000</text>
        <path d="M 120 851.302 L 130 851.302" />
        <path d="M 120 743.348 L 130 743.348" />
        <path d="M 120 802.232 L 130 802.232" />
        <path d="M 120 507.812 L 130 507.812" />
        <path d="M 120 242.834 L 130 242.834" />
        <path d="M 120 331.16 L 140 331.16" />
        <text font-size="30" transform="translate(110, 341.16)" text-anchor="end" dominant-baseline="middle" stroke="none" fill="black">600000</text>
        <path d="M 120 125.066 L 130 125.066" />
        <path d="M 120 429.3 L 140 429.3" />
        <text font-size="30" transform="translate(110, 439.3)" text-anchor="end" dominant-baseline="middle" stroke="none" fill="black">500000</text>
        <path d="M 120 635.394 L 130 635.394" />
        <path d="M 120 223.206 L 130 223.206" />
        <path d="M 120 733.534 L 130 733.534" />
        <path d="M 120 527.44 L 140 527.44" />
        <text font-size="30" transform="translate(110, 537.44)" text-anchor="end" dominant-baseline="middle" stroke="none" fill="black">400000</text>
        <path d="M 120 321.346 L 130 321.346" />
        <path d="M 120 154.508 L 130 154.508" />
        <path d="M 120 399.858 L 130 399.858" />
        <path d="M 120 625.58 L 140 625.58" />
        <text font-size="30" transform="translate(110, 635.58)" text-anchor="end" dominant-baseline="middle" stroke="none" fill="black">300000</text>
        <path d="M 120 419.486 L 130 419.486" />
        <path d="M 120 213.392 L 130 213.392" />
        <path d="M 120 458.742 L 130 458.742" />
        <path d="M 120 517.626 L 130 517.626" />
        <path d="M 120 311.532 L 130 311.532" />
        <path d="M 120 105.438 L 130 105.438" />
        <path d="M 120 821.86 L 140 821.86" />
        <text font-size="30" transform="translate(110, 831.86)" text-anchor="end" dominant-baseline="middle" stroke="none" fill="black">100000</text>
        <path d="M 120 409.672 L 130 409.672" />
        <path d="M 120 615.766 L 130 615.766" />
    </g>
    <text id="frame_0_toplabel" font-size="30" transform="translate(535, 32.6)" text-anchor="middle" dominant-baseline="middle" stroke="none" fill="black">prob.dist.lognormalCDF</text>
    <g id="frame_0_topticks">
        <path d="M 120 50 L 120 70" />
        <path d="M 136.6 50 L 136.6 60" />
        <path d="M 153.2 50 L 153.2 60" />
        <path d="M 169.8 50 L 169.8 60" />
        <path d="M 186.4 50 L 186.4 60" />
        <path d="M 203 50 L 203 60" />
        <path d="M 219.6 50 L 219.6 60" />
        <path d="M 236.2 50 L 236.2 60" />
        <path d="M 252.8 50 L 252.8 60" />
        <path d="M 269.4 50 L 269.4 60" />
        <path d="M 286 50 L 286 70" />
        <path d="M 302.6 50 L 302.6 60" />
        <path d="M 319.2 50 L 319.2 60" />
        <path d="M 335.8 50 L 335.8 60" />
        <path d="M 352.4 50 L 352.4 60" />
        <path d="M 369 50 L 369 60" />
        <path d="M 385.6 50 L 385.6 60" />
        <path d="M 402.2 50 L 402.2 60" />
        <path d="M 418.8 50 L 418.8 60" />
        <path d="M 435.4 50 L 435.4 60" />
        <path d="M 452 50 L 452 70" />
        <path d="M 468.6 50 L 468.6 60" />
        <path d="M 485.2 50 L 485.2 60" />
        <path d="M 501.8 50 L 501.8 60" />
        <path d="M 518.4 50 L 518.4 60" />
        <path d="M 535 50 L 535 60" />
        <path d="M 551.6 50 L 551.6 60" />
        <path d="M 568.2 50 L 568.2 60" />
        <path d="M 584.8 50 L 584.8 60" />
        <path d="M 601.4 50 L 601.4 60" />
        <path d="M 618 50 L 618 70" />
        <path d="M 634.6 50 L 634.6 60" />
        <path d="M 651.2 50 L 651.2 60" />
        <path d="M 667.8 50 L 667.8 60" />
        <path d="M 684.4 50 L 684.4 60" />
        <path d="M 701 50 L 701 60" />
        <path d="M 717.6 50 L 717.6 60" />
        <path d="M 734.2 50 L 734.2 60" />
        <path d="M 750.8 50 L 750.8 60" />
        <path d="M 767.4 50 L 767.4 60" />
        <path d="M 784 50 L 784 70" />
        <path d="M 800.6 50 L 800.6 60" />
        <path d="M 817.2 50 L 817.2 60" />
        <path d="M 833.8 50 L 833.8 60" />
        <path d="M 850.4 50 L 850.4 60" />
        <path d="M 867 50 L 867 60" />
        <path d="M 883.6 50 L 883.6 60" />
        <path d="M 900.2 50 L 900.2 60" />
        <path d="M 916.8 50 L 916.8 60" />
        <path d="M 933.4 50 L 933.4 60" />
        <path d="M 950 50 L 950 70" />
    </g>
    <g id="frame_0_rightticks">
        <path d="M 950 762.976 L 940 762.976" />
        <path d="M 950 56.3682 L 940 56.3682" />
        <path d="M 950 920 L 930 920" />
        <path d="M 950 910.186 L 940 910.186" />
        <path d="M 950 605.952 L 940 605.952" />
        <path d="M 950 193.764 L 940 193.764" />
        <path d="M 950 115.252 L 940 115.252" />
        <path d="M 950 812.046 L 940 812.046" />
        <path d="M 950 497.998 L 940 497.998" />
        <path d="M 950 291.904 L 940 291.904" />
        <path d="M 950 85.8102 L 940 85.8102" />
        <path d="M 950 596.138 L 940 596.138" />
        <path d="M 950 890.558 L 940 890.558" />
        <path d="M 950 183.95 L 940 183.95" />
        <path d="M 950 900.372 L 940 900.372" />
        <path d="M 950 694.278 L 940 694.278" />
        <path d="M 950 556.882 L 940 556.882" />
        <path d="M 950 488.184 L 940 488.184" />
        <path d="M 950 282.09 L 940 282.09" />
        <path d="M 950 95.6242 L 940 95.6242" />
        <path d="M 950 390.044 L 940 390.044" />
        <path d="M 950 537.254 L 940 537.254" />
        <path d="M 950 792.418 L 940 792.418" />
        <path d="M 950 586.324 L 940 586.324" />
        <path d="M 950 380.23 L 940 380.23" />
        <path d="M 950 174.136 L 940 174.136" />
        <path d="M 950 713.906 L 940 713.906" />
        <path d="M 950 684.464 L 940 684.464" />
        <path d="M 950 478.37 L 940 478.37" />
        <path d="M 950 272.276 L 940 272.276" />
        <path d="M 950 782.604 L 940 782.604" />
        <path d="M 950 576.51 L 940 576.51" />
        <path d="M 950 547.068 L 940 547.068" />
        <path d="M 950 831.674 L 940 831.674" />
        <path d="M 950 370.416 L 940 370.416" />
        <path d="M 950 164.322 L 940 164.322" />
        <path d="M 950 880.744 L 940 880.744" />
        <path d="M 950 674.65 L 940 674.65" />
        <path d="M 950 468.556 L 940 468.556" />
        <path d="M 950 262.462 L 940 262.462" />
        <path d="M 950 66.1822 L 940 66.1822" />
        <path d="M 950 723.72 L 930 723.72" />
        <path d="M 950 772.79 L 940 772.79" />
        <path d="M 950 566.696 L 940 566.696" />
        <path d="M 950 360.602 L 940 360.602" />
        <path d="M 950 704.092 L 940 704.092" />
        <path d="M 950 841.488 L 940 841.488" />
        <path d="M 950 645.208 L 940 645.208" />
        <path d="M 950 252.648 L 940 252.648" />
        <path d="M 950 75.9962 L 940 75.9962" />
        <path d="M 950 203.578 L 940 203.578" />
        <path d="M 950 350.788 L 940 350.788" />
        <path d="M 950 144.694 L 940 144.694" />
        <path d="M 950 861.116 L 940 861.116" />
        <path d="M 950 448.928 L 940 448.928" />
        <path d="M 950 664.836 L 940 664.836" />
        <path d="M 950 301.718 L 940 301.718" />
        <path d="M 950 753.162 L 940 753.162" />
        <path d="M 950 340.974 L 940 340.974" />
        <path d="M 950 134.88 L 930 134.88" />
        <path d="M 950 655.022 L 940 655.022" />
        <path d="M 950 870.93 L 940 870.93" />
        <path d="M 950 439.114 L 940 439.114" />
        <path d="M 950 233.02 L 930 233.02" />
        <path d="M 950 851.302 L 940 851.302" />
        <path d="M 950 743.348 L 940 743.348" />
        <path d="M 950 802.232 L 940 802.232" />
        <path d="M 950 507.812 L 940 507.812" />
        <path d="M 950 242.834 L 940 242.834" />
        <path d="M 950 331.16 L 930 331.16" />
        <path d="M 950 125.066 L 940 125.066" />
        <path d="M 950 429.3 L 930 429.3" />
        <path d="M 950 635.394 L 940 635.394" />
        <path d="M 950 223.206 L 940 223.206" />
        <path d="M 950 733.534 L 940 733.534" />
        <path d="M 950 527.44 L 930 527.44" />
        <path d="M 950 321.346 L 940 321.346" />
        <path d="M 950 154.508 L 940 154.508" />
        <path d="M 950 399.858 L 940 399.858" />
        <path d="M 950 625.58 L 930 625.58" />
        <path d="M 950 419.486 L 940 419.486" />
        <path d="M 950 213.392 L 940 213.392" />
        <path d="M 950 458.742 L 940 458.742" />
        <path d="M 950 517.626 L 940 517.626" />
        <path d="M 950 311.532 L 940 311.532" />
        <path d="M 950 105.438 L 940 105.438" />
        <path d="M 950 821.86 L 930 821.86" />
        <path d="M 950 409.672 L 940 409.672" />
        <path d="M 950 615.766 L 940 615.766" />
    </g>
</g>
</g>
</svg>
