<?xml version="1.0" standalone="no"?>
<!DOCTYPE svg PUBLIC "-//W3C//DTD SVG 1.1//EN" "http://www.w3.org/Graphics/SVG/1.1/DTD/svg11.dtd">
<svg style="stroke-linejoin:miter; stroke:black; stroke-width:2.5; text-anchor:middle; fill:none" xmlns="http://www.w3.org/2000/svg" font-family="Helvetica, Arial, FreeSans, Sans, sans, sans-serif" width="1000px" height="1000px" version="1.1" xmlns:xlink="http://www.w3.org/1999/xlink" viewBox="0 0 1000 1000">
<defs>
    <clipPath id="Histogram_0_clip">
        <rect x="120" y="50" width="830" height="870" />
    </clipPath>
    <clipPath id="Histogram_1_clip">
        <rect x="120" y="50" width="830" height="870" />
    </clipPath>
</defs>
<g id="whole_document">
<rect id="background" x="0" y="0" width="1000" height="1000" stroke="none" fill="white" />
<g id="Histogram_0" clip-path="url(#Histogram_0_clip)">
    <path d="M 120 920 L 120 920 L 161.5 920 L 161.5 890.154 L 203 890.154 L 203 919.809 L 244.5 919.809 L 244.5 129.091 L 286 129.091 L 286 917.166 L 327.5 917.166 L 327.5 918.668 L 369 918.668 L 369 906.482 L 410.5 906.482 L 410.5 910.339 L 452 910.339 L 452 916.667 L 493.5 916.667 L 493.5 918.201 L 535 918.201 L 535 919.934 L 576.5 919.934 L 576.5 919.909 L 618 919.909 L 618 919.897 L 659.5 919.897 L 659.5 919.957 L 701 919.957 L 701 919.976 L 742.5 919.976 L 742.5 919.97 L 784 919.97 L 784 919.971 L 825.5 919.971 L 825.5 919.953 L 867 919.953 L 867 919.981 L 908.5 919.981 L 908.5 919.964 L 950 919.964 L 950 920" stroke-width="3" stroke-dasharray="" stroke="black" stroke-opacity="1" fill="DodgerBlue" fill-opacity="1" />
</g>
<g id="Histogram_1" clip-path="url(#Histogram_1_clip)">
    <path d="M 120 920 L 120 920 L 161.5 920 L 161.5 920 L 203 920 L 203 920 L 244.5 920 L 244.5 129.122 L 286 129.122 L 286 917.189 L 327.5 917.189 L 327.5 918.879 L 369 918.879 L 369 916.294 L 410.5 916.294 L 410.5 919.301 L 452 919.301 L 452 919.933 L 493.5 919.933 L 493.5 919.915 L 535 919.915 L 535 919.989 L 576.5 919.989 L 576.5 920 L 618 920 L 618 920 L 659.5 920 L 659.5 920 L 701 920 L 701 920 L 742.5 920 L 742.5 920 L 784 920 L 784 920 L 825.5 920 L 825.5 920 L 867 920 L 867 920 L 908.5 920 L 908.5 920 L 950 920 L 950 920" stroke-width="3" stroke-dasharray="" stroke="black" stroke-opacity="1" fill="darkorange" fill-opacity="1" />
</g>
<g id="frame_0">
    <rect id="frame_0_border" x="120" y="50" width="830" height="870" />
    <text id="frame_0_bottomlabel" font-size="30" transform="translate(535, 989.6)" text-anchor="middle" dominant-baseline="middle" stroke="none" fill="black">microseconds</text>
    <g id="frame_0_bottomticks">
        <path d="M 120 920 L 120 900" />
        <text font-size="30" transform="translate(120, 950)" text-anchor="middle" dominant-baseline="middle" stroke="none" fill="black">0</text>
        <path d="M 136.6 920 L 136.6 910" />
        <path d="M 153.2 920 L 153.2 910" />
        <path d="M 169.8 920 L 169.8 910" />
        <path d="M 186.4 920 L 186.4 910" />
        <path d="M 203 920 L 203 910" />
        <path d="M 219.6 920 L 219.6 910" />
        <path d="M 236.2 920 L 236.2 910" />
        <path d="M 252.8 920 L 252.8 910" />
        <path d="M 269.4 920 L 269.4 910" />
        <path d="M 286 920 L 286 900" />
        <text font-size="30" transform="translate(286, 950)" text-anchor="middle" dominant-baseline="middle" stroke="none" fill="black">10</text>
        <path d="M 302.6 920 L 302.6 910" />
        <path d="M 319.2 920 L 319.2 910" />
        <path d="M 335.8 920 L 335.8 910" />
        <path d="M 352.4 920 L 352.4 910" />
        <path d="M 369 920 L 369 910" />
        <path d="M 385.6 920 L 385.6 910" />
        <path d="M 402.2 920 L 402.2 910" />
        <path d="M 418.8 920 L 418.8 910" />
        <path d="M 435.4 920 L 435.4 910" />
        <path d="M 452 920 L 452 900" />
        <text font-size="30" transform="translate(452, 950)" text-anchor="middle" dominant-baseline="middle" stroke="none" fill="black">20</text>
        <path d="M 468.6 920 L 468.6 910" />
        <path d="M 485.2 920 L 485.2 910" />
        <path d="M 501.8 920 L 501.8 910" />
        <path d="M 518.4 920 L 518.4 910" />
        <path d="M 535 920 L 535 910" />
        <path d="M 551.6 920 L 551.6 910" />
        <path d="M 568.2 920 L 568.2 910" />
        <path d="M 584.8 920 L 584.8 910" />
        <path d="M 601.4 920 L 601.4 910" />
        <path d="M 618 920 L 618 900" />
        <text font-size="30" transform="translate(618, 950)" text-anchor="middle" dominant-baseline="middle" stroke="none" fill="black">30</text>
        <path d="M 634.6 920 L 634.6 910" />
        <path d="M 651.2 920 L 651.2 910" />
        <path d="M 667.8 920 L 667.8 910" />
        <path d="M 684.4 920 L 684.4 910" />
        <path d="M 701 920 L 701 910" />
        <path d="M 717.6 920 L 717.6 910" />
        <path d="M 734.2 920 L 734.2 910" />
        <path d="M 750.8 920 L 750.8 910" />
        <path d="M 767.4 920 L 767.4 910" />
        <path d="M 784 920 L 784 900" />
        <text font-size="30" transform="translate(784, 950)" text-anchor="middle" dominant-baseline="middle" stroke="none" fill="black">40</text>
        <path d="M 800.6 920 L 800.6 910" />
        <path d="M 817.2 920 L 817.2 910" />
        <path d="M 833.8 920 L 833.8 910" />
        <path d="M 850.4 920 L 850.4 910" />
        <path d="M 867 920 L 867 910" />
        <path d="M 883.6 920 L 883.6 910" />
        <path d="M 900.2 920 L 900.2 910" />
        <path d="M 916.8 920 L 916.8 910" />
        <path d="M 933.4 920 L 933.4 910" />
        <path d="M 950 920 L 950 900" />
        <text font-size="30" transform="translate(950, 950)" text-anchor="middle" dominant-baseline="middle" stroke="none" fill="black">50</text>
    </g>
    <g id="frame_0_leftticks">
        <path d="M 120 577.265 L 130 577.265" />
        <path d="M 120 748.632 L 130 748.632" />
        <path d="M 120 920 L 140 920" />
        <text font-size="30" transform="translate(110, 930)" text-anchor="end" dominant-baseline="middle" stroke="none" fill="black">0</text>
        <path d="M 120 263.091 L 130 263.091" />
        <path d="M 120 605.826 L 130 605.826" />
        <path d="M 120 291.652 L 130 291.652" />
        <path d="M 120 634.387 L 140 634.387" />
        <text font-size="30" transform="translate(110, 644.387)" text-anchor="end" dominant-baseline="middle" stroke="none" fill="black">10⁶</text>
        <path d="M 120 405.897 L 130 405.897" />
        <path d="M 120 320.214 L 130 320.214" />
        <path d="M 120 891.439 L 130 891.439" />
        <path d="M 120 348.775 L 140 348.775" />
        <text font-size="30" transform="translate(110, 358.775)" text-anchor="end" dominant-baseline="middle" stroke="none" fill="black">2×10⁶</text>
        <path d="M 120 691.51 L 130 691.51" />
        <path d="M 120 377.336 L 130 377.336" />
        <path d="M 120 720.071 L 130 720.071" />
        <path d="M 120 63.1624 L 140 63.1624" />
        <text font-size="30" transform="translate(110, 73.1624)" text-anchor="end" dominant-baseline="middle" stroke="none" fill="black">3×10⁶</text>
        <path d="M 120 862.877 L 130 862.877" />
        <path d="M 120 662.949 L 130 662.949" />
        <path d="M 120 91.7236 L 130 91.7236" />
        <path d="M 120 434.459 L 130 434.459" />
        <path d="M 120 777.194 L 140 777.194" />
        <text font-size="30" transform="translate(110, 787.194)" text-anchor="end" dominant-baseline="middle" stroke="none" fill="black">500000</text>
        <path d="M 120 120.285 L 130 120.285" />
        <path d="M 120 463.02 L 130 463.02" />
        <path d="M 120 805.755 L 130 805.755" />
        <path d="M 120 148.846 L 130 148.846" />
        <path d="M 120 834.316 L 130 834.316" />
        <path d="M 120 491.581 L 140 491.581" />
        <text font-size="30" transform="translate(110, 501.581)" text-anchor="end" dominant-baseline="middle" stroke="none" fill="black">1.5×10⁶</text>
        <path d="M 120 177.407 L 130 177.407" />
        <path d="M 120 520.142 L 130 520.142" />
        <path d="M 120 205.969 L 140 205.969" />
        <text font-size="30" transform="translate(110, 215.969)" text-anchor="end" dominant-baseline="middle" stroke="none" fill="black">2.5×10⁶</text>
        <path d="M 120 548.704 L 130 548.704" />
        <path d="M 120 234.53 L 130 234.53" />
    </g>
    <text id="frame_0_toplabel" font-size="30" transform="translate(535, 32.6)" text-anchor="middle" dominant-baseline="middle" stroke="none" fill="black">stat.sample.updateCovariance</text>
    <g id="frame_0_topticks">
        <path d="M 120 50 L 120 70" />
        <path d="M 136.6 50 L 136.6 60" />
        <path d="M 153.2 50 L 153.2 60" />
        <path d="M 169.8 50 L 169.8 60" />
        <path d="M 186.4 50 L 186.4 60" />
        <path d="M 203 50 L 203 60" />
        <path d="M 219.6 50 L 219.6 60" />
        <path d="M 236.2 50 L 236.2 60" />
        <path d="M 252.8 50 L 252.8 60" />
        <path d="M 269.4 50 L 269.4 60" />
        <path d="M 286 50 L 286 70" />
        <path d="M 302.6 50 L 302.6 60" />
        <path d="M 319.2 50 L 319.2 60" />
        <path d="M 335.8 50 L 335.8 60" />
        <path d="M 352.4 50 L 352.4 60" />
        <path d="M 369 50 L 369 60" />
        <path d="M 385.6 50 L 385.6 60" />
        <path d="M 402.2 50 L 402.2 60" />
        <path d="M 418.8 50 L 418.8 60" />
        <path d="M 435.4 50 L 435.4 60" />
        <path d="M 452 50 L 452 70" />
        <path d="M 468.6 50 L 468.6 60" />
        <path d="M 485.2 50 L 485.2 60" />
        <path d="M 501.8 50 L 501.8 60" />
        <path d="M 518.4 50 L 518.4 60" />
        <path d="M 535 50 L 535 60" />
        <path d="M 551.6 50 L 551.6 60" />
        <path d="M 568.2 50 L 568.2 60" />
        <path d="M 584.8 50 L 584.8 60" />
        <path d="M 601.4 50 L 601.4 60" />
        <path d="M 618 50 L 618 70" />
        <path d="M 634.6 50 L 634.6 60" />
        <path d="M 651.2 50 L 651.2 60" />
        <path d="M 667.8 50 L 667.8 60" />
        <path d="M 684.4 50 L 684.4 60" />
        <path d="M 701 50 L 701 60" />
        <path d="M 717.6 50 L 717.6 60" />
        <path d="M 734.2 50 L 734.2 60" />
        <path d="M 750.8 50 L 750.8 60" />
        <path d="M 767.4 50 L 767.4 60" />
        <path d="M 784 50 L 784 70" />
        <path d="M 800.6 50 L 800.6 60" />
        <path d="M 817.2 50 L 817.2 60" />
        <path d="M 833.8 50 L 833.8 60" />
        <path d="M 850.4 50 L 850.4 60" />
        <path d="M 867 50 L 867 60" />
        <path d="M 883.6 50 L 883.6 60" />
        <path d="M 900.2 50 L 900.2 60" />
        <path d="M 916.8 50 L 916.8 60" />
        <path d="M 933.4 50 L 933.4 60" />
        <path d="M 950 50 L 950 70" />
    </g>
    <g id="frame_0_rightticks">
        <path d="M 950 577.265 L 940 577.265" />
        <path d="M 950 748.632 L 940 748.632" />
        <path d="M 950 920 L 930 920" />
        <path d="M 950 263.091 L 940 263.091" />
        <path d="M 950 605.826 L 940 605.826" />
        <path d="M 950 291.652 L 940 291.652" />
        <path d="M 950 634.387 L 930 634.387" />
        <path d="M 950 405.897 L 940 405.897" />
        <path d="M 950 320.214 L 940 320.214" />
        <path d="M 950 891.439 L 940 891.439" />
        <path d="M 950 348.775 L 930 348.775" />
        <path d="M 950 691.51 L 940 691.51" />
        <path d="M 950 377.336 L 940 377.336" />
        <path d="M 950 720.071 L 940 720.071" />
        <path d="M 950 63.1624 L 930 63.1624" />
        <path d="M 950 862.877 L 940 862.877" />
        <path d="M 950 662.949 L 940 662.949" />
        <path d="M 950 91.7236 L 940 91.7236" />
        <path d="M 950 434.459 L 940 434.459" />
        <path d="M 950 777.194 L 930 777.194" />
        <path d="M 950 120.285 L 940 120.285" />
        <path d="M 950 463.02 L 940 463.02" />
        <path d="M 950 805.755 L 940 805.755" />
        <path d="M 950 148.846 L 940 148.846" />
        <path d="M 950 834.316 L 940 834.316" />
        <path d="M 950 491.581 L 930 491.581" />
        <path d="M 950 177.407 L 940 177.407" />
        <path d="M 950 520.142 L 940 520.142" />
        <path d="M 950 205.969 L 930 205.969" />
        <path d="M 950 548.704 L 940 548.704" />
        <path d="M 950 234.53 L 940 234.53" />
    </g>
</g>
</g>
</svg>
