<?xml version="1.0" standalone="no"?>
<!DOCTYPE svg PUBLIC "-//W3C//DTD SVG 1.1//EN" "http://www.w3.org/Graphics/SVG/1.1/DTD/svg11.dtd">
<svg style="stroke-linejoin:miter; stroke:black; stroke-width:2.5; text-anchor:middle; fill:none" xmlns="http://www.w3.org/2000/svg" font-family="Helvetica, Arial, FreeSans, Sans, sans, sans-serif" width="1000px" height="1000px" version="1.1" xmlns:xlink="http://www.w3.org/1999/xlink" viewBox="0 0 1000 1000">
<defs>
    <clipPath id="Histogram_0_clip">
        <rect x="120" y="50" width="830" height="870" />
    </clipPath>
    <clipPath id="Histogram_1_clip">
        <rect x="120" y="50" width="830" height="870" />
    </clipPath>
</defs>
<g id="whole_document">
<rect id="background" x="0" y="0" width="1000" height="1000" stroke="none" fill="white" />
<g id="Histogram_0" clip-path="url(#Histogram_0_clip)">
    <path d="M 120 920 L 120 320.507 L 161.5 320.507 L 161.5 820.524 L 203 820.524 L 203 920 L 244.5 920 L 244.5 129.091 L 286 129.091 L 286 902.855 L 327.5 902.855 L 327.5 894.001 L 369 894.001 L 369 847.654 L 410.5 847.654 L 410.5 879.305 L 452 879.305 L 452 892.682 L 493.5 892.682 L 493.5 903.232 L 535 903.232 L 535 890.609 L 576.5 890.609 L 576.5 906.812 L 618 906.812 L 618 913.783 L 659.5 913.783 L 659.5 920 L 701 920 L 701 914.725 L 742.5 914.725 L 742.5 920 L 784 920 L 784 920 L 825.5 920 L 825.5 920 L 867 920 L 867 920 L 908.5 920 L 908.5 920 L 950 920 L 950 920" stroke-width="3" stroke-dasharray="" stroke="black" stroke-opacity="1" fill="DodgerBlue" fill-opacity="1" />
</g>
<g id="Histogram_1" clip-path="url(#Histogram_1_clip)">
    <path d="M 120 920 L 120 920 L 161.5 920 L 161.5 920 L 203 920 L 203 920 L 244.5 920 L 244.5 129.091 L 286 129.091 L 286 902.855 L 327.5 902.855 L 327.5 894.001 L 369 894.001 L 369 847.654 L 410.5 847.654 L 410.5 879.305 L 452 879.305 L 452 892.682 L 493.5 892.682 L 493.5 903.232 L 535 903.232 L 535 890.609 L 576.5 890.609 L 576.5 906.812 L 618 906.812 L 618 913.783 L 659.5 913.783 L 659.5 920 L 701 920 L 701 914.725 L 742.5 914.725 L 742.5 920 L 784 920 L 784 920 L 825.5 920 L 825.5 920 L 867 920 L 867 920 L 908.5 920 L 908.5 920 L 950 920 L 950 920" stroke-width="3" stroke-dasharray="" stroke="black" stroke-opacity="1" fill="darkorange" fill-opacity="1" />
</g>
<g id="frame_0">
    <rect id="frame_0_border" x="120" y="50" width="830" height="870" />
    <text id="frame_0_bottomlabel" font-size="30" transform="translate(535, 989.6)" text-anchor="middle" dominant-baseline="middle" stroke="none" fill="black">microseconds</text>
    <g id="frame_0_bottomticks">
        <path d="M 120 920 L 120 900" />
        <text font-size="30" transform="translate(120, 950)" text-anchor="middle" dominant-baseline="middle" stroke="none" fill="black">0</text>
        <path d="M 136.6 920 L 136.6 910" />
        <path d="M 153.2 920 L 153.2 910" />
        <path d="M 169.8 920 L 169.8 910" />
        <path d="M 186.4 920 L 186.4 910" />
        <path d="M 203 920 L 203 910" />
        <path d="M 219.6 920 L 219.6 910" />
        <path d="M 236.2 920 L 236.2 910" />
        <path d="M 252.8 920 L 252.8 910" />
        <path d="M 269.4 920 L 269.4 910" />
        <path d="M 286 920 L 286 900" />
        <text font-size="30" transform="translate(286, 950)" text-anchor="middle" dominant-baseline="middle" stroke="none" fill="black">10</text>
        <path d="M 302.6 920 L 302.6 910" />
        <path d="M 319.2 920 L 319.2 910" />
        <path d="M 335.8 920 L 335.8 910" />
        <path d="M 352.4 920 L 352.4 910" />
        <path d="M 369 920 L 369 910" />
        <path d="M 385.6 920 L 385.6 910" />
        <path d="M 402.2 920 L 402.2 910" />
        <path d="M 418.8 920 L 418.8 910" />
        <path d="M 435.4 920 L 435.4 910" />
        <path d="M 452 920 L 452 900" />
        <text font-size="30" transform="translate(452, 950)" text-anchor="middle" dominant-baseline="middle" stroke="none" fill="black">20</text>
        <path d="M 468.6 920 L 468.6 910" />
        <path d="M 485.2 920 L 485.2 910" />
        <path d="M 501.8 920 L 501.8 910" />
        <path d="M 518.4 920 L 518.4 910" />
        <path d="M 535 920 L 535 910" />
        <path d="M 551.6 920 L 551.6 910" />
        <path d="M 568.2 920 L 568.2 910" />
        <path d="M 584.8 920 L 584.8 910" />
        <path d="M 601.4 920 L 601.4 910" />
        <path d="M 618 920 L 618 900" />
        <text font-size="30" transform="translate(618, 950)" text-anchor="middle" dominant-baseline="middle" stroke="none" fill="black">30</text>
        <path d="M 634.6 920 L 634.6 910" />
        <path d="M 651.2 920 L 651.2 910" />
        <path d="M 667.8 920 L 667.8 910" />
        <path d="M 684.4 920 L 684.4 910" />
        <path d="M 701 920 L 701 910" />
        <path d="M 717.6 920 L 717.6 910" />
        <path d="M 734.2 920 L 734.2 910" />
        <path d="M 750.8 920 L 750.8 910" />
        <path d="M 767.4 920 L 767.4 910" />
        <path d="M 784 920 L 784 900" />
        <text font-size="30" transform="translate(784, 950)" text-anchor="middle" dominant-baseline="middle" stroke="none" fill="black">40</text>
        <path d="M 800.6 920 L 800.6 910" />
        <path d="M 817.2 920 L 817.2 910" />
        <path d="M 833.8 920 L 833.8 910" />
        <path d="M 850.4 920 L 850.4 910" />
        <path d="M 867 920 L 867 910" />
        <path d="M 883.6 920 L 883.6 910" />
        <path d="M 900.2 920 L 900.2 910" />
        <path d="M 916.8 920 L 916.8 910" />
        <path d="M 933.4 920 L 933.4 910" />
        <path d="M 950 920 L 950 900" />
        <text font-size="30" transform="translate(950, 950)" text-anchor="middle" dominant-baseline="middle" stroke="none" fill="black">50</text>
    </g>
    <g id="frame_0_leftticks">
        <path d="M 120 317.116 L 130 317.116" />
        <path d="M 120 920 L 140 920" />
        <text font-size="30" transform="translate(110, 930)" text-anchor="end" dominant-baseline="middle" stroke="none" fill="black">0</text>
        <path d="M 120 750.439 L 130 750.439" />
        <path d="M 120 580.877 L 130 580.877" />
        <path d="M 120 260.595 L 130 260.595" />
        <path d="M 120 411.316 L 130 411.316" />
        <path d="M 120 844.639 L 130 844.639" />
        <path d="M 120 204.075 L 130 204.075" />
        <path d="M 120 675.078 L 130 675.078" />
        <path d="M 120 505.517 L 130 505.517" />
        <path d="M 120 147.554 L 130 147.554" />
        <path d="M 120 335.956 L 130 335.956" />
        <path d="M 120 769.279 L 130 769.279" />
        <path d="M 120 91.0338 L 130 91.0338" />
        <path d="M 120 599.718 L 130 599.718" />
        <path d="M 120 430.156 L 130 430.156" />
        <path d="M 120 863.48 L 130 863.48" />
        <path d="M 120 693.918 L 130 693.918" />
        <path d="M 120 279.435 L 130 279.435" />
        <path d="M 120 524.357 L 130 524.357" />
        <path d="M 120 354.796 L 140 354.796" />
        <text font-size="30" transform="translate(110, 364.796)" text-anchor="end" dominant-baseline="middle" stroke="none" fill="black">3000</text>
        <path d="M 120 222.915 L 130 222.915" />
        <path d="M 120 788.119 L 130 788.119" />
        <path d="M 120 618.558 L 130 618.558" />
        <path d="M 120 166.394 L 140 166.394" />
        <text font-size="30" transform="translate(110, 176.394)" text-anchor="end" dominant-baseline="middle" stroke="none" fill="black">4000</text>
        <path d="M 120 448.996 L 130 448.996" />
        <path d="M 120 882.32 L 130 882.32" />
        <path d="M 120 109.874 L 130 109.874" />
        <path d="M 120 712.758 L 130 712.758" />
        <path d="M 120 543.197 L 140 543.197" />
        <text font-size="30" transform="translate(110, 553.197)" text-anchor="end" dominant-baseline="middle" stroke="none" fill="black">2000</text>
        <path d="M 120 53.3535 L 130 53.3535" />
        <path d="M 120 373.636 L 130 373.636" />
        <path d="M 120 806.959 L 130 806.959" />
        <path d="M 120 298.275 L 130 298.275" />
        <path d="M 120 637.398 L 130 637.398" />
        <path d="M 120 467.837 L 130 467.837" />
        <path d="M 120 241.755 L 130 241.755" />
        <path d="M 120 901.16 L 130 901.16" />
        <path d="M 120 128.714 L 130 128.714" />
        <path d="M 120 185.235 L 130 185.235" />
        <path d="M 120 562.037 L 130 562.037" />
        <path d="M 120 392.476 L 130 392.476" />
        <path d="M 120 731.599 L 140 731.599" />
        <text font-size="30" transform="translate(110, 741.599)" text-anchor="end" dominant-baseline="middle" stroke="none" fill="black">1000</text>
        <path d="M 120 825.799 L 130 825.799" />
        <path d="M 120 656.238 L 130 656.238" />
        <path d="M 120 72.1937 L 130 72.1937" />
        <path d="M 120 486.677 L 130 486.677" />
    </g>
    <text id="frame_0_toplabel" font-size="30" transform="translate(535, 32.6)" text-anchor="middle" dominant-baseline="middle" stroke="none" fill="black">model.naive.gaussian</text>
    <g id="frame_0_topticks">
        <path d="M 120 50 L 120 70" />
        <path d="M 136.6 50 L 136.6 60" />
        <path d="M 153.2 50 L 153.2 60" />
        <path d="M 169.8 50 L 169.8 60" />
        <path d="M 186.4 50 L 186.4 60" />
        <path d="M 203 50 L 203 60" />
        <path d="M 219.6 50 L 219.6 60" />
        <path d="M 236.2 50 L 236.2 60" />
        <path d="M 252.8 50 L 252.8 60" />
        <path d="M 269.4 50 L 269.4 60" />
        <path d="M 286 50 L 286 70" />
        <path d="M 302.6 50 L 302.6 60" />
        <path d="M 319.2 50 L 319.2 60" />
        <path d="M 335.8 50 L 335.8 60" />
        <path d="M 352.4 50 L 352.4 60" />
        <path d="M 369 50 L 369 60" />
        <path d="M 385.6 50 L 385.6 60" />
        <path d="M 402.2 50 L 402.2 60" />
        <path d="M 418.8 50 L 418.8 60" />
        <path d="M 435.4 50 L 435.4 60" />
        <path d="M 452 50 L 452 70" />
        <path d="M 468.6 50 L 468.6 60" />
        <path d="M 485.2 50 L 485.2 60" />
        <path d="M 501.8 50 L 501.8 60" />
        <path d="M 518.4 50 L 518.4 60" />
        <path d="M 535 50 L 535 60" />
        <path d="M 551.6 50 L 551.6 60" />
        <path d="M 568.2 50 L 568.2 60" />
        <path d="M 584.8 50 L 584.8 60" />
        <path d="M 601.4 50 L 601.4 60" />
        <path d="M 618 50 L 618 70" />
        <path d="M 634.6 50 L 634.6 60" />
        <path d="M 651.2 50 L 651.2 60" />
        <path d="M 667.8 50 L 667.8 60" />
        <path d="M 684.4 50 L 684.4 60" />
        <path d="M 701 50 L 701 60" />
        <path d="M 717.6 50 L 717.6 60" />
        <path d="M 734.2 50 L 734.2 60" />
        <path d="M 750.8 50 L 750.8 60" />
        <path d="M 767.4 50 L 767.4 60" />
        <path d="M 784 50 L 784 70" />
        <path d="M 800.6 50 L 800.6 60" />
        <path d="M 817.2 50 L 817.2 60" />
        <path d="M 833.8 50 L 833.8 60" />
        <path d="M 850.4 50 L 850.4 60" />
        <path d="M 867 50 L 867 60" />
        <path d="M 883.6 50 L 883.6 60" />
        <path d="M 900.2 50 L 900.2 60" />
        <path d="M 916.8 50 L 916.8 60" />
        <path d="M 933.4 50 L 933.4 60" />
        <path d="M 950 50 L 950 70" />
    </g>
    <g id="frame_0_rightticks">
        <path d="M 950 317.116 L 940 317.116" />
        <path d="M 950 920 L 930 920" />
        <path d="M 950 750.439 L 940 750.439" />
        <path d="M 950 580.877 L 940 580.877" />
        <path d="M 950 260.595 L 940 260.595" />
        <path d="M 950 411.316 L 940 411.316" />
        <path d="M 950 844.639 L 940 844.639" />
        <path d="M 950 204.075 L 940 204.075" />
        <path d="M 950 675.078 L 940 675.078" />
        <path d="M 950 505.517 L 940 505.517" />
        <path d="M 950 147.554 L 940 147.554" />
        <path d="M 950 335.956 L 940 335.956" />
        <path d="M 950 769.279 L 940 769.279" />
        <path d="M 950 91.0338 L 940 91.0338" />
        <path d="M 950 599.718 L 940 599.718" />
        <path d="M 950 430.156 L 940 430.156" />
        <path d="M 950 863.48 L 940 863.48" />
        <path d="M 950 693.918 L 940 693.918" />
        <path d="M 950 279.435 L 940 279.435" />
        <path d="M 950 524.357 L 940 524.357" />
        <path d="M 950 354.796 L 930 354.796" />
        <path d="M 950 222.915 L 940 222.915" />
        <path d="M 950 788.119 L 940 788.119" />
        <path d="M 950 618.558 L 940 618.558" />
        <path d="M 950 166.394 L 930 166.394" />
        <path d="M 950 448.996 L 940 448.996" />
        <path d="M 950 882.32 L 940 882.32" />
        <path d="M 950 109.874 L 940 109.874" />
        <path d="M 950 712.758 L 940 712.758" />
        <path d="M 950 543.197 L 930 543.197" />
        <path d="M 950 53.3535 L 940 53.3535" />
        <path d="M 950 373.636 L 940 373.636" />
        <path d="M 950 806.959 L 940 806.959" />
        <path d="M 950 298.275 L 940 298.275" />
        <path d="M 950 637.398 L 940 637.398" />
        <path d="M 950 467.837 L 940 467.837" />
        <path d="M 950 241.755 L 940 241.755" />
        <path d="M 950 901.16 L 940 901.16" />
        <path d="M 950 128.714 L 940 128.714" />
        <path d="M 950 185.235 L 940 185.235" />
        <path d="M 950 562.037 L 940 562.037" />
        <path d="M 950 392.476 L 940 392.476" />
        <path d="M 950 731.599 L 930 731.599" />
        <path d="M 950 825.799 L 940 825.799" />
        <path d="M 950 656.238 L 940 656.238" />
        <path d="M 950 72.1937 L 940 72.1937" />
        <path d="M 950 486.677 L 940 486.677" />
    </g>
</g>
</g>
</svg>
