<?xml version="1.0" standalone="no"?>
<!DOCTYPE svg PUBLIC "-//W3C//DTD SVG 1.1//EN" "http://www.w3.org/Graphics/SVG/1.1/DTD/svg11.dtd">
<svg style="stroke-linejoin:miter; stroke:black; stroke-width:2.5; text-anchor:middle; fill:none" xmlns="http://www.w3.org/2000/svg" font-family="Helvetica, Arial, FreeSans, Sans, sans, sans-serif" width="1000px" height="1000px" version="1.1" xmlns:xlink="http://www.w3.org/1999/xlink" viewBox="0 0 1000 1000">
<defs>
    <clipPath id="Histogram_0_clip">
        <rect x="120" y="50" width="830" height="870" />
    </clipPath>
</defs>
<g id="whole_document">
<rect id="background" x="0" y="0" width="1000" height="1000" stroke="none" fill="white" />
<g id="Histogram_0" clip-path="url(#Histogram_0_clip)">
    <path d="M 120 920 L 120 129.091 L 161.5 129.091 L 161.5 920 L 203 920 L 203 920 L 244.5 920 L 244.5 920 L 286 920 L 286 920 L 327.5 920 L 327.5 920 L 369 920 L 369 920 L 410.5 920 L 410.5 920 L 452 920 L 452 920 L 493.5 920 L 493.5 920 L 535 920 L 535 920 L 576.5 920 L 576.5 920 L 618 920 L 618 920 L 659.5 920 L 659.5 920 L 701 920 L 701 920 L 742.5 920 L 742.5 920 L 784 920 L 784 920 L 825.5 920 L 825.5 920 L 867 920 L 867 920 L 908.5 920 L 908.5 920 L 950 920 L 950 920" stroke-width="3" stroke-dasharray="" stroke="black" stroke-opacity="1" fill="DodgerBlue" fill-opacity="1" />
</g>
<g id="frame_0">
    <rect id="frame_0_border" x="120" y="50" width="830" height="870" />
    <text id="frame_0_bottomlabel" font-size="30" transform="translate(535, 989.6)" text-anchor="middle" dominant-baseline="middle" stroke="none" fill="black">microseconds</text>
    <g id="frame_0_bottomticks">
        <path d="M 120 920 L 120 900" />
        <text font-size="30" transform="translate(120, 950)" text-anchor="middle" dominant-baseline="middle" stroke="none" fill="black">0</text>
        <path d="M 136.6 920 L 136.6 910" />
        <path d="M 153.2 920 L 153.2 910" />
        <path d="M 169.8 920 L 169.8 910" />
        <path d="M 186.4 920 L 186.4 910" />
        <path d="M 203 920 L 203 910" />
        <path d="M 219.6 920 L 219.6 910" />
        <path d="M 236.2 920 L 236.2 910" />
        <path d="M 252.8 920 L 252.8 910" />
        <path d="M 269.4 920 L 269.4 910" />
        <path d="M 286 920 L 286 900" />
        <text font-size="30" transform="translate(286, 950)" text-anchor="middle" dominant-baseline="middle" stroke="none" fill="black">10</text>
        <path d="M 302.6 920 L 302.6 910" />
        <path d="M 319.2 920 L 319.2 910" />
        <path d="M 335.8 920 L 335.8 910" />
        <path d="M 352.4 920 L 352.4 910" />
        <path d="M 369 920 L 369 910" />
        <path d="M 385.6 920 L 385.6 910" />
        <path d="M 402.2 920 L 402.2 910" />
        <path d="M 418.8 920 L 418.8 910" />
        <path d="M 435.4 920 L 435.4 910" />
        <path d="M 452 920 L 452 900" />
        <text font-size="30" transform="translate(452, 950)" text-anchor="middle" dominant-baseline="middle" stroke="none" fill="black">20</text>
        <path d="M 468.6 920 L 468.6 910" />
        <path d="M 485.2 920 L 485.2 910" />
        <path d="M 501.8 920 L 501.8 910" />
        <path d="M 518.4 920 L 518.4 910" />
        <path d="M 535 920 L 535 910" />
        <path d="M 551.6 920 L 551.6 910" />
        <path d="M 568.2 920 L 568.2 910" />
        <path d="M 584.8 920 L 584.8 910" />
        <path d="M 601.4 920 L 601.4 910" />
        <path d="M 618 920 L 618 900" />
        <text font-size="30" transform="translate(618, 950)" text-anchor="middle" dominant-baseline="middle" stroke="none" fill="black">30</text>
        <path d="M 634.6 920 L 634.6 910" />
        <path d="M 651.2 920 L 651.2 910" />
        <path d="M 667.8 920 L 667.8 910" />
        <path d="M 684.4 920 L 684.4 910" />
        <path d="M 701 920 L 701 910" />
        <path d="M 717.6 920 L 717.6 910" />
        <path d="M 734.2 920 L 734.2 910" />
        <path d="M 750.8 920 L 750.8 910" />
        <path d="M 767.4 920 L 767.4 910" />
        <path d="M 784 920 L 784 900" />
        <text font-size="30" transform="translate(784, 950)" text-anchor="middle" dominant-baseline="middle" stroke="none" fill="black">40</text>
        <path d="M 800.6 920 L 800.6 910" />
        <path d="M 817.2 920 L 817.2 910" />
        <path d="M 833.8 920 L 833.8 910" />
        <path d="M 850.4 920 L 850.4 910" />
        <path d="M 867 920 L 867 910" />
        <path d="M 883.6 920 L 883.6 910" />
        <path d="M 900.2 920 L 900.2 910" />
        <path d="M 916.8 920 L 916.8 910" />
        <path d="M 933.4 920 L 933.4 910" />
        <path d="M 950 920 L 950 900" />
        <text font-size="30" transform="translate(950, 950)" text-anchor="middle" dominant-baseline="middle" stroke="none" fill="black">50</text>
    </g>
    <g id="frame_0_leftticks">
        <path d="M 120 774.961 L 130 774.961" />
        <path d="M 120 847.481 L 130 847.481" />
        <path d="M 120 73.9403 L 140 73.9403" />
        <text font-size="30" transform="translate(110, 83.9403)" text-anchor="end" dominant-baseline="middle" stroke="none" fill="black">7×10⁶</text>
        <path d="M 120 496.97 L 130 496.97" />
        <path d="M 120 920 L 140 920" />
        <text font-size="30" transform="translate(110, 930)" text-anchor="end" dominant-baseline="middle" stroke="none" fill="black">0</text>
        <path d="M 120 218.979 L 130 218.979" />
        <path d="M 120 642.009 L 130 642.009" />
        <path d="M 120 364.018 L 130 364.018" />
        <path d="M 120 787.048 L 130 787.048" />
        <path d="M 120 86.0268 L 130 86.0268" />
        <path d="M 120 509.057 L 130 509.057" />
        <path d="M 120 231.066 L 130 231.066" />
        <path d="M 120 654.096 L 130 654.096" />
        <path d="M 120 376.104 L 130 376.104" />
        <path d="M 120 799.134 L 140 799.134" />
        <text font-size="30" transform="translate(110, 809.134)" text-anchor="end" dominant-baseline="middle" stroke="none" fill="black">10⁶</text>
        <path d="M 120 98.1134 L 130 98.1134" />
        <path d="M 120 521.143 L 130 521.143" />
        <path d="M 120 702.442 L 130 702.442" />
        <path d="M 120 666.182 L 130 666.182" />
        <path d="M 120 907.913 L 130 907.913" />
        <path d="M 120 388.191 L 130 388.191" />
        <path d="M 120 110.2 L 130 110.2" />
        <path d="M 120 533.23 L 130 533.23" />
        <path d="M 120 255.239 L 130 255.239" />
        <path d="M 120 678.269 L 140 678.269" />
        <text font-size="30" transform="translate(110, 688.269)" text-anchor="end" dominant-baseline="middle" stroke="none" fill="black">2×10⁶</text>
        <path d="M 120 400.278 L 130 400.278" />
        <path d="M 120 823.307 L 130 823.307" />
        <path d="M 120 122.287 L 130 122.287" />
        <path d="M 120 545.316 L 130 545.316" />
        <path d="M 120 267.325 L 130 267.325" />
        <path d="M 120 690.355 L 130 690.355" />
        <path d="M 120 412.364 L 130 412.364" />
        <path d="M 120 835.394 L 130 835.394" />
        <path d="M 120 134.373 L 130 134.373" />
        <path d="M 120 557.403 L 140 557.403" />
        <text font-size="30" transform="translate(110, 567.403)" text-anchor="end" dominant-baseline="middle" stroke="none" fill="black">3×10⁶</text>
        <path d="M 120 279.412 L 130 279.412" />
        <path d="M 120 895.827 L 130 895.827" />
        <path d="M 120 811.221 L 130 811.221" />
        <path d="M 120 424.451 L 130 424.451" />
        <path d="M 120 146.46 L 130 146.46" />
        <path d="M 120 569.49 L 130 569.49" />
        <path d="M 120 291.498 L 130 291.498" />
        <path d="M 120 714.528 L 130 714.528" />
        <path d="M 120 436.537 L 140 436.537" />
        <text font-size="30" transform="translate(110, 446.537)" text-anchor="end" dominant-baseline="middle" stroke="none" fill="black">4×10⁶</text>
        <path d="M 120 859.567 L 130 859.567" />
        <path d="M 120 351.931 L 130 351.931" />
        <path d="M 120 581.576 L 130 581.576" />
        <path d="M 120 303.585 L 130 303.585" />
        <path d="M 120 726.615 L 130 726.615" />
        <path d="M 120 158.546 L 130 158.546" />
        <path d="M 120 315.672 L 140 315.672" />
        <text font-size="30" transform="translate(110, 325.672)" text-anchor="end" dominant-baseline="middle" stroke="none" fill="black">5×10⁶</text>
        <path d="M 120 448.624 L 130 448.624" />
        <path d="M 120 871.654 L 130 871.654" />
        <path d="M 120 170.633 L 130 170.633" />
        <path d="M 120 593.663 L 130 593.663" />
        <path d="M 120 883.74 L 130 883.74" />
        <path d="M 120 738.701 L 130 738.701" />
        <path d="M 120 460.71 L 130 460.71" />
        <path d="M 120 182.719 L 130 182.719" />
        <path d="M 120 605.749 L 130 605.749" />
        <path d="M 120 243.152 L 130 243.152" />
        <path d="M 120 327.758 L 130 327.758" />
        <path d="M 120 750.788 L 130 750.788" />
        <path d="M 120 472.797 L 130 472.797" />
        <path d="M 120 194.806 L 140 194.806" />
        <text font-size="30" transform="translate(110, 204.806)" text-anchor="end" dominant-baseline="middle" stroke="none" fill="black">6×10⁶</text>
        <path d="M 120 617.836 L 130 617.836" />
        <path d="M 120 339.845 L 130 339.845" />
        <path d="M 120 762.875 L 130 762.875" />
        <path d="M 120 61.8537 L 130 61.8537" />
        <path d="M 120 484.884 L 130 484.884" />
        <path d="M 120 206.893 L 130 206.893" />
        <path d="M 120 629.922 L 130 629.922" />
    </g>
    <text id="frame_0_toplabel" font-size="30" transform="translate(535, 32.6)" text-anchor="middle" dominant-baseline="middle" stroke="none" fill="black">stat.change.updateCUSUM</text>
    <g id="frame_0_topticks">
        <path d="M 120 50 L 120 70" />
        <path d="M 136.6 50 L 136.6 60" />
        <path d="M 153.2 50 L 153.2 60" />
        <path d="M 169.8 50 L 169.8 60" />
        <path d="M 186.4 50 L 186.4 60" />
        <path d="M 203 50 L 203 60" />
        <path d="M 219.6 50 L 219.6 60" />
        <path d="M 236.2 50 L 236.2 60" />
        <path d="M 252.8 50 L 252.8 60" />
        <path d="M 269.4 50 L 269.4 60" />
        <path d="M 286 50 L 286 70" />
        <path d="M 302.6 50 L 302.6 60" />
        <path d="M 319.2 50 L 319.2 60" />
        <path d="M 335.8 50 L 335.8 60" />
        <path d="M 352.4 50 L 352.4 60" />
        <path d="M 369 50 L 369 60" />
        <path d="M 385.6 50 L 385.6 60" />
        <path d="M 402.2 50 L 402.2 60" />
        <path d="M 418.8 50 L 418.8 60" />
        <path d="M 435.4 50 L 435.4 60" />
        <path d="M 452 50 L 452 70" />
        <path d="M 468.6 50 L 468.6 60" />
        <path d="M 485.2 50 L 485.2 60" />
        <path d="M 501.8 50 L 501.8 60" />
        <path d="M 518.4 50 L 518.4 60" />
        <path d="M 535 50 L 535 60" />
        <path d="M 551.6 50 L 551.6 60" />
        <path d="M 568.2 50 L 568.2 60" />
        <path d="M 584.8 50 L 584.8 60" />
        <path d="M 601.4 50 L 601.4 60" />
        <path d="M 618 50 L 618 70" />
        <path d="M 634.6 50 L 634.6 60" />
        <path d="M 651.2 50 L 651.2 60" />
        <path d="M 667.8 50 L 667.8 60" />
        <path d="M 684.4 50 L 684.4 60" />
        <path d="M 701 50 L 701 60" />
        <path d="M 717.6 50 L 717.6 60" />
        <path d="M 734.2 50 L 734.2 60" />
        <path d="M 750.8 50 L 750.8 60" />
        <path d="M 767.4 50 L 767.4 60" />
        <path d="M 784 50 L 784 70" />
        <path d="M 800.6 50 L 800.6 60" />
        <path d="M 817.2 50 L 817.2 60" />
        <path d="M 833.8 50 L 833.8 60" />
        <path d="M 850.4 50 L 850.4 60" />
        <path d="M 867 50 L 867 60" />
        <path d="M 883.6 50 L 883.6 60" />
        <path d="M 900.2 50 L 900.2 60" />
        <path d="M 916.8 50 L 916.8 60" />
        <path d="M 933.4 50 L 933.4 60" />
        <path d="M 950 50 L 950 70" />
    </g>
    <g id="frame_0_rightticks">
        <path d="M 950 774.961 L 940 774.961" />
        <path d="M 950 847.481 L 940 847.481" />
        <path d="M 950 73.9403 L 930 73.9403" />
        <path d="M 950 496.97 L 940 496.97" />
        <path d="M 950 920 L 930 920" />
        <path d="M 950 218.979 L 940 218.979" />
        <path d="M 950 642.009 L 940 642.009" />
        <path d="M 950 364.018 L 940 364.018" />
        <path d="M 950 787.048 L 940 787.048" />
        <path d="M 950 86.0268 L 940 86.0268" />
        <path d="M 950 509.057 L 940 509.057" />
        <path d="M 950 231.066 L 940 231.066" />
        <path d="M 950 654.096 L 940 654.096" />
        <path d="M 950 376.104 L 940 376.104" />
        <path d="M 950 799.134 L 930 799.134" />
        <path d="M 950 98.1134 L 940 98.1134" />
        <path d="M 950 521.143 L 940 521.143" />
        <path d="M 950 702.442 L 940 702.442" />
        <path d="M 950 666.182 L 940 666.182" />
        <path d="M 950 907.913 L 940 907.913" />
        <path d="M 950 388.191 L 940 388.191" />
        <path d="M 950 110.2 L 940 110.2" />
        <path d="M 950 533.23 L 940 533.23" />
        <path d="M 950 255.239 L 940 255.239" />
        <path d="M 950 678.269 L 930 678.269" />
        <path d="M 950 400.278 L 940 400.278" />
        <path d="M 950 823.307 L 940 823.307" />
        <path d="M 950 122.287 L 940 122.287" />
        <path d="M 950 545.316 L 940 545.316" />
        <path d="M 950 267.325 L 940 267.325" />
        <path d="M 950 690.355 L 940 690.355" />
        <path d="M 950 412.364 L 940 412.364" />
        <path d="M 950 835.394 L 940 835.394" />
        <path d="M 950 134.373 L 940 134.373" />
        <path d="M 950 557.403 L 930 557.403" />
        <path d="M 950 279.412 L 940 279.412" />
        <path d="M 950 895.827 L 940 895.827" />
        <path d="M 950 811.221 L 940 811.221" />
        <path d="M 950 424.451 L 940 424.451" />
        <path d="M 950 146.46 L 940 146.46" />
        <path d="M 950 569.49 L 940 569.49" />
        <path d="M 950 291.498 L 940 291.498" />
        <path d="M 950 714.528 L 940 714.528" />
        <path d="M 950 436.537 L 930 436.537" />
        <path d="M 950 859.567 L 940 859.567" />
        <path d="M 950 351.931 L 940 351.931" />
        <path d="M 950 581.576 L 940 581.576" />
        <path d="M 950 303.585 L 940 303.585" />
        <path d="M 950 726.615 L 940 726.615" />
        <path d="M 950 158.546 L 940 158.546" />
        <path d="M 950 315.672 L 930 315.672" />
        <path d="M 950 448.624 L 940 448.624" />
        <path d="M 950 871.654 L 940 871.654" />
        <path d="M 950 170.633 L 940 170.633" />
        <path d="M 950 593.663 L 940 593.663" />
        <path d="M 950 883.74 L 940 883.74" />
        <path d="M 950 738.701 L 940 738.701" />
        <path d="M 950 460.71 L 940 460.71" />
        <path d="M 950 182.719 L 940 182.719" />
        <path d="M 950 605.749 L 940 605.749" />
        <path d="M 950 243.152 L 940 243.152" />
        <path d="M 950 327.758 L 940 327.758" />
        <path d="M 950 750.788 L 940 750.788" />
        <path d="M 950 472.797 L 940 472.797" />
        <path d="M 950 194.806 L 930 194.806" />
        <path d="M 950 617.836 L 940 617.836" />
        <path d="M 950 339.845 L 940 339.845" />
        <path d="M 950 762.875 L 940 762.875" />
        <path d="M 950 61.8537 L 940 61.8537" />
        <path d="M 950 484.884 L 940 484.884" />
        <path d="M 950 206.893 L 940 206.893" />
        <path d="M 950 629.922 L 940 629.922" />
    </g>
</g>
</g>
</svg>
