<?xml version="1.0" standalone="no"?>
<!DOCTYPE svg PUBLIC "-//W3C//DTD SVG 1.1//EN" "http://www.w3.org/Graphics/SVG/1.1/DTD/svg11.dtd">
<svg style="stroke-linejoin:miter; stroke:black; stroke-width:2.5; text-anchor:middle; fill:none" xmlns="http://www.w3.org/2000/svg" font-family="Helvetica, Arial, FreeSans, Sans, sans, sans-serif" width="1000px" height="1000px" version="1.1" xmlns:xlink="http://www.w3.org/1999/xlink" viewBox="0 0 1000 1000">
<defs>
    <clipPath id="Histogram_0_clip">
        <rect x="120" y="50" width="830" height="870" />
    </clipPath>
    <clipPath id="Histogram_1_clip">
        <rect x="120" y="50" width="830" height="870" />
    </clipPath>
</defs>
<g id="whole_document">
<rect id="background" x="0" y="0" width="1000" height="1000" stroke="none" fill="white" />
<g id="Histogram_0" clip-path="url(#Histogram_0_clip)">
    <path d="M 120 920 L 120 129.091 L 161.5 129.091 L 161.5 862.489 L 203 862.489 L 203 884.808 L 244.5 884.808 L 244.5 816.865 L 286 816.865 L 286 895.563 L 327.5 895.563 L 327.5 918.743 L 369 918.743 L 369 920 L 410.5 920 L 410.5 920 L 452 920 L 452 920 L 493.5 920 L 493.5 920 L 535 920 L 535 920 L 576.5 920 L 576.5 920 L 618 920 L 618 920 L 659.5 920 L 659.5 920 L 701 920 L 701 920 L 742.5 920 L 742.5 920 L 784 920 L 784 920 L 825.5 920 L 825.5 920 L 867 920 L 867 920 L 908.5 920 L 908.5 920 L 950 920 L 950 920" stroke-width="3" stroke-dasharray="" stroke="black" stroke-opacity="1" fill="DodgerBlue" fill-opacity="1" />
</g>
<g id="Histogram_1" clip-path="url(#Histogram_1_clip)">
    <path d="M 120 920 L 120 920 L 161.5 920 L 161.5 920 L 203 920 L 203 920 L 244.5 920 L 244.5 816.865 L 286 816.865 L 286 913.321 L 327.5 913.321 L 327.5 920 L 369 920 L 369 920 L 410.5 920 L 410.5 920 L 452 920 L 452 920 L 493.5 920 L 493.5 920 L 535 920 L 535 920 L 576.5 920 L 576.5 920 L 618 920 L 618 920 L 659.5 920 L 659.5 920 L 701 920 L 701 920 L 742.5 920 L 742.5 920 L 784 920 L 784 920 L 825.5 920 L 825.5 920 L 867 920 L 867 920 L 908.5 920 L 908.5 920 L 950 920 L 950 920" stroke-width="3" stroke-dasharray="" stroke="black" stroke-opacity="1" fill="darkorange" fill-opacity="1" />
</g>
<g id="frame_0">
    <rect id="frame_0_border" x="120" y="50" width="830" height="870" />
    <text id="frame_0_bottomlabel" font-size="30" transform="translate(535, 989.6)" text-anchor="middle" dominant-baseline="middle" stroke="none" fill="black">microseconds</text>
    <g id="frame_0_bottomticks">
        <path d="M 120 920 L 120 900" />
        <text font-size="30" transform="translate(120, 950)" text-anchor="middle" dominant-baseline="middle" stroke="none" fill="black">0</text>
        <path d="M 136.6 920 L 136.6 910" />
        <path d="M 153.2 920 L 153.2 910" />
        <path d="M 169.8 920 L 169.8 910" />
        <path d="M 186.4 920 L 186.4 910" />
        <path d="M 203 920 L 203 910" />
        <path d="M 219.6 920 L 219.6 910" />
        <path d="M 236.2 920 L 236.2 910" />
        <path d="M 252.8 920 L 252.8 910" />
        <path d="M 269.4 920 L 269.4 910" />
        <path d="M 286 920 L 286 900" />
        <text font-size="30" transform="translate(286, 950)" text-anchor="middle" dominant-baseline="middle" stroke="none" fill="black">10</text>
        <path d="M 302.6 920 L 302.6 910" />
        <path d="M 319.2 920 L 319.2 910" />
        <path d="M 335.8 920 L 335.8 910" />
        <path d="M 352.4 920 L 352.4 910" />
        <path d="M 369 920 L 369 910" />
        <path d="M 385.6 920 L 385.6 910" />
        <path d="M 402.2 920 L 402.2 910" />
        <path d="M 418.8 920 L 418.8 910" />
        <path d="M 435.4 920 L 435.4 910" />
        <path d="M 452 920 L 452 900" />
        <text font-size="30" transform="translate(452, 950)" text-anchor="middle" dominant-baseline="middle" stroke="none" fill="black">20</text>
        <path d="M 468.6 920 L 468.6 910" />
        <path d="M 485.2 920 L 485.2 910" />
        <path d="M 501.8 920 L 501.8 910" />
        <path d="M 518.4 920 L 518.4 910" />
        <path d="M 535 920 L 535 910" />
        <path d="M 551.6 920 L 551.6 910" />
        <path d="M 568.2 920 L 568.2 910" />
        <path d="M 584.8 920 L 584.8 910" />
        <path d="M 601.4 920 L 601.4 910" />
        <path d="M 618 920 L 618 900" />
        <text font-size="30" transform="translate(618, 950)" text-anchor="middle" dominant-baseline="middle" stroke="none" fill="black">30</text>
        <path d="M 634.6 920 L 634.6 910" />
        <path d="M 651.2 920 L 651.2 910" />
        <path d="M 667.8 920 L 667.8 910" />
        <path d="M 684.4 920 L 684.4 910" />
        <path d="M 701 920 L 701 910" />
        <path d="M 717.6 920 L 717.6 910" />
        <path d="M 734.2 920 L 734.2 910" />
        <path d="M 750.8 920 L 750.8 910" />
        <path d="M 767.4 920 L 767.4 910" />
        <path d="M 784 920 L 784 900" />
        <text font-size="30" transform="translate(784, 950)" text-anchor="middle" dominant-baseline="middle" stroke="none" fill="black">40</text>
        <path d="M 800.6 920 L 800.6 910" />
        <path d="M 817.2 920 L 817.2 910" />
        <path d="M 833.8 920 L 833.8 910" />
        <path d="M 850.4 920 L 850.4 910" />
        <path d="M 867 920 L 867 910" />
        <path d="M 883.6 920 L 883.6 910" />
        <path d="M 900.2 920 L 900.2 910" />
        <path d="M 916.8 920 L 916.8 910" />
        <path d="M 933.4 920 L 933.4 910" />
        <path d="M 950 920 L 950 900" />
        <text font-size="30" transform="translate(950, 950)" text-anchor="middle" dominant-baseline="middle" stroke="none" fill="black">50</text>
    </g>
    <g id="frame_0_leftticks">
        <path d="M 120 632.717 L 130 632.717" />
        <path d="M 120 489.075 L 130 489.075" />
        <path d="M 120 435.209 L 130 435.209" />
        <path d="M 120 542.941 L 130 542.941" />
        <path d="M 120 309.523 L 130 309.523" />
        <path d="M 120 453.165 L 130 453.165" />
        <path d="M 120 794.314 L 130 794.314" />
        <path d="M 120 76.1051 L 130 76.1051" />
        <path d="M 120 650.672 L 130 650.672" />
        <path d="M 120 920 L 140 920" />
        <text font-size="30" transform="translate(110, 930)" text-anchor="end" dominant-baseline="middle" stroke="none" fill="black">0</text>
        <path d="M 120 399.299 L 130 399.299" />
        <path d="M 120 363.388 L 130 363.388" />
        <path d="M 120 219.747 L 130 219.747" />
        <path d="M 120 848.179 L 130 848.179" />
        <path d="M 120 524.985 L 130 524.985" />
        <path d="M 120 129.971 L 130 129.971" />
        <path d="M 120 740.448 L 140 740.448" />
        <text font-size="30" transform="translate(110, 750.448)" text-anchor="end" dominant-baseline="middle" stroke="none" fill="black">10000</text>
        <path d="M 120 560.896 L 140 560.896" />
        <text font-size="30" transform="translate(110, 570.896)" text-anchor="end" dominant-baseline="middle" stroke="none" fill="black">20000</text>
        <path d="M 120 758.403 L 130 758.403" />
        <path d="M 120 273.612 L 130 273.612" />
        <path d="M 120 668.627 L 130 668.627" />
        <path d="M 120 830.224 L 130 830.224" />
        <path d="M 120 183.836 L 130 183.836" />
        <path d="M 120 578.851 L 130 578.851" />
        <path d="M 120 327.478 L 130 327.478" />
        <path d="M 120 776.358 L 130 776.358" />
        <path d="M 120 417.254 L 130 417.254" />
        <path d="M 120 471.12 L 130 471.12" />
        <path d="M 120 686.582 L 130 686.582" />
        <path d="M 120 237.702 L 130 237.702" />
        <path d="M 120 381.344 L 140 381.344" />
        <text font-size="30" transform="translate(110, 391.344)" text-anchor="end" dominant-baseline="middle" stroke="none" fill="black">30000</text>
        <path d="M 120 884.09 L 130 884.09" />
        <path d="M 120 866.134 L 130 866.134" />
        <path d="M 120 147.926 L 130 147.926" />
        <path d="M 120 507.03 L 130 507.03" />
        <path d="M 120 291.568 L 130 291.568" />
        <path d="M 120 704.537 L 130 704.537" />
        <path d="M 120 596.806 L 130 596.806" />
        <path d="M 120 58.1499 L 130 58.1499" />
        <path d="M 120 902.045 L 130 902.045" />
        <path d="M 120 165.881 L 130 165.881" />
        <path d="M 120 345.433 L 130 345.433" />
        <path d="M 120 812.269 L 130 812.269" />
        <path d="M 120 614.761 L 130 614.761" />
        <path d="M 120 201.792 L 140 201.792" />
        <text font-size="30" transform="translate(110, 211.792)" text-anchor="end" dominant-baseline="middle" stroke="none" fill="black">40000</text>
        <path d="M 120 112.016 L 130 112.016" />
        <path d="M 120 722.493 L 130 722.493" />
        <path d="M 120 255.657 L 130 255.657" />
        <path d="M 120 94.0603 L 130 94.0603" />
    </g>
    <text id="frame_0_toplabel" font-size="30" transform="translate(535, 32.6)" text-anchor="middle" dominant-baseline="middle" stroke="none" fill="black">a.minLT</text>
    <g id="frame_0_topticks">
        <path d="M 120 50 L 120 70" />
        <path d="M 136.6 50 L 136.6 60" />
        <path d="M 153.2 50 L 153.2 60" />
        <path d="M 169.8 50 L 169.8 60" />
        <path d="M 186.4 50 L 186.4 60" />
        <path d="M 203 50 L 203 60" />
        <path d="M 219.6 50 L 219.6 60" />
        <path d="M 236.2 50 L 236.2 60" />
        <path d="M 252.8 50 L 252.8 60" />
        <path d="M 269.4 50 L 269.4 60" />
        <path d="M 286 50 L 286 70" />
        <path d="M 302.6 50 L 302.6 60" />
        <path d="M 319.2 50 L 319.2 60" />
        <path d="M 335.8 50 L 335.8 60" />
        <path d="M 352.4 50 L 352.4 60" />
        <path d="M 369 50 L 369 60" />
        <path d="M 385.6 50 L 385.6 60" />
        <path d="M 402.2 50 L 402.2 60" />
        <path d="M 418.8 50 L 418.8 60" />
        <path d="M 435.4 50 L 435.4 60" />
        <path d="M 452 50 L 452 70" />
        <path d="M 468.6 50 L 468.6 60" />
        <path d="M 485.2 50 L 485.2 60" />
        <path d="M 501.8 50 L 501.8 60" />
        <path d="M 518.4 50 L 518.4 60" />
        <path d="M 535 50 L 535 60" />
        <path d="M 551.6 50 L 551.6 60" />
        <path d="M 568.2 50 L 568.2 60" />
        <path d="M 584.8 50 L 584.8 60" />
        <path d="M 601.4 50 L 601.4 60" />
        <path d="M 618 50 L 618 70" />
        <path d="M 634.6 50 L 634.6 60" />
        <path d="M 651.2 50 L 651.2 60" />
        <path d="M 667.8 50 L 667.8 60" />
        <path d="M 684.4 50 L 684.4 60" />
        <path d="M 701 50 L 701 60" />
        <path d="M 717.6 50 L 717.6 60" />
        <path d="M 734.2 50 L 734.2 60" />
        <path d="M 750.8 50 L 750.8 60" />
        <path d="M 767.4 50 L 767.4 60" />
        <path d="M 784 50 L 784 70" />
        <path d="M 800.6 50 L 800.6 60" />
        <path d="M 817.2 50 L 817.2 60" />
        <path d="M 833.8 50 L 833.8 60" />
        <path d="M 850.4 50 L 850.4 60" />
        <path d="M 867 50 L 867 60" />
        <path d="M 883.6 50 L 883.6 60" />
        <path d="M 900.2 50 L 900.2 60" />
        <path d="M 916.8 50 L 916.8 60" />
        <path d="M 933.4 50 L 933.4 60" />
        <path d="M 950 50 L 950 70" />
    </g>
    <g id="frame_0_rightticks">
        <path d="M 950 632.717 L 940 632.717" />
        <path d="M 950 489.075 L 940 489.075" />
        <path d="M 950 435.209 L 940 435.209" />
        <path d="M 950 542.941 L 940 542.941" />
        <path d="M 950 309.523 L 940 309.523" />
        <path d="M 950 453.165 L 940 453.165" />
        <path d="M 950 794.314 L 940 794.314" />
        <path d="M 950 76.1051 L 940 76.1051" />
        <path d="M 950 650.672 L 940 650.672" />
        <path d="M 950 920 L 930 920" />
        <path d="M 950 399.299 L 940 399.299" />
        <path d="M 950 363.388 L 940 363.388" />
        <path d="M 950 219.747 L 940 219.747" />
        <path d="M 950 848.179 L 940 848.179" />
        <path d="M 950 524.985 L 940 524.985" />
        <path d="M 950 129.971 L 940 129.971" />
        <path d="M 950 740.448 L 930 740.448" />
        <path d="M 950 560.896 L 930 560.896" />
        <path d="M 950 758.403 L 940 758.403" />
        <path d="M 950 273.612 L 940 273.612" />
        <path d="M 950 668.627 L 940 668.627" />
        <path d="M 950 830.224 L 940 830.224" />
        <path d="M 950 183.836 L 940 183.836" />
        <path d="M 950 578.851 L 940 578.851" />
        <path d="M 950 327.478 L 940 327.478" />
        <path d="M 950 776.358 L 940 776.358" />
        <path d="M 950 417.254 L 940 417.254" />
        <path d="M 950 471.12 L 940 471.12" />
        <path d="M 950 686.582 L 940 686.582" />
        <path d="M 950 237.702 L 940 237.702" />
        <path d="M 950 381.344 L 930 381.344" />
        <path d="M 950 884.09 L 940 884.09" />
        <path d="M 950 866.134 L 940 866.134" />
        <path d="M 950 147.926 L 940 147.926" />
        <path d="M 950 507.03 L 940 507.03" />
        <path d="M 950 291.568 L 940 291.568" />
        <path d="M 950 704.537 L 940 704.537" />
        <path d="M 950 596.806 L 940 596.806" />
        <path d="M 950 58.1499 L 940 58.1499" />
        <path d="M 950 902.045 L 940 902.045" />
        <path d="M 950 165.881 L 940 165.881" />
        <path d="M 950 345.433 L 940 345.433" />
        <path d="M 950 812.269 L 940 812.269" />
        <path d="M 950 614.761 L 940 614.761" />
        <path d="M 950 201.792 L 930 201.792" />
        <path d="M 950 112.016 L 940 112.016" />
        <path d="M 950 722.493 L 940 722.493" />
        <path d="M 950 255.657 L 940 255.657" />
        <path d="M 950 94.0603 L 940 94.0603" />
    </g>
</g>
</g>
</svg>
