<?xml version="1.0" standalone="no"?>
<!DOCTYPE svg PUBLIC "-//W3C//DTD SVG 1.1//EN" "http://www.w3.org/Graphics/SVG/1.1/DTD/svg11.dtd">
<svg style="stroke-linejoin:miter; stroke:black; stroke-width:2.5; text-anchor:middle; fill:none" xmlns="http://www.w3.org/2000/svg" font-family="Helvetica, Arial, FreeSans, Sans, sans, sans-serif" width="1000px" height="1000px" version="1.1" xmlns:xlink="http://www.w3.org/1999/xlink" viewBox="0 0 1000 1000">
<defs>
    <clipPath id="Histogram_0_clip">
        <rect x="120" y="50" width="830" height="870" />
    </clipPath>
</defs>
<g id="whole_document">
<rect id="background" x="0" y="0" width="1000" height="1000" stroke="none" fill="white" />
<g id="Histogram_0" clip-path="url(#Histogram_0_clip)">
    <path d="M 120 920 L 120 443.063 L 161.5 443.063 L 161.5 129.091 L 203 129.091 L 203 755.058 L 244.5 755.058 L 244.5 871.674 L 286 871.674 L 286 868.314 L 327.5 868.314 L 327.5 905.374 L 369 905.374 L 369 913.379 L 410.5 913.379 L 410.5 904.188 L 452 904.188 L 452 920 L 493.5 920 L 493.5 920 L 535 920 L 535 920 L 576.5 920 L 576.5 916.64 L 618 916.64 L 618 920 L 659.5 920 L 659.5 920 L 701 920 L 701 920 L 742.5 920 L 742.5 920 L 784 920 L 784 920 L 825.5 920 L 825.5 920 L 867 920 L 867 920 L 908.5 920 L 908.5 920 L 950 920 L 950 920" stroke-width="3" stroke-dasharray="" stroke="black" stroke-opacity="1" fill="DodgerBlue" fill-opacity="1" />
</g>
<g id="frame_0">
    <rect id="frame_0_border" x="120" y="50" width="830" height="870" />
    <text id="frame_0_bottomlabel" font-size="30" transform="translate(535, 989.6)" text-anchor="middle" dominant-baseline="middle" stroke="none" fill="black">microseconds</text>
    <g id="frame_0_bottomticks">
        <path d="M 120 920 L 120 900" />
        <text font-size="30" transform="translate(120, 950)" text-anchor="middle" dominant-baseline="middle" stroke="none" fill="black">0</text>
        <path d="M 136.6 920 L 136.6 910" />
        <path d="M 153.2 920 L 153.2 910" />
        <path d="M 169.8 920 L 169.8 910" />
        <path d="M 186.4 920 L 186.4 910" />
        <path d="M 203 920 L 203 910" />
        <path d="M 219.6 920 L 219.6 910" />
        <path d="M 236.2 920 L 236.2 910" />
        <path d="M 252.8 920 L 252.8 910" />
        <path d="M 269.4 920 L 269.4 910" />
        <path d="M 286 920 L 286 900" />
        <text font-size="30" transform="translate(286, 950)" text-anchor="middle" dominant-baseline="middle" stroke="none" fill="black">10</text>
        <path d="M 302.6 920 L 302.6 910" />
        <path d="M 319.2 920 L 319.2 910" />
        <path d="M 335.8 920 L 335.8 910" />
        <path d="M 352.4 920 L 352.4 910" />
        <path d="M 369 920 L 369 910" />
        <path d="M 385.6 920 L 385.6 910" />
        <path d="M 402.2 920 L 402.2 910" />
        <path d="M 418.8 920 L 418.8 910" />
        <path d="M 435.4 920 L 435.4 910" />
        <path d="M 452 920 L 452 900" />
        <text font-size="30" transform="translate(452, 950)" text-anchor="middle" dominant-baseline="middle" stroke="none" fill="black">20</text>
        <path d="M 468.6 920 L 468.6 910" />
        <path d="M 485.2 920 L 485.2 910" />
        <path d="M 501.8 920 L 501.8 910" />
        <path d="M 518.4 920 L 518.4 910" />
        <path d="M 535 920 L 535 910" />
        <path d="M 551.6 920 L 551.6 910" />
        <path d="M 568.2 920 L 568.2 910" />
        <path d="M 584.8 920 L 584.8 910" />
        <path d="M 601.4 920 L 601.4 910" />
        <path d="M 618 920 L 618 900" />
        <text font-size="30" transform="translate(618, 950)" text-anchor="middle" dominant-baseline="middle" stroke="none" fill="black">30</text>
        <path d="M 634.6 920 L 634.6 910" />
        <path d="M 651.2 920 L 651.2 910" />
        <path d="M 667.8 920 L 667.8 910" />
        <path d="M 684.4 920 L 684.4 910" />
        <path d="M 701 920 L 701 910" />
        <path d="M 717.6 920 L 717.6 910" />
        <path d="M 734.2 920 L 734.2 910" />
        <path d="M 750.8 920 L 750.8 910" />
        <path d="M 767.4 920 L 767.4 910" />
        <path d="M 784 920 L 784 900" />
        <text font-size="30" transform="translate(784, 950)" text-anchor="middle" dominant-baseline="middle" stroke="none" fill="black">40</text>
        <path d="M 800.6 920 L 800.6 910" />
        <path d="M 817.2 920 L 817.2 910" />
        <path d="M 833.8 920 L 833.8 910" />
        <path d="M 850.4 920 L 850.4 910" />
        <path d="M 867 920 L 867 910" />
        <path d="M 883.6 920 L 883.6 910" />
        <path d="M 900.2 920 L 900.2 910" />
        <path d="M 916.8 920 L 916.8 910" />
        <path d="M 933.4 920 L 933.4 910" />
        <path d="M 950 920 L 950 900" />
        <text font-size="30" transform="translate(950, 950)" text-anchor="middle" dominant-baseline="middle" stroke="none" fill="black">50</text>
    </g>
    <g id="frame_0_leftticks">
        <path d="M 120 287.51 L 130 287.51" />
        <path d="M 120 920 L 140 920" />
        <text font-size="30" transform="translate(110, 930)" text-anchor="end" dominant-baseline="middle" stroke="none" fill="black">0</text>
        <path d="M 120 514.811 L 130 514.811" />
        <path d="M 120 742.112 L 130 742.112" />
        <path d="M 120 257.862 L 130 257.862" />
        <path d="M 120 336.923 L 130 336.923" />
        <path d="M 120 564.224 L 130 564.224" />
        <path d="M 120 228.214 L 140 228.214" />
        <text font-size="30" transform="translate(110, 238.214)" text-anchor="end" dominant-baseline="middle" stroke="none" fill="black">7000</text>
        <path d="M 120 159.035 L 130 159.035" />
        <path d="M 120 386.336 L 130 386.336" />
        <path d="M 120 198.566 L 130 198.566" />
        <path d="M 120 613.638 L 130 613.638" />
        <path d="M 120 840.939 L 130 840.939" />
        <path d="M 120 801.408 L 130 801.408" />
        <path d="M 120 435.75 L 130 435.75" />
        <path d="M 120 663.051 L 130 663.051" />
        <path d="M 120 771.76 L 130 771.76" />
        <path d="M 120 890.352 L 130 890.352" />
        <path d="M 120 485.163 L 130 485.163" />
        <path d="M 120 109.622 L 130 109.622" />
        <path d="M 120 712.464 L 130 712.464" />
        <path d="M 120 307.275 L 130 307.275" />
        <path d="M 120 79.9741 L 130 79.9741" />
        <path d="M 120 534.576 L 130 534.576" />
        <path d="M 120 761.877 L 130 761.877" />
        <path d="M 120 682.816 L 130 682.816" />
        <path d="M 120 356.689 L 130 356.689" />
        <path d="M 120 583.99 L 130 583.99" />
        <path d="M 120 178.801 L 130 178.801" />
        <path d="M 120 406.102 L 130 406.102" />
        <path d="M 120 633.403 L 130 633.403" />
        <path d="M 120 860.704 L 130 860.704" />
        <path d="M 120 910.117 L 130 910.117" />
        <path d="M 120 455.515 L 130 455.515" />
        <path d="M 120 50.3261 L 130 50.3261" />
        <path d="M 120 247.979 L 130 247.979" />
        <path d="M 120 277.627 L 130 277.627" />
        <path d="M 120 504.928 L 130 504.928" />
        <path d="M 120 218.331 L 130 218.331" />
        <path d="M 120 732.23 L 130 732.23" />
        <path d="M 120 327.041 L 140 327.041" />
        <text font-size="30" transform="translate(110, 337.041)" text-anchor="end" dominant-baseline="middle" stroke="none" fill="black">6000</text>
        <path d="M 120 821.173 L 140 821.173" />
        <text font-size="30" transform="translate(110, 831.173)" text-anchor="end" dominant-baseline="middle" stroke="none" fill="black">1000</text>
        <path d="M 120 554.342 L 130 554.342" />
        <path d="M 120 149.153 L 130 149.153" />
        <path d="M 120 791.525 L 130 791.525" />
        <path d="M 120 376.454 L 130 376.454" />
        <path d="M 120 603.755 L 130 603.755" />
        <path d="M 120 129.387 L 140 129.387" />
        <text font-size="30" transform="translate(110, 139.387)" text-anchor="end" dominant-baseline="middle" stroke="none" fill="black">8000</text>
        <path d="M 120 831.056 L 130 831.056" />
        <path d="M 120 425.867 L 140 425.867" />
        <text font-size="30" transform="translate(110, 435.867)" text-anchor="end" dominant-baseline="middle" stroke="none" fill="black">5000</text>
        <path d="M 120 99.7394 L 130 99.7394" />
        <path d="M 120 653.168 L 130 653.168" />
        <path d="M 120 880.469 L 130 880.469" />
        <path d="M 120 70.0914 L 130 70.0914" />
        <path d="M 120 475.28 L 130 475.28" />
        <path d="M 120 702.582 L 130 702.582" />
        <path d="M 120 297.393 L 130 297.393" />
        <path d="M 120 524.694 L 140 524.694" />
        <text font-size="30" transform="translate(110, 534.694)" text-anchor="end" dominant-baseline="middle" stroke="none" fill="black">4000</text>
        <path d="M 120 751.995 L 130 751.995" />
        <path d="M 120 346.806 L 130 346.806" />
        <path d="M 120 574.107 L 130 574.107" />
        <path d="M 120 168.918 L 130 168.918" />
        <path d="M 120 267.745 L 130 267.745" />
        <path d="M 120 396.219 L 130 396.219" />
        <path d="M 120 623.52 L 140 623.52" />
        <text font-size="30" transform="translate(110, 633.52)" text-anchor="end" dominant-baseline="middle" stroke="none" fill="black">3000</text>
        <path d="M 120 238.097 L 130 238.097" />
        <path d="M 120 850.821 L 130 850.821" />
        <path d="M 120 445.632 L 130 445.632" />
        <path d="M 120 208.449 L 130 208.449" />
        <path d="M 120 672.934 L 130 672.934" />
        <path d="M 120 900.235 L 130 900.235" />
        <path d="M 120 811.291 L 130 811.291" />
        <path d="M 120 495.046 L 130 495.046" />
        <path d="M 120 89.8568 L 130 89.8568" />
        <path d="M 120 781.643 L 130 781.643" />
        <path d="M 120 317.158 L 130 317.158" />
        <path d="M 120 544.459 L 130 544.459" />
        <path d="M 120 119.505 L 130 119.505" />
        <path d="M 120 139.27 L 130 139.27" />
        <path d="M 120 366.571 L 130 366.571" />
        <path d="M 120 722.347 L 140 722.347" />
        <text font-size="30" transform="translate(110, 732.347)" text-anchor="end" dominant-baseline="middle" stroke="none" fill="black">2000</text>
        <path d="M 120 593.872 L 130 593.872" />
        <path d="M 120 188.683 L 130 188.683" />
        <path d="M 120 692.699 L 130 692.699" />
        <path d="M 120 415.984 L 130 415.984" />
        <path d="M 120 643.286 L 130 643.286" />
        <path d="M 120 870.587 L 130 870.587" />
        <path d="M 120 465.398 L 130 465.398" />
        <path d="M 120 60.2088 L 130 60.2088" />
    </g>
    <text id="frame_0_toplabel" font-size="30" transform="translate(535, 32.6)" text-anchor="middle" dominant-baseline="middle" stroke="none" fill="black">map.symdiff</text>
    <g id="frame_0_topticks">
        <path d="M 120 50 L 120 70" />
        <path d="M 136.6 50 L 136.6 60" />
        <path d="M 153.2 50 L 153.2 60" />
        <path d="M 169.8 50 L 169.8 60" />
        <path d="M 186.4 50 L 186.4 60" />
        <path d="M 203 50 L 203 60" />
        <path d="M 219.6 50 L 219.6 60" />
        <path d="M 236.2 50 L 236.2 60" />
        <path d="M 252.8 50 L 252.8 60" />
        <path d="M 269.4 50 L 269.4 60" />
        <path d="M 286 50 L 286 70" />
        <path d="M 302.6 50 L 302.6 60" />
        <path d="M 319.2 50 L 319.2 60" />
        <path d="M 335.8 50 L 335.8 60" />
        <path d="M 352.4 50 L 352.4 60" />
        <path d="M 369 50 L 369 60" />
        <path d="M 385.6 50 L 385.6 60" />
        <path d="M 402.2 50 L 402.2 60" />
        <path d="M 418.8 50 L 418.8 60" />
        <path d="M 435.4 50 L 435.4 60" />
        <path d="M 452 50 L 452 70" />
        <path d="M 468.6 50 L 468.6 60" />
        <path d="M 485.2 50 L 485.2 60" />
        <path d="M 501.8 50 L 501.8 60" />
        <path d="M 518.4 50 L 518.4 60" />
        <path d="M 535 50 L 535 60" />
        <path d="M 551.6 50 L 551.6 60" />
        <path d="M 568.2 50 L 568.2 60" />
        <path d="M 584.8 50 L 584.8 60" />
        <path d="M 601.4 50 L 601.4 60" />
        <path d="M 618 50 L 618 70" />
        <path d="M 634.6 50 L 634.6 60" />
        <path d="M 651.2 50 L 651.2 60" />
        <path d="M 667.8 50 L 667.8 60" />
        <path d="M 684.4 50 L 684.4 60" />
        <path d="M 701 50 L 701 60" />
        <path d="M 717.6 50 L 717.6 60" />
        <path d="M 734.2 50 L 734.2 60" />
        <path d="M 750.8 50 L 750.8 60" />
        <path d="M 767.4 50 L 767.4 60" />
        <path d="M 784 50 L 784 70" />
        <path d="M 800.6 50 L 800.6 60" />
        <path d="M 817.2 50 L 817.2 60" />
        <path d="M 833.8 50 L 833.8 60" />
        <path d="M 850.4 50 L 850.4 60" />
        <path d="M 867 50 L 867 60" />
        <path d="M 883.6 50 L 883.6 60" />
        <path d="M 900.2 50 L 900.2 60" />
        <path d="M 916.8 50 L 916.8 60" />
        <path d="M 933.4 50 L 933.4 60" />
        <path d="M 950 50 L 950 70" />
    </g>
    <g id="frame_0_rightticks">
        <path d="M 950 287.51 L 940 287.51" />
        <path d="M 950 920 L 930 920" />
        <path d="M 950 514.811 L 940 514.811" />
        <path d="M 950 742.112 L 940 742.112" />
        <path d="M 950 257.862 L 940 257.862" />
        <path d="M 950 336.923 L 940 336.923" />
        <path d="M 950 564.224 L 940 564.224" />
        <path d="M 950 228.214 L 930 228.214" />
        <path d="M 950 159.035 L 940 159.035" />
        <path d="M 950 386.336 L 940 386.336" />
        <path d="M 950 198.566 L 940 198.566" />
        <path d="M 950 613.638 L 940 613.638" />
        <path d="M 950 840.939 L 940 840.939" />
        <path d="M 950 801.408 L 940 801.408" />
        <path d="M 950 435.75 L 940 435.75" />
        <path d="M 950 663.051 L 940 663.051" />
        <path d="M 950 771.76 L 940 771.76" />
        <path d="M 950 890.352 L 940 890.352" />
        <path d="M 950 485.163 L 940 485.163" />
        <path d="M 950 109.622 L 940 109.622" />
        <path d="M 950 712.464 L 940 712.464" />
        <path d="M 950 307.275 L 940 307.275" />
        <path d="M 950 79.9741 L 940 79.9741" />
        <path d="M 950 534.576 L 940 534.576" />
        <path d="M 950 761.877 L 940 761.877" />
        <path d="M 950 682.816 L 940 682.816" />
        <path d="M 950 356.689 L 940 356.689" />
        <path d="M 950 583.99 L 940 583.99" />
        <path d="M 950 178.801 L 940 178.801" />
        <path d="M 950 406.102 L 940 406.102" />
        <path d="M 950 633.403 L 940 633.403" />
        <path d="M 950 860.704 L 940 860.704" />
        <path d="M 950 910.117 L 940 910.117" />
        <path d="M 950 455.515 L 940 455.515" />
        <path d="M 950 50.3261 L 940 50.3261" />
        <path d="M 950 247.979 L 940 247.979" />
        <path d="M 950 277.627 L 940 277.627" />
        <path d="M 950 504.928 L 940 504.928" />
        <path d="M 950 218.331 L 940 218.331" />
        <path d="M 950 732.23 L 940 732.23" />
        <path d="M 950 327.041 L 930 327.041" />
        <path d="M 950 821.173 L 930 821.173" />
        <path d="M 950 554.342 L 940 554.342" />
        <path d="M 950 149.153 L 940 149.153" />
        <path d="M 950 791.525 L 940 791.525" />
        <path d="M 950 376.454 L 940 376.454" />
        <path d="M 950 603.755 L 940 603.755" />
        <path d="M 950 129.387 L 930 129.387" />
        <path d="M 950 831.056 L 940 831.056" />
        <path d="M 950 425.867 L 930 425.867" />
        <path d="M 950 99.7394 L 940 99.7394" />
        <path d="M 950 653.168 L 940 653.168" />
        <path d="M 950 880.469 L 940 880.469" />
        <path d="M 950 70.0914 L 940 70.0914" />
        <path d="M 950 475.28 L 940 475.28" />
        <path d="M 950 702.582 L 940 702.582" />
        <path d="M 950 297.393 L 940 297.393" />
        <path d="M 950 524.694 L 930 524.694" />
        <path d="M 950 751.995 L 940 751.995" />
        <path d="M 950 346.806 L 940 346.806" />
        <path d="M 950 574.107 L 940 574.107" />
        <path d="M 950 168.918 L 940 168.918" />
        <path d="M 950 267.745 L 940 267.745" />
        <path d="M 950 396.219 L 940 396.219" />
        <path d="M 950 623.52 L 930 623.52" />
        <path d="M 950 238.097 L 940 238.097" />
        <path d="M 950 850.821 L 940 850.821" />
        <path d="M 950 445.632 L 940 445.632" />
        <path d="M 950 208.449 L 940 208.449" />
        <path d="M 950 672.934 L 940 672.934" />
        <path d="M 950 900.235 L 940 900.235" />
        <path d="M 950 811.291 L 940 811.291" />
        <path d="M 950 495.046 L 940 495.046" />
        <path d="M 950 89.8568 L 940 89.8568" />
        <path d="M 950 781.643 L 940 781.643" />
        <path d="M 950 317.158 L 940 317.158" />
        <path d="M 950 544.459 L 940 544.459" />
        <path d="M 950 119.505 L 940 119.505" />
        <path d="M 950 139.27 L 940 139.27" />
        <path d="M 950 366.571 L 940 366.571" />
        <path d="M 950 722.347 L 930 722.347" />
        <path d="M 950 593.872 L 940 593.872" />
        <path d="M 950 188.683 L 940 188.683" />
        <path d="M 950 692.699 L 940 692.699" />
        <path d="M 950 415.984 L 940 415.984" />
        <path d="M 950 643.286 L 940 643.286" />
        <path d="M 950 870.587 L 940 870.587" />
        <path d="M 950 465.398 L 940 465.398" />
        <path d="M 950 60.2088 L 940 60.2088" />
    </g>
</g>
</g>
</svg>
