<?xml version="1.0" standalone="no"?>
<!DOCTYPE svg PUBLIC "-//W3C//DTD SVG 1.1//EN" "http://www.w3.org/Graphics/SVG/1.1/DTD/svg11.dtd">
<svg style="stroke-linejoin:miter; stroke:black; stroke-width:2.5; text-anchor:middle; fill:none" xmlns="http://www.w3.org/2000/svg" font-family="Helvetica, Arial, FreeSans, Sans, sans, sans-serif" width="1000px" height="1000px" version="1.1" xmlns:xlink="http://www.w3.org/1999/xlink" viewBox="0 0 1000 1000">
<defs>
    <clipPath id="Histogram_0_clip">
        <rect x="120" y="50" width="830" height="870" />
    </clipPath>
    <clipPath id="Histogram_1_clip">
        <rect x="120" y="50" width="830" height="870" />
    </clipPath>
</defs>
<g id="whole_document">
<rect id="background" x="0" y="0" width="1000" height="1000" stroke="none" fill="white" />
<g id="Histogram_0" clip-path="url(#Histogram_0_clip)">
    <path d="M 120 920 L 120 129.091 L 161.5 129.091 L 161.5 920 L 203 920 L 203 914.5 L 244.5 914.5 L 244.5 920 L 286 920 L 286 920 L 327.5 920 L 327.5 920 L 369 920 L 369 920 L 410.5 920 L 410.5 920 L 452 920 L 452 920 L 493.5 920 L 493.5 920 L 535 920 L 535 920 L 576.5 920 L 576.5 920 L 618 920 L 618 920 L 659.5 920 L 659.5 920 L 701 920 L 701 920 L 742.5 920 L 742.5 920 L 784 920 L 784 920 L 825.5 920 L 825.5 920 L 867 920 L 867 920 L 908.5 920 L 908.5 920 L 950 920 L 950 920" stroke-width="3" stroke-dasharray="" stroke="black" stroke-opacity="1" fill="DodgerBlue" fill-opacity="1" />
</g>
<g id="Histogram_1" clip-path="url(#Histogram_1_clip)">
    <path d="M 120 920 L 120 920 L 161.5 920 L 161.5 920 L 203 920 L 203 914.5 L 244.5 914.5 L 244.5 920 L 286 920 L 286 920 L 327.5 920 L 327.5 920 L 369 920 L 369 920 L 410.5 920 L 410.5 920 L 452 920 L 452 920 L 493.5 920 L 493.5 920 L 535 920 L 535 920 L 576.5 920 L 576.5 920 L 618 920 L 618 920 L 659.5 920 L 659.5 920 L 701 920 L 701 920 L 742.5 920 L 742.5 920 L 784 920 L 784 920 L 825.5 920 L 825.5 920 L 867 920 L 867 920 L 908.5 920 L 908.5 920 L 950 920 L 950 920" stroke-width="3" stroke-dasharray="" stroke="black" stroke-opacity="1" fill="darkorange" fill-opacity="1" />
</g>
<g id="frame_0">
    <rect id="frame_0_border" x="120" y="50" width="830" height="870" />
    <text id="frame_0_bottomlabel" font-size="30" transform="translate(535, 989.6)" text-anchor="middle" dominant-baseline="middle" stroke="none" fill="black">microseconds</text>
    <g id="frame_0_bottomticks">
        <path d="M 120 920 L 120 900" />
        <text font-size="30" transform="translate(120, 950)" text-anchor="middle" dominant-baseline="middle" stroke="none" fill="black">0</text>
        <path d="M 136.6 920 L 136.6 910" />
        <path d="M 153.2 920 L 153.2 910" />
        <path d="M 169.8 920 L 169.8 910" />
        <path d="M 186.4 920 L 186.4 910" />
        <path d="M 203 920 L 203 910" />
        <path d="M 219.6 920 L 219.6 910" />
        <path d="M 236.2 920 L 236.2 910" />
        <path d="M 252.8 920 L 252.8 910" />
        <path d="M 269.4 920 L 269.4 910" />
        <path d="M 286 920 L 286 900" />
        <text font-size="30" transform="translate(286, 950)" text-anchor="middle" dominant-baseline="middle" stroke="none" fill="black">10</text>
        <path d="M 302.6 920 L 302.6 910" />
        <path d="M 319.2 920 L 319.2 910" />
        <path d="M 335.8 920 L 335.8 910" />
        <path d="M 352.4 920 L 352.4 910" />
        <path d="M 369 920 L 369 910" />
        <path d="M 385.6 920 L 385.6 910" />
        <path d="M 402.2 920 L 402.2 910" />
        <path d="M 418.8 920 L 418.8 910" />
        <path d="M 435.4 920 L 435.4 910" />
        <path d="M 452 920 L 452 900" />
        <text font-size="30" transform="translate(452, 950)" text-anchor="middle" dominant-baseline="middle" stroke="none" fill="black">20</text>
        <path d="M 468.6 920 L 468.6 910" />
        <path d="M 485.2 920 L 485.2 910" />
        <path d="M 501.8 920 L 501.8 910" />
        <path d="M 518.4 920 L 518.4 910" />
        <path d="M 535 920 L 535 910" />
        <path d="M 551.6 920 L 551.6 910" />
        <path d="M 568.2 920 L 568.2 910" />
        <path d="M 584.8 920 L 584.8 910" />
        <path d="M 601.4 920 L 601.4 910" />
        <path d="M 618 920 L 618 900" />
        <text font-size="30" transform="translate(618, 950)" text-anchor="middle" dominant-baseline="middle" stroke="none" fill="black">30</text>
        <path d="M 634.6 920 L 634.6 910" />
        <path d="M 651.2 920 L 651.2 910" />
        <path d="M 667.8 920 L 667.8 910" />
        <path d="M 684.4 920 L 684.4 910" />
        <path d="M 701 920 L 701 910" />
        <path d="M 717.6 920 L 717.6 910" />
        <path d="M 734.2 920 L 734.2 910" />
        <path d="M 750.8 920 L 750.8 910" />
        <path d="M 767.4 920 L 767.4 910" />
        <path d="M 784 920 L 784 900" />
        <text font-size="30" transform="translate(784, 950)" text-anchor="middle" dominant-baseline="middle" stroke="none" fill="black">40</text>
        <path d="M 800.6 920 L 800.6 910" />
        <path d="M 817.2 920 L 817.2 910" />
        <path d="M 833.8 920 L 833.8 910" />
        <path d="M 850.4 920 L 850.4 910" />
        <path d="M 867 920 L 867 910" />
        <path d="M 883.6 920 L 883.6 910" />
        <path d="M 900.2 920 L 900.2 910" />
        <path d="M 916.8 920 L 916.8 910" />
        <path d="M 933.4 920 L 933.4 910" />
        <path d="M 950 920 L 950 900" />
        <text font-size="30" transform="translate(950, 950)" text-anchor="middle" dominant-baseline="middle" stroke="none" fill="black">50</text>
    </g>
    <g id="frame_0_leftticks">
        <path d="M 120 623.724 L 130 623.724" />
        <path d="M 120 475.586 L 130 475.586" />
        <path d="M 120 420.034 L 130 420.034" />
        <path d="M 120 531.138 L 130 531.138" />
        <path d="M 120 290.413 L 130 290.413" />
        <path d="M 120 438.551 L 130 438.551" />
        <path d="M 120 790.379 L 130 790.379" />
        <path d="M 120 642.241 L 130 642.241" />
        <path d="M 120 920 L 140 920" />
        <text font-size="30" transform="translate(110, 930)" text-anchor="end" dominant-baseline="middle" stroke="none" fill="black">0</text>
        <path d="M 120 383 L 130 383" />
        <path d="M 120 345.965 L 130 345.965" />
        <path d="M 120 197.827 L 130 197.827" />
        <path d="M 120 845.931 L 130 845.931" />
        <path d="M 120 512.62 L 130 512.62" />
        <path d="M 120 105.241 L 130 105.241" />
        <path d="M 120 734.827 L 140 734.827" />
        <text font-size="30" transform="translate(110, 744.827)" text-anchor="end" dominant-baseline="middle" stroke="none" fill="black">10000</text>
        <path d="M 120 549.655 L 140 549.655" />
        <text font-size="30" transform="translate(110, 559.655)" text-anchor="end" dominant-baseline="middle" stroke="none" fill="black">20000</text>
        <path d="M 120 753.345 L 130 753.345" />
        <path d="M 120 253.379 L 130 253.379" />
        <path d="M 120 660.758 L 130 660.758" />
        <path d="M 120 827.414 L 130 827.414" />
        <path d="M 120 160.792 L 130 160.792" />
        <path d="M 120 568.172 L 130 568.172" />
        <path d="M 120 308.931 L 130 308.931" />
        <path d="M 120 771.862 L 130 771.862" />
        <path d="M 120 401.517 L 130 401.517" />
        <path d="M 120 457.069 L 130 457.069" />
        <path d="M 120 679.276 L 130 679.276" />
        <path d="M 120 216.344 L 130 216.344" />
        <path d="M 120 364.482 L 140 364.482" />
        <text font-size="30" transform="translate(110, 374.482)" text-anchor="end" dominant-baseline="middle" stroke="none" fill="black">30000</text>
        <path d="M 120 882.965 L 130 882.965" />
        <path d="M 120 864.448 L 130 864.448" />
        <path d="M 120 123.758 L 130 123.758" />
        <path d="M 120 494.103 L 130 494.103" />
        <path d="M 120 271.896 L 130 271.896" />
        <path d="M 120 697.793 L 130 697.793" />
        <path d="M 120 586.689 L 130 586.689" />
        <path d="M 120 901.483 L 130 901.483" />
        <path d="M 120 142.275 L 130 142.275" />
        <path d="M 120 327.448 L 130 327.448" />
        <path d="M 120 808.896 L 130 808.896" />
        <path d="M 120 605.207 L 130 605.207" />
        <path d="M 120 179.31 L 140 179.31" />
        <text font-size="30" transform="translate(110, 189.31)" text-anchor="end" dominant-baseline="middle" stroke="none" fill="black">40000</text>
        <path d="M 120 86.7234 L 130 86.7234" />
        <path d="M 120 716.31 L 130 716.31" />
        <path d="M 120 234.861 L 130 234.861" />
        <path d="M 120 68.2062 L 130 68.2062" />
    </g>
    <text id="frame_0_toplabel" font-size="30" transform="translate(535, 32.6)" text-anchor="middle" dominant-baseline="middle" stroke="none" fill="black">u-</text>
    <g id="frame_0_topticks">
        <path d="M 120 50 L 120 70" />
        <path d="M 136.6 50 L 136.6 60" />
        <path d="M 153.2 50 L 153.2 60" />
        <path d="M 169.8 50 L 169.8 60" />
        <path d="M 186.4 50 L 186.4 60" />
        <path d="M 203 50 L 203 60" />
        <path d="M 219.6 50 L 219.6 60" />
        <path d="M 236.2 50 L 236.2 60" />
        <path d="M 252.8 50 L 252.8 60" />
        <path d="M 269.4 50 L 269.4 60" />
        <path d="M 286 50 L 286 70" />
        <path d="M 302.6 50 L 302.6 60" />
        <path d="M 319.2 50 L 319.2 60" />
        <path d="M 335.8 50 L 335.8 60" />
        <path d="M 352.4 50 L 352.4 60" />
        <path d="M 369 50 L 369 60" />
        <path d="M 385.6 50 L 385.6 60" />
        <path d="M 402.2 50 L 402.2 60" />
        <path d="M 418.8 50 L 418.8 60" />
        <path d="M 435.4 50 L 435.4 60" />
        <path d="M 452 50 L 452 70" />
        <path d="M 468.6 50 L 468.6 60" />
        <path d="M 485.2 50 L 485.2 60" />
        <path d="M 501.8 50 L 501.8 60" />
        <path d="M 518.4 50 L 518.4 60" />
        <path d="M 535 50 L 535 60" />
        <path d="M 551.6 50 L 551.6 60" />
        <path d="M 568.2 50 L 568.2 60" />
        <path d="M 584.8 50 L 584.8 60" />
        <path d="M 601.4 50 L 601.4 60" />
        <path d="M 618 50 L 618 70" />
        <path d="M 634.6 50 L 634.6 60" />
        <path d="M 651.2 50 L 651.2 60" />
        <path d="M 667.8 50 L 667.8 60" />
        <path d="M 684.4 50 L 684.4 60" />
        <path d="M 701 50 L 701 60" />
        <path d="M 717.6 50 L 717.6 60" />
        <path d="M 734.2 50 L 734.2 60" />
        <path d="M 750.8 50 L 750.8 60" />
        <path d="M 767.4 50 L 767.4 60" />
        <path d="M 784 50 L 784 70" />
        <path d="M 800.6 50 L 800.6 60" />
        <path d="M 817.2 50 L 817.2 60" />
        <path d="M 833.8 50 L 833.8 60" />
        <path d="M 850.4 50 L 850.4 60" />
        <path d="M 867 50 L 867 60" />
        <path d="M 883.6 50 L 883.6 60" />
        <path d="M 900.2 50 L 900.2 60" />
        <path d="M 916.8 50 L 916.8 60" />
        <path d="M 933.4 50 L 933.4 60" />
        <path d="M 950 50 L 950 70" />
    </g>
    <g id="frame_0_rightticks">
        <path d="M 950 623.724 L 940 623.724" />
        <path d="M 950 475.586 L 940 475.586" />
        <path d="M 950 420.034 L 940 420.034" />
        <path d="M 950 531.138 L 940 531.138" />
        <path d="M 950 290.413 L 940 290.413" />
        <path d="M 950 438.551 L 940 438.551" />
        <path d="M 950 790.379 L 940 790.379" />
        <path d="M 950 642.241 L 940 642.241" />
        <path d="M 950 920 L 930 920" />
        <path d="M 950 383 L 940 383" />
        <path d="M 950 345.965 L 940 345.965" />
        <path d="M 950 197.827 L 940 197.827" />
        <path d="M 950 845.931 L 940 845.931" />
        <path d="M 950 512.62 L 940 512.62" />
        <path d="M 950 105.241 L 940 105.241" />
        <path d="M 950 734.827 L 930 734.827" />
        <path d="M 950 549.655 L 930 549.655" />
        <path d="M 950 753.345 L 940 753.345" />
        <path d="M 950 253.379 L 940 253.379" />
        <path d="M 950 660.758 L 940 660.758" />
        <path d="M 950 827.414 L 940 827.414" />
        <path d="M 950 160.792 L 940 160.792" />
        <path d="M 950 568.172 L 940 568.172" />
        <path d="M 950 308.931 L 940 308.931" />
        <path d="M 950 771.862 L 940 771.862" />
        <path d="M 950 401.517 L 940 401.517" />
        <path d="M 950 457.069 L 940 457.069" />
        <path d="M 950 679.276 L 940 679.276" />
        <path d="M 950 216.344 L 940 216.344" />
        <path d="M 950 364.482 L 930 364.482" />
        <path d="M 950 882.965 L 940 882.965" />
        <path d="M 950 864.448 L 940 864.448" />
        <path d="M 950 123.758 L 940 123.758" />
        <path d="M 950 494.103 L 940 494.103" />
        <path d="M 950 271.896 L 940 271.896" />
        <path d="M 950 697.793 L 940 697.793" />
        <path d="M 950 586.689 L 940 586.689" />
        <path d="M 950 901.483 L 940 901.483" />
        <path d="M 950 142.275 L 940 142.275" />
        <path d="M 950 327.448 L 940 327.448" />
        <path d="M 950 808.896 L 940 808.896" />
        <path d="M 950 605.207 L 940 605.207" />
        <path d="M 950 179.31 L 930 179.31" />
        <path d="M 950 86.7234 L 940 86.7234" />
        <path d="M 950 716.31 L 940 716.31" />
        <path d="M 950 234.861 L 940 234.861" />
        <path d="M 950 68.2062 L 940 68.2062" />
    </g>
</g>
</g>
</svg>
