<?xml version="1.0" standalone="no"?>
<!DOCTYPE svg PUBLIC "-//W3C//DTD SVG 1.1//EN" "http://www.w3.org/Graphics/SVG/1.1/DTD/svg11.dtd">
<svg style="stroke-linejoin:miter; stroke:black; stroke-width:2.5; text-anchor:middle; fill:none" xmlns="http://www.w3.org/2000/svg" font-family="Helvetica, Arial, FreeSans, Sans, sans, sans-serif" width="1000px" height="1000px" version="1.1" xmlns:xlink="http://www.w3.org/1999/xlink" viewBox="0 0 1000 1000">
<defs>
    <clipPath id="Histogram_0_clip">
        <rect x="120" y="50" width="830" height="870" />
    </clipPath>
</defs>
<g id="whole_document">
<rect id="background" x="0" y="0" width="1000" height="1000" stroke="none" fill="white" />
<g id="Histogram_0" clip-path="url(#Histogram_0_clip)">
    <path d="M 120 920 L 120 129.091 L 161.5 129.091 L 161.5 812.331 L 203 812.331 L 203 920 L 244.5 920 L 244.5 920 L 286 920 L 286 920 L 327.5 920 L 327.5 920 L 369 920 L 369 920 L 410.5 920 L 410.5 920 L 452 920 L 452 920 L 493.5 920 L 493.5 920 L 535 920 L 535 920 L 576.5 920 L 576.5 920 L 618 920 L 618 920 L 659.5 920 L 659.5 920 L 701 920 L 701 920 L 742.5 920 L 742.5 920 L 784 920 L 784 920 L 825.5 920 L 825.5 920 L 867 920 L 867 920 L 908.5 920 L 908.5 920 L 950 920 L 950 920" stroke-width="3" stroke-dasharray="" stroke="black" stroke-opacity="1" fill="DodgerBlue" fill-opacity="1" />
</g>
<g id="frame_0">
    <rect id="frame_0_border" x="120" y="50" width="830" height="870" />
    <text id="frame_0_bottomlabel" font-size="30" transform="translate(535, 989.6)" text-anchor="middle" dominant-baseline="middle" stroke="none" fill="black">microseconds</text>
    <g id="frame_0_bottomticks">
        <path d="M 120 920 L 120 900" />
        <text font-size="30" transform="translate(120, 950)" text-anchor="middle" dominant-baseline="middle" stroke="none" fill="black">0</text>
        <path d="M 136.6 920 L 136.6 910" />
        <path d="M 153.2 920 L 153.2 910" />
        <path d="M 169.8 920 L 169.8 910" />
        <path d="M 186.4 920 L 186.4 910" />
        <path d="M 203 920 L 203 910" />
        <path d="M 219.6 920 L 219.6 910" />
        <path d="M 236.2 920 L 236.2 910" />
        <path d="M 252.8 920 L 252.8 910" />
        <path d="M 269.4 920 L 269.4 910" />
        <path d="M 286 920 L 286 900" />
        <text font-size="30" transform="translate(286, 950)" text-anchor="middle" dominant-baseline="middle" stroke="none" fill="black">10</text>
        <path d="M 302.6 920 L 302.6 910" />
        <path d="M 319.2 920 L 319.2 910" />
        <path d="M 335.8 920 L 335.8 910" />
        <path d="M 352.4 920 L 352.4 910" />
        <path d="M 369 920 L 369 910" />
        <path d="M 385.6 920 L 385.6 910" />
        <path d="M 402.2 920 L 402.2 910" />
        <path d="M 418.8 920 L 418.8 910" />
        <path d="M 435.4 920 L 435.4 910" />
        <path d="M 452 920 L 452 900" />
        <text font-size="30" transform="translate(452, 950)" text-anchor="middle" dominant-baseline="middle" stroke="none" fill="black">20</text>
        <path d="M 468.6 920 L 468.6 910" />
        <path d="M 485.2 920 L 485.2 910" />
        <path d="M 501.8 920 L 501.8 910" />
        <path d="M 518.4 920 L 518.4 910" />
        <path d="M 535 920 L 535 910" />
        <path d="M 551.6 920 L 551.6 910" />
        <path d="M 568.2 920 L 568.2 910" />
        <path d="M 584.8 920 L 584.8 910" />
        <path d="M 601.4 920 L 601.4 910" />
        <path d="M 618 920 L 618 900" />
        <text font-size="30" transform="translate(618, 950)" text-anchor="middle" dominant-baseline="middle" stroke="none" fill="black">30</text>
        <path d="M 634.6 920 L 634.6 910" />
        <path d="M 651.2 920 L 651.2 910" />
        <path d="M 667.8 920 L 667.8 910" />
        <path d="M 684.4 920 L 684.4 910" />
        <path d="M 701 920 L 701 910" />
        <path d="M 717.6 920 L 717.6 910" />
        <path d="M 734.2 920 L 734.2 910" />
        <path d="M 750.8 920 L 750.8 910" />
        <path d="M 767.4 920 L 767.4 910" />
        <path d="M 784 920 L 784 900" />
        <text font-size="30" transform="translate(784, 950)" text-anchor="middle" dominant-baseline="middle" stroke="none" fill="black">40</text>
        <path d="M 800.6 920 L 800.6 910" />
        <path d="M 817.2 920 L 817.2 910" />
        <path d="M 833.8 920 L 833.8 910" />
        <path d="M 850.4 920 L 850.4 910" />
        <path d="M 867 920 L 867 910" />
        <path d="M 883.6 920 L 883.6 910" />
        <path d="M 900.2 920 L 900.2 910" />
        <path d="M 916.8 920 L 916.8 910" />
        <path d="M 933.4 920 L 933.4 910" />
        <path d="M 950 920 L 950 900" />
        <text font-size="30" transform="translate(950, 950)" text-anchor="middle" dominant-baseline="middle" stroke="none" fill="black">50</text>
    </g>
    <g id="frame_0_leftticks">
        <path d="M 120 654.683 L 130 654.683" />
        <path d="M 120 522.025 L 130 522.025" />
        <path d="M 120 472.278 L 130 472.278" />
        <path d="M 120 571.772 L 130 571.772" />
        <path d="M 120 356.202 L 130 356.202" />
        <path d="M 120 488.86 L 130 488.86" />
        <path d="M 120 803.924 L 130 803.924" />
        <path d="M 120 140.632 L 130 140.632" />
        <path d="M 120 671.266 L 130 671.266" />
        <path d="M 120 920 L 140 920" />
        <text font-size="30" transform="translate(110, 930)" text-anchor="end" dominant-baseline="middle" stroke="none" fill="black">0</text>
        <path d="M 120 439.113 L 130 439.113" />
        <path d="M 120 405.949 L 130 405.949" />
        <path d="M 120 273.291 L 130 273.291" />
        <path d="M 120 853.671 L 130 853.671" />
        <path d="M 120 555.19 L 130 555.19" />
        <path d="M 120 190.379 L 130 190.379" />
        <path d="M 120 754.177 L 140 754.177" />
        <text font-size="30" transform="translate(110, 764.177)" text-anchor="end" dominant-baseline="middle" stroke="none" fill="black">10000</text>
        <path d="M 120 588.354 L 140 588.354" />
        <text font-size="30" transform="translate(110, 598.354)" text-anchor="end" dominant-baseline="middle" stroke="none" fill="black">20000</text>
        <path d="M 120 770.759 L 130 770.759" />
        <path d="M 120 422.531 L 140 422.531" />
        <text font-size="30" transform="translate(110, 432.531)" text-anchor="end" dominant-baseline="middle" stroke="none" fill="black">30000</text>
        <path d="M 120 323.037 L 130 323.037" />
        <path d="M 120 687.848 L 130 687.848" />
        <path d="M 120 837.089 L 130 837.089" />
        <path d="M 120 240.126 L 130 240.126" />
        <path d="M 120 604.936 L 130 604.936" />
        <path d="M 120 107.468 L 130 107.468" />
        <path d="M 120 372.784 L 130 372.784" />
        <path d="M 120 787.342 L 130 787.342" />
        <path d="M 120 455.696 L 130 455.696" />
        <path d="M 120 505.443 L 130 505.443" />
        <path d="M 120 704.43 L 130 704.43" />
        <path d="M 120 289.873 L 130 289.873" />
        <path d="M 120 57.7207 L 130 57.7207" />
        <path d="M 120 74.303 L 130 74.303" />
        <path d="M 120 886.835 L 130 886.835" />
        <path d="M 120 870.253 L 130 870.253" />
        <path d="M 120 206.961 L 130 206.961" />
        <path d="M 120 538.607 L 130 538.607" />
        <path d="M 120 339.62 L 130 339.62" />
        <path d="M 120 721.012 L 130 721.012" />
        <path d="M 120 621.519 L 130 621.519" />
        <path d="M 120 124.05 L 130 124.05" />
        <path d="M 120 903.418 L 130 903.418" />
        <path d="M 120 223.544 L 130 223.544" />
        <path d="M 120 389.367 L 130 389.367" />
        <path d="M 120 820.506 L 130 820.506" />
        <path d="M 120 638.101 L 130 638.101" />
        <path d="M 120 256.708 L 140 256.708" />
        <text font-size="30" transform="translate(110, 266.708)" text-anchor="end" dominant-baseline="middle" stroke="none" fill="black">40000</text>
        <path d="M 120 173.797 L 130 173.797" />
        <path d="M 120 90.8853 L 140 90.8853" />
        <text font-size="30" transform="translate(110, 100.885)" text-anchor="end" dominant-baseline="middle" stroke="none" fill="black">50000</text>
        <path d="M 120 737.595 L 130 737.595" />
        <path d="M 120 306.455 L 130 306.455" />
        <path d="M 120 157.214 L 130 157.214" />
    </g>
    <text id="frame_0_toplabel" font-size="30" transform="translate(535, 32.6)" text-anchor="middle" dominant-baseline="middle" stroke="none" fill="black">m.link.relu</text>
    <g id="frame_0_topticks">
        <path d="M 120 50 L 120 70" />
        <path d="M 136.6 50 L 136.6 60" />
        <path d="M 153.2 50 L 153.2 60" />
        <path d="M 169.8 50 L 169.8 60" />
        <path d="M 186.4 50 L 186.4 60" />
        <path d="M 203 50 L 203 60" />
        <path d="M 219.6 50 L 219.6 60" />
        <path d="M 236.2 50 L 236.2 60" />
        <path d="M 252.8 50 L 252.8 60" />
        <path d="M 269.4 50 L 269.4 60" />
        <path d="M 286 50 L 286 70" />
        <path d="M 302.6 50 L 302.6 60" />
        <path d="M 319.2 50 L 319.2 60" />
        <path d="M 335.8 50 L 335.8 60" />
        <path d="M 352.4 50 L 352.4 60" />
        <path d="M 369 50 L 369 60" />
        <path d="M 385.6 50 L 385.6 60" />
        <path d="M 402.2 50 L 402.2 60" />
        <path d="M 418.8 50 L 418.8 60" />
        <path d="M 435.4 50 L 435.4 60" />
        <path d="M 452 50 L 452 70" />
        <path d="M 468.6 50 L 468.6 60" />
        <path d="M 485.2 50 L 485.2 60" />
        <path d="M 501.8 50 L 501.8 60" />
        <path d="M 518.4 50 L 518.4 60" />
        <path d="M 535 50 L 535 60" />
        <path d="M 551.6 50 L 551.6 60" />
        <path d="M 568.2 50 L 568.2 60" />
        <path d="M 584.8 50 L 584.8 60" />
        <path d="M 601.4 50 L 601.4 60" />
        <path d="M 618 50 L 618 70" />
        <path d="M 634.6 50 L 634.6 60" />
        <path d="M 651.2 50 L 651.2 60" />
        <path d="M 667.8 50 L 667.8 60" />
        <path d="M 684.4 50 L 684.4 60" />
        <path d="M 701 50 L 701 60" />
        <path d="M 717.6 50 L 717.6 60" />
        <path d="M 734.2 50 L 734.2 60" />
        <path d="M 750.8 50 L 750.8 60" />
        <path d="M 767.4 50 L 767.4 60" />
        <path d="M 784 50 L 784 70" />
        <path d="M 800.6 50 L 800.6 60" />
        <path d="M 817.2 50 L 817.2 60" />
        <path d="M 833.8 50 L 833.8 60" />
        <path d="M 850.4 50 L 850.4 60" />
        <path d="M 867 50 L 867 60" />
        <path d="M 883.6 50 L 883.6 60" />
        <path d="M 900.2 50 L 900.2 60" />
        <path d="M 916.8 50 L 916.8 60" />
        <path d="M 933.4 50 L 933.4 60" />
        <path d="M 950 50 L 950 70" />
    </g>
    <g id="frame_0_rightticks">
        <path d="M 950 654.683 L 940 654.683" />
        <path d="M 950 522.025 L 940 522.025" />
        <path d="M 950 472.278 L 940 472.278" />
        <path d="M 950 571.772 L 940 571.772" />
        <path d="M 950 356.202 L 940 356.202" />
        <path d="M 950 488.86 L 940 488.86" />
        <path d="M 950 803.924 L 940 803.924" />
        <path d="M 950 140.632 L 940 140.632" />
        <path d="M 950 671.266 L 940 671.266" />
        <path d="M 950 920 L 930 920" />
        <path d="M 950 439.113 L 940 439.113" />
        <path d="M 950 405.949 L 940 405.949" />
        <path d="M 950 273.291 L 940 273.291" />
        <path d="M 950 853.671 L 940 853.671" />
        <path d="M 950 555.19 L 940 555.19" />
        <path d="M 950 190.379 L 940 190.379" />
        <path d="M 950 754.177 L 930 754.177" />
        <path d="M 950 588.354 L 930 588.354" />
        <path d="M 950 770.759 L 940 770.759" />
        <path d="M 950 422.531 L 930 422.531" />
        <path d="M 950 323.037 L 940 323.037" />
        <path d="M 950 687.848 L 940 687.848" />
        <path d="M 950 837.089 L 940 837.089" />
        <path d="M 950 240.126 L 940 240.126" />
        <path d="M 950 604.936 L 940 604.936" />
        <path d="M 950 107.468 L 940 107.468" />
        <path d="M 950 372.784 L 940 372.784" />
        <path d="M 950 787.342 L 940 787.342" />
        <path d="M 950 455.696 L 940 455.696" />
        <path d="M 950 505.443 L 940 505.443" />
        <path d="M 950 704.43 L 940 704.43" />
        <path d="M 950 289.873 L 940 289.873" />
        <path d="M 950 57.7207 L 940 57.7207" />
        <path d="M 950 74.303 L 940 74.303" />
        <path d="M 950 886.835 L 940 886.835" />
        <path d="M 950 870.253 L 940 870.253" />
        <path d="M 950 206.961 L 940 206.961" />
        <path d="M 950 538.607 L 940 538.607" />
        <path d="M 950 339.62 L 940 339.62" />
        <path d="M 950 721.012 L 940 721.012" />
        <path d="M 950 621.519 L 940 621.519" />
        <path d="M 950 124.05 L 940 124.05" />
        <path d="M 950 903.418 L 940 903.418" />
        <path d="M 950 223.544 L 940 223.544" />
        <path d="M 950 389.367 L 940 389.367" />
        <path d="M 950 820.506 L 940 820.506" />
        <path d="M 950 638.101 L 940 638.101" />
        <path d="M 950 256.708 L 930 256.708" />
        <path d="M 950 173.797 L 940 173.797" />
        <path d="M 950 90.8853 L 930 90.8853" />
        <path d="M 950 737.595 L 940 737.595" />
        <path d="M 950 306.455 L 940 306.455" />
        <path d="M 950 157.214 L 940 157.214" />
    </g>
</g>
</g>
</svg>
