<?xml version="1.0" standalone="no"?>
<!DOCTYPE svg PUBLIC "-//W3C//DTD SVG 1.1//EN" "http://www.w3.org/Graphics/SVG/1.1/DTD/svg11.dtd">
<svg style="stroke-linejoin:miter; stroke:black; stroke-width:2.5; text-anchor:middle; fill:none" xmlns="http://www.w3.org/2000/svg" font-family="Helvetica, Arial, FreeSans, Sans, sans, sans-serif" width="1000px" height="1000px" version="1.1" xmlns:xlink="http://www.w3.org/1999/xlink" viewBox="0 0 1000 1000">
<defs>
    <clipPath id="Histogram_0_clip">
        <rect x="120" y="50" width="830" height="870" />
    </clipPath>
    <clipPath id="Histogram_1_clip">
        <rect x="120" y="50" width="830" height="870" />
    </clipPath>
</defs>
<g id="whole_document">
<rect id="background" x="0" y="0" width="1000" height="1000" stroke="none" fill="white" />
<g id="Histogram_0" clip-path="url(#Histogram_0_clip)">
    <path d="M 120 920 L 120 297.802 L 161.5 297.802 L 161.5 858.386 L 203 858.386 L 203 920 L 244.5 920 L 244.5 129.091 L 286 129.091 L 286 911.015 L 327.5 911.015 L 327.5 913.003 L 369 913.003 L 369 918.012 L 410.5 918.012 L 410.5 920 L 452 920 L 452 919.212 L 493.5 919.212 L 493.5 920 L 535 920 L 535 920 L 576.5 920 L 576.5 920 L 618 920 L 618 920 L 659.5 920 L 659.5 920 L 701 920 L 701 920 L 742.5 920 L 742.5 920 L 784 920 L 784 920 L 825.5 920 L 825.5 920 L 867 920 L 867 920 L 908.5 920 L 908.5 920 L 950 920 L 950 920" stroke-width="3" stroke-dasharray="" stroke="black" stroke-opacity="1" fill="DodgerBlue" fill-opacity="1" />
</g>
<g id="Histogram_1" clip-path="url(#Histogram_1_clip)">
    <path d="M 120 920 L 120 920 L 161.5 920 L 161.5 920 L 203 920 L 203 920 L 244.5 920 L 244.5 129.091 L 286 129.091 L 286 911.015 L 327.5 911.015 L 327.5 913.003 L 369 913.003 L 369 918.012 L 410.5 918.012 L 410.5 920 L 452 920 L 452 919.212 L 493.5 919.212 L 493.5 920 L 535 920 L 535 920 L 576.5 920 L 576.5 920 L 618 920 L 618 920 L 659.5 920 L 659.5 920 L 701 920 L 701 920 L 742.5 920 L 742.5 920 L 784 920 L 784 920 L 825.5 920 L 825.5 920 L 867 920 L 867 920 L 908.5 920 L 908.5 920 L 950 920 L 950 920" stroke-width="3" stroke-dasharray="" stroke="black" stroke-opacity="1" fill="darkorange" fill-opacity="1" />
</g>
<g id="frame_0">
    <rect id="frame_0_border" x="120" y="50" width="830" height="870" />
    <text id="frame_0_bottomlabel" font-size="30" transform="translate(535, 989.6)" text-anchor="middle" dominant-baseline="middle" stroke="none" fill="black">microseconds</text>
    <g id="frame_0_bottomticks">
        <path d="M 120 920 L 120 900" />
        <text font-size="30" transform="translate(120, 950)" text-anchor="middle" dominant-baseline="middle" stroke="none" fill="black">0</text>
        <path d="M 136.6 920 L 136.6 910" />
        <path d="M 153.2 920 L 153.2 910" />
        <path d="M 169.8 920 L 169.8 910" />
        <path d="M 186.4 920 L 186.4 910" />
        <path d="M 203 920 L 203 910" />
        <path d="M 219.6 920 L 219.6 910" />
        <path d="M 236.2 920 L 236.2 910" />
        <path d="M 252.8 920 L 252.8 910" />
        <path d="M 269.4 920 L 269.4 910" />
        <path d="M 286 920 L 286 900" />
        <text font-size="30" transform="translate(286, 950)" text-anchor="middle" dominant-baseline="middle" stroke="none" fill="black">10</text>
        <path d="M 302.6 920 L 302.6 910" />
        <path d="M 319.2 920 L 319.2 910" />
        <path d="M 335.8 920 L 335.8 910" />
        <path d="M 352.4 920 L 352.4 910" />
        <path d="M 369 920 L 369 910" />
        <path d="M 385.6 920 L 385.6 910" />
        <path d="M 402.2 920 L 402.2 910" />
        <path d="M 418.8 920 L 418.8 910" />
        <path d="M 435.4 920 L 435.4 910" />
        <path d="M 452 920 L 452 900" />
        <text font-size="30" transform="translate(452, 950)" text-anchor="middle" dominant-baseline="middle" stroke="none" fill="black">20</text>
        <path d="M 468.6 920 L 468.6 910" />
        <path d="M 485.2 920 L 485.2 910" />
        <path d="M 501.8 920 L 501.8 910" />
        <path d="M 518.4 920 L 518.4 910" />
        <path d="M 535 920 L 535 910" />
        <path d="M 551.6 920 L 551.6 910" />
        <path d="M 568.2 920 L 568.2 910" />
        <path d="M 584.8 920 L 584.8 910" />
        <path d="M 601.4 920 L 601.4 910" />
        <path d="M 618 920 L 618 900" />
        <text font-size="30" transform="translate(618, 950)" text-anchor="middle" dominant-baseline="middle" stroke="none" fill="black">30</text>
        <path d="M 634.6 920 L 634.6 910" />
        <path d="M 651.2 920 L 651.2 910" />
        <path d="M 667.8 920 L 667.8 910" />
        <path d="M 684.4 920 L 684.4 910" />
        <path d="M 701 920 L 701 910" />
        <path d="M 717.6 920 L 717.6 910" />
        <path d="M 734.2 920 L 734.2 910" />
        <path d="M 750.8 920 L 750.8 910" />
        <path d="M 767.4 920 L 767.4 910" />
        <path d="M 784 920 L 784 900" />
        <text font-size="30" transform="translate(784, 950)" text-anchor="middle" dominant-baseline="middle" stroke="none" fill="black">40</text>
        <path d="M 800.6 920 L 800.6 910" />
        <path d="M 817.2 920 L 817.2 910" />
        <path d="M 833.8 920 L 833.8 910" />
        <path d="M 850.4 920 L 850.4 910" />
        <path d="M 867 920 L 867 910" />
        <path d="M 883.6 920 L 883.6 910" />
        <path d="M 900.2 920 L 900.2 910" />
        <path d="M 916.8 920 L 916.8 910" />
        <path d="M 933.4 920 L 933.4 910" />
        <path d="M 950 920 L 950 900" />
        <text font-size="30" transform="translate(950, 950)" text-anchor="middle" dominant-baseline="middle" stroke="none" fill="black">50</text>
    </g>
    <g id="frame_0_leftticks">
        <path d="M 120 657.185 L 130 657.185" />
        <path d="M 120 525.777 L 130 525.777" />
        <path d="M 120 476.5 L 130 476.5" />
        <path d="M 120 575.055 L 130 575.055" />
        <path d="M 120 361.518 L 130 361.518" />
        <path d="M 120 492.926 L 130 492.926" />
        <path d="M 120 805.018 L 130 805.018" />
        <path d="M 120 147.981 L 130 147.981" />
        <path d="M 120 673.611 L 130 673.611" />
        <path d="M 120 920 L 140 920" />
        <text font-size="30" transform="translate(110, 930)" text-anchor="end" dominant-baseline="middle" stroke="none" fill="black">0</text>
        <path d="M 120 443.648 L 130 443.648" />
        <path d="M 120 410.796 L 130 410.796" />
        <path d="M 120 279.388 L 130 279.388" />
        <path d="M 120 854.296 L 130 854.296" />
        <path d="M 120 558.629 L 130 558.629" />
        <path d="M 120 197.259 L 130 197.259" />
        <path d="M 120 755.741 L 140 755.741" />
        <text font-size="30" transform="translate(110, 765.741)" text-anchor="end" dominant-baseline="middle" stroke="none" fill="black">10000</text>
        <path d="M 120 591.481 L 140 591.481" />
        <text font-size="30" transform="translate(110, 601.481)" text-anchor="end" dominant-baseline="middle" stroke="none" fill="black">20000</text>
        <path d="M 120 772.167 L 130 772.167" />
        <path d="M 120 427.222 L 140 427.222" />
        <text font-size="30" transform="translate(110, 437.222)" text-anchor="end" dominant-baseline="middle" stroke="none" fill="black">30000</text>
        <path d="M 120 328.666 L 130 328.666" />
        <path d="M 120 690.037 L 130 690.037" />
        <path d="M 120 837.87 L 130 837.87" />
        <path d="M 120 246.536 L 130 246.536" />
        <path d="M 120 607.907 L 130 607.907" />
        <path d="M 120 115.129 L 130 115.129" />
        <path d="M 120 377.944 L 130 377.944" />
        <path d="M 120 788.592 L 130 788.592" />
        <path d="M 120 460.074 L 130 460.074" />
        <path d="M 120 509.351 L 130 509.351" />
        <path d="M 120 706.463 L 130 706.463" />
        <path d="M 120 295.814 L 130 295.814" />
        <path d="M 120 65.851 L 130 65.851" />
        <path d="M 120 82.277 L 130 82.277" />
        <path d="M 120 887.148 L 130 887.148" />
        <path d="M 120 870.722 L 130 870.722" />
        <path d="M 120 213.685 L 130 213.685" />
        <path d="M 120 542.203 L 130 542.203" />
        <path d="M 120 345.092 L 130 345.092" />
        <path d="M 120 722.889 L 130 722.889" />
        <path d="M 120 624.333 L 130 624.333" />
        <path d="M 120 131.555 L 130 131.555" />
        <path d="M 120 903.574 L 130 903.574" />
        <path d="M 120 230.11 L 130 230.11" />
        <path d="M 120 394.37 L 130 394.37" />
        <path d="M 120 821.444 L 130 821.444" />
        <path d="M 120 640.759 L 130 640.759" />
        <path d="M 120 262.962 L 140 262.962" />
        <text font-size="30" transform="translate(110, 272.962)" text-anchor="end" dominant-baseline="middle" stroke="none" fill="black">40000</text>
        <path d="M 120 180.833 L 130 180.833" />
        <path d="M 120 98.7029 L 140 98.7029" />
        <text font-size="30" transform="translate(110, 108.703)" text-anchor="end" dominant-baseline="middle" stroke="none" fill="black">50000</text>
        <path d="M 120 739.315 L 130 739.315" />
        <path d="M 120 312.24 L 130 312.24" />
        <path d="M 120 164.407 L 130 164.407" />
    </g>
    <text id="frame_0_toplabel" font-size="30" transform="translate(535, 32.6)" text-anchor="middle" dominant-baseline="middle" stroke="none" fill="black">prob.dist.exponentialQF</text>
    <g id="frame_0_topticks">
        <path d="M 120 50 L 120 70" />
        <path d="M 136.6 50 L 136.6 60" />
        <path d="M 153.2 50 L 153.2 60" />
        <path d="M 169.8 50 L 169.8 60" />
        <path d="M 186.4 50 L 186.4 60" />
        <path d="M 203 50 L 203 60" />
        <path d="M 219.6 50 L 219.6 60" />
        <path d="M 236.2 50 L 236.2 60" />
        <path d="M 252.8 50 L 252.8 60" />
        <path d="M 269.4 50 L 269.4 60" />
        <path d="M 286 50 L 286 70" />
        <path d="M 302.6 50 L 302.6 60" />
        <path d="M 319.2 50 L 319.2 60" />
        <path d="M 335.8 50 L 335.8 60" />
        <path d="M 352.4 50 L 352.4 60" />
        <path d="M 369 50 L 369 60" />
        <path d="M 385.6 50 L 385.6 60" />
        <path d="M 402.2 50 L 402.2 60" />
        <path d="M 418.8 50 L 418.8 60" />
        <path d="M 435.4 50 L 435.4 60" />
        <path d="M 452 50 L 452 70" />
        <path d="M 468.6 50 L 468.6 60" />
        <path d="M 485.2 50 L 485.2 60" />
        <path d="M 501.8 50 L 501.8 60" />
        <path d="M 518.4 50 L 518.4 60" />
        <path d="M 535 50 L 535 60" />
        <path d="M 551.6 50 L 551.6 60" />
        <path d="M 568.2 50 L 568.2 60" />
        <path d="M 584.8 50 L 584.8 60" />
        <path d="M 601.4 50 L 601.4 60" />
        <path d="M 618 50 L 618 70" />
        <path d="M 634.6 50 L 634.6 60" />
        <path d="M 651.2 50 L 651.2 60" />
        <path d="M 667.8 50 L 667.8 60" />
        <path d="M 684.4 50 L 684.4 60" />
        <path d="M 701 50 L 701 60" />
        <path d="M 717.6 50 L 717.6 60" />
        <path d="M 734.2 50 L 734.2 60" />
        <path d="M 750.8 50 L 750.8 60" />
        <path d="M 767.4 50 L 767.4 60" />
        <path d="M 784 50 L 784 70" />
        <path d="M 800.6 50 L 800.6 60" />
        <path d="M 817.2 50 L 817.2 60" />
        <path d="M 833.8 50 L 833.8 60" />
        <path d="M 850.4 50 L 850.4 60" />
        <path d="M 867 50 L 867 60" />
        <path d="M 883.6 50 L 883.6 60" />
        <path d="M 900.2 50 L 900.2 60" />
        <path d="M 916.8 50 L 916.8 60" />
        <path d="M 933.4 50 L 933.4 60" />
        <path d="M 950 50 L 950 70" />
    </g>
    <g id="frame_0_rightticks">
        <path d="M 950 657.185 L 940 657.185" />
        <path d="M 950 525.777 L 940 525.777" />
        <path d="M 950 476.5 L 940 476.5" />
        <path d="M 950 575.055 L 940 575.055" />
        <path d="M 950 361.518 L 940 361.518" />
        <path d="M 950 492.926 L 940 492.926" />
        <path d="M 950 805.018 L 940 805.018" />
        <path d="M 950 147.981 L 940 147.981" />
        <path d="M 950 673.611 L 940 673.611" />
        <path d="M 950 920 L 930 920" />
        <path d="M 950 443.648 L 940 443.648" />
        <path d="M 950 410.796 L 940 410.796" />
        <path d="M 950 279.388 L 940 279.388" />
        <path d="M 950 854.296 L 940 854.296" />
        <path d="M 950 558.629 L 940 558.629" />
        <path d="M 950 197.259 L 940 197.259" />
        <path d="M 950 755.741 L 930 755.741" />
        <path d="M 950 591.481 L 930 591.481" />
        <path d="M 950 772.167 L 940 772.167" />
        <path d="M 950 427.222 L 930 427.222" />
        <path d="M 950 328.666 L 940 328.666" />
        <path d="M 950 690.037 L 940 690.037" />
        <path d="M 950 837.87 L 940 837.87" />
        <path d="M 950 246.536 L 940 246.536" />
        <path d="M 950 607.907 L 940 607.907" />
        <path d="M 950 115.129 L 940 115.129" />
        <path d="M 950 377.944 L 940 377.944" />
        <path d="M 950 788.592 L 940 788.592" />
        <path d="M 950 460.074 L 940 460.074" />
        <path d="M 950 509.351 L 940 509.351" />
        <path d="M 950 706.463 L 940 706.463" />
        <path d="M 950 295.814 L 940 295.814" />
        <path d="M 950 65.851 L 940 65.851" />
        <path d="M 950 82.277 L 940 82.277" />
        <path d="M 950 887.148 L 940 887.148" />
        <path d="M 950 870.722 L 940 870.722" />
        <path d="M 950 213.685 L 940 213.685" />
        <path d="M 950 542.203 L 940 542.203" />
        <path d="M 950 345.092 L 940 345.092" />
        <path d="M 950 722.889 L 940 722.889" />
        <path d="M 950 624.333 L 940 624.333" />
        <path d="M 950 131.555 L 940 131.555" />
        <path d="M 950 903.574 L 940 903.574" />
        <path d="M 950 230.11 L 940 230.11" />
        <path d="M 950 394.37 L 940 394.37" />
        <path d="M 950 821.444 L 940 821.444" />
        <path d="M 950 640.759 L 940 640.759" />
        <path d="M 950 262.962 L 930 262.962" />
        <path d="M 950 180.833 L 940 180.833" />
        <path d="M 950 98.7029 L 930 98.7029" />
        <path d="M 950 739.315 L 940 739.315" />
        <path d="M 950 312.24 L 940 312.24" />
        <path d="M 950 164.407 L 940 164.407" />
    </g>
</g>
</g>
</svg>
