<?xml version="1.0" standalone="no"?>
<!DOCTYPE svg PUBLIC "-//W3C//DTD SVG 1.1//EN" "http://www.w3.org/Graphics/SVG/1.1/DTD/svg11.dtd">
<svg style="stroke-linejoin:miter; stroke:black; stroke-width:2.5; text-anchor:middle; fill:none" xmlns="http://www.w3.org/2000/svg" font-family="Helvetica, Arial, FreeSans, Sans, sans, sans-serif" width="1000px" height="1000px" version="1.1" xmlns:xlink="http://www.w3.org/1999/xlink" viewBox="0 0 1000 1000">
<defs>
    <clipPath id="Histogram_0_clip">
        <rect x="120" y="50" width="830" height="870" />
    </clipPath>
    <clipPath id="Histogram_1_clip">
        <rect x="120" y="50" width="830" height="870" />
    </clipPath>
</defs>
<g id="whole_document">
<rect id="background" x="0" y="0" width="1000" height="1000" stroke="none" fill="white" />
<g id="Histogram_0" clip-path="url(#Histogram_0_clip)">
    <path d="M 120 920 L 120 449.271 L 161.5 449.271 L 161.5 917.861 L 203 917.861 L 203 920 L 244.5 920 L 244.5 129.091 L 286 129.091 L 286 915.899 L 327.5 915.899 L 327.5 917.879 L 369 917.879 L 369 915.917 L 410.5 915.917 L 410.5 913.183 L 452 913.183 L 452 893.43 L 493.5 893.43 L 493.5 919.499 L 535 919.499 L 535 919.881 L 576.5 919.881 L 576.5 920 L 618 920 L 618 920 L 659.5 920 L 659.5 920 L 701 920 L 701 920 L 742.5 920 L 742.5 920 L 784 920 L 784 920 L 825.5 920 L 825.5 920 L 867 920 L 867 920 L 908.5 920 L 908.5 920 L 950 920 L 950 920" stroke-width="3" stroke-dasharray="" stroke="black" stroke-opacity="1" fill="DodgerBlue" fill-opacity="1" />
</g>
<g id="Histogram_1" clip-path="url(#Histogram_1_clip)">
    <path d="M 120 920 L 120 920 L 161.5 920 L 161.5 920 L 203 920 L 203 920 L 244.5 920 L 244.5 129.091 L 286 129.091 L 286 915.899 L 327.5 915.899 L 327.5 917.879 L 369 917.879 L 369 915.917 L 410.5 915.917 L 410.5 919.831 L 452 919.831 L 452 919.579 L 493.5 919.579 L 493.5 919.876 L 535 919.876 L 535 920 L 576.5 920 L 576.5 920 L 618 920 L 618 920 L 659.5 920 L 659.5 920 L 701 920 L 701 920 L 742.5 920 L 742.5 920 L 784 920 L 784 920 L 825.5 920 L 825.5 920 L 867 920 L 867 920 L 908.5 920 L 908.5 920 L 950 920 L 950 920" stroke-width="3" stroke-dasharray="" stroke="black" stroke-opacity="1" fill="darkorange" fill-opacity="1" />
</g>
<g id="frame_0">
    <rect id="frame_0_border" x="120" y="50" width="830" height="870" />
    <text id="frame_0_bottomlabel" font-size="30" transform="translate(535, 989.6)" text-anchor="middle" dominant-baseline="middle" stroke="none" fill="black">microseconds</text>
    <g id="frame_0_bottomticks">
        <path d="M 120 920 L 120 900" />
        <text font-size="30" transform="translate(120, 950)" text-anchor="middle" dominant-baseline="middle" stroke="none" fill="black">0</text>
        <path d="M 136.6 920 L 136.6 910" />
        <path d="M 153.2 920 L 153.2 910" />
        <path d="M 169.8 920 L 169.8 910" />
        <path d="M 186.4 920 L 186.4 910" />
        <path d="M 203 920 L 203 910" />
        <path d="M 219.6 920 L 219.6 910" />
        <path d="M 236.2 920 L 236.2 910" />
        <path d="M 252.8 920 L 252.8 910" />
        <path d="M 269.4 920 L 269.4 910" />
        <path d="M 286 920 L 286 900" />
        <text font-size="30" transform="translate(286, 950)" text-anchor="middle" dominant-baseline="middle" stroke="none" fill="black">10</text>
        <path d="M 302.6 920 L 302.6 910" />
        <path d="M 319.2 920 L 319.2 910" />
        <path d="M 335.8 920 L 335.8 910" />
        <path d="M 352.4 920 L 352.4 910" />
        <path d="M 369 920 L 369 910" />
        <path d="M 385.6 920 L 385.6 910" />
        <path d="M 402.2 920 L 402.2 910" />
        <path d="M 418.8 920 L 418.8 910" />
        <path d="M 435.4 920 L 435.4 910" />
        <path d="M 452 920 L 452 900" />
        <text font-size="30" transform="translate(452, 950)" text-anchor="middle" dominant-baseline="middle" stroke="none" fill="black">20</text>
        <path d="M 468.6 920 L 468.6 910" />
        <path d="M 485.2 920 L 485.2 910" />
        <path d="M 501.8 920 L 501.8 910" />
        <path d="M 518.4 920 L 518.4 910" />
        <path d="M 535 920 L 535 910" />
        <path d="M 551.6 920 L 551.6 910" />
        <path d="M 568.2 920 L 568.2 910" />
        <path d="M 584.8 920 L 584.8 910" />
        <path d="M 601.4 920 L 601.4 910" />
        <path d="M 618 920 L 618 900" />
        <text font-size="30" transform="translate(618, 950)" text-anchor="middle" dominant-baseline="middle" stroke="none" fill="black">30</text>
        <path d="M 634.6 920 L 634.6 910" />
        <path d="M 651.2 920 L 651.2 910" />
        <path d="M 667.8 920 L 667.8 910" />
        <path d="M 684.4 920 L 684.4 910" />
        <path d="M 701 920 L 701 910" />
        <path d="M 717.6 920 L 717.6 910" />
        <path d="M 734.2 920 L 734.2 910" />
        <path d="M 750.8 920 L 750.8 910" />
        <path d="M 767.4 920 L 767.4 910" />
        <path d="M 784 920 L 784 900" />
        <text font-size="30" transform="translate(784, 950)" text-anchor="middle" dominant-baseline="middle" stroke="none" fill="black">40</text>
        <path d="M 800.6 920 L 800.6 910" />
        <path d="M 817.2 920 L 817.2 910" />
        <path d="M 833.8 920 L 833.8 910" />
        <path d="M 850.4 920 L 850.4 910" />
        <path d="M 867 920 L 867 910" />
        <path d="M 883.6 920 L 883.6 910" />
        <path d="M 900.2 920 L 900.2 910" />
        <path d="M 916.8 920 L 916.8 910" />
        <path d="M 933.4 920 L 933.4 910" />
        <path d="M 950 920 L 950 900" />
        <text font-size="30" transform="translate(950, 950)" text-anchor="middle" dominant-baseline="middle" stroke="none" fill="black">50</text>
    </g>
    <g id="frame_0_leftticks">
        <path d="M 120 682.976 L 130 682.976" />
        <path d="M 120 564.465 L 130 564.465" />
        <path d="M 120 920 L 140 920" />
        <text font-size="30" transform="translate(110, 930)" text-anchor="end" dominant-baseline="middle" stroke="none" fill="black">0</text>
        <path d="M 120 297.813 L 130 297.813" />
        <path d="M 120 445.953 L 130 445.953" />
        <path d="M 120 653.348 L 130 653.348" />
        <path d="M 120 120.045 L 130 120.045" />
        <path d="M 120 890.372 L 130 890.372" />
        <path d="M 120 860.744 L 130 860.744" />
        <path d="M 120 594.093 L 130 594.093" />
        <path d="M 120 831.116 L 130 831.116" />
        <path d="M 120 771.86 L 140 771.86" />
        <text font-size="30" transform="translate(110, 781.86)" text-anchor="end" dominant-baseline="middle" stroke="none" fill="black">50000</text>
        <path d="M 120 90.4176 L 130 90.4176" />
        <path d="M 120 238.557 L 130 238.557" />
        <path d="M 120 386.697 L 130 386.697" />
        <path d="M 120 801.488 L 130 801.488" />
        <path d="M 120 149.673 L 130 149.673" />
        <path d="M 120 60.7896 L 130 60.7896" />
        <path d="M 120 534.837 L 130 534.837" />
        <path d="M 120 208.929 L 130 208.929" />
        <path d="M 120 357.069 L 130 357.069" />
        <path d="M 120 505.209 L 130 505.209" />
        <path d="M 120 742.232 L 130 742.232" />
        <path d="M 120 416.325 L 130 416.325" />
        <path d="M 120 179.301 L 140 179.301" />
        <text font-size="30" transform="translate(110, 189.301)" text-anchor="end" dominant-baseline="middle" stroke="none" fill="black">250000</text>
        <path d="M 120 712.604 L 130 712.604" />
        <path d="M 120 327.441 L 140 327.441" />
        <text font-size="30" transform="translate(110, 337.441)" text-anchor="end" dominant-baseline="middle" stroke="none" fill="black">200000</text>
        <path d="M 120 475.581 L 140 475.581" />
        <text font-size="30" transform="translate(110, 485.581)" text-anchor="end" dominant-baseline="middle" stroke="none" fill="black">150000</text>
        <path d="M 120 623.721 L 140 623.721" />
        <text font-size="30" transform="translate(110, 633.721)" text-anchor="end" dominant-baseline="middle" stroke="none" fill="black">100000</text>
        <path d="M 120 268.185 L 130 268.185" />
    </g>
    <text id="frame_0_toplabel" font-size="30" transform="translate(535, 32.6)" text-anchor="middle" dominant-baseline="middle" stroke="none" fill="black">prob.dist.fPDF</text>
    <g id="frame_0_topticks">
        <path d="M 120 50 L 120 70" />
        <path d="M 136.6 50 L 136.6 60" />
        <path d="M 153.2 50 L 153.2 60" />
        <path d="M 169.8 50 L 169.8 60" />
        <path d="M 186.4 50 L 186.4 60" />
        <path d="M 203 50 L 203 60" />
        <path d="M 219.6 50 L 219.6 60" />
        <path d="M 236.2 50 L 236.2 60" />
        <path d="M 252.8 50 L 252.8 60" />
        <path d="M 269.4 50 L 269.4 60" />
        <path d="M 286 50 L 286 70" />
        <path d="M 302.6 50 L 302.6 60" />
        <path d="M 319.2 50 L 319.2 60" />
        <path d="M 335.8 50 L 335.8 60" />
        <path d="M 352.4 50 L 352.4 60" />
        <path d="M 369 50 L 369 60" />
        <path d="M 385.6 50 L 385.6 60" />
        <path d="M 402.2 50 L 402.2 60" />
        <path d="M 418.8 50 L 418.8 60" />
        <path d="M 435.4 50 L 435.4 60" />
        <path d="M 452 50 L 452 70" />
        <path d="M 468.6 50 L 468.6 60" />
        <path d="M 485.2 50 L 485.2 60" />
        <path d="M 501.8 50 L 501.8 60" />
        <path d="M 518.4 50 L 518.4 60" />
        <path d="M 535 50 L 535 60" />
        <path d="M 551.6 50 L 551.6 60" />
        <path d="M 568.2 50 L 568.2 60" />
        <path d="M 584.8 50 L 584.8 60" />
        <path d="M 601.4 50 L 601.4 60" />
        <path d="M 618 50 L 618 70" />
        <path d="M 634.6 50 L 634.6 60" />
        <path d="M 651.2 50 L 651.2 60" />
        <path d="M 667.8 50 L 667.8 60" />
        <path d="M 684.4 50 L 684.4 60" />
        <path d="M 701 50 L 701 60" />
        <path d="M 717.6 50 L 717.6 60" />
        <path d="M 734.2 50 L 734.2 60" />
        <path d="M 750.8 50 L 750.8 60" />
        <path d="M 767.4 50 L 767.4 60" />
        <path d="M 784 50 L 784 70" />
        <path d="M 800.6 50 L 800.6 60" />
        <path d="M 817.2 50 L 817.2 60" />
        <path d="M 833.8 50 L 833.8 60" />
        <path d="M 850.4 50 L 850.4 60" />
        <path d="M 867 50 L 867 60" />
        <path d="M 883.6 50 L 883.6 60" />
        <path d="M 900.2 50 L 900.2 60" />
        <path d="M 916.8 50 L 916.8 60" />
        <path d="M 933.4 50 L 933.4 60" />
        <path d="M 950 50 L 950 70" />
    </g>
    <g id="frame_0_rightticks">
        <path d="M 950 682.976 L 940 682.976" />
        <path d="M 950 564.465 L 940 564.465" />
        <path d="M 950 920 L 930 920" />
        <path d="M 950 297.813 L 940 297.813" />
        <path d="M 950 445.953 L 940 445.953" />
        <path d="M 950 653.348 L 940 653.348" />
        <path d="M 950 120.045 L 940 120.045" />
        <path d="M 950 890.372 L 940 890.372" />
        <path d="M 950 860.744 L 940 860.744" />
        <path d="M 950 594.093 L 940 594.093" />
        <path d="M 950 831.116 L 940 831.116" />
        <path d="M 950 771.86 L 930 771.86" />
        <path d="M 950 90.4176 L 940 90.4176" />
        <path d="M 950 238.557 L 940 238.557" />
        <path d="M 950 386.697 L 940 386.697" />
        <path d="M 950 801.488 L 940 801.488" />
        <path d="M 950 149.673 L 940 149.673" />
        <path d="M 950 60.7896 L 940 60.7896" />
        <path d="M 950 534.837 L 940 534.837" />
        <path d="M 950 208.929 L 940 208.929" />
        <path d="M 950 357.069 L 940 357.069" />
        <path d="M 950 505.209 L 940 505.209" />
        <path d="M 950 742.232 L 940 742.232" />
        <path d="M 950 416.325 L 940 416.325" />
        <path d="M 950 179.301 L 930 179.301" />
        <path d="M 950 712.604 L 940 712.604" />
        <path d="M 950 327.441 L 930 327.441" />
        <path d="M 950 475.581 L 930 475.581" />
        <path d="M 950 623.721 L 930 623.721" />
        <path d="M 950 268.185 L 940 268.185" />
    </g>
</g>
</g>
</svg>
