<?xml version="1.0" standalone="no"?>
<!DOCTYPE svg PUBLIC "-//W3C//DTD SVG 1.1//EN" "http://www.w3.org/Graphics/SVG/1.1/DTD/svg11.dtd">
<svg style="stroke-linejoin:miter; stroke:black; stroke-width:2.5; text-anchor:middle; fill:none" xmlns="http://www.w3.org/2000/svg" font-family="Helvetica, Arial, FreeSans, Sans, sans, sans-serif" width="1000px" height="1000px" version="1.1" xmlns:xlink="http://www.w3.org/1999/xlink" viewBox="0 0 1000 1000">
<defs>
    <clipPath id="Histogram_0_clip">
        <rect x="120" y="50" width="830" height="870" />
    </clipPath>
</defs>
<g id="whole_document">
<rect id="background" x="0" y="0" width="1000" height="1000" stroke="none" fill="white" />
<g id="Histogram_0" clip-path="url(#Histogram_0_clip)">
    <path d="M 120 920 L 120 129.091 L 161.5 129.091 L 161.5 900.412 L 203 900.412 L 203 916.309 L 244.5 916.309 L 244.5 920 L 286 920 L 286 920 L 327.5 920 L 327.5 920 L 369 920 L 369 920 L 410.5 920 L 410.5 920 L 452 920 L 452 920 L 493.5 920 L 493.5 920 L 535 920 L 535 920 L 576.5 920 L 576.5 920 L 618 920 L 618 920 L 659.5 920 L 659.5 920 L 701 920 L 701 920 L 742.5 920 L 742.5 920 L 784 920 L 784 920 L 825.5 920 L 825.5 920 L 867 920 L 867 920 L 908.5 920 L 908.5 920 L 950 920 L 950 920" stroke-width="3" stroke-dasharray="" stroke="black" stroke-opacity="1" fill="DodgerBlue" fill-opacity="1" />
</g>
<g id="frame_0">
    <rect id="frame_0_border" x="120" y="50" width="830" height="870" />
    <text id="frame_0_bottomlabel" font-size="30" transform="translate(535, 989.6)" text-anchor="middle" dominant-baseline="middle" stroke="none" fill="black">microseconds</text>
    <g id="frame_0_bottomticks">
        <path d="M 120 920 L 120 900" />
        <text font-size="30" transform="translate(120, 950)" text-anchor="middle" dominant-baseline="middle" stroke="none" fill="black">0</text>
        <path d="M 136.6 920 L 136.6 910" />
        <path d="M 153.2 920 L 153.2 910" />
        <path d="M 169.8 920 L 169.8 910" />
        <path d="M 186.4 920 L 186.4 910" />
        <path d="M 203 920 L 203 910" />
        <path d="M 219.6 920 L 219.6 910" />
        <path d="M 236.2 920 L 236.2 910" />
        <path d="M 252.8 920 L 252.8 910" />
        <path d="M 269.4 920 L 269.4 910" />
        <path d="M 286 920 L 286 900" />
        <text font-size="30" transform="translate(286, 950)" text-anchor="middle" dominant-baseline="middle" stroke="none" fill="black">10</text>
        <path d="M 302.6 920 L 302.6 910" />
        <path d="M 319.2 920 L 319.2 910" />
        <path d="M 335.8 920 L 335.8 910" />
        <path d="M 352.4 920 L 352.4 910" />
        <path d="M 369 920 L 369 910" />
        <path d="M 385.6 920 L 385.6 910" />
        <path d="M 402.2 920 L 402.2 910" />
        <path d="M 418.8 920 L 418.8 910" />
        <path d="M 435.4 920 L 435.4 910" />
        <path d="M 452 920 L 452 900" />
        <text font-size="30" transform="translate(452, 950)" text-anchor="middle" dominant-baseline="middle" stroke="none" fill="black">20</text>
        <path d="M 468.6 920 L 468.6 910" />
        <path d="M 485.2 920 L 485.2 910" />
        <path d="M 501.8 920 L 501.8 910" />
        <path d="M 518.4 920 L 518.4 910" />
        <path d="M 535 920 L 535 910" />
        <path d="M 551.6 920 L 551.6 910" />
        <path d="M 568.2 920 L 568.2 910" />
        <path d="M 584.8 920 L 584.8 910" />
        <path d="M 601.4 920 L 601.4 910" />
        <path d="M 618 920 L 618 900" />
        <text font-size="30" transform="translate(618, 950)" text-anchor="middle" dominant-baseline="middle" stroke="none" fill="black">30</text>
        <path d="M 634.6 920 L 634.6 910" />
        <path d="M 651.2 920 L 651.2 910" />
        <path d="M 667.8 920 L 667.8 910" />
        <path d="M 684.4 920 L 684.4 910" />
        <path d="M 701 920 L 701 910" />
        <path d="M 717.6 920 L 717.6 910" />
        <path d="M 734.2 920 L 734.2 910" />
        <path d="M 750.8 920 L 750.8 910" />
        <path d="M 767.4 920 L 767.4 910" />
        <path d="M 784 920 L 784 900" />
        <text font-size="30" transform="translate(784, 950)" text-anchor="middle" dominant-baseline="middle" stroke="none" fill="black">40</text>
        <path d="M 800.6 920 L 800.6 910" />
        <path d="M 817.2 920 L 817.2 910" />
        <path d="M 833.8 920 L 833.8 910" />
        <path d="M 850.4 920 L 850.4 910" />
        <path d="M 867 920 L 867 910" />
        <path d="M 883.6 920 L 883.6 910" />
        <path d="M 900.2 920 L 900.2 910" />
        <path d="M 916.8 920 L 916.8 910" />
        <path d="M 933.4 920 L 933.4 910" />
        <path d="M 950 920 L 950 900" />
        <text font-size="30" transform="translate(950, 950)" text-anchor="middle" dominant-baseline="middle" stroke="none" fill="black">50</text>
    </g>
    <g id="frame_0_leftticks">
        <path d="M 120 564.265 L 130 564.265" />
        <path d="M 120 386.398 L 130 386.398" />
        <path d="M 120 319.698 L 130 319.698" />
        <path d="M 120 453.098 L 130 453.098" />
        <path d="M 120 164.064 L 130 164.064" />
        <path d="M 120 341.931 L 130 341.931" />
        <path d="M 120 764.366 L 130 764.366" />
        <path d="M 120 808.833 L 140 808.833" />
        <text font-size="30" transform="translate(110, 818.833)" text-anchor="end" dominant-baseline="middle" stroke="none" fill="black">5000</text>
        <path d="M 120 230.764 L 130 230.764" />
        <path d="M 120 920 L 140 920" />
        <text font-size="30" transform="translate(110, 930)" text-anchor="end" dominant-baseline="middle" stroke="none" fill="black">0</text>
        <path d="M 120 697.666 L 140 697.666" />
        <text font-size="30" transform="translate(110, 707.666)" text-anchor="end" dominant-baseline="middle" stroke="none" fill="black">10000</text>
        <path d="M 120 52.897 L 130 52.897" />
        <path d="M 120 831.066 L 130 831.066" />
        <path d="M 120 430.865 L 130 430.865" />
        <path d="M 120 719.899 L 130 719.899" />
        <path d="M 120 586.499 L 140 586.499" />
        <text font-size="30" transform="translate(110, 596.499)" text-anchor="end" dominant-baseline="middle" stroke="none" fill="black">15000</text>
        <path d="M 120 119.597 L 130 119.597" />
        <path d="M 120 608.732 L 130 608.732" />
        <path d="M 120 275.231 L 130 275.231" />
        <path d="M 120 475.332 L 140 475.332" />
        <text font-size="30" transform="translate(110, 485.332)" text-anchor="end" dominant-baseline="middle" stroke="none" fill="black">20000</text>
        <path d="M 120 497.565 L 130 497.565" />
        <path d="M 120 186.297 L 130 186.297" />
        <path d="M 120 742.133 L 130 742.133" />
        <path d="M 120 297.465 L 130 297.465" />
        <path d="M 120 364.165 L 140 364.165" />
        <text font-size="30" transform="translate(110, 374.165)" text-anchor="end" dominant-baseline="middle" stroke="none" fill="black">25000</text>
        <path d="M 120 630.966 L 130 630.966" />
        <path d="M 120 75.1304 L 130 75.1304" />
        <path d="M 120 252.998 L 140 252.998" />
        <text font-size="30" transform="translate(110, 262.998)" text-anchor="end" dominant-baseline="middle" stroke="none" fill="black">30000</text>
        <path d="M 120 519.799 L 130 519.799" />
        <path d="M 120 853.3 L 130 853.3" />
        <path d="M 120 408.632 L 130 408.632" />
        <path d="M 120 141.831 L 140 141.831" />
        <text font-size="30" transform="translate(110, 151.831)" text-anchor="end" dominant-baseline="middle" stroke="none" fill="black">35000</text>
        <path d="M 120 653.199 L 130 653.199" />
        <path d="M 120 875.533 L 130 875.533" />
        <path d="M 120 897.767 L 130 897.767" />
        <path d="M 120 208.531 L 130 208.531" />
        <path d="M 120 786.6 L 130 786.6" />
        <path d="M 120 542.032 L 130 542.032" />
        <path d="M 120 675.432 L 130 675.432" />
        <path d="M 120 97.3638 L 130 97.3638" />
    </g>
    <text id="frame_0_toplabel" font-size="30" transform="translate(535, 32.6)" text-anchor="middle" dominant-baseline="middle" stroke="none" fill="black">map.subset</text>
    <g id="frame_0_topticks">
        <path d="M 120 50 L 120 70" />
        <path d="M 136.6 50 L 136.6 60" />
        <path d="M 153.2 50 L 153.2 60" />
        <path d="M 169.8 50 L 169.8 60" />
        <path d="M 186.4 50 L 186.4 60" />
        <path d="M 203 50 L 203 60" />
        <path d="M 219.6 50 L 219.6 60" />
        <path d="M 236.2 50 L 236.2 60" />
        <path d="M 252.8 50 L 252.8 60" />
        <path d="M 269.4 50 L 269.4 60" />
        <path d="M 286 50 L 286 70" />
        <path d="M 302.6 50 L 302.6 60" />
        <path d="M 319.2 50 L 319.2 60" />
        <path d="M 335.8 50 L 335.8 60" />
        <path d="M 352.4 50 L 352.4 60" />
        <path d="M 369 50 L 369 60" />
        <path d="M 385.6 50 L 385.6 60" />
        <path d="M 402.2 50 L 402.2 60" />
        <path d="M 418.8 50 L 418.8 60" />
        <path d="M 435.4 50 L 435.4 60" />
        <path d="M 452 50 L 452 70" />
        <path d="M 468.6 50 L 468.6 60" />
        <path d="M 485.2 50 L 485.2 60" />
        <path d="M 501.8 50 L 501.8 60" />
        <path d="M 518.4 50 L 518.4 60" />
        <path d="M 535 50 L 535 60" />
        <path d="M 551.6 50 L 551.6 60" />
        <path d="M 568.2 50 L 568.2 60" />
        <path d="M 584.8 50 L 584.8 60" />
        <path d="M 601.4 50 L 601.4 60" />
        <path d="M 618 50 L 618 70" />
        <path d="M 634.6 50 L 634.6 60" />
        <path d="M 651.2 50 L 651.2 60" />
        <path d="M 667.8 50 L 667.8 60" />
        <path d="M 684.4 50 L 684.4 60" />
        <path d="M 701 50 L 701 60" />
        <path d="M 717.6 50 L 717.6 60" />
        <path d="M 734.2 50 L 734.2 60" />
        <path d="M 750.8 50 L 750.8 60" />
        <path d="M 767.4 50 L 767.4 60" />
        <path d="M 784 50 L 784 70" />
        <path d="M 800.6 50 L 800.6 60" />
        <path d="M 817.2 50 L 817.2 60" />
        <path d="M 833.8 50 L 833.8 60" />
        <path d="M 850.4 50 L 850.4 60" />
        <path d="M 867 50 L 867 60" />
        <path d="M 883.6 50 L 883.6 60" />
        <path d="M 900.2 50 L 900.2 60" />
        <path d="M 916.8 50 L 916.8 60" />
        <path d="M 933.4 50 L 933.4 60" />
        <path d="M 950 50 L 950 70" />
    </g>
    <g id="frame_0_rightticks">
        <path d="M 950 564.265 L 940 564.265" />
        <path d="M 950 386.398 L 940 386.398" />
        <path d="M 950 319.698 L 940 319.698" />
        <path d="M 950 453.098 L 940 453.098" />
        <path d="M 950 164.064 L 940 164.064" />
        <path d="M 950 341.931 L 940 341.931" />
        <path d="M 950 764.366 L 940 764.366" />
        <path d="M 950 808.833 L 930 808.833" />
        <path d="M 950 230.764 L 940 230.764" />
        <path d="M 950 920 L 930 920" />
        <path d="M 950 697.666 L 930 697.666" />
        <path d="M 950 52.897 L 940 52.897" />
        <path d="M 950 831.066 L 940 831.066" />
        <path d="M 950 430.865 L 940 430.865" />
        <path d="M 950 719.899 L 940 719.899" />
        <path d="M 950 586.499 L 930 586.499" />
        <path d="M 950 119.597 L 940 119.597" />
        <path d="M 950 608.732 L 940 608.732" />
        <path d="M 950 275.231 L 940 275.231" />
        <path d="M 950 475.332 L 930 475.332" />
        <path d="M 950 497.565 L 940 497.565" />
        <path d="M 950 186.297 L 940 186.297" />
        <path d="M 950 742.133 L 940 742.133" />
        <path d="M 950 297.465 L 940 297.465" />
        <path d="M 950 364.165 L 930 364.165" />
        <path d="M 950 630.966 L 940 630.966" />
        <path d="M 950 75.1304 L 940 75.1304" />
        <path d="M 950 252.998 L 930 252.998" />
        <path d="M 950 519.799 L 940 519.799" />
        <path d="M 950 853.3 L 940 853.3" />
        <path d="M 950 408.632 L 940 408.632" />
        <path d="M 950 141.831 L 930 141.831" />
        <path d="M 950 653.199 L 940 653.199" />
        <path d="M 950 875.533 L 940 875.533" />
        <path d="M 950 897.767 L 940 897.767" />
        <path d="M 950 208.531 L 940 208.531" />
        <path d="M 950 786.6 L 940 786.6" />
        <path d="M 950 542.032 L 940 542.032" />
        <path d="M 950 675.432 L 940 675.432" />
        <path d="M 950 97.3638 L 940 97.3638" />
    </g>
</g>
</g>
</svg>
