<?xml version="1.0" standalone="no"?>
<!DOCTYPE svg PUBLIC "-//W3C//DTD SVG 1.1//EN" "http://www.w3.org/Graphics/SVG/1.1/DTD/svg11.dtd">
<svg style="stroke-linejoin:miter; stroke:black; stroke-width:2.5; text-anchor:middle; fill:none" xmlns="http://www.w3.org/2000/svg" font-family="Helvetica, Arial, FreeSans, Sans, sans, sans-serif" width="1000px" height="1000px" version="1.1" xmlns:xlink="http://www.w3.org/1999/xlink" viewBox="0 0 1000 1000">
<defs>
    <clipPath id="Histogram_0_clip">
        <rect x="120" y="50" width="830" height="870" />
    </clipPath>
    <clipPath id="Histogram_1_clip">
        <rect x="120" y="50" width="830" height="870" />
    </clipPath>
</defs>
<g id="whole_document">
<rect id="background" x="0" y="0" width="1000" height="1000" stroke="none" fill="white" />
<g id="Histogram_0" clip-path="url(#Histogram_0_clip)">
    <path d="M 120 920 L 120 569.905 L 161.5 569.905 L 161.5 129.091 L 203 129.091 L 203 881.45 L 244.5 881.45 L 244.5 844.785 L 286 844.785 L 286 824.672 L 327.5 824.672 L 327.5 888.573 L 369 888.573 L 369 906.172 L 410.5 906.172 L 410.5 920 L 452 920 L 452 920 L 493.5 920 L 493.5 920 L 535 920 L 535 920 L 576.5 920 L 576.5 920 L 618 920 L 618 920 L 659.5 920 L 659.5 920 L 701 920 L 701 920 L 742.5 920 L 742.5 920 L 784 920 L 784 920 L 825.5 920 L 825.5 920 L 867 920 L 867 920 L 908.5 920 L 908.5 920 L 950 920 L 950 920" stroke-width="3" stroke-dasharray="" stroke="black" stroke-opacity="1" fill="DodgerBlue" fill-opacity="1" />
</g>
<g id="Histogram_1" clip-path="url(#Histogram_1_clip)">
    <path d="M 120 920 L 120 920 L 161.5 920 L 161.5 920 L 203 920 L 203 920 L 244.5 920 L 244.5 920 L 286 920 L 286 901.772 L 327.5 901.772 L 327.5 903.239 L 369 903.239 L 369 920 L 410.5 920 L 410.5 920 L 452 920 L 452 920 L 493.5 920 L 493.5 920 L 535 920 L 535 920 L 576.5 920 L 576.5 920 L 618 920 L 618 920 L 659.5 920 L 659.5 920 L 701 920 L 701 920 L 742.5 920 L 742.5 920 L 784 920 L 784 920 L 825.5 920 L 825.5 920 L 867 920 L 867 920 L 908.5 920 L 908.5 920 L 950 920 L 950 920" stroke-width="3" stroke-dasharray="" stroke="black" stroke-opacity="1" fill="darkorange" fill-opacity="1" />
</g>
<g id="frame_0">
    <rect id="frame_0_border" x="120" y="50" width="830" height="870" />
    <text id="frame_0_bottomlabel" font-size="30" transform="translate(535, 989.6)" text-anchor="middle" dominant-baseline="middle" stroke="none" fill="black">microseconds</text>
    <g id="frame_0_bottomticks">
        <path d="M 120 920 L 120 900" />
        <text font-size="30" transform="translate(120, 950)" text-anchor="middle" dominant-baseline="middle" stroke="none" fill="black">0</text>
        <path d="M 136.6 920 L 136.6 910" />
        <path d="M 153.2 920 L 153.2 910" />
        <path d="M 169.8 920 L 169.8 910" />
        <path d="M 186.4 920 L 186.4 910" />
        <path d="M 203 920 L 203 910" />
        <path d="M 219.6 920 L 219.6 910" />
        <path d="M 236.2 920 L 236.2 910" />
        <path d="M 252.8 920 L 252.8 910" />
        <path d="M 269.4 920 L 269.4 910" />
        <path d="M 286 920 L 286 900" />
        <text font-size="30" transform="translate(286, 950)" text-anchor="middle" dominant-baseline="middle" stroke="none" fill="black">10</text>
        <path d="M 302.6 920 L 302.6 910" />
        <path d="M 319.2 920 L 319.2 910" />
        <path d="M 335.8 920 L 335.8 910" />
        <path d="M 352.4 920 L 352.4 910" />
        <path d="M 369 920 L 369 910" />
        <path d="M 385.6 920 L 385.6 910" />
        <path d="M 402.2 920 L 402.2 910" />
        <path d="M 418.8 920 L 418.8 910" />
        <path d="M 435.4 920 L 435.4 910" />
        <path d="M 452 920 L 452 900" />
        <text font-size="30" transform="translate(452, 950)" text-anchor="middle" dominant-baseline="middle" stroke="none" fill="black">20</text>
        <path d="M 468.6 920 L 468.6 910" />
        <path d="M 485.2 920 L 485.2 910" />
        <path d="M 501.8 920 L 501.8 910" />
        <path d="M 518.4 920 L 518.4 910" />
        <path d="M 535 920 L 535 910" />
        <path d="M 551.6 920 L 551.6 910" />
        <path d="M 568.2 920 L 568.2 910" />
        <path d="M 584.8 920 L 584.8 910" />
        <path d="M 601.4 920 L 601.4 910" />
        <path d="M 618 920 L 618 900" />
        <text font-size="30" transform="translate(618, 950)" text-anchor="middle" dominant-baseline="middle" stroke="none" fill="black">30</text>
        <path d="M 634.6 920 L 634.6 910" />
        <path d="M 651.2 920 L 651.2 910" />
        <path d="M 667.8 920 L 667.8 910" />
        <path d="M 684.4 920 L 684.4 910" />
        <path d="M 701 920 L 701 910" />
        <path d="M 717.6 920 L 717.6 910" />
        <path d="M 734.2 920 L 734.2 910" />
        <path d="M 750.8 920 L 750.8 910" />
        <path d="M 767.4 920 L 767.4 910" />
        <path d="M 784 920 L 784 900" />
        <text font-size="30" transform="translate(784, 950)" text-anchor="middle" dominant-baseline="middle" stroke="none" fill="black">40</text>
        <path d="M 800.6 920 L 800.6 910" />
        <path d="M 817.2 920 L 817.2 910" />
        <path d="M 833.8 920 L 833.8 910" />
        <path d="M 850.4 920 L 850.4 910" />
        <path d="M 867 920 L 867 910" />
        <path d="M 883.6 920 L 883.6 910" />
        <path d="M 900.2 920 L 900.2 910" />
        <path d="M 916.8 920 L 916.8 910" />
        <path d="M 933.4 920 L 933.4 910" />
        <path d="M 950 920 L 950 900" />
        <text font-size="30" transform="translate(950, 950)" text-anchor="middle" dominant-baseline="middle" stroke="none" fill="black">50</text>
    </g>
    <g id="frame_0_leftticks">
        <path d="M 120 249.561 L 130 249.561" />
        <path d="M 120 920 L 140 920" />
        <text font-size="30" transform="translate(110, 930)" text-anchor="end" dominant-baseline="middle" stroke="none" fill="black">0</text>
        <path d="M 120 731.439 L 130 731.439" />
        <path d="M 120 542.878 L 130 542.878" />
        <path d="M 120 186.707 L 140 186.707" />
        <text font-size="30" transform="translate(110, 196.707)" text-anchor="end" dominant-baseline="middle" stroke="none" fill="black">3500</text>
        <path d="M 120 354.317 L 130 354.317" />
        <path d="M 120 836.195 L 130 836.195" />
        <path d="M 120 123.853 L 130 123.853" />
        <path d="M 120 647.634 L 130 647.634" />
        <path d="M 120 459.073 L 130 459.073" />
        <path d="M 120 60.9994 L 130 60.9994" />
        <path d="M 120 270.512 L 130 270.512" />
        <path d="M 120 752.39 L 130 752.39" />
        <path d="M 120 563.829 L 130 563.829" />
        <path d="M 120 375.268 L 130 375.268" />
        <path d="M 120 857.146 L 130 857.146" />
        <path d="M 120 668.585 L 130 668.585" />
        <path d="M 120 207.658 L 130 207.658" />
        <path d="M 120 480.024 L 130 480.024" />
        <path d="M 120 291.463 L 140 291.463" />
        <text font-size="30" transform="translate(110, 301.463)" text-anchor="end" dominant-baseline="middle" stroke="none" fill="black">3000</text>
        <path d="M 120 815.244 L 140 815.244" />
        <text font-size="30" transform="translate(110, 825.244)" text-anchor="end" dominant-baseline="middle" stroke="none" fill="black">500</text>
        <path d="M 120 773.341 L 130 773.341" />
        <path d="M 120 584.78 L 130 584.78" />
        <path d="M 120 81.9506 L 140 81.9506" />
        <text font-size="30" transform="translate(110, 91.9506)" text-anchor="end" dominant-baseline="middle" stroke="none" fill="black">4000</text>
        <path d="M 120 396.219 L 140 396.219" />
        <text font-size="30" transform="translate(110, 406.219)" text-anchor="end" dominant-baseline="middle" stroke="none" fill="black">2500</text>
        <path d="M 120 878.098 L 130 878.098" />
        <path d="M 120 689.536 L 130 689.536" />
        <path d="M 120 500.975 L 140 500.975" />
        <text font-size="30" transform="translate(110, 510.975)" text-anchor="end" dominant-baseline="middle" stroke="none" fill="black">2000</text>
        <path d="M 120 312.414 L 130 312.414" />
        <path d="M 120 794.293 L 130 794.293" />
        <path d="M 120 228.609 L 130 228.609" />
        <path d="M 120 605.731 L 140 605.731" />
        <text font-size="30" transform="translate(110, 615.731)" text-anchor="end" dominant-baseline="middle" stroke="none" fill="black">1500</text>
        <path d="M 120 417.17 L 130 417.17" />
        <path d="M 120 165.756 L 130 165.756" />
        <path d="M 120 899.049 L 130 899.049" />
        <path d="M 120 710.488 L 140 710.488" />
        <text font-size="30" transform="translate(110, 720.488)" text-anchor="end" dominant-baseline="middle" stroke="none" fill="black">1000</text>
        <path d="M 120 102.902 L 130 102.902" />
        <path d="M 120 521.927 L 130 521.927" />
        <path d="M 120 333.365 L 130 333.365" />
        <path d="M 120 144.804 L 130 144.804" />
        <path d="M 120 626.683 L 130 626.683" />
        <path d="M 120 438.122 L 130 438.122" />
    </g>
    <text id="frame_0_toplabel" font-size="30" transform="translate(535, 32.6)" text-anchor="middle" dominant-baseline="middle" stroke="none" fill="black">re.findall</text>
    <g id="frame_0_topticks">
        <path d="M 120 50 L 120 70" />
        <path d="M 136.6 50 L 136.6 60" />
        <path d="M 153.2 50 L 153.2 60" />
        <path d="M 169.8 50 L 169.8 60" />
        <path d="M 186.4 50 L 186.4 60" />
        <path d="M 203 50 L 203 60" />
        <path d="M 219.6 50 L 219.6 60" />
        <path d="M 236.2 50 L 236.2 60" />
        <path d="M 252.8 50 L 252.8 60" />
        <path d="M 269.4 50 L 269.4 60" />
        <path d="M 286 50 L 286 70" />
        <path d="M 302.6 50 L 302.6 60" />
        <path d="M 319.2 50 L 319.2 60" />
        <path d="M 335.8 50 L 335.8 60" />
        <path d="M 352.4 50 L 352.4 60" />
        <path d="M 369 50 L 369 60" />
        <path d="M 385.6 50 L 385.6 60" />
        <path d="M 402.2 50 L 402.2 60" />
        <path d="M 418.8 50 L 418.8 60" />
        <path d="M 435.4 50 L 435.4 60" />
        <path d="M 452 50 L 452 70" />
        <path d="M 468.6 50 L 468.6 60" />
        <path d="M 485.2 50 L 485.2 60" />
        <path d="M 501.8 50 L 501.8 60" />
        <path d="M 518.4 50 L 518.4 60" />
        <path d="M 535 50 L 535 60" />
        <path d="M 551.6 50 L 551.6 60" />
        <path d="M 568.2 50 L 568.2 60" />
        <path d="M 584.8 50 L 584.8 60" />
        <path d="M 601.4 50 L 601.4 60" />
        <path d="M 618 50 L 618 70" />
        <path d="M 634.6 50 L 634.6 60" />
        <path d="M 651.2 50 L 651.2 60" />
        <path d="M 667.8 50 L 667.8 60" />
        <path d="M 684.4 50 L 684.4 60" />
        <path d="M 701 50 L 701 60" />
        <path d="M 717.6 50 L 717.6 60" />
        <path d="M 734.2 50 L 734.2 60" />
        <path d="M 750.8 50 L 750.8 60" />
        <path d="M 767.4 50 L 767.4 60" />
        <path d="M 784 50 L 784 70" />
        <path d="M 800.6 50 L 800.6 60" />
        <path d="M 817.2 50 L 817.2 60" />
        <path d="M 833.8 50 L 833.8 60" />
        <path d="M 850.4 50 L 850.4 60" />
        <path d="M 867 50 L 867 60" />
        <path d="M 883.6 50 L 883.6 60" />
        <path d="M 900.2 50 L 900.2 60" />
        <path d="M 916.8 50 L 916.8 60" />
        <path d="M 933.4 50 L 933.4 60" />
        <path d="M 950 50 L 950 70" />
    </g>
    <g id="frame_0_rightticks">
        <path d="M 950 249.561 L 940 249.561" />
        <path d="M 950 920 L 930 920" />
        <path d="M 950 731.439 L 940 731.439" />
        <path d="M 950 542.878 L 940 542.878" />
        <path d="M 950 186.707 L 930 186.707" />
        <path d="M 950 354.317 L 940 354.317" />
        <path d="M 950 836.195 L 940 836.195" />
        <path d="M 950 123.853 L 940 123.853" />
        <path d="M 950 647.634 L 940 647.634" />
        <path d="M 950 459.073 L 940 459.073" />
        <path d="M 950 60.9994 L 940 60.9994" />
        <path d="M 950 270.512 L 940 270.512" />
        <path d="M 950 752.39 L 940 752.39" />
        <path d="M 950 563.829 L 940 563.829" />
        <path d="M 950 375.268 L 940 375.268" />
        <path d="M 950 857.146 L 940 857.146" />
        <path d="M 950 668.585 L 940 668.585" />
        <path d="M 950 207.658 L 940 207.658" />
        <path d="M 950 480.024 L 940 480.024" />
        <path d="M 950 291.463 L 930 291.463" />
        <path d="M 950 815.244 L 930 815.244" />
        <path d="M 950 773.341 L 940 773.341" />
        <path d="M 950 584.78 L 940 584.78" />
        <path d="M 950 81.9506 L 930 81.9506" />
        <path d="M 950 396.219 L 930 396.219" />
        <path d="M 950 878.098 L 940 878.098" />
        <path d="M 950 689.536 L 940 689.536" />
        <path d="M 950 500.975 L 930 500.975" />
        <path d="M 950 312.414 L 940 312.414" />
        <path d="M 950 794.293 L 940 794.293" />
        <path d="M 950 228.609 L 940 228.609" />
        <path d="M 950 605.731 L 930 605.731" />
        <path d="M 950 417.17 L 940 417.17" />
        <path d="M 950 165.756 L 940 165.756" />
        <path d="M 950 899.049 L 940 899.049" />
        <path d="M 950 710.488 L 930 710.488" />
        <path d="M 950 102.902 L 940 102.902" />
        <path d="M 950 521.927 L 940 521.927" />
        <path d="M 950 333.365 L 940 333.365" />
        <path d="M 950 144.804 L 940 144.804" />
        <path d="M 950 626.683 L 940 626.683" />
        <path d="M 950 438.122 L 940 438.122" />
    </g>
</g>
</g>
</svg>
