<?xml version="1.0" standalone="no"?>
<!DOCTYPE svg PUBLIC "-//W3C//DTD SVG 1.1//EN" "http://www.w3.org/Graphics/SVG/1.1/DTD/svg11.dtd">
<svg style="stroke-linejoin:miter; stroke:black; stroke-width:2.5; text-anchor:middle; fill:none" xmlns="http://www.w3.org/2000/svg" font-family="Helvetica, Arial, FreeSans, Sans, sans, sans-serif" width="1000px" height="1000px" version="1.1" xmlns:xlink="http://www.w3.org/1999/xlink" viewBox="0 0 1000 1000">
<defs>
    <clipPath id="Histogram_0_clip">
        <rect x="120" y="50" width="830" height="870" />
    </clipPath>
</defs>
<g id="whole_document">
<rect id="background" x="0" y="0" width="1000" height="1000" stroke="none" fill="white" />
<g id="Histogram_0" clip-path="url(#Histogram_0_clip)">
    <path d="M 120 920 L 120 129.091 L 161.5 129.091 L 161.5 920 L 203 920 L 203 920 L 244.5 920 L 244.5 920 L 286 920 L 286 920 L 327.5 920 L 327.5 920 L 369 920 L 369 920 L 410.5 920 L 410.5 920 L 452 920 L 452 920 L 493.5 920 L 493.5 920 L 535 920 L 535 920 L 576.5 920 L 576.5 920 L 618 920 L 618 920 L 659.5 920 L 659.5 920 L 701 920 L 701 920 L 742.5 920 L 742.5 920 L 784 920 L 784 920 L 825.5 920 L 825.5 920 L 867 920 L 867 920 L 908.5 920 L 908.5 920 L 950 920 L 950 920" stroke-width="3" stroke-dasharray="" stroke="black" stroke-opacity="1" fill="DodgerBlue" fill-opacity="1" />
</g>
<g id="frame_0">
    <rect id="frame_0_border" x="120" y="50" width="830" height="870" />
    <text id="frame_0_bottomlabel" font-size="30" transform="translate(535, 989.6)" text-anchor="middle" dominant-baseline="middle" stroke="none" fill="black">microseconds</text>
    <g id="frame_0_bottomticks">
        <path d="M 120 920 L 120 900" />
        <text font-size="30" transform="translate(120, 950)" text-anchor="middle" dominant-baseline="middle" stroke="none" fill="black">0</text>
        <path d="M 136.6 920 L 136.6 910" />
        <path d="M 153.2 920 L 153.2 910" />
        <path d="M 169.8 920 L 169.8 910" />
        <path d="M 186.4 920 L 186.4 910" />
        <path d="M 203 920 L 203 910" />
        <path d="M 219.6 920 L 219.6 910" />
        <path d="M 236.2 920 L 236.2 910" />
        <path d="M 252.8 920 L 252.8 910" />
        <path d="M 269.4 920 L 269.4 910" />
        <path d="M 286 920 L 286 900" />
        <text font-size="30" transform="translate(286, 950)" text-anchor="middle" dominant-baseline="middle" stroke="none" fill="black">10</text>
        <path d="M 302.6 920 L 302.6 910" />
        <path d="M 319.2 920 L 319.2 910" />
        <path d="M 335.8 920 L 335.8 910" />
        <path d="M 352.4 920 L 352.4 910" />
        <path d="M 369 920 L 369 910" />
        <path d="M 385.6 920 L 385.6 910" />
        <path d="M 402.2 920 L 402.2 910" />
        <path d="M 418.8 920 L 418.8 910" />
        <path d="M 435.4 920 L 435.4 910" />
        <path d="M 452 920 L 452 900" />
        <text font-size="30" transform="translate(452, 950)" text-anchor="middle" dominant-baseline="middle" stroke="none" fill="black">20</text>
        <path d="M 468.6 920 L 468.6 910" />
        <path d="M 485.2 920 L 485.2 910" />
        <path d="M 501.8 920 L 501.8 910" />
        <path d="M 518.4 920 L 518.4 910" />
        <path d="M 535 920 L 535 910" />
        <path d="M 551.6 920 L 551.6 910" />
        <path d="M 568.2 920 L 568.2 910" />
        <path d="M 584.8 920 L 584.8 910" />
        <path d="M 601.4 920 L 601.4 910" />
        <path d="M 618 920 L 618 900" />
        <text font-size="30" transform="translate(618, 950)" text-anchor="middle" dominant-baseline="middle" stroke="none" fill="black">30</text>
        <path d="M 634.6 920 L 634.6 910" />
        <path d="M 651.2 920 L 651.2 910" />
        <path d="M 667.8 920 L 667.8 910" />
        <path d="M 684.4 920 L 684.4 910" />
        <path d="M 701 920 L 701 910" />
        <path d="M 717.6 920 L 717.6 910" />
        <path d="M 734.2 920 L 734.2 910" />
        <path d="M 750.8 920 L 750.8 910" />
        <path d="M 767.4 920 L 767.4 910" />
        <path d="M 784 920 L 784 900" />
        <text font-size="30" transform="translate(784, 950)" text-anchor="middle" dominant-baseline="middle" stroke="none" fill="black">40</text>
        <path d="M 800.6 920 L 800.6 910" />
        <path d="M 817.2 920 L 817.2 910" />
        <path d="M 833.8 920 L 833.8 910" />
        <path d="M 850.4 920 L 850.4 910" />
        <path d="M 867 920 L 867 910" />
        <path d="M 883.6 920 L 883.6 910" />
        <path d="M 900.2 920 L 900.2 910" />
        <path d="M 916.8 920 L 916.8 910" />
        <path d="M 933.4 920 L 933.4 910" />
        <path d="M 950 920 L 950 900" />
        <text font-size="30" transform="translate(950, 950)" text-anchor="middle" dominant-baseline="middle" stroke="none" fill="black">50</text>
    </g>
    <g id="frame_0_leftticks">
        <path d="M 120 772.053 L 130 772.053" />
        <path d="M 120 846.026 L 130 846.026" />
        <path d="M 120 56.9751 L 140 56.9751" />
        <text font-size="30" transform="translate(110, 66.9751)" text-anchor="end" dominant-baseline="middle" stroke="none" fill="black">7×10⁶</text>
        <path d="M 120 488.488 L 130 488.488" />
        <path d="M 120 920 L 140 920" />
        <text font-size="30" transform="translate(110, 930)" text-anchor="end" dominant-baseline="middle" stroke="none" fill="black">0</text>
        <path d="M 120 204.922 L 130 204.922" />
        <path d="M 120 636.435 L 130 636.435" />
        <path d="M 120 352.869 L 130 352.869" />
        <path d="M 120 784.382 L 130 784.382" />
        <path d="M 120 69.304 L 130 69.304" />
        <path d="M 120 500.816 L 130 500.816" />
        <path d="M 120 217.251 L 130 217.251" />
        <path d="M 120 648.764 L 130 648.764" />
        <path d="M 120 365.198 L 130 365.198" />
        <path d="M 120 796.711 L 140 796.711" />
        <text font-size="30" transform="translate(110, 806.711)" text-anchor="end" dominant-baseline="middle" stroke="none" fill="black">10⁶</text>
        <path d="M 120 81.6329 L 130 81.6329" />
        <path d="M 120 513.145 L 130 513.145" />
        <path d="M 120 698.079 L 130 698.079" />
        <path d="M 120 661.093 L 130 661.093" />
        <path d="M 120 907.671 L 130 907.671" />
        <path d="M 120 377.527 L 130 377.527" />
        <path d="M 120 93.9618 L 130 93.9618" />
        <path d="M 120 525.474 L 130 525.474" />
        <path d="M 120 241.909 L 130 241.909" />
        <path d="M 120 673.421 L 140 673.421" />
        <text font-size="30" transform="translate(110, 683.421)" text-anchor="end" dominant-baseline="middle" stroke="none" fill="black">2×10⁶</text>
        <path d="M 120 389.856 L 130 389.856" />
        <path d="M 120 821.369 L 130 821.369" />
        <path d="M 120 106.291 L 130 106.291" />
        <path d="M 120 537.803 L 130 537.803" />
        <path d="M 120 254.238 L 130 254.238" />
        <path d="M 120 685.75 L 130 685.75" />
        <path d="M 120 402.185 L 130 402.185" />
        <path d="M 120 833.698 L 130 833.698" />
        <path d="M 120 118.62 L 130 118.62" />
        <path d="M 120 550.132 L 140 550.132" />
        <text font-size="30" transform="translate(110, 560.132)" text-anchor="end" dominant-baseline="middle" stroke="none" fill="black">3×10⁶</text>
        <path d="M 120 266.567 L 130 266.567" />
        <path d="M 120 895.342 L 130 895.342" />
        <path d="M 120 809.04 L 130 809.04" />
        <path d="M 120 414.514 L 130 414.514" />
        <path d="M 120 130.949 L 130 130.949" />
        <path d="M 120 562.461 L 130 562.461" />
        <path d="M 120 278.896 L 130 278.896" />
        <path d="M 120 710.408 L 130 710.408" />
        <path d="M 120 426.843 L 140 426.843" />
        <text font-size="30" transform="translate(110, 436.843)" text-anchor="end" dominant-baseline="middle" stroke="none" fill="black">4×10⁶</text>
        <path d="M 120 858.355 L 130 858.355" />
        <path d="M 120 340.54 L 130 340.54" />
        <path d="M 120 574.79 L 130 574.79" />
        <path d="M 120 291.225 L 130 291.225" />
        <path d="M 120 722.737 L 130 722.737" />
        <path d="M 120 143.278 L 130 143.278" />
        <path d="M 120 303.554 L 140 303.554" />
        <text font-size="30" transform="translate(110, 313.554)" text-anchor="end" dominant-baseline="middle" stroke="none" fill="black">5×10⁶</text>
        <path d="M 120 439.172 L 130 439.172" />
        <path d="M 120 870.684 L 130 870.684" />
        <path d="M 120 155.606 L 130 155.606" />
        <path d="M 120 587.119 L 130 587.119" />
        <path d="M 120 883.013 L 130 883.013" />
        <path d="M 120 735.066 L 130 735.066" />
        <path d="M 120 451.501 L 130 451.501" />
        <path d="M 120 167.935 L 130 167.935" />
        <path d="M 120 599.448 L 130 599.448" />
        <path d="M 120 229.58 L 130 229.58" />
        <path d="M 120 315.883 L 130 315.883" />
        <path d="M 120 747.395 L 130 747.395" />
        <path d="M 120 463.83 L 130 463.83" />
        <path d="M 120 180.264 L 140 180.264" />
        <text font-size="30" transform="translate(110, 190.264)" text-anchor="end" dominant-baseline="middle" stroke="none" fill="black">6×10⁶</text>
        <path d="M 120 611.777 L 130 611.777" />
        <path d="M 120 328.211 L 130 328.211" />
        <path d="M 120 759.724 L 130 759.724" />
        <path d="M 120 476.159 L 130 476.159" />
        <path d="M 120 192.593 L 130 192.593" />
        <path d="M 120 624.106 L 130 624.106" />
    </g>
    <text id="frame_0_toplabel" font-size="30" transform="translate(535, 32.6)" text-anchor="middle" dominant-baseline="middle" stroke="none" fill="black">stat.sample.update</text>
    <g id="frame_0_topticks">
        <path d="M 120 50 L 120 70" />
        <path d="M 136.6 50 L 136.6 60" />
        <path d="M 153.2 50 L 153.2 60" />
        <path d="M 169.8 50 L 169.8 60" />
        <path d="M 186.4 50 L 186.4 60" />
        <path d="M 203 50 L 203 60" />
        <path d="M 219.6 50 L 219.6 60" />
        <path d="M 236.2 50 L 236.2 60" />
        <path d="M 252.8 50 L 252.8 60" />
        <path d="M 269.4 50 L 269.4 60" />
        <path d="M 286 50 L 286 70" />
        <path d="M 302.6 50 L 302.6 60" />
        <path d="M 319.2 50 L 319.2 60" />
        <path d="M 335.8 50 L 335.8 60" />
        <path d="M 352.4 50 L 352.4 60" />
        <path d="M 369 50 L 369 60" />
        <path d="M 385.6 50 L 385.6 60" />
        <path d="M 402.2 50 L 402.2 60" />
        <path d="M 418.8 50 L 418.8 60" />
        <path d="M 435.4 50 L 435.4 60" />
        <path d="M 452 50 L 452 70" />
        <path d="M 468.6 50 L 468.6 60" />
        <path d="M 485.2 50 L 485.2 60" />
        <path d="M 501.8 50 L 501.8 60" />
        <path d="M 518.4 50 L 518.4 60" />
        <path d="M 535 50 L 535 60" />
        <path d="M 551.6 50 L 551.6 60" />
        <path d="M 568.2 50 L 568.2 60" />
        <path d="M 584.8 50 L 584.8 60" />
        <path d="M 601.4 50 L 601.4 60" />
        <path d="M 618 50 L 618 70" />
        <path d="M 634.6 50 L 634.6 60" />
        <path d="M 651.2 50 L 651.2 60" />
        <path d="M 667.8 50 L 667.8 60" />
        <path d="M 684.4 50 L 684.4 60" />
        <path d="M 701 50 L 701 60" />
        <path d="M 717.6 50 L 717.6 60" />
        <path d="M 734.2 50 L 734.2 60" />
        <path d="M 750.8 50 L 750.8 60" />
        <path d="M 767.4 50 L 767.4 60" />
        <path d="M 784 50 L 784 70" />
        <path d="M 800.6 50 L 800.6 60" />
        <path d="M 817.2 50 L 817.2 60" />
        <path d="M 833.8 50 L 833.8 60" />
        <path d="M 850.4 50 L 850.4 60" />
        <path d="M 867 50 L 867 60" />
        <path d="M 883.6 50 L 883.6 60" />
        <path d="M 900.2 50 L 900.2 60" />
        <path d="M 916.8 50 L 916.8 60" />
        <path d="M 933.4 50 L 933.4 60" />
        <path d="M 950 50 L 950 70" />
    </g>
    <g id="frame_0_rightticks">
        <path d="M 950 772.053 L 940 772.053" />
        <path d="M 950 846.026 L 940 846.026" />
        <path d="M 950 56.9751 L 930 56.9751" />
        <path d="M 950 488.488 L 940 488.488" />
        <path d="M 950 920 L 930 920" />
        <path d="M 950 204.922 L 940 204.922" />
        <path d="M 950 636.435 L 940 636.435" />
        <path d="M 950 352.869 L 940 352.869" />
        <path d="M 950 784.382 L 940 784.382" />
        <path d="M 950 69.304 L 940 69.304" />
        <path d="M 950 500.816 L 940 500.816" />
        <path d="M 950 217.251 L 940 217.251" />
        <path d="M 950 648.764 L 940 648.764" />
        <path d="M 950 365.198 L 940 365.198" />
        <path d="M 950 796.711 L 930 796.711" />
        <path d="M 950 81.6329 L 940 81.6329" />
        <path d="M 950 513.145 L 940 513.145" />
        <path d="M 950 698.079 L 940 698.079" />
        <path d="M 950 661.093 L 940 661.093" />
        <path d="M 950 907.671 L 940 907.671" />
        <path d="M 950 377.527 L 940 377.527" />
        <path d="M 950 93.9618 L 940 93.9618" />
        <path d="M 950 525.474 L 940 525.474" />
        <path d="M 950 241.909 L 940 241.909" />
        <path d="M 950 673.421 L 930 673.421" />
        <path d="M 950 389.856 L 940 389.856" />
        <path d="M 950 821.369 L 940 821.369" />
        <path d="M 950 106.291 L 940 106.291" />
        <path d="M 950 537.803 L 940 537.803" />
        <path d="M 950 254.238 L 940 254.238" />
        <path d="M 950 685.75 L 940 685.75" />
        <path d="M 950 402.185 L 940 402.185" />
        <path d="M 950 833.698 L 940 833.698" />
        <path d="M 950 118.62 L 940 118.62" />
        <path d="M 950 550.132 L 930 550.132" />
        <path d="M 950 266.567 L 940 266.567" />
        <path d="M 950 895.342 L 940 895.342" />
        <path d="M 950 809.04 L 940 809.04" />
        <path d="M 950 414.514 L 940 414.514" />
        <path d="M 950 130.949 L 940 130.949" />
        <path d="M 950 562.461 L 940 562.461" />
        <path d="M 950 278.896 L 940 278.896" />
        <path d="M 950 710.408 L 940 710.408" />
        <path d="M 950 426.843 L 930 426.843" />
        <path d="M 950 858.355 L 940 858.355" />
        <path d="M 950 340.54 L 940 340.54" />
        <path d="M 950 574.79 L 940 574.79" />
        <path d="M 950 291.225 L 940 291.225" />
        <path d="M 950 722.737 L 940 722.737" />
        <path d="M 950 143.278 L 940 143.278" />
        <path d="M 950 303.554 L 930 303.554" />
        <path d="M 950 439.172 L 940 439.172" />
        <path d="M 950 870.684 L 940 870.684" />
        <path d="M 950 155.606 L 940 155.606" />
        <path d="M 950 587.119 L 940 587.119" />
        <path d="M 950 883.013 L 940 883.013" />
        <path d="M 950 735.066 L 940 735.066" />
        <path d="M 950 451.501 L 940 451.501" />
        <path d="M 950 167.935 L 940 167.935" />
        <path d="M 950 599.448 L 940 599.448" />
        <path d="M 950 229.58 L 940 229.58" />
        <path d="M 950 315.883 L 940 315.883" />
        <path d="M 950 747.395 L 940 747.395" />
        <path d="M 950 463.83 L 940 463.83" />
        <path d="M 950 180.264 L 930 180.264" />
        <path d="M 950 611.777 L 940 611.777" />
        <path d="M 950 328.211 L 940 328.211" />
        <path d="M 950 759.724 L 940 759.724" />
        <path d="M 950 476.159 L 940 476.159" />
        <path d="M 950 192.593 L 940 192.593" />
        <path d="M 950 624.106 L 940 624.106" />
    </g>
</g>
</g>
</svg>
