<?xml version="1.0" standalone="no"?>
<!DOCTYPE svg PUBLIC "-//W3C//DTD SVG 1.1//EN" "http://www.w3.org/Graphics/SVG/1.1/DTD/svg11.dtd">
<svg style="stroke-linejoin:miter; stroke:black; stroke-width:2.5; text-anchor:middle; fill:none" xmlns="http://www.w3.org/2000/svg" font-family="Helvetica, Arial, FreeSans, Sans, sans, sans-serif" width="1000px" height="1000px" version="1.1" xmlns:xlink="http://www.w3.org/1999/xlink" viewBox="0 0 1000 1000">
<defs>
    <clipPath id="Histogram_0_clip">
        <rect x="120" y="50" width="830" height="870" />
    </clipPath>
    <clipPath id="Histogram_1_clip">
        <rect x="120" y="50" width="830" height="870" />
    </clipPath>
</defs>
<g id="whole_document">
<rect id="background" x="0" y="0" width="1000" height="1000" stroke="none" fill="white" />
<g id="Histogram_0" clip-path="url(#Histogram_0_clip)">
    <path d="M 120 920 L 120 920 L 161.5 920 L 161.5 129.091 L 203 129.091 L 203 853.257 L 244.5 853.257 L 244.5 837.227 L 286 837.227 L 286 892.253 L 327.5 892.253 L 327.5 909.689 L 369 909.689 L 369 911.048 L 410.5 911.048 L 410.5 908.54 L 452 908.54 L 452 915.735 L 493.5 915.735 L 493.5 917.985 L 535 917.985 L 535 920 L 576.5 920 L 576.5 919.203 L 618 919.203 L 618 919.227 L 659.5 919.227 L 659.5 917.891 L 701 917.891 L 701 920 L 742.5 920 L 742.5 920 L 784 920 L 784 920 L 825.5 920 L 825.5 920 L 867 920 L 867 920 L 908.5 920 L 908.5 920 L 950 920 L 950 920" stroke-width="3" stroke-dasharray="" stroke="black" stroke-opacity="1" fill="DodgerBlue" fill-opacity="1" />
</g>
<g id="Histogram_1" clip-path="url(#Histogram_1_clip)">
    <path d="M 120 920 L 120 920 L 161.5 920 L 161.5 920 L 203 920 L 203 920 L 244.5 920 L 244.5 869.333 L 286 869.333 L 286 905.4 L 327.5 905.4 L 327.5 913.18 L 369 913.18 L 369 914.024 L 410.5 914.024 L 410.5 911.095 L 452 911.095 L 452 916.789 L 493.5 916.789 L 493.5 917.985 L 535 917.985 L 535 920 L 576.5 920 L 576.5 920 L 618 920 L 618 919.227 L 659.5 919.227 L 659.5 918.594 L 701 918.594 L 701 920 L 742.5 920 L 742.5 920 L 784 920 L 784 920 L 825.5 920 L 825.5 920 L 867 920 L 867 920 L 908.5 920 L 908.5 920 L 950 920 L 950 920" stroke-width="3" stroke-dasharray="" stroke="black" stroke-opacity="1" fill="darkorange" fill-opacity="1" />
</g>
<g id="frame_0">
    <rect id="frame_0_border" x="120" y="50" width="830" height="870" />
    <text id="frame_0_bottomlabel" font-size="30" transform="translate(535, 989.6)" text-anchor="middle" dominant-baseline="middle" stroke="none" fill="black">microseconds</text>
    <g id="frame_0_bottomticks">
        <path d="M 120 920 L 120 900" />
        <text font-size="30" transform="translate(120, 950)" text-anchor="middle" dominant-baseline="middle" stroke="none" fill="black">0</text>
        <path d="M 136.6 920 L 136.6 910" />
        <path d="M 153.2 920 L 153.2 910" />
        <path d="M 169.8 920 L 169.8 910" />
        <path d="M 186.4 920 L 186.4 910" />
        <path d="M 203 920 L 203 910" />
        <path d="M 219.6 920 L 219.6 910" />
        <path d="M 236.2 920 L 236.2 910" />
        <path d="M 252.8 920 L 252.8 910" />
        <path d="M 269.4 920 L 269.4 910" />
        <path d="M 286 920 L 286 900" />
        <text font-size="30" transform="translate(286, 950)" text-anchor="middle" dominant-baseline="middle" stroke="none" fill="black">10</text>
        <path d="M 302.6 920 L 302.6 910" />
        <path d="M 319.2 920 L 319.2 910" />
        <path d="M 335.8 920 L 335.8 910" />
        <path d="M 352.4 920 L 352.4 910" />
        <path d="M 369 920 L 369 910" />
        <path d="M 385.6 920 L 385.6 910" />
        <path d="M 402.2 920 L 402.2 910" />
        <path d="M 418.8 920 L 418.8 910" />
        <path d="M 435.4 920 L 435.4 910" />
        <path d="M 452 920 L 452 900" />
        <text font-size="30" transform="translate(452, 950)" text-anchor="middle" dominant-baseline="middle" stroke="none" fill="black">20</text>
        <path d="M 468.6 920 L 468.6 910" />
        <path d="M 485.2 920 L 485.2 910" />
        <path d="M 501.8 920 L 501.8 910" />
        <path d="M 518.4 920 L 518.4 910" />
        <path d="M 535 920 L 535 910" />
        <path d="M 551.6 920 L 551.6 910" />
        <path d="M 568.2 920 L 568.2 910" />
        <path d="M 584.8 920 L 584.8 910" />
        <path d="M 601.4 920 L 601.4 910" />
        <path d="M 618 920 L 618 900" />
        <text font-size="30" transform="translate(618, 950)" text-anchor="middle" dominant-baseline="middle" stroke="none" fill="black">30</text>
        <path d="M 634.6 920 L 634.6 910" />
        <path d="M 651.2 920 L 651.2 910" />
        <path d="M 667.8 920 L 667.8 910" />
        <path d="M 684.4 920 L 684.4 910" />
        <path d="M 701 920 L 701 910" />
        <path d="M 717.6 920 L 717.6 910" />
        <path d="M 734.2 920 L 734.2 910" />
        <path d="M 750.8 920 L 750.8 910" />
        <path d="M 767.4 920 L 767.4 910" />
        <path d="M 784 920 L 784 900" />
        <text font-size="30" transform="translate(784, 950)" text-anchor="middle" dominant-baseline="middle" stroke="none" fill="black">40</text>
        <path d="M 800.6 920 L 800.6 910" />
        <path d="M 817.2 920 L 817.2 910" />
        <path d="M 833.8 920 L 833.8 910" />
        <path d="M 850.4 920 L 850.4 910" />
        <path d="M 867 920 L 867 910" />
        <path d="M 883.6 920 L 883.6 910" />
        <path d="M 900.2 920 L 900.2 910" />
        <path d="M 916.8 920 L 916.8 910" />
        <path d="M 933.4 920 L 933.4 910" />
        <path d="M 950 920 L 950 900" />
        <text font-size="30" transform="translate(950, 950)" text-anchor="middle" dominant-baseline="middle" stroke="none" fill="black">50</text>
    </g>
    <g id="frame_0_leftticks">
        <path d="M 120 545.039 L 130 545.039" />
        <path d="M 120 357.559 L 130 357.559" />
        <path d="M 120 287.254 L 130 287.254" />
        <path d="M 120 427.864 L 130 427.864" />
        <path d="M 120 123.209 L 130 123.209" />
        <path d="M 120 310.689 L 130 310.689" />
        <path d="M 120 755.955 L 130 755.955" />
        <path d="M 120 802.825 L 140 802.825" />
        <text font-size="30" transform="translate(110, 812.825)" text-anchor="end" dominant-baseline="middle" stroke="none" fill="black">5000</text>
        <path d="M 120 193.514 L 130 193.514" />
        <path d="M 120 685.65 L 140 685.65" />
        <text font-size="30" transform="translate(110, 695.65)" text-anchor="end" dominant-baseline="middle" stroke="none" fill="black">10000</text>
        <path d="M 120 920 L 140 920" />
        <text font-size="30" transform="translate(110, 930)" text-anchor="end" dominant-baseline="middle" stroke="none" fill="black">0</text>
        <path d="M 120 826.26 L 130 826.26" />
        <path d="M 120 404.429 L 130 404.429" />
        <path d="M 120 709.085 L 130 709.085" />
        <path d="M 120 568.474 L 140 568.474" />
        <text font-size="30" transform="translate(110, 578.474)" text-anchor="end" dominant-baseline="middle" stroke="none" fill="black">15000</text>
        <path d="M 120 76.3386 L 130 76.3386" />
        <path d="M 120 591.909 L 130 591.909" />
        <path d="M 120 240.384 L 130 240.384" />
        <path d="M 120 451.299 L 140 451.299" />
        <text font-size="30" transform="translate(110, 461.299)" text-anchor="end" dominant-baseline="middle" stroke="none" fill="black">20000</text>
        <path d="M 120 474.734 L 130 474.734" />
        <path d="M 120 146.644 L 130 146.644" />
        <path d="M 120 732.52 L 130 732.52" />
        <path d="M 120 263.819 L 130 263.819" />
        <path d="M 120 334.124 L 140 334.124" />
        <text font-size="30" transform="translate(110, 344.124)" text-anchor="end" dominant-baseline="middle" stroke="none" fill="black">25000</text>
        <path d="M 120 615.345 L 130 615.345" />
        <path d="M 120 216.949 L 140 216.949" />
        <text font-size="30" transform="translate(110, 226.949)" text-anchor="end" dominant-baseline="middle" stroke="none" fill="black">30000</text>
        <path d="M 120 498.169 L 130 498.169" />
        <path d="M 120 849.695 L 130 849.695" />
        <path d="M 120 380.994 L 130 380.994" />
        <path d="M 120 99.7737 L 140 99.7737" />
        <text font-size="30" transform="translate(110, 109.774)" text-anchor="end" dominant-baseline="middle" stroke="none" fill="black">35000</text>
        <path d="M 120 638.78 L 130 638.78" />
        <path d="M 120 873.13 L 130 873.13" />
        <path d="M 120 896.565 L 130 896.565" />
        <path d="M 120 170.079 L 130 170.079" />
        <path d="M 120 779.39 L 130 779.39" />
        <path d="M 120 521.604 L 130 521.604" />
        <path d="M 120 662.215 L 130 662.215" />
        <path d="M 120 52.9036 L 130 52.9036" />
    </g>
    <text id="frame_0_toplabel" font-size="30" transform="translate(535, 32.6)" text-anchor="middle" dominant-baseline="middle" stroke="none" fill="black">la.symmetric</text>
    <g id="frame_0_topticks">
        <path d="M 120 50 L 120 70" />
        <path d="M 136.6 50 L 136.6 60" />
        <path d="M 153.2 50 L 153.2 60" />
        <path d="M 169.8 50 L 169.8 60" />
        <path d="M 186.4 50 L 186.4 60" />
        <path d="M 203 50 L 203 60" />
        <path d="M 219.6 50 L 219.6 60" />
        <path d="M 236.2 50 L 236.2 60" />
        <path d="M 252.8 50 L 252.8 60" />
        <path d="M 269.4 50 L 269.4 60" />
        <path d="M 286 50 L 286 70" />
        <path d="M 302.6 50 L 302.6 60" />
        <path d="M 319.2 50 L 319.2 60" />
        <path d="M 335.8 50 L 335.8 60" />
        <path d="M 352.4 50 L 352.4 60" />
        <path d="M 369 50 L 369 60" />
        <path d="M 385.6 50 L 385.6 60" />
        <path d="M 402.2 50 L 402.2 60" />
        <path d="M 418.8 50 L 418.8 60" />
        <path d="M 435.4 50 L 435.4 60" />
        <path d="M 452 50 L 452 70" />
        <path d="M 468.6 50 L 468.6 60" />
        <path d="M 485.2 50 L 485.2 60" />
        <path d="M 501.8 50 L 501.8 60" />
        <path d="M 518.4 50 L 518.4 60" />
        <path d="M 535 50 L 535 60" />
        <path d="M 551.6 50 L 551.6 60" />
        <path d="M 568.2 50 L 568.2 60" />
        <path d="M 584.8 50 L 584.8 60" />
        <path d="M 601.4 50 L 601.4 60" />
        <path d="M 618 50 L 618 70" />
        <path d="M 634.6 50 L 634.6 60" />
        <path d="M 651.2 50 L 651.2 60" />
        <path d="M 667.8 50 L 667.8 60" />
        <path d="M 684.4 50 L 684.4 60" />
        <path d="M 701 50 L 701 60" />
        <path d="M 717.6 50 L 717.6 60" />
        <path d="M 734.2 50 L 734.2 60" />
        <path d="M 750.8 50 L 750.8 60" />
        <path d="M 767.4 50 L 767.4 60" />
        <path d="M 784 50 L 784 70" />
        <path d="M 800.6 50 L 800.6 60" />
        <path d="M 817.2 50 L 817.2 60" />
        <path d="M 833.8 50 L 833.8 60" />
        <path d="M 850.4 50 L 850.4 60" />
        <path d="M 867 50 L 867 60" />
        <path d="M 883.6 50 L 883.6 60" />
        <path d="M 900.2 50 L 900.2 60" />
        <path d="M 916.8 50 L 916.8 60" />
        <path d="M 933.4 50 L 933.4 60" />
        <path d="M 950 50 L 950 70" />
    </g>
    <g id="frame_0_rightticks">
        <path d="M 950 545.039 L 940 545.039" />
        <path d="M 950 357.559 L 940 357.559" />
        <path d="M 950 287.254 L 940 287.254" />
        <path d="M 950 427.864 L 940 427.864" />
        <path d="M 950 123.209 L 940 123.209" />
        <path d="M 950 310.689 L 940 310.689" />
        <path d="M 950 755.955 L 940 755.955" />
        <path d="M 950 802.825 L 930 802.825" />
        <path d="M 950 193.514 L 940 193.514" />
        <path d="M 950 685.65 L 930 685.65" />
        <path d="M 950 920 L 930 920" />
        <path d="M 950 826.26 L 940 826.26" />
        <path d="M 950 404.429 L 940 404.429" />
        <path d="M 950 709.085 L 940 709.085" />
        <path d="M 950 568.474 L 930 568.474" />
        <path d="M 950 76.3386 L 940 76.3386" />
        <path d="M 950 591.909 L 940 591.909" />
        <path d="M 950 240.384 L 940 240.384" />
        <path d="M 950 451.299 L 930 451.299" />
        <path d="M 950 474.734 L 940 474.734" />
        <path d="M 950 146.644 L 940 146.644" />
        <path d="M 950 732.52 L 940 732.52" />
        <path d="M 950 263.819 L 940 263.819" />
        <path d="M 950 334.124 L 930 334.124" />
        <path d="M 950 615.345 L 940 615.345" />
        <path d="M 950 216.949 L 930 216.949" />
        <path d="M 950 498.169 L 940 498.169" />
        <path d="M 950 849.695 L 940 849.695" />
        <path d="M 950 380.994 L 940 380.994" />
        <path d="M 950 99.7737 L 930 99.7737" />
        <path d="M 950 638.78 L 940 638.78" />
        <path d="M 950 873.13 L 940 873.13" />
        <path d="M 950 896.565 L 940 896.565" />
        <path d="M 950 170.079 L 940 170.079" />
        <path d="M 950 779.39 L 940 779.39" />
        <path d="M 950 521.604 L 940 521.604" />
        <path d="M 950 662.215 L 940 662.215" />
        <path d="M 950 52.9036 L 940 52.9036" />
    </g>
</g>
</g>
</svg>
