<?xml version="1.0" standalone="no"?>
<!DOCTYPE svg PUBLIC "-//W3C//DTD SVG 1.1//EN" "http://www.w3.org/Graphics/SVG/1.1/DTD/svg11.dtd">
<svg style="stroke-linejoin:miter; stroke:black; stroke-width:2.5; text-anchor:middle; fill:none" xmlns="http://www.w3.org/2000/svg" font-family="Helvetica, Arial, FreeSans, Sans, sans, sans-serif" width="1000px" height="1000px" version="1.1" xmlns:xlink="http://www.w3.org/1999/xlink" viewBox="0 0 1000 1000">
<defs>
    <clipPath id="Histogram_0_clip">
        <rect x="120" y="50" width="830" height="870" />
    </clipPath>
</defs>
<g id="whole_document">
<rect id="background" x="0" y="0" width="1000" height="1000" stroke="none" fill="white" />
<g id="Histogram_0" clip-path="url(#Histogram_0_clip)">
    <path d="M 120 920 L 120 129.091 L 161.5 129.091 L 161.5 877.421 L 203 877.421 L 203 920 L 244.5 920 L 244.5 920 L 286 920 L 286 920 L 327.5 920 L 327.5 920 L 369 920 L 369 920 L 410.5 920 L 410.5 920 L 452 920 L 452 920 L 493.5 920 L 493.5 920 L 535 920 L 535 920 L 576.5 920 L 576.5 920 L 618 920 L 618 920 L 659.5 920 L 659.5 920 L 701 920 L 701 920 L 742.5 920 L 742.5 920 L 784 920 L 784 920 L 825.5 920 L 825.5 920 L 867 920 L 867 920 L 908.5 920 L 908.5 920 L 950 920 L 950 920" stroke-width="3" stroke-dasharray="" stroke="black" stroke-opacity="1" fill="DodgerBlue" fill-opacity="1" />
</g>
<g id="frame_0">
    <rect id="frame_0_border" x="120" y="50" width="830" height="870" />
    <text id="frame_0_bottomlabel" font-size="30" transform="translate(535, 989.6)" text-anchor="middle" dominant-baseline="middle" stroke="none" fill="black">microseconds</text>
    <g id="frame_0_bottomticks">
        <path d="M 120 920 L 120 900" />
        <text font-size="30" transform="translate(120, 950)" text-anchor="middle" dominant-baseline="middle" stroke="none" fill="black">0</text>
        <path d="M 136.6 920 L 136.6 910" />
        <path d="M 153.2 920 L 153.2 910" />
        <path d="M 169.8 920 L 169.8 910" />
        <path d="M 186.4 920 L 186.4 910" />
        <path d="M 203 920 L 203 910" />
        <path d="M 219.6 920 L 219.6 910" />
        <path d="M 236.2 920 L 236.2 910" />
        <path d="M 252.8 920 L 252.8 910" />
        <path d="M 269.4 920 L 269.4 910" />
        <path d="M 286 920 L 286 900" />
        <text font-size="30" transform="translate(286, 950)" text-anchor="middle" dominant-baseline="middle" stroke="none" fill="black">10</text>
        <path d="M 302.6 920 L 302.6 910" />
        <path d="M 319.2 920 L 319.2 910" />
        <path d="M 335.8 920 L 335.8 910" />
        <path d="M 352.4 920 L 352.4 910" />
        <path d="M 369 920 L 369 910" />
        <path d="M 385.6 920 L 385.6 910" />
        <path d="M 402.2 920 L 402.2 910" />
        <path d="M 418.8 920 L 418.8 910" />
        <path d="M 435.4 920 L 435.4 910" />
        <path d="M 452 920 L 452 900" />
        <text font-size="30" transform="translate(452, 950)" text-anchor="middle" dominant-baseline="middle" stroke="none" fill="black">20</text>
        <path d="M 468.6 920 L 468.6 910" />
        <path d="M 485.2 920 L 485.2 910" />
        <path d="M 501.8 920 L 501.8 910" />
        <path d="M 518.4 920 L 518.4 910" />
        <path d="M 535 920 L 535 910" />
        <path d="M 551.6 920 L 551.6 910" />
        <path d="M 568.2 920 L 568.2 910" />
        <path d="M 584.8 920 L 584.8 910" />
        <path d="M 601.4 920 L 601.4 910" />
        <path d="M 618 920 L 618 900" />
        <text font-size="30" transform="translate(618, 950)" text-anchor="middle" dominant-baseline="middle" stroke="none" fill="black">30</text>
        <path d="M 634.6 920 L 634.6 910" />
        <path d="M 651.2 920 L 651.2 910" />
        <path d="M 667.8 920 L 667.8 910" />
        <path d="M 684.4 920 L 684.4 910" />
        <path d="M 701 920 L 701 910" />
        <path d="M 717.6 920 L 717.6 910" />
        <path d="M 734.2 920 L 734.2 910" />
        <path d="M 750.8 920 L 750.8 910" />
        <path d="M 767.4 920 L 767.4 910" />
        <path d="M 784 920 L 784 900" />
        <text font-size="30" transform="translate(784, 950)" text-anchor="middle" dominant-baseline="middle" stroke="none" fill="black">40</text>
        <path d="M 800.6 920 L 800.6 910" />
        <path d="M 817.2 920 L 817.2 910" />
        <path d="M 833.8 920 L 833.8 910" />
        <path d="M 850.4 920 L 850.4 910" />
        <path d="M 867 920 L 867 910" />
        <path d="M 883.6 920 L 883.6 910" />
        <path d="M 900.2 920 L 900.2 910" />
        <path d="M 916.8 920 L 916.8 910" />
        <path d="M 933.4 920 L 933.4 910" />
        <path d="M 950 920 L 950 900" />
        <text font-size="30" transform="translate(950, 950)" text-anchor="middle" dominant-baseline="middle" stroke="none" fill="black">50</text>
    </g>
    <g id="frame_0_leftticks">
        <path d="M 120 232.455 L 130 232.455" />
        <path d="M 120 300.241 L 130 300.241" />
        <path d="M 120 920 L 140 920" />
        <text font-size="30" transform="translate(110, 930)" text-anchor="end" dominant-baseline="middle" stroke="none" fill="black">0</text>
        <path d="M 120 106.567 L 130 106.567" />
        <path d="M 120 96.8828 L 130 96.8828" />
        <path d="M 120 745.693 L 130 745.693" />
        <path d="M 120 794.111 L 130 794.111" />
        <path d="M 120 513.283 L 130 513.283" />
        <path d="M 120 542.334 L 130 542.334" />
        <path d="M 120 309.925 L 130 309.925" />
        <path d="M 120 823.163 L 140 823.163" />
        <text font-size="30" transform="translate(110, 833.163)" text-anchor="end" dominant-baseline="middle" stroke="none" fill="black">10000</text>
        <path d="M 120 416.446 L 130 416.446" />
        <path d="M 120 784.428 L 130 784.428" />
        <path d="M 120 697.274 L 130 697.274" />
        <path d="M 120 290.557 L 130 290.557" />
        <path d="M 120 832.846 L 130 832.846" />
        <path d="M 120 571.386 L 130 571.386" />
        <path d="M 120 319.609 L 130 319.609" />
        <path d="M 120 716.642 L 130 716.642" />
        <path d="M 120 726.325 L 140 726.325" />
        <text font-size="30" transform="translate(110, 736.325)" text-anchor="end" dominant-baseline="middle" stroke="none" fill="black">20000</text>
        <path d="M 120 736.009 L 130 736.009" />
        <path d="M 120 193.72 L 130 193.72" />
        <path d="M 120 842.53 L 130 842.53" />
        <path d="M 120 493.916 L 130 493.916" />
        <path d="M 120 474.548 L 130 474.548" />
        <path d="M 120 639.172 L 130 639.172" />
        <path d="M 120 755.377 L 130 755.377" />
        <path d="M 120 629.488 L 140 629.488" />
        <text font-size="30" transform="translate(110, 639.488)" text-anchor="end" dominant-baseline="middle" stroke="none" fill="black">30000</text>
        <path d="M 120 222.771 L 130 222.771" />
        <path d="M 120 426.13 L 130 426.13" />
        <path d="M 120 910.316 L 130 910.316" />
        <path d="M 120 852.214 L 130 852.214" />
        <path d="M 120 125.934 L 130 125.934" />
        <path d="M 120 377.711 L 130 377.711" />
        <path d="M 120 648.856 L 130 648.856" />
        <path d="M 120 358.344 L 130 358.344" />
        <path d="M 120 135.618 L 130 135.618" />
        <path d="M 120 861.898 L 130 861.898" />
        <path d="M 120 813.479 L 130 813.479" />
        <path d="M 120 406.762 L 130 406.762" />
        <path d="M 120 552.018 L 130 552.018" />
        <path d="M 120 445.497 L 130 445.497" />
        <path d="M 120 387.395 L 130 387.395" />
        <path d="M 120 435.813 L 140 435.813" />
        <text font-size="30" transform="translate(110, 445.813)" text-anchor="end" dominant-baseline="middle" stroke="none" fill="black">50000</text>
        <path d="M 120 658.539 L 130 658.539" />
        <path d="M 120 154.985 L 130 154.985" />
        <path d="M 120 765.06 L 130 765.06" />
        <path d="M 120 67.8316 L 130 67.8316" />
        <path d="M 120 561.702 L 130 561.702" />
        <path d="M 120 251.823 L 130 251.823" />
        <path d="M 120 668.223 L 130 668.223" />
        <path d="M 120 774.744 L 130 774.744" />
        <path d="M 120 871.581 L 130 871.581" />
        <path d="M 120 464.865 L 130 464.865" />
        <path d="M 120 338.976 L 140 338.976" />
        <text font-size="30" transform="translate(110, 348.976)" text-anchor="end" dominant-baseline="middle" stroke="none" fill="black">60000</text>
        <path d="M 120 619.804 L 130 619.804" />
        <path d="M 120 213.088 L 130 213.088" />
        <path d="M 120 261.506 L 130 261.506" />
        <path d="M 120 87.1991 L 130 87.1991" />
        <path d="M 120 900.633 L 130 900.633" />
        <path d="M 120 368.027 L 130 368.027" />
        <path d="M 120 164.669 L 130 164.669" />
        <path d="M 120 329.292 L 130 329.292" />
        <path d="M 120 522.967 L 130 522.967" />
        <path d="M 120 271.19 L 130 271.19" />
        <path d="M 120 242.139 L 140 242.139" />
        <text font-size="30" transform="translate(110, 252.139)" text-anchor="end" dominant-baseline="middle" stroke="none" fill="black">70000</text>
        <path d="M 120 803.795 L 130 803.795" />
        <path d="M 120 687.59 L 130 687.59" />
        <path d="M 120 881.265 L 130 881.265" />
        <path d="M 120 677.907 L 130 677.907" />
        <path d="M 120 174.353 L 130 174.353" />
        <path d="M 120 145.301 L 140 145.301" />
        <text font-size="30" transform="translate(110, 155.301)" text-anchor="end" dominant-baseline="middle" stroke="none" fill="black">80000</text>
        <path d="M 120 280.874 L 130 280.874" />
        <path d="M 120 348.66 L 130 348.66" />
        <path d="M 120 77.5154 L 130 77.5154" />
        <path d="M 120 581.069 L 130 581.069" />
        <path d="M 120 184.036 L 130 184.036" />
        <path d="M 120 590.753 L 130 590.753" />
        <path d="M 120 455.181 L 130 455.181" />
        <path d="M 120 116.25 L 130 116.25" />
        <path d="M 120 397.078 L 130 397.078" />
        <path d="M 120 600.437 L 130 600.437" />
        <path d="M 120 610.121 L 130 610.121" />
        <path d="M 120 203.404 L 130 203.404" />
        <path d="M 120 706.958 L 130 706.958" />
        <path d="M 120 58.1479 L 130 58.1479" />
        <path d="M 120 532.651 L 140 532.651" />
        <text font-size="30" transform="translate(110, 542.651)" text-anchor="end" dominant-baseline="middle" stroke="none" fill="black">40000</text>
        <path d="M 120 890.949 L 130 890.949" />
        <path d="M 120 484.232 L 130 484.232" />
        <path d="M 120 503.6 L 130 503.6" />
    </g>
    <text id="frame_0_toplabel" font-size="30" transform="translate(535, 32.6)" text-anchor="middle" dominant-baseline="middle" stroke="none" fill="black">map.keys</text>
    <g id="frame_0_topticks">
        <path d="M 120 50 L 120 70" />
        <path d="M 136.6 50 L 136.6 60" />
        <path d="M 153.2 50 L 153.2 60" />
        <path d="M 169.8 50 L 169.8 60" />
        <path d="M 186.4 50 L 186.4 60" />
        <path d="M 203 50 L 203 60" />
        <path d="M 219.6 50 L 219.6 60" />
        <path d="M 236.2 50 L 236.2 60" />
        <path d="M 252.8 50 L 252.8 60" />
        <path d="M 269.4 50 L 269.4 60" />
        <path d="M 286 50 L 286 70" />
        <path d="M 302.6 50 L 302.6 60" />
        <path d="M 319.2 50 L 319.2 60" />
        <path d="M 335.8 50 L 335.8 60" />
        <path d="M 352.4 50 L 352.4 60" />
        <path d="M 369 50 L 369 60" />
        <path d="M 385.6 50 L 385.6 60" />
        <path d="M 402.2 50 L 402.2 60" />
        <path d="M 418.8 50 L 418.8 60" />
        <path d="M 435.4 50 L 435.4 60" />
        <path d="M 452 50 L 452 70" />
        <path d="M 468.6 50 L 468.6 60" />
        <path d="M 485.2 50 L 485.2 60" />
        <path d="M 501.8 50 L 501.8 60" />
        <path d="M 518.4 50 L 518.4 60" />
        <path d="M 535 50 L 535 60" />
        <path d="M 551.6 50 L 551.6 60" />
        <path d="M 568.2 50 L 568.2 60" />
        <path d="M 584.8 50 L 584.8 60" />
        <path d="M 601.4 50 L 601.4 60" />
        <path d="M 618 50 L 618 70" />
        <path d="M 634.6 50 L 634.6 60" />
        <path d="M 651.2 50 L 651.2 60" />
        <path d="M 667.8 50 L 667.8 60" />
        <path d="M 684.4 50 L 684.4 60" />
        <path d="M 701 50 L 701 60" />
        <path d="M 717.6 50 L 717.6 60" />
        <path d="M 734.2 50 L 734.2 60" />
        <path d="M 750.8 50 L 750.8 60" />
        <path d="M 767.4 50 L 767.4 60" />
        <path d="M 784 50 L 784 70" />
        <path d="M 800.6 50 L 800.6 60" />
        <path d="M 817.2 50 L 817.2 60" />
        <path d="M 833.8 50 L 833.8 60" />
        <path d="M 850.4 50 L 850.4 60" />
        <path d="M 867 50 L 867 60" />
        <path d="M 883.6 50 L 883.6 60" />
        <path d="M 900.2 50 L 900.2 60" />
        <path d="M 916.8 50 L 916.8 60" />
        <path d="M 933.4 50 L 933.4 60" />
        <path d="M 950 50 L 950 70" />
    </g>
    <g id="frame_0_rightticks">
        <path d="M 950 232.455 L 940 232.455" />
        <path d="M 950 300.241 L 940 300.241" />
        <path d="M 950 920 L 930 920" />
        <path d="M 950 106.567 L 940 106.567" />
        <path d="M 950 96.8828 L 940 96.8828" />
        <path d="M 950 745.693 L 940 745.693" />
        <path d="M 950 794.111 L 940 794.111" />
        <path d="M 950 513.283 L 940 513.283" />
        <path d="M 950 542.334 L 940 542.334" />
        <path d="M 950 309.925 L 940 309.925" />
        <path d="M 950 823.163 L 930 823.163" />
        <path d="M 950 416.446 L 940 416.446" />
        <path d="M 950 784.428 L 940 784.428" />
        <path d="M 950 697.274 L 940 697.274" />
        <path d="M 950 290.557 L 940 290.557" />
        <path d="M 950 832.846 L 940 832.846" />
        <path d="M 950 571.386 L 940 571.386" />
        <path d="M 950 319.609 L 940 319.609" />
        <path d="M 950 716.642 L 940 716.642" />
        <path d="M 950 726.325 L 930 726.325" />
        <path d="M 950 736.009 L 940 736.009" />
        <path d="M 950 193.72 L 940 193.72" />
        <path d="M 950 842.53 L 940 842.53" />
        <path d="M 950 493.916 L 940 493.916" />
        <path d="M 950 474.548 L 940 474.548" />
        <path d="M 950 639.172 L 940 639.172" />
        <path d="M 950 755.377 L 940 755.377" />
        <path d="M 950 629.488 L 930 629.488" />
        <path d="M 950 222.771 L 940 222.771" />
        <path d="M 950 426.13 L 940 426.13" />
        <path d="M 950 910.316 L 940 910.316" />
        <path d="M 950 852.214 L 940 852.214" />
        <path d="M 950 125.934 L 940 125.934" />
        <path d="M 950 377.711 L 940 377.711" />
        <path d="M 950 648.856 L 940 648.856" />
        <path d="M 950 358.344 L 940 358.344" />
        <path d="M 950 135.618 L 940 135.618" />
        <path d="M 950 861.898 L 940 861.898" />
        <path d="M 950 813.479 L 940 813.479" />
        <path d="M 950 406.762 L 940 406.762" />
        <path d="M 950 552.018 L 940 552.018" />
        <path d="M 950 445.497 L 940 445.497" />
        <path d="M 950 387.395 L 940 387.395" />
        <path d="M 950 435.813 L 930 435.813" />
        <path d="M 950 658.539 L 940 658.539" />
        <path d="M 950 154.985 L 940 154.985" />
        <path d="M 950 765.06 L 940 765.06" />
        <path d="M 950 67.8316 L 940 67.8316" />
        <path d="M 950 561.702 L 940 561.702" />
        <path d="M 950 251.823 L 940 251.823" />
        <path d="M 950 668.223 L 940 668.223" />
        <path d="M 950 774.744 L 940 774.744" />
        <path d="M 950 871.581 L 940 871.581" />
        <path d="M 950 464.865 L 940 464.865" />
        <path d="M 950 338.976 L 930 338.976" />
        <path d="M 950 619.804 L 940 619.804" />
        <path d="M 950 213.088 L 940 213.088" />
        <path d="M 950 261.506 L 940 261.506" />
        <path d="M 950 87.1991 L 940 87.1991" />
        <path d="M 950 900.633 L 940 900.633" />
        <path d="M 950 368.027 L 940 368.027" />
        <path d="M 950 164.669 L 940 164.669" />
        <path d="M 950 329.292 L 940 329.292" />
        <path d="M 950 522.967 L 940 522.967" />
        <path d="M 950 271.19 L 940 271.19" />
        <path d="M 950 242.139 L 930 242.139" />
        <path d="M 950 803.795 L 940 803.795" />
        <path d="M 950 687.59 L 940 687.59" />
        <path d="M 950 881.265 L 940 881.265" />
        <path d="M 950 677.907 L 940 677.907" />
        <path d="M 950 174.353 L 940 174.353" />
        <path d="M 950 145.301 L 930 145.301" />
        <path d="M 950 280.874 L 940 280.874" />
        <path d="M 950 348.66 L 940 348.66" />
        <path d="M 950 77.5154 L 940 77.5154" />
        <path d="M 950 581.069 L 940 581.069" />
        <path d="M 950 184.036 L 940 184.036" />
        <path d="M 950 590.753 L 940 590.753" />
        <path d="M 950 455.181 L 940 455.181" />
        <path d="M 950 116.25 L 940 116.25" />
        <path d="M 950 397.078 L 940 397.078" />
        <path d="M 950 600.437 L 940 600.437" />
        <path d="M 950 610.121 L 940 610.121" />
        <path d="M 950 203.404 L 940 203.404" />
        <path d="M 950 706.958 L 940 706.958" />
        <path d="M 950 58.1479 L 940 58.1479" />
        <path d="M 950 532.651 L 930 532.651" />
        <path d="M 950 890.949 L 940 890.949" />
        <path d="M 950 484.232 L 940 484.232" />
        <path d="M 950 503.6 L 940 503.6" />
    </g>
</g>
</g>
</svg>
