<?xml version="1.0" standalone="no"?>
<!DOCTYPE svg PUBLIC "-//W3C//DTD SVG 1.1//EN" "http://www.w3.org/Graphics/SVG/1.1/DTD/svg11.dtd">
<svg style="stroke-linejoin:miter; stroke:black; stroke-width:2.5; text-anchor:middle; fill:none" xmlns="http://www.w3.org/2000/svg" font-family="Helvetica, Arial, FreeSans, Sans, sans, sans-serif" width="1000px" height="1000px" version="1.1" xmlns:xlink="http://www.w3.org/1999/xlink" viewBox="0 0 1000 1000">
<defs>
    <clipPath id="Histogram_0_clip">
        <rect x="120" y="50" width="830" height="870" />
    </clipPath>
</defs>
<g id="whole_document">
<rect id="background" x="0" y="0" width="1000" height="1000" stroke="none" fill="white" />
<g id="Histogram_0" clip-path="url(#Histogram_0_clip)">
    <path d="M 120 920 L 120 129.091 L 161.5 129.091 L 161.5 894.099 L 203 894.099 L 203 920 L 244.5 920 L 244.5 879.573 L 286 879.573 L 286 918.272 L 327.5 918.272 L 327.5 920 L 369 920 L 369 920 L 410.5 920 L 410.5 920 L 452 920 L 452 920 L 493.5 920 L 493.5 920 L 535 920 L 535 920 L 576.5 920 L 576.5 920 L 618 920 L 618 920 L 659.5 920 L 659.5 920 L 701 920 L 701 920 L 742.5 920 L 742.5 920 L 784 920 L 784 920 L 825.5 920 L 825.5 920 L 867 920 L 867 920 L 908.5 920 L 908.5 920 L 950 920 L 950 920" stroke-width="3" stroke-dasharray="" stroke="black" stroke-opacity="1" fill="DodgerBlue" fill-opacity="1" />
</g>
<g id="frame_0">
    <rect id="frame_0_border" x="120" y="50" width="830" height="870" />
    <text id="frame_0_bottomlabel" font-size="30" transform="translate(535, 989.6)" text-anchor="middle" dominant-baseline="middle" stroke="none" fill="black">microseconds</text>
    <g id="frame_0_bottomticks">
        <path d="M 120 920 L 120 900" />
        <text font-size="30" transform="translate(120, 950)" text-anchor="middle" dominant-baseline="middle" stroke="none" fill="black">0</text>
        <path d="M 136.6 920 L 136.6 910" />
        <path d="M 153.2 920 L 153.2 910" />
        <path d="M 169.8 920 L 169.8 910" />
        <path d="M 186.4 920 L 186.4 910" />
        <path d="M 203 920 L 203 910" />
        <path d="M 219.6 920 L 219.6 910" />
        <path d="M 236.2 920 L 236.2 910" />
        <path d="M 252.8 920 L 252.8 910" />
        <path d="M 269.4 920 L 269.4 910" />
        <path d="M 286 920 L 286 900" />
        <text font-size="30" transform="translate(286, 950)" text-anchor="middle" dominant-baseline="middle" stroke="none" fill="black">10</text>
        <path d="M 302.6 920 L 302.6 910" />
        <path d="M 319.2 920 L 319.2 910" />
        <path d="M 335.8 920 L 335.8 910" />
        <path d="M 352.4 920 L 352.4 910" />
        <path d="M 369 920 L 369 910" />
        <path d="M 385.6 920 L 385.6 910" />
        <path d="M 402.2 920 L 402.2 910" />
        <path d="M 418.8 920 L 418.8 910" />
        <path d="M 435.4 920 L 435.4 910" />
        <path d="M 452 920 L 452 900" />
        <text font-size="30" transform="translate(452, 950)" text-anchor="middle" dominant-baseline="middle" stroke="none" fill="black">20</text>
        <path d="M 468.6 920 L 468.6 910" />
        <path d="M 485.2 920 L 485.2 910" />
        <path d="M 501.8 920 L 501.8 910" />
        <path d="M 518.4 920 L 518.4 910" />
        <path d="M 535 920 L 535 910" />
        <path d="M 551.6 920 L 551.6 910" />
        <path d="M 568.2 920 L 568.2 910" />
        <path d="M 584.8 920 L 584.8 910" />
        <path d="M 601.4 920 L 601.4 910" />
        <path d="M 618 920 L 618 900" />
        <text font-size="30" transform="translate(618, 950)" text-anchor="middle" dominant-baseline="middle" stroke="none" fill="black">30</text>
        <path d="M 634.6 920 L 634.6 910" />
        <path d="M 651.2 920 L 651.2 910" />
        <path d="M 667.8 920 L 667.8 910" />
        <path d="M 684.4 920 L 684.4 910" />
        <path d="M 701 920 L 701 910" />
        <path d="M 717.6 920 L 717.6 910" />
        <path d="M 734.2 920 L 734.2 910" />
        <path d="M 750.8 920 L 750.8 910" />
        <path d="M 767.4 920 L 767.4 910" />
        <path d="M 784 920 L 784 900" />
        <text font-size="30" transform="translate(784, 950)" text-anchor="middle" dominant-baseline="middle" stroke="none" fill="black">40</text>
        <path d="M 800.6 920 L 800.6 910" />
        <path d="M 817.2 920 L 817.2 910" />
        <path d="M 833.8 920 L 833.8 910" />
        <path d="M 850.4 920 L 850.4 910" />
        <path d="M 867 920 L 867 910" />
        <path d="M 883.6 920 L 883.6 910" />
        <path d="M 900.2 920 L 900.2 910" />
        <path d="M 916.8 920 L 916.8 910" />
        <path d="M 933.4 920 L 933.4 910" />
        <path d="M 950 920 L 950 900" />
        <text font-size="30" transform="translate(950, 950)" text-anchor="middle" dominant-baseline="middle" stroke="none" fill="black">50</text>
    </g>
    <g id="frame_0_leftticks">
        <path d="M 120 632.011 L 130 632.011" />
        <path d="M 120 488.016 L 130 488.016" />
        <path d="M 120 434.018 L 130 434.018" />
        <path d="M 120 542.014 L 130 542.014" />
        <path d="M 120 308.022 L 130 308.022" />
        <path d="M 120 452.017 L 130 452.017" />
        <path d="M 120 794.005 L 130 794.005" />
        <path d="M 120 74.0309 L 130 74.0309" />
        <path d="M 120 650.01 L 130 650.01" />
        <path d="M 120 920 L 140 920" />
        <text font-size="30" transform="translate(110, 930)" text-anchor="end" dominant-baseline="middle" stroke="none" fill="black">0</text>
        <path d="M 120 398.019 L 130 398.019" />
        <path d="M 120 362.02 L 130 362.02" />
        <path d="M 120 218.026 L 130 218.026" />
        <path d="M 120 848.003 L 130 848.003" />
        <path d="M 120 524.014 L 130 524.014" />
        <path d="M 120 128.029 L 130 128.029" />
        <path d="M 120 740.007 L 140 740.007" />
        <text font-size="30" transform="translate(110, 750.007)" text-anchor="end" dominant-baseline="middle" stroke="none" fill="black">10000</text>
        <path d="M 120 560.013 L 140 560.013" />
        <text font-size="30" transform="translate(110, 570.013)" text-anchor="end" dominant-baseline="middle" stroke="none" fill="black">20000</text>
        <path d="M 120 758.006 L 130 758.006" />
        <path d="M 120 272.024 L 130 272.024" />
        <path d="M 120 668.009 L 130 668.009" />
        <path d="M 120 830.003 L 130 830.003" />
        <path d="M 120 182.027 L 130 182.027" />
        <path d="M 120 578.013 L 130 578.013" />
        <path d="M 120 326.022 L 130 326.022" />
        <path d="M 120 776.005 L 130 776.005" />
        <path d="M 120 416.018 L 130 416.018" />
        <path d="M 120 470.016 L 130 470.016" />
        <path d="M 120 686.009 L 130 686.009" />
        <path d="M 120 236.025 L 130 236.025" />
        <path d="M 120 380.02 L 140 380.02" />
        <text font-size="30" transform="translate(110, 390.02)" text-anchor="end" dominant-baseline="middle" stroke="none" fill="black">30000</text>
        <path d="M 120 884.001 L 130 884.001" />
        <path d="M 120 866.002 L 130 866.002" />
        <path d="M 120 146.028 L 130 146.028" />
        <path d="M 120 506.015 L 130 506.015" />
        <path d="M 120 290.023 L 130 290.023" />
        <path d="M 120 704.008 L 130 704.008" />
        <path d="M 120 596.012 L 130 596.012" />
        <path d="M 120 56.0316 L 130 56.0316" />
        <path d="M 120 902.001 L 130 902.001" />
        <path d="M 120 164.028 L 130 164.028" />
        <path d="M 120 344.021 L 130 344.021" />
        <path d="M 120 812.004 L 130 812.004" />
        <path d="M 120 614.011 L 130 614.011" />
        <path d="M 120 200.026 L 140 200.026" />
        <text font-size="30" transform="translate(110, 210.026)" text-anchor="end" dominant-baseline="middle" stroke="none" fill="black">40000</text>
        <path d="M 120 110.03 L 130 110.03" />
        <path d="M 120 722.007 L 130 722.007" />
        <path d="M 120 254.024 L 130 254.024" />
        <path d="M 120 92.0303 L 130 92.0303" />
    </g>
    <text id="frame_0_toplabel" font-size="30" transform="translate(535, 32.6)" text-anchor="middle" dominant-baseline="middle" stroke="none" fill="black">m.link.softplus</text>
    <g id="frame_0_topticks">
        <path d="M 120 50 L 120 70" />
        <path d="M 136.6 50 L 136.6 60" />
        <path d="M 153.2 50 L 153.2 60" />
        <path d="M 169.8 50 L 169.8 60" />
        <path d="M 186.4 50 L 186.4 60" />
        <path d="M 203 50 L 203 60" />
        <path d="M 219.6 50 L 219.6 60" />
        <path d="M 236.2 50 L 236.2 60" />
        <path d="M 252.8 50 L 252.8 60" />
        <path d="M 269.4 50 L 269.4 60" />
        <path d="M 286 50 L 286 70" />
        <path d="M 302.6 50 L 302.6 60" />
        <path d="M 319.2 50 L 319.2 60" />
        <path d="M 335.8 50 L 335.8 60" />
        <path d="M 352.4 50 L 352.4 60" />
        <path d="M 369 50 L 369 60" />
        <path d="M 385.6 50 L 385.6 60" />
        <path d="M 402.2 50 L 402.2 60" />
        <path d="M 418.8 50 L 418.8 60" />
        <path d="M 435.4 50 L 435.4 60" />
        <path d="M 452 50 L 452 70" />
        <path d="M 468.6 50 L 468.6 60" />
        <path d="M 485.2 50 L 485.2 60" />
        <path d="M 501.8 50 L 501.8 60" />
        <path d="M 518.4 50 L 518.4 60" />
        <path d="M 535 50 L 535 60" />
        <path d="M 551.6 50 L 551.6 60" />
        <path d="M 568.2 50 L 568.2 60" />
        <path d="M 584.8 50 L 584.8 60" />
        <path d="M 601.4 50 L 601.4 60" />
        <path d="M 618 50 L 618 70" />
        <path d="M 634.6 50 L 634.6 60" />
        <path d="M 651.2 50 L 651.2 60" />
        <path d="M 667.8 50 L 667.8 60" />
        <path d="M 684.4 50 L 684.4 60" />
        <path d="M 701 50 L 701 60" />
        <path d="M 717.6 50 L 717.6 60" />
        <path d="M 734.2 50 L 734.2 60" />
        <path d="M 750.8 50 L 750.8 60" />
        <path d="M 767.4 50 L 767.4 60" />
        <path d="M 784 50 L 784 70" />
        <path d="M 800.6 50 L 800.6 60" />
        <path d="M 817.2 50 L 817.2 60" />
        <path d="M 833.8 50 L 833.8 60" />
        <path d="M 850.4 50 L 850.4 60" />
        <path d="M 867 50 L 867 60" />
        <path d="M 883.6 50 L 883.6 60" />
        <path d="M 900.2 50 L 900.2 60" />
        <path d="M 916.8 50 L 916.8 60" />
        <path d="M 933.4 50 L 933.4 60" />
        <path d="M 950 50 L 950 70" />
    </g>
    <g id="frame_0_rightticks">
        <path d="M 950 632.011 L 940 632.011" />
        <path d="M 950 488.016 L 940 488.016" />
        <path d="M 950 434.018 L 940 434.018" />
        <path d="M 950 542.014 L 940 542.014" />
        <path d="M 950 308.022 L 940 308.022" />
        <path d="M 950 452.017 L 940 452.017" />
        <path d="M 950 794.005 L 940 794.005" />
        <path d="M 950 74.0309 L 940 74.0309" />
        <path d="M 950 650.01 L 940 650.01" />
        <path d="M 950 920 L 930 920" />
        <path d="M 950 398.019 L 940 398.019" />
        <path d="M 950 362.02 L 940 362.02" />
        <path d="M 950 218.026 L 940 218.026" />
        <path d="M 950 848.003 L 940 848.003" />
        <path d="M 950 524.014 L 940 524.014" />
        <path d="M 950 128.029 L 940 128.029" />
        <path d="M 950 740.007 L 930 740.007" />
        <path d="M 950 560.013 L 930 560.013" />
        <path d="M 950 758.006 L 940 758.006" />
        <path d="M 950 272.024 L 940 272.024" />
        <path d="M 950 668.009 L 940 668.009" />
        <path d="M 950 830.003 L 940 830.003" />
        <path d="M 950 182.027 L 940 182.027" />
        <path d="M 950 578.013 L 940 578.013" />
        <path d="M 950 326.022 L 940 326.022" />
        <path d="M 950 776.005 L 940 776.005" />
        <path d="M 950 416.018 L 940 416.018" />
        <path d="M 950 470.016 L 940 470.016" />
        <path d="M 950 686.009 L 940 686.009" />
        <path d="M 950 236.025 L 940 236.025" />
        <path d="M 950 380.02 L 930 380.02" />
        <path d="M 950 884.001 L 940 884.001" />
        <path d="M 950 866.002 L 940 866.002" />
        <path d="M 950 146.028 L 940 146.028" />
        <path d="M 950 506.015 L 940 506.015" />
        <path d="M 950 290.023 L 940 290.023" />
        <path d="M 950 704.008 L 940 704.008" />
        <path d="M 950 596.012 L 940 596.012" />
        <path d="M 950 56.0316 L 940 56.0316" />
        <path d="M 950 902.001 L 940 902.001" />
        <path d="M 950 164.028 L 940 164.028" />
        <path d="M 950 344.021 L 940 344.021" />
        <path d="M 950 812.004 L 940 812.004" />
        <path d="M 950 614.011 L 940 614.011" />
        <path d="M 950 200.026 L 930 200.026" />
        <path d="M 950 110.03 L 940 110.03" />
        <path d="M 950 722.007 L 940 722.007" />
        <path d="M 950 254.024 L 940 254.024" />
        <path d="M 950 92.0303 L 940 92.0303" />
    </g>
</g>
</g>
</svg>
