<?xml version="1.0" standalone="no"?>
<!DOCTYPE svg PUBLIC "-//W3C//DTD SVG 1.1//EN" "http://www.w3.org/Graphics/SVG/1.1/DTD/svg11.dtd">
<svg style="stroke-linejoin:miter; stroke:black; stroke-width:2.5; text-anchor:middle; fill:none" xmlns="http://www.w3.org/2000/svg" font-family="Helvetica, Arial, FreeSans, Sans, sans, sans-serif" width="1000px" height="1000px" version="1.1" xmlns:xlink="http://www.w3.org/1999/xlink" viewBox="0 0 1000 1000">
<defs>
    <clipPath id="Histogram_0_clip">
        <rect x="120" y="50" width="830" height="870" />
    </clipPath>
    <clipPath id="Histogram_1_clip">
        <rect x="120" y="50" width="830" height="870" />
    </clipPath>
</defs>
<g id="whole_document">
<rect id="background" x="0" y="0" width="1000" height="1000" stroke="none" fill="white" />
<g id="Histogram_0" clip-path="url(#Histogram_0_clip)">
    <path d="M 120 920 L 120 129.091 L 161.5 129.091 L 161.5 919.904 L 203 919.904 L 203 920 L 244.5 920 L 244.5 556.136 L 286 556.136 L 286 919.654 L 327.5 919.654 L 327.5 919.711 L 369 919.711 L 369 917.952 L 410.5 917.952 L 410.5 919.992 L 452 919.992 L 452 919.993 L 493.5 919.993 L 493.5 920 L 535 920 L 535 920 L 576.5 920 L 576.5 920 L 618 920 L 618 920 L 659.5 920 L 659.5 920 L 701 920 L 701 920 L 742.5 920 L 742.5 920 L 784 920 L 784 920 L 825.5 920 L 825.5 920 L 867 920 L 867 920 L 908.5 920 L 908.5 920 L 950 920 L 950 920" stroke-width="3" stroke-dasharray="" stroke="black" stroke-opacity="1" fill="DodgerBlue" fill-opacity="1" />
</g>
<g id="Histogram_1" clip-path="url(#Histogram_1_clip)">
    <path d="M 120 920 L 120 920 L 161.5 920 L 161.5 920 L 203 920 L 203 920 L 244.5 920 L 244.5 556.136 L 286 556.136 L 286 919.654 L 327.5 919.654 L 327.5 919.711 L 369 919.711 L 369 917.952 L 410.5 917.952 L 410.5 919.992 L 452 919.992 L 452 919.993 L 493.5 919.993 L 493.5 920 L 535 920 L 535 920 L 576.5 920 L 576.5 920 L 618 920 L 618 920 L 659.5 920 L 659.5 920 L 701 920 L 701 920 L 742.5 920 L 742.5 920 L 784 920 L 784 920 L 825.5 920 L 825.5 920 L 867 920 L 867 920 L 908.5 920 L 908.5 920 L 950 920 L 950 920" stroke-width="3" stroke-dasharray="" stroke="black" stroke-opacity="1" fill="darkorange" fill-opacity="1" />
</g>
<g id="frame_0">
    <rect id="frame_0_border" x="120" y="50" width="830" height="870" />
    <text id="frame_0_bottomlabel" font-size="30" transform="translate(535, 989.6)" text-anchor="middle" dominant-baseline="middle" stroke="none" fill="black">microseconds</text>
    <g id="frame_0_bottomticks">
        <path d="M 120 920 L 120 900" />
        <text font-size="30" transform="translate(120, 950)" text-anchor="middle" dominant-baseline="middle" stroke="none" fill="black">0</text>
        <path d="M 136.6 920 L 136.6 910" />
        <path d="M 153.2 920 L 153.2 910" />
        <path d="M 169.8 920 L 169.8 910" />
        <path d="M 186.4 920 L 186.4 910" />
        <path d="M 203 920 L 203 910" />
        <path d="M 219.6 920 L 219.6 910" />
        <path d="M 236.2 920 L 236.2 910" />
        <path d="M 252.8 920 L 252.8 910" />
        <path d="M 269.4 920 L 269.4 910" />
        <path d="M 286 920 L 286 900" />
        <text font-size="30" transform="translate(286, 950)" text-anchor="middle" dominant-baseline="middle" stroke="none" fill="black">10</text>
        <path d="M 302.6 920 L 302.6 910" />
        <path d="M 319.2 920 L 319.2 910" />
        <path d="M 335.8 920 L 335.8 910" />
        <path d="M 352.4 920 L 352.4 910" />
        <path d="M 369 920 L 369 910" />
        <path d="M 385.6 920 L 385.6 910" />
        <path d="M 402.2 920 L 402.2 910" />
        <path d="M 418.8 920 L 418.8 910" />
        <path d="M 435.4 920 L 435.4 910" />
        <path d="M 452 920 L 452 900" />
        <text font-size="30" transform="translate(452, 950)" text-anchor="middle" dominant-baseline="middle" stroke="none" fill="black">20</text>
        <path d="M 468.6 920 L 468.6 910" />
        <path d="M 485.2 920 L 485.2 910" />
        <path d="M 501.8 920 L 501.8 910" />
        <path d="M 518.4 920 L 518.4 910" />
        <path d="M 535 920 L 535 910" />
        <path d="M 551.6 920 L 551.6 910" />
        <path d="M 568.2 920 L 568.2 910" />
        <path d="M 584.8 920 L 584.8 910" />
        <path d="M 601.4 920 L 601.4 910" />
        <path d="M 618 920 L 618 900" />
        <text font-size="30" transform="translate(618, 950)" text-anchor="middle" dominant-baseline="middle" stroke="none" fill="black">30</text>
        <path d="M 634.6 920 L 634.6 910" />
        <path d="M 651.2 920 L 651.2 910" />
        <path d="M 667.8 920 L 667.8 910" />
        <path d="M 684.4 920 L 684.4 910" />
        <path d="M 701 920 L 701 910" />
        <path d="M 717.6 920 L 717.6 910" />
        <path d="M 734.2 920 L 734.2 910" />
        <path d="M 750.8 920 L 750.8 910" />
        <path d="M 767.4 920 L 767.4 910" />
        <path d="M 784 920 L 784 900" />
        <text font-size="30" transform="translate(784, 950)" text-anchor="middle" dominant-baseline="middle" stroke="none" fill="black">40</text>
        <path d="M 800.6 920 L 800.6 910" />
        <path d="M 817.2 920 L 817.2 910" />
        <path d="M 833.8 920 L 833.8 910" />
        <path d="M 850.4 920 L 850.4 910" />
        <path d="M 867 920 L 867 910" />
        <path d="M 883.6 920 L 883.6 910" />
        <path d="M 900.2 920 L 900.2 910" />
        <path d="M 916.8 920 L 916.8 910" />
        <path d="M 933.4 920 L 933.4 910" />
        <path d="M 950 920 L 950 900" />
        <text font-size="30" transform="translate(950, 950)" text-anchor="middle" dominant-baseline="middle" stroke="none" fill="black">50</text>
    </g>
    <g id="frame_0_leftticks">
        <path d="M 120 742.394 L 130 742.394" />
        <path d="M 120 831.197 L 130 831.197" />
        <path d="M 120 401.984 L 130 401.984" />
        <path d="M 120 920 L 140 920" />
        <text font-size="30" transform="translate(110, 930)" text-anchor="end" dominant-baseline="middle" stroke="none" fill="black">0</text>
        <path d="M 120 61.5731 L 130 61.5731" />
        <path d="M 120 579.589 L 130 579.589" />
        <path d="M 120 239.179 L 130 239.179" />
        <path d="M 120 757.195 L 130 757.195" />
        <path d="M 120 416.784 L 130 416.784" />
        <path d="M 120 76.3736 L 130 76.3736" />
        <path d="M 120 594.39 L 130 594.39" />
        <path d="M 120 253.979 L 130 253.979" />
        <path d="M 120 771.995 L 140 771.995" />
        <text font-size="30" transform="translate(110, 781.995)" text-anchor="end" dominant-baseline="middle" stroke="none" fill="black">10⁶</text>
        <path d="M 120 431.585 L 130 431.585" />
        <path d="M 120 653.592 L 130 653.592" />
        <path d="M 120 609.19 L 130 609.19" />
        <path d="M 120 905.2 L 130 905.2" />
        <path d="M 120 268.78 L 130 268.78" />
        <path d="M 120 446.385 L 130 446.385" />
        <path d="M 120 105.975 L 130 105.975" />
        <path d="M 120 623.991 L 140 623.991" />
        <text font-size="30" transform="translate(110, 633.991)" text-anchor="end" dominant-baseline="middle" stroke="none" fill="black">2×10⁶</text>
        <path d="M 120 283.58 L 130 283.58" />
        <path d="M 120 801.596 L 130 801.596" />
        <path d="M 120 461.186 L 130 461.186" />
        <path d="M 120 120.775 L 130 120.775" />
        <path d="M 120 638.791 L 130 638.791" />
        <path d="M 120 298.381 L 130 298.381" />
        <path d="M 120 816.397 L 130 816.397" />
        <path d="M 120 475.986 L 140 475.986" />
        <text font-size="30" transform="translate(110, 485.986)" text-anchor="end" dominant-baseline="middle" stroke="none" fill="black">3×10⁶</text>
        <path d="M 120 135.575 L 130 135.575" />
        <path d="M 120 890.399 L 130 890.399" />
        <path d="M 120 786.796 L 130 786.796" />
        <path d="M 120 313.181 L 130 313.181" />
        <path d="M 120 490.787 L 130 490.787" />
        <path d="M 120 150.376 L 130 150.376" />
        <path d="M 120 668.392 L 130 668.392" />
        <path d="M 120 327.981 L 140 327.981" />
        <text font-size="30" transform="translate(110, 337.981)" text-anchor="end" dominant-baseline="middle" stroke="none" fill="black">4×10⁶</text>
        <path d="M 120 845.998 L 130 845.998" />
        <path d="M 120 224.378 L 130 224.378" />
        <path d="M 120 505.587 L 130 505.587" />
        <path d="M 120 165.176 L 130 165.176" />
        <path d="M 120 683.193 L 130 683.193" />
        <path d="M 120 179.977 L 140 179.977" />
        <text font-size="30" transform="translate(110, 189.977)" text-anchor="end" dominant-baseline="middle" stroke="none" fill="black">5×10⁶</text>
        <path d="M 120 342.782 L 130 342.782" />
        <path d="M 120 860.798 L 130 860.798" />
        <path d="M 120 520.387 L 130 520.387" />
        <path d="M 120 875.599 L 130 875.599" />
        <path d="M 120 697.993 L 130 697.993" />
        <path d="M 120 357.582 L 130 357.582" />
        <path d="M 120 535.188 L 130 535.188" />
        <path d="M 120 91.174 L 130 91.174" />
        <path d="M 120 194.777 L 130 194.777" />
        <path d="M 120 712.794 L 130 712.794" />
        <path d="M 120 372.383 L 130 372.383" />
        <path d="M 120 549.988 L 130 549.988" />
        <path d="M 120 209.578 L 130 209.578" />
        <path d="M 120 727.594 L 130 727.594" />
        <path d="M 120 387.183 L 130 387.183" />
        <path d="M 120 564.789 L 130 564.789" />
    </g>
    <text id="frame_0_toplabel" font-size="30" transform="translate(535, 32.6)" text-anchor="middle" dominant-baseline="middle" stroke="none" fill="black">model.tree.missingTest</text>
    <g id="frame_0_topticks">
        <path d="M 120 50 L 120 70" />
        <path d="M 136.6 50 L 136.6 60" />
        <path d="M 153.2 50 L 153.2 60" />
        <path d="M 169.8 50 L 169.8 60" />
        <path d="M 186.4 50 L 186.4 60" />
        <path d="M 203 50 L 203 60" />
        <path d="M 219.6 50 L 219.6 60" />
        <path d="M 236.2 50 L 236.2 60" />
        <path d="M 252.8 50 L 252.8 60" />
        <path d="M 269.4 50 L 269.4 60" />
        <path d="M 286 50 L 286 70" />
        <path d="M 302.6 50 L 302.6 60" />
        <path d="M 319.2 50 L 319.2 60" />
        <path d="M 335.8 50 L 335.8 60" />
        <path d="M 352.4 50 L 352.4 60" />
        <path d="M 369 50 L 369 60" />
        <path d="M 385.6 50 L 385.6 60" />
        <path d="M 402.2 50 L 402.2 60" />
        <path d="M 418.8 50 L 418.8 60" />
        <path d="M 435.4 50 L 435.4 60" />
        <path d="M 452 50 L 452 70" />
        <path d="M 468.6 50 L 468.6 60" />
        <path d="M 485.2 50 L 485.2 60" />
        <path d="M 501.8 50 L 501.8 60" />
        <path d="M 518.4 50 L 518.4 60" />
        <path d="M 535 50 L 535 60" />
        <path d="M 551.6 50 L 551.6 60" />
        <path d="M 568.2 50 L 568.2 60" />
        <path d="M 584.8 50 L 584.8 60" />
        <path d="M 601.4 50 L 601.4 60" />
        <path d="M 618 50 L 618 70" />
        <path d="M 634.6 50 L 634.6 60" />
        <path d="M 651.2 50 L 651.2 60" />
        <path d="M 667.8 50 L 667.8 60" />
        <path d="M 684.4 50 L 684.4 60" />
        <path d="M 701 50 L 701 60" />
        <path d="M 717.6 50 L 717.6 60" />
        <path d="M 734.2 50 L 734.2 60" />
        <path d="M 750.8 50 L 750.8 60" />
        <path d="M 767.4 50 L 767.4 60" />
        <path d="M 784 50 L 784 70" />
        <path d="M 800.6 50 L 800.6 60" />
        <path d="M 817.2 50 L 817.2 60" />
        <path d="M 833.8 50 L 833.8 60" />
        <path d="M 850.4 50 L 850.4 60" />
        <path d="M 867 50 L 867 60" />
        <path d="M 883.6 50 L 883.6 60" />
        <path d="M 900.2 50 L 900.2 60" />
        <path d="M 916.8 50 L 916.8 60" />
        <path d="M 933.4 50 L 933.4 60" />
        <path d="M 950 50 L 950 70" />
    </g>
    <g id="frame_0_rightticks">
        <path d="M 950 742.394 L 940 742.394" />
        <path d="M 950 831.197 L 940 831.197" />
        <path d="M 950 401.984 L 940 401.984" />
        <path d="M 950 920 L 930 920" />
        <path d="M 950 61.5731 L 940 61.5731" />
        <path d="M 950 579.589 L 940 579.589" />
        <path d="M 950 239.179 L 940 239.179" />
        <path d="M 950 757.195 L 940 757.195" />
        <path d="M 950 416.784 L 940 416.784" />
        <path d="M 950 76.3736 L 940 76.3736" />
        <path d="M 950 594.39 L 940 594.39" />
        <path d="M 950 253.979 L 940 253.979" />
        <path d="M 950 771.995 L 930 771.995" />
        <path d="M 950 431.585 L 940 431.585" />
        <path d="M 950 653.592 L 940 653.592" />
        <path d="M 950 609.19 L 940 609.19" />
        <path d="M 950 905.2 L 940 905.2" />
        <path d="M 950 268.78 L 940 268.78" />
        <path d="M 950 446.385 L 940 446.385" />
        <path d="M 950 105.975 L 940 105.975" />
        <path d="M 950 623.991 L 930 623.991" />
        <path d="M 950 283.58 L 940 283.58" />
        <path d="M 950 801.596 L 940 801.596" />
        <path d="M 950 461.186 L 940 461.186" />
        <path d="M 950 120.775 L 940 120.775" />
        <path d="M 950 638.791 L 940 638.791" />
        <path d="M 950 298.381 L 940 298.381" />
        <path d="M 950 816.397 L 940 816.397" />
        <path d="M 950 475.986 L 930 475.986" />
        <path d="M 950 135.575 L 940 135.575" />
        <path d="M 950 890.399 L 940 890.399" />
        <path d="M 950 786.796 L 940 786.796" />
        <path d="M 950 313.181 L 940 313.181" />
        <path d="M 950 490.787 L 940 490.787" />
        <path d="M 950 150.376 L 940 150.376" />
        <path d="M 950 668.392 L 940 668.392" />
        <path d="M 950 327.981 L 930 327.981" />
        <path d="M 950 845.998 L 940 845.998" />
        <path d="M 950 224.378 L 940 224.378" />
        <path d="M 950 505.587 L 940 505.587" />
        <path d="M 950 165.176 L 940 165.176" />
        <path d="M 950 683.193 L 940 683.193" />
        <path d="M 950 179.977 L 930 179.977" />
        <path d="M 950 342.782 L 940 342.782" />
        <path d="M 950 860.798 L 940 860.798" />
        <path d="M 950 520.387 L 940 520.387" />
        <path d="M 950 875.599 L 940 875.599" />
        <path d="M 950 697.993 L 940 697.993" />
        <path d="M 950 357.582 L 940 357.582" />
        <path d="M 950 535.188 L 940 535.188" />
        <path d="M 950 91.174 L 940 91.174" />
        <path d="M 950 194.777 L 940 194.777" />
        <path d="M 950 712.794 L 940 712.794" />
        <path d="M 950 372.383 L 940 372.383" />
        <path d="M 950 549.988 L 940 549.988" />
        <path d="M 950 209.578 L 940 209.578" />
        <path d="M 950 727.594 L 940 727.594" />
        <path d="M 950 387.183 L 940 387.183" />
        <path d="M 950 564.789 L 940 564.789" />
    </g>
</g>
</g>
</svg>
