<?xml version="1.0" standalone="no"?>
<!DOCTYPE svg PUBLIC "-//W3C//DTD SVG 1.1//EN" "http://www.w3.org/Graphics/SVG/1.1/DTD/svg11.dtd">
<svg style="stroke-linejoin:miter; stroke:black; stroke-width:2.5; text-anchor:middle; fill:none" xmlns="http://www.w3.org/2000/svg" font-family="Helvetica, Arial, FreeSans, Sans, sans, sans-serif" width="1000px" height="1000px" version="1.1" xmlns:xlink="http://www.w3.org/1999/xlink" viewBox="0 0 1000 1000">
<defs>
    <clipPath id="Histogram_0_clip">
        <rect x="120" y="50" width="830" height="870" />
    </clipPath>
    <clipPath id="Histogram_1_clip">
        <rect x="120" y="50" width="830" height="870" />
    </clipPath>
</defs>
<g id="whole_document">
<rect id="background" x="0" y="0" width="1000" height="1000" stroke="none" fill="white" />
<g id="Histogram_0" clip-path="url(#Histogram_0_clip)">
    <path d="M 120 920 L 120 129.091 L 161.5 129.091 L 161.5 671.551 L 203 671.551 L 203 823.041 L 244.5 823.041 L 244.5 883.978 L 286 883.978 L 286 688.209 L 327.5 688.209 L 327.5 909.037 L 369 909.037 L 369 901.491 L 410.5 901.491 L 410.5 920 L 452 920 L 452 920 L 493.5 920 L 493.5 920 L 535 920 L 535 914.732 L 576.5 914.732 L 576.5 910.176 L 618 910.176 L 618 915.302 L 659.5 915.302 L 659.5 915.729 L 701 915.729 L 701 915.871 L 742.5 915.871 L 742.5 916.298 L 784 916.298 L 784 920 L 825.5 920 L 825.5 920 L 867 920 L 867 920 L 908.5 920 L 908.5 920 L 950 920 L 950 920" stroke-width="3" stroke-dasharray="" stroke="black" stroke-opacity="1" fill="DodgerBlue" fill-opacity="1" />
</g>
<g id="Histogram_1" clip-path="url(#Histogram_1_clip)">
    <path d="M 120 920 L 120 920 L 161.5 920 L 161.5 920 L 203 920 L 203 920 L 244.5 920 L 244.5 920 L 286 920 L 286 702.447 L 327.5 702.447 L 327.5 909.037 L 369 909.037 L 369 901.491 L 410.5 901.491 L 410.5 920 L 452 920 L 452 920 L 493.5 920 L 493.5 920 L 535 920 L 535 914.732 L 576.5 914.732 L 576.5 910.176 L 618 910.176 L 618 915.302 L 659.5 915.302 L 659.5 915.729 L 701 915.729 L 701 915.871 L 742.5 915.871 L 742.5 916.298 L 784 916.298 L 784 920 L 825.5 920 L 825.5 920 L 867 920 L 867 920 L 908.5 920 L 908.5 920 L 950 920 L 950 920" stroke-width="3" stroke-dasharray="" stroke="black" stroke-opacity="1" fill="darkorange" fill-opacity="1" />
</g>
<g id="frame_0">
    <rect id="frame_0_border" x="120" y="50" width="830" height="870" />
    <text id="frame_0_bottomlabel" font-size="30" transform="translate(535, 989.6)" text-anchor="middle" dominant-baseline="middle" stroke="none" fill="black">microseconds</text>
    <g id="frame_0_bottomticks">
        <path d="M 120 920 L 120 900" />
        <text font-size="30" transform="translate(120, 950)" text-anchor="middle" dominant-baseline="middle" stroke="none" fill="black">0</text>
        <path d="M 136.6 920 L 136.6 910" />
        <path d="M 153.2 920 L 153.2 910" />
        <path d="M 169.8 920 L 169.8 910" />
        <path d="M 186.4 920 L 186.4 910" />
        <path d="M 203 920 L 203 910" />
        <path d="M 219.6 920 L 219.6 910" />
        <path d="M 236.2 920 L 236.2 910" />
        <path d="M 252.8 920 L 252.8 910" />
        <path d="M 269.4 920 L 269.4 910" />
        <path d="M 286 920 L 286 900" />
        <text font-size="30" transform="translate(286, 950)" text-anchor="middle" dominant-baseline="middle" stroke="none" fill="black">10</text>
        <path d="M 302.6 920 L 302.6 910" />
        <path d="M 319.2 920 L 319.2 910" />
        <path d="M 335.8 920 L 335.8 910" />
        <path d="M 352.4 920 L 352.4 910" />
        <path d="M 369 920 L 369 910" />
        <path d="M 385.6 920 L 385.6 910" />
        <path d="M 402.2 920 L 402.2 910" />
        <path d="M 418.8 920 L 418.8 910" />
        <path d="M 435.4 920 L 435.4 910" />
        <path d="M 452 920 L 452 900" />
        <text font-size="30" transform="translate(452, 950)" text-anchor="middle" dominant-baseline="middle" stroke="none" fill="black">20</text>
        <path d="M 468.6 920 L 468.6 910" />
        <path d="M 485.2 920 L 485.2 910" />
        <path d="M 501.8 920 L 501.8 910" />
        <path d="M 518.4 920 L 518.4 910" />
        <path d="M 535 920 L 535 910" />
        <path d="M 551.6 920 L 551.6 910" />
        <path d="M 568.2 920 L 568.2 910" />
        <path d="M 584.8 920 L 584.8 910" />
        <path d="M 601.4 920 L 601.4 910" />
        <path d="M 618 920 L 618 900" />
        <text font-size="30" transform="translate(618, 950)" text-anchor="middle" dominant-baseline="middle" stroke="none" fill="black">30</text>
        <path d="M 634.6 920 L 634.6 910" />
        <path d="M 651.2 920 L 651.2 910" />
        <path d="M 667.8 920 L 667.8 910" />
        <path d="M 684.4 920 L 684.4 910" />
        <path d="M 701 920 L 701 910" />
        <path d="M 717.6 920 L 717.6 910" />
        <path d="M 734.2 920 L 734.2 910" />
        <path d="M 750.8 920 L 750.8 910" />
        <path d="M 767.4 920 L 767.4 910" />
        <path d="M 784 920 L 784 900" />
        <text font-size="30" transform="translate(784, 950)" text-anchor="middle" dominant-baseline="middle" stroke="none" fill="black">40</text>
        <path d="M 800.6 920 L 800.6 910" />
        <path d="M 817.2 920 L 817.2 910" />
        <path d="M 833.8 920 L 833.8 910" />
        <path d="M 850.4 920 L 850.4 910" />
        <path d="M 867 920 L 867 910" />
        <path d="M 883.6 920 L 883.6 910" />
        <path d="M 900.2 920 L 900.2 910" />
        <path d="M 916.8 920 L 916.8 910" />
        <path d="M 933.4 920 L 933.4 910" />
        <path d="M 950 920 L 950 900" />
        <text font-size="30" transform="translate(950, 950)" text-anchor="middle" dominant-baseline="middle" stroke="none" fill="black">50</text>
    </g>
    <g id="frame_0_leftticks">
        <path d="M 120 464.391 L 130 464.391" />
        <path d="M 120 236.586 L 130 236.586" />
        <path d="M 120 791.86 L 130 791.86" />
        <path d="M 120 920 L 140 920" />
        <text font-size="30" transform="translate(110, 930)" text-anchor="end" dominant-baseline="middle" stroke="none" fill="black">0</text>
        <path d="M 120 663.72 L 130 663.72" />
        <path d="M 120 421.677 L 130 421.677" />
        <path d="M 120 535.58 L 130 535.58" />
        <path d="M 120 863.049 L 130 863.049" />
        <path d="M 120 378.964 L 130 378.964" />
        <path d="M 120 51.495 L 130 51.495" />
        <path d="M 120 734.909 L 130 734.909" />
        <path d="M 120 606.769 L 130 606.769" />
        <path d="M 120 336.251 L 130 336.251" />
        <path d="M 120 478.629 L 130 478.629" />
        <path d="M 120 806.098 L 130 806.098" />
        <path d="M 120 293.537 L 130 293.537" />
        <path d="M 120 136.922 L 130 136.922" />
        <path d="M 120 677.958 L 130 677.958" />
        <path d="M 120 79.9705 L 130 79.9705" />
        <path d="M 120 549.818 L 130 549.818" />
        <path d="M 120 250.824 L 130 250.824" />
        <path d="M 120 877.287 L 130 877.287" />
        <path d="M 120 749.147 L 130 749.147" />
        <path d="M 120 435.915 L 130 435.915" />
        <path d="M 120 621.006 L 130 621.006" />
        <path d="M 120 635.244 L 140 635.244" />
        <text font-size="30" transform="translate(110, 645.244)" text-anchor="end" dominant-baseline="middle" stroke="none" fill="black">2000</text>
        <path d="M 120 492.866 L 140 492.866" />
        <text font-size="30" transform="translate(110, 502.866)" text-anchor="end" dominant-baseline="middle" stroke="none" fill="black">3000</text>
        <path d="M 120 393.202 L 130 393.202" />
        <path d="M 120 820.335 L 130 820.335" />
        <path d="M 120 692.195 L 130 692.195" />
        <path d="M 120 122.684 L 130 122.684" />
        <path d="M 120 165.397 L 130 165.397" />
        <path d="M 120 564.055 L 130 564.055" />
        <path d="M 120 891.524 L 130 891.524" />
        <path d="M 120 307.775 L 130 307.775" />
        <path d="M 120 763.384 L 130 763.384" />
        <path d="M 120 193.873 L 130 193.873" />
        <path d="M 120 179.635 L 130 179.635" />
        <path d="M 120 265.062 L 130 265.062" />
        <path d="M 120 350.489 L 140 350.489" />
        <text font-size="30" transform="translate(110, 360.489)" text-anchor="end" dominant-baseline="middle" stroke="none" fill="black">4000</text>
        <path d="M 120 507.104 L 130 507.104" />
        <path d="M 120 777.622 L 140 777.622" />
        <text font-size="30" transform="translate(110, 787.622)" text-anchor="end" dominant-baseline="middle" stroke="none" fill="black">1000</text>
        <path d="M 120 222.348 L 130 222.348" />
        <path d="M 120 834.573 L 130 834.573" />
        <path d="M 120 450.153 L 130 450.153" />
        <path d="M 120 706.433 L 130 706.433" />
        <path d="M 120 208.111 L 140 208.111" />
        <text font-size="30" transform="translate(110, 218.111)" text-anchor="end" dominant-baseline="middle" stroke="none" fill="black">5000</text>
        <path d="M 120 578.293 L 130 578.293" />
        <path d="M 120 407.44 L 130 407.44" />
        <path d="M 120 905.762 L 130 905.762" />
        <path d="M 120 322.013 L 130 322.013" />
        <path d="M 120 364.726 L 130 364.726" />
        <path d="M 120 65.7328 L 140 65.7328" />
        <text font-size="30" transform="translate(110, 75.7328)" text-anchor="end" dominant-baseline="middle" stroke="none" fill="black">6000</text>
        <path d="M 120 649.482 L 130 649.482" />
        <path d="M 120 521.342 L 130 521.342" />
        <path d="M 120 94.2083 L 130 94.2083" />
        <path d="M 120 848.811 L 130 848.811" />
        <path d="M 120 108.446 L 130 108.446" />
        <path d="M 120 720.671 L 130 720.671" />
        <path d="M 120 279.3 L 130 279.3" />
        <path d="M 120 592.531 L 130 592.531" />
        <path d="M 120 151.159 L 130 151.159" />
    </g>
    <text id="frame_0_toplabel" font-size="30" transform="translate(535, 32.6)" text-anchor="middle" dominant-baseline="middle" stroke="none" fill="black">model.naive.bernoulli</text>
    <g id="frame_0_topticks">
        <path d="M 120 50 L 120 70" />
        <path d="M 136.6 50 L 136.6 60" />
        <path d="M 153.2 50 L 153.2 60" />
        <path d="M 169.8 50 L 169.8 60" />
        <path d="M 186.4 50 L 186.4 60" />
        <path d="M 203 50 L 203 60" />
        <path d="M 219.6 50 L 219.6 60" />
        <path d="M 236.2 50 L 236.2 60" />
        <path d="M 252.8 50 L 252.8 60" />
        <path d="M 269.4 50 L 269.4 60" />
        <path d="M 286 50 L 286 70" />
        <path d="M 302.6 50 L 302.6 60" />
        <path d="M 319.2 50 L 319.2 60" />
        <path d="M 335.8 50 L 335.8 60" />
        <path d="M 352.4 50 L 352.4 60" />
        <path d="M 369 50 L 369 60" />
        <path d="M 385.6 50 L 385.6 60" />
        <path d="M 402.2 50 L 402.2 60" />
        <path d="M 418.8 50 L 418.8 60" />
        <path d="M 435.4 50 L 435.4 60" />
        <path d="M 452 50 L 452 70" />
        <path d="M 468.6 50 L 468.6 60" />
        <path d="M 485.2 50 L 485.2 60" />
        <path d="M 501.8 50 L 501.8 60" />
        <path d="M 518.4 50 L 518.4 60" />
        <path d="M 535 50 L 535 60" />
        <path d="M 551.6 50 L 551.6 60" />
        <path d="M 568.2 50 L 568.2 60" />
        <path d="M 584.8 50 L 584.8 60" />
        <path d="M 601.4 50 L 601.4 60" />
        <path d="M 618 50 L 618 70" />
        <path d="M 634.6 50 L 634.6 60" />
        <path d="M 651.2 50 L 651.2 60" />
        <path d="M 667.8 50 L 667.8 60" />
        <path d="M 684.4 50 L 684.4 60" />
        <path d="M 701 50 L 701 60" />
        <path d="M 717.6 50 L 717.6 60" />
        <path d="M 734.2 50 L 734.2 60" />
        <path d="M 750.8 50 L 750.8 60" />
        <path d="M 767.4 50 L 767.4 60" />
        <path d="M 784 50 L 784 70" />
        <path d="M 800.6 50 L 800.6 60" />
        <path d="M 817.2 50 L 817.2 60" />
        <path d="M 833.8 50 L 833.8 60" />
        <path d="M 850.4 50 L 850.4 60" />
        <path d="M 867 50 L 867 60" />
        <path d="M 883.6 50 L 883.6 60" />
        <path d="M 900.2 50 L 900.2 60" />
        <path d="M 916.8 50 L 916.8 60" />
        <path d="M 933.4 50 L 933.4 60" />
        <path d="M 950 50 L 950 70" />
    </g>
    <g id="frame_0_rightticks">
        <path d="M 950 464.391 L 940 464.391" />
        <path d="M 950 236.586 L 940 236.586" />
        <path d="M 950 791.86 L 940 791.86" />
        <path d="M 950 920 L 930 920" />
        <path d="M 950 663.72 L 940 663.72" />
        <path d="M 950 421.677 L 940 421.677" />
        <path d="M 950 535.58 L 940 535.58" />
        <path d="M 950 863.049 L 940 863.049" />
        <path d="M 950 378.964 L 940 378.964" />
        <path d="M 950 51.495 L 940 51.495" />
        <path d="M 950 734.909 L 940 734.909" />
        <path d="M 950 606.769 L 940 606.769" />
        <path d="M 950 336.251 L 940 336.251" />
        <path d="M 950 478.629 L 940 478.629" />
        <path d="M 950 806.098 L 940 806.098" />
        <path d="M 950 293.537 L 940 293.537" />
        <path d="M 950 136.922 L 940 136.922" />
        <path d="M 950 677.958 L 940 677.958" />
        <path d="M 950 79.9705 L 940 79.9705" />
        <path d="M 950 549.818 L 940 549.818" />
        <path d="M 950 250.824 L 940 250.824" />
        <path d="M 950 877.287 L 940 877.287" />
        <path d="M 950 749.147 L 940 749.147" />
        <path d="M 950 435.915 L 940 435.915" />
        <path d="M 950 621.006 L 940 621.006" />
        <path d="M 950 635.244 L 930 635.244" />
        <path d="M 950 492.866 L 930 492.866" />
        <path d="M 950 393.202 L 940 393.202" />
        <path d="M 950 820.335 L 940 820.335" />
        <path d="M 950 692.195 L 940 692.195" />
        <path d="M 950 122.684 L 940 122.684" />
        <path d="M 950 165.397 L 940 165.397" />
        <path d="M 950 564.055 L 940 564.055" />
        <path d="M 950 891.524 L 940 891.524" />
        <path d="M 950 307.775 L 940 307.775" />
        <path d="M 950 763.384 L 940 763.384" />
        <path d="M 950 193.873 L 940 193.873" />
        <path d="M 950 179.635 L 940 179.635" />
        <path d="M 950 265.062 L 940 265.062" />
        <path d="M 950 350.489 L 930 350.489" />
        <path d="M 950 507.104 L 940 507.104" />
        <path d="M 950 777.622 L 930 777.622" />
        <path d="M 950 222.348 L 940 222.348" />
        <path d="M 950 834.573 L 940 834.573" />
        <path d="M 950 450.153 L 940 450.153" />
        <path d="M 950 706.433 L 940 706.433" />
        <path d="M 950 208.111 L 930 208.111" />
        <path d="M 950 578.293 L 940 578.293" />
        <path d="M 950 407.44 L 940 407.44" />
        <path d="M 950 905.762 L 940 905.762" />
        <path d="M 950 322.013 L 940 322.013" />
        <path d="M 950 364.726 L 940 364.726" />
        <path d="M 950 65.7328 L 930 65.7328" />
        <path d="M 950 649.482 L 940 649.482" />
        <path d="M 950 521.342 L 940 521.342" />
        <path d="M 950 94.2083 L 940 94.2083" />
        <path d="M 950 848.811 L 940 848.811" />
        <path d="M 950 108.446 L 940 108.446" />
        <path d="M 950 720.671 L 940 720.671" />
        <path d="M 950 279.3 L 940 279.3" />
        <path d="M 950 592.531 L 940 592.531" />
        <path d="M 950 151.159 L 940 151.159" />
    </g>
</g>
</g>
</svg>
