<?xml version="1.0" standalone="no"?>
<!DOCTYPE svg PUBLIC "-//W3C//DTD SVG 1.1//EN" "http://www.w3.org/Graphics/SVG/1.1/DTD/svg11.dtd">
<svg style="stroke-linejoin:miter; stroke:black; stroke-width:2.5; text-anchor:middle; fill:none" xmlns="http://www.w3.org/2000/svg" font-family="Helvetica, Arial, FreeSans, Sans, sans, sans-serif" width="1000px" height="1000px" version="1.1" xmlns:xlink="http://www.w3.org/1999/xlink" viewBox="0 0 1000 1000">
<defs>
    <clipPath id="Histogram_0_clip">
        <rect x="120" y="50" width="830" height="870" />
    </clipPath>
</defs>
<g id="whole_document">
<rect id="background" x="0" y="0" width="1000" height="1000" stroke="none" fill="white" />
<g id="Histogram_0" clip-path="url(#Histogram_0_clip)">
    <path d="M 120 920 L 120 129.091 L 161.5 129.091 L 161.5 920 L 203 920 L 203 920 L 244.5 920 L 244.5 920 L 286 920 L 286 920 L 327.5 920 L 327.5 920 L 369 920 L 369 920 L 410.5 920 L 410.5 920 L 452 920 L 452 920 L 493.5 920 L 493.5 920 L 535 920 L 535 920 L 576.5 920 L 576.5 920 L 618 920 L 618 920 L 659.5 920 L 659.5 920 L 701 920 L 701 920 L 742.5 920 L 742.5 920 L 784 920 L 784 920 L 825.5 920 L 825.5 920 L 867 920 L 867 920 L 908.5 920 L 908.5 920 L 950 920 L 950 920" stroke-width="3" stroke-dasharray="" stroke="black" stroke-opacity="1" fill="DodgerBlue" fill-opacity="1" />
</g>
<g id="frame_0">
    <rect id="frame_0_border" x="120" y="50" width="830" height="870" />
    <text id="frame_0_bottomlabel" font-size="30" transform="translate(535, 989.6)" text-anchor="middle" dominant-baseline="middle" stroke="none" fill="black">microseconds</text>
    <g id="frame_0_bottomticks">
        <path d="M 120 920 L 120 900" />
        <text font-size="30" transform="translate(120, 950)" text-anchor="middle" dominant-baseline="middle" stroke="none" fill="black">0</text>
        <path d="M 136.6 920 L 136.6 910" />
        <path d="M 153.2 920 L 153.2 910" />
        <path d="M 169.8 920 L 169.8 910" />
        <path d="M 186.4 920 L 186.4 910" />
        <path d="M 203 920 L 203 910" />
        <path d="M 219.6 920 L 219.6 910" />
        <path d="M 236.2 920 L 236.2 910" />
        <path d="M 252.8 920 L 252.8 910" />
        <path d="M 269.4 920 L 269.4 910" />
        <path d="M 286 920 L 286 900" />
        <text font-size="30" transform="translate(286, 950)" text-anchor="middle" dominant-baseline="middle" stroke="none" fill="black">10</text>
        <path d="M 302.6 920 L 302.6 910" />
        <path d="M 319.2 920 L 319.2 910" />
        <path d="M 335.8 920 L 335.8 910" />
        <path d="M 352.4 920 L 352.4 910" />
        <path d="M 369 920 L 369 910" />
        <path d="M 385.6 920 L 385.6 910" />
        <path d="M 402.2 920 L 402.2 910" />
        <path d="M 418.8 920 L 418.8 910" />
        <path d="M 435.4 920 L 435.4 910" />
        <path d="M 452 920 L 452 900" />
        <text font-size="30" transform="translate(452, 950)" text-anchor="middle" dominant-baseline="middle" stroke="none" fill="black">20</text>
        <path d="M 468.6 920 L 468.6 910" />
        <path d="M 485.2 920 L 485.2 910" />
        <path d="M 501.8 920 L 501.8 910" />
        <path d="M 518.4 920 L 518.4 910" />
        <path d="M 535 920 L 535 910" />
        <path d="M 551.6 920 L 551.6 910" />
        <path d="M 568.2 920 L 568.2 910" />
        <path d="M 584.8 920 L 584.8 910" />
        <path d="M 601.4 920 L 601.4 910" />
        <path d="M 618 920 L 618 900" />
        <text font-size="30" transform="translate(618, 950)" text-anchor="middle" dominant-baseline="middle" stroke="none" fill="black">30</text>
        <path d="M 634.6 920 L 634.6 910" />
        <path d="M 651.2 920 L 651.2 910" />
        <path d="M 667.8 920 L 667.8 910" />
        <path d="M 684.4 920 L 684.4 910" />
        <path d="M 701 920 L 701 910" />
        <path d="M 717.6 920 L 717.6 910" />
        <path d="M 734.2 920 L 734.2 910" />
        <path d="M 750.8 920 L 750.8 910" />
        <path d="M 767.4 920 L 767.4 910" />
        <path d="M 784 920 L 784 900" />
        <text font-size="30" transform="translate(784, 950)" text-anchor="middle" dominant-baseline="middle" stroke="none" fill="black">40</text>
        <path d="M 800.6 920 L 800.6 910" />
        <path d="M 817.2 920 L 817.2 910" />
        <path d="M 833.8 920 L 833.8 910" />
        <path d="M 850.4 920 L 850.4 910" />
        <path d="M 867 920 L 867 910" />
        <path d="M 883.6 920 L 883.6 910" />
        <path d="M 900.2 920 L 900.2 910" />
        <path d="M 916.8 920 L 916.8 910" />
        <path d="M 933.4 920 L 933.4 910" />
        <path d="M 950 920 L 950 900" />
        <text font-size="30" transform="translate(950, 950)" text-anchor="middle" dominant-baseline="middle" stroke="none" fill="black">50</text>
    </g>
    <g id="frame_0_leftticks">
        <path d="M 120 629.838 L 130 629.838" />
        <path d="M 120 484.757 L 130 484.757" />
        <path d="M 120 430.352 L 130 430.352" />
        <path d="M 120 539.162 L 130 539.162" />
        <path d="M 120 303.406 L 130 303.406" />
        <path d="M 120 448.487 L 130 448.487" />
        <path d="M 120 793.054 L 130 793.054" />
        <path d="M 120 67.6491 L 130 67.6491" />
        <path d="M 120 647.973 L 130 647.973" />
        <path d="M 120 920 L 140 920" />
        <text font-size="30" transform="translate(110, 930)" text-anchor="end" dominant-baseline="middle" stroke="none" fill="black">0</text>
        <path d="M 120 394.081 L 130 394.081" />
        <path d="M 120 357.811 L 130 357.811" />
        <path d="M 120 212.73 L 130 212.73" />
        <path d="M 120 847.459 L 130 847.459" />
        <path d="M 120 521.027 L 130 521.027" />
        <path d="M 120 122.054 L 130 122.054" />
        <path d="M 120 738.649 L 140 738.649" />
        <text font-size="30" transform="translate(110, 748.649)" text-anchor="end" dominant-baseline="middle" stroke="none" fill="black">10000</text>
        <path d="M 120 557.297 L 140 557.297" />
        <text font-size="30" transform="translate(110, 567.297)" text-anchor="end" dominant-baseline="middle" stroke="none" fill="black">20000</text>
        <path d="M 120 756.784 L 130 756.784" />
        <path d="M 120 267.135 L 130 267.135" />
        <path d="M 120 666.108 L 130 666.108" />
        <path d="M 120 829.324 L 130 829.324" />
        <path d="M 120 176.46 L 130 176.46" />
        <path d="M 120 575.433 L 130 575.433" />
        <path d="M 120 321.541 L 130 321.541" />
        <path d="M 120 774.919 L 130 774.919" />
        <path d="M 120 412.216 L 130 412.216" />
        <path d="M 120 466.622 L 130 466.622" />
        <path d="M 120 684.243 L 130 684.243" />
        <path d="M 120 230.865 L 130 230.865" />
        <path d="M 120 375.946 L 140 375.946" />
        <text font-size="30" transform="translate(110, 385.946)" text-anchor="end" dominant-baseline="middle" stroke="none" fill="black">30000</text>
        <path d="M 120 883.73 L 130 883.73" />
        <path d="M 120 865.595 L 130 865.595" />
        <path d="M 120 140.19 L 130 140.19" />
        <path d="M 120 502.892 L 130 502.892" />
        <path d="M 120 285.271 L 130 285.271" />
        <path d="M 120 702.378 L 130 702.378" />
        <path d="M 120 593.568 L 130 593.568" />
        <path d="M 120 901.865 L 130 901.865" />
        <path d="M 120 158.325 L 130 158.325" />
        <path d="M 120 339.676 L 130 339.676" />
        <path d="M 120 811.189 L 130 811.189" />
        <path d="M 120 611.703 L 130 611.703" />
        <path d="M 120 194.595 L 140 194.595" />
        <text font-size="30" transform="translate(110, 204.595)" text-anchor="end" dominant-baseline="middle" stroke="none" fill="black">40000</text>
        <path d="M 120 103.919 L 130 103.919" />
        <path d="M 120 720.514 L 130 720.514" />
        <path d="M 120 249 L 130 249" />
        <path d="M 120 85.7842 L 130 85.7842" />
    </g>
    <text id="frame_0_toplabel" font-size="30" transform="translate(535, 32.6)" text-anchor="middle" dominant-baseline="middle" stroke="none" fill="black">cast.double</text>
    <g id="frame_0_topticks">
        <path d="M 120 50 L 120 70" />
        <path d="M 136.6 50 L 136.6 60" />
        <path d="M 153.2 50 L 153.2 60" />
        <path d="M 169.8 50 L 169.8 60" />
        <path d="M 186.4 50 L 186.4 60" />
        <path d="M 203 50 L 203 60" />
        <path d="M 219.6 50 L 219.6 60" />
        <path d="M 236.2 50 L 236.2 60" />
        <path d="M 252.8 50 L 252.8 60" />
        <path d="M 269.4 50 L 269.4 60" />
        <path d="M 286 50 L 286 70" />
        <path d="M 302.6 50 L 302.6 60" />
        <path d="M 319.2 50 L 319.2 60" />
        <path d="M 335.8 50 L 335.8 60" />
        <path d="M 352.4 50 L 352.4 60" />
        <path d="M 369 50 L 369 60" />
        <path d="M 385.6 50 L 385.6 60" />
        <path d="M 402.2 50 L 402.2 60" />
        <path d="M 418.8 50 L 418.8 60" />
        <path d="M 435.4 50 L 435.4 60" />
        <path d="M 452 50 L 452 70" />
        <path d="M 468.6 50 L 468.6 60" />
        <path d="M 485.2 50 L 485.2 60" />
        <path d="M 501.8 50 L 501.8 60" />
        <path d="M 518.4 50 L 518.4 60" />
        <path d="M 535 50 L 535 60" />
        <path d="M 551.6 50 L 551.6 60" />
        <path d="M 568.2 50 L 568.2 60" />
        <path d="M 584.8 50 L 584.8 60" />
        <path d="M 601.4 50 L 601.4 60" />
        <path d="M 618 50 L 618 70" />
        <path d="M 634.6 50 L 634.6 60" />
        <path d="M 651.2 50 L 651.2 60" />
        <path d="M 667.8 50 L 667.8 60" />
        <path d="M 684.4 50 L 684.4 60" />
        <path d="M 701 50 L 701 60" />
        <path d="M 717.6 50 L 717.6 60" />
        <path d="M 734.2 50 L 734.2 60" />
        <path d="M 750.8 50 L 750.8 60" />
        <path d="M 767.4 50 L 767.4 60" />
        <path d="M 784 50 L 784 70" />
        <path d="M 800.6 50 L 800.6 60" />
        <path d="M 817.2 50 L 817.2 60" />
        <path d="M 833.8 50 L 833.8 60" />
        <path d="M 850.4 50 L 850.4 60" />
        <path d="M 867 50 L 867 60" />
        <path d="M 883.6 50 L 883.6 60" />
        <path d="M 900.2 50 L 900.2 60" />
        <path d="M 916.8 50 L 916.8 60" />
        <path d="M 933.4 50 L 933.4 60" />
        <path d="M 950 50 L 950 70" />
    </g>
    <g id="frame_0_rightticks">
        <path d="M 950 629.838 L 940 629.838" />
        <path d="M 950 484.757 L 940 484.757" />
        <path d="M 950 430.352 L 940 430.352" />
        <path d="M 950 539.162 L 940 539.162" />
        <path d="M 950 303.406 L 940 303.406" />
        <path d="M 950 448.487 L 940 448.487" />
        <path d="M 950 793.054 L 940 793.054" />
        <path d="M 950 67.6491 L 940 67.6491" />
        <path d="M 950 647.973 L 940 647.973" />
        <path d="M 950 920 L 930 920" />
        <path d="M 950 394.081 L 940 394.081" />
        <path d="M 950 357.811 L 940 357.811" />
        <path d="M 950 212.73 L 940 212.73" />
        <path d="M 950 847.459 L 940 847.459" />
        <path d="M 950 521.027 L 940 521.027" />
        <path d="M 950 122.054 L 940 122.054" />
        <path d="M 950 738.649 L 930 738.649" />
        <path d="M 950 557.297 L 930 557.297" />
        <path d="M 950 756.784 L 940 756.784" />
        <path d="M 950 267.135 L 940 267.135" />
        <path d="M 950 666.108 L 940 666.108" />
        <path d="M 950 829.324 L 940 829.324" />
        <path d="M 950 176.46 L 940 176.46" />
        <path d="M 950 575.433 L 940 575.433" />
        <path d="M 950 321.541 L 940 321.541" />
        <path d="M 950 774.919 L 940 774.919" />
        <path d="M 950 412.216 L 940 412.216" />
        <path d="M 950 466.622 L 940 466.622" />
        <path d="M 950 684.243 L 940 684.243" />
        <path d="M 950 230.865 L 940 230.865" />
        <path d="M 950 375.946 L 930 375.946" />
        <path d="M 950 883.73 L 940 883.73" />
        <path d="M 950 865.595 L 940 865.595" />
        <path d="M 950 140.19 L 940 140.19" />
        <path d="M 950 502.892 L 940 502.892" />
        <path d="M 950 285.271 L 940 285.271" />
        <path d="M 950 702.378 L 940 702.378" />
        <path d="M 950 593.568 L 940 593.568" />
        <path d="M 950 901.865 L 940 901.865" />
        <path d="M 950 158.325 L 940 158.325" />
        <path d="M 950 339.676 L 940 339.676" />
        <path d="M 950 811.189 L 940 811.189" />
        <path d="M 950 611.703 L 940 611.703" />
        <path d="M 950 194.595 L 930 194.595" />
        <path d="M 950 103.919 L 940 103.919" />
        <path d="M 950 720.514 L 940 720.514" />
        <path d="M 950 249 L 940 249" />
        <path d="M 950 85.7842 L 940 85.7842" />
    </g>
</g>
</g>
</svg>
