<?xml version="1.0" standalone="no"?>
<!DOCTYPE svg PUBLIC "-//W3C//DTD SVG 1.1//EN" "http://www.w3.org/Graphics/SVG/1.1/DTD/svg11.dtd">
<svg style="stroke-linejoin:miter; stroke:black; stroke-width:2.5; text-anchor:middle; fill:none" xmlns="http://www.w3.org/2000/svg" font-family="Helvetica, Arial, FreeSans, Sans, sans, sans-serif" width="1000px" height="1000px" version="1.1" xmlns:xlink="http://www.w3.org/1999/xlink" viewBox="0 0 1000 1000">
<defs>
    <clipPath id="Histogram_0_clip">
        <rect x="120" y="50" width="830" height="870" />
    </clipPath>
    <clipPath id="Histogram_1_clip">
        <rect x="120" y="50" width="830" height="870" />
    </clipPath>
</defs>
<g id="whole_document">
<rect id="background" x="0" y="0" width="1000" height="1000" stroke="none" fill="white" />
<g id="Histogram_0" clip-path="url(#Histogram_0_clip)">
    <path d="M 120 920 L 120 129.091 L 161.5 129.091 L 161.5 906.219 L 203 906.219 L 203 920 L 244.5 920 L 244.5 729.025 L 286 729.025 L 286 908.23 L 327.5 908.23 L 327.5 904.098 L 369 904.098 L 369 915.443 L 410.5 915.443 L 410.5 910.997 L 452 910.997 L 452 911.846 L 493.5 911.846 L 493.5 917.528 L 535 917.528 L 535 920 L 576.5 920 L 576.5 920 L 618 920 L 618 900.537 L 659.5 900.537 L 659.5 918.284 L 701 918.284 L 701 920 L 742.5 920 L 742.5 920 L 784 920 L 784 920 L 825.5 920 L 825.5 920 L 867 920 L 867 920 L 908.5 920 L 908.5 920 L 950 920 L 950 920" stroke-width="3" stroke-dasharray="" stroke="black" stroke-opacity="1" fill="DodgerBlue" fill-opacity="1" />
</g>
<g id="Histogram_1" clip-path="url(#Histogram_1_clip)">
    <path d="M 120 920 L 120 920 L 161.5 920 L 161.5 920 L 203 920 L 203 920 L 244.5 920 L 244.5 729.025 L 286 729.025 L 286 908.23 L 327.5 908.23 L 327.5 904.098 L 369 904.098 L 369 915.443 L 410.5 915.443 L 410.5 910.997 L 452 910.997 L 452 911.846 L 493.5 911.846 L 493.5 917.528 L 535 917.528 L 535 920 L 576.5 920 L 576.5 920 L 618 920 L 618 920 L 659.5 920 L 659.5 920 L 701 920 L 701 920 L 742.5 920 L 742.5 920 L 784 920 L 784 920 L 825.5 920 L 825.5 920 L 867 920 L 867 920 L 908.5 920 L 908.5 920 L 950 920 L 950 920" stroke-width="3" stroke-dasharray="" stroke="black" stroke-opacity="1" fill="darkorange" fill-opacity="1" />
</g>
<g id="frame_0">
    <rect id="frame_0_border" x="120" y="50" width="830" height="870" />
    <text id="frame_0_bottomlabel" font-size="30" transform="translate(535, 989.6)" text-anchor="middle" dominant-baseline="middle" stroke="none" fill="black">microseconds</text>
    <g id="frame_0_bottomticks">
        <path d="M 120 920 L 120 900" />
        <text font-size="30" transform="translate(120, 950)" text-anchor="middle" dominant-baseline="middle" stroke="none" fill="black">0</text>
        <path d="M 136.6 920 L 136.6 910" />
        <path d="M 153.2 920 L 153.2 910" />
        <path d="M 169.8 920 L 169.8 910" />
        <path d="M 186.4 920 L 186.4 910" />
        <path d="M 203 920 L 203 910" />
        <path d="M 219.6 920 L 219.6 910" />
        <path d="M 236.2 920 L 236.2 910" />
        <path d="M 252.8 920 L 252.8 910" />
        <path d="M 269.4 920 L 269.4 910" />
        <path d="M 286 920 L 286 900" />
        <text font-size="30" transform="translate(286, 950)" text-anchor="middle" dominant-baseline="middle" stroke="none" fill="black">10</text>
        <path d="M 302.6 920 L 302.6 910" />
        <path d="M 319.2 920 L 319.2 910" />
        <path d="M 335.8 920 L 335.8 910" />
        <path d="M 352.4 920 L 352.4 910" />
        <path d="M 369 920 L 369 910" />
        <path d="M 385.6 920 L 385.6 910" />
        <path d="M 402.2 920 L 402.2 910" />
        <path d="M 418.8 920 L 418.8 910" />
        <path d="M 435.4 920 L 435.4 910" />
        <path d="M 452 920 L 452 900" />
        <text font-size="30" transform="translate(452, 950)" text-anchor="middle" dominant-baseline="middle" stroke="none" fill="black">20</text>
        <path d="M 468.6 920 L 468.6 910" />
        <path d="M 485.2 920 L 485.2 910" />
        <path d="M 501.8 920 L 501.8 910" />
        <path d="M 518.4 920 L 518.4 910" />
        <path d="M 535 920 L 535 910" />
        <path d="M 551.6 920 L 551.6 910" />
        <path d="M 568.2 920 L 568.2 910" />
        <path d="M 584.8 920 L 584.8 910" />
        <path d="M 601.4 920 L 601.4 910" />
        <path d="M 618 920 L 618 900" />
        <text font-size="30" transform="translate(618, 950)" text-anchor="middle" dominant-baseline="middle" stroke="none" fill="black">30</text>
        <path d="M 634.6 920 L 634.6 910" />
        <path d="M 651.2 920 L 651.2 910" />
        <path d="M 667.8 920 L 667.8 910" />
        <path d="M 684.4 920 L 684.4 910" />
        <path d="M 701 920 L 701 910" />
        <path d="M 717.6 920 L 717.6 910" />
        <path d="M 734.2 920 L 734.2 910" />
        <path d="M 750.8 920 L 750.8 910" />
        <path d="M 767.4 920 L 767.4 910" />
        <path d="M 784 920 L 784 900" />
        <text font-size="30" transform="translate(784, 950)" text-anchor="middle" dominant-baseline="middle" stroke="none" fill="black">40</text>
        <path d="M 800.6 920 L 800.6 910" />
        <path d="M 817.2 920 L 817.2 910" />
        <path d="M 833.8 920 L 833.8 910" />
        <path d="M 850.4 920 L 850.4 910" />
        <path d="M 867 920 L 867 910" />
        <path d="M 883.6 920 L 883.6 910" />
        <path d="M 900.2 920 L 900.2 910" />
        <path d="M 916.8 920 L 916.8 910" />
        <path d="M 933.4 920 L 933.4 910" />
        <path d="M 950 920 L 950 900" />
        <text font-size="30" transform="translate(950, 950)" text-anchor="middle" dominant-baseline="middle" stroke="none" fill="black">50</text>
    </g>
    <g id="frame_0_leftticks">
        <path d="M 120 624.83 L 130 624.83" />
        <path d="M 120 477.244 L 130 477.244" />
        <path d="M 120 421.9 L 130 421.9" />
        <path d="M 120 532.589 L 130 532.589" />
        <path d="M 120 292.763 L 130 292.763" />
        <path d="M 120 440.348 L 130 440.348" />
        <path d="M 120 790.863 L 130 790.863" />
        <path d="M 120 52.9369 L 130 52.9369" />
        <path d="M 120 643.278 L 130 643.278" />
        <path d="M 120 920 L 140 920" />
        <text font-size="30" transform="translate(110, 930)" text-anchor="end" dominant-baseline="middle" stroke="none" fill="black">0</text>
        <path d="M 120 385.004 L 130 385.004" />
        <path d="M 120 348.107 L 130 348.107" />
        <path d="M 120 200.522 L 130 200.522" />
        <path d="M 120 846.207 L 130 846.207" />
        <path d="M 120 514.141 L 130 514.141" />
        <path d="M 120 108.281 L 130 108.281" />
        <path d="M 120 735.518 L 140 735.518" />
        <text font-size="30" transform="translate(110, 745.518)" text-anchor="end" dominant-baseline="middle" stroke="none" fill="black">10000</text>
        <path d="M 120 551.037 L 140 551.037" />
        <text font-size="30" transform="translate(110, 561.037)" text-anchor="end" dominant-baseline="middle" stroke="none" fill="black">20000</text>
        <path d="M 120 753.967 L 130 753.967" />
        <path d="M 120 255.867 L 130 255.867" />
        <path d="M 120 661.726 L 130 661.726" />
        <path d="M 120 827.759 L 130 827.759" />
        <path d="M 120 163.626 L 130 163.626" />
        <path d="M 120 569.485 L 130 569.485" />
        <path d="M 120 311.211 L 130 311.211" />
        <path d="M 120 772.415 L 130 772.415" />
        <path d="M 120 403.452 L 130 403.452" />
        <path d="M 120 458.796 L 130 458.796" />
        <path d="M 120 680.174 L 130 680.174" />
        <path d="M 120 218.97 L 130 218.97" />
        <path d="M 120 366.555 L 140 366.555" />
        <text font-size="30" transform="translate(110, 376.555)" text-anchor="end" dominant-baseline="middle" stroke="none" fill="black">30000</text>
        <path d="M 120 883.104 L 130 883.104" />
        <path d="M 120 864.656 L 130 864.656" />
        <path d="M 120 126.73 L 130 126.73" />
        <path d="M 120 495.693 L 130 495.693" />
        <path d="M 120 274.315 L 130 274.315" />
        <path d="M 120 698.622 L 130 698.622" />
        <path d="M 120 587.933 L 130 587.933" />
        <path d="M 120 901.552 L 130 901.552" />
        <path d="M 120 145.178 L 130 145.178" />
        <path d="M 120 329.659 L 130 329.659" />
        <path d="M 120 809.311 L 130 809.311" />
        <path d="M 120 606.381 L 130 606.381" />
        <path d="M 120 182.074 L 140 182.074" />
        <text font-size="30" transform="translate(110, 192.074)" text-anchor="end" dominant-baseline="middle" stroke="none" fill="black">40000</text>
        <path d="M 120 89.8332 L 130 89.8332" />
        <path d="M 120 717.07 L 130 717.07" />
        <path d="M 120 237.418 L 130 237.418" />
        <path d="M 120 71.3851 L 130 71.3851" />
    </g>
    <text id="frame_0_toplabel" font-size="30" transform="translate(535, 32.6)" text-anchor="middle" dominant-baseline="middle" stroke="none" fill="black">prob.dist.chi2PDF</text>
    <g id="frame_0_topticks">
        <path d="M 120 50 L 120 70" />
        <path d="M 136.6 50 L 136.6 60" />
        <path d="M 153.2 50 L 153.2 60" />
        <path d="M 169.8 50 L 169.8 60" />
        <path d="M 186.4 50 L 186.4 60" />
        <path d="M 203 50 L 203 60" />
        <path d="M 219.6 50 L 219.6 60" />
        <path d="M 236.2 50 L 236.2 60" />
        <path d="M 252.8 50 L 252.8 60" />
        <path d="M 269.4 50 L 269.4 60" />
        <path d="M 286 50 L 286 70" />
        <path d="M 302.6 50 L 302.6 60" />
        <path d="M 319.2 50 L 319.2 60" />
        <path d="M 335.8 50 L 335.8 60" />
        <path d="M 352.4 50 L 352.4 60" />
        <path d="M 369 50 L 369 60" />
        <path d="M 385.6 50 L 385.6 60" />
        <path d="M 402.2 50 L 402.2 60" />
        <path d="M 418.8 50 L 418.8 60" />
        <path d="M 435.4 50 L 435.4 60" />
        <path d="M 452 50 L 452 70" />
        <path d="M 468.6 50 L 468.6 60" />
        <path d="M 485.2 50 L 485.2 60" />
        <path d="M 501.8 50 L 501.8 60" />
        <path d="M 518.4 50 L 518.4 60" />
        <path d="M 535 50 L 535 60" />
        <path d="M 551.6 50 L 551.6 60" />
        <path d="M 568.2 50 L 568.2 60" />
        <path d="M 584.8 50 L 584.8 60" />
        <path d="M 601.4 50 L 601.4 60" />
        <path d="M 618 50 L 618 70" />
        <path d="M 634.6 50 L 634.6 60" />
        <path d="M 651.2 50 L 651.2 60" />
        <path d="M 667.8 50 L 667.8 60" />
        <path d="M 684.4 50 L 684.4 60" />
        <path d="M 701 50 L 701 60" />
        <path d="M 717.6 50 L 717.6 60" />
        <path d="M 734.2 50 L 734.2 60" />
        <path d="M 750.8 50 L 750.8 60" />
        <path d="M 767.4 50 L 767.4 60" />
        <path d="M 784 50 L 784 70" />
        <path d="M 800.6 50 L 800.6 60" />
        <path d="M 817.2 50 L 817.2 60" />
        <path d="M 833.8 50 L 833.8 60" />
        <path d="M 850.4 50 L 850.4 60" />
        <path d="M 867 50 L 867 60" />
        <path d="M 883.6 50 L 883.6 60" />
        <path d="M 900.2 50 L 900.2 60" />
        <path d="M 916.8 50 L 916.8 60" />
        <path d="M 933.4 50 L 933.4 60" />
        <path d="M 950 50 L 950 70" />
    </g>
    <g id="frame_0_rightticks">
        <path d="M 950 624.83 L 940 624.83" />
        <path d="M 950 477.244 L 940 477.244" />
        <path d="M 950 421.9 L 940 421.9" />
        <path d="M 950 532.589 L 940 532.589" />
        <path d="M 950 292.763 L 940 292.763" />
        <path d="M 950 440.348 L 940 440.348" />
        <path d="M 950 790.863 L 940 790.863" />
        <path d="M 950 52.9369 L 940 52.9369" />
        <path d="M 950 643.278 L 940 643.278" />
        <path d="M 950 920 L 930 920" />
        <path d="M 950 385.004 L 940 385.004" />
        <path d="M 950 348.107 L 940 348.107" />
        <path d="M 950 200.522 L 940 200.522" />
        <path d="M 950 846.207 L 940 846.207" />
        <path d="M 950 514.141 L 940 514.141" />
        <path d="M 950 108.281 L 940 108.281" />
        <path d="M 950 735.518 L 930 735.518" />
        <path d="M 950 551.037 L 930 551.037" />
        <path d="M 950 753.967 L 940 753.967" />
        <path d="M 950 255.867 L 940 255.867" />
        <path d="M 950 661.726 L 940 661.726" />
        <path d="M 950 827.759 L 940 827.759" />
        <path d="M 950 163.626 L 940 163.626" />
        <path d="M 950 569.485 L 940 569.485" />
        <path d="M 950 311.211 L 940 311.211" />
        <path d="M 950 772.415 L 940 772.415" />
        <path d="M 950 403.452 L 940 403.452" />
        <path d="M 950 458.796 L 940 458.796" />
        <path d="M 950 680.174 L 940 680.174" />
        <path d="M 950 218.97 L 940 218.97" />
        <path d="M 950 366.555 L 930 366.555" />
        <path d="M 950 883.104 L 940 883.104" />
        <path d="M 950 864.656 L 940 864.656" />
        <path d="M 950 126.73 L 940 126.73" />
        <path d="M 950 495.693 L 940 495.693" />
        <path d="M 950 274.315 L 940 274.315" />
        <path d="M 950 698.622 L 940 698.622" />
        <path d="M 950 587.933 L 940 587.933" />
        <path d="M 950 901.552 L 940 901.552" />
        <path d="M 950 145.178 L 940 145.178" />
        <path d="M 950 329.659 L 940 329.659" />
        <path d="M 950 809.311 L 940 809.311" />
        <path d="M 950 606.381 L 940 606.381" />
        <path d="M 950 182.074 L 930 182.074" />
        <path d="M 950 89.8332 L 940 89.8332" />
        <path d="M 950 717.07 L 940 717.07" />
        <path d="M 950 237.418 L 940 237.418" />
        <path d="M 950 71.3851 L 940 71.3851" />
    </g>
</g>
</g>
</svg>
