<?xml version="1.0" standalone="no"?>
<!DOCTYPE svg PUBLIC "-//W3C//DTD SVG 1.1//EN" "http://www.w3.org/Graphics/SVG/1.1/DTD/svg11.dtd">
<svg style="stroke-linejoin:miter; stroke:black; stroke-width:2.5; text-anchor:middle; fill:none" xmlns="http://www.w3.org/2000/svg" font-family="Helvetica, Arial, FreeSans, Sans, sans, sans-serif" width="1000px" height="1000px" version="1.1" xmlns:xlink="http://www.w3.org/1999/xlink" viewBox="0 0 1000 1000">
<defs>
    <clipPath id="Histogram_0_clip">
        <rect x="120" y="50" width="830" height="870" />
    </clipPath>
</defs>
<g id="whole_document">
<rect id="background" x="0" y="0" width="1000" height="1000" stroke="none" fill="white" />
<g id="Histogram_0" clip-path="url(#Histogram_0_clip)">
    <path d="M 120 920 L 120 920 L 161.5 920 L 161.5 129.091 L 203 129.091 L 203 920 L 244.5 920 L 244.5 911.063 L 286 911.063 L 286 889.332 L 327.5 889.332 L 327.5 919.243 L 369 919.243 L 369 919.131 L 410.5 919.131 L 410.5 919.133 L 452 919.133 L 452 919.616 L 493.5 919.616 L 493.5 919.915 L 535 919.915 L 535 919.618 L 576.5 919.618 L 576.5 919.294 L 618 919.294 L 618 919.223 L 659.5 919.223 L 659.5 919.02 L 701 919.02 L 701 919.084 L 742.5 919.084 L 742.5 919.569 L 784 919.569 L 784 919.805 L 825.5 919.805 L 825.5 919.767 L 867 919.767 L 867 919.909 L 908.5 919.909 L 908.5 919.787 L 950 919.787 L 950 920" stroke-width="3" stroke-dasharray="" stroke="black" stroke-opacity="1" fill="DodgerBlue" fill-opacity="1" />
</g>
<g id="frame_0">
    <rect id="frame_0_border" x="120" y="50" width="830" height="870" />
    <text id="frame_0_bottomlabel" font-size="30" transform="translate(535, 989.6)" text-anchor="middle" dominant-baseline="middle" stroke="none" fill="black">microseconds</text>
    <g id="frame_0_bottomticks">
        <path d="M 120 920 L 120 900" />
        <text font-size="30" transform="translate(120, 950)" text-anchor="middle" dominant-baseline="middle" stroke="none" fill="black">0</text>
        <path d="M 136.6 920 L 136.6 910" />
        <path d="M 153.2 920 L 153.2 910" />
        <path d="M 169.8 920 L 169.8 910" />
        <path d="M 186.4 920 L 186.4 910" />
        <path d="M 203 920 L 203 910" />
        <path d="M 219.6 920 L 219.6 910" />
        <path d="M 236.2 920 L 236.2 910" />
        <path d="M 252.8 920 L 252.8 910" />
        <path d="M 269.4 920 L 269.4 910" />
        <path d="M 286 920 L 286 900" />
        <text font-size="30" transform="translate(286, 950)" text-anchor="middle" dominant-baseline="middle" stroke="none" fill="black">10</text>
        <path d="M 302.6 920 L 302.6 910" />
        <path d="M 319.2 920 L 319.2 910" />
        <path d="M 335.8 920 L 335.8 910" />
        <path d="M 352.4 920 L 352.4 910" />
        <path d="M 369 920 L 369 910" />
        <path d="M 385.6 920 L 385.6 910" />
        <path d="M 402.2 920 L 402.2 910" />
        <path d="M 418.8 920 L 418.8 910" />
        <path d="M 435.4 920 L 435.4 910" />
        <path d="M 452 920 L 452 900" />
        <text font-size="30" transform="translate(452, 950)" text-anchor="middle" dominant-baseline="middle" stroke="none" fill="black">20</text>
        <path d="M 468.6 920 L 468.6 910" />
        <path d="M 485.2 920 L 485.2 910" />
        <path d="M 501.8 920 L 501.8 910" />
        <path d="M 518.4 920 L 518.4 910" />
        <path d="M 535 920 L 535 910" />
        <path d="M 551.6 920 L 551.6 910" />
        <path d="M 568.2 920 L 568.2 910" />
        <path d="M 584.8 920 L 584.8 910" />
        <path d="M 601.4 920 L 601.4 910" />
        <path d="M 618 920 L 618 900" />
        <text font-size="30" transform="translate(618, 950)" text-anchor="middle" dominant-baseline="middle" stroke="none" fill="black">30</text>
        <path d="M 634.6 920 L 634.6 910" />
        <path d="M 651.2 920 L 651.2 910" />
        <path d="M 667.8 920 L 667.8 910" />
        <path d="M 684.4 920 L 684.4 910" />
        <path d="M 701 920 L 701 910" />
        <path d="M 717.6 920 L 717.6 910" />
        <path d="M 734.2 920 L 734.2 910" />
        <path d="M 750.8 920 L 750.8 910" />
        <path d="M 767.4 920 L 767.4 910" />
        <path d="M 784 920 L 784 900" />
        <text font-size="30" transform="translate(784, 950)" text-anchor="middle" dominant-baseline="middle" stroke="none" fill="black">40</text>
        <path d="M 800.6 920 L 800.6 910" />
        <path d="M 817.2 920 L 817.2 910" />
        <path d="M 833.8 920 L 833.8 910" />
        <path d="M 850.4 920 L 850.4 910" />
        <path d="M 867 920 L 867 910" />
        <path d="M 883.6 920 L 883.6 910" />
        <path d="M 900.2 920 L 900.2 910" />
        <path d="M 916.8 920 L 916.8 910" />
        <path d="M 933.4 920 L 933.4 910" />
        <path d="M 950 920 L 950 900" />
        <text font-size="30" transform="translate(950, 950)" text-anchor="middle" dominant-baseline="middle" stroke="none" fill="black">50</text>
    </g>
    <g id="frame_0_leftticks">
        <path d="M 120 759.014 L 130 759.014" />
        <path d="M 120 678.521 L 130 678.521" />
        <path d="M 120 920 L 140 920" />
        <text font-size="30" transform="translate(110, 930)" text-anchor="end" dominant-baseline="middle" stroke="none" fill="black">0</text>
        <path d="M 120 497.411 L 130 497.411" />
        <path d="M 120 74.8225 L 130 74.8225" />
        <path d="M 120 598.028 L 130 598.028" />
        <path d="M 120 738.891 L 130 738.891" />
        <path d="M 120 276.055 L 130 276.055" />
        <path d="M 120 376.672 L 130 376.672" />
        <path d="M 120 899.877 L 130 899.877" />
        <path d="M 120 879.753 L 130 879.753" />
        <path d="M 120 698.644 L 130 698.644" />
        <path d="M 120 54.6992 L 130 54.6992" />
        <path d="M 120 155.316 L 130 155.316" />
        <path d="M 120 255.932 L 130 255.932" />
        <path d="M 120 859.63 L 130 859.63" />
        <path d="M 120 819.384 L 140 819.384" />
        <text font-size="30" transform="translate(110, 829.384)" text-anchor="end" dominant-baseline="middle" stroke="none" fill="black">50000</text>
        <path d="M 120 356.548 L 130 356.548" />
        <path d="M 120 457.165 L 130 457.165" />
        <path d="M 120 175.439 L 130 175.439" />
        <path d="M 120 557.781 L 130 557.781" />
        <path d="M 120 839.507 L 130 839.507" />
        <path d="M 120 396.795 L 130 396.795" />
        <path d="M 120 135.192 L 130 135.192" />
        <path d="M 120 235.809 L 130 235.809" />
        <path d="M 120 336.425 L 130 336.425" />
        <path d="M 120 658.397 L 130 658.397" />
        <path d="M 120 437.041 L 130 437.041" />
        <path d="M 120 537.658 L 130 537.658" />
        <path d="M 120 115.069 L 140 115.069" />
        <text font-size="30" transform="translate(110, 125.069)" text-anchor="end" dominant-baseline="middle" stroke="none" fill="black">400000</text>
        <path d="M 120 638.274 L 130 638.274" />
        <path d="M 120 215.685 L 140 215.685" />
        <text font-size="30" transform="translate(110, 225.685)" text-anchor="end" dominant-baseline="middle" stroke="none" fill="black">350000</text>
        <path d="M 120 799.26 L 130 799.26" />
        <path d="M 120 577.904 L 130 577.904" />
        <path d="M 120 316.302 L 140 316.302" />
        <text font-size="30" transform="translate(110, 326.302)" text-anchor="end" dominant-baseline="middle" stroke="none" fill="black">300000</text>
        <path d="M 120 416.918 L 140 416.918" />
        <text font-size="30" transform="translate(110, 426.918)" text-anchor="end" dominant-baseline="middle" stroke="none" fill="black">250000</text>
        <path d="M 120 779.137 L 130 779.137" />
        <path d="M 120 94.9457 L 130 94.9457" />
        <path d="M 120 517.535 L 140 517.535" />
        <text font-size="30" transform="translate(110, 527.535)" text-anchor="end" dominant-baseline="middle" stroke="none" fill="black">200000</text>
        <path d="M 120 618.151 L 140 618.151" />
        <text font-size="30" transform="translate(110, 628.151)" text-anchor="end" dominant-baseline="middle" stroke="none" fill="black">150000</text>
        <path d="M 120 195.562 L 130 195.562" />
        <path d="M 120 718.767 L 140 718.767" />
        <text font-size="30" transform="translate(110, 728.767)" text-anchor="end" dominant-baseline="middle" stroke="none" fill="black">100000</text>
        <path d="M 120 477.288 L 130 477.288" />
        <path d="M 120 296.178 L 130 296.178" />
    </g>
    <text id="frame_0_toplabel" font-size="30" transform="translate(535, 32.6)" text-anchor="middle" dominant-baseline="middle" stroke="none" fill="black">map.add</text>
    <g id="frame_0_topticks">
        <path d="M 120 50 L 120 70" />
        <path d="M 136.6 50 L 136.6 60" />
        <path d="M 153.2 50 L 153.2 60" />
        <path d="M 169.8 50 L 169.8 60" />
        <path d="M 186.4 50 L 186.4 60" />
        <path d="M 203 50 L 203 60" />
        <path d="M 219.6 50 L 219.6 60" />
        <path d="M 236.2 50 L 236.2 60" />
        <path d="M 252.8 50 L 252.8 60" />
        <path d="M 269.4 50 L 269.4 60" />
        <path d="M 286 50 L 286 70" />
        <path d="M 302.6 50 L 302.6 60" />
        <path d="M 319.2 50 L 319.2 60" />
        <path d="M 335.8 50 L 335.8 60" />
        <path d="M 352.4 50 L 352.4 60" />
        <path d="M 369 50 L 369 60" />
        <path d="M 385.6 50 L 385.6 60" />
        <path d="M 402.2 50 L 402.2 60" />
        <path d="M 418.8 50 L 418.8 60" />
        <path d="M 435.4 50 L 435.4 60" />
        <path d="M 452 50 L 452 70" />
        <path d="M 468.6 50 L 468.6 60" />
        <path d="M 485.2 50 L 485.2 60" />
        <path d="M 501.8 50 L 501.8 60" />
        <path d="M 518.4 50 L 518.4 60" />
        <path d="M 535 50 L 535 60" />
        <path d="M 551.6 50 L 551.6 60" />
        <path d="M 568.2 50 L 568.2 60" />
        <path d="M 584.8 50 L 584.8 60" />
        <path d="M 601.4 50 L 601.4 60" />
        <path d="M 618 50 L 618 70" />
        <path d="M 634.6 50 L 634.6 60" />
        <path d="M 651.2 50 L 651.2 60" />
        <path d="M 667.8 50 L 667.8 60" />
        <path d="M 684.4 50 L 684.4 60" />
        <path d="M 701 50 L 701 60" />
        <path d="M 717.6 50 L 717.6 60" />
        <path d="M 734.2 50 L 734.2 60" />
        <path d="M 750.8 50 L 750.8 60" />
        <path d="M 767.4 50 L 767.4 60" />
        <path d="M 784 50 L 784 70" />
        <path d="M 800.6 50 L 800.6 60" />
        <path d="M 817.2 50 L 817.2 60" />
        <path d="M 833.8 50 L 833.8 60" />
        <path d="M 850.4 50 L 850.4 60" />
        <path d="M 867 50 L 867 60" />
        <path d="M 883.6 50 L 883.6 60" />
        <path d="M 900.2 50 L 900.2 60" />
        <path d="M 916.8 50 L 916.8 60" />
        <path d="M 933.4 50 L 933.4 60" />
        <path d="M 950 50 L 950 70" />
    </g>
    <g id="frame_0_rightticks">
        <path d="M 950 759.014 L 940 759.014" />
        <path d="M 950 678.521 L 940 678.521" />
        <path d="M 950 920 L 930 920" />
        <path d="M 950 497.411 L 940 497.411" />
        <path d="M 950 74.8225 L 940 74.8225" />
        <path d="M 950 598.028 L 940 598.028" />
        <path d="M 950 738.891 L 940 738.891" />
        <path d="M 950 276.055 L 940 276.055" />
        <path d="M 950 376.672 L 940 376.672" />
        <path d="M 950 899.877 L 940 899.877" />
        <path d="M 950 879.753 L 940 879.753" />
        <path d="M 950 698.644 L 940 698.644" />
        <path d="M 950 54.6992 L 940 54.6992" />
        <path d="M 950 155.316 L 940 155.316" />
        <path d="M 950 255.932 L 940 255.932" />
        <path d="M 950 859.63 L 940 859.63" />
        <path d="M 950 819.384 L 930 819.384" />
        <path d="M 950 356.548 L 940 356.548" />
        <path d="M 950 457.165 L 940 457.165" />
        <path d="M 950 175.439 L 940 175.439" />
        <path d="M 950 557.781 L 940 557.781" />
        <path d="M 950 839.507 L 940 839.507" />
        <path d="M 950 396.795 L 940 396.795" />
        <path d="M 950 135.192 L 940 135.192" />
        <path d="M 950 235.809 L 940 235.809" />
        <path d="M 950 336.425 L 940 336.425" />
        <path d="M 950 658.397 L 940 658.397" />
        <path d="M 950 437.041 L 940 437.041" />
        <path d="M 950 537.658 L 940 537.658" />
        <path d="M 950 115.069 L 930 115.069" />
        <path d="M 950 638.274 L 940 638.274" />
        <path d="M 950 215.685 L 930 215.685" />
        <path d="M 950 799.26 L 940 799.26" />
        <path d="M 950 577.904 L 940 577.904" />
        <path d="M 950 316.302 L 930 316.302" />
        <path d="M 950 416.918 L 930 416.918" />
        <path d="M 950 779.137 L 940 779.137" />
        <path d="M 950 94.9457 L 940 94.9457" />
        <path d="M 950 517.535 L 930 517.535" />
        <path d="M 950 618.151 L 930 618.151" />
        <path d="M 950 195.562 L 940 195.562" />
        <path d="M 950 718.767 L 930 718.767" />
        <path d="M 950 477.288 L 940 477.288" />
        <path d="M 950 296.178 L 940 296.178" />
    </g>
</g>
</g>
</svg>
