<?xml version="1.0" standalone="no"?>
<!DOCTYPE svg PUBLIC "-//W3C//DTD SVG 1.1//EN" "http://www.w3.org/Graphics/SVG/1.1/DTD/svg11.dtd">
<svg style="stroke-linejoin:miter; stroke:black; stroke-width:2.5; text-anchor:middle; fill:none" xmlns="http://www.w3.org/2000/svg" font-family="Helvetica, Arial, FreeSans, Sans, sans, sans-serif" width="1000px" height="1000px" version="1.1" xmlns:xlink="http://www.w3.org/1999/xlink" viewBox="0 0 1000 1000">
<defs>
    <clipPath id="Histogram_0_clip">
        <rect x="120" y="50" width="830" height="870" />
    </clipPath>
    <clipPath id="Histogram_1_clip">
        <rect x="120" y="50" width="830" height="870" />
    </clipPath>
</defs>
<g id="whole_document">
<rect id="background" x="0" y="0" width="1000" height="1000" stroke="none" fill="white" />
<g id="Histogram_0" clip-path="url(#Histogram_0_clip)">
    <path d="M 120 920 L 120 129.091 L 161.5 129.091 L 161.5 920 L 203 920 L 203 733.367 L 244.5 733.367 L 244.5 857.141 L 286 857.141 L 286 908.085 L 327.5 908.085 L 327.5 920 L 369 920 L 369 920 L 410.5 920 L 410.5 920 L 452 920 L 452 920 L 493.5 920 L 493.5 920 L 535 920 L 535 920 L 576.5 920 L 576.5 920 L 618 920 L 618 920 L 659.5 920 L 659.5 920 L 701 920 L 701 920 L 742.5 920 L 742.5 920 L 784 920 L 784 920 L 825.5 920 L 825.5 920 L 867 920 L 867 920 L 908.5 920 L 908.5 920 L 950 920 L 950 920" stroke-width="3" stroke-dasharray="" stroke="black" stroke-opacity="1" fill="DodgerBlue" fill-opacity="1" />
</g>
<g id="Histogram_1" clip-path="url(#Histogram_1_clip)">
    <path d="M 120 920 L 120 920 L 161.5 920 L 161.5 920 L 203 920 L 203 733.367 L 244.5 733.367 L 244.5 857.141 L 286 857.141 L 286 908.085 L 327.5 908.085 L 327.5 920 L 369 920 L 369 920 L 410.5 920 L 410.5 920 L 452 920 L 452 920 L 493.5 920 L 493.5 920 L 535 920 L 535 920 L 576.5 920 L 576.5 920 L 618 920 L 618 920 L 659.5 920 L 659.5 920 L 701 920 L 701 920 L 742.5 920 L 742.5 920 L 784 920 L 784 920 L 825.5 920 L 825.5 920 L 867 920 L 867 920 L 908.5 920 L 908.5 920 L 950 920 L 950 920" stroke-width="3" stroke-dasharray="" stroke="black" stroke-opacity="1" fill="darkorange" fill-opacity="1" />
</g>
<g id="frame_0">
    <rect id="frame_0_border" x="120" y="50" width="830" height="870" />
    <text id="frame_0_bottomlabel" font-size="30" transform="translate(535, 989.6)" text-anchor="middle" dominant-baseline="middle" stroke="none" fill="black">microseconds</text>
    <g id="frame_0_bottomticks">
        <path d="M 120 920 L 120 900" />
        <text font-size="30" transform="translate(120, 950)" text-anchor="middle" dominant-baseline="middle" stroke="none" fill="black">0</text>
        <path d="M 136.6 920 L 136.6 910" />
        <path d="M 153.2 920 L 153.2 910" />
        <path d="M 169.8 920 L 169.8 910" />
        <path d="M 186.4 920 L 186.4 910" />
        <path d="M 203 920 L 203 910" />
        <path d="M 219.6 920 L 219.6 910" />
        <path d="M 236.2 920 L 236.2 910" />
        <path d="M 252.8 920 L 252.8 910" />
        <path d="M 269.4 920 L 269.4 910" />
        <path d="M 286 920 L 286 900" />
        <text font-size="30" transform="translate(286, 950)" text-anchor="middle" dominant-baseline="middle" stroke="none" fill="black">10</text>
        <path d="M 302.6 920 L 302.6 910" />
        <path d="M 319.2 920 L 319.2 910" />
        <path d="M 335.8 920 L 335.8 910" />
        <path d="M 352.4 920 L 352.4 910" />
        <path d="M 369 920 L 369 910" />
        <path d="M 385.6 920 L 385.6 910" />
        <path d="M 402.2 920 L 402.2 910" />
        <path d="M 418.8 920 L 418.8 910" />
        <path d="M 435.4 920 L 435.4 910" />
        <path d="M 452 920 L 452 900" />
        <text font-size="30" transform="translate(452, 950)" text-anchor="middle" dominant-baseline="middle" stroke="none" fill="black">20</text>
        <path d="M 468.6 920 L 468.6 910" />
        <path d="M 485.2 920 L 485.2 910" />
        <path d="M 501.8 920 L 501.8 910" />
        <path d="M 518.4 920 L 518.4 910" />
        <path d="M 535 920 L 535 910" />
        <path d="M 551.6 920 L 551.6 910" />
        <path d="M 568.2 920 L 568.2 910" />
        <path d="M 584.8 920 L 584.8 910" />
        <path d="M 601.4 920 L 601.4 910" />
        <path d="M 618 920 L 618 900" />
        <text font-size="30" transform="translate(618, 950)" text-anchor="middle" dominant-baseline="middle" stroke="none" fill="black">30</text>
        <path d="M 634.6 920 L 634.6 910" />
        <path d="M 651.2 920 L 651.2 910" />
        <path d="M 667.8 920 L 667.8 910" />
        <path d="M 684.4 920 L 684.4 910" />
        <path d="M 701 920 L 701 910" />
        <path d="M 717.6 920 L 717.6 910" />
        <path d="M 734.2 920 L 734.2 910" />
        <path d="M 750.8 920 L 750.8 910" />
        <path d="M 767.4 920 L 767.4 910" />
        <path d="M 784 920 L 784 900" />
        <text font-size="30" transform="translate(784, 950)" text-anchor="middle" dominant-baseline="middle" stroke="none" fill="black">40</text>
        <path d="M 800.6 920 L 800.6 910" />
        <path d="M 817.2 920 L 817.2 910" />
        <path d="M 833.8 920 L 833.8 910" />
        <path d="M 850.4 920 L 850.4 910" />
        <path d="M 867 920 L 867 910" />
        <path d="M 883.6 920 L 883.6 910" />
        <path d="M 900.2 920 L 900.2 910" />
        <path d="M 916.8 920 L 916.8 910" />
        <path d="M 933.4 920 L 933.4 910" />
        <path d="M 950 920 L 950 900" />
        <text font-size="30" transform="translate(950, 950)" text-anchor="middle" dominant-baseline="middle" stroke="none" fill="black">50</text>
    </g>
    <g id="frame_0_leftticks">
        <path d="M 120 530.929 L 130 530.929" />
        <path d="M 120 336.393 L 130 336.393" />
        <path d="M 120 810.574 L 130 810.574" />
        <path d="M 120 129.699 L 130 129.699" />
        <path d="M 120 920 L 140 920" />
        <text font-size="30" transform="translate(110, 930)" text-anchor="end" dominant-baseline="middle" stroke="none" fill="black">0</text>
        <path d="M 120 701.147 L 130 701.147" />
        <path d="M 120 494.453 L 130 494.453" />
        <path d="M 120 591.721 L 130 591.721" />
        <path d="M 120 871.366 L 130 871.366" />
        <path d="M 120 457.978 L 130 457.978" />
        <path d="M 120 178.333 L 130 178.333" />
        <path d="M 120 761.94 L 130 761.94" />
        <path d="M 120 652.513 L 130 652.513" />
        <path d="M 120 421.502 L 130 421.502" />
        <path d="M 120 543.087 L 130 543.087" />
        <path d="M 120 822.732 L 130 822.732" />
        <path d="M 120 385.027 L 130 385.027" />
        <path d="M 120 251.284 L 130 251.284" />
        <path d="M 120 713.306 L 130 713.306" />
        <path d="M 120 202.65 L 130 202.65" />
        <path d="M 120 603.88 L 130 603.88" />
        <path d="M 120 348.551 L 130 348.551" />
        <path d="M 120 883.525 L 130 883.525" />
        <path d="M 120 774.098 L 130 774.098" />
        <path d="M 120 506.612 L 130 506.612" />
        <path d="M 120 664.672 L 130 664.672" />
        <path d="M 120 676.83 L 140 676.83" />
        <text font-size="30" transform="translate(110, 686.83)" text-anchor="end" dominant-baseline="middle" stroke="none" fill="black">2000</text>
        <path d="M 120 166.174 L 130 166.174" />
        <path d="M 120 470.136 L 130 470.136" />
        <path d="M 120 93.2234 L 130 93.2234" />
        <path d="M 120 834.891 L 130 834.891" />
        <path d="M 120 725.464 L 130 725.464" />
        <path d="M 120 239.125 L 130 239.125" />
        <path d="M 120 275.601 L 130 275.601" />
        <path d="M 120 616.038 L 130 616.038" />
        <path d="M 120 895.683 L 130 895.683" />
        <path d="M 120 397.185 L 130 397.185" />
        <path d="M 120 786.257 L 130 786.257" />
        <path d="M 120 299.918 L 130 299.918" />
        <path d="M 120 141.857 L 130 141.857" />
        <path d="M 120 287.759 L 130 287.759" />
        <path d="M 120 360.71 L 130 360.71" />
        <path d="M 120 433.661 L 140 433.661" />
        <text font-size="30" transform="translate(110, 443.661)" text-anchor="end" dominant-baseline="middle" stroke="none" fill="black">4000</text>
        <path d="M 120 567.404 L 130 567.404" />
        <path d="M 120 798.415 L 140 798.415" />
        <text font-size="30" transform="translate(110, 808.415)" text-anchor="end" dominant-baseline="middle" stroke="none" fill="black">1000</text>
        <path d="M 120 324.235 L 130 324.235" />
        <path d="M 120 847.049 L 130 847.049" />
        <path d="M 120 518.77 L 130 518.77" />
        <path d="M 120 117.54 L 130 117.54" />
        <path d="M 120 737.623 L 130 737.623" />
        <path d="M 120 190.491 L 140 190.491" />
        <text font-size="30" transform="translate(110, 200.491)" text-anchor="end" dominant-baseline="middle" stroke="none" fill="black">6000</text>
        <path d="M 120 312.076 L 140 312.076" />
        <text font-size="30" transform="translate(110, 322.076)" text-anchor="end" dominant-baseline="middle" stroke="none" fill="black">5000</text>
        <path d="M 120 628.196 L 130 628.196" />
        <path d="M 120 482.295 L 130 482.295" />
        <path d="M 120 907.842 L 130 907.842" />
        <path d="M 120 154.016 L 130 154.016" />
        <path d="M 120 409.344 L 130 409.344" />
        <path d="M 120 445.819 L 130 445.819" />
        <path d="M 120 56.748 L 130 56.748" />
        <path d="M 120 688.989 L 130 688.989" />
        <path d="M 120 579.563 L 130 579.563" />
        <path d="M 120 214.808 L 130 214.808" />
        <path d="M 120 555.246 L 140 555.246" />
        <text font-size="30" transform="translate(110, 565.246)" text-anchor="end" dominant-baseline="middle" stroke="none" fill="black">3000</text>
        <path d="M 120 859.208 L 130 859.208" />
        <path d="M 120 81.0649 L 130 81.0649" />
        <path d="M 120 226.967 L 130 226.967" />
        <path d="M 120 68.9064 L 140 68.9064" />
        <text font-size="30" transform="translate(110, 78.9064)" text-anchor="end" dominant-baseline="middle" stroke="none" fill="black">7000</text>
        <path d="M 120 749.781 L 130 749.781" />
        <path d="M 120 372.868 L 130 372.868" />
        <path d="M 120 640.355 L 130 640.355" />
        <path d="M 120 263.442 L 130 263.442" />
        <path d="M 120 105.382 L 130 105.382" />
    </g>
    <text id="frame_0_toplabel" font-size="30" transform="translate(535, 32.6)" text-anchor="middle" dominant-baseline="middle" stroke="none" fill="black">rand.float</text>
    <g id="frame_0_topticks">
        <path d="M 120 50 L 120 70" />
        <path d="M 136.6 50 L 136.6 60" />
        <path d="M 153.2 50 L 153.2 60" />
        <path d="M 169.8 50 L 169.8 60" />
        <path d="M 186.4 50 L 186.4 60" />
        <path d="M 203 50 L 203 60" />
        <path d="M 219.6 50 L 219.6 60" />
        <path d="M 236.2 50 L 236.2 60" />
        <path d="M 252.8 50 L 252.8 60" />
        <path d="M 269.4 50 L 269.4 60" />
        <path d="M 286 50 L 286 70" />
        <path d="M 302.6 50 L 302.6 60" />
        <path d="M 319.2 50 L 319.2 60" />
        <path d="M 335.8 50 L 335.8 60" />
        <path d="M 352.4 50 L 352.4 60" />
        <path d="M 369 50 L 369 60" />
        <path d="M 385.6 50 L 385.6 60" />
        <path d="M 402.2 50 L 402.2 60" />
        <path d="M 418.8 50 L 418.8 60" />
        <path d="M 435.4 50 L 435.4 60" />
        <path d="M 452 50 L 452 70" />
        <path d="M 468.6 50 L 468.6 60" />
        <path d="M 485.2 50 L 485.2 60" />
        <path d="M 501.8 50 L 501.8 60" />
        <path d="M 518.4 50 L 518.4 60" />
        <path d="M 535 50 L 535 60" />
        <path d="M 551.6 50 L 551.6 60" />
        <path d="M 568.2 50 L 568.2 60" />
        <path d="M 584.8 50 L 584.8 60" />
        <path d="M 601.4 50 L 601.4 60" />
        <path d="M 618 50 L 618 70" />
        <path d="M 634.6 50 L 634.6 60" />
        <path d="M 651.2 50 L 651.2 60" />
        <path d="M 667.8 50 L 667.8 60" />
        <path d="M 684.4 50 L 684.4 60" />
        <path d="M 701 50 L 701 60" />
        <path d="M 717.6 50 L 717.6 60" />
        <path d="M 734.2 50 L 734.2 60" />
        <path d="M 750.8 50 L 750.8 60" />
        <path d="M 767.4 50 L 767.4 60" />
        <path d="M 784 50 L 784 70" />
        <path d="M 800.6 50 L 800.6 60" />
        <path d="M 817.2 50 L 817.2 60" />
        <path d="M 833.8 50 L 833.8 60" />
        <path d="M 850.4 50 L 850.4 60" />
        <path d="M 867 50 L 867 60" />
        <path d="M 883.6 50 L 883.6 60" />
        <path d="M 900.2 50 L 900.2 60" />
        <path d="M 916.8 50 L 916.8 60" />
        <path d="M 933.4 50 L 933.4 60" />
        <path d="M 950 50 L 950 70" />
    </g>
    <g id="frame_0_rightticks">
        <path d="M 950 530.929 L 940 530.929" />
        <path d="M 950 336.393 L 940 336.393" />
        <path d="M 950 810.574 L 940 810.574" />
        <path d="M 950 129.699 L 940 129.699" />
        <path d="M 950 920 L 930 920" />
        <path d="M 950 701.147 L 940 701.147" />
        <path d="M 950 494.453 L 940 494.453" />
        <path d="M 950 591.721 L 940 591.721" />
        <path d="M 950 871.366 L 940 871.366" />
        <path d="M 950 457.978 L 940 457.978" />
        <path d="M 950 178.333 L 940 178.333" />
        <path d="M 950 761.94 L 940 761.94" />
        <path d="M 950 652.513 L 940 652.513" />
        <path d="M 950 421.502 L 940 421.502" />
        <path d="M 950 543.087 L 940 543.087" />
        <path d="M 950 822.732 L 940 822.732" />
        <path d="M 950 385.027 L 940 385.027" />
        <path d="M 950 251.284 L 940 251.284" />
        <path d="M 950 713.306 L 940 713.306" />
        <path d="M 950 202.65 L 940 202.65" />
        <path d="M 950 603.88 L 940 603.88" />
        <path d="M 950 348.551 L 940 348.551" />
        <path d="M 950 883.525 L 940 883.525" />
        <path d="M 950 774.098 L 940 774.098" />
        <path d="M 950 506.612 L 940 506.612" />
        <path d="M 950 664.672 L 940 664.672" />
        <path d="M 950 676.83 L 930 676.83" />
        <path d="M 950 166.174 L 940 166.174" />
        <path d="M 950 470.136 L 940 470.136" />
        <path d="M 950 93.2234 L 940 93.2234" />
        <path d="M 950 834.891 L 940 834.891" />
        <path d="M 950 725.464 L 940 725.464" />
        <path d="M 950 239.125 L 940 239.125" />
        <path d="M 950 275.601 L 940 275.601" />
        <path d="M 950 616.038 L 940 616.038" />
        <path d="M 950 895.683 L 940 895.683" />
        <path d="M 950 397.185 L 940 397.185" />
        <path d="M 950 786.257 L 940 786.257" />
        <path d="M 950 299.918 L 940 299.918" />
        <path d="M 950 141.857 L 940 141.857" />
        <path d="M 950 287.759 L 940 287.759" />
        <path d="M 950 360.71 L 940 360.71" />
        <path d="M 950 433.661 L 930 433.661" />
        <path d="M 950 567.404 L 940 567.404" />
        <path d="M 950 798.415 L 930 798.415" />
        <path d="M 950 324.235 L 940 324.235" />
        <path d="M 950 847.049 L 940 847.049" />
        <path d="M 950 518.77 L 940 518.77" />
        <path d="M 950 117.54 L 940 117.54" />
        <path d="M 950 737.623 L 940 737.623" />
        <path d="M 950 190.491 L 930 190.491" />
        <path d="M 950 312.076 L 930 312.076" />
        <path d="M 950 628.196 L 940 628.196" />
        <path d="M 950 482.295 L 940 482.295" />
        <path d="M 950 907.842 L 940 907.842" />
        <path d="M 950 154.016 L 940 154.016" />
        <path d="M 950 409.344 L 940 409.344" />
        <path d="M 950 445.819 L 940 445.819" />
        <path d="M 950 56.748 L 940 56.748" />
        <path d="M 950 688.989 L 940 688.989" />
        <path d="M 950 579.563 L 940 579.563" />
        <path d="M 950 214.808 L 940 214.808" />
        <path d="M 950 555.246 L 930 555.246" />
        <path d="M 950 859.208 L 940 859.208" />
        <path d="M 950 81.0649 L 940 81.0649" />
        <path d="M 950 226.967 L 940 226.967" />
        <path d="M 950 68.9064 L 930 68.9064" />
        <path d="M 950 749.781 L 940 749.781" />
        <path d="M 950 372.868 L 940 372.868" />
        <path d="M 950 640.355 L 940 640.355" />
        <path d="M 950 263.442 L 940 263.442" />
        <path d="M 950 105.382 L 940 105.382" />
    </g>
</g>
</g>
</svg>
