<?xml version="1.0" standalone="no"?>
<!DOCTYPE svg PUBLIC "-//W3C//DTD SVG 1.1//EN" "http://www.w3.org/Graphics/SVG/1.1/DTD/svg11.dtd">
<svg style="stroke-linejoin:miter; stroke:black; stroke-width:2.5; text-anchor:middle; fill:none" xmlns="http://www.w3.org/2000/svg" font-family="Helvetica, Arial, FreeSans, Sans, sans, sans-serif" width="1000px" height="1000px" version="1.1" xmlns:xlink="http://www.w3.org/1999/xlink" viewBox="0 0 1000 1000">
<defs>
    <clipPath id="Histogram_0_clip">
        <rect x="120" y="50" width="830" height="870" />
    </clipPath>
    <clipPath id="Histogram_1_clip">
        <rect x="120" y="50" width="830" height="870" />
    </clipPath>
</defs>
<g id="whole_document">
<rect id="background" x="0" y="0" width="1000" height="1000" stroke="none" fill="white" />
<g id="Histogram_0" clip-path="url(#Histogram_0_clip)">
    <path d="M 120 920 L 120 422.156 L 161.5 422.156 L 161.5 632.909 L 203 632.909 L 203 129.091 L 244.5 129.091 L 244.5 907.915 L 286 907.915 L 286 912.476 L 327.5 912.476 L 327.5 902.375 L 369 902.375 L 369 920 L 410.5 920 L 410.5 916.306 L 452 916.306 L 452 920 L 493.5 920 L 493.5 920 L 535 920 L 535 920 L 576.5 920 L 576.5 920 L 618 920 L 618 920 L 659.5 920 L 659.5 920 L 701 920 L 701 920 L 742.5 920 L 742.5 920 L 784 920 L 784 920 L 825.5 920 L 825.5 920 L 867 920 L 867 920 L 908.5 920 L 908.5 920 L 950 920 L 950 920" stroke-width="3" stroke-dasharray="" stroke="black" stroke-opacity="1" fill="DodgerBlue" fill-opacity="1" />
</g>
<g id="Histogram_1" clip-path="url(#Histogram_1_clip)">
    <path d="M 120 920 L 120 920 L 161.5 920 L 161.5 920 L 203 920 L 203 144.391 L 244.5 144.391 L 244.5 907.915 L 286 907.915 L 286 912.476 L 327.5 912.476 L 327.5 902.375 L 369 902.375 L 369 920 L 410.5 920 L 410.5 916.306 L 452 916.306 L 452 920 L 493.5 920 L 493.5 920 L 535 920 L 535 920 L 576.5 920 L 576.5 920 L 618 920 L 618 920 L 659.5 920 L 659.5 920 L 701 920 L 701 920 L 742.5 920 L 742.5 920 L 784 920 L 784 920 L 825.5 920 L 825.5 920 L 867 920 L 867 920 L 908.5 920 L 908.5 920 L 950 920 L 950 920" stroke-width="3" stroke-dasharray="" stroke="black" stroke-opacity="1" fill="darkorange" fill-opacity="1" />
</g>
<g id="frame_0">
    <rect id="frame_0_border" x="120" y="50" width="830" height="870" />
    <text id="frame_0_bottomlabel" font-size="30" transform="translate(535, 989.6)" text-anchor="middle" dominant-baseline="middle" stroke="none" fill="black">microseconds</text>
    <g id="frame_0_bottomticks">
        <path d="M 120 920 L 120 900" />
        <text font-size="30" transform="translate(120, 950)" text-anchor="middle" dominant-baseline="middle" stroke="none" fill="black">0</text>
        <path d="M 136.6 920 L 136.6 910" />
        <path d="M 153.2 920 L 153.2 910" />
        <path d="M 169.8 920 L 169.8 910" />
        <path d="M 186.4 920 L 186.4 910" />
        <path d="M 203 920 L 203 910" />
        <path d="M 219.6 920 L 219.6 910" />
        <path d="M 236.2 920 L 236.2 910" />
        <path d="M 252.8 920 L 252.8 910" />
        <path d="M 269.4 920 L 269.4 910" />
        <path d="M 286 920 L 286 900" />
        <text font-size="30" transform="translate(286, 950)" text-anchor="middle" dominant-baseline="middle" stroke="none" fill="black">10</text>
        <path d="M 302.6 920 L 302.6 910" />
        <path d="M 319.2 920 L 319.2 910" />
        <path d="M 335.8 920 L 335.8 910" />
        <path d="M 352.4 920 L 352.4 910" />
        <path d="M 369 920 L 369 910" />
        <path d="M 385.6 920 L 385.6 910" />
        <path d="M 402.2 920 L 402.2 910" />
        <path d="M 418.8 920 L 418.8 910" />
        <path d="M 435.4 920 L 435.4 910" />
        <path d="M 452 920 L 452 900" />
        <text font-size="30" transform="translate(452, 950)" text-anchor="middle" dominant-baseline="middle" stroke="none" fill="black">20</text>
        <path d="M 468.6 920 L 468.6 910" />
        <path d="M 485.2 920 L 485.2 910" />
        <path d="M 501.8 920 L 501.8 910" />
        <path d="M 518.4 920 L 518.4 910" />
        <path d="M 535 920 L 535 910" />
        <path d="M 551.6 920 L 551.6 910" />
        <path d="M 568.2 920 L 568.2 910" />
        <path d="M 584.8 920 L 584.8 910" />
        <path d="M 601.4 920 L 601.4 910" />
        <path d="M 618 920 L 618 900" />
        <text font-size="30" transform="translate(618, 950)" text-anchor="middle" dominant-baseline="middle" stroke="none" fill="black">30</text>
        <path d="M 634.6 920 L 634.6 910" />
        <path d="M 651.2 920 L 651.2 910" />
        <path d="M 667.8 920 L 667.8 910" />
        <path d="M 684.4 920 L 684.4 910" />
        <path d="M 701 920 L 701 910" />
        <path d="M 717.6 920 L 717.6 910" />
        <path d="M 734.2 920 L 734.2 910" />
        <path d="M 750.8 920 L 750.8 910" />
        <path d="M 767.4 920 L 767.4 910" />
        <path d="M 784 920 L 784 900" />
        <text font-size="30" transform="translate(784, 950)" text-anchor="middle" dominant-baseline="middle" stroke="none" fill="black">40</text>
        <path d="M 800.6 920 L 800.6 910" />
        <path d="M 817.2 920 L 817.2 910" />
        <path d="M 833.8 920 L 833.8 910" />
        <path d="M 850.4 920 L 850.4 910" />
        <path d="M 867 920 L 867 910" />
        <path d="M 883.6 920 L 883.6 910" />
        <path d="M 900.2 920 L 900.2 910" />
        <path d="M 916.8 920 L 916.8 910" />
        <path d="M 933.4 920 L 933.4 910" />
        <path d="M 950 920 L 950 900" />
        <text font-size="30" transform="translate(950, 950)" text-anchor="middle" dominant-baseline="middle" stroke="none" fill="black">50</text>
    </g>
    <g id="frame_0_leftticks">
        <path d="M 120 555.179 L 130 555.179" />
        <path d="M 120 372.769 L 130 372.769" />
        <path d="M 120 304.365 L 130 304.365" />
        <path d="M 120 441.172 L 130 441.172" />
        <path d="M 120 144.755 L 130 144.755" />
        <path d="M 120 327.166 L 130 327.166" />
        <path d="M 120 760.391 L 130 760.391" />
        <path d="M 120 805.993 L 140 805.993" />
        <text font-size="30" transform="translate(110, 815.993)" text-anchor="end" dominant-baseline="middle" stroke="none" fill="black">5000</text>
        <path d="M 120 213.159 L 130 213.159" />
        <path d="M 120 691.987 L 140 691.987" />
        <text font-size="30" transform="translate(110, 701.987)" text-anchor="end" dominant-baseline="middle" stroke="none" fill="black">10000</text>
        <path d="M 120 920 L 140 920" />
        <text font-size="30" transform="translate(110, 930)" text-anchor="end" dominant-baseline="middle" stroke="none" fill="black">0</text>
        <path d="M 120 828.795 L 130 828.795" />
        <path d="M 120 418.371 L 130 418.371" />
        <path d="M 120 714.788 L 130 714.788" />
        <path d="M 120 577.98 L 140 577.98" />
        <text font-size="30" transform="translate(110, 587.98)" text-anchor="end" dominant-baseline="middle" stroke="none" fill="black">15000</text>
        <path d="M 120 99.1528 L 130 99.1528" />
        <path d="M 120 600.782 L 130 600.782" />
        <path d="M 120 258.762 L 130 258.762" />
        <path d="M 120 463.974 L 140 463.974" />
        <text font-size="30" transform="translate(110, 473.974)" text-anchor="end" dominant-baseline="middle" stroke="none" fill="black">20000</text>
        <path d="M 120 486.775 L 130 486.775" />
        <path d="M 120 167.557 L 130 167.557" />
        <path d="M 120 737.59 L 130 737.59" />
        <path d="M 120 281.563 L 130 281.563" />
        <path d="M 120 349.967 L 140 349.967" />
        <text font-size="30" transform="translate(110, 359.967)" text-anchor="end" dominant-baseline="middle" stroke="none" fill="black">25000</text>
        <path d="M 120 623.583 L 130 623.583" />
        <path d="M 120 53.5502 L 130 53.5502" />
        <path d="M 120 235.961 L 140 235.961" />
        <text font-size="30" transform="translate(110, 245.961)" text-anchor="end" dominant-baseline="middle" stroke="none" fill="black">30000</text>
        <path d="M 120 509.576 L 130 509.576" />
        <path d="M 120 851.596 L 130 851.596" />
        <path d="M 120 395.57 L 130 395.57" />
        <path d="M 120 121.954 L 140 121.954" />
        <text font-size="30" transform="translate(110, 131.954)" text-anchor="end" dominant-baseline="middle" stroke="none" fill="black">35000</text>
        <path d="M 120 646.384 L 130 646.384" />
        <path d="M 120 874.397 L 130 874.397" />
        <path d="M 120 897.199 L 130 897.199" />
        <path d="M 120 190.358 L 130 190.358" />
        <path d="M 120 783.192 L 130 783.192" />
        <path d="M 120 532.378 L 130 532.378" />
        <path d="M 120 669.186 L 130 669.186" />
        <path d="M 120 76.3515 L 130 76.3515" />
    </g>
    <text id="frame_0_toplabel" font-size="30" transform="translate(535, 32.6)" text-anchor="middle" dominant-baseline="middle" stroke="none" fill="black">m.kernel.rbf</text>
    <g id="frame_0_topticks">
        <path d="M 120 50 L 120 70" />
        <path d="M 136.6 50 L 136.6 60" />
        <path d="M 153.2 50 L 153.2 60" />
        <path d="M 169.8 50 L 169.8 60" />
        <path d="M 186.4 50 L 186.4 60" />
        <path d="M 203 50 L 203 60" />
        <path d="M 219.6 50 L 219.6 60" />
        <path d="M 236.2 50 L 236.2 60" />
        <path d="M 252.8 50 L 252.8 60" />
        <path d="M 269.4 50 L 269.4 60" />
        <path d="M 286 50 L 286 70" />
        <path d="M 302.6 50 L 302.6 60" />
        <path d="M 319.2 50 L 319.2 60" />
        <path d="M 335.8 50 L 335.8 60" />
        <path d="M 352.4 50 L 352.4 60" />
        <path d="M 369 50 L 369 60" />
        <path d="M 385.6 50 L 385.6 60" />
        <path d="M 402.2 50 L 402.2 60" />
        <path d="M 418.8 50 L 418.8 60" />
        <path d="M 435.4 50 L 435.4 60" />
        <path d="M 452 50 L 452 70" />
        <path d="M 468.6 50 L 468.6 60" />
        <path d="M 485.2 50 L 485.2 60" />
        <path d="M 501.8 50 L 501.8 60" />
        <path d="M 518.4 50 L 518.4 60" />
        <path d="M 535 50 L 535 60" />
        <path d="M 551.6 50 L 551.6 60" />
        <path d="M 568.2 50 L 568.2 60" />
        <path d="M 584.8 50 L 584.8 60" />
        <path d="M 601.4 50 L 601.4 60" />
        <path d="M 618 50 L 618 70" />
        <path d="M 634.6 50 L 634.6 60" />
        <path d="M 651.2 50 L 651.2 60" />
        <path d="M 667.8 50 L 667.8 60" />
        <path d="M 684.4 50 L 684.4 60" />
        <path d="M 701 50 L 701 60" />
        <path d="M 717.6 50 L 717.6 60" />
        <path d="M 734.2 50 L 734.2 60" />
        <path d="M 750.8 50 L 750.8 60" />
        <path d="M 767.4 50 L 767.4 60" />
        <path d="M 784 50 L 784 70" />
        <path d="M 800.6 50 L 800.6 60" />
        <path d="M 817.2 50 L 817.2 60" />
        <path d="M 833.8 50 L 833.8 60" />
        <path d="M 850.4 50 L 850.4 60" />
        <path d="M 867 50 L 867 60" />
        <path d="M 883.6 50 L 883.6 60" />
        <path d="M 900.2 50 L 900.2 60" />
        <path d="M 916.8 50 L 916.8 60" />
        <path d="M 933.4 50 L 933.4 60" />
        <path d="M 950 50 L 950 70" />
    </g>
    <g id="frame_0_rightticks">
        <path d="M 950 555.179 L 940 555.179" />
        <path d="M 950 372.769 L 940 372.769" />
        <path d="M 950 304.365 L 940 304.365" />
        <path d="M 950 441.172 L 940 441.172" />
        <path d="M 950 144.755 L 940 144.755" />
        <path d="M 950 327.166 L 940 327.166" />
        <path d="M 950 760.391 L 940 760.391" />
        <path d="M 950 805.993 L 930 805.993" />
        <path d="M 950 213.159 L 940 213.159" />
        <path d="M 950 691.987 L 930 691.987" />
        <path d="M 950 920 L 930 920" />
        <path d="M 950 828.795 L 940 828.795" />
        <path d="M 950 418.371 L 940 418.371" />
        <path d="M 950 714.788 L 940 714.788" />
        <path d="M 950 577.98 L 930 577.98" />
        <path d="M 950 99.1528 L 940 99.1528" />
        <path d="M 950 600.782 L 940 600.782" />
        <path d="M 950 258.762 L 940 258.762" />
        <path d="M 950 463.974 L 930 463.974" />
        <path d="M 950 486.775 L 940 486.775" />
        <path d="M 950 167.557 L 940 167.557" />
        <path d="M 950 737.59 L 940 737.59" />
        <path d="M 950 281.563 L 940 281.563" />
        <path d="M 950 349.967 L 930 349.967" />
        <path d="M 950 623.583 L 940 623.583" />
        <path d="M 950 53.5502 L 940 53.5502" />
        <path d="M 950 235.961 L 930 235.961" />
        <path d="M 950 509.576 L 940 509.576" />
        <path d="M 950 851.596 L 940 851.596" />
        <path d="M 950 395.57 L 940 395.57" />
        <path d="M 950 121.954 L 930 121.954" />
        <path d="M 950 646.384 L 940 646.384" />
        <path d="M 950 874.397 L 940 874.397" />
        <path d="M 950 897.199 L 940 897.199" />
        <path d="M 950 190.358 L 940 190.358" />
        <path d="M 950 783.192 L 940 783.192" />
        <path d="M 950 532.378 L 940 532.378" />
        <path d="M 950 669.186 L 940 669.186" />
        <path d="M 950 76.3515 L 940 76.3515" />
    </g>
</g>
</g>
</svg>
