<?xml version="1.0" standalone="no"?>
<!DOCTYPE svg PUBLIC "-//W3C//DTD SVG 1.1//EN" "http://www.w3.org/Graphics/SVG/1.1/DTD/svg11.dtd">
<svg style="stroke-linejoin:miter; stroke:black; stroke-width:2.5; text-anchor:middle; fill:none" xmlns="http://www.w3.org/2000/svg" font-family="Helvetica, Arial, FreeSans, Sans, sans, sans-serif" width="1000px" height="1000px" version="1.1" xmlns:xlink="http://www.w3.org/1999/xlink" viewBox="0 0 1000 1000">
<defs>
    <clipPath id="Histogram_0_clip">
        <rect x="120" y="50" width="830" height="870" />
    </clipPath>
    <clipPath id="Histogram_1_clip">
        <rect x="120" y="50" width="830" height="870" />
    </clipPath>
</defs>
<g id="whole_document">
<rect id="background" x="0" y="0" width="1000" height="1000" stroke="none" fill="white" />
<g id="Histogram_0" clip-path="url(#Histogram_0_clip)">
    <path d="M 120 920 L 120 129.091 L 161.5 129.091 L 161.5 780.64 L 203 780.64 L 203 910.095 L 244.5 910.095 L 244.5 797.727 L 286 797.727 L 286 912.084 L 327.5 912.084 L 327.5 902.682 L 369 902.682 L 369 906.409 L 410.5 906.409 L 410.5 920 L 452 920 L 452 920 L 493.5 920 L 493.5 920 L 535 920 L 535 920 L 576.5 920 L 576.5 919.246 L 618 919.246 L 618 920 L 659.5 920 L 659.5 920 L 701 920 L 701 920 L 742.5 920 L 742.5 920 L 784 920 L 784 920 L 825.5 920 L 825.5 920 L 867 920 L 867 920 L 908.5 920 L 908.5 920 L 950 920 L 950 920" stroke-width="3" stroke-dasharray="" stroke="black" stroke-opacity="1" fill="DodgerBlue" fill-opacity="1" />
</g>
<g id="Histogram_1" clip-path="url(#Histogram_1_clip)">
    <path d="M 120 920 L 120 920 L 161.5 920 L 161.5 920 L 203 920 L 203 920 L 244.5 920 L 244.5 800.24 L 286 800.24 L 286 912.084 L 327.5 912.084 L 327.5 920 L 369 920 L 369 920 L 410.5 920 L 410.5 920 L 452 920 L 452 920 L 493.5 920 L 493.5 920 L 535 920 L 535 920 L 576.5 920 L 576.5 920 L 618 920 L 618 920 L 659.5 920 L 659.5 920 L 701 920 L 701 920 L 742.5 920 L 742.5 920 L 784 920 L 784 920 L 825.5 920 L 825.5 920 L 867 920 L 867 920 L 908.5 920 L 908.5 920 L 950 920 L 950 920" stroke-width="3" stroke-dasharray="" stroke="black" stroke-opacity="1" fill="darkorange" fill-opacity="1" />
</g>
<g id="frame_0">
    <rect id="frame_0_border" x="120" y="50" width="830" height="870" />
    <text id="frame_0_bottomlabel" font-size="30" transform="translate(535, 989.6)" text-anchor="middle" dominant-baseline="middle" stroke="none" fill="black">microseconds</text>
    <g id="frame_0_bottomticks">
        <path d="M 120 920 L 120 900" />
        <text font-size="30" transform="translate(120, 950)" text-anchor="middle" dominant-baseline="middle" stroke="none" fill="black">0</text>
        <path d="M 136.6 920 L 136.6 910" />
        <path d="M 153.2 920 L 153.2 910" />
        <path d="M 169.8 920 L 169.8 910" />
        <path d="M 186.4 920 L 186.4 910" />
        <path d="M 203 920 L 203 910" />
        <path d="M 219.6 920 L 219.6 910" />
        <path d="M 236.2 920 L 236.2 910" />
        <path d="M 252.8 920 L 252.8 910" />
        <path d="M 269.4 920 L 269.4 910" />
        <path d="M 286 920 L 286 900" />
        <text font-size="30" transform="translate(286, 950)" text-anchor="middle" dominant-baseline="middle" stroke="none" fill="black">10</text>
        <path d="M 302.6 920 L 302.6 910" />
        <path d="M 319.2 920 L 319.2 910" />
        <path d="M 335.8 920 L 335.8 910" />
        <path d="M 352.4 920 L 352.4 910" />
        <path d="M 369 920 L 369 910" />
        <path d="M 385.6 920 L 385.6 910" />
        <path d="M 402.2 920 L 402.2 910" />
        <path d="M 418.8 920 L 418.8 910" />
        <path d="M 435.4 920 L 435.4 910" />
        <path d="M 452 920 L 452 900" />
        <text font-size="30" transform="translate(452, 950)" text-anchor="middle" dominant-baseline="middle" stroke="none" fill="black">20</text>
        <path d="M 468.6 920 L 468.6 910" />
        <path d="M 485.2 920 L 485.2 910" />
        <path d="M 501.8 920 L 501.8 910" />
        <path d="M 518.4 920 L 518.4 910" />
        <path d="M 535 920 L 535 910" />
        <path d="M 551.6 920 L 551.6 910" />
        <path d="M 568.2 920 L 568.2 910" />
        <path d="M 584.8 920 L 584.8 910" />
        <path d="M 601.4 920 L 601.4 910" />
        <path d="M 618 920 L 618 900" />
        <text font-size="30" transform="translate(618, 950)" text-anchor="middle" dominant-baseline="middle" stroke="none" fill="black">30</text>
        <path d="M 634.6 920 L 634.6 910" />
        <path d="M 651.2 920 L 651.2 910" />
        <path d="M 667.8 920 L 667.8 910" />
        <path d="M 684.4 920 L 684.4 910" />
        <path d="M 701 920 L 701 910" />
        <path d="M 717.6 920 L 717.6 910" />
        <path d="M 734.2 920 L 734.2 910" />
        <path d="M 750.8 920 L 750.8 910" />
        <path d="M 767.4 920 L 767.4 910" />
        <path d="M 784 920 L 784 900" />
        <text font-size="30" transform="translate(784, 950)" text-anchor="middle" dominant-baseline="middle" stroke="none" fill="black">40</text>
        <path d="M 800.6 920 L 800.6 910" />
        <path d="M 817.2 920 L 817.2 910" />
        <path d="M 833.8 920 L 833.8 910" />
        <path d="M 850.4 920 L 850.4 910" />
        <path d="M 867 920 L 867 910" />
        <path d="M 883.6 920 L 883.6 910" />
        <path d="M 900.2 920 L 900.2 910" />
        <path d="M 916.8 920 L 916.8 910" />
        <path d="M 933.4 920 L 933.4 910" />
        <path d="M 950 920 L 950 900" />
        <text font-size="30" transform="translate(950, 950)" text-anchor="middle" dominant-baseline="middle" stroke="none" fill="black">50</text>
    </g>
    <g id="frame_0_leftticks">
        <path d="M 120 584.949 L 130 584.949" />
        <path d="M 120 417.423 L 130 417.423" />
        <path d="M 120 354.601 L 130 354.601" />
        <path d="M 120 480.245 L 130 480.245" />
        <path d="M 120 208.016 L 130 208.016" />
        <path d="M 120 375.542 L 130 375.542" />
        <path d="M 120 773.415 L 130 773.415" />
        <path d="M 120 815.297 L 140 815.297" />
        <text font-size="30" transform="translate(110, 825.297)" text-anchor="end" dominant-baseline="middle" stroke="none" fill="black">5000</text>
        <path d="M 120 270.838 L 130 270.838" />
        <path d="M 120 920 L 140 920" />
        <text font-size="30" transform="translate(110, 930)" text-anchor="end" dominant-baseline="middle" stroke="none" fill="black">0</text>
        <path d="M 120 710.593 L 140 710.593" />
        <text font-size="30" transform="translate(110, 720.593)" text-anchor="end" dominant-baseline="middle" stroke="none" fill="black">10000</text>
        <path d="M 120 103.313 L 130 103.313" />
        <path d="M 120 836.237 L 130 836.237" />
        <path d="M 120 459.305 L 130 459.305" />
        <path d="M 120 501.186 L 140 501.186" />
        <text font-size="30" transform="translate(110, 511.186)" text-anchor="end" dominant-baseline="middle" stroke="none" fill="black">20000</text>
        <path d="M 120 731.534 L 130 731.534" />
        <path d="M 120 605.89 L 140 605.89" />
        <text font-size="30" transform="translate(110, 615.89)" text-anchor="end" dominant-baseline="middle" stroke="none" fill="black">15000</text>
        <path d="M 120 166.135 L 130 166.135" />
        <path d="M 120 626.83 L 130 626.83" />
        <path d="M 120 312.72 L 130 312.72" />
        <path d="M 120 61.4315 L 130 61.4315" />
        <path d="M 120 522.127 L 130 522.127" />
        <path d="M 120 228.957 L 130 228.957" />
        <path d="M 120 752.474 L 130 752.474" />
        <path d="M 120 333.661 L 130 333.661" />
        <path d="M 120 396.483 L 140 396.483" />
        <text font-size="30" transform="translate(110, 406.483)" text-anchor="end" dominant-baseline="middle" stroke="none" fill="black">25000</text>
        <path d="M 120 647.771 L 130 647.771" />
        <path d="M 120 124.254 L 130 124.254" />
        <path d="M 120 291.779 L 140 291.779" />
        <text font-size="30" transform="translate(110, 301.779)" text-anchor="end" dominant-baseline="middle" stroke="none" fill="black">30000</text>
        <path d="M 120 543.067 L 130 543.067" />
        <path d="M 120 857.178 L 130 857.178" />
        <path d="M 120 438.364 L 130 438.364" />
        <path d="M 120 187.076 L 140 187.076" />
        <text font-size="30" transform="translate(110, 197.076)" text-anchor="end" dominant-baseline="middle" stroke="none" fill="black">35000</text>
        <path d="M 120 668.712 L 130 668.712" />
        <path d="M 120 878.119 L 130 878.119" />
        <path d="M 120 899.059 L 130 899.059" />
        <path d="M 120 249.898 L 130 249.898" />
        <path d="M 120 794.356 L 130 794.356" />
        <path d="M 120 564.008 L 130 564.008" />
        <path d="M 120 82.3722 L 140 82.3722" />
        <text font-size="30" transform="translate(110, 92.3722)" text-anchor="end" dominant-baseline="middle" stroke="none" fill="black">40000</text>
        <path d="M 120 689.652 L 130 689.652" />
        <path d="M 120 145.194 L 130 145.194" />
    </g>
    <text id="frame_0_toplabel" font-size="30" transform="translate(535, 32.6)" text-anchor="middle" dominant-baseline="middle" stroke="none" fill="black">a.max</text>
    <g id="frame_0_topticks">
        <path d="M 120 50 L 120 70" />
        <path d="M 136.6 50 L 136.6 60" />
        <path d="M 153.2 50 L 153.2 60" />
        <path d="M 169.8 50 L 169.8 60" />
        <path d="M 186.4 50 L 186.4 60" />
        <path d="M 203 50 L 203 60" />
        <path d="M 219.6 50 L 219.6 60" />
        <path d="M 236.2 50 L 236.2 60" />
        <path d="M 252.8 50 L 252.8 60" />
        <path d="M 269.4 50 L 269.4 60" />
        <path d="M 286 50 L 286 70" />
        <path d="M 302.6 50 L 302.6 60" />
        <path d="M 319.2 50 L 319.2 60" />
        <path d="M 335.8 50 L 335.8 60" />
        <path d="M 352.4 50 L 352.4 60" />
        <path d="M 369 50 L 369 60" />
        <path d="M 385.6 50 L 385.6 60" />
        <path d="M 402.2 50 L 402.2 60" />
        <path d="M 418.8 50 L 418.8 60" />
        <path d="M 435.4 50 L 435.4 60" />
        <path d="M 452 50 L 452 70" />
        <path d="M 468.6 50 L 468.6 60" />
        <path d="M 485.2 50 L 485.2 60" />
        <path d="M 501.8 50 L 501.8 60" />
        <path d="M 518.4 50 L 518.4 60" />
        <path d="M 535 50 L 535 60" />
        <path d="M 551.6 50 L 551.6 60" />
        <path d="M 568.2 50 L 568.2 60" />
        <path d="M 584.8 50 L 584.8 60" />
        <path d="M 601.4 50 L 601.4 60" />
        <path d="M 618 50 L 618 70" />
        <path d="M 634.6 50 L 634.6 60" />
        <path d="M 651.2 50 L 651.2 60" />
        <path d="M 667.8 50 L 667.8 60" />
        <path d="M 684.4 50 L 684.4 60" />
        <path d="M 701 50 L 701 60" />
        <path d="M 717.6 50 L 717.6 60" />
        <path d="M 734.2 50 L 734.2 60" />
        <path d="M 750.8 50 L 750.8 60" />
        <path d="M 767.4 50 L 767.4 60" />
        <path d="M 784 50 L 784 70" />
        <path d="M 800.6 50 L 800.6 60" />
        <path d="M 817.2 50 L 817.2 60" />
        <path d="M 833.8 50 L 833.8 60" />
        <path d="M 850.4 50 L 850.4 60" />
        <path d="M 867 50 L 867 60" />
        <path d="M 883.6 50 L 883.6 60" />
        <path d="M 900.2 50 L 900.2 60" />
        <path d="M 916.8 50 L 916.8 60" />
        <path d="M 933.4 50 L 933.4 60" />
        <path d="M 950 50 L 950 70" />
    </g>
    <g id="frame_0_rightticks">
        <path d="M 950 584.949 L 940 584.949" />
        <path d="M 950 417.423 L 940 417.423" />
        <path d="M 950 354.601 L 940 354.601" />
        <path d="M 950 480.245 L 940 480.245" />
        <path d="M 950 208.016 L 940 208.016" />
        <path d="M 950 375.542 L 940 375.542" />
        <path d="M 950 773.415 L 940 773.415" />
        <path d="M 950 815.297 L 930 815.297" />
        <path d="M 950 270.838 L 940 270.838" />
        <path d="M 950 920 L 930 920" />
        <path d="M 950 710.593 L 930 710.593" />
        <path d="M 950 103.313 L 940 103.313" />
        <path d="M 950 836.237 L 940 836.237" />
        <path d="M 950 459.305 L 940 459.305" />
        <path d="M 950 501.186 L 930 501.186" />
        <path d="M 950 731.534 L 940 731.534" />
        <path d="M 950 605.89 L 930 605.89" />
        <path d="M 950 166.135 L 940 166.135" />
        <path d="M 950 626.83 L 940 626.83" />
        <path d="M 950 312.72 L 940 312.72" />
        <path d="M 950 61.4315 L 940 61.4315" />
        <path d="M 950 522.127 L 940 522.127" />
        <path d="M 950 228.957 L 940 228.957" />
        <path d="M 950 752.474 L 940 752.474" />
        <path d="M 950 333.661 L 940 333.661" />
        <path d="M 950 396.483 L 930 396.483" />
        <path d="M 950 647.771 L 940 647.771" />
        <path d="M 950 124.254 L 940 124.254" />
        <path d="M 950 291.779 L 930 291.779" />
        <path d="M 950 543.067 L 940 543.067" />
        <path d="M 950 857.178 L 940 857.178" />
        <path d="M 950 438.364 L 940 438.364" />
        <path d="M 950 187.076 L 930 187.076" />
        <path d="M 950 668.712 L 940 668.712" />
        <path d="M 950 878.119 L 940 878.119" />
        <path d="M 950 899.059 L 940 899.059" />
        <path d="M 950 249.898 L 940 249.898" />
        <path d="M 950 794.356 L 940 794.356" />
        <path d="M 950 564.008 L 940 564.008" />
        <path d="M 950 82.3722 L 930 82.3722" />
        <path d="M 950 689.652 L 940 689.652" />
        <path d="M 950 145.194 L 940 145.194" />
    </g>
</g>
</g>
</svg>
