<?xml version="1.0" standalone="no"?>
<!DOCTYPE svg PUBLIC "-//W3C//DTD SVG 1.1//EN" "http://www.w3.org/Graphics/SVG/1.1/DTD/svg11.dtd">
<svg style="stroke-linejoin:miter; stroke:black; stroke-width:2.5; text-anchor:middle; fill:none" xmlns="http://www.w3.org/2000/svg" font-family="Helvetica, Arial, FreeSans, Sans, sans, sans-serif" width="1000px" height="1000px" version="1.1" xmlns:xlink="http://www.w3.org/1999/xlink" viewBox="0 0 1000 1000">
<defs>
    <clipPath id="Histogram_0_clip">
        <rect x="120" y="50" width="830" height="870" />
    </clipPath>
    <clipPath id="Histogram_1_clip">
        <rect x="120" y="50" width="830" height="870" />
    </clipPath>
</defs>
<g id="whole_document">
<rect id="background" x="0" y="0" width="1000" height="1000" stroke="none" fill="white" />
<g id="Histogram_0" clip-path="url(#Histogram_0_clip)">
    <path d="M 120 920 L 120 920 L 161.5 920 L 161.5 129.091 L 203 129.091 L 203 722.536 L 244.5 722.536 L 244.5 857.634 L 286 857.634 L 286 876.607 L 327.5 876.607 L 327.5 906.121 L 369 906.121 L 369 920 L 410.5 920 L 410.5 920 L 452 920 L 452 920 L 493.5 920 L 493.5 920 L 535 920 L 535 920 L 576.5 920 L 576.5 920 L 618 920 L 618 920 L 659.5 920 L 659.5 920 L 701 920 L 701 920 L 742.5 920 L 742.5 920 L 784 920 L 784 920 L 825.5 920 L 825.5 920 L 867 920 L 867 920 L 908.5 920 L 908.5 920 L 950 920 L 950 920" stroke-width="3" stroke-dasharray="" stroke="black" stroke-opacity="1" fill="DodgerBlue" fill-opacity="1" />
</g>
<g id="Histogram_1" clip-path="url(#Histogram_1_clip)">
    <path d="M 120 920 L 120 920 L 161.5 920 L 161.5 920 L 203 920 L 203 920 L 244.5 920 L 244.5 920 L 286 920 L 286 905.243 L 327.5 905.243 L 327.5 906.121 L 369 906.121 L 369 920 L 410.5 920 L 410.5 920 L 452 920 L 452 920 L 493.5 920 L 493.5 920 L 535 920 L 535 920 L 576.5 920 L 576.5 920 L 618 920 L 618 920 L 659.5 920 L 659.5 920 L 701 920 L 701 920 L 742.5 920 L 742.5 920 L 784 920 L 784 920 L 825.5 920 L 825.5 920 L 867 920 L 867 920 L 908.5 920 L 908.5 920 L 950 920 L 950 920" stroke-width="3" stroke-dasharray="" stroke="black" stroke-opacity="1" fill="darkorange" fill-opacity="1" />
</g>
<g id="frame_0">
    <rect id="frame_0_border" x="120" y="50" width="830" height="870" />
    <text id="frame_0_bottomlabel" font-size="30" transform="translate(535, 989.6)" text-anchor="middle" dominant-baseline="middle" stroke="none" fill="black">microseconds</text>
    <g id="frame_0_bottomticks">
        <path d="M 120 920 L 120 900" />
        <text font-size="30" transform="translate(120, 950)" text-anchor="middle" dominant-baseline="middle" stroke="none" fill="black">0</text>
        <path d="M 136.6 920 L 136.6 910" />
        <path d="M 153.2 920 L 153.2 910" />
        <path d="M 169.8 920 L 169.8 910" />
        <path d="M 186.4 920 L 186.4 910" />
        <path d="M 203 920 L 203 910" />
        <path d="M 219.6 920 L 219.6 910" />
        <path d="M 236.2 920 L 236.2 910" />
        <path d="M 252.8 920 L 252.8 910" />
        <path d="M 269.4 920 L 269.4 910" />
        <path d="M 286 920 L 286 900" />
        <text font-size="30" transform="translate(286, 950)" text-anchor="middle" dominant-baseline="middle" stroke="none" fill="black">10</text>
        <path d="M 302.6 920 L 302.6 910" />
        <path d="M 319.2 920 L 319.2 910" />
        <path d="M 335.8 920 L 335.8 910" />
        <path d="M 352.4 920 L 352.4 910" />
        <path d="M 369 920 L 369 910" />
        <path d="M 385.6 920 L 385.6 910" />
        <path d="M 402.2 920 L 402.2 910" />
        <path d="M 418.8 920 L 418.8 910" />
        <path d="M 435.4 920 L 435.4 910" />
        <path d="M 452 920 L 452 900" />
        <text font-size="30" transform="translate(452, 950)" text-anchor="middle" dominant-baseline="middle" stroke="none" fill="black">20</text>
        <path d="M 468.6 920 L 468.6 910" />
        <path d="M 485.2 920 L 485.2 910" />
        <path d="M 501.8 920 L 501.8 910" />
        <path d="M 518.4 920 L 518.4 910" />
        <path d="M 535 920 L 535 910" />
        <path d="M 551.6 920 L 551.6 910" />
        <path d="M 568.2 920 L 568.2 910" />
        <path d="M 584.8 920 L 584.8 910" />
        <path d="M 601.4 920 L 601.4 910" />
        <path d="M 618 920 L 618 900" />
        <text font-size="30" transform="translate(618, 950)" text-anchor="middle" dominant-baseline="middle" stroke="none" fill="black">30</text>
        <path d="M 634.6 920 L 634.6 910" />
        <path d="M 651.2 920 L 651.2 910" />
        <path d="M 667.8 920 L 667.8 910" />
        <path d="M 684.4 920 L 684.4 910" />
        <path d="M 701 920 L 701 910" />
        <path d="M 717.6 920 L 717.6 910" />
        <path d="M 734.2 920 L 734.2 910" />
        <path d="M 750.8 920 L 750.8 910" />
        <path d="M 767.4 920 L 767.4 910" />
        <path d="M 784 920 L 784 900" />
        <text font-size="30" transform="translate(784, 950)" text-anchor="middle" dominant-baseline="middle" stroke="none" fill="black">40</text>
        <path d="M 800.6 920 L 800.6 910" />
        <path d="M 817.2 920 L 817.2 910" />
        <path d="M 833.8 920 L 833.8 910" />
        <path d="M 850.4 920 L 850.4 910" />
        <path d="M 867 920 L 867 910" />
        <path d="M 883.6 920 L 883.6 910" />
        <path d="M 900.2 920 L 900.2 910" />
        <path d="M 916.8 920 L 916.8 910" />
        <path d="M 933.4 920 L 933.4 910" />
        <path d="M 950 920 L 950 900" />
        <text font-size="30" transform="translate(950, 950)" text-anchor="middle" dominant-baseline="middle" stroke="none" fill="black">50</text>
    </g>
    <g id="frame_0_leftticks">
        <path d="M 120 357.826 L 130 357.826" />
        <path d="M 120 76.7384 L 130 76.7384" />
        <path d="M 120 761.888 L 130 761.888" />
        <path d="M 120 920 L 140 920" />
        <text font-size="30" transform="translate(110, 930)" text-anchor="end" dominant-baseline="middle" stroke="none" fill="black">0</text>
        <path d="M 120 603.777 L 130 603.777" />
        <path d="M 120 305.122 L 130 305.122" />
        <path d="M 120 445.665 L 130 445.665" />
        <path d="M 120 849.728 L 130 849.728" />
        <path d="M 120 252.418 L 130 252.418" />
        <path d="M 120 691.617 L 130 691.617" />
        <path d="M 120 533.505 L 130 533.505" />
        <path d="M 120 199.714 L 130 199.714" />
        <path d="M 120 375.394 L 130 375.394" />
        <path d="M 120 779.456 L 130 779.456" />
        <path d="M 120 147.01 L 130 147.01" />
        <path d="M 120 621.345 L 130 621.345" />
        <path d="M 120 463.233 L 130 463.233" />
        <path d="M 120 94.3064 L 130 94.3064" />
        <path d="M 120 867.296 L 130 867.296" />
        <path d="M 120 709.185 L 130 709.185" />
        <path d="M 120 322.69 L 130 322.69" />
        <path d="M 120 551.073 L 130 551.073" />
        <path d="M 120 392.962 L 140 392.962" />
        <text font-size="30" transform="translate(110, 402.962)" text-anchor="end" dominant-baseline="middle" stroke="none" fill="black">3000</text>
        <path d="M 120 269.986 L 130 269.986" />
        <path d="M 120 797.024 L 130 797.024" />
        <path d="M 120 638.913 L 130 638.913" />
        <path d="M 120 217.282 L 140 217.282" />
        <text font-size="30" transform="translate(110, 227.282)" text-anchor="end" dominant-baseline="middle" stroke="none" fill="black">4000</text>
        <path d="M 120 480.801 L 130 480.801" />
        <path d="M 120 884.864 L 130 884.864" />
        <path d="M 120 164.578 L 130 164.578" />
        <path d="M 120 726.753 L 130 726.753" />
        <path d="M 120 568.641 L 140 568.641" />
        <text font-size="30" transform="translate(110, 578.641)" text-anchor="end" dominant-baseline="middle" stroke="none" fill="black">2000</text>
        <path d="M 120 111.874 L 130 111.874" />
        <path d="M 120 410.529 L 130 410.529" />
        <path d="M 120 59.1705 L 130 59.1705" />
        <path d="M 120 814.592 L 130 814.592" />
        <path d="M 120 340.258 L 130 340.258" />
        <path d="M 120 656.481 L 130 656.481" />
        <path d="M 120 498.369 L 130 498.369" />
        <path d="M 120 287.554 L 130 287.554" />
        <path d="M 120 902.432 L 130 902.432" />
        <path d="M 120 182.146 L 130 182.146" />
        <path d="M 120 234.85 L 130 234.85" />
        <path d="M 120 586.209 L 130 586.209" />
        <path d="M 120 428.097 L 130 428.097" />
        <path d="M 120 744.321 L 140 744.321" />
        <text font-size="30" transform="translate(110, 754.321)" text-anchor="end" dominant-baseline="middle" stroke="none" fill="black">1000</text>
        <path d="M 120 832.16 L 130 832.16" />
        <path d="M 120 674.049 L 130 674.049" />
        <path d="M 120 129.442 L 130 129.442" />
        <path d="M 120 515.937 L 130 515.937" />
    </g>
    <text id="frame_0_toplabel" font-size="30" transform="translate(535, 32.6)" text-anchor="middle" dominant-baseline="middle" stroke="none" fill="black">re.findgroupsfirst</text>
    <g id="frame_0_topticks">
        <path d="M 120 50 L 120 70" />
        <path d="M 136.6 50 L 136.6 60" />
        <path d="M 153.2 50 L 153.2 60" />
        <path d="M 169.8 50 L 169.8 60" />
        <path d="M 186.4 50 L 186.4 60" />
        <path d="M 203 50 L 203 60" />
        <path d="M 219.6 50 L 219.6 60" />
        <path d="M 236.2 50 L 236.2 60" />
        <path d="M 252.8 50 L 252.8 60" />
        <path d="M 269.4 50 L 269.4 60" />
        <path d="M 286 50 L 286 70" />
        <path d="M 302.6 50 L 302.6 60" />
        <path d="M 319.2 50 L 319.2 60" />
        <path d="M 335.8 50 L 335.8 60" />
        <path d="M 352.4 50 L 352.4 60" />
        <path d="M 369 50 L 369 60" />
        <path d="M 385.6 50 L 385.6 60" />
        <path d="M 402.2 50 L 402.2 60" />
        <path d="M 418.8 50 L 418.8 60" />
        <path d="M 435.4 50 L 435.4 60" />
        <path d="M 452 50 L 452 70" />
        <path d="M 468.6 50 L 468.6 60" />
        <path d="M 485.2 50 L 485.2 60" />
        <path d="M 501.8 50 L 501.8 60" />
        <path d="M 518.4 50 L 518.4 60" />
        <path d="M 535 50 L 535 60" />
        <path d="M 551.6 50 L 551.6 60" />
        <path d="M 568.2 50 L 568.2 60" />
        <path d="M 584.8 50 L 584.8 60" />
        <path d="M 601.4 50 L 601.4 60" />
        <path d="M 618 50 L 618 70" />
        <path d="M 634.6 50 L 634.6 60" />
        <path d="M 651.2 50 L 651.2 60" />
        <path d="M 667.8 50 L 667.8 60" />
        <path d="M 684.4 50 L 684.4 60" />
        <path d="M 701 50 L 701 60" />
        <path d="M 717.6 50 L 717.6 60" />
        <path d="M 734.2 50 L 734.2 60" />
        <path d="M 750.8 50 L 750.8 60" />
        <path d="M 767.4 50 L 767.4 60" />
        <path d="M 784 50 L 784 70" />
        <path d="M 800.6 50 L 800.6 60" />
        <path d="M 817.2 50 L 817.2 60" />
        <path d="M 833.8 50 L 833.8 60" />
        <path d="M 850.4 50 L 850.4 60" />
        <path d="M 867 50 L 867 60" />
        <path d="M 883.6 50 L 883.6 60" />
        <path d="M 900.2 50 L 900.2 60" />
        <path d="M 916.8 50 L 916.8 60" />
        <path d="M 933.4 50 L 933.4 60" />
        <path d="M 950 50 L 950 70" />
    </g>
    <g id="frame_0_rightticks">
        <path d="M 950 357.826 L 940 357.826" />
        <path d="M 950 76.7384 L 940 76.7384" />
        <path d="M 950 761.888 L 940 761.888" />
        <path d="M 950 920 L 930 920" />
        <path d="M 950 603.777 L 940 603.777" />
        <path d="M 950 305.122 L 940 305.122" />
        <path d="M 950 445.665 L 940 445.665" />
        <path d="M 950 849.728 L 940 849.728" />
        <path d="M 950 252.418 L 940 252.418" />
        <path d="M 950 691.617 L 940 691.617" />
        <path d="M 950 533.505 L 940 533.505" />
        <path d="M 950 199.714 L 940 199.714" />
        <path d="M 950 375.394 L 940 375.394" />
        <path d="M 950 779.456 L 940 779.456" />
        <path d="M 950 147.01 L 940 147.01" />
        <path d="M 950 621.345 L 940 621.345" />
        <path d="M 950 463.233 L 940 463.233" />
        <path d="M 950 94.3064 L 940 94.3064" />
        <path d="M 950 867.296 L 940 867.296" />
        <path d="M 950 709.185 L 940 709.185" />
        <path d="M 950 322.69 L 940 322.69" />
        <path d="M 950 551.073 L 940 551.073" />
        <path d="M 950 392.962 L 930 392.962" />
        <path d="M 950 269.986 L 940 269.986" />
        <path d="M 950 797.024 L 940 797.024" />
        <path d="M 950 638.913 L 940 638.913" />
        <path d="M 950 217.282 L 930 217.282" />
        <path d="M 950 480.801 L 940 480.801" />
        <path d="M 950 884.864 L 940 884.864" />
        <path d="M 950 164.578 L 940 164.578" />
        <path d="M 950 726.753 L 940 726.753" />
        <path d="M 950 568.641 L 930 568.641" />
        <path d="M 950 111.874 L 940 111.874" />
        <path d="M 950 410.529 L 940 410.529" />
        <path d="M 950 59.1705 L 940 59.1705" />
        <path d="M 950 814.592 L 940 814.592" />
        <path d="M 950 340.258 L 940 340.258" />
        <path d="M 950 656.481 L 940 656.481" />
        <path d="M 950 498.369 L 940 498.369" />
        <path d="M 950 287.554 L 940 287.554" />
        <path d="M 950 902.432 L 940 902.432" />
        <path d="M 950 182.146 L 940 182.146" />
        <path d="M 950 234.85 L 940 234.85" />
        <path d="M 950 586.209 L 940 586.209" />
        <path d="M 950 428.097 L 940 428.097" />
        <path d="M 950 744.321 L 930 744.321" />
        <path d="M 950 832.16 L 940 832.16" />
        <path d="M 950 674.049 L 940 674.049" />
        <path d="M 950 129.442 L 940 129.442" />
        <path d="M 950 515.937 L 940 515.937" />
    </g>
</g>
</g>
</svg>
