<?xml version="1.0" standalone="no"?>
<!DOCTYPE svg PUBLIC "-//W3C//DTD SVG 1.1//EN" "http://www.w3.org/Graphics/SVG/1.1/DTD/svg11.dtd">
<svg style="stroke-linejoin:miter; stroke:black; stroke-width:2.5; text-anchor:middle; fill:none" xmlns="http://www.w3.org/2000/svg" font-family="Helvetica, Arial, FreeSans, Sans, sans, sans-serif" width="1000px" height="1000px" version="1.1" xmlns:xlink="http://www.w3.org/1999/xlink" viewBox="0 0 1000 1000">
<defs>
    <clipPath id="Histogram_0_clip">
        <rect x="120" y="50" width="830" height="870" />
    </clipPath>
</defs>
<g id="whole_document">
<rect id="background" x="0" y="0" width="1000" height="1000" stroke="none" fill="white" />
<g id="Histogram_0" clip-path="url(#Histogram_0_clip)">
    <path d="M 120 920 L 120 129.091 L 161.5 129.091 L 161.5 859.756 L 203 859.756 L 203 918.562 L 244.5 918.562 L 244.5 918.776 L 286 918.776 L 286 919.194 L 327.5 919.194 L 327.5 920 L 369 920 L 369 920 L 410.5 920 L 410.5 920 L 452 920 L 452 920 L 493.5 920 L 493.5 920 L 535 920 L 535 920 L 576.5 920 L 576.5 920 L 618 920 L 618 920 L 659.5 920 L 659.5 920 L 701 920 L 701 920 L 742.5 920 L 742.5 920 L 784 920 L 784 920 L 825.5 920 L 825.5 920 L 867 920 L 867 920 L 908.5 920 L 908.5 920 L 950 920 L 950 920" stroke-width="3" stroke-dasharray="" stroke="black" stroke-opacity="1" fill="DodgerBlue" fill-opacity="1" />
</g>
<g id="frame_0">
    <rect id="frame_0_border" x="120" y="50" width="830" height="870" />
    <text id="frame_0_bottomlabel" font-size="30" transform="translate(535, 989.6)" text-anchor="middle" dominant-baseline="middle" stroke="none" fill="black">microseconds</text>
    <g id="frame_0_bottomticks">
        <path d="M 120 920 L 120 900" />
        <text font-size="30" transform="translate(120, 950)" text-anchor="middle" dominant-baseline="middle" stroke="none" fill="black">0</text>
        <path d="M 136.6 920 L 136.6 910" />
        <path d="M 153.2 920 L 153.2 910" />
        <path d="M 169.8 920 L 169.8 910" />
        <path d="M 186.4 920 L 186.4 910" />
        <path d="M 203 920 L 203 910" />
        <path d="M 219.6 920 L 219.6 910" />
        <path d="M 236.2 920 L 236.2 910" />
        <path d="M 252.8 920 L 252.8 910" />
        <path d="M 269.4 920 L 269.4 910" />
        <path d="M 286 920 L 286 900" />
        <text font-size="30" transform="translate(286, 950)" text-anchor="middle" dominant-baseline="middle" stroke="none" fill="black">10</text>
        <path d="M 302.6 920 L 302.6 910" />
        <path d="M 319.2 920 L 319.2 910" />
        <path d="M 335.8 920 L 335.8 910" />
        <path d="M 352.4 920 L 352.4 910" />
        <path d="M 369 920 L 369 910" />
        <path d="M 385.6 920 L 385.6 910" />
        <path d="M 402.2 920 L 402.2 910" />
        <path d="M 418.8 920 L 418.8 910" />
        <path d="M 435.4 920 L 435.4 910" />
        <path d="M 452 920 L 452 900" />
        <text font-size="30" transform="translate(452, 950)" text-anchor="middle" dominant-baseline="middle" stroke="none" fill="black">20</text>
        <path d="M 468.6 920 L 468.6 910" />
        <path d="M 485.2 920 L 485.2 910" />
        <path d="M 501.8 920 L 501.8 910" />
        <path d="M 518.4 920 L 518.4 910" />
        <path d="M 535 920 L 535 910" />
        <path d="M 551.6 920 L 551.6 910" />
        <path d="M 568.2 920 L 568.2 910" />
        <path d="M 584.8 920 L 584.8 910" />
        <path d="M 601.4 920 L 601.4 910" />
        <path d="M 618 920 L 618 900" />
        <text font-size="30" transform="translate(618, 950)" text-anchor="middle" dominant-baseline="middle" stroke="none" fill="black">30</text>
        <path d="M 634.6 920 L 634.6 910" />
        <path d="M 651.2 920 L 651.2 910" />
        <path d="M 667.8 920 L 667.8 910" />
        <path d="M 684.4 920 L 684.4 910" />
        <path d="M 701 920 L 701 910" />
        <path d="M 717.6 920 L 717.6 910" />
        <path d="M 734.2 920 L 734.2 910" />
        <path d="M 750.8 920 L 750.8 910" />
        <path d="M 767.4 920 L 767.4 910" />
        <path d="M 784 920 L 784 900" />
        <text font-size="30" transform="translate(784, 950)" text-anchor="middle" dominant-baseline="middle" stroke="none" fill="black">40</text>
        <path d="M 800.6 920 L 800.6 910" />
        <path d="M 817.2 920 L 817.2 910" />
        <path d="M 833.8 920 L 833.8 910" />
        <path d="M 850.4 920 L 850.4 910" />
        <path d="M 867 920 L 867 910" />
        <path d="M 883.6 920 L 883.6 910" />
        <path d="M 900.2 920 L 900.2 910" />
        <path d="M 916.8 920 L 916.8 910" />
        <path d="M 933.4 920 L 933.4 910" />
        <path d="M 950 920 L 950 900" />
        <text font-size="30" transform="translate(950, 950)" text-anchor="middle" dominant-baseline="middle" stroke="none" fill="black">50</text>
    </g>
    <g id="frame_0_leftticks">
        <path d="M 120 230.336 L 130 230.336" />
        <path d="M 120 298.331 L 130 298.331" />
        <path d="M 120 920 L 140 920" />
        <text font-size="30" transform="translate(110, 930)" text-anchor="end" dominant-baseline="middle" stroke="none" fill="black">0</text>
        <path d="M 120 104.059 L 130 104.059" />
        <path d="M 120 94.3454 L 130 94.3454" />
        <path d="M 120 745.156 L 130 745.156" />
        <path d="M 120 793.723 L 130 793.723" />
        <path d="M 120 512.03 L 130 512.03" />
        <path d="M 120 541.17 L 130 541.17" />
        <path d="M 120 308.044 L 130 308.044" />
        <path d="M 120 822.864 L 140 822.864" />
        <text font-size="30" transform="translate(110, 832.864)" text-anchor="end" dominant-baseline="middle" stroke="none" fill="black">10000</text>
        <path d="M 120 414.894 L 130 414.894" />
        <path d="M 120 784.01 L 130 784.01" />
        <path d="M 120 696.588 L 130 696.588" />
        <path d="M 120 288.617 L 130 288.617" />
        <path d="M 120 832.578 L 130 832.578" />
        <path d="M 120 570.311 L 130 570.311" />
        <path d="M 120 317.758 L 130 317.758" />
        <path d="M 120 716.015 L 130 716.015" />
        <path d="M 120 725.728 L 140 725.728" />
        <text font-size="30" transform="translate(110, 735.728)" text-anchor="end" dominant-baseline="middle" stroke="none" fill="black">20000</text>
        <path d="M 120 735.442 L 130 735.442" />
        <path d="M 120 191.481 L 130 191.481" />
        <path d="M 120 842.291 L 130 842.291" />
        <path d="M 120 492.602 L 130 492.602" />
        <path d="M 120 473.175 L 130 473.175" />
        <path d="M 120 638.306 L 130 638.306" />
        <path d="M 120 754.869 L 130 754.869" />
        <path d="M 120 628.593 L 140 628.593" />
        <text font-size="30" transform="translate(110, 638.593)" text-anchor="end" dominant-baseline="middle" stroke="none" fill="black">30000</text>
        <path d="M 120 220.622 L 130 220.622" />
        <path d="M 120 424.607 L 130 424.607" />
        <path d="M 120 910.286 L 130 910.286" />
        <path d="M 120 852.005 L 130 852.005" />
        <path d="M 120 123.486 L 130 123.486" />
        <path d="M 120 376.039 L 130 376.039" />
        <path d="M 120 648.02 L 130 648.02" />
        <path d="M 120 356.612 L 130 356.612" />
        <path d="M 120 133.2 L 130 133.2" />
        <path d="M 120 861.719 L 130 861.719" />
        <path d="M 120 813.151 L 130 813.151" />
        <path d="M 120 405.18 L 130 405.18" />
        <path d="M 120 550.884 L 130 550.884" />
        <path d="M 120 444.034 L 130 444.034" />
        <path d="M 120 385.753 L 130 385.753" />
        <path d="M 120 434.321 L 140 434.321" />
        <text font-size="30" transform="translate(110, 444.321)" text-anchor="end" dominant-baseline="middle" stroke="none" fill="black">50000</text>
        <path d="M 120 657.733 L 130 657.733" />
        <path d="M 120 152.627 L 130 152.627" />
        <path d="M 120 764.583 L 130 764.583" />
        <path d="M 120 65.2047 L 130 65.2047" />
        <path d="M 120 560.597 L 130 560.597" />
        <path d="M 120 249.763 L 130 249.763" />
        <path d="M 120 667.447 L 130 667.447" />
        <path d="M 120 774.296 L 130 774.296" />
        <path d="M 120 871.432 L 130 871.432" />
        <path d="M 120 463.462 L 130 463.462" />
        <path d="M 120 337.185 L 140 337.185" />
        <text font-size="30" transform="translate(110, 347.185)" text-anchor="end" dominant-baseline="middle" stroke="none" fill="black">60000</text>
        <path d="M 120 618.879 L 130 618.879" />
        <path d="M 120 210.908 L 130 210.908" />
        <path d="M 120 259.476 L 130 259.476" />
        <path d="M 120 84.6318 L 130 84.6318" />
        <path d="M 120 900.573 L 130 900.573" />
        <path d="M 120 366.326 L 130 366.326" />
        <path d="M 120 162.341 L 130 162.341" />
        <path d="M 120 327.471 L 130 327.471" />
        <path d="M 120 521.743 L 130 521.743" />
        <path d="M 120 269.19 L 130 269.19" />
        <path d="M 120 240.049 L 140 240.049" />
        <text font-size="30" transform="translate(110, 250.049)" text-anchor="end" dominant-baseline="middle" stroke="none" fill="black">70000</text>
        <path d="M 120 803.437 L 130 803.437" />
        <path d="M 120 686.874 L 130 686.874" />
        <path d="M 120 881.146 L 130 881.146" />
        <path d="M 120 677.16 L 130 677.16" />
        <path d="M 120 172.054 L 130 172.054" />
        <path d="M 120 142.913 L 140 142.913" />
        <text font-size="30" transform="translate(110, 152.913)" text-anchor="end" dominant-baseline="middle" stroke="none" fill="black">80000</text>
        <path d="M 120 278.904 L 130 278.904" />
        <path d="M 120 346.899 L 130 346.899" />
        <path d="M 120 74.9183 L 130 74.9183" />
        <path d="M 120 580.025 L 130 580.025" />
        <path d="M 120 181.768 L 130 181.768" />
        <path d="M 120 589.738 L 130 589.738" />
        <path d="M 120 453.748 L 130 453.748" />
        <path d="M 120 113.773 L 130 113.773" />
        <path d="M 120 395.467 L 130 395.467" />
        <path d="M 120 599.452 L 130 599.452" />
        <path d="M 120 609.165 L 130 609.165" />
        <path d="M 120 201.195 L 130 201.195" />
        <path d="M 120 706.301 L 130 706.301" />
        <path d="M 120 55.4911 L 130 55.4911" />
        <path d="M 120 531.457 L 140 531.457" />
        <text font-size="30" transform="translate(110, 541.457)" text-anchor="end" dominant-baseline="middle" stroke="none" fill="black">40000</text>
        <path d="M 120 890.859 L 130 890.859" />
        <path d="M 120 482.889 L 130 482.889" />
        <path d="M 120 502.316 L 130 502.316" />
    </g>
    <text id="frame_0_toplabel" font-size="30" transform="translate(535, 32.6)" text-anchor="middle" dominant-baseline="middle" stroke="none" fill="black">map.filter</text>
    <g id="frame_0_topticks">
        <path d="M 120 50 L 120 70" />
        <path d="M 136.6 50 L 136.6 60" />
        <path d="M 153.2 50 L 153.2 60" />
        <path d="M 169.8 50 L 169.8 60" />
        <path d="M 186.4 50 L 186.4 60" />
        <path d="M 203 50 L 203 60" />
        <path d="M 219.6 50 L 219.6 60" />
        <path d="M 236.2 50 L 236.2 60" />
        <path d="M 252.8 50 L 252.8 60" />
        <path d="M 269.4 50 L 269.4 60" />
        <path d="M 286 50 L 286 70" />
        <path d="M 302.6 50 L 302.6 60" />
        <path d="M 319.2 50 L 319.2 60" />
        <path d="M 335.8 50 L 335.8 60" />
        <path d="M 352.4 50 L 352.4 60" />
        <path d="M 369 50 L 369 60" />
        <path d="M 385.6 50 L 385.6 60" />
        <path d="M 402.2 50 L 402.2 60" />
        <path d="M 418.8 50 L 418.8 60" />
        <path d="M 435.4 50 L 435.4 60" />
        <path d="M 452 50 L 452 70" />
        <path d="M 468.6 50 L 468.6 60" />
        <path d="M 485.2 50 L 485.2 60" />
        <path d="M 501.8 50 L 501.8 60" />
        <path d="M 518.4 50 L 518.4 60" />
        <path d="M 535 50 L 535 60" />
        <path d="M 551.6 50 L 551.6 60" />
        <path d="M 568.2 50 L 568.2 60" />
        <path d="M 584.8 50 L 584.8 60" />
        <path d="M 601.4 50 L 601.4 60" />
        <path d="M 618 50 L 618 70" />
        <path d="M 634.6 50 L 634.6 60" />
        <path d="M 651.2 50 L 651.2 60" />
        <path d="M 667.8 50 L 667.8 60" />
        <path d="M 684.4 50 L 684.4 60" />
        <path d="M 701 50 L 701 60" />
        <path d="M 717.6 50 L 717.6 60" />
        <path d="M 734.2 50 L 734.2 60" />
        <path d="M 750.8 50 L 750.8 60" />
        <path d="M 767.4 50 L 767.4 60" />
        <path d="M 784 50 L 784 70" />
        <path d="M 800.6 50 L 800.6 60" />
        <path d="M 817.2 50 L 817.2 60" />
        <path d="M 833.8 50 L 833.8 60" />
        <path d="M 850.4 50 L 850.4 60" />
        <path d="M 867 50 L 867 60" />
        <path d="M 883.6 50 L 883.6 60" />
        <path d="M 900.2 50 L 900.2 60" />
        <path d="M 916.8 50 L 916.8 60" />
        <path d="M 933.4 50 L 933.4 60" />
        <path d="M 950 50 L 950 70" />
    </g>
    <g id="frame_0_rightticks">
        <path d="M 950 230.336 L 940 230.336" />
        <path d="M 950 298.331 L 940 298.331" />
        <path d="M 950 920 L 930 920" />
        <path d="M 950 104.059 L 940 104.059" />
        <path d="M 950 94.3454 L 940 94.3454" />
        <path d="M 950 745.156 L 940 745.156" />
        <path d="M 950 793.723 L 940 793.723" />
        <path d="M 950 512.03 L 940 512.03" />
        <path d="M 950 541.17 L 940 541.17" />
        <path d="M 950 308.044 L 940 308.044" />
        <path d="M 950 822.864 L 930 822.864" />
        <path d="M 950 414.894 L 940 414.894" />
        <path d="M 950 784.01 L 940 784.01" />
        <path d="M 950 696.588 L 940 696.588" />
        <path d="M 950 288.617 L 940 288.617" />
        <path d="M 950 832.578 L 940 832.578" />
        <path d="M 950 570.311 L 940 570.311" />
        <path d="M 950 317.758 L 940 317.758" />
        <path d="M 950 716.015 L 940 716.015" />
        <path d="M 950 725.728 L 930 725.728" />
        <path d="M 950 735.442 L 940 735.442" />
        <path d="M 950 191.481 L 940 191.481" />
        <path d="M 950 842.291 L 940 842.291" />
        <path d="M 950 492.602 L 940 492.602" />
        <path d="M 950 473.175 L 940 473.175" />
        <path d="M 950 638.306 L 940 638.306" />
        <path d="M 950 754.869 L 940 754.869" />
        <path d="M 950 628.593 L 930 628.593" />
        <path d="M 950 220.622 L 940 220.622" />
        <path d="M 950 424.607 L 940 424.607" />
        <path d="M 950 910.286 L 940 910.286" />
        <path d="M 950 852.005 L 940 852.005" />
        <path d="M 950 123.486 L 940 123.486" />
        <path d="M 950 376.039 L 940 376.039" />
        <path d="M 950 648.02 L 940 648.02" />
        <path d="M 950 356.612 L 940 356.612" />
        <path d="M 950 133.2 L 940 133.2" />
        <path d="M 950 861.719 L 940 861.719" />
        <path d="M 950 813.151 L 940 813.151" />
        <path d="M 950 405.18 L 940 405.18" />
        <path d="M 950 550.884 L 940 550.884" />
        <path d="M 950 444.034 L 940 444.034" />
        <path d="M 950 385.753 L 940 385.753" />
        <path d="M 950 434.321 L 930 434.321" />
        <path d="M 950 657.733 L 940 657.733" />
        <path d="M 950 152.627 L 940 152.627" />
        <path d="M 950 764.583 L 940 764.583" />
        <path d="M 950 65.2047 L 940 65.2047" />
        <path d="M 950 560.597 L 940 560.597" />
        <path d="M 950 249.763 L 940 249.763" />
        <path d="M 950 667.447 L 940 667.447" />
        <path d="M 950 774.296 L 940 774.296" />
        <path d="M 950 871.432 L 940 871.432" />
        <path d="M 950 463.462 L 940 463.462" />
        <path d="M 950 337.185 L 930 337.185" />
        <path d="M 950 618.879 L 940 618.879" />
        <path d="M 950 210.908 L 940 210.908" />
        <path d="M 950 259.476 L 940 259.476" />
        <path d="M 950 84.6318 L 940 84.6318" />
        <path d="M 950 900.573 L 940 900.573" />
        <path d="M 950 366.326 L 940 366.326" />
        <path d="M 950 162.341 L 940 162.341" />
        <path d="M 950 327.471 L 940 327.471" />
        <path d="M 950 521.743 L 940 521.743" />
        <path d="M 950 269.19 L 940 269.19" />
        <path d="M 950 240.049 L 930 240.049" />
        <path d="M 950 803.437 L 940 803.437" />
        <path d="M 950 686.874 L 940 686.874" />
        <path d="M 950 881.146 L 940 881.146" />
        <path d="M 950 677.16 L 940 677.16" />
        <path d="M 950 172.054 L 940 172.054" />
        <path d="M 950 142.913 L 930 142.913" />
        <path d="M 950 278.904 L 940 278.904" />
        <path d="M 950 346.899 L 940 346.899" />
        <path d="M 950 74.9183 L 940 74.9183" />
        <path d="M 950 580.025 L 940 580.025" />
        <path d="M 950 181.768 L 940 181.768" />
        <path d="M 950 589.738 L 940 589.738" />
        <path d="M 950 453.748 L 940 453.748" />
        <path d="M 950 113.773 L 940 113.773" />
        <path d="M 950 395.467 L 940 395.467" />
        <path d="M 950 599.452 L 940 599.452" />
        <path d="M 950 609.165 L 940 609.165" />
        <path d="M 950 201.195 L 940 201.195" />
        <path d="M 950 706.301 L 940 706.301" />
        <path d="M 950 55.4911 L 940 55.4911" />
        <path d="M 950 531.457 L 930 531.457" />
        <path d="M 950 890.859 L 940 890.859" />
        <path d="M 950 482.889 L 940 482.889" />
        <path d="M 950 502.316 L 940 502.316" />
    </g>
</g>
</g>
</svg>
