<?xml version="1.0" standalone="no"?>
<!DOCTYPE svg PUBLIC "-//W3C//DTD SVG 1.1//EN" "http://www.w3.org/Graphics/SVG/1.1/DTD/svg11.dtd">
<svg style="stroke-linejoin:miter; stroke:black; stroke-width:2.5; text-anchor:middle; fill:none" xmlns="http://www.w3.org/2000/svg" font-family="Helvetica, Arial, FreeSans, Sans, sans, sans-serif" width="1000px" height="1000px" version="1.1" xmlns:xlink="http://www.w3.org/1999/xlink" viewBox="0 0 1000 1000">
<defs>
    <clipPath id="Histogram_0_clip">
        <rect x="120" y="50" width="830" height="870" />
    </clipPath>
    <clipPath id="Histogram_1_clip">
        <rect x="120" y="50" width="830" height="870" />
    </clipPath>
</defs>
<g id="whole_document">
<rect id="background" x="0" y="0" width="1000" height="1000" stroke="none" fill="white" />
<g id="Histogram_0" clip-path="url(#Histogram_0_clip)">
    <path d="M 120 920 L 120 129.091 L 161.5 129.091 L 161.5 920 L 203 920 L 203 920 L 244.5 920 L 244.5 920 L 286 920 L 286 282.763 L 327.5 282.763 L 327.5 920 L 369 920 L 369 920 L 410.5 920 L 410.5 920 L 452 920 L 452 920 L 493.5 920 L 493.5 920 L 535 920 L 535 920 L 576.5 920 L 576.5 920 L 618 920 L 618 920 L 659.5 920 L 659.5 920 L 701 920 L 701 920 L 742.5 920 L 742.5 920 L 784 920 L 784 920 L 825.5 920 L 825.5 920 L 867 920 L 867 920 L 908.5 920 L 908.5 920 L 950 920 L 950 920" stroke-width="3" stroke-dasharray="" stroke="black" stroke-opacity="1" fill="DodgerBlue" fill-opacity="1" />
</g>
<g id="Histogram_1" clip-path="url(#Histogram_1_clip)">
    <path d="M 120 920 L 120 920 L 161.5 920 L 161.5 920 L 203 920 L 203 920 L 244.5 920 L 244.5 920 L 286 920 L 286 282.763 L 327.5 282.763 L 327.5 920 L 369 920 L 369 920 L 410.5 920 L 410.5 920 L 452 920 L 452 920 L 493.5 920 L 493.5 920 L 535 920 L 535 920 L 576.5 920 L 576.5 920 L 618 920 L 618 920 L 659.5 920 L 659.5 920 L 701 920 L 701 920 L 742.5 920 L 742.5 920 L 784 920 L 784 920 L 825.5 920 L 825.5 920 L 867 920 L 867 920 L 908.5 920 L 908.5 920 L 950 920 L 950 920" stroke-width="3" stroke-dasharray="" stroke="black" stroke-opacity="1" fill="darkorange" fill-opacity="1" />
</g>
<g id="frame_0">
    <rect id="frame_0_border" x="120" y="50" width="830" height="870" />
    <text id="frame_0_bottomlabel" font-size="30" transform="translate(535, 989.6)" text-anchor="middle" dominant-baseline="middle" stroke="none" fill="black">microseconds</text>
    <g id="frame_0_bottomticks">
        <path d="M 120 920 L 120 900" />
        <text font-size="30" transform="translate(120, 950)" text-anchor="middle" dominant-baseline="middle" stroke="none" fill="black">0</text>
        <path d="M 136.6 920 L 136.6 910" />
        <path d="M 153.2 920 L 153.2 910" />
        <path d="M 169.8 920 L 169.8 910" />
        <path d="M 186.4 920 L 186.4 910" />
        <path d="M 203 920 L 203 910" />
        <path d="M 219.6 920 L 219.6 910" />
        <path d="M 236.2 920 L 236.2 910" />
        <path d="M 252.8 920 L 252.8 910" />
        <path d="M 269.4 920 L 269.4 910" />
        <path d="M 286 920 L 286 900" />
        <text font-size="30" transform="translate(286, 950)" text-anchor="middle" dominant-baseline="middle" stroke="none" fill="black">10</text>
        <path d="M 302.6 920 L 302.6 910" />
        <path d="M 319.2 920 L 319.2 910" />
        <path d="M 335.8 920 L 335.8 910" />
        <path d="M 352.4 920 L 352.4 910" />
        <path d="M 369 920 L 369 910" />
        <path d="M 385.6 920 L 385.6 910" />
        <path d="M 402.2 920 L 402.2 910" />
        <path d="M 418.8 920 L 418.8 910" />
        <path d="M 435.4 920 L 435.4 910" />
        <path d="M 452 920 L 452 900" />
        <text font-size="30" transform="translate(452, 950)" text-anchor="middle" dominant-baseline="middle" stroke="none" fill="black">20</text>
        <path d="M 468.6 920 L 468.6 910" />
        <path d="M 485.2 920 L 485.2 910" />
        <path d="M 501.8 920 L 501.8 910" />
        <path d="M 518.4 920 L 518.4 910" />
        <path d="M 535 920 L 535 910" />
        <path d="M 551.6 920 L 551.6 910" />
        <path d="M 568.2 920 L 568.2 910" />
        <path d="M 584.8 920 L 584.8 910" />
        <path d="M 601.4 920 L 601.4 910" />
        <path d="M 618 920 L 618 900" />
        <text font-size="30" transform="translate(618, 950)" text-anchor="middle" dominant-baseline="middle" stroke="none" fill="black">30</text>
        <path d="M 634.6 920 L 634.6 910" />
        <path d="M 651.2 920 L 651.2 910" />
        <path d="M 667.8 920 L 667.8 910" />
        <path d="M 684.4 920 L 684.4 910" />
        <path d="M 701 920 L 701 910" />
        <path d="M 717.6 920 L 717.6 910" />
        <path d="M 734.2 920 L 734.2 910" />
        <path d="M 750.8 920 L 750.8 910" />
        <path d="M 767.4 920 L 767.4 910" />
        <path d="M 784 920 L 784 900" />
        <text font-size="30" transform="translate(784, 950)" text-anchor="middle" dominant-baseline="middle" stroke="none" fill="black">40</text>
        <path d="M 800.6 920 L 800.6 910" />
        <path d="M 817.2 920 L 817.2 910" />
        <path d="M 833.8 920 L 833.8 910" />
        <path d="M 850.4 920 L 850.4 910" />
        <path d="M 867 920 L 867 910" />
        <path d="M 883.6 920 L 883.6 910" />
        <path d="M 900.2 920 L 900.2 910" />
        <path d="M 916.8 920 L 916.8 910" />
        <path d="M 933.4 920 L 933.4 910" />
        <path d="M 950 920 L 950 900" />
        <text font-size="30" transform="translate(950, 950)" text-anchor="middle" dominant-baseline="middle" stroke="none" fill="black">50</text>
    </g>
    <g id="frame_0_leftticks">
        <path d="M 120 502.909 L 130 502.909" />
        <path d="M 120 294.363 L 130 294.363" />
        <path d="M 120 802.693 L 130 802.693" />
        <path d="M 120 72.7836 L 130 72.7836" />
        <path d="M 120 920 L 140 920" />
        <text font-size="30" transform="translate(110, 930)" text-anchor="end" dominant-baseline="middle" stroke="none" fill="black">0</text>
        <path d="M 120 685.386 L 130 685.386" />
        <path d="M 120 463.807 L 130 463.807" />
        <path d="M 120 568.079 L 130 568.079" />
        <path d="M 120 867.864 L 130 867.864" />
        <path d="M 120 424.704 L 130 424.704" />
        <path d="M 120 124.92 L 130 124.92" />
        <path d="M 120 750.557 L 130 750.557" />
        <path d="M 120 633.25 L 130 633.25" />
        <path d="M 120 385.602 L 130 385.602" />
        <path d="M 120 515.943 L 130 515.943" />
        <path d="M 120 815.727 L 130 815.727" />
        <path d="M 120 346.5 L 130 346.5" />
        <path d="M 120 203.125 L 130 203.125" />
        <path d="M 120 698.42 L 130 698.42" />
        <path d="M 120 150.988 L 130 150.988" />
        <path d="M 120 581.113 L 130 581.113" />
        <path d="M 120 307.397 L 130 307.397" />
        <path d="M 120 880.898 L 130 880.898" />
        <path d="M 120 763.591 L 130 763.591" />
        <path d="M 120 476.841 L 130 476.841" />
        <path d="M 120 646.284 L 130 646.284" />
        <path d="M 120 659.318 L 140 659.318" />
        <text font-size="30" transform="translate(110, 669.318)" text-anchor="end" dominant-baseline="middle" stroke="none" fill="black">2000</text>
        <path d="M 120 111.886 L 130 111.886" />
        <path d="M 120 437.738 L 130 437.738" />
        <path d="M 120 828.761 L 130 828.761" />
        <path d="M 120 711.454 L 130 711.454" />
        <path d="M 120 190.09 L 130 190.09" />
        <path d="M 120 229.193 L 130 229.193" />
        <path d="M 120 594.148 L 130 594.148" />
        <path d="M 120 893.932 L 130 893.932" />
        <path d="M 120 359.534 L 130 359.534" />
        <path d="M 120 776.625 L 130 776.625" />
        <path d="M 120 255.261 L 130 255.261" />
        <path d="M 120 85.8177 L 130 85.8177" />
        <path d="M 120 242.227 L 130 242.227" />
        <path d="M 120 320.431 L 130 320.431" />
        <path d="M 120 398.636 L 140 398.636" />
        <text font-size="30" transform="translate(110, 408.636)" text-anchor="end" dominant-baseline="middle" stroke="none" fill="black">4000</text>
        <path d="M 120 542.011 L 130 542.011" />
        <path d="M 120 789.659 L 140 789.659" />
        <text font-size="30" transform="translate(110, 799.659)" text-anchor="end" dominant-baseline="middle" stroke="none" fill="black">1000</text>
        <path d="M 120 281.329 L 130 281.329" />
        <path d="M 120 841.795 L 130 841.795" />
        <path d="M 120 489.875 L 130 489.875" />
        <path d="M 120 59.7495 L 130 59.7495" />
        <path d="M 120 724.489 L 130 724.489" />
        <path d="M 120 268.295 L 140 268.295" />
        <text font-size="30" transform="translate(110, 278.295)" text-anchor="end" dominant-baseline="middle" stroke="none" fill="black">5000</text>
        <path d="M 120 607.182 L 130 607.182" />
        <path d="M 120 450.772 L 130 450.772" />
        <path d="M 120 906.966 L 130 906.966" />
        <path d="M 120 98.8518 L 130 98.8518" />
        <path d="M 120 372.568 L 130 372.568" />
        <path d="M 120 411.67 L 130 411.67" />
        <path d="M 120 137.954 L 140 137.954" />
        <text font-size="30" transform="translate(110, 147.954)" text-anchor="end" dominant-baseline="middle" stroke="none" fill="black">6000</text>
        <path d="M 120 672.352 L 130 672.352" />
        <path d="M 120 555.045 L 130 555.045" />
        <path d="M 120 164.022 L 130 164.022" />
        <path d="M 120 528.977 L 140 528.977" />
        <text font-size="30" transform="translate(110, 538.977)" text-anchor="end" dominant-baseline="middle" stroke="none" fill="black">3000</text>
        <path d="M 120 854.83 L 130 854.83" />
        <path d="M 120 177.056 L 130 177.056" />
        <path d="M 120 737.523 L 130 737.523" />
        <path d="M 120 333.466 L 130 333.466" />
        <path d="M 120 620.216 L 130 620.216" />
        <path d="M 120 216.159 L 130 216.159" />
    </g>
    <text id="frame_0_toplabel" font-size="30" transform="translate(535, 32.6)" text-anchor="middle" dominant-baseline="middle" stroke="none" fill="black">bytes.decodeUtf16</text>
    <g id="frame_0_topticks">
        <path d="M 120 50 L 120 70" />
        <path d="M 136.6 50 L 136.6 60" />
        <path d="M 153.2 50 L 153.2 60" />
        <path d="M 169.8 50 L 169.8 60" />
        <path d="M 186.4 50 L 186.4 60" />
        <path d="M 203 50 L 203 60" />
        <path d="M 219.6 50 L 219.6 60" />
        <path d="M 236.2 50 L 236.2 60" />
        <path d="M 252.8 50 L 252.8 60" />
        <path d="M 269.4 50 L 269.4 60" />
        <path d="M 286 50 L 286 70" />
        <path d="M 302.6 50 L 302.6 60" />
        <path d="M 319.2 50 L 319.2 60" />
        <path d="M 335.8 50 L 335.8 60" />
        <path d="M 352.4 50 L 352.4 60" />
        <path d="M 369 50 L 369 60" />
        <path d="M 385.6 50 L 385.6 60" />
        <path d="M 402.2 50 L 402.2 60" />
        <path d="M 418.8 50 L 418.8 60" />
        <path d="M 435.4 50 L 435.4 60" />
        <path d="M 452 50 L 452 70" />
        <path d="M 468.6 50 L 468.6 60" />
        <path d="M 485.2 50 L 485.2 60" />
        <path d="M 501.8 50 L 501.8 60" />
        <path d="M 518.4 50 L 518.4 60" />
        <path d="M 535 50 L 535 60" />
        <path d="M 551.6 50 L 551.6 60" />
        <path d="M 568.2 50 L 568.2 60" />
        <path d="M 584.8 50 L 584.8 60" />
        <path d="M 601.4 50 L 601.4 60" />
        <path d="M 618 50 L 618 70" />
        <path d="M 634.6 50 L 634.6 60" />
        <path d="M 651.2 50 L 651.2 60" />
        <path d="M 667.8 50 L 667.8 60" />
        <path d="M 684.4 50 L 684.4 60" />
        <path d="M 701 50 L 701 60" />
        <path d="M 717.6 50 L 717.6 60" />
        <path d="M 734.2 50 L 734.2 60" />
        <path d="M 750.8 50 L 750.8 60" />
        <path d="M 767.4 50 L 767.4 60" />
        <path d="M 784 50 L 784 70" />
        <path d="M 800.6 50 L 800.6 60" />
        <path d="M 817.2 50 L 817.2 60" />
        <path d="M 833.8 50 L 833.8 60" />
        <path d="M 850.4 50 L 850.4 60" />
        <path d="M 867 50 L 867 60" />
        <path d="M 883.6 50 L 883.6 60" />
        <path d="M 900.2 50 L 900.2 60" />
        <path d="M 916.8 50 L 916.8 60" />
        <path d="M 933.4 50 L 933.4 60" />
        <path d="M 950 50 L 950 70" />
    </g>
    <g id="frame_0_rightticks">
        <path d="M 950 502.909 L 940 502.909" />
        <path d="M 950 294.363 L 940 294.363" />
        <path d="M 950 802.693 L 940 802.693" />
        <path d="M 950 72.7836 L 940 72.7836" />
        <path d="M 950 920 L 930 920" />
        <path d="M 950 685.386 L 940 685.386" />
        <path d="M 950 463.807 L 940 463.807" />
        <path d="M 950 568.079 L 940 568.079" />
        <path d="M 950 867.864 L 940 867.864" />
        <path d="M 950 424.704 L 940 424.704" />
        <path d="M 950 124.92 L 940 124.92" />
        <path d="M 950 750.557 L 940 750.557" />
        <path d="M 950 633.25 L 940 633.25" />
        <path d="M 950 385.602 L 940 385.602" />
        <path d="M 950 515.943 L 940 515.943" />
        <path d="M 950 815.727 L 940 815.727" />
        <path d="M 950 346.5 L 940 346.5" />
        <path d="M 950 203.125 L 940 203.125" />
        <path d="M 950 698.42 L 940 698.42" />
        <path d="M 950 150.988 L 940 150.988" />
        <path d="M 950 581.113 L 940 581.113" />
        <path d="M 950 307.397 L 940 307.397" />
        <path d="M 950 880.898 L 940 880.898" />
        <path d="M 950 763.591 L 940 763.591" />
        <path d="M 950 476.841 L 940 476.841" />
        <path d="M 950 646.284 L 940 646.284" />
        <path d="M 950 659.318 L 930 659.318" />
        <path d="M 950 111.886 L 940 111.886" />
        <path d="M 950 437.738 L 940 437.738" />
        <path d="M 950 828.761 L 940 828.761" />
        <path d="M 950 711.454 L 940 711.454" />
        <path d="M 950 190.09 L 940 190.09" />
        <path d="M 950 229.193 L 940 229.193" />
        <path d="M 950 594.148 L 940 594.148" />
        <path d="M 950 893.932 L 940 893.932" />
        <path d="M 950 359.534 L 940 359.534" />
        <path d="M 950 776.625 L 940 776.625" />
        <path d="M 950 255.261 L 940 255.261" />
        <path d="M 950 85.8177 L 940 85.8177" />
        <path d="M 950 242.227 L 940 242.227" />
        <path d="M 950 320.431 L 940 320.431" />
        <path d="M 950 398.636 L 930 398.636" />
        <path d="M 950 542.011 L 940 542.011" />
        <path d="M 950 789.659 L 930 789.659" />
        <path d="M 950 281.329 L 940 281.329" />
        <path d="M 950 841.795 L 940 841.795" />
        <path d="M 950 489.875 L 940 489.875" />
        <path d="M 950 59.7495 L 940 59.7495" />
        <path d="M 950 724.489 L 940 724.489" />
        <path d="M 950 268.295 L 930 268.295" />
        <path d="M 950 607.182 L 940 607.182" />
        <path d="M 950 450.772 L 940 450.772" />
        <path d="M 950 906.966 L 940 906.966" />
        <path d="M 950 98.8518 L 940 98.8518" />
        <path d="M 950 372.568 L 940 372.568" />
        <path d="M 950 411.67 L 940 411.67" />
        <path d="M 950 137.954 L 930 137.954" />
        <path d="M 950 672.352 L 940 672.352" />
        <path d="M 950 555.045 L 940 555.045" />
        <path d="M 950 164.022 L 940 164.022" />
        <path d="M 950 528.977 L 930 528.977" />
        <path d="M 950 854.83 L 940 854.83" />
        <path d="M 950 177.056 L 940 177.056" />
        <path d="M 950 737.523 L 940 737.523" />
        <path d="M 950 333.466 L 940 333.466" />
        <path d="M 950 620.216 L 940 620.216" />
        <path d="M 950 216.159 L 940 216.159" />
    </g>
</g>
</g>
</svg>
