<?xml version="1.0" standalone="no"?>
<!DOCTYPE svg PUBLIC "-//W3C//DTD SVG 1.1//EN" "http://www.w3.org/Graphics/SVG/1.1/DTD/svg11.dtd">
<svg style="stroke-linejoin:miter; stroke:black; stroke-width:2.5; text-anchor:middle; fill:none" xmlns="http://www.w3.org/2000/svg" font-family="Helvetica, Arial, FreeSans, Sans, sans, sans-serif" width="1000px" height="1000px" version="1.1" xmlns:xlink="http://www.w3.org/1999/xlink" viewBox="0 0 1000 1000">
<defs>
    <clipPath id="Histogram_0_clip">
        <rect x="120" y="50" width="830" height="870" />
    </clipPath>
</defs>
<g id="whole_document">
<rect id="background" x="0" y="0" width="1000" height="1000" stroke="none" fill="white" />
<g id="Histogram_0" clip-path="url(#Histogram_0_clip)">
    <path d="M 120 920 L 120 129.091 L 161.5 129.091 L 161.5 920 L 203 920 L 203 920 L 244.5 920 L 244.5 920 L 286 920 L 286 920 L 327.5 920 L 327.5 920 L 369 920 L 369 920 L 410.5 920 L 410.5 920 L 452 920 L 452 920 L 493.5 920 L 493.5 920 L 535 920 L 535 920 L 576.5 920 L 576.5 920 L 618 920 L 618 920 L 659.5 920 L 659.5 920 L 701 920 L 701 920 L 742.5 920 L 742.5 920 L 784 920 L 784 920 L 825.5 920 L 825.5 920 L 867 920 L 867 920 L 908.5 920 L 908.5 920 L 950 920 L 950 920" stroke-width="3" stroke-dasharray="" stroke="black" stroke-opacity="1" fill="DodgerBlue" fill-opacity="1" />
</g>
<g id="frame_0">
    <rect id="frame_0_border" x="120" y="50" width="830" height="870" />
    <text id="frame_0_bottomlabel" font-size="30" transform="translate(535, 989.6)" text-anchor="middle" dominant-baseline="middle" stroke="none" fill="black">microseconds</text>
    <g id="frame_0_bottomticks">
        <path d="M 120 920 L 120 900" />
        <text font-size="30" transform="translate(120, 950)" text-anchor="middle" dominant-baseline="middle" stroke="none" fill="black">0</text>
        <path d="M 136.6 920 L 136.6 910" />
        <path d="M 153.2 920 L 153.2 910" />
        <path d="M 169.8 920 L 169.8 910" />
        <path d="M 186.4 920 L 186.4 910" />
        <path d="M 203 920 L 203 910" />
        <path d="M 219.6 920 L 219.6 910" />
        <path d="M 236.2 920 L 236.2 910" />
        <path d="M 252.8 920 L 252.8 910" />
        <path d="M 269.4 920 L 269.4 910" />
        <path d="M 286 920 L 286 900" />
        <text font-size="30" transform="translate(286, 950)" text-anchor="middle" dominant-baseline="middle" stroke="none" fill="black">10</text>
        <path d="M 302.6 920 L 302.6 910" />
        <path d="M 319.2 920 L 319.2 910" />
        <path d="M 335.8 920 L 335.8 910" />
        <path d="M 352.4 920 L 352.4 910" />
        <path d="M 369 920 L 369 910" />
        <path d="M 385.6 920 L 385.6 910" />
        <path d="M 402.2 920 L 402.2 910" />
        <path d="M 418.8 920 L 418.8 910" />
        <path d="M 435.4 920 L 435.4 910" />
        <path d="M 452 920 L 452 900" />
        <text font-size="30" transform="translate(452, 950)" text-anchor="middle" dominant-baseline="middle" stroke="none" fill="black">20</text>
        <path d="M 468.6 920 L 468.6 910" />
        <path d="M 485.2 920 L 485.2 910" />
        <path d="M 501.8 920 L 501.8 910" />
        <path d="M 518.4 920 L 518.4 910" />
        <path d="M 535 920 L 535 910" />
        <path d="M 551.6 920 L 551.6 910" />
        <path d="M 568.2 920 L 568.2 910" />
        <path d="M 584.8 920 L 584.8 910" />
        <path d="M 601.4 920 L 601.4 910" />
        <path d="M 618 920 L 618 900" />
        <text font-size="30" transform="translate(618, 950)" text-anchor="middle" dominant-baseline="middle" stroke="none" fill="black">30</text>
        <path d="M 634.6 920 L 634.6 910" />
        <path d="M 651.2 920 L 651.2 910" />
        <path d="M 667.8 920 L 667.8 910" />
        <path d="M 684.4 920 L 684.4 910" />
        <path d="M 701 920 L 701 910" />
        <path d="M 717.6 920 L 717.6 910" />
        <path d="M 734.2 920 L 734.2 910" />
        <path d="M 750.8 920 L 750.8 910" />
        <path d="M 767.4 920 L 767.4 910" />
        <path d="M 784 920 L 784 900" />
        <text font-size="30" transform="translate(784, 950)" text-anchor="middle" dominant-baseline="middle" stroke="none" fill="black">40</text>
        <path d="M 800.6 920 L 800.6 910" />
        <path d="M 817.2 920 L 817.2 910" />
        <path d="M 833.8 920 L 833.8 910" />
        <path d="M 850.4 920 L 850.4 910" />
        <path d="M 867 920 L 867 910" />
        <path d="M 883.6 920 L 883.6 910" />
        <path d="M 900.2 920 L 900.2 910" />
        <path d="M 916.8 920 L 916.8 910" />
        <path d="M 933.4 920 L 933.4 910" />
        <path d="M 950 920 L 950 900" />
        <text font-size="30" transform="translate(950, 950)" text-anchor="middle" dominant-baseline="middle" stroke="none" fill="black">50</text>
    </g>
    <g id="frame_0_leftticks">
        <path d="M 120 703.498 L 130 703.498" />
        <path d="M 120 595.247 L 130 595.247" />
        <path d="M 120 554.653 L 130 554.653" />
        <path d="M 120 67.5231 L 130 67.5231" />
        <path d="M 120 635.841 L 130 635.841" />
        <path d="M 120 459.933 L 130 459.933" />
        <path d="M 120 148.711 L 130 148.711" />
        <path d="M 120 568.184 L 130 568.184" />
        <path d="M 120 825.28 L 130 825.28" />
        <path d="M 120 284.025 L 130 284.025" />
        <path d="M 120 717.029 L 130 717.029" />
        <path d="M 120 108.117 L 140 108.117" />
        <text font-size="30" transform="translate(110, 118.117)" text-anchor="end" dominant-baseline="middle" stroke="none" fill="black">60000</text>
        <path d="M 120 135.18 L 130 135.18" />
        <path d="M 120 920 L 140 920" />
        <text font-size="30" transform="translate(110, 930)" text-anchor="end" dominant-baseline="middle" stroke="none" fill="black">0</text>
        <path d="M 120 527.59 L 130 527.59" />
        <path d="M 120 500.527 L 130 500.527" />
        <path d="M 120 392.276 L 130 392.276" />
        <path d="M 120 865.874 L 130 865.874" />
        <path d="M 120 622.31 L 130 622.31" />
        <path d="M 120 324.619 L 130 324.619" />
        <path d="M 120 784.686 L 140 784.686" />
        <text font-size="30" transform="translate(110, 794.686)" text-anchor="end" dominant-baseline="middle" stroke="none" fill="black">10000</text>
        <path d="M 120 121.649 L 130 121.649" />
        <path d="M 120 798.218 L 130 798.218" />
        <path d="M 120 514.059 L 140 514.059" />
        <text font-size="30" transform="translate(110, 524.059)" text-anchor="end" dominant-baseline="middle" stroke="none" fill="black">30000</text>
        <path d="M 120 378.745 L 140 378.745" />
        <text font-size="30" transform="translate(110, 388.745)" text-anchor="end" dominant-baseline="middle" stroke="none" fill="black">40000</text>
        <path d="M 120 432.87 L 130 432.87" />
        <path d="M 120 730.561 L 130 730.561" />
        <path d="M 120 852.343 L 130 852.343" />
        <path d="M 120 365.213 L 130 365.213" />
        <path d="M 120 662.904 L 130 662.904" />
        <path d="M 120 256.962 L 130 256.962" />
        <path d="M 120 473.464 L 130 473.464" />
        <path d="M 120 811.749 L 130 811.749" />
        <path d="M 120 541.121 L 130 541.121" />
        <path d="M 120 581.716 L 130 581.716" />
        <path d="M 120 94.5859 L 130 94.5859" />
        <path d="M 120 744.092 L 130 744.092" />
        <path d="M 120 405.808 L 130 405.808" />
        <path d="M 120 216.368 L 130 216.368" />
        <path d="M 120 229.9 L 130 229.9" />
        <path d="M 120 892.937 L 130 892.937" />
        <path d="M 120 879.406 L 130 879.406" />
        <path d="M 120 649.372 L 140 649.372" />
        <text font-size="30" transform="translate(110, 659.372)" text-anchor="end" dominant-baseline="middle" stroke="none" fill="black">20000</text>
        <path d="M 120 338.151 L 130 338.151" />
        <path d="M 120 53.9918 L 130 53.9918" />
        <path d="M 120 608.778 L 130 608.778" />
        <path d="M 120 202.837 L 130 202.837" />
        <path d="M 120 446.402 L 130 446.402" />
        <path d="M 120 162.243 L 130 162.243" />
        <path d="M 120 757.623 L 130 757.623" />
        <path d="M 120 676.435 L 130 676.435" />
        <path d="M 120 270.494 L 130 270.494" />
        <path d="M 120 189.306 L 130 189.306" />
        <path d="M 120 906.469 L 130 906.469" />
        <path d="M 120 81.0545 L 130 81.0545" />
        <path d="M 120 351.682 L 130 351.682" />
        <path d="M 120 486.996 L 130 486.996" />
        <path d="M 120 838.812 L 130 838.812" />
        <path d="M 120 689.967 L 130 689.967" />
        <path d="M 120 175.774 L 130 175.774" />
        <path d="M 120 311.088 L 130 311.088" />
        <path d="M 120 243.431 L 140 243.431" />
        <text font-size="30" transform="translate(110, 253.431)" text-anchor="end" dominant-baseline="middle" stroke="none" fill="black">50000</text>
        <path d="M 120 771.155 L 130 771.155" />
        <path d="M 120 419.339 L 130 419.339" />
        <path d="M 120 297.557 L 130 297.557" />
    </g>
    <text id="frame_0_toplabel" font-size="30" transform="translate(535, 32.6)" text-anchor="middle" dominant-baseline="middle" stroke="none" fill="black">&amp;&amp;&amp;</text>
    <g id="frame_0_topticks">
        <path d="M 120 50 L 120 70" />
        <path d="M 136.6 50 L 136.6 60" />
        <path d="M 153.2 50 L 153.2 60" />
        <path d="M 169.8 50 L 169.8 60" />
        <path d="M 186.4 50 L 186.4 60" />
        <path d="M 203 50 L 203 60" />
        <path d="M 219.6 50 L 219.6 60" />
        <path d="M 236.2 50 L 236.2 60" />
        <path d="M 252.8 50 L 252.8 60" />
        <path d="M 269.4 50 L 269.4 60" />
        <path d="M 286 50 L 286 70" />
        <path d="M 302.6 50 L 302.6 60" />
        <path d="M 319.2 50 L 319.2 60" />
        <path d="M 335.8 50 L 335.8 60" />
        <path d="M 352.4 50 L 352.4 60" />
        <path d="M 369 50 L 369 60" />
        <path d="M 385.6 50 L 385.6 60" />
        <path d="M 402.2 50 L 402.2 60" />
        <path d="M 418.8 50 L 418.8 60" />
        <path d="M 435.4 50 L 435.4 60" />
        <path d="M 452 50 L 452 70" />
        <path d="M 468.6 50 L 468.6 60" />
        <path d="M 485.2 50 L 485.2 60" />
        <path d="M 501.8 50 L 501.8 60" />
        <path d="M 518.4 50 L 518.4 60" />
        <path d="M 535 50 L 535 60" />
        <path d="M 551.6 50 L 551.6 60" />
        <path d="M 568.2 50 L 568.2 60" />
        <path d="M 584.8 50 L 584.8 60" />
        <path d="M 601.4 50 L 601.4 60" />
        <path d="M 618 50 L 618 70" />
        <path d="M 634.6 50 L 634.6 60" />
        <path d="M 651.2 50 L 651.2 60" />
        <path d="M 667.8 50 L 667.8 60" />
        <path d="M 684.4 50 L 684.4 60" />
        <path d="M 701 50 L 701 60" />
        <path d="M 717.6 50 L 717.6 60" />
        <path d="M 734.2 50 L 734.2 60" />
        <path d="M 750.8 50 L 750.8 60" />
        <path d="M 767.4 50 L 767.4 60" />
        <path d="M 784 50 L 784 70" />
        <path d="M 800.6 50 L 800.6 60" />
        <path d="M 817.2 50 L 817.2 60" />
        <path d="M 833.8 50 L 833.8 60" />
        <path d="M 850.4 50 L 850.4 60" />
        <path d="M 867 50 L 867 60" />
        <path d="M 883.6 50 L 883.6 60" />
        <path d="M 900.2 50 L 900.2 60" />
        <path d="M 916.8 50 L 916.8 60" />
        <path d="M 933.4 50 L 933.4 60" />
        <path d="M 950 50 L 950 70" />
    </g>
    <g id="frame_0_rightticks">
        <path d="M 950 703.498 L 940 703.498" />
        <path d="M 950 595.247 L 940 595.247" />
        <path d="M 950 554.653 L 940 554.653" />
        <path d="M 950 67.5231 L 940 67.5231" />
        <path d="M 950 635.841 L 940 635.841" />
        <path d="M 950 459.933 L 940 459.933" />
        <path d="M 950 148.711 L 940 148.711" />
        <path d="M 950 568.184 L 940 568.184" />
        <path d="M 950 825.28 L 940 825.28" />
        <path d="M 950 284.025 L 940 284.025" />
        <path d="M 950 717.029 L 940 717.029" />
        <path d="M 950 108.117 L 930 108.117" />
        <path d="M 950 135.18 L 940 135.18" />
        <path d="M 950 920 L 930 920" />
        <path d="M 950 527.59 L 940 527.59" />
        <path d="M 950 500.527 L 940 500.527" />
        <path d="M 950 392.276 L 940 392.276" />
        <path d="M 950 865.874 L 940 865.874" />
        <path d="M 950 622.31 L 940 622.31" />
        <path d="M 950 324.619 L 940 324.619" />
        <path d="M 950 784.686 L 930 784.686" />
        <path d="M 950 121.649 L 940 121.649" />
        <path d="M 950 798.218 L 940 798.218" />
        <path d="M 950 514.059 L 930 514.059" />
        <path d="M 950 378.745 L 930 378.745" />
        <path d="M 950 432.87 L 940 432.87" />
        <path d="M 950 730.561 L 940 730.561" />
        <path d="M 950 852.343 L 940 852.343" />
        <path d="M 950 365.213 L 940 365.213" />
        <path d="M 950 662.904 L 940 662.904" />
        <path d="M 950 256.962 L 940 256.962" />
        <path d="M 950 473.464 L 940 473.464" />
        <path d="M 950 811.749 L 940 811.749" />
        <path d="M 950 541.121 L 940 541.121" />
        <path d="M 950 581.716 L 940 581.716" />
        <path d="M 950 94.5859 L 940 94.5859" />
        <path d="M 950 744.092 L 940 744.092" />
        <path d="M 950 405.808 L 940 405.808" />
        <path d="M 950 216.368 L 940 216.368" />
        <path d="M 950 229.9 L 940 229.9" />
        <path d="M 950 892.937 L 940 892.937" />
        <path d="M 950 879.406 L 940 879.406" />
        <path d="M 950 649.372 L 930 649.372" />
        <path d="M 950 338.151 L 940 338.151" />
        <path d="M 950 53.9918 L 940 53.9918" />
        <path d="M 950 608.778 L 940 608.778" />
        <path d="M 950 202.837 L 940 202.837" />
        <path d="M 950 446.402 L 940 446.402" />
        <path d="M 950 162.243 L 940 162.243" />
        <path d="M 950 757.623 L 940 757.623" />
        <path d="M 950 676.435 L 940 676.435" />
        <path d="M 950 270.494 L 940 270.494" />
        <path d="M 950 189.306 L 940 189.306" />
        <path d="M 950 906.469 L 940 906.469" />
        <path d="M 950 81.0545 L 940 81.0545" />
        <path d="M 950 351.682 L 940 351.682" />
        <path d="M 950 486.996 L 940 486.996" />
        <path d="M 950 838.812 L 940 838.812" />
        <path d="M 950 689.967 L 940 689.967" />
        <path d="M 950 175.774 L 940 175.774" />
        <path d="M 950 311.088 L 940 311.088" />
        <path d="M 950 243.431 L 930 243.431" />
        <path d="M 950 771.155 L 940 771.155" />
        <path d="M 950 419.339 L 940 419.339" />
        <path d="M 950 297.557 L 940 297.557" />
    </g>
</g>
</g>
</svg>
