<?xml version="1.0" standalone="no"?>
<!DOCTYPE svg PUBLIC "-//W3C//DTD SVG 1.1//EN" "http://www.w3.org/Graphics/SVG/1.1/DTD/svg11.dtd">
<svg style="stroke-linejoin:miter; stroke:black; stroke-width:2.5; text-anchor:middle; fill:none" xmlns="http://www.w3.org/2000/svg" font-family="Helvetica, Arial, FreeSans, Sans, sans, sans-serif" width="1000px" height="1000px" version="1.1" xmlns:xlink="http://www.w3.org/1999/xlink" viewBox="0 0 1000 1000">
<defs>
    <clipPath id="Histogram_0_clip">
        <rect x="120" y="50" width="830" height="870" />
    </clipPath>
    <clipPath id="Histogram_1_clip">
        <rect x="120" y="50" width="830" height="870" />
    </clipPath>
</defs>
<g id="whole_document">
<rect id="background" x="0" y="0" width="1000" height="1000" stroke="none" fill="white" />
<g id="Histogram_0" clip-path="url(#Histogram_0_clip)">
    <path d="M 120 920 L 120 882.822 L 161.5 882.822 L 161.5 917.013 L 203 917.013 L 203 920 L 244.5 920 L 244.5 129.091 L 286 129.091 L 286 917.357 L 327.5 917.357 L 327.5 914.16 L 369 914.16 L 369 918.46 L 410.5 918.46 L 410.5 916.479 L 452 916.479 L 452 918.983 L 493.5 918.983 L 493.5 918.101 L 535 918.101 L 535 918.881 L 576.5 918.881 L 576.5 917.865 L 618 917.865 L 618 918.053 L 659.5 918.053 L 659.5 918.488 L 701 918.488 L 701 919.117 L 742.5 919.117 L 742.5 919.452 L 784 919.452 L 784 919.673 L 825.5 919.673 L 825.5 919.759 L 867 919.759 L 867 920 L 908.5 920 L 908.5 919.89 L 950 919.89 L 950 920" stroke-width="3" stroke-dasharray="" stroke="black" stroke-opacity="1" fill="DodgerBlue" fill-opacity="1" />
</g>
<g id="Histogram_1" clip-path="url(#Histogram_1_clip)">
    <path d="M 120 920 L 120 920 L 161.5 920 L 161.5 920 L 203 920 L 203 920 L 244.5 920 L 244.5 129.091 L 286 129.091 L 286 917.357 L 327.5 917.357 L 327.5 914.16 L 369 914.16 L 369 918.46 L 410.5 918.46 L 410.5 919.18 L 452 919.18 L 452 919.235 L 493.5 919.235 L 493.5 919.659 L 535 919.659 L 535 920 L 576.5 920 L 576.5 920 L 618 920 L 618 920 L 659.5 920 L 659.5 920 L 701 920 L 701 920 L 742.5 920 L 742.5 920 L 784 920 L 784 920 L 825.5 920 L 825.5 920 L 867 920 L 867 920 L 908.5 920 L 908.5 920 L 950 920 L 950 920" stroke-width="3" stroke-dasharray="" stroke="black" stroke-opacity="1" fill="darkorange" fill-opacity="1" />
</g>
<g id="frame_0">
    <rect id="frame_0_border" x="120" y="50" width="830" height="870" />
    <text id="frame_0_bottomlabel" font-size="30" transform="translate(535, 989.6)" text-anchor="middle" dominant-baseline="middle" stroke="none" fill="black">microseconds</text>
    <g id="frame_0_bottomticks">
        <path d="M 120 920 L 120 900" />
        <text font-size="30" transform="translate(120, 950)" text-anchor="middle" dominant-baseline="middle" stroke="none" fill="black">0</text>
        <path d="M 136.6 920 L 136.6 910" />
        <path d="M 153.2 920 L 153.2 910" />
        <path d="M 169.8 920 L 169.8 910" />
        <path d="M 186.4 920 L 186.4 910" />
        <path d="M 203 920 L 203 910" />
        <path d="M 219.6 920 L 219.6 910" />
        <path d="M 236.2 920 L 236.2 910" />
        <path d="M 252.8 920 L 252.8 910" />
        <path d="M 269.4 920 L 269.4 910" />
        <path d="M 286 920 L 286 900" />
        <text font-size="30" transform="translate(286, 950)" text-anchor="middle" dominant-baseline="middle" stroke="none" fill="black">10</text>
        <path d="M 302.6 920 L 302.6 910" />
        <path d="M 319.2 920 L 319.2 910" />
        <path d="M 335.8 920 L 335.8 910" />
        <path d="M 352.4 920 L 352.4 910" />
        <path d="M 369 920 L 369 910" />
        <path d="M 385.6 920 L 385.6 910" />
        <path d="M 402.2 920 L 402.2 910" />
        <path d="M 418.8 920 L 418.8 910" />
        <path d="M 435.4 920 L 435.4 910" />
        <path d="M 452 920 L 452 900" />
        <text font-size="30" transform="translate(452, 950)" text-anchor="middle" dominant-baseline="middle" stroke="none" fill="black">20</text>
        <path d="M 468.6 920 L 468.6 910" />
        <path d="M 485.2 920 L 485.2 910" />
        <path d="M 501.8 920 L 501.8 910" />
        <path d="M 518.4 920 L 518.4 910" />
        <path d="M 535 920 L 535 910" />
        <path d="M 551.6 920 L 551.6 910" />
        <path d="M 568.2 920 L 568.2 910" />
        <path d="M 584.8 920 L 584.8 910" />
        <path d="M 601.4 920 L 601.4 910" />
        <path d="M 618 920 L 618 900" />
        <text font-size="30" transform="translate(618, 950)" text-anchor="middle" dominant-baseline="middle" stroke="none" fill="black">30</text>
        <path d="M 634.6 920 L 634.6 910" />
        <path d="M 651.2 920 L 651.2 910" />
        <path d="M 667.8 920 L 667.8 910" />
        <path d="M 684.4 920 L 684.4 910" />
        <path d="M 701 920 L 701 910" />
        <path d="M 717.6 920 L 717.6 910" />
        <path d="M 734.2 920 L 734.2 910" />
        <path d="M 750.8 920 L 750.8 910" />
        <path d="M 767.4 920 L 767.4 910" />
        <path d="M 784 920 L 784 900" />
        <text font-size="30" transform="translate(784, 950)" text-anchor="middle" dominant-baseline="middle" stroke="none" fill="black">40</text>
        <path d="M 800.6 920 L 800.6 910" />
        <path d="M 817.2 920 L 817.2 910" />
        <path d="M 833.8 920 L 833.8 910" />
        <path d="M 850.4 920 L 850.4 910" />
        <path d="M 867 920 L 867 910" />
        <path d="M 883.6 920 L 883.6 910" />
        <path d="M 900.2 920 L 900.2 910" />
        <path d="M 916.8 920 L 916.8 910" />
        <path d="M 933.4 920 L 933.4 910" />
        <path d="M 950 920 L 950 900" />
        <text font-size="30" transform="translate(950, 950)" text-anchor="middle" dominant-baseline="middle" stroke="none" fill="black">50</text>
    </g>
    <g id="frame_0_leftticks">
        <path d="M 120 710.412 L 130 710.412" />
        <path d="M 120 605.618 L 130 605.618" />
        <path d="M 120 920 L 140 920" />
        <text font-size="30" transform="translate(110, 930)" text-anchor="end" dominant-baseline="middle" stroke="none" fill="black">0</text>
        <path d="M 120 369.832 L 130 369.832" />
        <path d="M 120 500.824 L 130 500.824" />
        <path d="M 120 684.214 L 130 684.214" />
        <path d="M 120 81.648 L 130 81.648" />
        <path d="M 120 212.641 L 130 212.641" />
        <path d="M 120 893.802 L 130 893.802" />
        <path d="M 120 867.603 L 130 867.603" />
        <path d="M 120 631.817 L 130 631.817" />
        <path d="M 120 55.4495 L 130 55.4495" />
        <path d="M 120 841.405 L 130 841.405" />
        <path d="M 120 789.008 L 140 789.008" />
        <text font-size="30" transform="translate(110, 799.008)" text-anchor="end" dominant-baseline="middle" stroke="none" fill="black">50000</text>
        <path d="M 120 186.442 L 130 186.442" />
        <path d="M 120 317.435 L 130 317.435" />
        <path d="M 120 448.427 L 130 448.427" />
        <path d="M 120 815.206 L 130 815.206" />
        <path d="M 120 238.839 L 130 238.839" />
        <path d="M 120 160.244 L 130 160.244" />
        <path d="M 120 579.42 L 130 579.42" />
        <path d="M 120 291.236 L 130 291.236" />
        <path d="M 120 422.229 L 130 422.229" />
        <path d="M 120 553.221 L 130 553.221" />
        <path d="M 120 762.809 L 130 762.809" />
        <path d="M 120 474.626 L 130 474.626" />
        <path d="M 120 134.045 L 140 134.045" />
        <text font-size="30" transform="translate(110, 144.045)" text-anchor="end" dominant-baseline="middle" stroke="none" fill="black">300000</text>
        <path d="M 120 265.038 L 140 265.038" />
        <text font-size="30" transform="translate(110, 275.038)" text-anchor="end" dominant-baseline="middle" stroke="none" fill="black">250000</text>
        <path d="M 120 736.611 L 130 736.611" />
        <path d="M 120 396.03 L 140 396.03" />
        <text font-size="30" transform="translate(110, 406.03)" text-anchor="end" dominant-baseline="middle" stroke="none" fill="black">200000</text>
        <path d="M 120 527.023 L 140 527.023" />
        <text font-size="30" transform="translate(110, 537.023)" text-anchor="end" dominant-baseline="middle" stroke="none" fill="black">150000</text>
        <path d="M 120 658.015 L 140 658.015" />
        <text font-size="30" transform="translate(110, 668.015)" text-anchor="end" dominant-baseline="middle" stroke="none" fill="black">100000</text>
        <path d="M 120 343.633 L 130 343.633" />
        <path d="M 120 107.847 L 130 107.847" />
    </g>
    <text id="frame_0_toplabel" font-size="30" transform="translate(535, 32.6)" text-anchor="middle" dominant-baseline="middle" stroke="none" fill="black">prob.dist.fQF</text>
    <g id="frame_0_topticks">
        <path d="M 120 50 L 120 70" />
        <path d="M 136.6 50 L 136.6 60" />
        <path d="M 153.2 50 L 153.2 60" />
        <path d="M 169.8 50 L 169.8 60" />
        <path d="M 186.4 50 L 186.4 60" />
        <path d="M 203 50 L 203 60" />
        <path d="M 219.6 50 L 219.6 60" />
        <path d="M 236.2 50 L 236.2 60" />
        <path d="M 252.8 50 L 252.8 60" />
        <path d="M 269.4 50 L 269.4 60" />
        <path d="M 286 50 L 286 70" />
        <path d="M 302.6 50 L 302.6 60" />
        <path d="M 319.2 50 L 319.2 60" />
        <path d="M 335.8 50 L 335.8 60" />
        <path d="M 352.4 50 L 352.4 60" />
        <path d="M 369 50 L 369 60" />
        <path d="M 385.6 50 L 385.6 60" />
        <path d="M 402.2 50 L 402.2 60" />
        <path d="M 418.8 50 L 418.8 60" />
        <path d="M 435.4 50 L 435.4 60" />
        <path d="M 452 50 L 452 70" />
        <path d="M 468.6 50 L 468.6 60" />
        <path d="M 485.2 50 L 485.2 60" />
        <path d="M 501.8 50 L 501.8 60" />
        <path d="M 518.4 50 L 518.4 60" />
        <path d="M 535 50 L 535 60" />
        <path d="M 551.6 50 L 551.6 60" />
        <path d="M 568.2 50 L 568.2 60" />
        <path d="M 584.8 50 L 584.8 60" />
        <path d="M 601.4 50 L 601.4 60" />
        <path d="M 618 50 L 618 70" />
        <path d="M 634.6 50 L 634.6 60" />
        <path d="M 651.2 50 L 651.2 60" />
        <path d="M 667.8 50 L 667.8 60" />
        <path d="M 684.4 50 L 684.4 60" />
        <path d="M 701 50 L 701 60" />
        <path d="M 717.6 50 L 717.6 60" />
        <path d="M 734.2 50 L 734.2 60" />
        <path d="M 750.8 50 L 750.8 60" />
        <path d="M 767.4 50 L 767.4 60" />
        <path d="M 784 50 L 784 70" />
        <path d="M 800.6 50 L 800.6 60" />
        <path d="M 817.2 50 L 817.2 60" />
        <path d="M 833.8 50 L 833.8 60" />
        <path d="M 850.4 50 L 850.4 60" />
        <path d="M 867 50 L 867 60" />
        <path d="M 883.6 50 L 883.6 60" />
        <path d="M 900.2 50 L 900.2 60" />
        <path d="M 916.8 50 L 916.8 60" />
        <path d="M 933.4 50 L 933.4 60" />
        <path d="M 950 50 L 950 70" />
    </g>
    <g id="frame_0_rightticks">
        <path d="M 950 710.412 L 940 710.412" />
        <path d="M 950 605.618 L 940 605.618" />
        <path d="M 950 920 L 930 920" />
        <path d="M 950 369.832 L 940 369.832" />
        <path d="M 950 500.824 L 940 500.824" />
        <path d="M 950 684.214 L 940 684.214" />
        <path d="M 950 81.648 L 940 81.648" />
        <path d="M 950 212.641 L 940 212.641" />
        <path d="M 950 893.802 L 940 893.802" />
        <path d="M 950 867.603 L 940 867.603" />
        <path d="M 950 631.817 L 940 631.817" />
        <path d="M 950 55.4495 L 940 55.4495" />
        <path d="M 950 841.405 L 940 841.405" />
        <path d="M 950 789.008 L 930 789.008" />
        <path d="M 950 186.442 L 940 186.442" />
        <path d="M 950 317.435 L 940 317.435" />
        <path d="M 950 448.427 L 940 448.427" />
        <path d="M 950 815.206 L 940 815.206" />
        <path d="M 950 238.839 L 940 238.839" />
        <path d="M 950 160.244 L 940 160.244" />
        <path d="M 950 579.42 L 940 579.42" />
        <path d="M 950 291.236 L 940 291.236" />
        <path d="M 950 422.229 L 940 422.229" />
        <path d="M 950 553.221 L 940 553.221" />
        <path d="M 950 762.809 L 940 762.809" />
        <path d="M 950 474.626 L 940 474.626" />
        <path d="M 950 134.045 L 930 134.045" />
        <path d="M 950 265.038 L 930 265.038" />
        <path d="M 950 736.611 L 940 736.611" />
        <path d="M 950 396.03 L 930 396.03" />
        <path d="M 950 527.023 L 930 527.023" />
        <path d="M 950 658.015 L 930 658.015" />
        <path d="M 950 343.633 L 940 343.633" />
        <path d="M 950 107.847 L 940 107.847" />
    </g>
</g>
</g>
</svg>
