<?xml version="1.0" standalone="no"?>
<!DOCTYPE svg PUBLIC "-//W3C//DTD SVG 1.1//EN" "http://www.w3.org/Graphics/SVG/1.1/DTD/svg11.dtd">
<svg style="stroke-linejoin:miter; stroke:black; stroke-width:2.5; text-anchor:middle; fill:none" xmlns="http://www.w3.org/2000/svg" font-family="Helvetica, Arial, FreeSans, Sans, sans, sans-serif" width="1000px" height="1000px" version="1.1" xmlns:xlink="http://www.w3.org/1999/xlink" viewBox="0 0 1000 1000">
<defs>
    <clipPath id="Histogram_0_clip">
        <rect x="120" y="50" width="830" height="870" />
    </clipPath>
    <clipPath id="Histogram_1_clip">
        <rect x="120" y="50" width="830" height="870" />
    </clipPath>
</defs>
<g id="whole_document">
<rect id="background" x="0" y="0" width="1000" height="1000" stroke="none" fill="white" />
<g id="Histogram_0" clip-path="url(#Histogram_0_clip)">
    <path d="M 120 920 L 120 129.091 L 161.5 129.091 L 161.5 920 L 203 920 L 203 682.576 L 244.5 682.576 L 244.5 765.75 L 286 765.75 L 286 920 L 327.5 920 L 327.5 920 L 369 920 L 369 920 L 410.5 920 L 410.5 671.99 L 452 671.99 L 452 623.598 L 493.5 623.598 L 493.5 466.324 L 535 466.324 L 535 741.554 L 576.5 741.554 L 576.5 865.559 L 618 865.559 L 618 920 L 659.5 920 L 659.5 920 L 701 920 L 701 920 L 742.5 920 L 742.5 832.289 L 784 832.289 L 784 883.706 L 825.5 883.706 L 825.5 883.706 L 867 883.706 L 867 853.461 L 908.5 853.461 L 908.5 920 L 950 920 L 950 920" stroke-width="3" stroke-dasharray="" stroke="black" stroke-opacity="1" fill="DodgerBlue" fill-opacity="1" />
</g>
<g id="Histogram_1" clip-path="url(#Histogram_1_clip)">
    <path d="M 120 920 L 120 920 L 161.5 920 L 161.5 920 L 203 920 L 203 920 L 244.5 920 L 244.5 920 L 286 920 L 286 920 L 327.5 920 L 327.5 920 L 369 920 L 369 920 L 410.5 920 L 410.5 671.99 L 452 671.99 L 452 776.336 L 493.5 776.336 L 493.5 532.863 L 535 532.863 L 535 741.554 L 576.5 741.554 L 576.5 920 L 618 920 L 618 920 L 659.5 920 L 659.5 920 L 701 920 L 701 920 L 742.5 920 L 742.5 873.12 L 784 873.12 L 784 920 L 825.5 920 L 825.5 920 L 867 920 L 867 920 L 908.5 920 L 908.5 920 L 950 920 L 950 920" stroke-width="3" stroke-dasharray="" stroke="black" stroke-opacity="1" fill="darkorange" fill-opacity="1" />
</g>
<g id="frame_0">
    <rect id="frame_0_border" x="120" y="50" width="830" height="870" />
    <text id="frame_0_bottomlabel" font-size="30" transform="translate(535, 989.6)" text-anchor="middle" dominant-baseline="middle" stroke="none" fill="black">microseconds</text>
    <g id="frame_0_bottomticks">
        <path d="M 120 920 L 120 900" />
        <text font-size="30" transform="translate(120, 950)" text-anchor="middle" dominant-baseline="middle" stroke="none" fill="black">0</text>
        <path d="M 136.6 920 L 136.6 910" />
        <path d="M 153.2 920 L 153.2 910" />
        <path d="M 169.8 920 L 169.8 910" />
        <path d="M 186.4 920 L 186.4 910" />
        <path d="M 203 920 L 203 910" />
        <path d="M 219.6 920 L 219.6 910" />
        <path d="M 236.2 920 L 236.2 910" />
        <path d="M 252.8 920 L 252.8 910" />
        <path d="M 269.4 920 L 269.4 910" />
        <path d="M 286 920 L 286 900" />
        <text font-size="30" transform="translate(286, 950)" text-anchor="middle" dominant-baseline="middle" stroke="none" fill="black">10</text>
        <path d="M 302.6 920 L 302.6 910" />
        <path d="M 319.2 920 L 319.2 910" />
        <path d="M 335.8 920 L 335.8 910" />
        <path d="M 352.4 920 L 352.4 910" />
        <path d="M 369 920 L 369 910" />
        <path d="M 385.6 920 L 385.6 910" />
        <path d="M 402.2 920 L 402.2 910" />
        <path d="M 418.8 920 L 418.8 910" />
        <path d="M 435.4 920 L 435.4 910" />
        <path d="M 452 920 L 452 900" />
        <text font-size="30" transform="translate(452, 950)" text-anchor="middle" dominant-baseline="middle" stroke="none" fill="black">20</text>
        <path d="M 468.6 920 L 468.6 910" />
        <path d="M 485.2 920 L 485.2 910" />
        <path d="M 501.8 920 L 501.8 910" />
        <path d="M 518.4 920 L 518.4 910" />
        <path d="M 535 920 L 535 910" />
        <path d="M 551.6 920 L 551.6 910" />
        <path d="M 568.2 920 L 568.2 910" />
        <path d="M 584.8 920 L 584.8 910" />
        <path d="M 601.4 920 L 601.4 910" />
        <path d="M 618 920 L 618 900" />
        <text font-size="30" transform="translate(618, 950)" text-anchor="middle" dominant-baseline="middle" stroke="none" fill="black">30</text>
        <path d="M 634.6 920 L 634.6 910" />
        <path d="M 651.2 920 L 651.2 910" />
        <path d="M 667.8 920 L 667.8 910" />
        <path d="M 684.4 920 L 684.4 910" />
        <path d="M 701 920 L 701 910" />
        <path d="M 717.6 920 L 717.6 910" />
        <path d="M 734.2 920 L 734.2 910" />
        <path d="M 750.8 920 L 750.8 910" />
        <path d="M 767.4 920 L 767.4 910" />
        <path d="M 784 920 L 784 900" />
        <text font-size="30" transform="translate(784, 950)" text-anchor="middle" dominant-baseline="middle" stroke="none" fill="black">40</text>
        <path d="M 800.6 920 L 800.6 910" />
        <path d="M 817.2 920 L 817.2 910" />
        <path d="M 833.8 920 L 833.8 910" />
        <path d="M 850.4 920 L 850.4 910" />
        <path d="M 867 920 L 867 910" />
        <path d="M 883.6 920 L 883.6 910" />
        <path d="M 900.2 920 L 900.2 910" />
        <path d="M 916.8 920 L 916.8 910" />
        <path d="M 933.4 920 L 933.4 910" />
        <path d="M 950 920 L 950 900" />
        <text font-size="30" transform="translate(950, 950)" text-anchor="middle" dominant-baseline="middle" stroke="none" fill="black">50</text>
    </g>
    <g id="frame_0_leftticks">
        <path d="M 120 920 L 140 920" />
        <text font-size="30" transform="translate(110, 930)" text-anchor="end" dominant-baseline="middle" stroke="none" fill="black">0</text>
        <path d="M 120 723.407 L 130 723.407" />
        <path d="M 120 526.814 L 130 526.814" />
        <path d="M 120 330.221 L 130 330.221" />
        <path d="M 120 133.628 L 130 133.628" />
        <path d="M 120 904.877 L 130 904.877" />
        <path d="M 120 708.284 L 130 708.284" />
        <path d="M 120 511.691 L 130 511.691" />
        <path d="M 120 315.098 L 140 315.098" />
        <text font-size="30" transform="translate(110, 325.098)" text-anchor="end" dominant-baseline="middle" stroke="none" fill="black">400</text>
        <path d="M 120 118.505 L 130 118.505" />
        <path d="M 120 889.755 L 130 889.755" />
        <path d="M 120 693.162 L 130 693.162" />
        <path d="M 120 496.569 L 130 496.569" />
        <path d="M 120 299.976 L 130 299.976" />
        <path d="M 120 103.383 L 130 103.383" />
        <path d="M 120 874.632 L 130 874.632" />
        <path d="M 120 678.039 L 130 678.039" />
        <path d="M 120 481.446 L 130 481.446" />
        <path d="M 120 284.853 L 130 284.853" />
        <path d="M 120 88.26 L 130 88.26" />
        <path d="M 120 859.51 L 130 859.51" />
        <path d="M 120 662.917 L 130 662.917" />
        <path d="M 120 466.324 L 140 466.324" />
        <text font-size="30" transform="translate(110, 476.324)" text-anchor="end" dominant-baseline="middle" stroke="none" fill="black">300</text>
        <path d="M 120 269.731 L 130 269.731" />
        <path d="M 120 73.1375 L 130 73.1375" />
        <path d="M 120 844.387 L 130 844.387" />
        <path d="M 120 647.794 L 130 647.794" />
        <path d="M 120 451.201 L 130 451.201" />
        <path d="M 120 254.608 L 130 254.608" />
        <path d="M 120 58.0149 L 130 58.0149" />
        <path d="M 120 829.265 L 130 829.265" />
        <path d="M 120 632.672 L 130 632.672" />
        <path d="M 120 436.079 L 130 436.079" />
        <path d="M 120 239.485 L 130 239.485" />
        <path d="M 120 814.142 L 130 814.142" />
        <path d="M 120 617.549 L 140 617.549" />
        <text font-size="30" transform="translate(110, 627.549)" text-anchor="end" dominant-baseline="middle" stroke="none" fill="black">200</text>
        <path d="M 120 420.956 L 130 420.956" />
        <path d="M 120 224.363 L 130 224.363" />
        <path d="M 120 799.02 L 130 799.02" />
        <path d="M 120 602.427 L 130 602.427" />
        <path d="M 120 405.833 L 130 405.833" />
        <path d="M 120 209.24 L 130 209.24" />
        <path d="M 120 783.897 L 130 783.897" />
        <path d="M 120 587.304 L 130 587.304" />
        <path d="M 120 390.711 L 130 390.711" />
        <path d="M 120 194.118 L 130 194.118" />
        <path d="M 120 768.775 L 140 768.775" />
        <text font-size="30" transform="translate(110, 778.775)" text-anchor="end" dominant-baseline="middle" stroke="none" fill="black">100</text>
        <path d="M 120 572.181 L 130 572.181" />
        <path d="M 120 375.588 L 130 375.588" />
        <path d="M 120 178.995 L 130 178.995" />
        <path d="M 120 753.652 L 130 753.652" />
        <path d="M 120 557.059 L 130 557.059" />
        <path d="M 120 360.466 L 130 360.466" />
        <path d="M 120 163.873 L 140 163.873" />
        <text font-size="30" transform="translate(110, 173.873)" text-anchor="end" dominant-baseline="middle" stroke="none" fill="black">500</text>
        <path d="M 120 738.529 L 130 738.529" />
        <path d="M 120 541.936 L 130 541.936" />
        <path d="M 120 345.343 L 130 345.343" />
        <path d="M 120 148.75 L 130 148.75" />
    </g>
    <text id="frame_0_toplabel" font-size="30" transform="translate(535, 32.6)" text-anchor="middle" dominant-baseline="middle" stroke="none" fill="black">la.zipmap</text>
    <g id="frame_0_topticks">
        <path d="M 120 50 L 120 70" />
        <path d="M 136.6 50 L 136.6 60" />
        <path d="M 153.2 50 L 153.2 60" />
        <path d="M 169.8 50 L 169.8 60" />
        <path d="M 186.4 50 L 186.4 60" />
        <path d="M 203 50 L 203 60" />
        <path d="M 219.6 50 L 219.6 60" />
        <path d="M 236.2 50 L 236.2 60" />
        <path d="M 252.8 50 L 252.8 60" />
        <path d="M 269.4 50 L 269.4 60" />
        <path d="M 286 50 L 286 70" />
        <path d="M 302.6 50 L 302.6 60" />
        <path d="M 319.2 50 L 319.2 60" />
        <path d="M 335.8 50 L 335.8 60" />
        <path d="M 352.4 50 L 352.4 60" />
        <path d="M 369 50 L 369 60" />
        <path d="M 385.6 50 L 385.6 60" />
        <path d="M 402.2 50 L 402.2 60" />
        <path d="M 418.8 50 L 418.8 60" />
        <path d="M 435.4 50 L 435.4 60" />
        <path d="M 452 50 L 452 70" />
        <path d="M 468.6 50 L 468.6 60" />
        <path d="M 485.2 50 L 485.2 60" />
        <path d="M 501.8 50 L 501.8 60" />
        <path d="M 518.4 50 L 518.4 60" />
        <path d="M 535 50 L 535 60" />
        <path d="M 551.6 50 L 551.6 60" />
        <path d="M 568.2 50 L 568.2 60" />
        <path d="M 584.8 50 L 584.8 60" />
        <path d="M 601.4 50 L 601.4 60" />
        <path d="M 618 50 L 618 70" />
        <path d="M 634.6 50 L 634.6 60" />
        <path d="M 651.2 50 L 651.2 60" />
        <path d="M 667.8 50 L 667.8 60" />
        <path d="M 684.4 50 L 684.4 60" />
        <path d="M 701 50 L 701 60" />
        <path d="M 717.6 50 L 717.6 60" />
        <path d="M 734.2 50 L 734.2 60" />
        <path d="M 750.8 50 L 750.8 60" />
        <path d="M 767.4 50 L 767.4 60" />
        <path d="M 784 50 L 784 70" />
        <path d="M 800.6 50 L 800.6 60" />
        <path d="M 817.2 50 L 817.2 60" />
        <path d="M 833.8 50 L 833.8 60" />
        <path d="M 850.4 50 L 850.4 60" />
        <path d="M 867 50 L 867 60" />
        <path d="M 883.6 50 L 883.6 60" />
        <path d="M 900.2 50 L 900.2 60" />
        <path d="M 916.8 50 L 916.8 60" />
        <path d="M 933.4 50 L 933.4 60" />
        <path d="M 950 50 L 950 70" />
    </g>
    <g id="frame_0_rightticks">
        <path d="M 950 920 L 930 920" />
        <path d="M 950 723.407 L 940 723.407" />
        <path d="M 950 526.814 L 940 526.814" />
        <path d="M 950 330.221 L 940 330.221" />
        <path d="M 950 133.628 L 940 133.628" />
        <path d="M 950 904.877 L 940 904.877" />
        <path d="M 950 708.284 L 940 708.284" />
        <path d="M 950 511.691 L 940 511.691" />
        <path d="M 950 315.098 L 930 315.098" />
        <path d="M 950 118.505 L 940 118.505" />
        <path d="M 950 889.755 L 940 889.755" />
        <path d="M 950 693.162 L 940 693.162" />
        <path d="M 950 496.569 L 940 496.569" />
        <path d="M 950 299.976 L 940 299.976" />
        <path d="M 950 103.383 L 940 103.383" />
        <path d="M 950 874.632 L 940 874.632" />
        <path d="M 950 678.039 L 940 678.039" />
        <path d="M 950 481.446 L 940 481.446" />
        <path d="M 950 284.853 L 940 284.853" />
        <path d="M 950 88.26 L 940 88.26" />
        <path d="M 950 859.51 L 940 859.51" />
        <path d="M 950 662.917 L 940 662.917" />
        <path d="M 950 466.324 L 930 466.324" />
        <path d="M 950 269.731 L 940 269.731" />
        <path d="M 950 73.1375 L 940 73.1375" />
        <path d="M 950 844.387 L 940 844.387" />
        <path d="M 950 647.794 L 940 647.794" />
        <path d="M 950 451.201 L 940 451.201" />
        <path d="M 950 254.608 L 940 254.608" />
        <path d="M 950 58.0149 L 940 58.0149" />
        <path d="M 950 829.265 L 940 829.265" />
        <path d="M 950 632.672 L 940 632.672" />
        <path d="M 950 436.079 L 940 436.079" />
        <path d="M 950 239.485 L 940 239.485" />
        <path d="M 950 814.142 L 940 814.142" />
        <path d="M 950 617.549 L 930 617.549" />
        <path d="M 950 420.956 L 940 420.956" />
        <path d="M 950 224.363 L 940 224.363" />
        <path d="M 950 799.02 L 940 799.02" />
        <path d="M 950 602.427 L 940 602.427" />
        <path d="M 950 405.833 L 940 405.833" />
        <path d="M 950 209.24 L 940 209.24" />
        <path d="M 950 783.897 L 940 783.897" />
        <path d="M 950 587.304 L 940 587.304" />
        <path d="M 950 390.711 L 940 390.711" />
        <path d="M 950 194.118 L 940 194.118" />
        <path d="M 950 768.775 L 930 768.775" />
        <path d="M 950 572.181 L 940 572.181" />
        <path d="M 950 375.588 L 940 375.588" />
        <path d="M 950 178.995 L 940 178.995" />
        <path d="M 950 753.652 L 940 753.652" />
        <path d="M 950 557.059 L 940 557.059" />
        <path d="M 950 360.466 L 940 360.466" />
        <path d="M 950 163.873 L 930 163.873" />
        <path d="M 950 738.529 L 940 738.529" />
        <path d="M 950 541.936 L 940 541.936" />
        <path d="M 950 345.343 L 940 345.343" />
        <path d="M 950 148.75 L 940 148.75" />
    </g>
</g>
</g>
</svg>
