<?xml version="1.0" standalone="no"?>
<!DOCTYPE svg PUBLIC "-//W3C//DTD SVG 1.1//EN" "http://www.w3.org/Graphics/SVG/1.1/DTD/svg11.dtd">
<svg style="stroke-linejoin:miter; stroke:black; stroke-width:2.5; text-anchor:middle; fill:none" xmlns="http://www.w3.org/2000/svg" font-family="Helvetica, Arial, FreeSans, Sans, sans, sans-serif" width="1000px" height="1000px" version="1.1" xmlns:xlink="http://www.w3.org/1999/xlink" viewBox="0 0 1000 1000">
<defs>
    <clipPath id="Histogram_0_clip">
        <rect x="120" y="50" width="830" height="870" />
    </clipPath>
    <clipPath id="Histogram_1_clip">
        <rect x="120" y="50" width="830" height="870" />
    </clipPath>
</defs>
<g id="whole_document">
<rect id="background" x="0" y="0" width="1000" height="1000" stroke="none" fill="white" />
<g id="Histogram_0" clip-path="url(#Histogram_0_clip)">
    <path d="M 120 920 L 120 723.755 L 161.5 723.755 L 161.5 890.541 L 203 890.541 L 203 920 L 244.5 920 L 244.5 129.091 L 286 129.091 L 286 907.928 L 327.5 907.928 L 327.5 920 L 369 920 L 369 917.975 L 410.5 917.975 L 410.5 910.796 L 452 910.796 L 452 904.914 L 493.5 904.914 L 493.5 914.426 L 535 914.426 L 535 917.488 L 576.5 917.488 L 576.5 918.218 L 618 918.218 L 618 918.914 L 659.5 918.914 L 659.5 920 L 701 920 L 701 920 L 742.5 920 L 742.5 920 L 784 920 L 784 920 L 825.5 920 L 825.5 920 L 867 920 L 867 920 L 908.5 920 L 908.5 920 L 950 920 L 950 920" stroke-width="3" stroke-dasharray="" stroke="black" stroke-opacity="1" fill="DodgerBlue" fill-opacity="1" />
</g>
<g id="Histogram_1" clip-path="url(#Histogram_1_clip)">
    <path d="M 120 920 L 120 920 L 161.5 920 L 161.5 920 L 203 920 L 203 920 L 244.5 920 L 244.5 129.091 L 286 129.091 L 286 907.928 L 327.5 907.928 L 327.5 920 L 369 920 L 369 917.975 L 410.5 917.975 L 410.5 918.234 L 452 918.234 L 452 920 L 493.5 920 L 493.5 920 L 535 920 L 535 920 L 576.5 920 L 576.5 920 L 618 920 L 618 920 L 659.5 920 L 659.5 920 L 701 920 L 701 920 L 742.5 920 L 742.5 920 L 784 920 L 784 920 L 825.5 920 L 825.5 920 L 867 920 L 867 920 L 908.5 920 L 908.5 920 L 950 920 L 950 920" stroke-width="3" stroke-dasharray="" stroke="black" stroke-opacity="1" fill="darkorange" fill-opacity="1" />
</g>
<g id="frame_0">
    <rect id="frame_0_border" x="120" y="50" width="830" height="870" />
    <text id="frame_0_bottomlabel" font-size="30" transform="translate(535, 989.6)" text-anchor="middle" dominant-baseline="middle" stroke="none" fill="black">microseconds</text>
    <g id="frame_0_bottomticks">
        <path d="M 120 920 L 120 900" />
        <text font-size="30" transform="translate(120, 950)" text-anchor="middle" dominant-baseline="middle" stroke="none" fill="black">0</text>
        <path d="M 136.6 920 L 136.6 910" />
        <path d="M 153.2 920 L 153.2 910" />
        <path d="M 169.8 920 L 169.8 910" />
        <path d="M 186.4 920 L 186.4 910" />
        <path d="M 203 920 L 203 910" />
        <path d="M 219.6 920 L 219.6 910" />
        <path d="M 236.2 920 L 236.2 910" />
        <path d="M 252.8 920 L 252.8 910" />
        <path d="M 269.4 920 L 269.4 910" />
        <path d="M 286 920 L 286 900" />
        <text font-size="30" transform="translate(286, 950)" text-anchor="middle" dominant-baseline="middle" stroke="none" fill="black">10</text>
        <path d="M 302.6 920 L 302.6 910" />
        <path d="M 319.2 920 L 319.2 910" />
        <path d="M 335.8 920 L 335.8 910" />
        <path d="M 352.4 920 L 352.4 910" />
        <path d="M 369 920 L 369 910" />
        <path d="M 385.6 920 L 385.6 910" />
        <path d="M 402.2 920 L 402.2 910" />
        <path d="M 418.8 920 L 418.8 910" />
        <path d="M 435.4 920 L 435.4 910" />
        <path d="M 452 920 L 452 900" />
        <text font-size="30" transform="translate(452, 950)" text-anchor="middle" dominant-baseline="middle" stroke="none" fill="black">20</text>
        <path d="M 468.6 920 L 468.6 910" />
        <path d="M 485.2 920 L 485.2 910" />
        <path d="M 501.8 920 L 501.8 910" />
        <path d="M 518.4 920 L 518.4 910" />
        <path d="M 535 920 L 535 910" />
        <path d="M 551.6 920 L 551.6 910" />
        <path d="M 568.2 920 L 568.2 910" />
        <path d="M 584.8 920 L 584.8 910" />
        <path d="M 601.4 920 L 601.4 910" />
        <path d="M 618 920 L 618 900" />
        <text font-size="30" transform="translate(618, 950)" text-anchor="middle" dominant-baseline="middle" stroke="none" fill="black">30</text>
        <path d="M 634.6 920 L 634.6 910" />
        <path d="M 651.2 920 L 651.2 910" />
        <path d="M 667.8 920 L 667.8 910" />
        <path d="M 684.4 920 L 684.4 910" />
        <path d="M 701 920 L 701 910" />
        <path d="M 717.6 920 L 717.6 910" />
        <path d="M 734.2 920 L 734.2 910" />
        <path d="M 750.8 920 L 750.8 910" />
        <path d="M 767.4 920 L 767.4 910" />
        <path d="M 784 920 L 784 900" />
        <text font-size="30" transform="translate(784, 950)" text-anchor="middle" dominant-baseline="middle" stroke="none" fill="black">40</text>
        <path d="M 800.6 920 L 800.6 910" />
        <path d="M 817.2 920 L 817.2 910" />
        <path d="M 833.8 920 L 833.8 910" />
        <path d="M 850.4 920 L 850.4 910" />
        <path d="M 867 920 L 867 910" />
        <path d="M 883.6 920 L 883.6 910" />
        <path d="M 900.2 920 L 900.2 910" />
        <path d="M 916.8 920 L 916.8 910" />
        <path d="M 933.4 920 L 933.4 910" />
        <path d="M 950 920 L 950 900" />
        <text font-size="30" transform="translate(950, 950)" text-anchor="middle" dominant-baseline="middle" stroke="none" fill="black">50</text>
    </g>
    <g id="frame_0_leftticks">
        <path d="M 120 660.739 L 130 660.739" />
        <path d="M 120 531.108 L 130 531.108" />
        <path d="M 120 482.497 L 130 482.497" />
        <path d="M 120 579.72 L 130 579.72" />
        <path d="M 120 369.07 L 130 369.07" />
        <path d="M 120 498.7 L 130 498.7" />
        <path d="M 120 806.573 L 130 806.573" />
        <path d="M 120 158.42 L 130 158.42" />
        <path d="M 120 676.943 L 130 676.943" />
        <path d="M 120 920 L 140 920" />
        <text font-size="30" transform="translate(110, 930)" text-anchor="end" dominant-baseline="middle" stroke="none" fill="black">0</text>
        <path d="M 120 450.089 L 130 450.089" />
        <path d="M 120 417.681 L 130 417.681" />
        <path d="M 120 288.051 L 130 288.051" />
        <path d="M 120 855.185 L 130 855.185" />
        <path d="M 120 563.516 L 130 563.516" />
        <path d="M 120 207.031 L 130 207.031" />
        <path d="M 120 757.962 L 140 757.962" />
        <text font-size="30" transform="translate(110, 767.962)" text-anchor="end" dominant-baseline="middle" stroke="none" fill="black">10000</text>
        <path d="M 120 595.923 L 140 595.923" />
        <text font-size="30" transform="translate(110, 605.923)" text-anchor="end" dominant-baseline="middle" stroke="none" fill="black">20000</text>
        <path d="M 120 774.166 L 130 774.166" />
        <path d="M 120 433.885 L 140 433.885" />
        <text font-size="30" transform="translate(110, 443.885)" text-anchor="end" dominant-baseline="middle" stroke="none" fill="black">30000</text>
        <path d="M 120 336.662 L 130 336.662" />
        <path d="M 120 693.146 L 130 693.146" />
        <path d="M 120 838.981 L 130 838.981" />
        <path d="M 120 255.643 L 130 255.643" />
        <path d="M 120 612.127 L 130 612.127" />
        <path d="M 120 126.012 L 130 126.012" />
        <path d="M 120 385.274 L 130 385.274" />
        <path d="M 120 790.369 L 130 790.369" />
        <path d="M 120 466.293 L 130 466.293" />
        <path d="M 120 514.904 L 130 514.904" />
        <path d="M 120 709.35 L 130 709.35" />
        <path d="M 120 304.254 L 130 304.254" />
        <path d="M 120 77.4007 L 130 77.4007" />
        <path d="M 120 93.6045 L 130 93.6045" />
        <path d="M 120 887.592 L 130 887.592" />
        <path d="M 120 871.389 L 130 871.389" />
        <path d="M 120 223.235 L 130 223.235" />
        <path d="M 120 547.312 L 130 547.312" />
        <path d="M 120 61.1968 L 130 61.1968" />
        <path d="M 120 352.866 L 130 352.866" />
        <path d="M 120 725.554 L 130 725.554" />
        <path d="M 120 628.331 L 130 628.331" />
        <path d="M 120 142.216 L 130 142.216" />
        <path d="M 120 903.796 L 130 903.796" />
        <path d="M 120 239.439 L 130 239.439" />
        <path d="M 120 401.477 L 130 401.477" />
        <path d="M 120 822.777 L 130 822.777" />
        <path d="M 120 644.535 L 130 644.535" />
        <path d="M 120 271.847 L 140 271.847" />
        <text font-size="30" transform="translate(110, 281.847)" text-anchor="end" dominant-baseline="middle" stroke="none" fill="black">40000</text>
        <path d="M 120 190.828 L 130 190.828" />
        <path d="M 120 109.808 L 140 109.808" />
        <text font-size="30" transform="translate(110, 119.808)" text-anchor="end" dominant-baseline="middle" stroke="none" fill="black">50000</text>
        <path d="M 120 741.758 L 130 741.758" />
        <path d="M 120 320.458 L 130 320.458" />
        <path d="M 120 174.624 L 130 174.624" />
    </g>
    <text id="frame_0_toplabel" font-size="30" transform="translate(535, 32.6)" text-anchor="middle" dominant-baseline="middle" stroke="none" fill="black">prob.dist.poissonQF</text>
    <g id="frame_0_topticks">
        <path d="M 120 50 L 120 70" />
        <path d="M 136.6 50 L 136.6 60" />
        <path d="M 153.2 50 L 153.2 60" />
        <path d="M 169.8 50 L 169.8 60" />
        <path d="M 186.4 50 L 186.4 60" />
        <path d="M 203 50 L 203 60" />
        <path d="M 219.6 50 L 219.6 60" />
        <path d="M 236.2 50 L 236.2 60" />
        <path d="M 252.8 50 L 252.8 60" />
        <path d="M 269.4 50 L 269.4 60" />
        <path d="M 286 50 L 286 70" />
        <path d="M 302.6 50 L 302.6 60" />
        <path d="M 319.2 50 L 319.2 60" />
        <path d="M 335.8 50 L 335.8 60" />
        <path d="M 352.4 50 L 352.4 60" />
        <path d="M 369 50 L 369 60" />
        <path d="M 385.6 50 L 385.6 60" />
        <path d="M 402.2 50 L 402.2 60" />
        <path d="M 418.8 50 L 418.8 60" />
        <path d="M 435.4 50 L 435.4 60" />
        <path d="M 452 50 L 452 70" />
        <path d="M 468.6 50 L 468.6 60" />
        <path d="M 485.2 50 L 485.2 60" />
        <path d="M 501.8 50 L 501.8 60" />
        <path d="M 518.4 50 L 518.4 60" />
        <path d="M 535 50 L 535 60" />
        <path d="M 551.6 50 L 551.6 60" />
        <path d="M 568.2 50 L 568.2 60" />
        <path d="M 584.8 50 L 584.8 60" />
        <path d="M 601.4 50 L 601.4 60" />
        <path d="M 618 50 L 618 70" />
        <path d="M 634.6 50 L 634.6 60" />
        <path d="M 651.2 50 L 651.2 60" />
        <path d="M 667.8 50 L 667.8 60" />
        <path d="M 684.4 50 L 684.4 60" />
        <path d="M 701 50 L 701 60" />
        <path d="M 717.6 50 L 717.6 60" />
        <path d="M 734.2 50 L 734.2 60" />
        <path d="M 750.8 50 L 750.8 60" />
        <path d="M 767.4 50 L 767.4 60" />
        <path d="M 784 50 L 784 70" />
        <path d="M 800.6 50 L 800.6 60" />
        <path d="M 817.2 50 L 817.2 60" />
        <path d="M 833.8 50 L 833.8 60" />
        <path d="M 850.4 50 L 850.4 60" />
        <path d="M 867 50 L 867 60" />
        <path d="M 883.6 50 L 883.6 60" />
        <path d="M 900.2 50 L 900.2 60" />
        <path d="M 916.8 50 L 916.8 60" />
        <path d="M 933.4 50 L 933.4 60" />
        <path d="M 950 50 L 950 70" />
    </g>
    <g id="frame_0_rightticks">
        <path d="M 950 660.739 L 940 660.739" />
        <path d="M 950 531.108 L 940 531.108" />
        <path d="M 950 482.497 L 940 482.497" />
        <path d="M 950 579.72 L 940 579.72" />
        <path d="M 950 369.07 L 940 369.07" />
        <path d="M 950 498.7 L 940 498.7" />
        <path d="M 950 806.573 L 940 806.573" />
        <path d="M 950 158.42 L 940 158.42" />
        <path d="M 950 676.943 L 940 676.943" />
        <path d="M 950 920 L 930 920" />
        <path d="M 950 450.089 L 940 450.089" />
        <path d="M 950 417.681 L 940 417.681" />
        <path d="M 950 288.051 L 940 288.051" />
        <path d="M 950 855.185 L 940 855.185" />
        <path d="M 950 563.516 L 940 563.516" />
        <path d="M 950 207.031 L 940 207.031" />
        <path d="M 950 757.962 L 930 757.962" />
        <path d="M 950 595.923 L 930 595.923" />
        <path d="M 950 774.166 L 940 774.166" />
        <path d="M 950 433.885 L 930 433.885" />
        <path d="M 950 336.662 L 940 336.662" />
        <path d="M 950 693.146 L 940 693.146" />
        <path d="M 950 838.981 L 940 838.981" />
        <path d="M 950 255.643 L 940 255.643" />
        <path d="M 950 612.127 L 940 612.127" />
        <path d="M 950 126.012 L 940 126.012" />
        <path d="M 950 385.274 L 940 385.274" />
        <path d="M 950 790.369 L 940 790.369" />
        <path d="M 950 466.293 L 940 466.293" />
        <path d="M 950 514.904 L 940 514.904" />
        <path d="M 950 709.35 L 940 709.35" />
        <path d="M 950 304.254 L 940 304.254" />
        <path d="M 950 77.4007 L 940 77.4007" />
        <path d="M 950 93.6045 L 940 93.6045" />
        <path d="M 950 887.592 L 940 887.592" />
        <path d="M 950 871.389 L 940 871.389" />
        <path d="M 950 223.235 L 940 223.235" />
        <path d="M 950 547.312 L 940 547.312" />
        <path d="M 950 61.1968 L 940 61.1968" />
        <path d="M 950 352.866 L 940 352.866" />
        <path d="M 950 725.554 L 940 725.554" />
        <path d="M 950 628.331 L 940 628.331" />
        <path d="M 950 142.216 L 940 142.216" />
        <path d="M 950 903.796 L 940 903.796" />
        <path d="M 950 239.439 L 940 239.439" />
        <path d="M 950 401.477 L 940 401.477" />
        <path d="M 950 822.777 L 940 822.777" />
        <path d="M 950 644.535 L 940 644.535" />
        <path d="M 950 271.847 L 930 271.847" />
        <path d="M 950 190.828 L 940 190.828" />
        <path d="M 950 109.808 L 930 109.808" />
        <path d="M 950 741.758 L 940 741.758" />
        <path d="M 950 320.458 L 940 320.458" />
        <path d="M 950 174.624 L 940 174.624" />
    </g>
</g>
</g>
</svg>
