<?xml version="1.0" standalone="no"?>
<!DOCTYPE svg PUBLIC "-//W3C//DTD SVG 1.1//EN" "http://www.w3.org/Graphics/SVG/1.1/DTD/svg11.dtd">
<svg style="stroke-linejoin:miter; stroke:black; stroke-width:2.5; text-anchor:middle; fill:none" xmlns="http://www.w3.org/2000/svg" font-family="Helvetica, Arial, FreeSans, Sans, sans, sans-serif" width="1000px" height="1000px" version="1.1" xmlns:xlink="http://www.w3.org/1999/xlink" viewBox="0 0 1000 1000">
<defs>
    <clipPath id="Histogram_0_clip">
        <rect x="120" y="50" width="830" height="870" />
    </clipPath>
    <clipPath id="Histogram_1_clip">
        <rect x="120" y="50" width="830" height="870" />
    </clipPath>
</defs>
<g id="whole_document">
<rect id="background" x="0" y="0" width="1000" height="1000" stroke="none" fill="white" />
<g id="Histogram_0" clip-path="url(#Histogram_0_clip)">
    <path d="M 120 920 L 120 129.091 L 161.5 129.091 L 161.5 755.368 L 203 755.368 L 203 910.584 L 244.5 910.584 L 244.5 798.912 L 286 798.912 L 286 918.211 L 327.5 918.211 L 327.5 901.636 L 369 901.636 L 369 904.044 L 410.5 904.044 L 410.5 917.742 L 452 917.742 L 452 920 L 493.5 920 L 493.5 920 L 535 920 L 535 920 L 576.5 920 L 576.5 920 L 618 920 L 618 920 L 659.5 920 L 659.5 920 L 701 920 L 701 920 L 742.5 920 L 742.5 920 L 784 920 L 784 920 L 825.5 920 L 825.5 920 L 867 920 L 867 920 L 908.5 920 L 908.5 920 L 950 920 L 950 920" stroke-width="3" stroke-dasharray="" stroke="black" stroke-opacity="1" fill="DodgerBlue" fill-opacity="1" />
</g>
<g id="Histogram_1" clip-path="url(#Histogram_1_clip)">
    <path d="M 120 920 L 120 920 L 161.5 920 L 161.5 920 L 203 920 L 203 920 L 244.5 920 L 244.5 803.471 L 286 803.471 L 286 920 L 327.5 920 L 327.5 916.911 L 369 916.911 L 369 917.273 L 410.5 917.273 L 410.5 917.742 L 452 917.742 L 452 920 L 493.5 920 L 493.5 920 L 535 920 L 535 920 L 576.5 920 L 576.5 920 L 618 920 L 618 920 L 659.5 920 L 659.5 920 L 701 920 L 701 920 L 742.5 920 L 742.5 920 L 784 920 L 784 920 L 825.5 920 L 825.5 920 L 867 920 L 867 920 L 908.5 920 L 908.5 920 L 950 920 L 950 920" stroke-width="3" stroke-dasharray="" stroke="black" stroke-opacity="1" fill="darkorange" fill-opacity="1" />
</g>
<g id="frame_0">
    <rect id="frame_0_border" x="120" y="50" width="830" height="870" />
    <text id="frame_0_bottomlabel" font-size="30" transform="translate(535, 989.6)" text-anchor="middle" dominant-baseline="middle" stroke="none" fill="black">microseconds</text>
    <g id="frame_0_bottomticks">
        <path d="M 120 920 L 120 900" />
        <text font-size="30" transform="translate(120, 950)" text-anchor="middle" dominant-baseline="middle" stroke="none" fill="black">0</text>
        <path d="M 136.6 920 L 136.6 910" />
        <path d="M 153.2 920 L 153.2 910" />
        <path d="M 169.8 920 L 169.8 910" />
        <path d="M 186.4 920 L 186.4 910" />
        <path d="M 203 920 L 203 910" />
        <path d="M 219.6 920 L 219.6 910" />
        <path d="M 236.2 920 L 236.2 910" />
        <path d="M 252.8 920 L 252.8 910" />
        <path d="M 269.4 920 L 269.4 910" />
        <path d="M 286 920 L 286 900" />
        <text font-size="30" transform="translate(286, 950)" text-anchor="middle" dominant-baseline="middle" stroke="none" fill="black">10</text>
        <path d="M 302.6 920 L 302.6 910" />
        <path d="M 319.2 920 L 319.2 910" />
        <path d="M 335.8 920 L 335.8 910" />
        <path d="M 352.4 920 L 352.4 910" />
        <path d="M 369 920 L 369 910" />
        <path d="M 385.6 920 L 385.6 910" />
        <path d="M 402.2 920 L 402.2 910" />
        <path d="M 418.8 920 L 418.8 910" />
        <path d="M 435.4 920 L 435.4 910" />
        <path d="M 452 920 L 452 900" />
        <text font-size="30" transform="translate(452, 950)" text-anchor="middle" dominant-baseline="middle" stroke="none" fill="black">20</text>
        <path d="M 468.6 920 L 468.6 910" />
        <path d="M 485.2 920 L 485.2 910" />
        <path d="M 501.8 920 L 501.8 910" />
        <path d="M 518.4 920 L 518.4 910" />
        <path d="M 535 920 L 535 910" />
        <path d="M 551.6 920 L 551.6 910" />
        <path d="M 568.2 920 L 568.2 910" />
        <path d="M 584.8 920 L 584.8 910" />
        <path d="M 601.4 920 L 601.4 910" />
        <path d="M 618 920 L 618 900" />
        <text font-size="30" transform="translate(618, 950)" text-anchor="middle" dominant-baseline="middle" stroke="none" fill="black">30</text>
        <path d="M 634.6 920 L 634.6 910" />
        <path d="M 651.2 920 L 651.2 910" />
        <path d="M 667.8 920 L 667.8 910" />
        <path d="M 684.4 920 L 684.4 910" />
        <path d="M 701 920 L 701 910" />
        <path d="M 717.6 920 L 717.6 910" />
        <path d="M 734.2 920 L 734.2 910" />
        <path d="M 750.8 920 L 750.8 910" />
        <path d="M 767.4 920 L 767.4 910" />
        <path d="M 784 920 L 784 900" />
        <text font-size="30" transform="translate(784, 950)" text-anchor="middle" dominant-baseline="middle" stroke="none" fill="black">40</text>
        <path d="M 800.6 920 L 800.6 910" />
        <path d="M 817.2 920 L 817.2 910" />
        <path d="M 833.8 920 L 833.8 910" />
        <path d="M 850.4 920 L 850.4 910" />
        <path d="M 867 920 L 867 910" />
        <path d="M 883.6 920 L 883.6 910" />
        <path d="M 900.2 920 L 900.2 910" />
        <path d="M 916.8 920 L 916.8 910" />
        <path d="M 933.4 920 L 933.4 910" />
        <path d="M 950 920 L 950 900" />
        <text font-size="30" transform="translate(950, 950)" text-anchor="middle" dominant-baseline="middle" stroke="none" fill="black">50</text>
    </g>
    <g id="frame_0_leftticks">
        <path d="M 120 579.146 L 130 579.146" />
        <path d="M 120 408.719 L 130 408.719" />
        <path d="M 120 344.809 L 130 344.809" />
        <path d="M 120 472.629 L 130 472.629" />
        <path d="M 120 195.685 L 130 195.685" />
        <path d="M 120 366.112 L 130 366.112" />
        <path d="M 120 770.876 L 130 770.876" />
        <path d="M 120 813.483 L 140 813.483" />
        <text font-size="30" transform="translate(110, 823.483)" text-anchor="end" dominant-baseline="middle" stroke="none" fill="black">5000</text>
        <path d="M 120 259.595 L 130 259.595" />
        <path d="M 120 920 L 140 920" />
        <text font-size="30" transform="translate(110, 930)" text-anchor="end" dominant-baseline="middle" stroke="none" fill="black">0</text>
        <path d="M 120 706.966 L 140 706.966" />
        <text font-size="30" transform="translate(110, 716.966)" text-anchor="end" dominant-baseline="middle" stroke="none" fill="black">10000</text>
        <path d="M 120 89.1684 L 130 89.1684" />
        <path d="M 120 834.787 L 130 834.787" />
        <path d="M 120 451.326 L 130 451.326" />
        <path d="M 120 728.27 L 130 728.27" />
        <path d="M 120 600.449 L 140 600.449" />
        <text font-size="30" transform="translate(110, 610.449)" text-anchor="end" dominant-baseline="middle" stroke="none" fill="black">15000</text>
        <path d="M 120 153.079 L 130 153.079" />
        <path d="M 120 621.753 L 130 621.753" />
        <path d="M 120 302.202 L 130 302.202" />
        <path d="M 120 493.933 L 140 493.933" />
        <text font-size="30" transform="translate(110, 503.933)" text-anchor="end" dominant-baseline="middle" stroke="none" fill="black">20000</text>
        <path d="M 120 515.236 L 130 515.236" />
        <path d="M 120 216.989 L 130 216.989" />
        <path d="M 120 749.573 L 130 749.573" />
        <path d="M 120 323.506 L 130 323.506" />
        <path d="M 120 387.416 L 140 387.416" />
        <text font-size="30" transform="translate(110, 397.416)" text-anchor="end" dominant-baseline="middle" stroke="none" fill="black">25000</text>
        <path d="M 120 643.056 L 130 643.056" />
        <path d="M 120 110.472 L 130 110.472" />
        <path d="M 120 280.899 L 140 280.899" />
        <text font-size="30" transform="translate(110, 290.899)" text-anchor="end" dominant-baseline="middle" stroke="none" fill="black">30000</text>
        <path d="M 120 536.539 L 130 536.539" />
        <path d="M 120 856.09 L 130 856.09" />
        <path d="M 120 430.022 L 130 430.022" />
        <path d="M 120 174.382 L 140 174.382" />
        <text font-size="30" transform="translate(110, 184.382)" text-anchor="end" dominant-baseline="middle" stroke="none" fill="black">35000</text>
        <path d="M 120 664.36 L 130 664.36" />
        <path d="M 120 877.393 L 130 877.393" />
        <path d="M 120 898.697 L 130 898.697" />
        <path d="M 120 238.292 L 130 238.292" />
        <path d="M 120 792.18 L 130 792.18" />
        <path d="M 120 557.843 L 130 557.843" />
        <path d="M 120 67.865 L 140 67.865" />
        <text font-size="30" transform="translate(110, 77.865)" text-anchor="end" dominant-baseline="middle" stroke="none" fill="black">40000</text>
        <path d="M 120 685.663 L 130 685.663" />
        <path d="M 120 131.775 L 130 131.775" />
    </g>
    <text id="frame_0_toplabel" font-size="30" transform="translate(535, 32.6)" text-anchor="middle" dominant-baseline="middle" stroke="none" fill="black">a.min</text>
    <g id="frame_0_topticks">
        <path d="M 120 50 L 120 70" />
        <path d="M 136.6 50 L 136.6 60" />
        <path d="M 153.2 50 L 153.2 60" />
        <path d="M 169.8 50 L 169.8 60" />
        <path d="M 186.4 50 L 186.4 60" />
        <path d="M 203 50 L 203 60" />
        <path d="M 219.6 50 L 219.6 60" />
        <path d="M 236.2 50 L 236.2 60" />
        <path d="M 252.8 50 L 252.8 60" />
        <path d="M 269.4 50 L 269.4 60" />
        <path d="M 286 50 L 286 70" />
        <path d="M 302.6 50 L 302.6 60" />
        <path d="M 319.2 50 L 319.2 60" />
        <path d="M 335.8 50 L 335.8 60" />
        <path d="M 352.4 50 L 352.4 60" />
        <path d="M 369 50 L 369 60" />
        <path d="M 385.6 50 L 385.6 60" />
        <path d="M 402.2 50 L 402.2 60" />
        <path d="M 418.8 50 L 418.8 60" />
        <path d="M 435.4 50 L 435.4 60" />
        <path d="M 452 50 L 452 70" />
        <path d="M 468.6 50 L 468.6 60" />
        <path d="M 485.2 50 L 485.2 60" />
        <path d="M 501.8 50 L 501.8 60" />
        <path d="M 518.4 50 L 518.4 60" />
        <path d="M 535 50 L 535 60" />
        <path d="M 551.6 50 L 551.6 60" />
        <path d="M 568.2 50 L 568.2 60" />
        <path d="M 584.8 50 L 584.8 60" />
        <path d="M 601.4 50 L 601.4 60" />
        <path d="M 618 50 L 618 70" />
        <path d="M 634.6 50 L 634.6 60" />
        <path d="M 651.2 50 L 651.2 60" />
        <path d="M 667.8 50 L 667.8 60" />
        <path d="M 684.4 50 L 684.4 60" />
        <path d="M 701 50 L 701 60" />
        <path d="M 717.6 50 L 717.6 60" />
        <path d="M 734.2 50 L 734.2 60" />
        <path d="M 750.8 50 L 750.8 60" />
        <path d="M 767.4 50 L 767.4 60" />
        <path d="M 784 50 L 784 70" />
        <path d="M 800.6 50 L 800.6 60" />
        <path d="M 817.2 50 L 817.2 60" />
        <path d="M 833.8 50 L 833.8 60" />
        <path d="M 850.4 50 L 850.4 60" />
        <path d="M 867 50 L 867 60" />
        <path d="M 883.6 50 L 883.6 60" />
        <path d="M 900.2 50 L 900.2 60" />
        <path d="M 916.8 50 L 916.8 60" />
        <path d="M 933.4 50 L 933.4 60" />
        <path d="M 950 50 L 950 70" />
    </g>
    <g id="frame_0_rightticks">
        <path d="M 950 579.146 L 940 579.146" />
        <path d="M 950 408.719 L 940 408.719" />
        <path d="M 950 344.809 L 940 344.809" />
        <path d="M 950 472.629 L 940 472.629" />
        <path d="M 950 195.685 L 940 195.685" />
        <path d="M 950 366.112 L 940 366.112" />
        <path d="M 950 770.876 L 940 770.876" />
        <path d="M 950 813.483 L 930 813.483" />
        <path d="M 950 259.595 L 940 259.595" />
        <path d="M 950 920 L 930 920" />
        <path d="M 950 706.966 L 930 706.966" />
        <path d="M 950 89.1684 L 940 89.1684" />
        <path d="M 950 834.787 L 940 834.787" />
        <path d="M 950 451.326 L 940 451.326" />
        <path d="M 950 728.27 L 940 728.27" />
        <path d="M 950 600.449 L 930 600.449" />
        <path d="M 950 153.079 L 940 153.079" />
        <path d="M 950 621.753 L 940 621.753" />
        <path d="M 950 302.202 L 940 302.202" />
        <path d="M 950 493.933 L 930 493.933" />
        <path d="M 950 515.236 L 940 515.236" />
        <path d="M 950 216.989 L 940 216.989" />
        <path d="M 950 749.573 L 940 749.573" />
        <path d="M 950 323.506 L 940 323.506" />
        <path d="M 950 387.416 L 930 387.416" />
        <path d="M 950 643.056 L 940 643.056" />
        <path d="M 950 110.472 L 940 110.472" />
        <path d="M 950 280.899 L 930 280.899" />
        <path d="M 950 536.539 L 940 536.539" />
        <path d="M 950 856.09 L 940 856.09" />
        <path d="M 950 430.022 L 940 430.022" />
        <path d="M 950 174.382 L 930 174.382" />
        <path d="M 950 664.36 L 940 664.36" />
        <path d="M 950 877.393 L 940 877.393" />
        <path d="M 950 898.697 L 940 898.697" />
        <path d="M 950 238.292 L 940 238.292" />
        <path d="M 950 792.18 L 940 792.18" />
        <path d="M 950 557.843 L 940 557.843" />
        <path d="M 950 67.865 L 930 67.865" />
        <path d="M 950 685.663 L 940 685.663" />
        <path d="M 950 131.775 L 940 131.775" />
    </g>
</g>
</g>
</svg>
