<?xml version="1.0" standalone="no"?>
<!DOCTYPE svg PUBLIC "-//W3C//DTD SVG 1.1//EN" "http://www.w3.org/Graphics/SVG/1.1/DTD/svg11.dtd">
<svg style="stroke-linejoin:miter; stroke:black; stroke-width:2.5; text-anchor:middle; fill:none" xmlns="http://www.w3.org/2000/svg" font-family="Helvetica, Arial, FreeSans, Sans, sans, sans-serif" width="1000px" height="1000px" version="1.1" xmlns:xlink="http://www.w3.org/1999/xlink" viewBox="0 0 1000 1000">
<defs>
    <clipPath id="Histogram_0_clip">
        <rect x="120" y="50" width="830" height="870" />
    </clipPath>
    <clipPath id="Histogram_1_clip">
        <rect x="120" y="50" width="830" height="870" />
    </clipPath>
</defs>
<g id="whole_document">
<rect id="background" x="0" y="0" width="1000" height="1000" stroke="none" fill="white" />
<g id="Histogram_0" clip-path="url(#Histogram_0_clip)">
    <path d="M 120 920 L 120 836.835 L 161.5 836.835 L 161.5 681.109 L 203 681.109 L 203 920 L 244.5 920 L 244.5 129.091 L 286 129.091 L 286 443.334 L 327.5 443.334 L 327.5 805.578 L 369 805.578 L 369 838.137 L 410.5 838.137 L 410.5 889.673 L 452 889.673 L 452 893.208 L 493.5 893.208 L 493.5 872.557 L 535 872.557 L 535 898.046 L 576.5 898.046 L 576.5 894.511 L 618 894.511 L 618 895.813 L 659.5 895.813 L 659.5 914.232 L 701 914.232 L 701 914.977 L 742.5 914.977 L 742.5 920 L 784 920 L 784 920 L 825.5 920 L 825.5 920 L 867 920 L 867 920 L 908.5 920 L 908.5 920 L 950 920 L 950 920" stroke-width="3" stroke-dasharray="" stroke="black" stroke-opacity="1" fill="DodgerBlue" fill-opacity="1" />
</g>
<g id="Histogram_1" clip-path="url(#Histogram_1_clip)">
    <path d="M 120 920 L 120 920 L 161.5 920 L 161.5 920 L 203 920 L 203 920 L 244.5 920 L 244.5 129.091 L 286 129.091 L 286 461.009 L 327.5 461.009 L 327.5 805.578 L 369 805.578 L 369 838.137 L 410.5 838.137 L 410.5 889.673 L 452 889.673 L 452 893.208 L 493.5 893.208 L 493.5 872.557 L 535 872.557 L 535 898.046 L 576.5 898.046 L 576.5 894.511 L 618 894.511 L 618 895.813 L 659.5 895.813 L 659.5 914.232 L 701 914.232 L 701 914.977 L 742.5 914.977 L 742.5 920 L 784 920 L 784 920 L 825.5 920 L 825.5 920 L 867 920 L 867 920 L 908.5 920 L 908.5 920 L 950 920 L 950 920" stroke-width="3" stroke-dasharray="" stroke="black" stroke-opacity="1" fill="darkorange" fill-opacity="1" />
</g>
<g id="frame_0">
    <rect id="frame_0_border" x="120" y="50" width="830" height="870" />
    <text id="frame_0_bottomlabel" font-size="30" transform="translate(535, 989.6)" text-anchor="middle" dominant-baseline="middle" stroke="none" fill="black">microseconds</text>
    <g id="frame_0_bottomticks">
        <path d="M 120 920 L 120 900" />
        <text font-size="30" transform="translate(120, 950)" text-anchor="middle" dominant-baseline="middle" stroke="none" fill="black">0</text>
        <path d="M 136.6 920 L 136.6 910" />
        <path d="M 153.2 920 L 153.2 910" />
        <path d="M 169.8 920 L 169.8 910" />
        <path d="M 186.4 920 L 186.4 910" />
        <path d="M 203 920 L 203 910" />
        <path d="M 219.6 920 L 219.6 910" />
        <path d="M 236.2 920 L 236.2 910" />
        <path d="M 252.8 920 L 252.8 910" />
        <path d="M 269.4 920 L 269.4 910" />
        <path d="M 286 920 L 286 900" />
        <text font-size="30" transform="translate(286, 950)" text-anchor="middle" dominant-baseline="middle" stroke="none" fill="black">10</text>
        <path d="M 302.6 920 L 302.6 910" />
        <path d="M 319.2 920 L 319.2 910" />
        <path d="M 335.8 920 L 335.8 910" />
        <path d="M 352.4 920 L 352.4 910" />
        <path d="M 369 920 L 369 910" />
        <path d="M 385.6 920 L 385.6 910" />
        <path d="M 402.2 920 L 402.2 910" />
        <path d="M 418.8 920 L 418.8 910" />
        <path d="M 435.4 920 L 435.4 910" />
        <path d="M 452 920 L 452 900" />
        <text font-size="30" transform="translate(452, 950)" text-anchor="middle" dominant-baseline="middle" stroke="none" fill="black">20</text>
        <path d="M 468.6 920 L 468.6 910" />
        <path d="M 485.2 920 L 485.2 910" />
        <path d="M 501.8 920 L 501.8 910" />
        <path d="M 518.4 920 L 518.4 910" />
        <path d="M 535 920 L 535 910" />
        <path d="M 551.6 920 L 551.6 910" />
        <path d="M 568.2 920 L 568.2 910" />
        <path d="M 584.8 920 L 584.8 910" />
        <path d="M 601.4 920 L 601.4 910" />
        <path d="M 618 920 L 618 900" />
        <text font-size="30" transform="translate(618, 950)" text-anchor="middle" dominant-baseline="middle" stroke="none" fill="black">30</text>
        <path d="M 634.6 920 L 634.6 910" />
        <path d="M 651.2 920 L 651.2 910" />
        <path d="M 667.8 920 L 667.8 910" />
        <path d="M 684.4 920 L 684.4 910" />
        <path d="M 701 920 L 701 910" />
        <path d="M 717.6 920 L 717.6 910" />
        <path d="M 734.2 920 L 734.2 910" />
        <path d="M 750.8 920 L 750.8 910" />
        <path d="M 767.4 920 L 767.4 910" />
        <path d="M 784 920 L 784 900" />
        <text font-size="30" transform="translate(784, 950)" text-anchor="middle" dominant-baseline="middle" stroke="none" fill="black">40</text>
        <path d="M 800.6 920 L 800.6 910" />
        <path d="M 817.2 920 L 817.2 910" />
        <path d="M 833.8 920 L 833.8 910" />
        <path d="M 850.4 920 L 850.4 910" />
        <path d="M 867 920 L 867 910" />
        <path d="M 883.6 920 L 883.6 910" />
        <path d="M 900.2 920 L 900.2 910" />
        <path d="M 916.8 920 L 916.8 910" />
        <path d="M 933.4 920 L 933.4 910" />
        <path d="M 950 920 L 950 900" />
        <text font-size="30" transform="translate(950, 950)" text-anchor="middle" dominant-baseline="middle" stroke="none" fill="black">50</text>
    </g>
    <g id="frame_0_leftticks">
        <path d="M 120 324.632 L 130 324.632" />
        <path d="M 120 920 L 140 920" />
        <text font-size="30" transform="translate(110, 930)" text-anchor="end" dominant-baseline="middle" stroke="none" fill="black">0</text>
        <path d="M 120 752.553 L 130 752.553" />
        <path d="M 120 585.106 L 130 585.106" />
        <path d="M 120 268.816 L 130 268.816" />
        <path d="M 120 417.658 L 130 417.658" />
        <path d="M 120 845.579 L 130 845.579" />
        <path d="M 120 213.001 L 130 213.001" />
        <path d="M 120 678.132 L 130 678.132" />
        <path d="M 120 510.685 L 130 510.685" />
        <path d="M 120 157.185 L 130 157.185" />
        <path d="M 120 343.237 L 130 343.237" />
        <path d="M 120 771.158 L 130 771.158" />
        <path d="M 120 101.369 L 130 101.369" />
        <path d="M 120 603.711 L 130 603.711" />
        <path d="M 120 436.264 L 130 436.264" />
        <path d="M 120 864.184 L 130 864.184" />
        <path d="M 120 696.737 L 130 696.737" />
        <path d="M 120 287.422 L 130 287.422" />
        <path d="M 120 529.29 L 130 529.29" />
        <path d="M 120 361.843 L 140 361.843" />
        <text font-size="30" transform="translate(110, 371.843)" text-anchor="end" dominant-baseline="middle" stroke="none" fill="black">3000</text>
        <path d="M 120 231.606 L 130 231.606" />
        <path d="M 120 789.763 L 130 789.763" />
        <path d="M 120 622.316 L 130 622.316" />
        <path d="M 120 175.79 L 140 175.79" />
        <text font-size="30" transform="translate(110, 185.79)" text-anchor="end" dominant-baseline="middle" stroke="none" fill="black">4000</text>
        <path d="M 120 454.869 L 130 454.869" />
        <path d="M 120 882.79 L 130 882.79" />
        <path d="M 120 119.974 L 130 119.974" />
        <path d="M 120 715.342 L 130 715.342" />
        <path d="M 120 547.895 L 140 547.895" />
        <text font-size="30" transform="translate(110, 557.895)" text-anchor="end" dominant-baseline="middle" stroke="none" fill="black">2000</text>
        <path d="M 120 64.1586 L 130 64.1586" />
        <path d="M 120 380.448 L 130 380.448" />
        <path d="M 120 808.369 L 130 808.369" />
        <path d="M 120 306.027 L 130 306.027" />
        <path d="M 120 640.921 L 130 640.921" />
        <path d="M 120 473.474 L 130 473.474" />
        <path d="M 120 250.211 L 130 250.211" />
        <path d="M 120 901.395 L 130 901.395" />
        <path d="M 120 138.58 L 130 138.58" />
        <path d="M 120 194.395 L 130 194.395" />
        <path d="M 120 566.5 L 130 566.5" />
        <path d="M 120 399.053 L 130 399.053" />
        <path d="M 120 733.948 L 140 733.948" />
        <text font-size="30" transform="translate(110, 743.948)" text-anchor="end" dominant-baseline="middle" stroke="none" fill="black">1000</text>
        <path d="M 120 826.974 L 130 826.974" />
        <path d="M 120 659.527 L 130 659.527" />
        <path d="M 120 82.7638 L 130 82.7638" />
        <path d="M 120 492.079 L 130 492.079" />
    </g>
    <text id="frame_0_toplabel" font-size="30" transform="translate(535, 32.6)" text-anchor="middle" dominant-baseline="middle" stroke="none" fill="black">model.naive.multinomial</text>
    <g id="frame_0_topticks">
        <path d="M 120 50 L 120 70" />
        <path d="M 136.6 50 L 136.6 60" />
        <path d="M 153.2 50 L 153.2 60" />
        <path d="M 169.8 50 L 169.8 60" />
        <path d="M 186.4 50 L 186.4 60" />
        <path d="M 203 50 L 203 60" />
        <path d="M 219.6 50 L 219.6 60" />
        <path d="M 236.2 50 L 236.2 60" />
        <path d="M 252.8 50 L 252.8 60" />
        <path d="M 269.4 50 L 269.4 60" />
        <path d="M 286 50 L 286 70" />
        <path d="M 302.6 50 L 302.6 60" />
        <path d="M 319.2 50 L 319.2 60" />
        <path d="M 335.8 50 L 335.8 60" />
        <path d="M 352.4 50 L 352.4 60" />
        <path d="M 369 50 L 369 60" />
        <path d="M 385.6 50 L 385.6 60" />
        <path d="M 402.2 50 L 402.2 60" />
        <path d="M 418.8 50 L 418.8 60" />
        <path d="M 435.4 50 L 435.4 60" />
        <path d="M 452 50 L 452 70" />
        <path d="M 468.6 50 L 468.6 60" />
        <path d="M 485.2 50 L 485.2 60" />
        <path d="M 501.8 50 L 501.8 60" />
        <path d="M 518.4 50 L 518.4 60" />
        <path d="M 535 50 L 535 60" />
        <path d="M 551.6 50 L 551.6 60" />
        <path d="M 568.2 50 L 568.2 60" />
        <path d="M 584.8 50 L 584.8 60" />
        <path d="M 601.4 50 L 601.4 60" />
        <path d="M 618 50 L 618 70" />
        <path d="M 634.6 50 L 634.6 60" />
        <path d="M 651.2 50 L 651.2 60" />
        <path d="M 667.8 50 L 667.8 60" />
        <path d="M 684.4 50 L 684.4 60" />
        <path d="M 701 50 L 701 60" />
        <path d="M 717.6 50 L 717.6 60" />
        <path d="M 734.2 50 L 734.2 60" />
        <path d="M 750.8 50 L 750.8 60" />
        <path d="M 767.4 50 L 767.4 60" />
        <path d="M 784 50 L 784 70" />
        <path d="M 800.6 50 L 800.6 60" />
        <path d="M 817.2 50 L 817.2 60" />
        <path d="M 833.8 50 L 833.8 60" />
        <path d="M 850.4 50 L 850.4 60" />
        <path d="M 867 50 L 867 60" />
        <path d="M 883.6 50 L 883.6 60" />
        <path d="M 900.2 50 L 900.2 60" />
        <path d="M 916.8 50 L 916.8 60" />
        <path d="M 933.4 50 L 933.4 60" />
        <path d="M 950 50 L 950 70" />
    </g>
    <g id="frame_0_rightticks">
        <path d="M 950 324.632 L 940 324.632" />
        <path d="M 950 920 L 930 920" />
        <path d="M 950 752.553 L 940 752.553" />
        <path d="M 950 585.106 L 940 585.106" />
        <path d="M 950 268.816 L 940 268.816" />
        <path d="M 950 417.658 L 940 417.658" />
        <path d="M 950 845.579 L 940 845.579" />
        <path d="M 950 213.001 L 940 213.001" />
        <path d="M 950 678.132 L 940 678.132" />
        <path d="M 950 510.685 L 940 510.685" />
        <path d="M 950 157.185 L 940 157.185" />
        <path d="M 950 343.237 L 940 343.237" />
        <path d="M 950 771.158 L 940 771.158" />
        <path d="M 950 101.369 L 940 101.369" />
        <path d="M 950 603.711 L 940 603.711" />
        <path d="M 950 436.264 L 940 436.264" />
        <path d="M 950 864.184 L 940 864.184" />
        <path d="M 950 696.737 L 940 696.737" />
        <path d="M 950 287.422 L 940 287.422" />
        <path d="M 950 529.29 L 940 529.29" />
        <path d="M 950 361.843 L 930 361.843" />
        <path d="M 950 231.606 L 940 231.606" />
        <path d="M 950 789.763 L 940 789.763" />
        <path d="M 950 622.316 L 940 622.316" />
        <path d="M 950 175.79 L 930 175.79" />
        <path d="M 950 454.869 L 940 454.869" />
        <path d="M 950 882.79 L 940 882.79" />
        <path d="M 950 119.974 L 940 119.974" />
        <path d="M 950 715.342 L 940 715.342" />
        <path d="M 950 547.895 L 930 547.895" />
        <path d="M 950 64.1586 L 940 64.1586" />
        <path d="M 950 380.448 L 940 380.448" />
        <path d="M 950 808.369 L 940 808.369" />
        <path d="M 950 306.027 L 940 306.027" />
        <path d="M 950 640.921 L 940 640.921" />
        <path d="M 950 473.474 L 940 473.474" />
        <path d="M 950 250.211 L 940 250.211" />
        <path d="M 950 901.395 L 940 901.395" />
        <path d="M 950 138.58 L 940 138.58" />
        <path d="M 950 194.395 L 940 194.395" />
        <path d="M 950 566.5 L 940 566.5" />
        <path d="M 950 399.053 L 940 399.053" />
        <path d="M 950 733.948 L 930 733.948" />
        <path d="M 950 826.974 L 940 826.974" />
        <path d="M 950 659.527 L 940 659.527" />
        <path d="M 950 82.7638 L 940 82.7638" />
        <path d="M 950 492.079 L 940 492.079" />
    </g>
</g>
</g>
</svg>
