<?xml version="1.0" standalone="no"?>
<!DOCTYPE svg PUBLIC "-//W3C//DTD SVG 1.1//EN" "http://www.w3.org/Graphics/SVG/1.1/DTD/svg11.dtd">
<svg style="stroke-linejoin:miter; stroke:black; stroke-width:2.5; text-anchor:middle; fill:none" xmlns="http://www.w3.org/2000/svg" font-family="Helvetica, Arial, FreeSans, Sans, sans, sans-serif" width="1000px" height="1000px" version="1.1" xmlns:xlink="http://www.w3.org/1999/xlink" viewBox="0 0 1000 1000">
<defs>
    <clipPath id="Histogram_0_clip">
        <rect x="120" y="50" width="830" height="870" />
    </clipPath>
</defs>
<g id="whole_document">
<rect id="background" x="0" y="0" width="1000" height="1000" stroke="none" fill="white" />
<g id="Histogram_0" clip-path="url(#Histogram_0_clip)">
    <path d="M 120 920 L 120 129.091 L 161.5 129.091 L 161.5 858.472 L 203 858.472 L 203 920 L 244.5 920 L 244.5 908.299 L 286 908.299 L 286 919.13 L 327.5 919.13 L 327.5 920 L 369 920 L 369 920 L 410.5 920 L 410.5 920 L 452 920 L 452 920 L 493.5 920 L 493.5 920 L 535 920 L 535 920 L 576.5 920 L 576.5 920 L 618 920 L 618 920 L 659.5 920 L 659.5 920 L 701 920 L 701 920 L 742.5 920 L 742.5 920 L 784 920 L 784 920 L 825.5 920 L 825.5 920 L 867 920 L 867 920 L 908.5 920 L 908.5 920 L 950 920 L 950 920" stroke-width="3" stroke-dasharray="" stroke="black" stroke-opacity="1" fill="DodgerBlue" fill-opacity="1" />
</g>
<g id="frame_0">
    <rect id="frame_0_border" x="120" y="50" width="830" height="870" />
    <text id="frame_0_bottomlabel" font-size="30" transform="translate(535, 989.6)" text-anchor="middle" dominant-baseline="middle" stroke="none" fill="black">microseconds</text>
    <g id="frame_0_bottomticks">
        <path d="M 120 920 L 120 900" />
        <text font-size="30" transform="translate(120, 950)" text-anchor="middle" dominant-baseline="middle" stroke="none" fill="black">0</text>
        <path d="M 136.6 920 L 136.6 910" />
        <path d="M 153.2 920 L 153.2 910" />
        <path d="M 169.8 920 L 169.8 910" />
        <path d="M 186.4 920 L 186.4 910" />
        <path d="M 203 920 L 203 910" />
        <path d="M 219.6 920 L 219.6 910" />
        <path d="M 236.2 920 L 236.2 910" />
        <path d="M 252.8 920 L 252.8 910" />
        <path d="M 269.4 920 L 269.4 910" />
        <path d="M 286 920 L 286 900" />
        <text font-size="30" transform="translate(286, 950)" text-anchor="middle" dominant-baseline="middle" stroke="none" fill="black">10</text>
        <path d="M 302.6 920 L 302.6 910" />
        <path d="M 319.2 920 L 319.2 910" />
        <path d="M 335.8 920 L 335.8 910" />
        <path d="M 352.4 920 L 352.4 910" />
        <path d="M 369 920 L 369 910" />
        <path d="M 385.6 920 L 385.6 910" />
        <path d="M 402.2 920 L 402.2 910" />
        <path d="M 418.8 920 L 418.8 910" />
        <path d="M 435.4 920 L 435.4 910" />
        <path d="M 452 920 L 452 900" />
        <text font-size="30" transform="translate(452, 950)" text-anchor="middle" dominant-baseline="middle" stroke="none" fill="black">20</text>
        <path d="M 468.6 920 L 468.6 910" />
        <path d="M 485.2 920 L 485.2 910" />
        <path d="M 501.8 920 L 501.8 910" />
        <path d="M 518.4 920 L 518.4 910" />
        <path d="M 535 920 L 535 910" />
        <path d="M 551.6 920 L 551.6 910" />
        <path d="M 568.2 920 L 568.2 910" />
        <path d="M 584.8 920 L 584.8 910" />
        <path d="M 601.4 920 L 601.4 910" />
        <path d="M 618 920 L 618 900" />
        <text font-size="30" transform="translate(618, 950)" text-anchor="middle" dominant-baseline="middle" stroke="none" fill="black">30</text>
        <path d="M 634.6 920 L 634.6 910" />
        <path d="M 651.2 920 L 651.2 910" />
        <path d="M 667.8 920 L 667.8 910" />
        <path d="M 684.4 920 L 684.4 910" />
        <path d="M 701 920 L 701 910" />
        <path d="M 717.6 920 L 717.6 910" />
        <path d="M 734.2 920 L 734.2 910" />
        <path d="M 750.8 920 L 750.8 910" />
        <path d="M 767.4 920 L 767.4 910" />
        <path d="M 784 920 L 784 900" />
        <text font-size="30" transform="translate(784, 950)" text-anchor="middle" dominant-baseline="middle" stroke="none" fill="black">40</text>
        <path d="M 800.6 920 L 800.6 910" />
        <path d="M 817.2 920 L 817.2 910" />
        <path d="M 833.8 920 L 833.8 910" />
        <path d="M 850.4 920 L 850.4 910" />
        <path d="M 867 920 L 867 910" />
        <path d="M 883.6 920 L 883.6 910" />
        <path d="M 900.2 920 L 900.2 910" />
        <path d="M 916.8 920 L 916.8 910" />
        <path d="M 933.4 920 L 933.4 910" />
        <path d="M 950 920 L 950 900" />
        <text font-size="30" transform="translate(950, 950)" text-anchor="middle" dominant-baseline="middle" stroke="none" fill="black">50</text>
    </g>
    <g id="frame_0_leftticks">
        <path d="M 120 201.966 L 130 201.966" />
        <path d="M 120 272.758 L 130 272.758" />
        <path d="M 120 920 L 140 920" />
        <text font-size="30" transform="translate(110, 930)" text-anchor="end" dominant-baseline="middle" stroke="none" fill="black">0</text>
        <path d="M 120 70.4953 L 130 70.4953" />
        <path d="M 120 60.3822 L 130 60.3822" />
        <path d="M 120 737.963 L 130 737.963" />
        <path d="M 120 788.529 L 130 788.529" />
        <path d="M 120 495.248 L 130 495.248" />
        <path d="M 120 525.587 L 130 525.587" />
        <path d="M 120 282.871 L 130 282.871" />
        <path d="M 120 818.868 L 140 818.868" />
        <text font-size="30" transform="translate(110, 828.868)" text-anchor="end" dominant-baseline="middle" stroke="none" fill="black">10000</text>
        <path d="M 120 394.116 L 130 394.116" />
        <path d="M 120 778.416 L 130 778.416" />
        <path d="M 120 262.645 L 130 262.645" />
        <path d="M 120 828.982 L 130 828.982" />
        <path d="M 120 555.927 L 130 555.927" />
        <path d="M 120 292.985 L 130 292.985" />
        <path d="M 120 707.624 L 130 707.624" />
        <path d="M 120 717.737 L 140 717.737" />
        <text font-size="30" transform="translate(110, 727.737)" text-anchor="end" dominant-baseline="middle" stroke="none" fill="black">20000</text>
        <path d="M 120 727.85 L 130 727.85" />
        <path d="M 120 161.514 L 130 161.514" />
        <path d="M 120 839.095 L 130 839.095" />
        <path d="M 120 475.021 L 130 475.021" />
        <path d="M 120 454.795 L 130 454.795" />
        <path d="M 120 626.719 L 130 626.719" />
        <path d="M 120 748.076 L 130 748.076" />
        <path d="M 120 616.605 L 140 616.605" />
        <text font-size="30" transform="translate(110, 626.605)" text-anchor="end" dominant-baseline="middle" stroke="none" fill="black">30000</text>
        <path d="M 120 90.7216 L 130 90.7216" />
        <path d="M 120 404.229 L 130 404.229" />
        <path d="M 120 909.887 L 130 909.887" />
        <path d="M 120 849.208 L 130 849.208" />
        <path d="M 120 353.664 L 130 353.664" />
        <path d="M 120 636.832 L 130 636.832" />
        <path d="M 120 333.437 L 130 333.437" />
        <path d="M 120 100.835 L 130 100.835" />
        <path d="M 120 859.321 L 130 859.321" />
        <path d="M 120 808.755 L 130 808.755" />
        <path d="M 120 384.003 L 130 384.003" />
        <path d="M 120 535.7 L 130 535.7" />
        <path d="M 120 424.456 L 130 424.456" />
        <path d="M 120 363.777 L 130 363.777" />
        <path d="M 120 414.342 L 140 414.342" />
        <text font-size="30" transform="translate(110, 424.342)" text-anchor="end" dominant-baseline="middle" stroke="none" fill="black">50000</text>
        <path d="M 120 646.945 L 130 646.945" />
        <path d="M 120 121.061 L 130 121.061" />
        <path d="M 120 758.19 L 130 758.19" />
        <path d="M 120 191.853 L 130 191.853" />
        <path d="M 120 545.813 L 130 545.813" />
        <path d="M 120 222.193 L 130 222.193" />
        <path d="M 120 657.058 L 130 657.058" />
        <path d="M 120 768.303 L 130 768.303" />
        <path d="M 120 869.434 L 130 869.434" />
        <path d="M 120 444.682 L 130 444.682" />
        <path d="M 120 313.211 L 140 313.211" />
        <text font-size="30" transform="translate(110, 323.211)" text-anchor="end" dominant-baseline="middle" stroke="none" fill="black">60000</text>
        <path d="M 120 606.492 L 130 606.492" />
        <path d="M 120 181.74 L 130 181.74" />
        <path d="M 120 232.306 L 130 232.306" />
        <path d="M 120 50.269 L 130 50.269" />
        <path d="M 120 899.774 L 130 899.774" />
        <path d="M 120 343.55 L 130 343.55" />
        <path d="M 120 131.174 L 130 131.174" />
        <path d="M 120 303.098 L 130 303.098" />
        <path d="M 120 80.6085 L 130 80.6085" />
        <path d="M 120 242.419 L 130 242.419" />
        <path d="M 120 212.079 L 140 212.079" />
        <text font-size="30" transform="translate(110, 222.079)" text-anchor="end" dominant-baseline="middle" stroke="none" fill="black">70000</text>
        <path d="M 120 798.642 L 130 798.642" />
        <path d="M 120 677.284 L 130 677.284" />
        <path d="M 120 879.547 L 130 879.547" />
        <path d="M 120 667.171 L 130 667.171" />
        <path d="M 120 141.287 L 130 141.287" />
        <path d="M 120 110.948 L 140 110.948" />
        <text font-size="30" transform="translate(110, 120.948)" text-anchor="end" dominant-baseline="middle" stroke="none" fill="black">80000</text>
        <path d="M 120 252.532 L 130 252.532" />
        <path d="M 120 323.324 L 130 323.324" />
        <path d="M 120 687.398 L 130 687.398" />
        <path d="M 120 566.04 L 130 566.04" />
        <path d="M 120 151.401 L 130 151.401" />
        <path d="M 120 576.153 L 130 576.153" />
        <path d="M 120 434.569 L 130 434.569" />
        <path d="M 120 373.89 L 130 373.89" />
        <path d="M 120 586.266 L 130 586.266" />
        <path d="M 120 596.379 L 130 596.379" />
        <path d="M 120 171.627 L 130 171.627" />
        <path d="M 120 697.511 L 130 697.511" />
        <path d="M 120 505.361 L 130 505.361" />
        <path d="M 120 515.474 L 140 515.474" />
        <text font-size="30" transform="translate(110, 525.474)" text-anchor="end" dominant-baseline="middle" stroke="none" fill="black">40000</text>
        <path d="M 120 889.661 L 130 889.661" />
        <path d="M 120 464.908 L 130 464.908" />
        <path d="M 120 485.135 L 130 485.135" />
    </g>
    <text id="frame_0_toplabel" font-size="30" transform="translate(535, 32.6)" text-anchor="middle" dominant-baseline="middle" stroke="none" fill="black">a.sortLT</text>
    <g id="frame_0_topticks">
        <path d="M 120 50 L 120 70" />
        <path d="M 136.6 50 L 136.6 60" />
        <path d="M 153.2 50 L 153.2 60" />
        <path d="M 169.8 50 L 169.8 60" />
        <path d="M 186.4 50 L 186.4 60" />
        <path d="M 203 50 L 203 60" />
        <path d="M 219.6 50 L 219.6 60" />
        <path d="M 236.2 50 L 236.2 60" />
        <path d="M 252.8 50 L 252.8 60" />
        <path d="M 269.4 50 L 269.4 60" />
        <path d="M 286 50 L 286 70" />
        <path d="M 302.6 50 L 302.6 60" />
        <path d="M 319.2 50 L 319.2 60" />
        <path d="M 335.8 50 L 335.8 60" />
        <path d="M 352.4 50 L 352.4 60" />
        <path d="M 369 50 L 369 60" />
        <path d="M 385.6 50 L 385.6 60" />
        <path d="M 402.2 50 L 402.2 60" />
        <path d="M 418.8 50 L 418.8 60" />
        <path d="M 435.4 50 L 435.4 60" />
        <path d="M 452 50 L 452 70" />
        <path d="M 468.6 50 L 468.6 60" />
        <path d="M 485.2 50 L 485.2 60" />
        <path d="M 501.8 50 L 501.8 60" />
        <path d="M 518.4 50 L 518.4 60" />
        <path d="M 535 50 L 535 60" />
        <path d="M 551.6 50 L 551.6 60" />
        <path d="M 568.2 50 L 568.2 60" />
        <path d="M 584.8 50 L 584.8 60" />
        <path d="M 601.4 50 L 601.4 60" />
        <path d="M 618 50 L 618 70" />
        <path d="M 634.6 50 L 634.6 60" />
        <path d="M 651.2 50 L 651.2 60" />
        <path d="M 667.8 50 L 667.8 60" />
        <path d="M 684.4 50 L 684.4 60" />
        <path d="M 701 50 L 701 60" />
        <path d="M 717.6 50 L 717.6 60" />
        <path d="M 734.2 50 L 734.2 60" />
        <path d="M 750.8 50 L 750.8 60" />
        <path d="M 767.4 50 L 767.4 60" />
        <path d="M 784 50 L 784 70" />
        <path d="M 800.6 50 L 800.6 60" />
        <path d="M 817.2 50 L 817.2 60" />
        <path d="M 833.8 50 L 833.8 60" />
        <path d="M 850.4 50 L 850.4 60" />
        <path d="M 867 50 L 867 60" />
        <path d="M 883.6 50 L 883.6 60" />
        <path d="M 900.2 50 L 900.2 60" />
        <path d="M 916.8 50 L 916.8 60" />
        <path d="M 933.4 50 L 933.4 60" />
        <path d="M 950 50 L 950 70" />
    </g>
    <g id="frame_0_rightticks">
        <path d="M 950 201.966 L 940 201.966" />
        <path d="M 950 272.758 L 940 272.758" />
        <path d="M 950 920 L 930 920" />
        <path d="M 950 70.4953 L 940 70.4953" />
        <path d="M 950 60.3822 L 940 60.3822" />
        <path d="M 950 737.963 L 940 737.963" />
        <path d="M 950 788.529 L 940 788.529" />
        <path d="M 950 495.248 L 940 495.248" />
        <path d="M 950 525.587 L 940 525.587" />
        <path d="M 950 282.871 L 940 282.871" />
        <path d="M 950 818.868 L 930 818.868" />
        <path d="M 950 394.116 L 940 394.116" />
        <path d="M 950 778.416 L 940 778.416" />
        <path d="M 950 262.645 L 940 262.645" />
        <path d="M 950 828.982 L 940 828.982" />
        <path d="M 950 555.927 L 940 555.927" />
        <path d="M 950 292.985 L 940 292.985" />
        <path d="M 950 707.624 L 940 707.624" />
        <path d="M 950 717.737 L 930 717.737" />
        <path d="M 950 727.85 L 940 727.85" />
        <path d="M 950 161.514 L 940 161.514" />
        <path d="M 950 839.095 L 940 839.095" />
        <path d="M 950 475.021 L 940 475.021" />
        <path d="M 950 454.795 L 940 454.795" />
        <path d="M 950 626.719 L 940 626.719" />
        <path d="M 950 748.076 L 940 748.076" />
        <path d="M 950 616.605 L 930 616.605" />
        <path d="M 950 90.7216 L 940 90.7216" />
        <path d="M 950 404.229 L 940 404.229" />
        <path d="M 950 909.887 L 940 909.887" />
        <path d="M 950 849.208 L 940 849.208" />
        <path d="M 950 353.664 L 940 353.664" />
        <path d="M 950 636.832 L 940 636.832" />
        <path d="M 950 333.437 L 940 333.437" />
        <path d="M 950 100.835 L 940 100.835" />
        <path d="M 950 859.321 L 940 859.321" />
        <path d="M 950 808.755 L 940 808.755" />
        <path d="M 950 384.003 L 940 384.003" />
        <path d="M 950 535.7 L 940 535.7" />
        <path d="M 950 424.456 L 940 424.456" />
        <path d="M 950 363.777 L 940 363.777" />
        <path d="M 950 414.342 L 930 414.342" />
        <path d="M 950 646.945 L 940 646.945" />
        <path d="M 950 121.061 L 940 121.061" />
        <path d="M 950 758.19 L 940 758.19" />
        <path d="M 950 191.853 L 940 191.853" />
        <path d="M 950 545.813 L 940 545.813" />
        <path d="M 950 222.193 L 940 222.193" />
        <path d="M 950 657.058 L 940 657.058" />
        <path d="M 950 768.303 L 940 768.303" />
        <path d="M 950 869.434 L 940 869.434" />
        <path d="M 950 444.682 L 940 444.682" />
        <path d="M 950 313.211 L 930 313.211" />
        <path d="M 950 606.492 L 940 606.492" />
        <path d="M 950 181.74 L 940 181.74" />
        <path d="M 950 232.306 L 940 232.306" />
        <path d="M 950 50.269 L 940 50.269" />
        <path d="M 950 899.774 L 940 899.774" />
        <path d="M 950 343.55 L 940 343.55" />
        <path d="M 950 131.174 L 940 131.174" />
        <path d="M 950 303.098 L 940 303.098" />
        <path d="M 950 80.6085 L 940 80.6085" />
        <path d="M 950 242.419 L 940 242.419" />
        <path d="M 950 212.079 L 930 212.079" />
        <path d="M 950 798.642 L 940 798.642" />
        <path d="M 950 677.284 L 940 677.284" />
        <path d="M 950 879.547 L 940 879.547" />
        <path d="M 950 667.171 L 940 667.171" />
        <path d="M 950 141.287 L 940 141.287" />
        <path d="M 950 110.948 L 930 110.948" />
        <path d="M 950 252.532 L 940 252.532" />
        <path d="M 950 323.324 L 940 323.324" />
        <path d="M 950 687.398 L 940 687.398" />
        <path d="M 950 566.04 L 940 566.04" />
        <path d="M 950 151.401 L 940 151.401" />
        <path d="M 950 576.153 L 940 576.153" />
        <path d="M 950 434.569 L 940 434.569" />
        <path d="M 950 373.89 L 940 373.89" />
        <path d="M 950 586.266 L 940 586.266" />
        <path d="M 950 596.379 L 940 596.379" />
        <path d="M 950 171.627 L 940 171.627" />
        <path d="M 950 697.511 L 940 697.511" />
        <path d="M 950 505.361 L 940 505.361" />
        <path d="M 950 515.474 L 930 515.474" />
        <path d="M 950 889.661 L 940 889.661" />
        <path d="M 950 464.908 L 940 464.908" />
        <path d="M 950 485.135 L 940 485.135" />
    </g>
</g>
</g>
</svg>
