<?xml version="1.0" standalone="no"?>
<!DOCTYPE svg PUBLIC "-//W3C//DTD SVG 1.1//EN" "http://www.w3.org/Graphics/SVG/1.1/DTD/svg11.dtd">
<svg style="stroke-linejoin:miter; stroke:black; stroke-width:2.5; text-anchor:middle; fill:none" xmlns="http://www.w3.org/2000/svg" font-family="Helvetica, Arial, FreeSans, Sans, sans, sans-serif" width="1000px" height="1000px" version="1.1" xmlns:xlink="http://www.w3.org/1999/xlink" viewBox="0 0 1000 1000">
<defs>
    <clipPath id="Histogram_0_clip">
        <rect x="120" y="50" width="830" height="870" />
    </clipPath>
</defs>
<g id="whole_document">
<rect id="background" x="0" y="0" width="1000" height="1000" stroke="none" fill="white" />
<g id="Histogram_0" clip-path="url(#Histogram_0_clip)">
    <path d="M 120 920 L 120 129.091 L 161.5 129.091 L 161.5 920 L 203 920 L 203 920 L 244.5 920 L 244.5 920 L 286 920 L 286 920 L 327.5 920 L 327.5 920 L 369 920 L 369 920 L 410.5 920 L 410.5 920 L 452 920 L 452 920 L 493.5 920 L 493.5 920 L 535 920 L 535 920 L 576.5 920 L 576.5 920 L 618 920 L 618 920 L 659.5 920 L 659.5 920 L 701 920 L 701 920 L 742.5 920 L 742.5 920 L 784 920 L 784 920 L 825.5 920 L 825.5 920 L 867 920 L 867 920 L 908.5 920 L 908.5 920 L 950 920 L 950 920" stroke-width="3" stroke-dasharray="" stroke="black" stroke-opacity="1" fill="DodgerBlue" fill-opacity="1" />
</g>
<g id="frame_0">
    <rect id="frame_0_border" x="120" y="50" width="830" height="870" />
    <text id="frame_0_bottomlabel" font-size="30" transform="translate(535, 989.6)" text-anchor="middle" dominant-baseline="middle" stroke="none" fill="black">microseconds</text>
    <g id="frame_0_bottomticks">
        <path d="M 120 920 L 120 900" />
        <text font-size="30" transform="translate(120, 950)" text-anchor="middle" dominant-baseline="middle" stroke="none" fill="black">0</text>
        <path d="M 136.6 920 L 136.6 910" />
        <path d="M 153.2 920 L 153.2 910" />
        <path d="M 169.8 920 L 169.8 910" />
        <path d="M 186.4 920 L 186.4 910" />
        <path d="M 203 920 L 203 910" />
        <path d="M 219.6 920 L 219.6 910" />
        <path d="M 236.2 920 L 236.2 910" />
        <path d="M 252.8 920 L 252.8 910" />
        <path d="M 269.4 920 L 269.4 910" />
        <path d="M 286 920 L 286 900" />
        <text font-size="30" transform="translate(286, 950)" text-anchor="middle" dominant-baseline="middle" stroke="none" fill="black">10</text>
        <path d="M 302.6 920 L 302.6 910" />
        <path d="M 319.2 920 L 319.2 910" />
        <path d="M 335.8 920 L 335.8 910" />
        <path d="M 352.4 920 L 352.4 910" />
        <path d="M 369 920 L 369 910" />
        <path d="M 385.6 920 L 385.6 910" />
        <path d="M 402.2 920 L 402.2 910" />
        <path d="M 418.8 920 L 418.8 910" />
        <path d="M 435.4 920 L 435.4 910" />
        <path d="M 452 920 L 452 900" />
        <text font-size="30" transform="translate(452, 950)" text-anchor="middle" dominant-baseline="middle" stroke="none" fill="black">20</text>
        <path d="M 468.6 920 L 468.6 910" />
        <path d="M 485.2 920 L 485.2 910" />
        <path d="M 501.8 920 L 501.8 910" />
        <path d="M 518.4 920 L 518.4 910" />
        <path d="M 535 920 L 535 910" />
        <path d="M 551.6 920 L 551.6 910" />
        <path d="M 568.2 920 L 568.2 910" />
        <path d="M 584.8 920 L 584.8 910" />
        <path d="M 601.4 920 L 601.4 910" />
        <path d="M 618 920 L 618 900" />
        <text font-size="30" transform="translate(618, 950)" text-anchor="middle" dominant-baseline="middle" stroke="none" fill="black">30</text>
        <path d="M 634.6 920 L 634.6 910" />
        <path d="M 651.2 920 L 651.2 910" />
        <path d="M 667.8 920 L 667.8 910" />
        <path d="M 684.4 920 L 684.4 910" />
        <path d="M 701 920 L 701 910" />
        <path d="M 717.6 920 L 717.6 910" />
        <path d="M 734.2 920 L 734.2 910" />
        <path d="M 750.8 920 L 750.8 910" />
        <path d="M 767.4 920 L 767.4 910" />
        <path d="M 784 920 L 784 900" />
        <text font-size="30" transform="translate(784, 950)" text-anchor="middle" dominant-baseline="middle" stroke="none" fill="black">40</text>
        <path d="M 800.6 920 L 800.6 910" />
        <path d="M 817.2 920 L 817.2 910" />
        <path d="M 833.8 920 L 833.8 910" />
        <path d="M 850.4 920 L 850.4 910" />
        <path d="M 867 920 L 867 910" />
        <path d="M 883.6 920 L 883.6 910" />
        <path d="M 900.2 920 L 900.2 910" />
        <path d="M 916.8 920 L 916.8 910" />
        <path d="M 933.4 920 L 933.4 910" />
        <path d="M 950 920 L 950 900" />
        <text font-size="30" transform="translate(950, 950)" text-anchor="middle" dominant-baseline="middle" stroke="none" fill="black">50</text>
    </g>
    <g id="frame_0_leftticks">
        <path d="M 120 541.348 L 130 541.348" />
        <path d="M 120 352.022 L 130 352.022" />
        <path d="M 120 813.504 L 130 813.504" />
        <path d="M 120 150.863 L 130 150.863" />
        <path d="M 120 920 L 140 920" />
        <text font-size="30" transform="translate(110, 930)" text-anchor="end" dominant-baseline="middle" stroke="none" fill="black">0</text>
        <path d="M 120 707.008 L 130 707.008" />
        <path d="M 120 505.85 L 130 505.85" />
        <path d="M 120 600.512 L 130 600.512" />
        <path d="M 120 872.669 L 130 872.669" />
        <path d="M 120 470.351 L 130 470.351" />
        <path d="M 120 198.195 L 130 198.195" />
        <path d="M 120 766.173 L 130 766.173" />
        <path d="M 120 659.677 L 130 659.677" />
        <path d="M 120 434.852 L 130 434.852" />
        <path d="M 120 553.181 L 130 553.181" />
        <path d="M 120 825.337 L 130 825.337" />
        <path d="M 120 399.354 L 130 399.354" />
        <path d="M 120 269.192 L 130 269.192" />
        <path d="M 120 718.841 L 130 718.841" />
        <path d="M 120 221.861 L 130 221.861" />
        <path d="M 120 68.0333 L 130 68.0333" />
        <path d="M 120 612.345 L 130 612.345" />
        <path d="M 120 363.855 L 130 363.855" />
        <path d="M 120 884.501 L 130 884.501" />
        <path d="M 120 778.006 L 130 778.006" />
        <path d="M 120 517.682 L 130 517.682" />
        <path d="M 120 671.51 L 130 671.51" />
        <path d="M 120 683.343 L 140 683.343" />
        <text font-size="30" transform="translate(110, 693.343)" text-anchor="end" dominant-baseline="middle" stroke="none" fill="black">2000</text>
        <path d="M 120 186.362 L 130 186.362" />
        <path d="M 120 482.184 L 130 482.184" />
        <path d="M 120 115.365 L 130 115.365" />
        <path d="M 120 837.17 L 130 837.17" />
        <path d="M 120 730.674 L 130 730.674" />
        <path d="M 120 257.359 L 130 257.359" />
        <path d="M 120 292.858 L 130 292.858" />
        <path d="M 120 624.178 L 130 624.178" />
        <path d="M 120 896.334 L 130 896.334" />
        <path d="M 120 411.187 L 130 411.187" />
        <path d="M 120 789.838 L 130 789.838" />
        <path d="M 120 316.524 L 130 316.524" />
        <path d="M 120 162.696 L 130 162.696" />
        <path d="M 120 304.691 L 130 304.691" />
        <path d="M 120 375.688 L 130 375.688" />
        <path d="M 120 446.685 L 140 446.685" />
        <text font-size="30" transform="translate(110, 456.685)" text-anchor="end" dominant-baseline="middle" stroke="none" fill="black">4000</text>
        <path d="M 120 576.847 L 130 576.847" />
        <path d="M 120 801.671 L 140 801.671" />
        <text font-size="30" transform="translate(110, 811.671)" text-anchor="end" dominant-baseline="middle" stroke="none" fill="black">1000</text>
        <path d="M 120 340.189 L 130 340.189" />
        <path d="M 120 849.003 L 130 849.003" />
        <path d="M 120 529.515 L 130 529.515" />
        <path d="M 120 139.031 L 130 139.031" />
        <path d="M 120 742.507 L 130 742.507" />
        <path d="M 120 210.028 L 140 210.028" />
        <text font-size="30" transform="translate(110, 220.028)" text-anchor="end" dominant-baseline="middle" stroke="none" fill="black">6000</text>
        <path d="M 120 328.356 L 140 328.356" />
        <text font-size="30" transform="translate(110, 338.356)" text-anchor="end" dominant-baseline="middle" stroke="none" fill="black">5000</text>
        <path d="M 120 636.011 L 130 636.011" />
        <path d="M 120 494.017 L 130 494.017" />
        <path d="M 120 56.2004 L 130 56.2004" />
        <path d="M 120 908.167 L 130 908.167" />
        <path d="M 120 174.529 L 130 174.529" />
        <path d="M 120 423.019 L 130 423.019" />
        <path d="M 120 458.518 L 130 458.518" />
        <path d="M 120 79.8662 L 130 79.8662" />
        <path d="M 120 695.175 L 130 695.175" />
        <path d="M 120 588.68 L 130 588.68" />
        <path d="M 120 233.693 L 130 233.693" />
        <path d="M 120 565.014 L 140 565.014" />
        <text font-size="30" transform="translate(110, 575.014)" text-anchor="end" dominant-baseline="middle" stroke="none" fill="black">3000</text>
        <path d="M 120 860.836 L 130 860.836" />
        <path d="M 120 103.532 L 130 103.532" />
        <path d="M 120 245.526 L 130 245.526" />
        <path d="M 120 91.699 L 140 91.699" />
        <text font-size="30" transform="translate(110, 101.699)" text-anchor="end" dominant-baseline="middle" stroke="none" fill="black">7000</text>
        <path d="M 120 754.34 L 130 754.34" />
        <path d="M 120 387.521 L 130 387.521" />
        <path d="M 120 647.844 L 130 647.844" />
        <path d="M 120 281.025 L 130 281.025" />
        <path d="M 120 127.198 L 130 127.198" />
    </g>
    <text id="frame_0_toplabel" font-size="30" transform="translate(535, 32.6)" text-anchor="middle" dominant-baseline="middle" stroke="none" fill="black">m.e</text>
    <g id="frame_0_topticks">
        <path d="M 120 50 L 120 70" />
        <path d="M 136.6 50 L 136.6 60" />
        <path d="M 153.2 50 L 153.2 60" />
        <path d="M 169.8 50 L 169.8 60" />
        <path d="M 186.4 50 L 186.4 60" />
        <path d="M 203 50 L 203 60" />
        <path d="M 219.6 50 L 219.6 60" />
        <path d="M 236.2 50 L 236.2 60" />
        <path d="M 252.8 50 L 252.8 60" />
        <path d="M 269.4 50 L 269.4 60" />
        <path d="M 286 50 L 286 70" />
        <path d="M 302.6 50 L 302.6 60" />
        <path d="M 319.2 50 L 319.2 60" />
        <path d="M 335.8 50 L 335.8 60" />
        <path d="M 352.4 50 L 352.4 60" />
        <path d="M 369 50 L 369 60" />
        <path d="M 385.6 50 L 385.6 60" />
        <path d="M 402.2 50 L 402.2 60" />
        <path d="M 418.8 50 L 418.8 60" />
        <path d="M 435.4 50 L 435.4 60" />
        <path d="M 452 50 L 452 70" />
        <path d="M 468.6 50 L 468.6 60" />
        <path d="M 485.2 50 L 485.2 60" />
        <path d="M 501.8 50 L 501.8 60" />
        <path d="M 518.4 50 L 518.4 60" />
        <path d="M 535 50 L 535 60" />
        <path d="M 551.6 50 L 551.6 60" />
        <path d="M 568.2 50 L 568.2 60" />
        <path d="M 584.8 50 L 584.8 60" />
        <path d="M 601.4 50 L 601.4 60" />
        <path d="M 618 50 L 618 70" />
        <path d="M 634.6 50 L 634.6 60" />
        <path d="M 651.2 50 L 651.2 60" />
        <path d="M 667.8 50 L 667.8 60" />
        <path d="M 684.4 50 L 684.4 60" />
        <path d="M 701 50 L 701 60" />
        <path d="M 717.6 50 L 717.6 60" />
        <path d="M 734.2 50 L 734.2 60" />
        <path d="M 750.8 50 L 750.8 60" />
        <path d="M 767.4 50 L 767.4 60" />
        <path d="M 784 50 L 784 70" />
        <path d="M 800.6 50 L 800.6 60" />
        <path d="M 817.2 50 L 817.2 60" />
        <path d="M 833.8 50 L 833.8 60" />
        <path d="M 850.4 50 L 850.4 60" />
        <path d="M 867 50 L 867 60" />
        <path d="M 883.6 50 L 883.6 60" />
        <path d="M 900.2 50 L 900.2 60" />
        <path d="M 916.8 50 L 916.8 60" />
        <path d="M 933.4 50 L 933.4 60" />
        <path d="M 950 50 L 950 70" />
    </g>
    <g id="frame_0_rightticks">
        <path d="M 950 541.348 L 940 541.348" />
        <path d="M 950 352.022 L 940 352.022" />
        <path d="M 950 813.504 L 940 813.504" />
        <path d="M 950 150.863 L 940 150.863" />
        <path d="M 950 920 L 930 920" />
        <path d="M 950 707.008 L 940 707.008" />
        <path d="M 950 505.85 L 940 505.85" />
        <path d="M 950 600.512 L 940 600.512" />
        <path d="M 950 872.669 L 940 872.669" />
        <path d="M 950 470.351 L 940 470.351" />
        <path d="M 950 198.195 L 940 198.195" />
        <path d="M 950 766.173 L 940 766.173" />
        <path d="M 950 659.677 L 940 659.677" />
        <path d="M 950 434.852 L 940 434.852" />
        <path d="M 950 553.181 L 940 553.181" />
        <path d="M 950 825.337 L 940 825.337" />
        <path d="M 950 399.354 L 940 399.354" />
        <path d="M 950 269.192 L 940 269.192" />
        <path d="M 950 718.841 L 940 718.841" />
        <path d="M 950 221.861 L 940 221.861" />
        <path d="M 950 68.0333 L 940 68.0333" />
        <path d="M 950 612.345 L 940 612.345" />
        <path d="M 950 363.855 L 940 363.855" />
        <path d="M 950 884.501 L 940 884.501" />
        <path d="M 950 778.006 L 940 778.006" />
        <path d="M 950 517.682 L 940 517.682" />
        <path d="M 950 671.51 L 940 671.51" />
        <path d="M 950 683.343 L 930 683.343" />
        <path d="M 950 186.362 L 940 186.362" />
        <path d="M 950 482.184 L 940 482.184" />
        <path d="M 950 115.365 L 940 115.365" />
        <path d="M 950 837.17 L 940 837.17" />
        <path d="M 950 730.674 L 940 730.674" />
        <path d="M 950 257.359 L 940 257.359" />
        <path d="M 950 292.858 L 940 292.858" />
        <path d="M 950 624.178 L 940 624.178" />
        <path d="M 950 896.334 L 940 896.334" />
        <path d="M 950 411.187 L 940 411.187" />
        <path d="M 950 789.838 L 940 789.838" />
        <path d="M 950 316.524 L 940 316.524" />
        <path d="M 950 162.696 L 940 162.696" />
        <path d="M 950 304.691 L 940 304.691" />
        <path d="M 950 375.688 L 940 375.688" />
        <path d="M 950 446.685 L 930 446.685" />
        <path d="M 950 576.847 L 940 576.847" />
        <path d="M 950 801.671 L 930 801.671" />
        <path d="M 950 340.189 L 940 340.189" />
        <path d="M 950 849.003 L 940 849.003" />
        <path d="M 950 529.515 L 940 529.515" />
        <path d="M 950 139.031 L 940 139.031" />
        <path d="M 950 742.507 L 940 742.507" />
        <path d="M 950 210.028 L 930 210.028" />
        <path d="M 950 328.356 L 930 328.356" />
        <path d="M 950 636.011 L 940 636.011" />
        <path d="M 950 494.017 L 940 494.017" />
        <path d="M 950 56.2004 L 940 56.2004" />
        <path d="M 950 908.167 L 940 908.167" />
        <path d="M 950 174.529 L 940 174.529" />
        <path d="M 950 423.019 L 940 423.019" />
        <path d="M 950 458.518 L 940 458.518" />
        <path d="M 950 79.8662 L 940 79.8662" />
        <path d="M 950 695.175 L 940 695.175" />
        <path d="M 950 588.68 L 940 588.68" />
        <path d="M 950 233.693 L 940 233.693" />
        <path d="M 950 565.014 L 930 565.014" />
        <path d="M 950 860.836 L 940 860.836" />
        <path d="M 950 103.532 L 940 103.532" />
        <path d="M 950 245.526 L 940 245.526" />
        <path d="M 950 91.699 L 930 91.699" />
        <path d="M 950 754.34 L 940 754.34" />
        <path d="M 950 387.521 L 940 387.521" />
        <path d="M 950 647.844 L 940 647.844" />
        <path d="M 950 281.025 L 940 281.025" />
        <path d="M 950 127.198 L 940 127.198" />
    </g>
</g>
</g>
</svg>
