<?xml version="1.0" standalone="no"?>
<!DOCTYPE svg PUBLIC "-//W3C//DTD SVG 1.1//EN" "http://www.w3.org/Graphics/SVG/1.1/DTD/svg11.dtd">
<svg style="stroke-linejoin:miter; stroke:black; stroke-width:2.5; text-anchor:middle; fill:none" xmlns="http://www.w3.org/2000/svg" font-family="Helvetica, Arial, FreeSans, Sans, sans, sans-serif" width="1000px" height="1000px" version="1.1" xmlns:xlink="http://www.w3.org/1999/xlink" viewBox="0 0 1000 1000">
<defs>
    <clipPath id="Histogram_0_clip">
        <rect x="120" y="50" width="830" height="870" />
    </clipPath>
</defs>
<g id="whole_document">
<rect id="background" x="0" y="0" width="1000" height="1000" stroke="none" fill="white" />
<g id="Histogram_0" clip-path="url(#Histogram_0_clip)">
    <path d="M 120 920 L 120 129.091 L 161.5 129.091 L 161.5 920 L 203 920 L 203 920 L 244.5 920 L 244.5 920 L 286 920 L 286 920 L 327.5 920 L 327.5 920 L 369 920 L 369 920 L 410.5 920 L 410.5 920 L 452 920 L 452 920 L 493.5 920 L 493.5 920 L 535 920 L 535 920 L 576.5 920 L 576.5 920 L 618 920 L 618 920 L 659.5 920 L 659.5 920 L 701 920 L 701 920 L 742.5 920 L 742.5 920 L 784 920 L 784 920 L 825.5 920 L 825.5 920 L 867 920 L 867 920 L 908.5 920 L 908.5 920 L 950 920 L 950 920" stroke-width="3" stroke-dasharray="" stroke="black" stroke-opacity="1" fill="DodgerBlue" fill-opacity="1" />
</g>
<g id="frame_0">
    <rect id="frame_0_border" x="120" y="50" width="830" height="870" />
    <text id="frame_0_bottomlabel" font-size="30" transform="translate(535, 989.6)" text-anchor="middle" dominant-baseline="middle" stroke="none" fill="black">microseconds</text>
    <g id="frame_0_bottomticks">
        <path d="M 120 920 L 120 900" />
        <text font-size="30" transform="translate(120, 950)" text-anchor="middle" dominant-baseline="middle" stroke="none" fill="black">0</text>
        <path d="M 136.6 920 L 136.6 910" />
        <path d="M 153.2 920 L 153.2 910" />
        <path d="M 169.8 920 L 169.8 910" />
        <path d="M 186.4 920 L 186.4 910" />
        <path d="M 203 920 L 203 910" />
        <path d="M 219.6 920 L 219.6 910" />
        <path d="M 236.2 920 L 236.2 910" />
        <path d="M 252.8 920 L 252.8 910" />
        <path d="M 269.4 920 L 269.4 910" />
        <path d="M 286 920 L 286 900" />
        <text font-size="30" transform="translate(286, 950)" text-anchor="middle" dominant-baseline="middle" stroke="none" fill="black">10</text>
        <path d="M 302.6 920 L 302.6 910" />
        <path d="M 319.2 920 L 319.2 910" />
        <path d="M 335.8 920 L 335.8 910" />
        <path d="M 352.4 920 L 352.4 910" />
        <path d="M 369 920 L 369 910" />
        <path d="M 385.6 920 L 385.6 910" />
        <path d="M 402.2 920 L 402.2 910" />
        <path d="M 418.8 920 L 418.8 910" />
        <path d="M 435.4 920 L 435.4 910" />
        <path d="M 452 920 L 452 900" />
        <text font-size="30" transform="translate(452, 950)" text-anchor="middle" dominant-baseline="middle" stroke="none" fill="black">20</text>
        <path d="M 468.6 920 L 468.6 910" />
        <path d="M 485.2 920 L 485.2 910" />
        <path d="M 501.8 920 L 501.8 910" />
        <path d="M 518.4 920 L 518.4 910" />
        <path d="M 535 920 L 535 910" />
        <path d="M 551.6 920 L 551.6 910" />
        <path d="M 568.2 920 L 568.2 910" />
        <path d="M 584.8 920 L 584.8 910" />
        <path d="M 601.4 920 L 601.4 910" />
        <path d="M 618 920 L 618 900" />
        <text font-size="30" transform="translate(618, 950)" text-anchor="middle" dominant-baseline="middle" stroke="none" fill="black">30</text>
        <path d="M 634.6 920 L 634.6 910" />
        <path d="M 651.2 920 L 651.2 910" />
        <path d="M 667.8 920 L 667.8 910" />
        <path d="M 684.4 920 L 684.4 910" />
        <path d="M 701 920 L 701 910" />
        <path d="M 717.6 920 L 717.6 910" />
        <path d="M 734.2 920 L 734.2 910" />
        <path d="M 750.8 920 L 750.8 910" />
        <path d="M 767.4 920 L 767.4 910" />
        <path d="M 784 920 L 784 900" />
        <text font-size="30" transform="translate(784, 950)" text-anchor="middle" dominant-baseline="middle" stroke="none" fill="black">40</text>
        <path d="M 800.6 920 L 800.6 910" />
        <path d="M 817.2 920 L 817.2 910" />
        <path d="M 833.8 920 L 833.8 910" />
        <path d="M 850.4 920 L 850.4 910" />
        <path d="M 867 920 L 867 910" />
        <path d="M 883.6 920 L 883.6 910" />
        <path d="M 900.2 920 L 900.2 910" />
        <path d="M 916.8 920 L 916.8 910" />
        <path d="M 933.4 920 L 933.4 910" />
        <path d="M 950 920 L 950 900" />
        <text font-size="30" transform="translate(950, 950)" text-anchor="middle" dominant-baseline="middle" stroke="none" fill="black">50</text>
    </g>
    <g id="frame_0_leftticks">
        <path d="M 120 576.332 L 130 576.332" />
        <path d="M 120 404.498 L 130 404.498" />
        <path d="M 120 340.06 L 130 340.06" />
        <path d="M 120 468.936 L 130 468.936" />
        <path d="M 120 189.705 L 130 189.705" />
        <path d="M 120 361.539 L 130 361.539" />
        <path d="M 120 769.645 L 130 769.645" />
        <path d="M 120 812.604 L 140 812.604" />
        <text font-size="30" transform="translate(110, 822.604)" text-anchor="end" dominant-baseline="middle" stroke="none" fill="black">5000</text>
        <path d="M 120 254.143 L 130 254.143" />
        <path d="M 120 920 L 140 920" />
        <text font-size="30" transform="translate(110, 930)" text-anchor="end" dominant-baseline="middle" stroke="none" fill="black">0</text>
        <path d="M 120 705.207 L 140 705.207" />
        <text font-size="30" transform="translate(110, 715.207)" text-anchor="end" dominant-baseline="middle" stroke="none" fill="black">10000</text>
        <path d="M 120 82.3091 L 130 82.3091" />
        <path d="M 120 834.083 L 130 834.083" />
        <path d="M 120 447.456 L 130 447.456" />
        <path d="M 120 726.687 L 130 726.687" />
        <path d="M 120 597.811 L 140 597.811" />
        <text font-size="30" transform="translate(110, 607.811)" text-anchor="end" dominant-baseline="middle" stroke="none" fill="black">15000</text>
        <path d="M 120 146.747 L 130 146.747" />
        <path d="M 120 619.29 L 130 619.29" />
        <path d="M 120 297.102 L 130 297.102" />
        <path d="M 120 490.415 L 140 490.415" />
        <text font-size="30" transform="translate(110, 500.415)" text-anchor="end" dominant-baseline="middle" stroke="none" fill="black">20000</text>
        <path d="M 120 511.894 L 130 511.894" />
        <path d="M 120 211.185 L 130 211.185" />
        <path d="M 120 748.166 L 130 748.166" />
        <path d="M 120 318.581 L 130 318.581" />
        <path d="M 120 383.019 L 140 383.019" />
        <text font-size="30" transform="translate(110, 393.019)" text-anchor="end" dominant-baseline="middle" stroke="none" fill="black">25000</text>
        <path d="M 120 640.77 L 130 640.77" />
        <path d="M 120 103.788 L 130 103.788" />
        <path d="M 120 275.622 L 140 275.622" />
        <text font-size="30" transform="translate(110, 285.622)" text-anchor="end" dominant-baseline="middle" stroke="none" fill="black">30000</text>
        <path d="M 120 533.373 L 130 533.373" />
        <path d="M 120 855.562 L 130 855.562" />
        <path d="M 120 425.977 L 130 425.977" />
        <path d="M 120 168.226 L 140 168.226" />
        <text font-size="30" transform="translate(110, 178.226)" text-anchor="end" dominant-baseline="middle" stroke="none" fill="black">35000</text>
        <path d="M 120 662.249 L 130 662.249" />
        <path d="M 120 877.041 L 130 877.041" />
        <path d="M 120 898.521 L 130 898.521" />
        <path d="M 120 232.664 L 130 232.664" />
        <path d="M 120 791.124 L 130 791.124" />
        <path d="M 120 554.853 L 130 554.853" />
        <path d="M 120 60.8298 L 140 60.8298" />
        <text font-size="30" transform="translate(110, 70.8298)" text-anchor="end" dominant-baseline="middle" stroke="none" fill="black">40000</text>
        <path d="M 120 683.728 L 130 683.728" />
        <path d="M 120 125.268 L 130 125.268" />
    </g>
    <text id="frame_0_toplabel" font-size="30" transform="translate(535, 32.6)" text-anchor="middle" dominant-baseline="middle" stroke="none" fill="black">map.only</text>
    <g id="frame_0_topticks">
        <path d="M 120 50 L 120 70" />
        <path d="M 136.6 50 L 136.6 60" />
        <path d="M 153.2 50 L 153.2 60" />
        <path d="M 169.8 50 L 169.8 60" />
        <path d="M 186.4 50 L 186.4 60" />
        <path d="M 203 50 L 203 60" />
        <path d="M 219.6 50 L 219.6 60" />
        <path d="M 236.2 50 L 236.2 60" />
        <path d="M 252.8 50 L 252.8 60" />
        <path d="M 269.4 50 L 269.4 60" />
        <path d="M 286 50 L 286 70" />
        <path d="M 302.6 50 L 302.6 60" />
        <path d="M 319.2 50 L 319.2 60" />
        <path d="M 335.8 50 L 335.8 60" />
        <path d="M 352.4 50 L 352.4 60" />
        <path d="M 369 50 L 369 60" />
        <path d="M 385.6 50 L 385.6 60" />
        <path d="M 402.2 50 L 402.2 60" />
        <path d="M 418.8 50 L 418.8 60" />
        <path d="M 435.4 50 L 435.4 60" />
        <path d="M 452 50 L 452 70" />
        <path d="M 468.6 50 L 468.6 60" />
        <path d="M 485.2 50 L 485.2 60" />
        <path d="M 501.8 50 L 501.8 60" />
        <path d="M 518.4 50 L 518.4 60" />
        <path d="M 535 50 L 535 60" />
        <path d="M 551.6 50 L 551.6 60" />
        <path d="M 568.2 50 L 568.2 60" />
        <path d="M 584.8 50 L 584.8 60" />
        <path d="M 601.4 50 L 601.4 60" />
        <path d="M 618 50 L 618 70" />
        <path d="M 634.6 50 L 634.6 60" />
        <path d="M 651.2 50 L 651.2 60" />
        <path d="M 667.8 50 L 667.8 60" />
        <path d="M 684.4 50 L 684.4 60" />
        <path d="M 701 50 L 701 60" />
        <path d="M 717.6 50 L 717.6 60" />
        <path d="M 734.2 50 L 734.2 60" />
        <path d="M 750.8 50 L 750.8 60" />
        <path d="M 767.4 50 L 767.4 60" />
        <path d="M 784 50 L 784 70" />
        <path d="M 800.6 50 L 800.6 60" />
        <path d="M 817.2 50 L 817.2 60" />
        <path d="M 833.8 50 L 833.8 60" />
        <path d="M 850.4 50 L 850.4 60" />
        <path d="M 867 50 L 867 60" />
        <path d="M 883.6 50 L 883.6 60" />
        <path d="M 900.2 50 L 900.2 60" />
        <path d="M 916.8 50 L 916.8 60" />
        <path d="M 933.4 50 L 933.4 60" />
        <path d="M 950 50 L 950 70" />
    </g>
    <g id="frame_0_rightticks">
        <path d="M 950 576.332 L 940 576.332" />
        <path d="M 950 404.498 L 940 404.498" />
        <path d="M 950 340.06 L 940 340.06" />
        <path d="M 950 468.936 L 940 468.936" />
        <path d="M 950 189.705 L 940 189.705" />
        <path d="M 950 361.539 L 940 361.539" />
        <path d="M 950 769.645 L 940 769.645" />
        <path d="M 950 812.604 L 930 812.604" />
        <path d="M 950 254.143 L 940 254.143" />
        <path d="M 950 920 L 930 920" />
        <path d="M 950 705.207 L 930 705.207" />
        <path d="M 950 82.3091 L 940 82.3091" />
        <path d="M 950 834.083 L 940 834.083" />
        <path d="M 950 447.456 L 940 447.456" />
        <path d="M 950 726.687 L 940 726.687" />
        <path d="M 950 597.811 L 930 597.811" />
        <path d="M 950 146.747 L 940 146.747" />
        <path d="M 950 619.29 L 940 619.29" />
        <path d="M 950 297.102 L 940 297.102" />
        <path d="M 950 490.415 L 930 490.415" />
        <path d="M 950 511.894 L 940 511.894" />
        <path d="M 950 211.185 L 940 211.185" />
        <path d="M 950 748.166 L 940 748.166" />
        <path d="M 950 318.581 L 940 318.581" />
        <path d="M 950 383.019 L 930 383.019" />
        <path d="M 950 640.77 L 940 640.77" />
        <path d="M 950 103.788 L 940 103.788" />
        <path d="M 950 275.622 L 930 275.622" />
        <path d="M 950 533.373 L 940 533.373" />
        <path d="M 950 855.562 L 940 855.562" />
        <path d="M 950 425.977 L 940 425.977" />
        <path d="M 950 168.226 L 930 168.226" />
        <path d="M 950 662.249 L 940 662.249" />
        <path d="M 950 877.041 L 940 877.041" />
        <path d="M 950 898.521 L 940 898.521" />
        <path d="M 950 232.664 L 940 232.664" />
        <path d="M 950 791.124 L 940 791.124" />
        <path d="M 950 554.853 L 940 554.853" />
        <path d="M 950 60.8298 L 930 60.8298" />
        <path d="M 950 683.728 L 940 683.728" />
        <path d="M 950 125.268 L 940 125.268" />
    </g>
</g>
</g>
</svg>
