<?xml version="1.0" standalone="no"?>
<!DOCTYPE svg PUBLIC "-//W3C//DTD SVG 1.1//EN" "http://www.w3.org/Graphics/SVG/1.1/DTD/svg11.dtd">
<svg style="stroke-linejoin:miter; stroke:black; stroke-width:2.5; text-anchor:middle; fill:none" xmlns="http://www.w3.org/2000/svg" font-family="Helvetica, Arial, FreeSans, Sans, sans, sans-serif" width="1000px" height="1000px" version="1.1" xmlns:xlink="http://www.w3.org/1999/xlink" viewBox="0 0 1000 1000">
<defs>
    <clipPath id="Histogram_0_clip">
        <rect x="120" y="50" width="830" height="870" />
    </clipPath>
    <clipPath id="Histogram_1_clip">
        <rect x="120" y="50" width="830" height="870" />
    </clipPath>
</defs>
<g id="whole_document">
<rect id="background" x="0" y="0" width="1000" height="1000" stroke="none" fill="white" />
<g id="Histogram_0" clip-path="url(#Histogram_0_clip)">
    <path d="M 120 920 L 120 920 L 161.5 920 L 161.5 129.091 L 203 129.091 L 203 528.821 L 244.5 528.821 L 244.5 612.914 L 286 612.914 L 286 747.928 L 327.5 747.928 L 327.5 899.916 L 369 899.916 L 369 896.418 L 410.5 896.418 L 410.5 913.003 L 452 913.003 L 452 920 L 493.5 920 L 493.5 920 L 535 920 L 535 920 L 576.5 920 L 576.5 920 L 618 920 L 618 920 L 659.5 920 L 659.5 920 L 701 920 L 701 920 L 742.5 920 L 742.5 920 L 784 920 L 784 920 L 825.5 920 L 825.5 920 L 867 920 L 867 920 L 908.5 920 L 908.5 917.279 L 950 917.279 L 950 920" stroke-width="3" stroke-dasharray="" stroke="black" stroke-opacity="1" fill="DodgerBlue" fill-opacity="1" />
</g>
<g id="Histogram_1" clip-path="url(#Histogram_1_clip)">
    <path d="M 120 920 L 120 920 L 161.5 920 L 161.5 920 L 203 920 L 203 662.669 L 244.5 662.669 L 244.5 778.248 L 286 778.248 L 286 769.696 L 327.5 769.696 L 327.5 910.023 L 369 910.023 L 369 904.063 L 410.5 904.063 L 410.5 913.003 L 452 913.003 L 452 920 L 493.5 920 L 493.5 920 L 535 920 L 535 920 L 576.5 920 L 576.5 920 L 618 920 L 618 920 L 659.5 920 L 659.5 920 L 701 920 L 701 920 L 742.5 920 L 742.5 920 L 784 920 L 784 920 L 825.5 920 L 825.5 920 L 867 920 L 867 920 L 908.5 920 L 908.5 920 L 950 920 L 950 920" stroke-width="3" stroke-dasharray="" stroke="black" stroke-opacity="1" fill="darkorange" fill-opacity="1" />
</g>
<g id="frame_0">
    <rect id="frame_0_border" x="120" y="50" width="830" height="870" />
    <text id="frame_0_bottomlabel" font-size="30" transform="translate(535, 989.6)" text-anchor="middle" dominant-baseline="middle" stroke="none" fill="black">microseconds</text>
    <g id="frame_0_bottomticks">
        <path d="M 120 920 L 120 900" />
        <text font-size="30" transform="translate(120, 950)" text-anchor="middle" dominant-baseline="middle" stroke="none" fill="black">0</text>
        <path d="M 136.6 920 L 136.6 910" />
        <path d="M 153.2 920 L 153.2 910" />
        <path d="M 169.8 920 L 169.8 910" />
        <path d="M 186.4 920 L 186.4 910" />
        <path d="M 203 920 L 203 910" />
        <path d="M 219.6 920 L 219.6 910" />
        <path d="M 236.2 920 L 236.2 910" />
        <path d="M 252.8 920 L 252.8 910" />
        <path d="M 269.4 920 L 269.4 910" />
        <path d="M 286 920 L 286 900" />
        <text font-size="30" transform="translate(286, 950)" text-anchor="middle" dominant-baseline="middle" stroke="none" fill="black">10</text>
        <path d="M 302.6 920 L 302.6 910" />
        <path d="M 319.2 920 L 319.2 910" />
        <path d="M 335.8 920 L 335.8 910" />
        <path d="M 352.4 920 L 352.4 910" />
        <path d="M 369 920 L 369 910" />
        <path d="M 385.6 920 L 385.6 910" />
        <path d="M 402.2 920 L 402.2 910" />
        <path d="M 418.8 920 L 418.8 910" />
        <path d="M 435.4 920 L 435.4 910" />
        <path d="M 452 920 L 452 900" />
        <text font-size="30" transform="translate(452, 950)" text-anchor="middle" dominant-baseline="middle" stroke="none" fill="black">20</text>
        <path d="M 468.6 920 L 468.6 910" />
        <path d="M 485.2 920 L 485.2 910" />
        <path d="M 501.8 920 L 501.8 910" />
        <path d="M 518.4 920 L 518.4 910" />
        <path d="M 535 920 L 535 910" />
        <path d="M 551.6 920 L 551.6 910" />
        <path d="M 568.2 920 L 568.2 910" />
        <path d="M 584.8 920 L 584.8 910" />
        <path d="M 601.4 920 L 601.4 910" />
        <path d="M 618 920 L 618 900" />
        <text font-size="30" transform="translate(618, 950)" text-anchor="middle" dominant-baseline="middle" stroke="none" fill="black">30</text>
        <path d="M 634.6 920 L 634.6 910" />
        <path d="M 651.2 920 L 651.2 910" />
        <path d="M 667.8 920 L 667.8 910" />
        <path d="M 684.4 920 L 684.4 910" />
        <path d="M 701 920 L 701 910" />
        <path d="M 717.6 920 L 717.6 910" />
        <path d="M 734.2 920 L 734.2 910" />
        <path d="M 750.8 920 L 750.8 910" />
        <path d="M 767.4 920 L 767.4 910" />
        <path d="M 784 920 L 784 900" />
        <text font-size="30" transform="translate(784, 950)" text-anchor="middle" dominant-baseline="middle" stroke="none" fill="black">40</text>
        <path d="M 800.6 920 L 800.6 910" />
        <path d="M 817.2 920 L 817.2 910" />
        <path d="M 833.8 920 L 833.8 910" />
        <path d="M 850.4 920 L 850.4 910" />
        <path d="M 867 920 L 867 910" />
        <path d="M 883.6 920 L 883.6 910" />
        <path d="M 900.2 920 L 900.2 910" />
        <path d="M 916.8 920 L 916.8 910" />
        <path d="M 933.4 920 L 933.4 910" />
        <path d="M 950 920 L 950 900" />
        <text font-size="30" transform="translate(950, 950)" text-anchor="middle" dominant-baseline="middle" stroke="none" fill="black">50</text>
    </g>
    <g id="frame_0_leftticks">
        <path d="M 120 505.369 L 130 505.369" />
        <path d="M 120 298.053 L 130 298.053" />
        <path d="M 120 803.385 L 130 803.385" />
        <path d="M 120 77.7803 L 130 77.7803" />
        <path d="M 120 920 L 140 920" />
        <text font-size="30" transform="translate(110, 930)" text-anchor="end" dominant-baseline="middle" stroke="none" fill="black">0</text>
        <path d="M 120 686.77 L 130 686.77" />
        <path d="M 120 466.497 L 130 466.497" />
        <path d="M 120 570.155 L 130 570.155" />
        <path d="M 120 868.171 L 130 868.171" />
        <path d="M 120 427.625 L 130 427.625" />
        <path d="M 120 129.609 L 130 129.609" />
        <path d="M 120 751.556 L 130 751.556" />
        <path d="M 120 634.941 L 130 634.941" />
        <path d="M 120 388.754 L 130 388.754" />
        <path d="M 120 518.326 L 130 518.326" />
        <path d="M 120 816.342 L 130 816.342" />
        <path d="M 120 349.882 L 130 349.882" />
        <path d="M 120 207.353 L 130 207.353" />
        <path d="M 120 699.727 L 130 699.727" />
        <path d="M 120 155.524 L 130 155.524" />
        <path d="M 120 583.112 L 130 583.112" />
        <path d="M 120 311.01 L 130 311.01" />
        <path d="M 120 881.128 L 130 881.128" />
        <path d="M 120 764.513 L 130 764.513" />
        <path d="M 120 479.454 L 130 479.454" />
        <path d="M 120 647.898 L 130 647.898" />
        <path d="M 120 660.855 L 140 660.855" />
        <text font-size="30" transform="translate(110, 670.855)" text-anchor="end" dominant-baseline="middle" stroke="none" fill="black">2000</text>
        <path d="M 120 116.652 L 130 116.652" />
        <path d="M 120 440.583 L 130 440.583" />
        <path d="M 120 829.299 L 130 829.299" />
        <path d="M 120 712.684 L 130 712.684" />
        <path d="M 120 194.395 L 130 194.395" />
        <path d="M 120 233.267 L 130 233.267" />
        <path d="M 120 596.069 L 130 596.069" />
        <path d="M 120 894.086 L 130 894.086" />
        <path d="M 120 362.839 L 130 362.839" />
        <path d="M 120 777.471 L 130 777.471" />
        <path d="M 120 259.181 L 130 259.181" />
        <path d="M 120 90.7375 L 130 90.7375" />
        <path d="M 120 246.224 L 130 246.224" />
        <path d="M 120 323.968 L 130 323.968" />
        <path d="M 120 401.711 L 140 401.711" />
        <text font-size="30" transform="translate(110, 411.711)" text-anchor="end" dominant-baseline="middle" stroke="none" fill="black">4000</text>
        <path d="M 120 544.24 L 130 544.24" />
        <path d="M 120 790.428 L 140 790.428" />
        <text font-size="30" transform="translate(110, 800.428)" text-anchor="end" dominant-baseline="middle" stroke="none" fill="black">1000</text>
        <path d="M 120 285.096 L 130 285.096" />
        <path d="M 120 842.257 L 130 842.257" />
        <path d="M 120 492.412 L 130 492.412" />
        <path d="M 120 64.8231 L 130 64.8231" />
        <path d="M 120 725.642 L 130 725.642" />
        <path d="M 120 272.139 L 140 272.139" />
        <text font-size="30" transform="translate(110, 282.139)" text-anchor="end" dominant-baseline="middle" stroke="none" fill="black">5000</text>
        <path d="M 120 609.027 L 130 609.027" />
        <path d="M 120 453.54 L 130 453.54" />
        <path d="M 120 907.043 L 130 907.043" />
        <path d="M 120 103.695 L 130 103.695" />
        <path d="M 120 375.796 L 130 375.796" />
        <path d="M 120 414.668 L 130 414.668" />
        <path d="M 120 142.566 L 140 142.566" />
        <text font-size="30" transform="translate(110, 152.566)" text-anchor="end" dominant-baseline="middle" stroke="none" fill="black">6000</text>
        <path d="M 120 673.813 L 130 673.813" />
        <path d="M 120 557.198 L 130 557.198" />
        <path d="M 120 168.481 L 130 168.481" />
        <path d="M 120 531.283 L 140 531.283" />
        <text font-size="30" transform="translate(110, 541.283)" text-anchor="end" dominant-baseline="middle" stroke="none" fill="black">3000</text>
        <path d="M 120 855.214 L 130 855.214" />
        <path d="M 120 181.438 L 130 181.438" />
        <path d="M 120 738.599 L 130 738.599" />
        <path d="M 120 336.925 L 130 336.925" />
        <path d="M 120 621.984 L 130 621.984" />
        <path d="M 120 220.31 L 130 220.31" />
        <path d="M 120 51.8658 L 130 51.8658" />
    </g>
    <text id="frame_0_toplabel" font-size="30" transform="translate(535, 32.6)" text-anchor="middle" dominant-baseline="middle" stroke="none" fill="black">m.link.softmax</text>
    <g id="frame_0_topticks">
        <path d="M 120 50 L 120 70" />
        <path d="M 136.6 50 L 136.6 60" />
        <path d="M 153.2 50 L 153.2 60" />
        <path d="M 169.8 50 L 169.8 60" />
        <path d="M 186.4 50 L 186.4 60" />
        <path d="M 203 50 L 203 60" />
        <path d="M 219.6 50 L 219.6 60" />
        <path d="M 236.2 50 L 236.2 60" />
        <path d="M 252.8 50 L 252.8 60" />
        <path d="M 269.4 50 L 269.4 60" />
        <path d="M 286 50 L 286 70" />
        <path d="M 302.6 50 L 302.6 60" />
        <path d="M 319.2 50 L 319.2 60" />
        <path d="M 335.8 50 L 335.8 60" />
        <path d="M 352.4 50 L 352.4 60" />
        <path d="M 369 50 L 369 60" />
        <path d="M 385.6 50 L 385.6 60" />
        <path d="M 402.2 50 L 402.2 60" />
        <path d="M 418.8 50 L 418.8 60" />
        <path d="M 435.4 50 L 435.4 60" />
        <path d="M 452 50 L 452 70" />
        <path d="M 468.6 50 L 468.6 60" />
        <path d="M 485.2 50 L 485.2 60" />
        <path d="M 501.8 50 L 501.8 60" />
        <path d="M 518.4 50 L 518.4 60" />
        <path d="M 535 50 L 535 60" />
        <path d="M 551.6 50 L 551.6 60" />
        <path d="M 568.2 50 L 568.2 60" />
        <path d="M 584.8 50 L 584.8 60" />
        <path d="M 601.4 50 L 601.4 60" />
        <path d="M 618 50 L 618 70" />
        <path d="M 634.6 50 L 634.6 60" />
        <path d="M 651.2 50 L 651.2 60" />
        <path d="M 667.8 50 L 667.8 60" />
        <path d="M 684.4 50 L 684.4 60" />
        <path d="M 701 50 L 701 60" />
        <path d="M 717.6 50 L 717.6 60" />
        <path d="M 734.2 50 L 734.2 60" />
        <path d="M 750.8 50 L 750.8 60" />
        <path d="M 767.4 50 L 767.4 60" />
        <path d="M 784 50 L 784 70" />
        <path d="M 800.6 50 L 800.6 60" />
        <path d="M 817.2 50 L 817.2 60" />
        <path d="M 833.8 50 L 833.8 60" />
        <path d="M 850.4 50 L 850.4 60" />
        <path d="M 867 50 L 867 60" />
        <path d="M 883.6 50 L 883.6 60" />
        <path d="M 900.2 50 L 900.2 60" />
        <path d="M 916.8 50 L 916.8 60" />
        <path d="M 933.4 50 L 933.4 60" />
        <path d="M 950 50 L 950 70" />
    </g>
    <g id="frame_0_rightticks">
        <path d="M 950 505.369 L 940 505.369" />
        <path d="M 950 298.053 L 940 298.053" />
        <path d="M 950 803.385 L 940 803.385" />
        <path d="M 950 77.7803 L 940 77.7803" />
        <path d="M 950 920 L 930 920" />
        <path d="M 950 686.77 L 940 686.77" />
        <path d="M 950 466.497 L 940 466.497" />
        <path d="M 950 570.155 L 940 570.155" />
        <path d="M 950 868.171 L 940 868.171" />
        <path d="M 950 427.625 L 940 427.625" />
        <path d="M 950 129.609 L 940 129.609" />
        <path d="M 950 751.556 L 940 751.556" />
        <path d="M 950 634.941 L 940 634.941" />
        <path d="M 950 388.754 L 940 388.754" />
        <path d="M 950 518.326 L 940 518.326" />
        <path d="M 950 816.342 L 940 816.342" />
        <path d="M 950 349.882 L 940 349.882" />
        <path d="M 950 207.353 L 940 207.353" />
        <path d="M 950 699.727 L 940 699.727" />
        <path d="M 950 155.524 L 940 155.524" />
        <path d="M 950 583.112 L 940 583.112" />
        <path d="M 950 311.01 L 940 311.01" />
        <path d="M 950 881.128 L 940 881.128" />
        <path d="M 950 764.513 L 940 764.513" />
        <path d="M 950 479.454 L 940 479.454" />
        <path d="M 950 647.898 L 940 647.898" />
        <path d="M 950 660.855 L 930 660.855" />
        <path d="M 950 116.652 L 940 116.652" />
        <path d="M 950 440.583 L 940 440.583" />
        <path d="M 950 829.299 L 940 829.299" />
        <path d="M 950 712.684 L 940 712.684" />
        <path d="M 950 194.395 L 940 194.395" />
        <path d="M 950 233.267 L 940 233.267" />
        <path d="M 950 596.069 L 940 596.069" />
        <path d="M 950 894.086 L 940 894.086" />
        <path d="M 950 362.839 L 940 362.839" />
        <path d="M 950 777.471 L 940 777.471" />
        <path d="M 950 259.181 L 940 259.181" />
        <path d="M 950 90.7375 L 940 90.7375" />
        <path d="M 950 246.224 L 940 246.224" />
        <path d="M 950 323.968 L 940 323.968" />
        <path d="M 950 401.711 L 930 401.711" />
        <path d="M 950 544.24 L 940 544.24" />
        <path d="M 950 790.428 L 930 790.428" />
        <path d="M 950 285.096 L 940 285.096" />
        <path d="M 950 842.257 L 940 842.257" />
        <path d="M 950 492.412 L 940 492.412" />
        <path d="M 950 64.8231 L 940 64.8231" />
        <path d="M 950 725.642 L 940 725.642" />
        <path d="M 950 272.139 L 930 272.139" />
        <path d="M 950 609.027 L 940 609.027" />
        <path d="M 950 453.54 L 940 453.54" />
        <path d="M 950 907.043 L 940 907.043" />
        <path d="M 950 103.695 L 940 103.695" />
        <path d="M 950 375.796 L 940 375.796" />
        <path d="M 950 414.668 L 940 414.668" />
        <path d="M 950 142.566 L 930 142.566" />
        <path d="M 950 673.813 L 940 673.813" />
        <path d="M 950 557.198 L 940 557.198" />
        <path d="M 950 168.481 L 940 168.481" />
        <path d="M 950 531.283 L 930 531.283" />
        <path d="M 950 855.214 L 940 855.214" />
        <path d="M 950 181.438 L 940 181.438" />
        <path d="M 950 738.599 L 940 738.599" />
        <path d="M 950 336.925 L 940 336.925" />
        <path d="M 950 621.984 L 940 621.984" />
        <path d="M 950 220.31 L 940 220.31" />
        <path d="M 950 51.8658 L 940 51.8658" />
    </g>
</g>
</g>
</svg>
