<?xml version="1.0" standalone="no"?>
<!DOCTYPE svg PUBLIC "-//W3C//DTD SVG 1.1//EN" "http://www.w3.org/Graphics/SVG/1.1/DTD/svg11.dtd">
<svg style="stroke-linejoin:miter; stroke:black; stroke-width:2.5; text-anchor:middle; fill:none" xmlns="http://www.w3.org/2000/svg" font-family="Helvetica, Arial, FreeSans, Sans, sans, sans-serif" width="1000px" height="1000px" version="1.1" xmlns:xlink="http://www.w3.org/1999/xlink" viewBox="0 0 1000 1000">
<defs>
    <clipPath id="Histogram_0_clip">
        <rect x="120" y="50" width="830" height="870" />
    </clipPath>
    <clipPath id="Histogram_1_clip">
        <rect x="120" y="50" width="830" height="870" />
    </clipPath>
</defs>
<g id="whole_document">
<rect id="background" x="0" y="0" width="1000" height="1000" stroke="none" fill="white" />
<g id="Histogram_0" clip-path="url(#Histogram_0_clip)">
    <path d="M 120 920 L 120 468.649 L 161.5 468.649 L 161.5 129.091 L 203 129.091 L 203 920 L 244.5 920 L 244.5 800.893 L 286 800.893 L 286 450.887 L 327.5 450.887 L 327.5 773.729 L 369 773.729 L 369 855.223 L 410.5 855.223 L 410.5 866.716 L 452 866.716 L 452 920 L 493.5 920 L 493.5 829.103 L 535 829.103 L 535 879.253 L 576.5 879.253 L 576.5 920 L 618 920 L 618 920 L 659.5 920 L 659.5 920 L 701 920 L 701 920 L 742.5 920 L 742.5 920 L 784 920 L 784 920 L 825.5 920 L 825.5 920 L 867 920 L 867 920 L 908.5 920 L 908.5 920 L 950 920 L 950 920" stroke-width="3" stroke-dasharray="" stroke="black" stroke-opacity="1" fill="DodgerBlue" fill-opacity="1" />
</g>
<g id="Histogram_1" clip-path="url(#Histogram_1_clip)">
    <path d="M 120 920 L 120 920 L 161.5 920 L 161.5 920 L 203 920 L 203 920 L 244.5 920 L 244.5 800.893 L 286 800.893 L 286 450.887 L 327.5 450.887 L 327.5 773.729 L 369 773.729 L 369 855.223 L 410.5 855.223 L 410.5 866.716 L 452 866.716 L 452 920 L 493.5 920 L 493.5 829.103 L 535 829.103 L 535 879.253 L 576.5 879.253 L 576.5 920 L 618 920 L 618 920 L 659.5 920 L 659.5 920 L 701 920 L 701 920 L 742.5 920 L 742.5 920 L 784 920 L 784 920 L 825.5 920 L 825.5 920 L 867 920 L 867 920 L 908.5 920 L 908.5 920 L 950 920 L 950 920" stroke-width="3" stroke-dasharray="" stroke="black" stroke-opacity="1" fill="darkorange" fill-opacity="1" />
</g>
<g id="frame_0">
    <rect id="frame_0_border" x="120" y="50" width="830" height="870" />
    <text id="frame_0_bottomlabel" font-size="30" transform="translate(535, 989.6)" text-anchor="middle" dominant-baseline="middle" stroke="none" fill="black">microseconds</text>
    <g id="frame_0_bottomticks">
        <path d="M 120 920 L 120 900" />
        <text font-size="30" transform="translate(120, 950)" text-anchor="middle" dominant-baseline="middle" stroke="none" fill="black">0</text>
        <path d="M 136.6 920 L 136.6 910" />
        <path d="M 153.2 920 L 153.2 910" />
        <path d="M 169.8 920 L 169.8 910" />
        <path d="M 186.4 920 L 186.4 910" />
        <path d="M 203 920 L 203 910" />
        <path d="M 219.6 920 L 219.6 910" />
        <path d="M 236.2 920 L 236.2 910" />
        <path d="M 252.8 920 L 252.8 910" />
        <path d="M 269.4 920 L 269.4 910" />
        <path d="M 286 920 L 286 900" />
        <text font-size="30" transform="translate(286, 950)" text-anchor="middle" dominant-baseline="middle" stroke="none" fill="black">10</text>
        <path d="M 302.6 920 L 302.6 910" />
        <path d="M 319.2 920 L 319.2 910" />
        <path d="M 335.8 920 L 335.8 910" />
        <path d="M 352.4 920 L 352.4 910" />
        <path d="M 369 920 L 369 910" />
        <path d="M 385.6 920 L 385.6 910" />
        <path d="M 402.2 920 L 402.2 910" />
        <path d="M 418.8 920 L 418.8 910" />
        <path d="M 435.4 920 L 435.4 910" />
        <path d="M 452 920 L 452 900" />
        <text font-size="30" transform="translate(452, 950)" text-anchor="middle" dominant-baseline="middle" stroke="none" fill="black">20</text>
        <path d="M 468.6 920 L 468.6 910" />
        <path d="M 485.2 920 L 485.2 910" />
        <path d="M 501.8 920 L 501.8 910" />
        <path d="M 518.4 920 L 518.4 910" />
        <path d="M 535 920 L 535 910" />
        <path d="M 551.6 920 L 551.6 910" />
        <path d="M 568.2 920 L 568.2 910" />
        <path d="M 584.8 920 L 584.8 910" />
        <path d="M 601.4 920 L 601.4 910" />
        <path d="M 618 920 L 618 900" />
        <text font-size="30" transform="translate(618, 950)" text-anchor="middle" dominant-baseline="middle" stroke="none" fill="black">30</text>
        <path d="M 634.6 920 L 634.6 910" />
        <path d="M 651.2 920 L 651.2 910" />
        <path d="M 667.8 920 L 667.8 910" />
        <path d="M 684.4 920 L 684.4 910" />
        <path d="M 701 920 L 701 910" />
        <path d="M 717.6 920 L 717.6 910" />
        <path d="M 734.2 920 L 734.2 910" />
        <path d="M 750.8 920 L 750.8 910" />
        <path d="M 767.4 920 L 767.4 910" />
        <path d="M 784 920 L 784 900" />
        <text font-size="30" transform="translate(784, 950)" text-anchor="middle" dominant-baseline="middle" stroke="none" fill="black">40</text>
        <path d="M 800.6 920 L 800.6 910" />
        <path d="M 817.2 920 L 817.2 910" />
        <path d="M 833.8 920 L 833.8 910" />
        <path d="M 850.4 920 L 850.4 910" />
        <path d="M 867 920 L 867 910" />
        <path d="M 883.6 920 L 883.6 910" />
        <path d="M 900.2 920 L 900.2 910" />
        <path d="M 916.8 920 L 916.8 910" />
        <path d="M 933.4 920 L 933.4 910" />
        <path d="M 950 920 L 950 900" />
        <text font-size="30" transform="translate(950, 950)" text-anchor="middle" dominant-baseline="middle" stroke="none" fill="black">50</text>
    </g>
    <g id="frame_0_leftticks">
        <path d="M 120 251.332 L 130 251.332" />
        <path d="M 120 920 L 140 920" />
        <text font-size="30" transform="translate(110, 930)" text-anchor="end" dominant-baseline="middle" stroke="none" fill="black">0</text>
        <path d="M 120 784.177 L 130 784.177" />
        <path d="M 120 648.354 L 130 648.354" />
        <path d="M 120 94.6127 L 130 94.6127" />
        <path d="M 120 512.53 L 130 512.53" />
        <path d="M 120 376.707 L 130 376.707" />
        <path d="M 120 909.552 L 130 909.552" />
        <path d="M 120 773.729 L 130 773.729" />
        <path d="M 120 115.509 L 130 115.509" />
        <path d="M 120 637.906 L 130 637.906" />
        <path d="M 120 502.082 L 140 502.082" />
        <text font-size="30" transform="translate(110, 512.082)" text-anchor="end" dominant-baseline="middle" stroke="none" fill="black">400</text>
        <path d="M 120 366.259 L 130 366.259" />
        <path d="M 120 899.104 L 130 899.104" />
        <path d="M 120 136.404 L 130 136.404" />
        <path d="M 120 763.281 L 130 763.281" />
        <path d="M 120 627.458 L 130 627.458" />
        <path d="M 120 491.634 L 130 491.634" />
        <path d="M 120 355.811 L 130 355.811" />
        <path d="M 120 157.3 L 130 157.3" />
        <path d="M 120 888.656 L 130 888.656" />
        <path d="M 120 752.833 L 130 752.833" />
        <path d="M 120 617.01 L 130 617.01" />
        <path d="M 120 481.187 L 130 481.187" />
        <path d="M 120 178.196 L 130 178.196" />
        <path d="M 120 345.363 L 130 345.363" />
        <path d="M 120 878.208 L 130 878.208" />
        <path d="M 120 742.385 L 130 742.385" />
        <path d="M 120 606.562 L 140 606.562" />
        <text font-size="30" transform="translate(110, 616.562)" text-anchor="end" dominant-baseline="middle" stroke="none" fill="black">300</text>
        <path d="M 120 199.092 L 130 199.092" />
        <path d="M 120 470.739 L 130 470.739" />
        <path d="M 120 334.915 L 130 334.915" />
        <path d="M 120 867.76 L 130 867.76" />
        <path d="M 120 731.937 L 130 731.937" />
        <path d="M 120 219.988 L 130 219.988" />
        <path d="M 120 596.114 L 130 596.114" />
        <path d="M 120 460.291 L 130 460.291" />
        <path d="M 120 63.2689 L 130 63.2689" />
        <path d="M 120 324.467 L 130 324.467" />
        <path d="M 120 857.312 L 130 857.312" />
        <path d="M 120 240.884 L 130 240.884" />
        <path d="M 120 721.489 L 130 721.489" />
        <path d="M 120 585.666 L 130 585.666" />
        <path d="M 120 84.1648 L 140 84.1648" />
        <text font-size="30" transform="translate(110, 94.1648)" text-anchor="end" dominant-baseline="middle" stroke="none" fill="black">800</text>
        <path d="M 120 449.843 L 130 449.843" />
        <path d="M 120 314.019 L 130 314.019" />
        <path d="M 120 846.864 L 130 846.864" />
        <path d="M 120 711.041 L 140 711.041" />
        <text font-size="30" transform="translate(110, 721.041)" text-anchor="end" dominant-baseline="middle" stroke="none" fill="black">200</text>
        <path d="M 120 105.061 L 130 105.061" />
        <path d="M 120 575.218 L 130 575.218" />
        <path d="M 120 439.395 L 130 439.395" />
        <path d="M 120 303.572 L 130 303.572" />
        <path d="M 120 836.416 L 130 836.416" />
        <path d="M 120 125.957 L 130 125.957" />
        <path d="M 120 700.593 L 130 700.593" />
        <path d="M 120 564.77 L 130 564.77" />
        <path d="M 120 428.947 L 130 428.947" />
        <path d="M 120 293.124 L 140 293.124" />
        <text font-size="30" transform="translate(110, 303.124)" text-anchor="end" dominant-baseline="middle" stroke="none" fill="black">600</text>
        <path d="M 120 815.521 L 140 815.521" />
        <text font-size="30" transform="translate(110, 825.521)" text-anchor="end" dominant-baseline="middle" stroke="none" fill="black">100</text>
        <path d="M 120 825.969 L 130 825.969" />
        <path d="M 120 690.145 L 130 690.145" />
        <path d="M 120 554.322 L 130 554.322" />
        <path d="M 120 418.499 L 130 418.499" />
        <path d="M 120 167.748 L 130 167.748" />
        <path d="M 120 282.676 L 130 282.676" />
        <path d="M 120 146.852 L 130 146.852" />
        <path d="M 120 679.697 L 130 679.697" />
        <path d="M 120 543.874 L 130 543.874" />
        <path d="M 120 188.644 L 140 188.644" />
        <text font-size="30" transform="translate(110, 198.644)" text-anchor="end" dominant-baseline="middle" stroke="none" fill="black">700</text>
        <path d="M 120 408.051 L 130 408.051" />
        <path d="M 120 272.228 L 130 272.228" />
        <path d="M 120 805.073 L 130 805.073" />
        <path d="M 120 669.249 L 130 669.249" />
        <path d="M 120 209.54 L 130 209.54" />
        <path d="M 120 533.426 L 130 533.426" />
        <path d="M 120 397.603 L 140 397.603" />
        <text font-size="30" transform="translate(110, 407.603)" text-anchor="end" dominant-baseline="middle" stroke="none" fill="black">500</text>
        <path d="M 120 52.8209 L 130 52.8209" />
        <path d="M 120 261.78 L 130 261.78" />
        <path d="M 120 794.625 L 130 794.625" />
        <path d="M 120 230.436 L 130 230.436" />
        <path d="M 120 658.801 L 130 658.801" />
        <path d="M 120 522.978 L 130 522.978" />
        <path d="M 120 73.7168 L 130 73.7168" />
        <path d="M 120 387.155 L 130 387.155" />
    </g>
    <text id="frame_0_toplabel" font-size="30" transform="translate(535, 32.6)" text-anchor="middle" dominant-baseline="middle" stroke="none" fill="black">metric.simpleEuclidean</text>
    <g id="frame_0_topticks">
        <path d="M 120 50 L 120 70" />
        <path d="M 136.6 50 L 136.6 60" />
        <path d="M 153.2 50 L 153.2 60" />
        <path d="M 169.8 50 L 169.8 60" />
        <path d="M 186.4 50 L 186.4 60" />
        <path d="M 203 50 L 203 60" />
        <path d="M 219.6 50 L 219.6 60" />
        <path d="M 236.2 50 L 236.2 60" />
        <path d="M 252.8 50 L 252.8 60" />
        <path d="M 269.4 50 L 269.4 60" />
        <path d="M 286 50 L 286 70" />
        <path d="M 302.6 50 L 302.6 60" />
        <path d="M 319.2 50 L 319.2 60" />
        <path d="M 335.8 50 L 335.8 60" />
        <path d="M 352.4 50 L 352.4 60" />
        <path d="M 369 50 L 369 60" />
        <path d="M 385.6 50 L 385.6 60" />
        <path d="M 402.2 50 L 402.2 60" />
        <path d="M 418.8 50 L 418.8 60" />
        <path d="M 435.4 50 L 435.4 60" />
        <path d="M 452 50 L 452 70" />
        <path d="M 468.6 50 L 468.6 60" />
        <path d="M 485.2 50 L 485.2 60" />
        <path d="M 501.8 50 L 501.8 60" />
        <path d="M 518.4 50 L 518.4 60" />
        <path d="M 535 50 L 535 60" />
        <path d="M 551.6 50 L 551.6 60" />
        <path d="M 568.2 50 L 568.2 60" />
        <path d="M 584.8 50 L 584.8 60" />
        <path d="M 601.4 50 L 601.4 60" />
        <path d="M 618 50 L 618 70" />
        <path d="M 634.6 50 L 634.6 60" />
        <path d="M 651.2 50 L 651.2 60" />
        <path d="M 667.8 50 L 667.8 60" />
        <path d="M 684.4 50 L 684.4 60" />
        <path d="M 701 50 L 701 60" />
        <path d="M 717.6 50 L 717.6 60" />
        <path d="M 734.2 50 L 734.2 60" />
        <path d="M 750.8 50 L 750.8 60" />
        <path d="M 767.4 50 L 767.4 60" />
        <path d="M 784 50 L 784 70" />
        <path d="M 800.6 50 L 800.6 60" />
        <path d="M 817.2 50 L 817.2 60" />
        <path d="M 833.8 50 L 833.8 60" />
        <path d="M 850.4 50 L 850.4 60" />
        <path d="M 867 50 L 867 60" />
        <path d="M 883.6 50 L 883.6 60" />
        <path d="M 900.2 50 L 900.2 60" />
        <path d="M 916.8 50 L 916.8 60" />
        <path d="M 933.4 50 L 933.4 60" />
        <path d="M 950 50 L 950 70" />
    </g>
    <g id="frame_0_rightticks">
        <path d="M 950 251.332 L 940 251.332" />
        <path d="M 950 920 L 930 920" />
        <path d="M 950 784.177 L 940 784.177" />
        <path d="M 950 648.354 L 940 648.354" />
        <path d="M 950 94.6127 L 940 94.6127" />
        <path d="M 950 512.53 L 940 512.53" />
        <path d="M 950 376.707 L 940 376.707" />
        <path d="M 950 909.552 L 940 909.552" />
        <path d="M 950 773.729 L 940 773.729" />
        <path d="M 950 115.509 L 940 115.509" />
        <path d="M 950 637.906 L 940 637.906" />
        <path d="M 950 502.082 L 930 502.082" />
        <path d="M 950 366.259 L 940 366.259" />
        <path d="M 950 899.104 L 940 899.104" />
        <path d="M 950 136.404 L 940 136.404" />
        <path d="M 950 763.281 L 940 763.281" />
        <path d="M 950 627.458 L 940 627.458" />
        <path d="M 950 491.634 L 940 491.634" />
        <path d="M 950 355.811 L 940 355.811" />
        <path d="M 950 157.3 L 940 157.3" />
        <path d="M 950 888.656 L 940 888.656" />
        <path d="M 950 752.833 L 940 752.833" />
        <path d="M 950 617.01 L 940 617.01" />
        <path d="M 950 481.187 L 940 481.187" />
        <path d="M 950 178.196 L 940 178.196" />
        <path d="M 950 345.363 L 940 345.363" />
        <path d="M 950 878.208 L 940 878.208" />
        <path d="M 950 742.385 L 940 742.385" />
        <path d="M 950 606.562 L 930 606.562" />
        <path d="M 950 199.092 L 940 199.092" />
        <path d="M 950 470.739 L 940 470.739" />
        <path d="M 950 334.915 L 940 334.915" />
        <path d="M 950 867.76 L 940 867.76" />
        <path d="M 950 731.937 L 940 731.937" />
        <path d="M 950 219.988 L 940 219.988" />
        <path d="M 950 596.114 L 940 596.114" />
        <path d="M 950 460.291 L 940 460.291" />
        <path d="M 950 63.2689 L 940 63.2689" />
        <path d="M 950 324.467 L 940 324.467" />
        <path d="M 950 857.312 L 940 857.312" />
        <path d="M 950 240.884 L 940 240.884" />
        <path d="M 950 721.489 L 940 721.489" />
        <path d="M 950 585.666 L 940 585.666" />
        <path d="M 950 84.1648 L 930 84.1648" />
        <path d="M 950 449.843 L 940 449.843" />
        <path d="M 950 314.019 L 940 314.019" />
        <path d="M 950 846.864 L 940 846.864" />
        <path d="M 950 711.041 L 930 711.041" />
        <path d="M 950 105.061 L 940 105.061" />
        <path d="M 950 575.218 L 940 575.218" />
        <path d="M 950 439.395 L 940 439.395" />
        <path d="M 950 303.572 L 940 303.572" />
        <path d="M 950 836.416 L 940 836.416" />
        <path d="M 950 125.957 L 940 125.957" />
        <path d="M 950 700.593 L 940 700.593" />
        <path d="M 950 564.77 L 940 564.77" />
        <path d="M 950 428.947 L 940 428.947" />
        <path d="M 950 293.124 L 930 293.124" />
        <path d="M 950 815.521 L 930 815.521" />
        <path d="M 950 825.969 L 940 825.969" />
        <path d="M 950 690.145 L 940 690.145" />
        <path d="M 950 554.322 L 940 554.322" />
        <path d="M 950 418.499 L 940 418.499" />
        <path d="M 950 167.748 L 940 167.748" />
        <path d="M 950 282.676 L 940 282.676" />
        <path d="M 950 146.852 L 940 146.852" />
        <path d="M 950 679.697 L 940 679.697" />
        <path d="M 950 543.874 L 940 543.874" />
        <path d="M 950 188.644 L 930 188.644" />
        <path d="M 950 408.051 L 940 408.051" />
        <path d="M 950 272.228 L 940 272.228" />
        <path d="M 950 805.073 L 940 805.073" />
        <path d="M 950 669.249 L 940 669.249" />
        <path d="M 950 209.54 L 940 209.54" />
        <path d="M 950 533.426 L 940 533.426" />
        <path d="M 950 397.603 L 930 397.603" />
        <path d="M 950 52.8209 L 940 52.8209" />
        <path d="M 950 261.78 L 940 261.78" />
        <path d="M 950 794.625 L 940 794.625" />
        <path d="M 950 230.436 L 940 230.436" />
        <path d="M 950 658.801 L 940 658.801" />
        <path d="M 950 522.978 L 940 522.978" />
        <path d="M 950 73.7168 L 940 73.7168" />
        <path d="M 950 387.155 L 940 387.155" />
    </g>
</g>
</g>
</svg>
