<?xml version="1.0" standalone="no"?>
<!DOCTYPE svg PUBLIC "-//W3C//DTD SVG 1.1//EN" "http://www.w3.org/Graphics/SVG/1.1/DTD/svg11.dtd">
<svg style="stroke-linejoin:miter; stroke:black; stroke-width:2.5; text-anchor:middle; fill:none" xmlns="http://www.w3.org/2000/svg" font-family="Helvetica, Arial, FreeSans, Sans, sans, sans-serif" width="1000px" height="1000px" version="1.1" xmlns:xlink="http://www.w3.org/1999/xlink" viewBox="0 0 1000 1000">
<defs>
    <clipPath id="Histogram_0_clip">
        <rect x="120" y="50" width="830" height="870" />
    </clipPath>
    <clipPath id="Histogram_1_clip">
        <rect x="120" y="50" width="830" height="870" />
    </clipPath>
</defs>
<g id="whole_document">
<rect id="background" x="0" y="0" width="1000" height="1000" stroke="none" fill="white" />
<g id="Histogram_0" clip-path="url(#Histogram_0_clip)">
    <path d="M 120 920 L 120 129.091 L 161.5 129.091 L 161.5 768.658 L 203 768.658 L 203 846.183 L 244.5 846.183 L 244.5 796.205 L 286 796.205 L 286 904.167 L 327.5 904.167 L 327.5 918.133 L 369 918.133 L 369 910.306 L 410.5 910.306 L 410.5 920 L 452 920 L 452 917.545 L 493.5 917.545 L 493.5 918.9 L 535 918.9 L 535 917.033 L 576.5 917.033 L 576.5 920 L 618 920 L 618 919.156 L 659.5 919.156 L 659.5 918.414 L 701 918.414 L 701 919.258 L 742.5 919.258 L 742.5 920 L 784 920 L 784 919.386 L 825.5 919.386 L 825.5 919.386 L 867 919.386 L 867 920 L 908.5 920 L 908.5 920 L 950 920 L 950 920" stroke-width="3" stroke-dasharray="" stroke="black" stroke-opacity="1" fill="DodgerBlue" fill-opacity="1" />
</g>
<g id="Histogram_1" clip-path="url(#Histogram_1_clip)">
    <path d="M 120 920 L 120 920 L 161.5 920 L 161.5 920 L 203 920 L 203 920 L 244.5 920 L 244.5 799.632 L 286 799.632 L 286 920 L 327.5 920 L 327.5 918.133 L 369 918.133 L 369 911.892 L 410.5 911.892 L 410.5 920 L 452 920 L 452 917.545 L 493.5 917.545 L 493.5 918.9 L 535 918.9 L 535 917.033 L 576.5 917.033 L 576.5 920 L 618 920 L 618 920 L 659.5 920 L 659.5 920 L 701 920 L 701 920 L 742.5 920 L 742.5 920 L 784 920 L 784 920 L 825.5 920 L 825.5 920 L 867 920 L 867 920 L 908.5 920 L 908.5 920 L 950 920 L 950 920" stroke-width="3" stroke-dasharray="" stroke="black" stroke-opacity="1" fill="darkorange" fill-opacity="1" />
</g>
<g id="frame_0">
    <rect id="frame_0_border" x="120" y="50" width="830" height="870" />
    <text id="frame_0_bottomlabel" font-size="30" transform="translate(535, 989.6)" text-anchor="middle" dominant-baseline="middle" stroke="none" fill="black">microseconds</text>
    <g id="frame_0_bottomticks">
        <path d="M 120 920 L 120 900" />
        <text font-size="30" transform="translate(120, 950)" text-anchor="middle" dominant-baseline="middle" stroke="none" fill="black">0</text>
        <path d="M 136.6 920 L 136.6 910" />
        <path d="M 153.2 920 L 153.2 910" />
        <path d="M 169.8 920 L 169.8 910" />
        <path d="M 186.4 920 L 186.4 910" />
        <path d="M 203 920 L 203 910" />
        <path d="M 219.6 920 L 219.6 910" />
        <path d="M 236.2 920 L 236.2 910" />
        <path d="M 252.8 920 L 252.8 910" />
        <path d="M 269.4 920 L 269.4 910" />
        <path d="M 286 920 L 286 900" />
        <text font-size="30" transform="translate(286, 950)" text-anchor="middle" dominant-baseline="middle" stroke="none" fill="black">10</text>
        <path d="M 302.6 920 L 302.6 910" />
        <path d="M 319.2 920 L 319.2 910" />
        <path d="M 335.8 920 L 335.8 910" />
        <path d="M 352.4 920 L 352.4 910" />
        <path d="M 369 920 L 369 910" />
        <path d="M 385.6 920 L 385.6 910" />
        <path d="M 402.2 920 L 402.2 910" />
        <path d="M 418.8 920 L 418.8 910" />
        <path d="M 435.4 920 L 435.4 910" />
        <path d="M 452 920 L 452 900" />
        <text font-size="30" transform="translate(452, 950)" text-anchor="middle" dominant-baseline="middle" stroke="none" fill="black">20</text>
        <path d="M 468.6 920 L 468.6 910" />
        <path d="M 485.2 920 L 485.2 910" />
        <path d="M 501.8 920 L 501.8 910" />
        <path d="M 518.4 920 L 518.4 910" />
        <path d="M 535 920 L 535 910" />
        <path d="M 551.6 920 L 551.6 910" />
        <path d="M 568.2 920 L 568.2 910" />
        <path d="M 584.8 920 L 584.8 910" />
        <path d="M 601.4 920 L 601.4 910" />
        <path d="M 618 920 L 618 900" />
        <text font-size="30" transform="translate(618, 950)" text-anchor="middle" dominant-baseline="middle" stroke="none" fill="black">30</text>
        <path d="M 634.6 920 L 634.6 910" />
        <path d="M 651.2 920 L 651.2 910" />
        <path d="M 667.8 920 L 667.8 910" />
        <path d="M 684.4 920 L 684.4 910" />
        <path d="M 701 920 L 701 910" />
        <path d="M 717.6 920 L 717.6 910" />
        <path d="M 734.2 920 L 734.2 910" />
        <path d="M 750.8 920 L 750.8 910" />
        <path d="M 767.4 920 L 767.4 910" />
        <path d="M 784 920 L 784 900" />
        <text font-size="30" transform="translate(784, 950)" text-anchor="middle" dominant-baseline="middle" stroke="none" fill="black">40</text>
        <path d="M 800.6 920 L 800.6 910" />
        <path d="M 817.2 920 L 817.2 910" />
        <path d="M 833.8 920 L 833.8 910" />
        <path d="M 850.4 920 L 850.4 910" />
        <path d="M 867 920 L 867 910" />
        <path d="M 883.6 920 L 883.6 910" />
        <path d="M 900.2 920 L 900.2 910" />
        <path d="M 916.8 920 L 916.8 910" />
        <path d="M 933.4 920 L 933.4 910" />
        <path d="M 950 920 L 950 900" />
        <text font-size="30" transform="translate(950, 950)" text-anchor="middle" dominant-baseline="middle" stroke="none" fill="black">50</text>
    </g>
    <g id="frame_0_leftticks">
        <path d="M 120 510.759 L 130 510.759" />
        <path d="M 120 306.139 L 130 306.139" />
        <path d="M 120 229.406 L 130 229.406" />
        <path d="M 120 382.871 L 130 382.871" />
        <path d="M 120 50.3632 L 130 50.3632" />
        <path d="M 120 254.984 L 130 254.984" />
        <path d="M 120 740.957 L 130 740.957" />
        <path d="M 120 792.112 L 140 792.112" />
        <text font-size="30" transform="translate(110, 802.112)" text-anchor="end" dominant-baseline="middle" stroke="none" fill="black">5000</text>
        <path d="M 120 127.096 L 130 127.096" />
        <path d="M 120 664.224 L 140 664.224" />
        <text font-size="30" transform="translate(110, 674.224)" text-anchor="end" dominant-baseline="middle" stroke="none" fill="black">10000</text>
        <path d="M 120 920 L 140 920" />
        <text font-size="30" transform="translate(110, 930)" text-anchor="end" dominant-baseline="middle" stroke="none" fill="black">0</text>
        <path d="M 120 817.69 L 130 817.69" />
        <path d="M 120 357.294 L 130 357.294" />
        <path d="M 120 689.802 L 130 689.802" />
        <path d="M 120 536.337 L 140 536.337" />
        <text font-size="30" transform="translate(110, 546.337)" text-anchor="end" dominant-baseline="middle" stroke="none" fill="black">15000</text>
        <path d="M 120 561.914 L 130 561.914" />
        <path d="M 120 178.251 L 130 178.251" />
        <path d="M 120 408.449 L 140 408.449" />
        <text font-size="30" transform="translate(110, 418.449)" text-anchor="end" dominant-baseline="middle" stroke="none" fill="black">20000</text>
        <path d="M 120 434.026 L 130 434.026" />
        <path d="M 120 75.9408 L 130 75.9408" />
        <path d="M 120 715.38 L 130 715.38" />
        <path d="M 120 203.829 L 130 203.829" />
        <path d="M 120 280.561 L 140 280.561" />
        <text font-size="30" transform="translate(110, 290.561)" text-anchor="end" dominant-baseline="middle" stroke="none" fill="black">25000</text>
        <path d="M 120 587.492 L 130 587.492" />
        <path d="M 120 152.673 L 140 152.673" />
        <text font-size="30" transform="translate(110, 162.673)" text-anchor="end" dominant-baseline="middle" stroke="none" fill="black">30000</text>
        <path d="M 120 459.604 L 130 459.604" />
        <path d="M 120 843.267 L 130 843.267" />
        <path d="M 120 331.716 L 130 331.716" />
        <path d="M 120 613.069 L 130 613.069" />
        <path d="M 120 868.845 L 130 868.845" />
        <path d="M 120 894.422 L 130 894.422" />
        <path d="M 120 101.518 L 130 101.518" />
        <path d="M 120 766.535 L 130 766.535" />
        <path d="M 120 485.182 L 130 485.182" />
        <path d="M 120 638.647 L 130 638.647" />
    </g>
    <text id="frame_0_toplabel" font-size="30" transform="translate(535, 32.6)" text-anchor="middle" dominant-baseline="middle" stroke="none" fill="black">map.argmaxLT</text>
    <g id="frame_0_topticks">
        <path d="M 120 50 L 120 70" />
        <path d="M 136.6 50 L 136.6 60" />
        <path d="M 153.2 50 L 153.2 60" />
        <path d="M 169.8 50 L 169.8 60" />
        <path d="M 186.4 50 L 186.4 60" />
        <path d="M 203 50 L 203 60" />
        <path d="M 219.6 50 L 219.6 60" />
        <path d="M 236.2 50 L 236.2 60" />
        <path d="M 252.8 50 L 252.8 60" />
        <path d="M 269.4 50 L 269.4 60" />
        <path d="M 286 50 L 286 70" />
        <path d="M 302.6 50 L 302.6 60" />
        <path d="M 319.2 50 L 319.2 60" />
        <path d="M 335.8 50 L 335.8 60" />
        <path d="M 352.4 50 L 352.4 60" />
        <path d="M 369 50 L 369 60" />
        <path d="M 385.6 50 L 385.6 60" />
        <path d="M 402.2 50 L 402.2 60" />
        <path d="M 418.8 50 L 418.8 60" />
        <path d="M 435.4 50 L 435.4 60" />
        <path d="M 452 50 L 452 70" />
        <path d="M 468.6 50 L 468.6 60" />
        <path d="M 485.2 50 L 485.2 60" />
        <path d="M 501.8 50 L 501.8 60" />
        <path d="M 518.4 50 L 518.4 60" />
        <path d="M 535 50 L 535 60" />
        <path d="M 551.6 50 L 551.6 60" />
        <path d="M 568.2 50 L 568.2 60" />
        <path d="M 584.8 50 L 584.8 60" />
        <path d="M 601.4 50 L 601.4 60" />
        <path d="M 618 50 L 618 70" />
        <path d="M 634.6 50 L 634.6 60" />
        <path d="M 651.2 50 L 651.2 60" />
        <path d="M 667.8 50 L 667.8 60" />
        <path d="M 684.4 50 L 684.4 60" />
        <path d="M 701 50 L 701 60" />
        <path d="M 717.6 50 L 717.6 60" />
        <path d="M 734.2 50 L 734.2 60" />
        <path d="M 750.8 50 L 750.8 60" />
        <path d="M 767.4 50 L 767.4 60" />
        <path d="M 784 50 L 784 70" />
        <path d="M 800.6 50 L 800.6 60" />
        <path d="M 817.2 50 L 817.2 60" />
        <path d="M 833.8 50 L 833.8 60" />
        <path d="M 850.4 50 L 850.4 60" />
        <path d="M 867 50 L 867 60" />
        <path d="M 883.6 50 L 883.6 60" />
        <path d="M 900.2 50 L 900.2 60" />
        <path d="M 916.8 50 L 916.8 60" />
        <path d="M 933.4 50 L 933.4 60" />
        <path d="M 950 50 L 950 70" />
    </g>
    <g id="frame_0_rightticks">
        <path d="M 950 510.759 L 940 510.759" />
        <path d="M 950 306.139 L 940 306.139" />
        <path d="M 950 229.406 L 940 229.406" />
        <path d="M 950 382.871 L 940 382.871" />
        <path d="M 950 50.3632 L 940 50.3632" />
        <path d="M 950 254.984 L 940 254.984" />
        <path d="M 950 740.957 L 940 740.957" />
        <path d="M 950 792.112 L 930 792.112" />
        <path d="M 950 127.096 L 940 127.096" />
        <path d="M 950 664.224 L 930 664.224" />
        <path d="M 950 920 L 930 920" />
        <path d="M 950 817.69 L 940 817.69" />
        <path d="M 950 357.294 L 940 357.294" />
        <path d="M 950 689.802 L 940 689.802" />
        <path d="M 950 536.337 L 930 536.337" />
        <path d="M 950 561.914 L 940 561.914" />
        <path d="M 950 178.251 L 940 178.251" />
        <path d="M 950 408.449 L 930 408.449" />
        <path d="M 950 434.026 L 940 434.026" />
        <path d="M 950 75.9408 L 940 75.9408" />
        <path d="M 950 715.38 L 940 715.38" />
        <path d="M 950 203.829 L 940 203.829" />
        <path d="M 950 280.561 L 930 280.561" />
        <path d="M 950 587.492 L 940 587.492" />
        <path d="M 950 152.673 L 930 152.673" />
        <path d="M 950 459.604 L 940 459.604" />
        <path d="M 950 843.267 L 940 843.267" />
        <path d="M 950 331.716 L 940 331.716" />
        <path d="M 950 613.069 L 940 613.069" />
        <path d="M 950 868.845 L 940 868.845" />
        <path d="M 950 894.422 L 940 894.422" />
        <path d="M 950 101.518 L 940 101.518" />
        <path d="M 950 766.535 L 940 766.535" />
        <path d="M 950 485.182 L 940 485.182" />
        <path d="M 950 638.647 L 940 638.647" />
    </g>
</g>
</g>
</svg>
