<?xml version="1.0" standalone="no"?>
<!DOCTYPE svg PUBLIC "-//W3C//DTD SVG 1.1//EN" "http://www.w3.org/Graphics/SVG/1.1/DTD/svg11.dtd">
<svg style="stroke-linejoin:miter; stroke:black; stroke-width:2.5; text-anchor:middle; fill:none" xmlns="http://www.w3.org/2000/svg" font-family="Helvetica, Arial, FreeSans, Sans, sans, sans-serif" width="1000px" height="1000px" version="1.1" xmlns:xlink="http://www.w3.org/1999/xlink" viewBox="0 0 1000 1000">
<defs>
    <clipPath id="Histogram_0_clip">
        <rect x="120" y="50" width="830" height="870" />
    </clipPath>
</defs>
<g id="whole_document">
<rect id="background" x="0" y="0" width="1000" height="1000" stroke="none" fill="white" />
<g id="Histogram_0" clip-path="url(#Histogram_0_clip)">
    <path d="M 120 920 L 120 129.091 L 161.5 129.091 L 161.5 904.154 L 203 904.154 L 203 911.78 L 244.5 911.78 L 244.5 920 L 286 920 L 286 920 L 327.5 920 L 327.5 919.807 L 369 919.807 L 369 920 L 410.5 920 L 410.5 920 L 452 920 L 452 920 L 493.5 920 L 493.5 920 L 535 920 L 535 920 L 576.5 920 L 576.5 920 L 618 920 L 618 920 L 659.5 920 L 659.5 920 L 701 920 L 701 920 L 742.5 920 L 742.5 920 L 784 920 L 784 920 L 825.5 920 L 825.5 920 L 867 920 L 867 920 L 908.5 920 L 908.5 920 L 950 920 L 950 920" stroke-width="3" stroke-dasharray="" stroke="black" stroke-opacity="1" fill="DodgerBlue" fill-opacity="1" />
</g>
<g id="frame_0">
    <rect id="frame_0_border" x="120" y="50" width="830" height="870" />
    <text id="frame_0_bottomlabel" font-size="30" transform="translate(535, 989.6)" text-anchor="middle" dominant-baseline="middle" stroke="none" fill="black">microseconds</text>
    <g id="frame_0_bottomticks">
        <path d="M 120 920 L 120 900" />
        <text font-size="30" transform="translate(120, 950)" text-anchor="middle" dominant-baseline="middle" stroke="none" fill="black">0</text>
        <path d="M 136.6 920 L 136.6 910" />
        <path d="M 153.2 920 L 153.2 910" />
        <path d="M 169.8 920 L 169.8 910" />
        <path d="M 186.4 920 L 186.4 910" />
        <path d="M 203 920 L 203 910" />
        <path d="M 219.6 920 L 219.6 910" />
        <path d="M 236.2 920 L 236.2 910" />
        <path d="M 252.8 920 L 252.8 910" />
        <path d="M 269.4 920 L 269.4 910" />
        <path d="M 286 920 L 286 900" />
        <text font-size="30" transform="translate(286, 950)" text-anchor="middle" dominant-baseline="middle" stroke="none" fill="black">10</text>
        <path d="M 302.6 920 L 302.6 910" />
        <path d="M 319.2 920 L 319.2 910" />
        <path d="M 335.8 920 L 335.8 910" />
        <path d="M 352.4 920 L 352.4 910" />
        <path d="M 369 920 L 369 910" />
        <path d="M 385.6 920 L 385.6 910" />
        <path d="M 402.2 920 L 402.2 910" />
        <path d="M 418.8 920 L 418.8 910" />
        <path d="M 435.4 920 L 435.4 910" />
        <path d="M 452 920 L 452 900" />
        <text font-size="30" transform="translate(452, 950)" text-anchor="middle" dominant-baseline="middle" stroke="none" fill="black">20</text>
        <path d="M 468.6 920 L 468.6 910" />
        <path d="M 485.2 920 L 485.2 910" />
        <path d="M 501.8 920 L 501.8 910" />
        <path d="M 518.4 920 L 518.4 910" />
        <path d="M 535 920 L 535 910" />
        <path d="M 551.6 920 L 551.6 910" />
        <path d="M 568.2 920 L 568.2 910" />
        <path d="M 584.8 920 L 584.8 910" />
        <path d="M 601.4 920 L 601.4 910" />
        <path d="M 618 920 L 618 900" />
        <text font-size="30" transform="translate(618, 950)" text-anchor="middle" dominant-baseline="middle" stroke="none" fill="black">30</text>
        <path d="M 634.6 920 L 634.6 910" />
        <path d="M 651.2 920 L 651.2 910" />
        <path d="M 667.8 920 L 667.8 910" />
        <path d="M 684.4 920 L 684.4 910" />
        <path d="M 701 920 L 701 910" />
        <path d="M 717.6 920 L 717.6 910" />
        <path d="M 734.2 920 L 734.2 910" />
        <path d="M 750.8 920 L 750.8 910" />
        <path d="M 767.4 920 L 767.4 910" />
        <path d="M 784 920 L 784 900" />
        <text font-size="30" transform="translate(784, 950)" text-anchor="middle" dominant-baseline="middle" stroke="none" fill="black">40</text>
        <path d="M 800.6 920 L 800.6 910" />
        <path d="M 817.2 920 L 817.2 910" />
        <path d="M 833.8 920 L 833.8 910" />
        <path d="M 850.4 920 L 850.4 910" />
        <path d="M 867 920 L 867 910" />
        <path d="M 883.6 920 L 883.6 910" />
        <path d="M 900.2 920 L 900.2 910" />
        <path d="M 916.8 920 L 916.8 910" />
        <path d="M 933.4 920 L 933.4 910" />
        <path d="M 950 920 L 950 900" />
        <text font-size="30" transform="translate(950, 950)" text-anchor="middle" dominant-baseline="middle" stroke="none" fill="black">50</text>
    </g>
    <g id="frame_0_leftticks">
        <path d="M 120 722.231 L 130 722.231" />
        <path d="M 120 623.346 L 130 623.346" />
        <path d="M 120 920 L 140 920" />
        <text font-size="30" transform="translate(110, 930)" text-anchor="end" dominant-baseline="middle" stroke="none" fill="black">0</text>
        <path d="M 120 400.856 L 130 400.856" />
        <path d="M 120 524.461 L 130 524.461" />
        <path d="M 120 697.51 L 130 697.51" />
        <path d="M 120 128.923 L 130 128.923" />
        <path d="M 120 252.529 L 130 252.529" />
        <path d="M 120 895.279 L 130 895.279" />
        <path d="M 120 870.558 L 130 870.558" />
        <path d="M 120 648.067 L 130 648.067" />
        <path d="M 120 104.202 L 130 104.202" />
        <path d="M 120 845.837 L 130 845.837" />
        <path d="M 120 796.394 L 140 796.394" />
        <text font-size="30" transform="translate(110, 806.394)" text-anchor="end" dominant-baseline="middle" stroke="none" fill="black">50000</text>
        <path d="M 120 227.807 L 130 227.807" />
        <path d="M 120 351.413 L 130 351.413" />
        <path d="M 120 475.019 L 130 475.019" />
        <path d="M 120 821.115 L 130 821.115" />
        <path d="M 120 277.25 L 130 277.25" />
        <path d="M 120 79.4805 L 130 79.4805" />
        <path d="M 120 203.086 L 130 203.086" />
        <path d="M 120 598.625 L 130 598.625" />
        <path d="M 120 326.692 L 130 326.692" />
        <path d="M 120 450.298 L 130 450.298" />
        <path d="M 120 573.904 L 130 573.904" />
        <path d="M 120 54.7593 L 140 54.7593" />
        <text font-size="30" transform="translate(110, 64.7593)" text-anchor="end" dominant-baseline="middle" stroke="none" fill="black">350000</text>
        <path d="M 120 771.673 L 130 771.673" />
        <path d="M 120 499.74 L 130 499.74" />
        <path d="M 120 178.365 L 140 178.365" />
        <text font-size="30" transform="translate(110, 188.365)" text-anchor="end" dominant-baseline="middle" stroke="none" fill="black">300000</text>
        <path d="M 120 301.971 L 140 301.971" />
        <text font-size="30" transform="translate(110, 311.971)" text-anchor="end" dominant-baseline="middle" stroke="none" fill="black">250000</text>
        <path d="M 120 746.952 L 130 746.952" />
        <path d="M 120 425.577 L 140 425.577" />
        <text font-size="30" transform="translate(110, 435.577)" text-anchor="end" dominant-baseline="middle" stroke="none" fill="black">200000</text>
        <path d="M 120 549.183 L 140 549.183" />
        <text font-size="30" transform="translate(110, 559.183)" text-anchor="end" dominant-baseline="middle" stroke="none" fill="black">150000</text>
        <path d="M 120 672.788 L 140 672.788" />
        <text font-size="30" transform="translate(110, 682.788)" text-anchor="end" dominant-baseline="middle" stroke="none" fill="black">100000</text>
        <path d="M 120 376.134 L 130 376.134" />
        <path d="M 120 153.644 L 130 153.644" />
    </g>
    <text id="frame_0_toplabel" font-size="30" transform="translate(535, 32.6)" text-anchor="middle" dominant-baseline="middle" stroke="none" fill="black">a.index</text>
    <g id="frame_0_topticks">
        <path d="M 120 50 L 120 70" />
        <path d="M 136.6 50 L 136.6 60" />
        <path d="M 153.2 50 L 153.2 60" />
        <path d="M 169.8 50 L 169.8 60" />
        <path d="M 186.4 50 L 186.4 60" />
        <path d="M 203 50 L 203 60" />
        <path d="M 219.6 50 L 219.6 60" />
        <path d="M 236.2 50 L 236.2 60" />
        <path d="M 252.8 50 L 252.8 60" />
        <path d="M 269.4 50 L 269.4 60" />
        <path d="M 286 50 L 286 70" />
        <path d="M 302.6 50 L 302.6 60" />
        <path d="M 319.2 50 L 319.2 60" />
        <path d="M 335.8 50 L 335.8 60" />
        <path d="M 352.4 50 L 352.4 60" />
        <path d="M 369 50 L 369 60" />
        <path d="M 385.6 50 L 385.6 60" />
        <path d="M 402.2 50 L 402.2 60" />
        <path d="M 418.8 50 L 418.8 60" />
        <path d="M 435.4 50 L 435.4 60" />
        <path d="M 452 50 L 452 70" />
        <path d="M 468.6 50 L 468.6 60" />
        <path d="M 485.2 50 L 485.2 60" />
        <path d="M 501.8 50 L 501.8 60" />
        <path d="M 518.4 50 L 518.4 60" />
        <path d="M 535 50 L 535 60" />
        <path d="M 551.6 50 L 551.6 60" />
        <path d="M 568.2 50 L 568.2 60" />
        <path d="M 584.8 50 L 584.8 60" />
        <path d="M 601.4 50 L 601.4 60" />
        <path d="M 618 50 L 618 70" />
        <path d="M 634.6 50 L 634.6 60" />
        <path d="M 651.2 50 L 651.2 60" />
        <path d="M 667.8 50 L 667.8 60" />
        <path d="M 684.4 50 L 684.4 60" />
        <path d="M 701 50 L 701 60" />
        <path d="M 717.6 50 L 717.6 60" />
        <path d="M 734.2 50 L 734.2 60" />
        <path d="M 750.8 50 L 750.8 60" />
        <path d="M 767.4 50 L 767.4 60" />
        <path d="M 784 50 L 784 70" />
        <path d="M 800.6 50 L 800.6 60" />
        <path d="M 817.2 50 L 817.2 60" />
        <path d="M 833.8 50 L 833.8 60" />
        <path d="M 850.4 50 L 850.4 60" />
        <path d="M 867 50 L 867 60" />
        <path d="M 883.6 50 L 883.6 60" />
        <path d="M 900.2 50 L 900.2 60" />
        <path d="M 916.8 50 L 916.8 60" />
        <path d="M 933.4 50 L 933.4 60" />
        <path d="M 950 50 L 950 70" />
    </g>
    <g id="frame_0_rightticks">
        <path d="M 950 722.231 L 940 722.231" />
        <path d="M 950 623.346 L 940 623.346" />
        <path d="M 950 920 L 930 920" />
        <path d="M 950 400.856 L 940 400.856" />
        <path d="M 950 524.461 L 940 524.461" />
        <path d="M 950 697.51 L 940 697.51" />
        <path d="M 950 128.923 L 940 128.923" />
        <path d="M 950 252.529 L 940 252.529" />
        <path d="M 950 895.279 L 940 895.279" />
        <path d="M 950 870.558 L 940 870.558" />
        <path d="M 950 648.067 L 940 648.067" />
        <path d="M 950 104.202 L 940 104.202" />
        <path d="M 950 845.837 L 940 845.837" />
        <path d="M 950 796.394 L 930 796.394" />
        <path d="M 950 227.807 L 940 227.807" />
        <path d="M 950 351.413 L 940 351.413" />
        <path d="M 950 475.019 L 940 475.019" />
        <path d="M 950 821.115 L 940 821.115" />
        <path d="M 950 277.25 L 940 277.25" />
        <path d="M 950 79.4805 L 940 79.4805" />
        <path d="M 950 203.086 L 940 203.086" />
        <path d="M 950 598.625 L 940 598.625" />
        <path d="M 950 326.692 L 940 326.692" />
        <path d="M 950 450.298 L 940 450.298" />
        <path d="M 950 573.904 L 940 573.904" />
        <path d="M 950 54.7593 L 930 54.7593" />
        <path d="M 950 771.673 L 940 771.673" />
        <path d="M 950 499.74 L 940 499.74" />
        <path d="M 950 178.365 L 930 178.365" />
        <path d="M 950 301.971 L 930 301.971" />
        <path d="M 950 746.952 L 940 746.952" />
        <path d="M 950 425.577 L 930 425.577" />
        <path d="M 950 549.183 L 930 549.183" />
        <path d="M 950 672.788 L 930 672.788" />
        <path d="M 950 376.134 L 940 376.134" />
        <path d="M 950 153.644 L 940 153.644" />
    </g>
</g>
</g>
</svg>
