<?xml version="1.0" standalone="no"?>
<!DOCTYPE svg PUBLIC "-//W3C//DTD SVG 1.1//EN" "http://www.w3.org/Graphics/SVG/1.1/DTD/svg11.dtd">
<svg style="stroke-linejoin:miter; stroke:black; stroke-width:2.5; text-anchor:middle; fill:none" xmlns="http://www.w3.org/2000/svg" font-family="Helvetica, Arial, FreeSans, Sans, sans, sans-serif" width="1000px" height="1000px" version="1.1" xmlns:xlink="http://www.w3.org/1999/xlink" viewBox="0 0 1000 1000">
<defs>
    <clipPath id="Histogram_0_clip">
        <rect x="120" y="50" width="830" height="870" />
    </clipPath>
    <clipPath id="Histogram_1_clip">
        <rect x="120" y="50" width="830" height="870" />
    </clipPath>
</defs>
<g id="whole_document">
<rect id="background" x="0" y="0" width="1000" height="1000" stroke="none" fill="white" />
<g id="Histogram_0" clip-path="url(#Histogram_0_clip)">
    <path d="M 120 920 L 120 129.091 L 161.5 129.091 L 161.5 887.472 L 203 887.472 L 203 919.895 L 244.5 919.895 L 244.5 545.655 L 286 545.655 L 286 919.122 L 327.5 919.122 L 327.5 917.305 L 369 917.305 L 369 919.665 L 410.5 919.665 L 410.5 919.975 L 452 919.975 L 452 919.971 L 493.5 919.971 L 493.5 920 L 535 920 L 535 920 L 576.5 920 L 576.5 920 L 618 920 L 618 920 L 659.5 920 L 659.5 920 L 701 920 L 701 920 L 742.5 920 L 742.5 920 L 784 920 L 784 920 L 825.5 920 L 825.5 920 L 867 920 L 867 920 L 908.5 920 L 908.5 920 L 950 920 L 950 920" stroke-width="3" stroke-dasharray="" stroke="black" stroke-opacity="1" fill="DodgerBlue" fill-opacity="1" />
</g>
<g id="Histogram_1" clip-path="url(#Histogram_1_clip)">
    <path d="M 120 920 L 120 920 L 161.5 920 L 161.5 920 L 203 920 L 203 920 L 244.5 920 L 244.5 545.655 L 286 545.655 L 286 919.122 L 327.5 919.122 L 327.5 917.305 L 369 917.305 L 369 919.665 L 410.5 919.665 L 410.5 919.975 L 452 919.975 L 452 919.971 L 493.5 919.971 L 493.5 920 L 535 920 L 535 920 L 576.5 920 L 576.5 920 L 618 920 L 618 920 L 659.5 920 L 659.5 920 L 701 920 L 701 920 L 742.5 920 L 742.5 920 L 784 920 L 784 920 L 825.5 920 L 825.5 920 L 867 920 L 867 920 L 908.5 920 L 908.5 920 L 950 920 L 950 920" stroke-width="3" stroke-dasharray="" stroke="black" stroke-opacity="1" fill="darkorange" fill-opacity="1" />
</g>
<g id="frame_0">
    <rect id="frame_0_border" x="120" y="50" width="830" height="870" />
    <text id="frame_0_bottomlabel" font-size="30" transform="translate(535, 989.6)" text-anchor="middle" dominant-baseline="middle" stroke="none" fill="black">microseconds</text>
    <g id="frame_0_bottomticks">
        <path d="M 120 920 L 120 900" />
        <text font-size="30" transform="translate(120, 950)" text-anchor="middle" dominant-baseline="middle" stroke="none" fill="black">0</text>
        <path d="M 136.6 920 L 136.6 910" />
        <path d="M 153.2 920 L 153.2 910" />
        <path d="M 169.8 920 L 169.8 910" />
        <path d="M 186.4 920 L 186.4 910" />
        <path d="M 203 920 L 203 910" />
        <path d="M 219.6 920 L 219.6 910" />
        <path d="M 236.2 920 L 236.2 910" />
        <path d="M 252.8 920 L 252.8 910" />
        <path d="M 269.4 920 L 269.4 910" />
        <path d="M 286 920 L 286 900" />
        <text font-size="30" transform="translate(286, 950)" text-anchor="middle" dominant-baseline="middle" stroke="none" fill="black">10</text>
        <path d="M 302.6 920 L 302.6 910" />
        <path d="M 319.2 920 L 319.2 910" />
        <path d="M 335.8 920 L 335.8 910" />
        <path d="M 352.4 920 L 352.4 910" />
        <path d="M 369 920 L 369 910" />
        <path d="M 385.6 920 L 385.6 910" />
        <path d="M 402.2 920 L 402.2 910" />
        <path d="M 418.8 920 L 418.8 910" />
        <path d="M 435.4 920 L 435.4 910" />
        <path d="M 452 920 L 452 900" />
        <text font-size="30" transform="translate(452, 950)" text-anchor="middle" dominant-baseline="middle" stroke="none" fill="black">20</text>
        <path d="M 468.6 920 L 468.6 910" />
        <path d="M 485.2 920 L 485.2 910" />
        <path d="M 501.8 920 L 501.8 910" />
        <path d="M 518.4 920 L 518.4 910" />
        <path d="M 535 920 L 535 910" />
        <path d="M 551.6 920 L 551.6 910" />
        <path d="M 568.2 920 L 568.2 910" />
        <path d="M 584.8 920 L 584.8 910" />
        <path d="M 601.4 920 L 601.4 910" />
        <path d="M 618 920 L 618 900" />
        <text font-size="30" transform="translate(618, 950)" text-anchor="middle" dominant-baseline="middle" stroke="none" fill="black">30</text>
        <path d="M 634.6 920 L 634.6 910" />
        <path d="M 651.2 920 L 651.2 910" />
        <path d="M 667.8 920 L 667.8 910" />
        <path d="M 684.4 920 L 684.4 910" />
        <path d="M 701 920 L 701 910" />
        <path d="M 717.6 920 L 717.6 910" />
        <path d="M 734.2 920 L 734.2 910" />
        <path d="M 750.8 920 L 750.8 910" />
        <path d="M 767.4 920 L 767.4 910" />
        <path d="M 784 920 L 784 900" />
        <text font-size="30" transform="translate(784, 950)" text-anchor="middle" dominant-baseline="middle" stroke="none" fill="black">40</text>
        <path d="M 800.6 920 L 800.6 910" />
        <path d="M 817.2 920 L 817.2 910" />
        <path d="M 833.8 920 L 833.8 910" />
        <path d="M 850.4 920 L 850.4 910" />
        <path d="M 867 920 L 867 910" />
        <path d="M 883.6 920 L 883.6 910" />
        <path d="M 900.2 920 L 900.2 910" />
        <path d="M 916.8 920 L 916.8 910" />
        <path d="M 933.4 920 L 933.4 910" />
        <path d="M 950 920 L 950 900" />
        <text font-size="30" transform="translate(950, 950)" text-anchor="middle" dominant-baseline="middle" stroke="none" fill="black">50</text>
    </g>
    <g id="frame_0_leftticks">
        <path d="M 120 740.106 L 130 740.106" />
        <path d="M 120 830.053 L 130 830.053" />
        <path d="M 120 395.308 L 130 395.308" />
        <path d="M 120 920 L 140 920" />
        <text font-size="30" transform="translate(110, 930)" text-anchor="end" dominant-baseline="middle" stroke="none" fill="black">0</text>
        <path d="M 120 50.51 L 130 50.51" />
        <path d="M 120 575.202 L 130 575.202" />
        <path d="M 120 230.404 L 130 230.404" />
        <path d="M 120 755.097 L 130 755.097" />
        <path d="M 120 410.299 L 130 410.299" />
        <path d="M 120 65.5012 L 130 65.5012" />
        <path d="M 120 590.193 L 130 590.193" />
        <path d="M 120 245.396 L 130 245.396" />
        <path d="M 120 770.088 L 140 770.088" />
        <text font-size="30" transform="translate(110, 780.088)" text-anchor="end" dominant-baseline="middle" stroke="none" fill="black">10⁶</text>
        <path d="M 120 425.29 L 130 425.29" />
        <path d="M 120 650.158 L 130 650.158" />
        <path d="M 120 605.185 L 130 605.185" />
        <path d="M 120 905.009 L 130 905.009" />
        <path d="M 120 260.387 L 130 260.387" />
        <path d="M 120 440.281 L 130 440.281" />
        <path d="M 120 95.4836 L 130 95.4836" />
        <path d="M 120 620.176 L 140 620.176" />
        <text font-size="30" transform="translate(110, 630.176)" text-anchor="end" dominant-baseline="middle" stroke="none" fill="black">2×10⁶</text>
        <path d="M 120 275.378 L 130 275.378" />
        <path d="M 120 800.07 L 130 800.07" />
        <path d="M 120 455.273 L 130 455.273" />
        <path d="M 120 110.475 L 130 110.475" />
        <path d="M 120 635.167 L 130 635.167" />
        <path d="M 120 290.369 L 130 290.369" />
        <path d="M 120 815.062 L 130 815.062" />
        <path d="M 120 470.264 L 140 470.264" />
        <text font-size="30" transform="translate(110, 480.264)" text-anchor="end" dominant-baseline="middle" stroke="none" fill="black">3×10⁶</text>
        <path d="M 120 125.466 L 130 125.466" />
        <path d="M 120 890.018 L 130 890.018" />
        <path d="M 120 785.079 L 130 785.079" />
        <path d="M 120 305.361 L 130 305.361" />
        <path d="M 120 485.255 L 130 485.255" />
        <path d="M 120 140.457 L 130 140.457" />
        <path d="M 120 665.149 L 130 665.149" />
        <path d="M 120 320.352 L 140 320.352" />
        <text font-size="30" transform="translate(110, 330.352)" text-anchor="end" dominant-baseline="middle" stroke="none" fill="black">4×10⁶</text>
        <path d="M 120 845.044 L 130 845.044" />
        <path d="M 120 215.413 L 130 215.413" />
        <path d="M 120 500.246 L 130 500.246" />
        <path d="M 120 155.448 L 130 155.448" />
        <path d="M 120 680.141 L 130 680.141" />
        <path d="M 120 170.44 L 140 170.44" />
        <text font-size="30" transform="translate(110, 180.44)" text-anchor="end" dominant-baseline="middle" stroke="none" fill="black">5×10⁶</text>
        <path d="M 120 335.343 L 130 335.343" />
        <path d="M 120 860.035 L 130 860.035" />
        <path d="M 120 515.237 L 130 515.237" />
        <path d="M 120 875.026 L 130 875.026" />
        <path d="M 120 695.132 L 130 695.132" />
        <path d="M 120 350.334 L 130 350.334" />
        <path d="M 120 530.229 L 130 530.229" />
        <path d="M 120 80.4924 L 130 80.4924" />
        <path d="M 120 185.431 L 130 185.431" />
        <path d="M 120 710.123 L 130 710.123" />
        <path d="M 120 365.325 L 130 365.325" />
        <path d="M 120 545.22 L 130 545.22" />
        <path d="M 120 200.422 L 130 200.422" />
        <path d="M 120 725.114 L 130 725.114" />
        <path d="M 120 380.317 L 130 380.317" />
        <path d="M 120 560.211 L 130 560.211" />
    </g>
    <text id="frame_0_toplabel" font-size="30" transform="translate(535, 32.6)" text-anchor="middle" dominant-baseline="middle" stroke="none" fill="black">prob.dist.gaussianCDF</text>
    <g id="frame_0_topticks">
        <path d="M 120 50 L 120 70" />
        <path d="M 136.6 50 L 136.6 60" />
        <path d="M 153.2 50 L 153.2 60" />
        <path d="M 169.8 50 L 169.8 60" />
        <path d="M 186.4 50 L 186.4 60" />
        <path d="M 203 50 L 203 60" />
        <path d="M 219.6 50 L 219.6 60" />
        <path d="M 236.2 50 L 236.2 60" />
        <path d="M 252.8 50 L 252.8 60" />
        <path d="M 269.4 50 L 269.4 60" />
        <path d="M 286 50 L 286 70" />
        <path d="M 302.6 50 L 302.6 60" />
        <path d="M 319.2 50 L 319.2 60" />
        <path d="M 335.8 50 L 335.8 60" />
        <path d="M 352.4 50 L 352.4 60" />
        <path d="M 369 50 L 369 60" />
        <path d="M 385.6 50 L 385.6 60" />
        <path d="M 402.2 50 L 402.2 60" />
        <path d="M 418.8 50 L 418.8 60" />
        <path d="M 435.4 50 L 435.4 60" />
        <path d="M 452 50 L 452 70" />
        <path d="M 468.6 50 L 468.6 60" />
        <path d="M 485.2 50 L 485.2 60" />
        <path d="M 501.8 50 L 501.8 60" />
        <path d="M 518.4 50 L 518.4 60" />
        <path d="M 535 50 L 535 60" />
        <path d="M 551.6 50 L 551.6 60" />
        <path d="M 568.2 50 L 568.2 60" />
        <path d="M 584.8 50 L 584.8 60" />
        <path d="M 601.4 50 L 601.4 60" />
        <path d="M 618 50 L 618 70" />
        <path d="M 634.6 50 L 634.6 60" />
        <path d="M 651.2 50 L 651.2 60" />
        <path d="M 667.8 50 L 667.8 60" />
        <path d="M 684.4 50 L 684.4 60" />
        <path d="M 701 50 L 701 60" />
        <path d="M 717.6 50 L 717.6 60" />
        <path d="M 734.2 50 L 734.2 60" />
        <path d="M 750.8 50 L 750.8 60" />
        <path d="M 767.4 50 L 767.4 60" />
        <path d="M 784 50 L 784 70" />
        <path d="M 800.6 50 L 800.6 60" />
        <path d="M 817.2 50 L 817.2 60" />
        <path d="M 833.8 50 L 833.8 60" />
        <path d="M 850.4 50 L 850.4 60" />
        <path d="M 867 50 L 867 60" />
        <path d="M 883.6 50 L 883.6 60" />
        <path d="M 900.2 50 L 900.2 60" />
        <path d="M 916.8 50 L 916.8 60" />
        <path d="M 933.4 50 L 933.4 60" />
        <path d="M 950 50 L 950 70" />
    </g>
    <g id="frame_0_rightticks">
        <path d="M 950 740.106 L 940 740.106" />
        <path d="M 950 830.053 L 940 830.053" />
        <path d="M 950 395.308 L 940 395.308" />
        <path d="M 950 920 L 930 920" />
        <path d="M 950 50.51 L 940 50.51" />
        <path d="M 950 575.202 L 940 575.202" />
        <path d="M 950 230.404 L 940 230.404" />
        <path d="M 950 755.097 L 940 755.097" />
        <path d="M 950 410.299 L 940 410.299" />
        <path d="M 950 65.5012 L 940 65.5012" />
        <path d="M 950 590.193 L 940 590.193" />
        <path d="M 950 245.396 L 940 245.396" />
        <path d="M 950 770.088 L 930 770.088" />
        <path d="M 950 425.29 L 940 425.29" />
        <path d="M 950 650.158 L 940 650.158" />
        <path d="M 950 605.185 L 940 605.185" />
        <path d="M 950 905.009 L 940 905.009" />
        <path d="M 950 260.387 L 940 260.387" />
        <path d="M 950 440.281 L 940 440.281" />
        <path d="M 950 95.4836 L 940 95.4836" />
        <path d="M 950 620.176 L 930 620.176" />
        <path d="M 950 275.378 L 940 275.378" />
        <path d="M 950 800.07 L 940 800.07" />
        <path d="M 950 455.273 L 940 455.273" />
        <path d="M 950 110.475 L 940 110.475" />
        <path d="M 950 635.167 L 940 635.167" />
        <path d="M 950 290.369 L 940 290.369" />
        <path d="M 950 815.062 L 940 815.062" />
        <path d="M 950 470.264 L 930 470.264" />
        <path d="M 950 125.466 L 940 125.466" />
        <path d="M 950 890.018 L 940 890.018" />
        <path d="M 950 785.079 L 940 785.079" />
        <path d="M 950 305.361 L 940 305.361" />
        <path d="M 950 485.255 L 940 485.255" />
        <path d="M 950 140.457 L 940 140.457" />
        <path d="M 950 665.149 L 940 665.149" />
        <path d="M 950 320.352 L 930 320.352" />
        <path d="M 950 845.044 L 940 845.044" />
        <path d="M 950 215.413 L 940 215.413" />
        <path d="M 950 500.246 L 940 500.246" />
        <path d="M 950 155.448 L 940 155.448" />
        <path d="M 950 680.141 L 940 680.141" />
        <path d="M 950 170.44 L 930 170.44" />
        <path d="M 950 335.343 L 940 335.343" />
        <path d="M 950 860.035 L 940 860.035" />
        <path d="M 950 515.237 L 940 515.237" />
        <path d="M 950 875.026 L 940 875.026" />
        <path d="M 950 695.132 L 940 695.132" />
        <path d="M 950 350.334 L 940 350.334" />
        <path d="M 950 530.229 L 940 530.229" />
        <path d="M 950 80.4924 L 940 80.4924" />
        <path d="M 950 185.431 L 940 185.431" />
        <path d="M 950 710.123 L 940 710.123" />
        <path d="M 950 365.325 L 940 365.325" />
        <path d="M 950 545.22 L 940 545.22" />
        <path d="M 950 200.422 L 940 200.422" />
        <path d="M 950 725.114 L 940 725.114" />
        <path d="M 950 380.317 L 940 380.317" />
        <path d="M 950 560.211 L 940 560.211" />
    </g>
</g>
</g>
</svg>
