<?xml version="1.0" standalone="no"?>
<!DOCTYPE svg PUBLIC "-//W3C//DTD SVG 1.1//EN" "http://www.w3.org/Graphics/SVG/1.1/DTD/svg11.dtd">
<svg style="stroke-linejoin:miter; stroke:black; stroke-width:2.5; text-anchor:middle; fill:none" xmlns="http://www.w3.org/2000/svg" font-family="Helvetica, Arial, FreeSans, Sans, sans, sans-serif" width="1000px" height="1000px" version="1.1" xmlns:xlink="http://www.w3.org/1999/xlink" viewBox="0 0 1000 1000">
<defs>
    <clipPath id="Histogram_0_clip">
        <rect x="120" y="50" width="830" height="870" />
    </clipPath>
    <clipPath id="Histogram_1_clip">
        <rect x="120" y="50" width="830" height="870" />
    </clipPath>
</defs>
<g id="whole_document">
<rect id="background" x="0" y="0" width="1000" height="1000" stroke="none" fill="white" />
<g id="Histogram_0" clip-path="url(#Histogram_0_clip)">
    <path d="M 120 920 L 120 650.497 L 161.5 650.497 L 161.5 129.091 L 203 129.091 L 203 845.518 L 244.5 845.518 L 244.5 920 L 286 920 L 286 917.477 L 327.5 917.477 L 327.5 917.741 L 369 917.741 L 369 920 L 410.5 920 L 410.5 920 L 452 920 L 452 920 L 493.5 920 L 493.5 920 L 535 920 L 535 920 L 576.5 920 L 576.5 920 L 618 920 L 618 920 L 659.5 920 L 659.5 920 L 701 920 L 701 920 L 742.5 920 L 742.5 920 L 784 920 L 784 920 L 825.5 920 L 825.5 920 L 867 920 L 867 920 L 908.5 920 L 908.5 920 L 950 920 L 950 920" stroke-width="3" stroke-dasharray="" stroke="black" stroke-opacity="1" fill="DodgerBlue" fill-opacity="1" />
</g>
<g id="Histogram_1" clip-path="url(#Histogram_1_clip)">
    <path d="M 120 920 L 120 920 L 161.5 920 L 161.5 920 L 203 920 L 203 920 L 244.5 920 L 244.5 920 L 286 920 L 286 917.477 L 327.5 917.477 L 327.5 917.741 L 369 917.741 L 369 920 L 410.5 920 L 410.5 920 L 452 920 L 452 920 L 493.5 920 L 493.5 920 L 535 920 L 535 920 L 576.5 920 L 576.5 920 L 618 920 L 618 920 L 659.5 920 L 659.5 920 L 701 920 L 701 920 L 742.5 920 L 742.5 920 L 784 920 L 784 920 L 825.5 920 L 825.5 920 L 867 920 L 867 920 L 908.5 920 L 908.5 920 L 950 920 L 950 920" stroke-width="3" stroke-dasharray="" stroke="black" stroke-opacity="1" fill="darkorange" fill-opacity="1" />
</g>
<g id="frame_0">
    <rect id="frame_0_border" x="120" y="50" width="830" height="870" />
    <text id="frame_0_bottomlabel" font-size="30" transform="translate(535, 989.6)" text-anchor="middle" dominant-baseline="middle" stroke="none" fill="black">microseconds</text>
    <g id="frame_0_bottomticks">
        <path d="M 120 920 L 120 900" />
        <text font-size="30" transform="translate(120, 950)" text-anchor="middle" dominant-baseline="middle" stroke="none" fill="black">0</text>
        <path d="M 136.6 920 L 136.6 910" />
        <path d="M 153.2 920 L 153.2 910" />
        <path d="M 169.8 920 L 169.8 910" />
        <path d="M 186.4 920 L 186.4 910" />
        <path d="M 203 920 L 203 910" />
        <path d="M 219.6 920 L 219.6 910" />
        <path d="M 236.2 920 L 236.2 910" />
        <path d="M 252.8 920 L 252.8 910" />
        <path d="M 269.4 920 L 269.4 910" />
        <path d="M 286 920 L 286 900" />
        <text font-size="30" transform="translate(286, 950)" text-anchor="middle" dominant-baseline="middle" stroke="none" fill="black">10</text>
        <path d="M 302.6 920 L 302.6 910" />
        <path d="M 319.2 920 L 319.2 910" />
        <path d="M 335.8 920 L 335.8 910" />
        <path d="M 352.4 920 L 352.4 910" />
        <path d="M 369 920 L 369 910" />
        <path d="M 385.6 920 L 385.6 910" />
        <path d="M 402.2 920 L 402.2 910" />
        <path d="M 418.8 920 L 418.8 910" />
        <path d="M 435.4 920 L 435.4 910" />
        <path d="M 452 920 L 452 900" />
        <text font-size="30" transform="translate(452, 950)" text-anchor="middle" dominant-baseline="middle" stroke="none" fill="black">20</text>
        <path d="M 468.6 920 L 468.6 910" />
        <path d="M 485.2 920 L 485.2 910" />
        <path d="M 501.8 920 L 501.8 910" />
        <path d="M 518.4 920 L 518.4 910" />
        <path d="M 535 920 L 535 910" />
        <path d="M 551.6 920 L 551.6 910" />
        <path d="M 568.2 920 L 568.2 910" />
        <path d="M 584.8 920 L 584.8 910" />
        <path d="M 601.4 920 L 601.4 910" />
        <path d="M 618 920 L 618 900" />
        <text font-size="30" transform="translate(618, 950)" text-anchor="middle" dominant-baseline="middle" stroke="none" fill="black">30</text>
        <path d="M 634.6 920 L 634.6 910" />
        <path d="M 651.2 920 L 651.2 910" />
        <path d="M 667.8 920 L 667.8 910" />
        <path d="M 684.4 920 L 684.4 910" />
        <path d="M 701 920 L 701 910" />
        <path d="M 717.6 920 L 717.6 910" />
        <path d="M 734.2 920 L 734.2 910" />
        <path d="M 750.8 920 L 750.8 910" />
        <path d="M 767.4 920 L 767.4 910" />
        <path d="M 784 920 L 784 900" />
        <text font-size="30" transform="translate(784, 950)" text-anchor="middle" dominant-baseline="middle" stroke="none" fill="black">40</text>
        <path d="M 800.6 920 L 800.6 910" />
        <path d="M 817.2 920 L 817.2 910" />
        <path d="M 833.8 920 L 833.8 910" />
        <path d="M 850.4 920 L 850.4 910" />
        <path d="M 867 920 L 867 910" />
        <path d="M 883.6 920 L 883.6 910" />
        <path d="M 900.2 920 L 900.2 910" />
        <path d="M 916.8 920 L 916.8 910" />
        <path d="M 933.4 920 L 933.4 910" />
        <path d="M 950 920 L 950 900" />
        <text font-size="30" transform="translate(950, 950)" text-anchor="middle" dominant-baseline="middle" stroke="none" fill="black">50</text>
    </g>
    <g id="frame_0_leftticks">
        <path d="M 120 450.635 L 130 450.635" />
        <path d="M 120 215.953 L 130 215.953" />
        <path d="M 120 127.947 L 130 127.947" />
        <path d="M 120 303.959 L 130 303.959" />
        <path d="M 120 157.282 L 130 157.282" />
        <path d="M 120 714.653 L 130 714.653" />
        <path d="M 120 773.323 L 140 773.323" />
        <text font-size="30" transform="translate(110, 783.323)" text-anchor="end" dominant-baseline="middle" stroke="none" fill="black">5000</text>
        <path d="M 120 479.97 L 140 479.97" />
        <text font-size="30" transform="translate(110, 489.97)" text-anchor="end" dominant-baseline="middle" stroke="none" fill="black">15000</text>
        <path d="M 120 626.647 L 140 626.647" />
        <text font-size="30" transform="translate(110, 636.647)" text-anchor="end" dominant-baseline="middle" stroke="none" fill="black">10000</text>
        <path d="M 120 920 L 140 920" />
        <text font-size="30" transform="translate(110, 930)" text-anchor="end" dominant-baseline="middle" stroke="none" fill="black">0</text>
        <path d="M 120 802.659 L 130 802.659" />
        <path d="M 120 274.623 L 130 274.623" />
        <path d="M 120 655.982 L 130 655.982" />
        <path d="M 120 509.306 L 130 509.306" />
        <path d="M 120 69.2762 L 130 69.2762" />
        <path d="M 120 333.294 L 140 333.294" />
        <text font-size="30" transform="translate(110, 343.294)" text-anchor="end" dominant-baseline="middle" stroke="none" fill="black">20000</text>
        <path d="M 120 362.629 L 130 362.629" />
        <path d="M 120 685.318 L 130 685.318" />
        <path d="M 120 98.6115 L 130 98.6115" />
        <path d="M 120 186.617 L 140 186.617" />
        <text font-size="30" transform="translate(110, 196.617)" text-anchor="end" dominant-baseline="middle" stroke="none" fill="black">25000</text>
        <path d="M 120 538.641 L 130 538.641" />
        <path d="M 120 391.965 L 130 391.965" />
        <path d="M 120 831.994 L 130 831.994" />
        <path d="M 120 245.288 L 130 245.288" />
        <path d="M 120 567.976 L 130 567.976" />
        <path d="M 120 861.329 L 130 861.329" />
        <path d="M 120 890.665 L 130 890.665" />
        <path d="M 120 743.988 L 130 743.988" />
        <path d="M 120 421.3 L 130 421.3" />
        <path d="M 120 597.312 L 130 597.312" />
    </g>
    <text id="frame_0_toplabel" font-size="30" transform="translate(535, 32.6)" text-anchor="middle" dominant-baseline="middle" stroke="none" fill="black">re.replacelast</text>
    <g id="frame_0_topticks">
        <path d="M 120 50 L 120 70" />
        <path d="M 136.6 50 L 136.6 60" />
        <path d="M 153.2 50 L 153.2 60" />
        <path d="M 169.8 50 L 169.8 60" />
        <path d="M 186.4 50 L 186.4 60" />
        <path d="M 203 50 L 203 60" />
        <path d="M 219.6 50 L 219.6 60" />
        <path d="M 236.2 50 L 236.2 60" />
        <path d="M 252.8 50 L 252.8 60" />
        <path d="M 269.4 50 L 269.4 60" />
        <path d="M 286 50 L 286 70" />
        <path d="M 302.6 50 L 302.6 60" />
        <path d="M 319.2 50 L 319.2 60" />
        <path d="M 335.8 50 L 335.8 60" />
        <path d="M 352.4 50 L 352.4 60" />
        <path d="M 369 50 L 369 60" />
        <path d="M 385.6 50 L 385.6 60" />
        <path d="M 402.2 50 L 402.2 60" />
        <path d="M 418.8 50 L 418.8 60" />
        <path d="M 435.4 50 L 435.4 60" />
        <path d="M 452 50 L 452 70" />
        <path d="M 468.6 50 L 468.6 60" />
        <path d="M 485.2 50 L 485.2 60" />
        <path d="M 501.8 50 L 501.8 60" />
        <path d="M 518.4 50 L 518.4 60" />
        <path d="M 535 50 L 535 60" />
        <path d="M 551.6 50 L 551.6 60" />
        <path d="M 568.2 50 L 568.2 60" />
        <path d="M 584.8 50 L 584.8 60" />
        <path d="M 601.4 50 L 601.4 60" />
        <path d="M 618 50 L 618 70" />
        <path d="M 634.6 50 L 634.6 60" />
        <path d="M 651.2 50 L 651.2 60" />
        <path d="M 667.8 50 L 667.8 60" />
        <path d="M 684.4 50 L 684.4 60" />
        <path d="M 701 50 L 701 60" />
        <path d="M 717.6 50 L 717.6 60" />
        <path d="M 734.2 50 L 734.2 60" />
        <path d="M 750.8 50 L 750.8 60" />
        <path d="M 767.4 50 L 767.4 60" />
        <path d="M 784 50 L 784 70" />
        <path d="M 800.6 50 L 800.6 60" />
        <path d="M 817.2 50 L 817.2 60" />
        <path d="M 833.8 50 L 833.8 60" />
        <path d="M 850.4 50 L 850.4 60" />
        <path d="M 867 50 L 867 60" />
        <path d="M 883.6 50 L 883.6 60" />
        <path d="M 900.2 50 L 900.2 60" />
        <path d="M 916.8 50 L 916.8 60" />
        <path d="M 933.4 50 L 933.4 60" />
        <path d="M 950 50 L 950 70" />
    </g>
    <g id="frame_0_rightticks">
        <path d="M 950 450.635 L 940 450.635" />
        <path d="M 950 215.953 L 940 215.953" />
        <path d="M 950 127.947 L 940 127.947" />
        <path d="M 950 303.959 L 940 303.959" />
        <path d="M 950 157.282 L 940 157.282" />
        <path d="M 950 714.653 L 940 714.653" />
        <path d="M 950 773.323 L 930 773.323" />
        <path d="M 950 479.97 L 930 479.97" />
        <path d="M 950 626.647 L 930 626.647" />
        <path d="M 950 920 L 930 920" />
        <path d="M 950 802.659 L 940 802.659" />
        <path d="M 950 274.623 L 940 274.623" />
        <path d="M 950 655.982 L 940 655.982" />
        <path d="M 950 509.306 L 940 509.306" />
        <path d="M 950 69.2762 L 940 69.2762" />
        <path d="M 950 333.294 L 930 333.294" />
        <path d="M 950 362.629 L 940 362.629" />
        <path d="M 950 685.318 L 940 685.318" />
        <path d="M 950 98.6115 L 940 98.6115" />
        <path d="M 950 186.617 L 930 186.617" />
        <path d="M 950 538.641 L 940 538.641" />
        <path d="M 950 391.965 L 940 391.965" />
        <path d="M 950 831.994 L 940 831.994" />
        <path d="M 950 245.288 L 940 245.288" />
        <path d="M 950 567.976 L 940 567.976" />
        <path d="M 950 861.329 L 940 861.329" />
        <path d="M 950 890.665 L 940 890.665" />
        <path d="M 950 743.988 L 940 743.988" />
        <path d="M 950 421.3 L 940 421.3" />
        <path d="M 950 597.312 L 940 597.312" />
    </g>
</g>
</g>
</svg>
