<?xml version="1.0" standalone="no"?>
<!DOCTYPE svg PUBLIC "-//W3C//DTD SVG 1.1//EN" "http://www.w3.org/Graphics/SVG/1.1/DTD/svg11.dtd">
<svg style="stroke-linejoin:miter; stroke:black; stroke-width:2.5; text-anchor:middle; fill:none" xmlns="http://www.w3.org/2000/svg" font-family="Helvetica, Arial, FreeSans, Sans, sans, sans-serif" width="1000px" height="1000px" version="1.1" xmlns:xlink="http://www.w3.org/1999/xlink" viewBox="0 0 1000 1000">
<defs>
    <clipPath id="Histogram_0_clip">
        <rect x="120" y="50" width="830" height="870" />
    </clipPath>
    <clipPath id="Histogram_1_clip">
        <rect x="120" y="50" width="830" height="870" />
    </clipPath>
</defs>
<g id="whole_document">
<rect id="background" x="0" y="0" width="1000" height="1000" stroke="none" fill="white" />
<g id="Histogram_0" clip-path="url(#Histogram_0_clip)">
    <path d="M 120 920 L 120 365.004 L 161.5 365.004 L 161.5 919.319 L 203 919.319 L 203 920 L 244.5 920 L 244.5 129.091 L 286 129.091 L 286 918.985 L 327.5 918.985 L 327.5 916.727 L 369 916.727 L 369 918.317 L 410.5 918.317 L 410.5 919.988 L 452 919.988 L 452 919.989 L 493.5 919.989 L 493.5 920 L 535 920 L 535 920 L 576.5 920 L 576.5 920 L 618 920 L 618 920 L 659.5 920 L 659.5 920 L 701 920 L 701 920 L 742.5 920 L 742.5 920 L 784 920 L 784 920 L 825.5 920 L 825.5 920 L 867 920 L 867 920 L 908.5 920 L 908.5 920 L 950 920 L 950 920" stroke-width="3" stroke-dasharray="" stroke="black" stroke-opacity="1" fill="DodgerBlue" fill-opacity="1" />
</g>
<g id="Histogram_1" clip-path="url(#Histogram_1_clip)">
    <path d="M 120 920 L 120 920 L 161.5 920 L 161.5 920 L 203 920 L 203 920 L 244.5 920 L 244.5 129.091 L 286 129.091 L 286 918.985 L 327.5 918.985 L 327.5 916.727 L 369 916.727 L 369 918.317 L 410.5 918.317 L 410.5 919.988 L 452 919.988 L 452 919.989 L 493.5 919.989 L 493.5 920 L 535 920 L 535 920 L 576.5 920 L 576.5 920 L 618 920 L 618 920 L 659.5 920 L 659.5 920 L 701 920 L 701 920 L 742.5 920 L 742.5 920 L 784 920 L 784 920 L 825.5 920 L 825.5 920 L 867 920 L 867 920 L 908.5 920 L 908.5 920 L 950 920 L 950 920" stroke-width="3" stroke-dasharray="" stroke="black" stroke-opacity="1" fill="darkorange" fill-opacity="1" />
</g>
<g id="frame_0">
    <rect id="frame_0_border" x="120" y="50" width="830" height="870" />
    <text id="frame_0_bottomlabel" font-size="30" transform="translate(535, 989.6)" text-anchor="middle" dominant-baseline="middle" stroke="none" fill="black">microseconds</text>
    <g id="frame_0_bottomticks">
        <path d="M 120 920 L 120 900" />
        <text font-size="30" transform="translate(120, 950)" text-anchor="middle" dominant-baseline="middle" stroke="none" fill="black">0</text>
        <path d="M 136.6 920 L 136.6 910" />
        <path d="M 153.2 920 L 153.2 910" />
        <path d="M 169.8 920 L 169.8 910" />
        <path d="M 186.4 920 L 186.4 910" />
        <path d="M 203 920 L 203 910" />
        <path d="M 219.6 920 L 219.6 910" />
        <path d="M 236.2 920 L 236.2 910" />
        <path d="M 252.8 920 L 252.8 910" />
        <path d="M 269.4 920 L 269.4 910" />
        <path d="M 286 920 L 286 900" />
        <text font-size="30" transform="translate(286, 950)" text-anchor="middle" dominant-baseline="middle" stroke="none" fill="black">10</text>
        <path d="M 302.6 920 L 302.6 910" />
        <path d="M 319.2 920 L 319.2 910" />
        <path d="M 335.8 920 L 335.8 910" />
        <path d="M 352.4 920 L 352.4 910" />
        <path d="M 369 920 L 369 910" />
        <path d="M 385.6 920 L 385.6 910" />
        <path d="M 402.2 920 L 402.2 910" />
        <path d="M 418.8 920 L 418.8 910" />
        <path d="M 435.4 920 L 435.4 910" />
        <path d="M 452 920 L 452 900" />
        <text font-size="30" transform="translate(452, 950)" text-anchor="middle" dominant-baseline="middle" stroke="none" fill="black">20</text>
        <path d="M 468.6 920 L 468.6 910" />
        <path d="M 485.2 920 L 485.2 910" />
        <path d="M 501.8 920 L 501.8 910" />
        <path d="M 518.4 920 L 518.4 910" />
        <path d="M 535 920 L 535 910" />
        <path d="M 551.6 920 L 551.6 910" />
        <path d="M 568.2 920 L 568.2 910" />
        <path d="M 584.8 920 L 584.8 910" />
        <path d="M 601.4 920 L 601.4 910" />
        <path d="M 618 920 L 618 900" />
        <text font-size="30" transform="translate(618, 950)" text-anchor="middle" dominant-baseline="middle" stroke="none" fill="black">30</text>
        <path d="M 634.6 920 L 634.6 910" />
        <path d="M 651.2 920 L 651.2 910" />
        <path d="M 667.8 920 L 667.8 910" />
        <path d="M 684.4 920 L 684.4 910" />
        <path d="M 701 920 L 701 910" />
        <path d="M 717.6 920 L 717.6 910" />
        <path d="M 734.2 920 L 734.2 910" />
        <path d="M 750.8 920 L 750.8 910" />
        <path d="M 767.4 920 L 767.4 910" />
        <path d="M 784 920 L 784 900" />
        <text font-size="30" transform="translate(784, 950)" text-anchor="middle" dominant-baseline="middle" stroke="none" fill="black">40</text>
        <path d="M 800.6 920 L 800.6 910" />
        <path d="M 817.2 920 L 817.2 910" />
        <path d="M 833.8 920 L 833.8 910" />
        <path d="M 850.4 920 L 850.4 910" />
        <path d="M 867 920 L 867 910" />
        <path d="M 883.6 920 L 883.6 910" />
        <path d="M 900.2 920 L 900.2 910" />
        <path d="M 916.8 920 L 916.8 910" />
        <path d="M 933.4 920 L 933.4 910" />
        <path d="M 950 920 L 950 900" />
        <text font-size="30" transform="translate(950, 950)" text-anchor="middle" dominant-baseline="middle" stroke="none" fill="black">50</text>
    </g>
    <g id="frame_0_leftticks">
        <path d="M 120 628.949 L 130 628.949" />
        <path d="M 120 774.474 L 130 774.474" />
        <path d="M 120 71.1012 L 140 71.1012" />
        <text font-size="30" transform="translate(110, 81.1012)" text-anchor="end" dominant-baseline="middle" stroke="none" fill="black">3.5×10⁶</text>
        <path d="M 120 920 L 140 920" />
        <text font-size="30" transform="translate(110, 930)" text-anchor="end" dominant-baseline="middle" stroke="none" fill="black">0</text>
        <path d="M 120 362.152 L 130 362.152" />
        <path d="M 120 653.203 L 130 653.203" />
        <path d="M 120 95.3554 L 130 95.3554" />
        <path d="M 120 386.406 L 130 386.406" />
        <path d="M 120 677.457 L 140 677.457" />
        <text font-size="30" transform="translate(110, 687.457)" text-anchor="end" dominant-baseline="middle" stroke="none" fill="black">10⁶</text>
        <path d="M 120 119.61 L 130 119.61" />
        <path d="M 120 483.423 L 130 483.423" />
        <path d="M 120 410.661 L 130 410.661" />
        <path d="M 120 895.746 L 130 895.746" />
        <path d="M 120 143.864 L 130 143.864" />
        <path d="M 120 434.915 L 140 434.915" />
        <text font-size="30" transform="translate(110, 444.915)" text-anchor="end" dominant-baseline="middle" stroke="none" fill="black">2×10⁶</text>
        <path d="M 120 725.966 L 130 725.966" />
        <path d="M 120 168.118 L 130 168.118" />
        <path d="M 120 459.169 L 130 459.169" />
        <path d="M 120 750.22 L 130 750.22" />
        <path d="M 120 192.372 L 140 192.372" />
        <text font-size="30" transform="translate(110, 202.372)" text-anchor="end" dominant-baseline="middle" stroke="none" fill="black">3×10⁶</text>
        <path d="M 120 871.491 L 130 871.491" />
        <path d="M 120 701.712 L 130 701.712" />
        <path d="M 120 216.627 L 130 216.627" />
        <path d="M 120 507.678 L 130 507.678" />
        <path d="M 120 798.729 L 140 798.729" />
        <text font-size="30" transform="translate(110, 808.729)" text-anchor="end" dominant-baseline="middle" stroke="none" fill="black">500000</text>
        <path d="M 120 240.881 L 130 240.881" />
        <path d="M 120 531.932 L 130 531.932" />
        <path d="M 120 822.983 L 130 822.983" />
        <path d="M 120 265.135 L 130 265.135" />
        <path d="M 120 847.237 L 130 847.237" />
        <path d="M 120 556.186 L 140 556.186" />
        <text font-size="30" transform="translate(110, 566.186)" text-anchor="end" dominant-baseline="middle" stroke="none" fill="black">1.5×10⁶</text>
        <path d="M 120 289.389 L 130 289.389" />
        <path d="M 120 580.44 L 130 580.44" />
        <path d="M 120 313.644 L 140 313.644" />
        <text font-size="30" transform="translate(110, 323.644)" text-anchor="end" dominant-baseline="middle" stroke="none" fill="black">2.5×10⁶</text>
        <path d="M 120 604.695 L 130 604.695" />
        <path d="M 120 337.898 L 130 337.898" />
    </g>
    <text id="frame_0_toplabel" font-size="30" transform="translate(535, 32.6)" text-anchor="middle" dominant-baseline="middle" stroke="none" fill="black">prob.dist.gaussianQF</text>
    <g id="frame_0_topticks">
        <path d="M 120 50 L 120 70" />
        <path d="M 136.6 50 L 136.6 60" />
        <path d="M 153.2 50 L 153.2 60" />
        <path d="M 169.8 50 L 169.8 60" />
        <path d="M 186.4 50 L 186.4 60" />
        <path d="M 203 50 L 203 60" />
        <path d="M 219.6 50 L 219.6 60" />
        <path d="M 236.2 50 L 236.2 60" />
        <path d="M 252.8 50 L 252.8 60" />
        <path d="M 269.4 50 L 269.4 60" />
        <path d="M 286 50 L 286 70" />
        <path d="M 302.6 50 L 302.6 60" />
        <path d="M 319.2 50 L 319.2 60" />
        <path d="M 335.8 50 L 335.8 60" />
        <path d="M 352.4 50 L 352.4 60" />
        <path d="M 369 50 L 369 60" />
        <path d="M 385.6 50 L 385.6 60" />
        <path d="M 402.2 50 L 402.2 60" />
        <path d="M 418.8 50 L 418.8 60" />
        <path d="M 435.4 50 L 435.4 60" />
        <path d="M 452 50 L 452 70" />
        <path d="M 468.6 50 L 468.6 60" />
        <path d="M 485.2 50 L 485.2 60" />
        <path d="M 501.8 50 L 501.8 60" />
        <path d="M 518.4 50 L 518.4 60" />
        <path d="M 535 50 L 535 60" />
        <path d="M 551.6 50 L 551.6 60" />
        <path d="M 568.2 50 L 568.2 60" />
        <path d="M 584.8 50 L 584.8 60" />
        <path d="M 601.4 50 L 601.4 60" />
        <path d="M 618 50 L 618 70" />
        <path d="M 634.6 50 L 634.6 60" />
        <path d="M 651.2 50 L 651.2 60" />
        <path d="M 667.8 50 L 667.8 60" />
        <path d="M 684.4 50 L 684.4 60" />
        <path d="M 701 50 L 701 60" />
        <path d="M 717.6 50 L 717.6 60" />
        <path d="M 734.2 50 L 734.2 60" />
        <path d="M 750.8 50 L 750.8 60" />
        <path d="M 767.4 50 L 767.4 60" />
        <path d="M 784 50 L 784 70" />
        <path d="M 800.6 50 L 800.6 60" />
        <path d="M 817.2 50 L 817.2 60" />
        <path d="M 833.8 50 L 833.8 60" />
        <path d="M 850.4 50 L 850.4 60" />
        <path d="M 867 50 L 867 60" />
        <path d="M 883.6 50 L 883.6 60" />
        <path d="M 900.2 50 L 900.2 60" />
        <path d="M 916.8 50 L 916.8 60" />
        <path d="M 933.4 50 L 933.4 60" />
        <path d="M 950 50 L 950 70" />
    </g>
    <g id="frame_0_rightticks">
        <path d="M 950 628.949 L 940 628.949" />
        <path d="M 950 774.474 L 940 774.474" />
        <path d="M 950 71.1012 L 930 71.1012" />
        <path d="M 950 920 L 930 920" />
        <path d="M 950 362.152 L 940 362.152" />
        <path d="M 950 653.203 L 940 653.203" />
        <path d="M 950 95.3554 L 940 95.3554" />
        <path d="M 950 386.406 L 940 386.406" />
        <path d="M 950 677.457 L 930 677.457" />
        <path d="M 950 119.61 L 940 119.61" />
        <path d="M 950 483.423 L 940 483.423" />
        <path d="M 950 410.661 L 940 410.661" />
        <path d="M 950 895.746 L 940 895.746" />
        <path d="M 950 143.864 L 940 143.864" />
        <path d="M 950 434.915 L 930 434.915" />
        <path d="M 950 725.966 L 940 725.966" />
        <path d="M 950 168.118 L 940 168.118" />
        <path d="M 950 459.169 L 940 459.169" />
        <path d="M 950 750.22 L 940 750.22" />
        <path d="M 950 192.372 L 930 192.372" />
        <path d="M 950 871.491 L 940 871.491" />
        <path d="M 950 701.712 L 940 701.712" />
        <path d="M 950 216.627 L 940 216.627" />
        <path d="M 950 507.678 L 940 507.678" />
        <path d="M 950 798.729 L 930 798.729" />
        <path d="M 950 240.881 L 940 240.881" />
        <path d="M 950 531.932 L 940 531.932" />
        <path d="M 950 822.983 L 940 822.983" />
        <path d="M 950 265.135 L 940 265.135" />
        <path d="M 950 847.237 L 940 847.237" />
        <path d="M 950 556.186 L 930 556.186" />
        <path d="M 950 289.389 L 940 289.389" />
        <path d="M 950 580.44 L 940 580.44" />
        <path d="M 950 313.644 L 930 313.644" />
        <path d="M 950 604.695 L 940 604.695" />
        <path d="M 950 337.898 L 940 337.898" />
    </g>
</g>
</g>
</svg>
