<?xml version="1.0" standalone="no"?>
<!DOCTYPE svg PUBLIC "-//W3C//DTD SVG 1.1//EN" "http://www.w3.org/Graphics/SVG/1.1/DTD/svg11.dtd">
<svg style="stroke-linejoin:miter; stroke:black; stroke-width:2.5; text-anchor:middle; fill:none" xmlns="http://www.w3.org/2000/svg" font-family="Helvetica, Arial, FreeSans, Sans, sans, sans-serif" width="1000px" height="1000px" version="1.1" xmlns:xlink="http://www.w3.org/1999/xlink" viewBox="0 0 1000 1000">
<defs>
    <clipPath id="Histogram_0_clip">
        <rect x="120" y="50" width="830" height="870" />
    </clipPath>
</defs>
<g id="whole_document">
<rect id="background" x="0" y="0" width="1000" height="1000" stroke="none" fill="white" />
<g id="Histogram_0" clip-path="url(#Histogram_0_clip)">
    <path d="M 120 920 L 120 129.091 L 161.5 129.091 L 161.5 838.948 L 203 838.948 L 203 920 L 244.5 920 L 244.5 920 L 286 920 L 286 920 L 327.5 920 L 327.5 920 L 369 920 L 369 920 L 410.5 920 L 410.5 920 L 452 920 L 452 920 L 493.5 920 L 493.5 920 L 535 920 L 535 920 L 576.5 920 L 576.5 920 L 618 920 L 618 920 L 659.5 920 L 659.5 920 L 701 920 L 701 920 L 742.5 920 L 742.5 920 L 784 920 L 784 920 L 825.5 920 L 825.5 920 L 867 920 L 867 920 L 908.5 920 L 908.5 920 L 950 920 L 950 920" stroke-width="3" stroke-dasharray="" stroke="black" stroke-opacity="1" fill="DodgerBlue" fill-opacity="1" />
</g>
<g id="frame_0">
    <rect id="frame_0_border" x="120" y="50" width="830" height="870" />
    <text id="frame_0_bottomlabel" font-size="30" transform="translate(535, 989.6)" text-anchor="middle" dominant-baseline="middle" stroke="none" fill="black">microseconds</text>
    <g id="frame_0_bottomticks">
        <path d="M 120 920 L 120 900" />
        <text font-size="30" transform="translate(120, 950)" text-anchor="middle" dominant-baseline="middle" stroke="none" fill="black">0</text>
        <path d="M 136.6 920 L 136.6 910" />
        <path d="M 153.2 920 L 153.2 910" />
        <path d="M 169.8 920 L 169.8 910" />
        <path d="M 186.4 920 L 186.4 910" />
        <path d="M 203 920 L 203 910" />
        <path d="M 219.6 920 L 219.6 910" />
        <path d="M 236.2 920 L 236.2 910" />
        <path d="M 252.8 920 L 252.8 910" />
        <path d="M 269.4 920 L 269.4 910" />
        <path d="M 286 920 L 286 900" />
        <text font-size="30" transform="translate(286, 950)" text-anchor="middle" dominant-baseline="middle" stroke="none" fill="black">10</text>
        <path d="M 302.6 920 L 302.6 910" />
        <path d="M 319.2 920 L 319.2 910" />
        <path d="M 335.8 920 L 335.8 910" />
        <path d="M 352.4 920 L 352.4 910" />
        <path d="M 369 920 L 369 910" />
        <path d="M 385.6 920 L 385.6 910" />
        <path d="M 402.2 920 L 402.2 910" />
        <path d="M 418.8 920 L 418.8 910" />
        <path d="M 435.4 920 L 435.4 910" />
        <path d="M 452 920 L 452 900" />
        <text font-size="30" transform="translate(452, 950)" text-anchor="middle" dominant-baseline="middle" stroke="none" fill="black">20</text>
        <path d="M 468.6 920 L 468.6 910" />
        <path d="M 485.2 920 L 485.2 910" />
        <path d="M 501.8 920 L 501.8 910" />
        <path d="M 518.4 920 L 518.4 910" />
        <path d="M 535 920 L 535 910" />
        <path d="M 551.6 920 L 551.6 910" />
        <path d="M 568.2 920 L 568.2 910" />
        <path d="M 584.8 920 L 584.8 910" />
        <path d="M 601.4 920 L 601.4 910" />
        <path d="M 618 920 L 618 900" />
        <text font-size="30" transform="translate(618, 950)" text-anchor="middle" dominant-baseline="middle" stroke="none" fill="black">30</text>
        <path d="M 634.6 920 L 634.6 910" />
        <path d="M 651.2 920 L 651.2 910" />
        <path d="M 667.8 920 L 667.8 910" />
        <path d="M 684.4 920 L 684.4 910" />
        <path d="M 701 920 L 701 910" />
        <path d="M 717.6 920 L 717.6 910" />
        <path d="M 734.2 920 L 734.2 910" />
        <path d="M 750.8 920 L 750.8 910" />
        <path d="M 767.4 920 L 767.4 910" />
        <path d="M 784 920 L 784 900" />
        <text font-size="30" transform="translate(784, 950)" text-anchor="middle" dominant-baseline="middle" stroke="none" fill="black">40</text>
        <path d="M 800.6 920 L 800.6 910" />
        <path d="M 817.2 920 L 817.2 910" />
        <path d="M 833.8 920 L 833.8 910" />
        <path d="M 850.4 920 L 850.4 910" />
        <path d="M 867 920 L 867 910" />
        <path d="M 883.6 920 L 883.6 910" />
        <path d="M 900.2 920 L 900.2 910" />
        <path d="M 916.8 920 L 916.8 910" />
        <path d="M 933.4 920 L 933.4 910" />
        <path d="M 950 920 L 950 900" />
        <text font-size="30" transform="translate(950, 950)" text-anchor="middle" dominant-baseline="middle" stroke="none" fill="black">50</text>
    </g>
    <g id="frame_0_leftticks">
        <path d="M 120 653.437 L 130 653.437" />
        <path d="M 120 520.155 L 130 520.155" />
        <path d="M 120 470.175 L 130 470.175" />
        <path d="M 120 570.136 L 130 570.136" />
        <path d="M 120 353.554 L 130 353.554" />
        <path d="M 120 486.835 L 130 486.835" />
        <path d="M 120 803.379 L 130 803.379" />
        <path d="M 120 136.971 L 130 136.971" />
        <path d="M 120 670.097 L 130 670.097" />
        <path d="M 120 920 L 140 920" />
        <text font-size="30" transform="translate(110, 930)" text-anchor="end" dominant-baseline="middle" stroke="none" fill="black">0</text>
        <path d="M 120 436.855 L 130 436.855" />
        <path d="M 120 403.534 L 130 403.534" />
        <path d="M 120 270.253 L 130 270.253" />
        <path d="M 120 853.359 L 130 853.359" />
        <path d="M 120 553.476 L 130 553.476" />
        <path d="M 120 186.952 L 130 186.952" />
        <path d="M 120 753.398 L 140 753.398" />
        <text font-size="30" transform="translate(110, 763.398)" text-anchor="end" dominant-baseline="middle" stroke="none" fill="black">10000</text>
        <path d="M 120 586.796 L 140 586.796" />
        <text font-size="30" transform="translate(110, 596.796)" text-anchor="end" dominant-baseline="middle" stroke="none" fill="black">20000</text>
        <path d="M 120 770.058 L 130 770.058" />
        <path d="M 120 420.194 L 140 420.194" />
        <text font-size="30" transform="translate(110, 430.194)" text-anchor="end" dominant-baseline="middle" stroke="none" fill="black">30000</text>
        <path d="M 120 320.233 L 130 320.233" />
        <path d="M 120 686.757 L 130 686.757" />
        <path d="M 120 836.699 L 130 836.699" />
        <path d="M 120 236.932 L 130 236.932" />
        <path d="M 120 603.456 L 130 603.456" />
        <path d="M 120 103.651 L 130 103.651" />
        <path d="M 120 370.214 L 130 370.214" />
        <path d="M 120 786.718 L 130 786.718" />
        <path d="M 120 453.515 L 130 453.515" />
        <path d="M 120 503.495 L 130 503.495" />
        <path d="M 120 703.418 L 130 703.418" />
        <path d="M 120 286.913 L 130 286.913" />
        <path d="M 120 53.6702 L 130 53.6702" />
        <path d="M 120 70.3304 L 130 70.3304" />
        <path d="M 120 886.68 L 130 886.68" />
        <path d="M 120 870.019 L 130 870.019" />
        <path d="M 120 203.612 L 130 203.612" />
        <path d="M 120 536.816 L 130 536.816" />
        <path d="M 120 336.893 L 130 336.893" />
        <path d="M 120 720.078 L 130 720.078" />
        <path d="M 120 620.117 L 130 620.117" />
        <path d="M 120 120.311 L 130 120.311" />
        <path d="M 120 903.34 L 130 903.34" />
        <path d="M 120 220.272 L 130 220.272" />
        <path d="M 120 386.874 L 130 386.874" />
        <path d="M 120 820.039 L 130 820.039" />
        <path d="M 120 636.777 L 130 636.777" />
        <path d="M 120 253.592 L 140 253.592" />
        <text font-size="30" transform="translate(110, 263.592)" text-anchor="end" dominant-baseline="middle" stroke="none" fill="black">40000</text>
        <path d="M 120 170.292 L 130 170.292" />
        <path d="M 120 86.9906 L 140 86.9906" />
        <text font-size="30" transform="translate(110, 96.9906)" text-anchor="end" dominant-baseline="middle" stroke="none" fill="black">50000</text>
        <path d="M 120 736.738 L 130 736.738" />
        <path d="M 120 303.573 L 130 303.573" />
        <path d="M 120 153.631 L 130 153.631" />
    </g>
    <text id="frame_0_toplabel" font-size="30" transform="translate(535, 32.6)" text-anchor="middle" dominant-baseline="middle" stroke="none" fill="black">m.link.cauchit</text>
    <g id="frame_0_topticks">
        <path d="M 120 50 L 120 70" />
        <path d="M 136.6 50 L 136.6 60" />
        <path d="M 153.2 50 L 153.2 60" />
        <path d="M 169.8 50 L 169.8 60" />
        <path d="M 186.4 50 L 186.4 60" />
        <path d="M 203 50 L 203 60" />
        <path d="M 219.6 50 L 219.6 60" />
        <path d="M 236.2 50 L 236.2 60" />
        <path d="M 252.8 50 L 252.8 60" />
        <path d="M 269.4 50 L 269.4 60" />
        <path d="M 286 50 L 286 70" />
        <path d="M 302.6 50 L 302.6 60" />
        <path d="M 319.2 50 L 319.2 60" />
        <path d="M 335.8 50 L 335.8 60" />
        <path d="M 352.4 50 L 352.4 60" />
        <path d="M 369 50 L 369 60" />
        <path d="M 385.6 50 L 385.6 60" />
        <path d="M 402.2 50 L 402.2 60" />
        <path d="M 418.8 50 L 418.8 60" />
        <path d="M 435.4 50 L 435.4 60" />
        <path d="M 452 50 L 452 70" />
        <path d="M 468.6 50 L 468.6 60" />
        <path d="M 485.2 50 L 485.2 60" />
        <path d="M 501.8 50 L 501.8 60" />
        <path d="M 518.4 50 L 518.4 60" />
        <path d="M 535 50 L 535 60" />
        <path d="M 551.6 50 L 551.6 60" />
        <path d="M 568.2 50 L 568.2 60" />
        <path d="M 584.8 50 L 584.8 60" />
        <path d="M 601.4 50 L 601.4 60" />
        <path d="M 618 50 L 618 70" />
        <path d="M 634.6 50 L 634.6 60" />
        <path d="M 651.2 50 L 651.2 60" />
        <path d="M 667.8 50 L 667.8 60" />
        <path d="M 684.4 50 L 684.4 60" />
        <path d="M 701 50 L 701 60" />
        <path d="M 717.6 50 L 717.6 60" />
        <path d="M 734.2 50 L 734.2 60" />
        <path d="M 750.8 50 L 750.8 60" />
        <path d="M 767.4 50 L 767.4 60" />
        <path d="M 784 50 L 784 70" />
        <path d="M 800.6 50 L 800.6 60" />
        <path d="M 817.2 50 L 817.2 60" />
        <path d="M 833.8 50 L 833.8 60" />
        <path d="M 850.4 50 L 850.4 60" />
        <path d="M 867 50 L 867 60" />
        <path d="M 883.6 50 L 883.6 60" />
        <path d="M 900.2 50 L 900.2 60" />
        <path d="M 916.8 50 L 916.8 60" />
        <path d="M 933.4 50 L 933.4 60" />
        <path d="M 950 50 L 950 70" />
    </g>
    <g id="frame_0_rightticks">
        <path d="M 950 653.437 L 940 653.437" />
        <path d="M 950 520.155 L 940 520.155" />
        <path d="M 950 470.175 L 940 470.175" />
        <path d="M 950 570.136 L 940 570.136" />
        <path d="M 950 353.554 L 940 353.554" />
        <path d="M 950 486.835 L 940 486.835" />
        <path d="M 950 803.379 L 940 803.379" />
        <path d="M 950 136.971 L 940 136.971" />
        <path d="M 950 670.097 L 940 670.097" />
        <path d="M 950 920 L 930 920" />
        <path d="M 950 436.855 L 940 436.855" />
        <path d="M 950 403.534 L 940 403.534" />
        <path d="M 950 270.253 L 940 270.253" />
        <path d="M 950 853.359 L 940 853.359" />
        <path d="M 950 553.476 L 940 553.476" />
        <path d="M 950 186.952 L 940 186.952" />
        <path d="M 950 753.398 L 930 753.398" />
        <path d="M 950 586.796 L 930 586.796" />
        <path d="M 950 770.058 L 940 770.058" />
        <path d="M 950 420.194 L 930 420.194" />
        <path d="M 950 320.233 L 940 320.233" />
        <path d="M 950 686.757 L 940 686.757" />
        <path d="M 950 836.699 L 940 836.699" />
        <path d="M 950 236.932 L 940 236.932" />
        <path d="M 950 603.456 L 940 603.456" />
        <path d="M 950 103.651 L 940 103.651" />
        <path d="M 950 370.214 L 940 370.214" />
        <path d="M 950 786.718 L 940 786.718" />
        <path d="M 950 453.515 L 940 453.515" />
        <path d="M 950 503.495 L 940 503.495" />
        <path d="M 950 703.418 L 940 703.418" />
        <path d="M 950 286.913 L 940 286.913" />
        <path d="M 950 53.6702 L 940 53.6702" />
        <path d="M 950 70.3304 L 940 70.3304" />
        <path d="M 950 886.68 L 940 886.68" />
        <path d="M 950 870.019 L 940 870.019" />
        <path d="M 950 203.612 L 940 203.612" />
        <path d="M 950 536.816 L 940 536.816" />
        <path d="M 950 336.893 L 940 336.893" />
        <path d="M 950 720.078 L 940 720.078" />
        <path d="M 950 620.117 L 940 620.117" />
        <path d="M 950 120.311 L 940 120.311" />
        <path d="M 950 903.34 L 940 903.34" />
        <path d="M 950 220.272 L 940 220.272" />
        <path d="M 950 386.874 L 940 386.874" />
        <path d="M 950 820.039 L 940 820.039" />
        <path d="M 950 636.777 L 940 636.777" />
        <path d="M 950 253.592 L 930 253.592" />
        <path d="M 950 170.292 L 940 170.292" />
        <path d="M 950 86.9906 L 930 86.9906" />
        <path d="M 950 736.738 L 940 736.738" />
        <path d="M 950 303.573 L 940 303.573" />
        <path d="M 950 153.631 L 940 153.631" />
    </g>
</g>
</g>
</svg>
