<?xml version="1.0" standalone="no"?>
<!DOCTYPE svg PUBLIC "-//W3C//DTD SVG 1.1//EN" "http://www.w3.org/Graphics/SVG/1.1/DTD/svg11.dtd">
<svg style="stroke-linejoin:miter; stroke:black; stroke-width:2.5; text-anchor:middle; fill:none" xmlns="http://www.w3.org/2000/svg" font-family="Helvetica, Arial, FreeSans, Sans, sans, sans-serif" width="1000px" height="1000px" version="1.1" xmlns:xlink="http://www.w3.org/1999/xlink" viewBox="0 0 1000 1000">
<defs>
    <clipPath id="Histogram_0_clip">
        <rect x="120" y="50" width="830" height="870" />
    </clipPath>
</defs>
<g id="whole_document">
<rect id="background" x="0" y="0" width="1000" height="1000" stroke="none" fill="white" />
<g id="Histogram_0" clip-path="url(#Histogram_0_clip)">
    <path d="M 120 920 L 120 129.091 L 161.5 129.091 L 161.5 840.77 L 203 840.77 L 203 917.978 L 244.5 917.978 L 244.5 920 L 286 920 L 286 920 L 327.5 920 L 327.5 920 L 369 920 L 369 920 L 410.5 920 L 410.5 920 L 452 920 L 452 920 L 493.5 920 L 493.5 920 L 535 920 L 535 920 L 576.5 920 L 576.5 919.191 L 618 919.191 L 618 917.573 L 659.5 917.573 L 659.5 920 L 701 920 L 701 920 L 742.5 920 L 742.5 920 L 784 920 L 784 919.703 L 825.5 919.703 L 825.5 920 L 867 920 L 867 918.43 L 908.5 918.43 L 908.5 918.989 L 950 918.989 L 950 920" stroke-width="3" stroke-dasharray="" stroke="black" stroke-opacity="1" fill="DodgerBlue" fill-opacity="1" />
</g>
<g id="frame_0">
    <rect id="frame_0_border" x="120" y="50" width="830" height="870" />
    <text id="frame_0_bottomlabel" font-size="30" transform="translate(535, 989.6)" text-anchor="middle" dominant-baseline="middle" stroke="none" fill="black">microseconds</text>
    <g id="frame_0_bottomticks">
        <path d="M 120 920 L 120 900" />
        <text font-size="30" transform="translate(120, 950)" text-anchor="middle" dominant-baseline="middle" stroke="none" fill="black">0</text>
        <path d="M 136.6 920 L 136.6 910" />
        <path d="M 153.2 920 L 153.2 910" />
        <path d="M 169.8 920 L 169.8 910" />
        <path d="M 186.4 920 L 186.4 910" />
        <path d="M 203 920 L 203 910" />
        <path d="M 219.6 920 L 219.6 910" />
        <path d="M 236.2 920 L 236.2 910" />
        <path d="M 252.8 920 L 252.8 910" />
        <path d="M 269.4 920 L 269.4 910" />
        <path d="M 286 920 L 286 900" />
        <text font-size="30" transform="translate(286, 950)" text-anchor="middle" dominant-baseline="middle" stroke="none" fill="black">10</text>
        <path d="M 302.6 920 L 302.6 910" />
        <path d="M 319.2 920 L 319.2 910" />
        <path d="M 335.8 920 L 335.8 910" />
        <path d="M 352.4 920 L 352.4 910" />
        <path d="M 369 920 L 369 910" />
        <path d="M 385.6 920 L 385.6 910" />
        <path d="M 402.2 920 L 402.2 910" />
        <path d="M 418.8 920 L 418.8 910" />
        <path d="M 435.4 920 L 435.4 910" />
        <path d="M 452 920 L 452 900" />
        <text font-size="30" transform="translate(452, 950)" text-anchor="middle" dominant-baseline="middle" stroke="none" fill="black">20</text>
        <path d="M 468.6 920 L 468.6 910" />
        <path d="M 485.2 920 L 485.2 910" />
        <path d="M 501.8 920 L 501.8 910" />
        <path d="M 518.4 920 L 518.4 910" />
        <path d="M 535 920 L 535 910" />
        <path d="M 551.6 920 L 551.6 910" />
        <path d="M 568.2 920 L 568.2 910" />
        <path d="M 584.8 920 L 584.8 910" />
        <path d="M 601.4 920 L 601.4 910" />
        <path d="M 618 920 L 618 900" />
        <text font-size="30" transform="translate(618, 950)" text-anchor="middle" dominant-baseline="middle" stroke="none" fill="black">30</text>
        <path d="M 634.6 920 L 634.6 910" />
        <path d="M 651.2 920 L 651.2 910" />
        <path d="M 667.8 920 L 667.8 910" />
        <path d="M 684.4 920 L 684.4 910" />
        <path d="M 701 920 L 701 910" />
        <path d="M 717.6 920 L 717.6 910" />
        <path d="M 734.2 920 L 734.2 910" />
        <path d="M 750.8 920 L 750.8 910" />
        <path d="M 767.4 920 L 767.4 910" />
        <path d="M 784 920 L 784 900" />
        <text font-size="30" transform="translate(784, 950)" text-anchor="middle" dominant-baseline="middle" stroke="none" fill="black">40</text>
        <path d="M 800.6 920 L 800.6 910" />
        <path d="M 817.2 920 L 817.2 910" />
        <path d="M 833.8 920 L 833.8 910" />
        <path d="M 850.4 920 L 850.4 910" />
        <path d="M 867 920 L 867 910" />
        <path d="M 883.6 920 L 883.6 910" />
        <path d="M 900.2 920 L 900.2 910" />
        <path d="M 916.8 920 L 916.8 910" />
        <path d="M 933.4 920 L 933.4 910" />
        <path d="M 950 920 L 950 900" />
        <text font-size="30" transform="translate(950, 950)" text-anchor="middle" dominant-baseline="middle" stroke="none" fill="black">50</text>
    </g>
    <g id="frame_0_leftticks">
        <path d="M 120 729.686 L 130 729.686" />
        <path d="M 120 634.529 L 130 634.529" />
        <path d="M 120 134.955 L 130 134.955" />
        <path d="M 120 598.845 L 130 598.845" />
        <path d="M 120 170.639 L 130 170.639" />
        <path d="M 120 670.213 L 130 670.213" />
        <path d="M 120 515.583 L 130 515.583" />
        <path d="M 120 242.007 L 130 242.007" />
        <path d="M 120 610.74 L 130 610.74" />
        <path d="M 120 836.738 L 130 836.738" />
        <path d="M 120 360.953 L 130 360.953" />
        <path d="M 120 111.166 L 130 111.166" />
        <path d="M 120 741.581 L 130 741.581" />
        <path d="M 120 206.323 L 140 206.323" />
        <text font-size="30" transform="translate(110, 216.323)" text-anchor="end" dominant-baseline="middle" stroke="none" fill="black">60000</text>
        <path d="M 120 230.112 L 130 230.112" />
        <path d="M 120 920 L 140 920" />
        <text font-size="30" transform="translate(110, 930)" text-anchor="end" dominant-baseline="middle" stroke="none" fill="black">0</text>
        <path d="M 120 575.056 L 130 575.056" />
        <path d="M 120 551.267 L 130 551.267" />
        <path d="M 120 456.11 L 130 456.11" />
        <path d="M 120 872.422 L 130 872.422" />
        <path d="M 120 658.318 L 130 658.318" />
        <path d="M 120 396.637 L 130 396.637" />
        <path d="M 120 801.054 L 140 801.054" />
        <text font-size="30" transform="translate(110, 811.054)" text-anchor="end" dominant-baseline="middle" stroke="none" fill="black">10000</text>
        <path d="M 120 218.217 L 130 218.217" />
        <path d="M 120 812.948 L 130 812.948" />
        <path d="M 120 563.161 L 140 563.161" />
        <text font-size="30" transform="translate(110, 573.161)" text-anchor="end" dominant-baseline="middle" stroke="none" fill="black">30000</text>
        <path d="M 120 444.215 L 140 444.215" />
        <text font-size="30" transform="translate(110, 454.215)" text-anchor="end" dominant-baseline="middle" stroke="none" fill="black">40000</text>
        <path d="M 120 491.794 L 130 491.794" />
        <path d="M 120 99.2711 L 130 99.2711" />
        <path d="M 120 753.475 L 130 753.475" />
        <path d="M 120 860.527 L 130 860.527" />
        <path d="M 120 432.321 L 130 432.321" />
        <path d="M 120 694.002 L 130 694.002" />
        <path d="M 120 123.06 L 130 123.06" />
        <path d="M 120 87.3765 L 140 87.3765" />
        <text font-size="30" transform="translate(110, 97.3765)" text-anchor="end" dominant-baseline="middle" stroke="none" fill="black">70000</text>
        <path d="M 120 337.164 L 130 337.164" />
        <path d="M 120 527.477 L 130 527.477" />
        <path d="M 120 824.843 L 130 824.843" />
        <path d="M 120 586.951 L 130 586.951" />
        <path d="M 120 622.634 L 130 622.634" />
        <path d="M 120 194.428 L 130 194.428" />
        <path d="M 120 75.4818 L 130 75.4818" />
        <path d="M 120 765.37 L 130 765.37" />
        <path d="M 120 468.004 L 130 468.004" />
        <path d="M 120 301.48 L 130 301.48" />
        <path d="M 120 313.374 L 130 313.374" />
        <path d="M 120 896.211 L 130 896.211" />
        <path d="M 120 884.316 L 130 884.316" />
        <path d="M 120 682.108 L 140 682.108" />
        <text font-size="30" transform="translate(110, 692.108)" text-anchor="end" dominant-baseline="middle" stroke="none" fill="black">20000</text>
        <path d="M 120 408.531 L 130 408.531" />
        <path d="M 120 158.744 L 130 158.744" />
        <path d="M 120 63.5872 L 130 63.5872" />
        <path d="M 120 646.424 L 130 646.424" />
        <path d="M 120 289.585 L 130 289.585" />
        <path d="M 120 503.688 L 130 503.688" />
        <path d="M 120 253.901 L 130 253.901" />
        <path d="M 120 777.265 L 130 777.265" />
        <path d="M 120 705.897 L 130 705.897" />
        <path d="M 120 349.058 L 130 349.058" />
        <path d="M 120 51.6926 L 130 51.6926" />
        <path d="M 120 277.69 L 130 277.69" />
        <path d="M 120 908.105 L 130 908.105" />
        <path d="M 120 182.533 L 130 182.533" />
        <path d="M 120 420.426 L 130 420.426" />
        <path d="M 120 539.372 L 130 539.372" />
        <path d="M 120 848.632 L 130 848.632" />
        <path d="M 120 717.791 L 130 717.791" />
        <path d="M 120 265.796 L 130 265.796" />
        <path d="M 120 384.742 L 130 384.742" />
        <path d="M 120 325.269 L 140 325.269" />
        <text font-size="30" transform="translate(110, 335.269)" text-anchor="end" dominant-baseline="middle" stroke="none" fill="black">50000</text>
        <path d="M 120 789.159 L 130 789.159" />
        <path d="M 120 146.85 L 130 146.85" />
        <path d="M 120 479.899 L 130 479.899" />
        <path d="M 120 372.847 L 130 372.847" />
    </g>
    <text id="frame_0_toplabel" font-size="30" transform="translate(535, 32.6)" text-anchor="middle" dominant-baseline="middle" stroke="none" fill="black">a.sort</text>
    <g id="frame_0_topticks">
        <path d="M 120 50 L 120 70" />
        <path d="M 136.6 50 L 136.6 60" />
        <path d="M 153.2 50 L 153.2 60" />
        <path d="M 169.8 50 L 169.8 60" />
        <path d="M 186.4 50 L 186.4 60" />
        <path d="M 203 50 L 203 60" />
        <path d="M 219.6 50 L 219.6 60" />
        <path d="M 236.2 50 L 236.2 60" />
        <path d="M 252.8 50 L 252.8 60" />
        <path d="M 269.4 50 L 269.4 60" />
        <path d="M 286 50 L 286 70" />
        <path d="M 302.6 50 L 302.6 60" />
        <path d="M 319.2 50 L 319.2 60" />
        <path d="M 335.8 50 L 335.8 60" />
        <path d="M 352.4 50 L 352.4 60" />
        <path d="M 369 50 L 369 60" />
        <path d="M 385.6 50 L 385.6 60" />
        <path d="M 402.2 50 L 402.2 60" />
        <path d="M 418.8 50 L 418.8 60" />
        <path d="M 435.4 50 L 435.4 60" />
        <path d="M 452 50 L 452 70" />
        <path d="M 468.6 50 L 468.6 60" />
        <path d="M 485.2 50 L 485.2 60" />
        <path d="M 501.8 50 L 501.8 60" />
        <path d="M 518.4 50 L 518.4 60" />
        <path d="M 535 50 L 535 60" />
        <path d="M 551.6 50 L 551.6 60" />
        <path d="M 568.2 50 L 568.2 60" />
        <path d="M 584.8 50 L 584.8 60" />
        <path d="M 601.4 50 L 601.4 60" />
        <path d="M 618 50 L 618 70" />
        <path d="M 634.6 50 L 634.6 60" />
        <path d="M 651.2 50 L 651.2 60" />
        <path d="M 667.8 50 L 667.8 60" />
        <path d="M 684.4 50 L 684.4 60" />
        <path d="M 701 50 L 701 60" />
        <path d="M 717.6 50 L 717.6 60" />
        <path d="M 734.2 50 L 734.2 60" />
        <path d="M 750.8 50 L 750.8 60" />
        <path d="M 767.4 50 L 767.4 60" />
        <path d="M 784 50 L 784 70" />
        <path d="M 800.6 50 L 800.6 60" />
        <path d="M 817.2 50 L 817.2 60" />
        <path d="M 833.8 50 L 833.8 60" />
        <path d="M 850.4 50 L 850.4 60" />
        <path d="M 867 50 L 867 60" />
        <path d="M 883.6 50 L 883.6 60" />
        <path d="M 900.2 50 L 900.2 60" />
        <path d="M 916.8 50 L 916.8 60" />
        <path d="M 933.4 50 L 933.4 60" />
        <path d="M 950 50 L 950 70" />
    </g>
    <g id="frame_0_rightticks">
        <path d="M 950 729.686 L 940 729.686" />
        <path d="M 950 634.529 L 940 634.529" />
        <path d="M 950 134.955 L 940 134.955" />
        <path d="M 950 598.845 L 940 598.845" />
        <path d="M 950 170.639 L 940 170.639" />
        <path d="M 950 670.213 L 940 670.213" />
        <path d="M 950 515.583 L 940 515.583" />
        <path d="M 950 242.007 L 940 242.007" />
        <path d="M 950 610.74 L 940 610.74" />
        <path d="M 950 836.738 L 940 836.738" />
        <path d="M 950 360.953 L 940 360.953" />
        <path d="M 950 111.166 L 940 111.166" />
        <path d="M 950 741.581 L 940 741.581" />
        <path d="M 950 206.323 L 930 206.323" />
        <path d="M 950 230.112 L 940 230.112" />
        <path d="M 950 920 L 930 920" />
        <path d="M 950 575.056 L 940 575.056" />
        <path d="M 950 551.267 L 940 551.267" />
        <path d="M 950 456.11 L 940 456.11" />
        <path d="M 950 872.422 L 940 872.422" />
        <path d="M 950 658.318 L 940 658.318" />
        <path d="M 950 396.637 L 940 396.637" />
        <path d="M 950 801.054 L 930 801.054" />
        <path d="M 950 218.217 L 940 218.217" />
        <path d="M 950 812.948 L 940 812.948" />
        <path d="M 950 563.161 L 930 563.161" />
        <path d="M 950 444.215 L 930 444.215" />
        <path d="M 950 491.794 L 940 491.794" />
        <path d="M 950 99.2711 L 940 99.2711" />
        <path d="M 950 753.475 L 940 753.475" />
        <path d="M 950 860.527 L 940 860.527" />
        <path d="M 950 432.321 L 940 432.321" />
        <path d="M 950 694.002 L 940 694.002" />
        <path d="M 950 123.06 L 940 123.06" />
        <path d="M 950 87.3765 L 930 87.3765" />
        <path d="M 950 337.164 L 940 337.164" />
        <path d="M 950 527.477 L 940 527.477" />
        <path d="M 950 824.843 L 940 824.843" />
        <path d="M 950 586.951 L 940 586.951" />
        <path d="M 950 622.634 L 940 622.634" />
        <path d="M 950 194.428 L 940 194.428" />
        <path d="M 950 75.4818 L 940 75.4818" />
        <path d="M 950 765.37 L 940 765.37" />
        <path d="M 950 468.004 L 940 468.004" />
        <path d="M 950 301.48 L 940 301.48" />
        <path d="M 950 313.374 L 940 313.374" />
        <path d="M 950 896.211 L 940 896.211" />
        <path d="M 950 884.316 L 940 884.316" />
        <path d="M 950 682.108 L 930 682.108" />
        <path d="M 950 408.531 L 940 408.531" />
        <path d="M 950 158.744 L 940 158.744" />
        <path d="M 950 63.5872 L 940 63.5872" />
        <path d="M 950 646.424 L 940 646.424" />
        <path d="M 950 289.585 L 940 289.585" />
        <path d="M 950 503.688 L 940 503.688" />
        <path d="M 950 253.901 L 940 253.901" />
        <path d="M 950 777.265 L 940 777.265" />
        <path d="M 950 705.897 L 940 705.897" />
        <path d="M 950 349.058 L 940 349.058" />
        <path d="M 950 51.6926 L 940 51.6926" />
        <path d="M 950 277.69 L 940 277.69" />
        <path d="M 950 908.105 L 940 908.105" />
        <path d="M 950 182.533 L 940 182.533" />
        <path d="M 950 420.426 L 940 420.426" />
        <path d="M 950 539.372 L 940 539.372" />
        <path d="M 950 848.632 L 940 848.632" />
        <path d="M 950 717.791 L 940 717.791" />
        <path d="M 950 265.796 L 940 265.796" />
        <path d="M 950 384.742 L 940 384.742" />
        <path d="M 950 325.269 L 930 325.269" />
        <path d="M 950 789.159 L 940 789.159" />
        <path d="M 950 146.85 L 940 146.85" />
        <path d="M 950 479.899 L 940 479.899" />
        <path d="M 950 372.847 L 940 372.847" />
    </g>
</g>
</g>
</svg>
