<?xml version="1.0" standalone="no"?>
<!DOCTYPE svg PUBLIC "-//W3C//DTD SVG 1.1//EN" "http://www.w3.org/Graphics/SVG/1.1/DTD/svg11.dtd">
<svg style="stroke-linejoin:miter; stroke:black; stroke-width:2.5; text-anchor:middle; fill:none" xmlns="http://www.w3.org/2000/svg" font-family="Helvetica, Arial, FreeSans, Sans, sans, sans-serif" width="1000px" height="1000px" version="1.1" xmlns:xlink="http://www.w3.org/1999/xlink" viewBox="0 0 1000 1000">
<defs>
    <clipPath id="Histogram_0_clip">
        <rect x="120" y="50" width="830" height="870" />
    </clipPath>
</defs>
<g id="whole_document">
<rect id="background" x="0" y="0" width="1000" height="1000" stroke="none" fill="white" />
<g id="Histogram_0" clip-path="url(#Histogram_0_clip)">
    <path d="M 120 920 L 120 129.091 L 161.5 129.091 L 161.5 920 L 203 920 L 203 920 L 244.5 920 L 244.5 920 L 286 920 L 286 920 L 327.5 920 L 327.5 920 L 369 920 L 369 920 L 410.5 920 L 410.5 920 L 452 920 L 452 920 L 493.5 920 L 493.5 920 L 535 920 L 535 920 L 576.5 920 L 576.5 920 L 618 920 L 618 920 L 659.5 920 L 659.5 920 L 701 920 L 701 920 L 742.5 920 L 742.5 920 L 784 920 L 784 920 L 825.5 920 L 825.5 920 L 867 920 L 867 920 L 908.5 920 L 908.5 920 L 950 920 L 950 920" stroke-width="3" stroke-dasharray="" stroke="black" stroke-opacity="1" fill="DodgerBlue" fill-opacity="1" />
</g>
<g id="frame_0">
    <rect id="frame_0_border" x="120" y="50" width="830" height="870" />
    <text id="frame_0_bottomlabel" font-size="30" transform="translate(535, 989.6)" text-anchor="middle" dominant-baseline="middle" stroke="none" fill="black">microseconds</text>
    <g id="frame_0_bottomticks">
        <path d="M 120 920 L 120 900" />
        <text font-size="30" transform="translate(120, 950)" text-anchor="middle" dominant-baseline="middle" stroke="none" fill="black">0</text>
        <path d="M 136.6 920 L 136.6 910" />
        <path d="M 153.2 920 L 153.2 910" />
        <path d="M 169.8 920 L 169.8 910" />
        <path d="M 186.4 920 L 186.4 910" />
        <path d="M 203 920 L 203 910" />
        <path d="M 219.6 920 L 219.6 910" />
        <path d="M 236.2 920 L 236.2 910" />
        <path d="M 252.8 920 L 252.8 910" />
        <path d="M 269.4 920 L 269.4 910" />
        <path d="M 286 920 L 286 900" />
        <text font-size="30" transform="translate(286, 950)" text-anchor="middle" dominant-baseline="middle" stroke="none" fill="black">10</text>
        <path d="M 302.6 920 L 302.6 910" />
        <path d="M 319.2 920 L 319.2 910" />
        <path d="M 335.8 920 L 335.8 910" />
        <path d="M 352.4 920 L 352.4 910" />
        <path d="M 369 920 L 369 910" />
        <path d="M 385.6 920 L 385.6 910" />
        <path d="M 402.2 920 L 402.2 910" />
        <path d="M 418.8 920 L 418.8 910" />
        <path d="M 435.4 920 L 435.4 910" />
        <path d="M 452 920 L 452 900" />
        <text font-size="30" transform="translate(452, 950)" text-anchor="middle" dominant-baseline="middle" stroke="none" fill="black">20</text>
        <path d="M 468.6 920 L 468.6 910" />
        <path d="M 485.2 920 L 485.2 910" />
        <path d="M 501.8 920 L 501.8 910" />
        <path d="M 518.4 920 L 518.4 910" />
        <path d="M 535 920 L 535 910" />
        <path d="M 551.6 920 L 551.6 910" />
        <path d="M 568.2 920 L 568.2 910" />
        <path d="M 584.8 920 L 584.8 910" />
        <path d="M 601.4 920 L 601.4 910" />
        <path d="M 618 920 L 618 900" />
        <text font-size="30" transform="translate(618, 950)" text-anchor="middle" dominant-baseline="middle" stroke="none" fill="black">30</text>
        <path d="M 634.6 920 L 634.6 910" />
        <path d="M 651.2 920 L 651.2 910" />
        <path d="M 667.8 920 L 667.8 910" />
        <path d="M 684.4 920 L 684.4 910" />
        <path d="M 701 920 L 701 910" />
        <path d="M 717.6 920 L 717.6 910" />
        <path d="M 734.2 920 L 734.2 910" />
        <path d="M 750.8 920 L 750.8 910" />
        <path d="M 767.4 920 L 767.4 910" />
        <path d="M 784 920 L 784 900" />
        <text font-size="30" transform="translate(784, 950)" text-anchor="middle" dominant-baseline="middle" stroke="none" fill="black">40</text>
        <path d="M 800.6 920 L 800.6 910" />
        <path d="M 817.2 920 L 817.2 910" />
        <path d="M 833.8 920 L 833.8 910" />
        <path d="M 850.4 920 L 850.4 910" />
        <path d="M 867 920 L 867 910" />
        <path d="M 883.6 920 L 883.6 910" />
        <path d="M 900.2 920 L 900.2 910" />
        <path d="M 916.8 920 L 916.8 910" />
        <path d="M 933.4 920 L 933.4 910" />
        <path d="M 950 920 L 950 900" />
        <text font-size="30" transform="translate(950, 950)" text-anchor="middle" dominant-baseline="middle" stroke="none" fill="black">50</text>
    </g>
    <g id="frame_0_leftticks">
        <path d="M 120 611.879 L 130 611.879" />
        <path d="M 120 457.818 L 130 457.818" />
        <path d="M 120 400.045 L 130 400.045" />
        <path d="M 120 515.591 L 130 515.591" />
        <path d="M 120 265.242 L 130 265.242" />
        <path d="M 120 419.303 L 130 419.303" />
        <path d="M 120 785.197 L 130 785.197" />
        <path d="M 120 631.136 L 130 631.136" />
        <path d="M 120 920 L 140 920" />
        <text font-size="30" transform="translate(110, 930)" text-anchor="end" dominant-baseline="middle" stroke="none" fill="black">0</text>
        <path d="M 120 361.53 L 130 361.53" />
        <path d="M 120 323.015 L 130 323.015" />
        <path d="M 120 168.954 L 130 168.954" />
        <path d="M 120 842.97 L 130 842.97" />
        <path d="M 120 496.333 L 130 496.333" />
        <path d="M 120 72.6662 L 130 72.6662" />
        <path d="M 120 727.424 L 140 727.424" />
        <text font-size="30" transform="translate(110, 737.424)" text-anchor="end" dominant-baseline="middle" stroke="none" fill="black">10000</text>
        <path d="M 120 534.848 L 140 534.848" />
        <text font-size="30" transform="translate(110, 544.848)" text-anchor="end" dominant-baseline="middle" stroke="none" fill="black">20000</text>
        <path d="M 120 746.682 L 130 746.682" />
        <path d="M 120 226.727 L 130 226.727" />
        <path d="M 120 650.394 L 130 650.394" />
        <path d="M 120 823.712 L 130 823.712" />
        <path d="M 120 130.439 L 130 130.439" />
        <path d="M 120 554.106 L 130 554.106" />
        <path d="M 120 284.5 L 130 284.5" />
        <path d="M 120 765.939 L 130 765.939" />
        <path d="M 120 380.788 L 130 380.788" />
        <path d="M 120 438.56 L 130 438.56" />
        <path d="M 120 669.651 L 130 669.651" />
        <path d="M 120 188.212 L 130 188.212" />
        <path d="M 120 342.272 L 140 342.272" />
        <text font-size="30" transform="translate(110, 352.272)" text-anchor="end" dominant-baseline="middle" stroke="none" fill="black">30000</text>
        <path d="M 120 881.485 L 130 881.485" />
        <path d="M 120 862.227 L 130 862.227" />
        <path d="M 120 91.9238 L 130 91.9238" />
        <path d="M 120 477.076 L 130 477.076" />
        <path d="M 120 245.984 L 130 245.984" />
        <path d="M 120 688.909 L 130 688.909" />
        <path d="M 120 573.363 L 130 573.363" />
        <path d="M 120 900.742 L 130 900.742" />
        <path d="M 120 111.181 L 130 111.181" />
        <path d="M 120 303.757 L 130 303.757" />
        <path d="M 120 804.454 L 130 804.454" />
        <path d="M 120 592.621 L 130 592.621" />
        <path d="M 120 149.697 L 140 149.697" />
        <text font-size="30" transform="translate(110, 159.697)" text-anchor="end" dominant-baseline="middle" stroke="none" fill="black">40000</text>
        <path d="M 120 53.4086 L 130 53.4086" />
        <path d="M 120 708.167 L 130 708.167" />
        <path d="M 120 207.469 L 130 207.469" />
    </g>
    <text id="frame_0_toplabel" font-size="30" transform="translate(535, 32.6)" text-anchor="middle" dominant-baseline="middle" stroke="none" fill="black">s.replacefirst</text>
    <g id="frame_0_topticks">
        <path d="M 120 50 L 120 70" />
        <path d="M 136.6 50 L 136.6 60" />
        <path d="M 153.2 50 L 153.2 60" />
        <path d="M 169.8 50 L 169.8 60" />
        <path d="M 186.4 50 L 186.4 60" />
        <path d="M 203 50 L 203 60" />
        <path d="M 219.6 50 L 219.6 60" />
        <path d="M 236.2 50 L 236.2 60" />
        <path d="M 252.8 50 L 252.8 60" />
        <path d="M 269.4 50 L 269.4 60" />
        <path d="M 286 50 L 286 70" />
        <path d="M 302.6 50 L 302.6 60" />
        <path d="M 319.2 50 L 319.2 60" />
        <path d="M 335.8 50 L 335.8 60" />
        <path d="M 352.4 50 L 352.4 60" />
        <path d="M 369 50 L 369 60" />
        <path d="M 385.6 50 L 385.6 60" />
        <path d="M 402.2 50 L 402.2 60" />
        <path d="M 418.8 50 L 418.8 60" />
        <path d="M 435.4 50 L 435.4 60" />
        <path d="M 452 50 L 452 70" />
        <path d="M 468.6 50 L 468.6 60" />
        <path d="M 485.2 50 L 485.2 60" />
        <path d="M 501.8 50 L 501.8 60" />
        <path d="M 518.4 50 L 518.4 60" />
        <path d="M 535 50 L 535 60" />
        <path d="M 551.6 50 L 551.6 60" />
        <path d="M 568.2 50 L 568.2 60" />
        <path d="M 584.8 50 L 584.8 60" />
        <path d="M 601.4 50 L 601.4 60" />
        <path d="M 618 50 L 618 70" />
        <path d="M 634.6 50 L 634.6 60" />
        <path d="M 651.2 50 L 651.2 60" />
        <path d="M 667.8 50 L 667.8 60" />
        <path d="M 684.4 50 L 684.4 60" />
        <path d="M 701 50 L 701 60" />
        <path d="M 717.6 50 L 717.6 60" />
        <path d="M 734.2 50 L 734.2 60" />
        <path d="M 750.8 50 L 750.8 60" />
        <path d="M 767.4 50 L 767.4 60" />
        <path d="M 784 50 L 784 70" />
        <path d="M 800.6 50 L 800.6 60" />
        <path d="M 817.2 50 L 817.2 60" />
        <path d="M 833.8 50 L 833.8 60" />
        <path d="M 850.4 50 L 850.4 60" />
        <path d="M 867 50 L 867 60" />
        <path d="M 883.6 50 L 883.6 60" />
        <path d="M 900.2 50 L 900.2 60" />
        <path d="M 916.8 50 L 916.8 60" />
        <path d="M 933.4 50 L 933.4 60" />
        <path d="M 950 50 L 950 70" />
    </g>
    <g id="frame_0_rightticks">
        <path d="M 950 611.879 L 940 611.879" />
        <path d="M 950 457.818 L 940 457.818" />
        <path d="M 950 400.045 L 940 400.045" />
        <path d="M 950 515.591 L 940 515.591" />
        <path d="M 950 265.242 L 940 265.242" />
        <path d="M 950 419.303 L 940 419.303" />
        <path d="M 950 785.197 L 940 785.197" />
        <path d="M 950 631.136 L 940 631.136" />
        <path d="M 950 920 L 930 920" />
        <path d="M 950 361.53 L 940 361.53" />
        <path d="M 950 323.015 L 940 323.015" />
        <path d="M 950 168.954 L 940 168.954" />
        <path d="M 950 842.97 L 940 842.97" />
        <path d="M 950 496.333 L 940 496.333" />
        <path d="M 950 72.6662 L 940 72.6662" />
        <path d="M 950 727.424 L 930 727.424" />
        <path d="M 950 534.848 L 930 534.848" />
        <path d="M 950 746.682 L 940 746.682" />
        <path d="M 950 226.727 L 940 226.727" />
        <path d="M 950 650.394 L 940 650.394" />
        <path d="M 950 823.712 L 940 823.712" />
        <path d="M 950 130.439 L 940 130.439" />
        <path d="M 950 554.106 L 940 554.106" />
        <path d="M 950 284.5 L 940 284.5" />
        <path d="M 950 765.939 L 940 765.939" />
        <path d="M 950 380.788 L 940 380.788" />
        <path d="M 950 438.56 L 940 438.56" />
        <path d="M 950 669.651 L 940 669.651" />
        <path d="M 950 188.212 L 940 188.212" />
        <path d="M 950 342.272 L 930 342.272" />
        <path d="M 950 881.485 L 940 881.485" />
        <path d="M 950 862.227 L 940 862.227" />
        <path d="M 950 91.9238 L 940 91.9238" />
        <path d="M 950 477.076 L 940 477.076" />
        <path d="M 950 245.984 L 940 245.984" />
        <path d="M 950 688.909 L 940 688.909" />
        <path d="M 950 573.363 L 940 573.363" />
        <path d="M 950 900.742 L 940 900.742" />
        <path d="M 950 111.181 L 940 111.181" />
        <path d="M 950 303.757 L 940 303.757" />
        <path d="M 950 804.454 L 940 804.454" />
        <path d="M 950 592.621 L 940 592.621" />
        <path d="M 950 149.697 L 930 149.697" />
        <path d="M 950 53.4086 L 940 53.4086" />
        <path d="M 950 708.167 L 940 708.167" />
        <path d="M 950 207.469 L 940 207.469" />
    </g>
</g>
</g>
</svg>
