<?xml version="1.0" standalone="no"?>
<!DOCTYPE svg PUBLIC "-//W3C//DTD SVG 1.1//EN" "http://www.w3.org/Graphics/SVG/1.1/DTD/svg11.dtd">
<svg style="stroke-linejoin:miter; stroke:black; stroke-width:2.5; text-anchor:middle; fill:none" xmlns="http://www.w3.org/2000/svg" font-family="Helvetica, Arial, FreeSans, Sans, sans, sans-serif" width="1000px" height="1000px" version="1.1" xmlns:xlink="http://www.w3.org/1999/xlink" viewBox="0 0 1000 1000">
<defs>
    <clipPath id="Histogram_0_clip">
        <rect x="120" y="50" width="830" height="870" />
    </clipPath>
    <clipPath id="Histogram_1_clip">
        <rect x="120" y="50" width="830" height="870" />
    </clipPath>
</defs>
<g id="whole_document">
<rect id="background" x="0" y="0" width="1000" height="1000" stroke="none" fill="white" />
<g id="Histogram_0" clip-path="url(#Histogram_0_clip)">
    <path d="M 120 920 L 120 658.427 L 161.5 658.427 L 161.5 129.091 L 203 129.091 L 203 535.157 L 244.5 535.157 L 244.5 767.725 L 286 767.725 L 286 887.104 L 327.5 887.104 L 327.5 906.382 L 369 906.382 L 369 920 L 410.5 920 L 410.5 901.253 L 452 901.253 L 452 911.865 L 493.5 911.865 L 493.5 920 L 535 920 L 535 920 L 576.5 920 L 576.5 920 L 618 920 L 618 920 L 659.5 920 L 659.5 920 L 701 920 L 701 920 L 742.5 920 L 742.5 920 L 784 920 L 784 920 L 825.5 920 L 825.5 920 L 867 920 L 867 920 L 908.5 920 L 908.5 920 L 950 920 L 950 920" stroke-width="3" stroke-dasharray="" stroke="black" stroke-opacity="1" fill="DodgerBlue" fill-opacity="1" />
</g>
<g id="Histogram_1" clip-path="url(#Histogram_1_clip)">
    <path d="M 120 920 L 120 920 L 161.5 920 L 161.5 920 L 203 920 L 203 920 L 244.5 920 L 244.5 835.816 L 286 835.816 L 286 887.104 L 327.5 887.104 L 327.5 920 L 369 920 L 369 920 L 410.5 920 L 410.5 901.253 L 452 901.253 L 452 911.865 L 493.5 911.865 L 493.5 920 L 535 920 L 535 920 L 576.5 920 L 576.5 920 L 618 920 L 618 920 L 659.5 920 L 659.5 920 L 701 920 L 701 920 L 742.5 920 L 742.5 920 L 784 920 L 784 920 L 825.5 920 L 825.5 920 L 867 920 L 867 920 L 908.5 920 L 908.5 920 L 950 920 L 950 920" stroke-width="3" stroke-dasharray="" stroke="black" stroke-opacity="1" fill="darkorange" fill-opacity="1" />
</g>
<g id="frame_0">
    <rect id="frame_0_border" x="120" y="50" width="830" height="870" />
    <text id="frame_0_bottomlabel" font-size="30" transform="translate(535, 989.6)" text-anchor="middle" dominant-baseline="middle" stroke="none" fill="black">microseconds</text>
    <g id="frame_0_bottomticks">
        <path d="M 120 920 L 120 900" />
        <text font-size="30" transform="translate(120, 950)" text-anchor="middle" dominant-baseline="middle" stroke="none" fill="black">0</text>
        <path d="M 136.6 920 L 136.6 910" />
        <path d="M 153.2 920 L 153.2 910" />
        <path d="M 169.8 920 L 169.8 910" />
        <path d="M 186.4 920 L 186.4 910" />
        <path d="M 203 920 L 203 910" />
        <path d="M 219.6 920 L 219.6 910" />
        <path d="M 236.2 920 L 236.2 910" />
        <path d="M 252.8 920 L 252.8 910" />
        <path d="M 269.4 920 L 269.4 910" />
        <path d="M 286 920 L 286 900" />
        <text font-size="30" transform="translate(286, 950)" text-anchor="middle" dominant-baseline="middle" stroke="none" fill="black">10</text>
        <path d="M 302.6 920 L 302.6 910" />
        <path d="M 319.2 920 L 319.2 910" />
        <path d="M 335.8 920 L 335.8 910" />
        <path d="M 352.4 920 L 352.4 910" />
        <path d="M 369 920 L 369 910" />
        <path d="M 385.6 920 L 385.6 910" />
        <path d="M 402.2 920 L 402.2 910" />
        <path d="M 418.8 920 L 418.8 910" />
        <path d="M 435.4 920 L 435.4 910" />
        <path d="M 452 920 L 452 900" />
        <text font-size="30" transform="translate(452, 950)" text-anchor="middle" dominant-baseline="middle" stroke="none" fill="black">20</text>
        <path d="M 468.6 920 L 468.6 910" />
        <path d="M 485.2 920 L 485.2 910" />
        <path d="M 501.8 920 L 501.8 910" />
        <path d="M 518.4 920 L 518.4 910" />
        <path d="M 535 920 L 535 910" />
        <path d="M 551.6 920 L 551.6 910" />
        <path d="M 568.2 920 L 568.2 910" />
        <path d="M 584.8 920 L 584.8 910" />
        <path d="M 601.4 920 L 601.4 910" />
        <path d="M 618 920 L 618 900" />
        <text font-size="30" transform="translate(618, 950)" text-anchor="middle" dominant-baseline="middle" stroke="none" fill="black">30</text>
        <path d="M 634.6 920 L 634.6 910" />
        <path d="M 651.2 920 L 651.2 910" />
        <path d="M 667.8 920 L 667.8 910" />
        <path d="M 684.4 920 L 684.4 910" />
        <path d="M 701 920 L 701 910" />
        <path d="M 717.6 920 L 717.6 910" />
        <path d="M 734.2 920 L 734.2 910" />
        <path d="M 750.8 920 L 750.8 910" />
        <path d="M 767.4 920 L 767.4 910" />
        <path d="M 784 920 L 784 900" />
        <text font-size="30" transform="translate(784, 950)" text-anchor="middle" dominant-baseline="middle" stroke="none" fill="black">40</text>
        <path d="M 800.6 920 L 800.6 910" />
        <path d="M 817.2 920 L 817.2 910" />
        <path d="M 833.8 920 L 833.8 910" />
        <path d="M 850.4 920 L 850.4 910" />
        <path d="M 867 920 L 867 910" />
        <path d="M 883.6 920 L 883.6 910" />
        <path d="M 900.2 920 L 900.2 910" />
        <path d="M 916.8 920 L 916.8 910" />
        <path d="M 933.4 920 L 933.4 910" />
        <path d="M 950 920 L 950 900" />
        <text font-size="30" transform="translate(950, 950)" text-anchor="middle" dominant-baseline="middle" stroke="none" fill="black">50</text>
    </g>
    <g id="frame_0_leftticks">
        <path d="M 120 354.054 L 130 354.054" />
        <path d="M 120 71.0815 L 130 71.0815" />
        <path d="M 120 760.828 L 130 760.828" />
        <path d="M 120 920 L 140 920" />
        <text font-size="30" transform="translate(110, 930)" text-anchor="end" dominant-baseline="middle" stroke="none" fill="black">0</text>
        <path d="M 120 601.656 L 130 601.656" />
        <path d="M 120 300.997 L 130 300.997" />
        <path d="M 120 442.483 L 130 442.483" />
        <path d="M 120 849.257 L 130 849.257" />
        <path d="M 120 247.94 L 130 247.94" />
        <path d="M 120 690.085 L 130 690.085" />
        <path d="M 120 530.912 L 130 530.912" />
        <path d="M 120 194.882 L 130 194.882" />
        <path d="M 120 371.74 L 130 371.74" />
        <path d="M 120 778.514 L 130 778.514" />
        <path d="M 120 141.825 L 130 141.825" />
        <path d="M 120 619.341 L 130 619.341" />
        <path d="M 120 460.169 L 130 460.169" />
        <path d="M 120 88.7673 L 130 88.7673" />
        <path d="M 120 866.943 L 130 866.943" />
        <path d="M 120 707.77 L 130 707.77" />
        <path d="M 120 318.683 L 130 318.683" />
        <path d="M 120 548.598 L 130 548.598" />
        <path d="M 120 389.426 L 140 389.426" />
        <text font-size="30" transform="translate(110, 399.426)" text-anchor="end" dominant-baseline="middle" stroke="none" fill="black">3000</text>
        <path d="M 120 265.625 L 130 265.625" />
        <path d="M 120 796.199 L 130 796.199" />
        <path d="M 120 637.027 L 130 637.027" />
        <path d="M 120 212.568 L 140 212.568" />
        <text font-size="30" transform="translate(110, 222.568)" text-anchor="end" dominant-baseline="middle" stroke="none" fill="black">4000</text>
        <path d="M 120 477.855 L 130 477.855" />
        <path d="M 120 884.628 L 130 884.628" />
        <path d="M 120 159.51 L 130 159.51" />
        <path d="M 120 725.456 L 130 725.456" />
        <path d="M 120 566.284 L 140 566.284" />
        <text font-size="30" transform="translate(110, 576.284)" text-anchor="end" dominant-baseline="middle" stroke="none" fill="black">2000</text>
        <path d="M 120 106.453 L 130 106.453" />
        <path d="M 120 407.112 L 130 407.112" />
        <path d="M 120 53.3957 L 130 53.3957" />
        <path d="M 120 813.885 L 130 813.885" />
        <path d="M 120 336.369 L 130 336.369" />
        <path d="M 120 654.713 L 130 654.713" />
        <path d="M 120 495.541 L 130 495.541" />
        <path d="M 120 283.311 L 130 283.311" />
        <path d="M 120 902.314 L 130 902.314" />
        <path d="M 120 177.196 L 130 177.196" />
        <path d="M 120 230.254 L 130 230.254" />
        <path d="M 120 583.97 L 130 583.97" />
        <path d="M 120 424.798 L 130 424.798" />
        <path d="M 120 743.142 L 140 743.142" />
        <text font-size="30" transform="translate(110, 753.142)" text-anchor="end" dominant-baseline="middle" stroke="none" fill="black">1000</text>
        <path d="M 120 831.571 L 130 831.571" />
        <path d="M 120 672.399 L 130 672.399" />
        <path d="M 120 124.139 L 130 124.139" />
        <path d="M 120 513.227 L 130 513.227" />
    </g>
    <text id="frame_0_toplabel" font-size="30" transform="translate(535, 32.6)" text-anchor="middle" dominant-baseline="middle" stroke="none" fill="black">time.year</text>
    <g id="frame_0_topticks">
        <path d="M 120 50 L 120 70" />
        <path d="M 136.6 50 L 136.6 60" />
        <path d="M 153.2 50 L 153.2 60" />
        <path d="M 169.8 50 L 169.8 60" />
        <path d="M 186.4 50 L 186.4 60" />
        <path d="M 203 50 L 203 60" />
        <path d="M 219.6 50 L 219.6 60" />
        <path d="M 236.2 50 L 236.2 60" />
        <path d="M 252.8 50 L 252.8 60" />
        <path d="M 269.4 50 L 269.4 60" />
        <path d="M 286 50 L 286 70" />
        <path d="M 302.6 50 L 302.6 60" />
        <path d="M 319.2 50 L 319.2 60" />
        <path d="M 335.8 50 L 335.8 60" />
        <path d="M 352.4 50 L 352.4 60" />
        <path d="M 369 50 L 369 60" />
        <path d="M 385.6 50 L 385.6 60" />
        <path d="M 402.2 50 L 402.2 60" />
        <path d="M 418.8 50 L 418.8 60" />
        <path d="M 435.4 50 L 435.4 60" />
        <path d="M 452 50 L 452 70" />
        <path d="M 468.6 50 L 468.6 60" />
        <path d="M 485.2 50 L 485.2 60" />
        <path d="M 501.8 50 L 501.8 60" />
        <path d="M 518.4 50 L 518.4 60" />
        <path d="M 535 50 L 535 60" />
        <path d="M 551.6 50 L 551.6 60" />
        <path d="M 568.2 50 L 568.2 60" />
        <path d="M 584.8 50 L 584.8 60" />
        <path d="M 601.4 50 L 601.4 60" />
        <path d="M 618 50 L 618 70" />
        <path d="M 634.6 50 L 634.6 60" />
        <path d="M 651.2 50 L 651.2 60" />
        <path d="M 667.8 50 L 667.8 60" />
        <path d="M 684.4 50 L 684.4 60" />
        <path d="M 701 50 L 701 60" />
        <path d="M 717.6 50 L 717.6 60" />
        <path d="M 734.2 50 L 734.2 60" />
        <path d="M 750.8 50 L 750.8 60" />
        <path d="M 767.4 50 L 767.4 60" />
        <path d="M 784 50 L 784 70" />
        <path d="M 800.6 50 L 800.6 60" />
        <path d="M 817.2 50 L 817.2 60" />
        <path d="M 833.8 50 L 833.8 60" />
        <path d="M 850.4 50 L 850.4 60" />
        <path d="M 867 50 L 867 60" />
        <path d="M 883.6 50 L 883.6 60" />
        <path d="M 900.2 50 L 900.2 60" />
        <path d="M 916.8 50 L 916.8 60" />
        <path d="M 933.4 50 L 933.4 60" />
        <path d="M 950 50 L 950 70" />
    </g>
    <g id="frame_0_rightticks">
        <path d="M 950 354.054 L 940 354.054" />
        <path d="M 950 71.0815 L 940 71.0815" />
        <path d="M 950 760.828 L 940 760.828" />
        <path d="M 950 920 L 930 920" />
        <path d="M 950 601.656 L 940 601.656" />
        <path d="M 950 300.997 L 940 300.997" />
        <path d="M 950 442.483 L 940 442.483" />
        <path d="M 950 849.257 L 940 849.257" />
        <path d="M 950 247.94 L 940 247.94" />
        <path d="M 950 690.085 L 940 690.085" />
        <path d="M 950 530.912 L 940 530.912" />
        <path d="M 950 194.882 L 940 194.882" />
        <path d="M 950 371.74 L 940 371.74" />
        <path d="M 950 778.514 L 940 778.514" />
        <path d="M 950 141.825 L 940 141.825" />
        <path d="M 950 619.341 L 940 619.341" />
        <path d="M 950 460.169 L 940 460.169" />
        <path d="M 950 88.7673 L 940 88.7673" />
        <path d="M 950 866.943 L 940 866.943" />
        <path d="M 950 707.77 L 940 707.77" />
        <path d="M 950 318.683 L 940 318.683" />
        <path d="M 950 548.598 L 940 548.598" />
        <path d="M 950 389.426 L 930 389.426" />
        <path d="M 950 265.625 L 940 265.625" />
        <path d="M 950 796.199 L 940 796.199" />
        <path d="M 950 637.027 L 940 637.027" />
        <path d="M 950 212.568 L 930 212.568" />
        <path d="M 950 477.855 L 940 477.855" />
        <path d="M 950 884.628 L 940 884.628" />
        <path d="M 950 159.51 L 940 159.51" />
        <path d="M 950 725.456 L 940 725.456" />
        <path d="M 950 566.284 L 930 566.284" />
        <path d="M 950 106.453 L 940 106.453" />
        <path d="M 950 407.112 L 940 407.112" />
        <path d="M 950 53.3957 L 940 53.3957" />
        <path d="M 950 813.885 L 940 813.885" />
        <path d="M 950 336.369 L 940 336.369" />
        <path d="M 950 654.713 L 940 654.713" />
        <path d="M 950 495.541 L 940 495.541" />
        <path d="M 950 283.311 L 940 283.311" />
        <path d="M 950 902.314 L 940 902.314" />
        <path d="M 950 177.196 L 940 177.196" />
        <path d="M 950 230.254 L 940 230.254" />
        <path d="M 950 583.97 L 940 583.97" />
        <path d="M 950 424.798 L 940 424.798" />
        <path d="M 950 743.142 L 930 743.142" />
        <path d="M 950 831.571 L 940 831.571" />
        <path d="M 950 672.399 L 940 672.399" />
        <path d="M 950 124.139 L 940 124.139" />
        <path d="M 950 513.227 L 940 513.227" />
    </g>
</g>
</g>
</svg>
