<?xml version="1.0" standalone="no"?>
<!DOCTYPE svg PUBLIC "-//W3C//DTD SVG 1.1//EN" "http://www.w3.org/Graphics/SVG/1.1/DTD/svg11.dtd">
<svg style="stroke-linejoin:miter; stroke:black; stroke-width:2.5; text-anchor:middle; fill:none" xmlns="http://www.w3.org/2000/svg" font-family="Helvetica, Arial, FreeSans, Sans, sans, sans-serif" width="1000px" height="1000px" version="1.1" xmlns:xlink="http://www.w3.org/1999/xlink" viewBox="0 0 1000 1000">
<defs>
    <clipPath id="Histogram_0_clip">
        <rect x="120" y="50" width="830" height="870" />
    </clipPath>
    <clipPath id="Histogram_1_clip">
        <rect x="120" y="50" width="830" height="870" />
    </clipPath>
</defs>
<g id="whole_document">
<rect id="background" x="0" y="0" width="1000" height="1000" stroke="none" fill="white" />
<g id="Histogram_0" clip-path="url(#Histogram_0_clip)">
    <path d="M 120 920 L 120 864.261 L 161.5 864.261 L 161.5 918.466 L 203 918.466 L 203 920 L 244.5 920 L 244.5 129.091 L 286 129.091 L 286 915.211 L 327.5 915.211 L 327.5 914.73 L 369 914.73 L 369 914.617 L 410.5 914.617 L 410.5 912.143 L 452 912.143 L 452 917.361 L 493.5 917.361 L 493.5 919.304 L 535 919.304 L 535 919.696 L 576.5 919.696 L 576.5 919.902 L 618 919.902 L 618 920 L 659.5 920 L 659.5 920 L 701 920 L 701 920 L 742.5 920 L 742.5 920 L 784 920 L 784 920 L 825.5 920 L 825.5 920 L 867 920 L 867 920 L 908.5 920 L 908.5 920 L 950 920 L 950 920" stroke-width="3" stroke-dasharray="" stroke="black" stroke-opacity="1" fill="DodgerBlue" fill-opacity="1" />
</g>
<g id="Histogram_1" clip-path="url(#Histogram_1_clip)">
    <path d="M 120 920 L 120 920 L 161.5 920 L 161.5 920 L 203 920 L 203 920 L 244.5 920 L 244.5 129.091 L 286 129.091 L 286 915.211 L 327.5 915.211 L 327.5 914.73 L 369 914.73 L 369 914.617 L 410.5 914.617 L 410.5 919.926 L 452 919.926 L 452 920 L 493.5 920 L 493.5 920 L 535 920 L 535 920 L 576.5 920 L 576.5 920 L 618 920 L 618 920 L 659.5 920 L 659.5 920 L 701 920 L 701 920 L 742.5 920 L 742.5 920 L 784 920 L 784 920 L 825.5 920 L 825.5 920 L 867 920 L 867 920 L 908.5 920 L 908.5 920 L 950 920 L 950 920" stroke-width="3" stroke-dasharray="" stroke="black" stroke-opacity="1" fill="darkorange" fill-opacity="1" />
</g>
<g id="frame_0">
    <rect id="frame_0_border" x="120" y="50" width="830" height="870" />
    <text id="frame_0_bottomlabel" font-size="30" transform="translate(535, 989.6)" text-anchor="middle" dominant-baseline="middle" stroke="none" fill="black">microseconds</text>
    <g id="frame_0_bottomticks">
        <path d="M 120 920 L 120 900" />
        <text font-size="30" transform="translate(120, 950)" text-anchor="middle" dominant-baseline="middle" stroke="none" fill="black">0</text>
        <path d="M 136.6 920 L 136.6 910" />
        <path d="M 153.2 920 L 153.2 910" />
        <path d="M 169.8 920 L 169.8 910" />
        <path d="M 186.4 920 L 186.4 910" />
        <path d="M 203 920 L 203 910" />
        <path d="M 219.6 920 L 219.6 910" />
        <path d="M 236.2 920 L 236.2 910" />
        <path d="M 252.8 920 L 252.8 910" />
        <path d="M 269.4 920 L 269.4 910" />
        <path d="M 286 920 L 286 900" />
        <text font-size="30" transform="translate(286, 950)" text-anchor="middle" dominant-baseline="middle" stroke="none" fill="black">10</text>
        <path d="M 302.6 920 L 302.6 910" />
        <path d="M 319.2 920 L 319.2 910" />
        <path d="M 335.8 920 L 335.8 910" />
        <path d="M 352.4 920 L 352.4 910" />
        <path d="M 369 920 L 369 910" />
        <path d="M 385.6 920 L 385.6 910" />
        <path d="M 402.2 920 L 402.2 910" />
        <path d="M 418.8 920 L 418.8 910" />
        <path d="M 435.4 920 L 435.4 910" />
        <path d="M 452 920 L 452 900" />
        <text font-size="30" transform="translate(452, 950)" text-anchor="middle" dominant-baseline="middle" stroke="none" fill="black">20</text>
        <path d="M 468.6 920 L 468.6 910" />
        <path d="M 485.2 920 L 485.2 910" />
        <path d="M 501.8 920 L 501.8 910" />
        <path d="M 518.4 920 L 518.4 910" />
        <path d="M 535 920 L 535 910" />
        <path d="M 551.6 920 L 551.6 910" />
        <path d="M 568.2 920 L 568.2 910" />
        <path d="M 584.8 920 L 584.8 910" />
        <path d="M 601.4 920 L 601.4 910" />
        <path d="M 618 920 L 618 900" />
        <text font-size="30" transform="translate(618, 950)" text-anchor="middle" dominant-baseline="middle" stroke="none" fill="black">30</text>
        <path d="M 634.6 920 L 634.6 910" />
        <path d="M 651.2 920 L 651.2 910" />
        <path d="M 667.8 920 L 667.8 910" />
        <path d="M 684.4 920 L 684.4 910" />
        <path d="M 701 920 L 701 910" />
        <path d="M 717.6 920 L 717.6 910" />
        <path d="M 734.2 920 L 734.2 910" />
        <path d="M 750.8 920 L 750.8 910" />
        <path d="M 767.4 920 L 767.4 910" />
        <path d="M 784 920 L 784 900" />
        <text font-size="30" transform="translate(784, 950)" text-anchor="middle" dominant-baseline="middle" stroke="none" fill="black">40</text>
        <path d="M 800.6 920 L 800.6 910" />
        <path d="M 817.2 920 L 817.2 910" />
        <path d="M 833.8 920 L 833.8 910" />
        <path d="M 850.4 920 L 850.4 910" />
        <path d="M 867 920 L 867 910" />
        <path d="M 883.6 920 L 883.6 910" />
        <path d="M 900.2 920 L 900.2 910" />
        <path d="M 916.8 920 L 916.8 910" />
        <path d="M 933.4 920 L 933.4 910" />
        <path d="M 950 920 L 950 900" />
        <text font-size="30" transform="translate(950, 950)" text-anchor="middle" dominant-baseline="middle" stroke="none" fill="black">50</text>
    </g>
    <g id="frame_0_leftticks">
        <path d="M 120 814.38 L 130 814.38" />
        <path d="M 120 761.569 L 130 761.569" />
        <path d="M 120 576.734 L 130 576.734" />
        <path d="M 120 299.48 L 130 299.48" />
        <path d="M 120 920 L 140 920" />
        <text font-size="30" transform="translate(110, 930)" text-anchor="end" dominant-baseline="middle" stroke="none" fill="black">0</text>
        <path d="M 120 642.747 L 130 642.747" />
        <path d="M 120 365.493 L 130 365.493" />
        <path d="M 120 88.2396 L 130 88.2396" />
        <path d="M 120 708.759 L 130 708.759" />
        <path d="M 120 801.177 L 130 801.177" />
        <path d="M 120 154.252 L 130 154.252" />
        <path d="M 120 497.519 L 130 497.519" />
        <path d="M 120 220.265 L 130 220.265" />
        <path d="M 120 563.531 L 130 563.531" />
        <path d="M 120 906.797 L 130 906.797" />
        <path d="M 120 893.595 L 130 893.595" />
        <path d="M 120 774.772 L 130 774.772" />
        <path d="M 120 352.291 L 130 352.291" />
        <path d="M 120 75.037 L 130 75.037" />
        <path d="M 120 418.303 L 130 418.303" />
        <path d="M 120 207.063 L 130 207.063" />
        <path d="M 120 141.05 L 130 141.05" />
        <path d="M 120 484.316 L 130 484.316" />
        <path d="M 120 880.392 L 130 880.392" />
        <path d="M 120 853.987 L 130 853.987" />
        <path d="M 120 550.329 L 130 550.329" />
        <path d="M 120 273.075 L 130 273.075" />
        <path d="M 120 616.341 L 130 616.341" />
        <path d="M 120 827.582 L 130 827.582" />
        <path d="M 120 339.088 L 130 339.088" />
        <path d="M 120 61.8345 L 130 61.8345" />
        <path d="M 120 682.354 L 130 682.354" />
        <path d="M 120 867.19 L 130 867.19" />
        <path d="M 120 629.544 L 130 629.544" />
        <path d="M 120 405.101 L 130 405.101" />
        <path d="M 120 127.847 L 140 127.847" />
        <text font-size="30" transform="translate(110, 137.847)" text-anchor="end" dominant-baseline="middle" stroke="none" fill="black">600000</text>
        <path d="M 120 471.113 L 130 471.113" />
        <path d="M 120 193.86 L 130 193.86" />
        <path d="M 120 537.126 L 130 537.126" />
        <path d="M 120 259.873 L 140 259.873" />
        <text font-size="30" transform="translate(110, 269.873)" text-anchor="end" dominant-baseline="middle" stroke="none" fill="black">500000</text>
        <path d="M 120 748.367 L 130 748.367" />
        <path d="M 120 603.139 L 130 603.139" />
        <path d="M 120 325.885 L 130 325.885" />
        <path d="M 120 669.152 L 130 669.152" />
        <path d="M 120 391.898 L 140 391.898" />
        <text font-size="30" transform="translate(110, 401.898)" text-anchor="end" dominant-baseline="middle" stroke="none" fill="black">400000</text>
        <path d="M 120 114.645 L 130 114.645" />
        <path d="M 120 735.164 L 130 735.164" />
        <path d="M 120 457.911 L 130 457.911" />
        <path d="M 120 840.785 L 130 840.785" />
        <path d="M 120 695.557 L 130 695.557" />
        <path d="M 120 180.657 L 130 180.657" />
        <path d="M 120 523.924 L 140 523.924" />
        <text font-size="30" transform="translate(110, 533.924)" text-anchor="end" dominant-baseline="middle" stroke="none" fill="black">300000</text>
        <path d="M 120 431.506 L 130 431.506" />
        <path d="M 120 589.936 L 130 589.936" />
        <path d="M 120 286.278 L 130 286.278" />
        <path d="M 120 312.683 L 130 312.683" />
        <path d="M 120 721.962 L 130 721.962" />
        <path d="M 120 378.696 L 130 378.696" />
        <path d="M 120 655.949 L 140 655.949" />
        <text font-size="30" transform="translate(110, 665.949)" text-anchor="end" dominant-baseline="middle" stroke="none" fill="black">200000</text>
        <path d="M 120 101.442 L 130 101.442" />
        <path d="M 120 246.67 L 130 246.67" />
        <path d="M 120 444.708 L 130 444.708" />
        <path d="M 120 167.455 L 130 167.455" />
        <path d="M 120 787.975 L 140 787.975" />
        <text font-size="30" transform="translate(110, 797.975)" text-anchor="end" dominant-baseline="middle" stroke="none" fill="black">100000</text>
        <path d="M 120 233.468 L 130 233.468" />
        <path d="M 120 510.721 L 130 510.721" />
    </g>
    <text id="frame_0_toplabel" font-size="30" transform="translate(535, 32.6)" text-anchor="middle" dominant-baseline="middle" stroke="none" fill="black">prob.dist.binomialQF</text>
    <g id="frame_0_topticks">
        <path d="M 120 50 L 120 70" />
        <path d="M 136.6 50 L 136.6 60" />
        <path d="M 153.2 50 L 153.2 60" />
        <path d="M 169.8 50 L 169.8 60" />
        <path d="M 186.4 50 L 186.4 60" />
        <path d="M 203 50 L 203 60" />
        <path d="M 219.6 50 L 219.6 60" />
        <path d="M 236.2 50 L 236.2 60" />
        <path d="M 252.8 50 L 252.8 60" />
        <path d="M 269.4 50 L 269.4 60" />
        <path d="M 286 50 L 286 70" />
        <path d="M 302.6 50 L 302.6 60" />
        <path d="M 319.2 50 L 319.2 60" />
        <path d="M 335.8 50 L 335.8 60" />
        <path d="M 352.4 50 L 352.4 60" />
        <path d="M 369 50 L 369 60" />
        <path d="M 385.6 50 L 385.6 60" />
        <path d="M 402.2 50 L 402.2 60" />
        <path d="M 418.8 50 L 418.8 60" />
        <path d="M 435.4 50 L 435.4 60" />
        <path d="M 452 50 L 452 70" />
        <path d="M 468.6 50 L 468.6 60" />
        <path d="M 485.2 50 L 485.2 60" />
        <path d="M 501.8 50 L 501.8 60" />
        <path d="M 518.4 50 L 518.4 60" />
        <path d="M 535 50 L 535 60" />
        <path d="M 551.6 50 L 551.6 60" />
        <path d="M 568.2 50 L 568.2 60" />
        <path d="M 584.8 50 L 584.8 60" />
        <path d="M 601.4 50 L 601.4 60" />
        <path d="M 618 50 L 618 70" />
        <path d="M 634.6 50 L 634.6 60" />
        <path d="M 651.2 50 L 651.2 60" />
        <path d="M 667.8 50 L 667.8 60" />
        <path d="M 684.4 50 L 684.4 60" />
        <path d="M 701 50 L 701 60" />
        <path d="M 717.6 50 L 717.6 60" />
        <path d="M 734.2 50 L 734.2 60" />
        <path d="M 750.8 50 L 750.8 60" />
        <path d="M 767.4 50 L 767.4 60" />
        <path d="M 784 50 L 784 70" />
        <path d="M 800.6 50 L 800.6 60" />
        <path d="M 817.2 50 L 817.2 60" />
        <path d="M 833.8 50 L 833.8 60" />
        <path d="M 850.4 50 L 850.4 60" />
        <path d="M 867 50 L 867 60" />
        <path d="M 883.6 50 L 883.6 60" />
        <path d="M 900.2 50 L 900.2 60" />
        <path d="M 916.8 50 L 916.8 60" />
        <path d="M 933.4 50 L 933.4 60" />
        <path d="M 950 50 L 950 70" />
    </g>
    <g id="frame_0_rightticks">
        <path d="M 950 814.38 L 940 814.38" />
        <path d="M 950 761.569 L 940 761.569" />
        <path d="M 950 576.734 L 940 576.734" />
        <path d="M 950 299.48 L 940 299.48" />
        <path d="M 950 920 L 930 920" />
        <path d="M 950 642.747 L 940 642.747" />
        <path d="M 950 365.493 L 940 365.493" />
        <path d="M 950 88.2396 L 940 88.2396" />
        <path d="M 950 708.759 L 940 708.759" />
        <path d="M 950 801.177 L 940 801.177" />
        <path d="M 950 154.252 L 940 154.252" />
        <path d="M 950 497.519 L 940 497.519" />
        <path d="M 950 220.265 L 940 220.265" />
        <path d="M 950 563.531 L 940 563.531" />
        <path d="M 950 906.797 L 940 906.797" />
        <path d="M 950 893.595 L 940 893.595" />
        <path d="M 950 774.772 L 940 774.772" />
        <path d="M 950 352.291 L 940 352.291" />
        <path d="M 950 75.037 L 940 75.037" />
        <path d="M 950 418.303 L 940 418.303" />
        <path d="M 950 207.063 L 940 207.063" />
        <path d="M 950 141.05 L 940 141.05" />
        <path d="M 950 484.316 L 940 484.316" />
        <path d="M 950 880.392 L 940 880.392" />
        <path d="M 950 853.987 L 940 853.987" />
        <path d="M 950 550.329 L 940 550.329" />
        <path d="M 950 273.075 L 940 273.075" />
        <path d="M 950 616.341 L 940 616.341" />
        <path d="M 950 827.582 L 940 827.582" />
        <path d="M 950 339.088 L 940 339.088" />
        <path d="M 950 61.8345 L 940 61.8345" />
        <path d="M 950 682.354 L 940 682.354" />
        <path d="M 950 867.19 L 940 867.19" />
        <path d="M 950 629.544 L 940 629.544" />
        <path d="M 950 405.101 L 940 405.101" />
        <path d="M 950 127.847 L 930 127.847" />
        <path d="M 950 471.113 L 940 471.113" />
        <path d="M 950 193.86 L 940 193.86" />
        <path d="M 950 537.126 L 940 537.126" />
        <path d="M 950 259.873 L 930 259.873" />
        <path d="M 950 748.367 L 940 748.367" />
        <path d="M 950 603.139 L 940 603.139" />
        <path d="M 950 325.885 L 940 325.885" />
        <path d="M 950 669.152 L 940 669.152" />
        <path d="M 950 391.898 L 930 391.898" />
        <path d="M 950 114.645 L 940 114.645" />
        <path d="M 950 735.164 L 940 735.164" />
        <path d="M 950 457.911 L 940 457.911" />
        <path d="M 950 840.785 L 940 840.785" />
        <path d="M 950 695.557 L 940 695.557" />
        <path d="M 950 180.657 L 940 180.657" />
        <path d="M 950 523.924 L 930 523.924" />
        <path d="M 950 431.506 L 940 431.506" />
        <path d="M 950 589.936 L 940 589.936" />
        <path d="M 950 286.278 L 940 286.278" />
        <path d="M 950 312.683 L 940 312.683" />
        <path d="M 950 721.962 L 940 721.962" />
        <path d="M 950 378.696 L 940 378.696" />
        <path d="M 950 655.949 L 930 655.949" />
        <path d="M 950 101.442 L 940 101.442" />
        <path d="M 950 246.67 L 940 246.67" />
        <path d="M 950 444.708 L 940 444.708" />
        <path d="M 950 167.455 L 940 167.455" />
        <path d="M 950 787.975 L 930 787.975" />
        <path d="M 950 233.468 L 940 233.468" />
        <path d="M 950 510.721 L 940 510.721" />
    </g>
</g>
</g>
</svg>
