<?xml version="1.0" standalone="no"?>
<!DOCTYPE svg PUBLIC "-//W3C//DTD SVG 1.1//EN" "http://www.w3.org/Graphics/SVG/1.1/DTD/svg11.dtd">
<svg style="stroke-linejoin:miter; stroke:black; stroke-width:2.5; text-anchor:middle; fill:none" xmlns="http://www.w3.org/2000/svg" font-family="Helvetica, Arial, FreeSans, Sans, sans, sans-serif" width="1000px" height="1000px" version="1.1" xmlns:xlink="http://www.w3.org/1999/xlink" viewBox="0 0 1000 1000">
<defs>
    <clipPath id="Histogram_0_clip">
        <rect x="120" y="50" width="830" height="870" />
    </clipPath>
</defs>
<g id="whole_document">
<rect id="background" x="0" y="0" width="1000" height="1000" stroke="none" fill="white" />
<g id="Histogram_0" clip-path="url(#Histogram_0_clip)">
    <path d="M 120 920 L 120 129.091 L 161.5 129.091 L 161.5 863.44 L 203 863.44 L 203 897.277 L 244.5 897.277 L 244.5 918.366 L 286 918.366 L 286 920 L 327.5 920 L 327.5 910.52 L 369 910.52 L 369 920 L 410.5 920 L 410.5 920 L 452 920 L 452 920 L 493.5 920 L 493.5 920 L 535 920 L 535 920 L 576.5 920 L 576.5 920 L 618 920 L 618 920 L 659.5 920 L 659.5 920 L 701 920 L 701 920 L 742.5 920 L 742.5 920 L 784 920 L 784 920 L 825.5 920 L 825.5 920 L 867 920 L 867 920 L 908.5 920 L 908.5 920 L 950 920 L 950 920" stroke-width="3" stroke-dasharray="" stroke="black" stroke-opacity="1" fill="DodgerBlue" fill-opacity="1" />
</g>
<g id="frame_0">
    <rect id="frame_0_border" x="120" y="50" width="830" height="870" />
    <text id="frame_0_bottomlabel" font-size="30" transform="translate(535, 989.6)" text-anchor="middle" dominant-baseline="middle" stroke="none" fill="black">microseconds</text>
    <g id="frame_0_bottomticks">
        <path d="M 120 920 L 120 900" />
        <text font-size="30" transform="translate(120, 950)" text-anchor="middle" dominant-baseline="middle" stroke="none" fill="black">0</text>
        <path d="M 136.6 920 L 136.6 910" />
        <path d="M 153.2 920 L 153.2 910" />
        <path d="M 169.8 920 L 169.8 910" />
        <path d="M 186.4 920 L 186.4 910" />
        <path d="M 203 920 L 203 910" />
        <path d="M 219.6 920 L 219.6 910" />
        <path d="M 236.2 920 L 236.2 910" />
        <path d="M 252.8 920 L 252.8 910" />
        <path d="M 269.4 920 L 269.4 910" />
        <path d="M 286 920 L 286 900" />
        <text font-size="30" transform="translate(286, 950)" text-anchor="middle" dominant-baseline="middle" stroke="none" fill="black">10</text>
        <path d="M 302.6 920 L 302.6 910" />
        <path d="M 319.2 920 L 319.2 910" />
        <path d="M 335.8 920 L 335.8 910" />
        <path d="M 352.4 920 L 352.4 910" />
        <path d="M 369 920 L 369 910" />
        <path d="M 385.6 920 L 385.6 910" />
        <path d="M 402.2 920 L 402.2 910" />
        <path d="M 418.8 920 L 418.8 910" />
        <path d="M 435.4 920 L 435.4 910" />
        <path d="M 452 920 L 452 900" />
        <text font-size="30" transform="translate(452, 950)" text-anchor="middle" dominant-baseline="middle" stroke="none" fill="black">20</text>
        <path d="M 468.6 920 L 468.6 910" />
        <path d="M 485.2 920 L 485.2 910" />
        <path d="M 501.8 920 L 501.8 910" />
        <path d="M 518.4 920 L 518.4 910" />
        <path d="M 535 920 L 535 910" />
        <path d="M 551.6 920 L 551.6 910" />
        <path d="M 568.2 920 L 568.2 910" />
        <path d="M 584.8 920 L 584.8 910" />
        <path d="M 601.4 920 L 601.4 910" />
        <path d="M 618 920 L 618 900" />
        <text font-size="30" transform="translate(618, 950)" text-anchor="middle" dominant-baseline="middle" stroke="none" fill="black">30</text>
        <path d="M 634.6 920 L 634.6 910" />
        <path d="M 651.2 920 L 651.2 910" />
        <path d="M 667.8 920 L 667.8 910" />
        <path d="M 684.4 920 L 684.4 910" />
        <path d="M 701 920 L 701 910" />
        <path d="M 717.6 920 L 717.6 910" />
        <path d="M 734.2 920 L 734.2 910" />
        <path d="M 750.8 920 L 750.8 910" />
        <path d="M 767.4 920 L 767.4 910" />
        <path d="M 784 920 L 784 900" />
        <text font-size="30" transform="translate(784, 950)" text-anchor="middle" dominant-baseline="middle" stroke="none" fill="black">40</text>
        <path d="M 800.6 920 L 800.6 910" />
        <path d="M 817.2 920 L 817.2 910" />
        <path d="M 833.8 920 L 833.8 910" />
        <path d="M 850.4 920 L 850.4 910" />
        <path d="M 867 920 L 867 910" />
        <path d="M 883.6 920 L 883.6 910" />
        <path d="M 900.2 920 L 900.2 910" />
        <path d="M 916.8 920 L 916.8 910" />
        <path d="M 933.4 920 L 933.4 910" />
        <path d="M 950 920 L 950 900" />
        <text font-size="30" transform="translate(950, 950)" text-anchor="middle" dominant-baseline="middle" stroke="none" fill="black">50</text>
    </g>
    <g id="frame_0_leftticks">
        <path d="M 120 721.979 L 130 721.979" />
        <path d="M 120 622.968 L 130 622.968" />
        <path d="M 120 103.163 L 130 103.163" />
        <path d="M 120 585.839 L 130 585.839" />
        <path d="M 120 140.291 L 130 140.291" />
        <path d="M 120 660.097 L 130 660.097" />
        <path d="M 120 499.205 L 130 499.205" />
        <path d="M 120 214.549 L 130 214.549" />
        <path d="M 120 598.216 L 130 598.216" />
        <path d="M 120 833.366 L 130 833.366" />
        <path d="M 120 338.313 L 130 338.313" />
        <path d="M 120 78.4099 L 130 78.4099" />
        <path d="M 120 734.355 L 130 734.355" />
        <path d="M 120 177.42 L 140 177.42" />
        <text font-size="30" transform="translate(110, 187.42)" text-anchor="end" dominant-baseline="middle" stroke="none" fill="black">60000</text>
        <path d="M 120 202.173 L 130 202.173" />
        <path d="M 120 920 L 140 920" />
        <text font-size="30" transform="translate(110, 930)" text-anchor="end" dominant-baseline="middle" stroke="none" fill="black">0</text>
        <path d="M 120 561.087 L 130 561.087" />
        <path d="M 120 536.334 L 130 536.334" />
        <path d="M 120 437.323 L 130 437.323" />
        <path d="M 120 870.495 L 130 870.495" />
        <path d="M 120 647.721 L 130 647.721" />
        <path d="M 120 375.442 L 130 375.442" />
        <path d="M 120 796.237 L 140 796.237" />
        <text font-size="30" transform="translate(110, 806.237)" text-anchor="end" dominant-baseline="middle" stroke="none" fill="black">10000</text>
        <path d="M 120 189.797 L 130 189.797" />
        <path d="M 120 808.613 L 130 808.613" />
        <path d="M 120 548.71 L 140 548.71" />
        <text font-size="30" transform="translate(110, 558.71)" text-anchor="end" dominant-baseline="middle" stroke="none" fill="black">30000</text>
        <path d="M 120 424.947 L 140 424.947" />
        <text font-size="30" transform="translate(110, 434.947)" text-anchor="end" dominant-baseline="middle" stroke="none" fill="black">40000</text>
        <path d="M 120 474.452 L 130 474.452" />
        <path d="M 120 66.0335 L 130 66.0335" />
        <path d="M 120 746.731 L 130 746.731" />
        <path d="M 120 858.118 L 130 858.118" />
        <path d="M 120 412.571 L 130 412.571" />
        <path d="M 120 684.85 L 130 684.85" />
        <path d="M 120 90.7862 L 130 90.7862" />
        <path d="M 120 53.6572 L 140 53.6572" />
        <text font-size="30" transform="translate(110, 63.6572)" text-anchor="end" dominant-baseline="middle" stroke="none" fill="black">70000</text>
        <path d="M 120 313.56 L 130 313.56" />
        <path d="M 120 511.581 L 130 511.581" />
        <path d="M 120 820.989 L 130 820.989" />
        <path d="M 120 573.463 L 130 573.463" />
        <path d="M 120 610.592 L 130 610.592" />
        <path d="M 120 165.044 L 130 165.044" />
        <path d="M 120 759.108 L 130 759.108" />
        <path d="M 120 449.7 L 130 449.7" />
        <path d="M 120 276.431 L 130 276.431" />
        <path d="M 120 288.807 L 130 288.807" />
        <path d="M 120 895.247 L 130 895.247" />
        <path d="M 120 882.871 L 130 882.871" />
        <path d="M 120 672.473 L 140 672.473" />
        <text font-size="30" transform="translate(110, 682.473)" text-anchor="end" dominant-baseline="middle" stroke="none" fill="black">20000</text>
        <path d="M 120 387.818 L 130 387.818" />
        <path d="M 120 127.915 L 130 127.915" />
        <path d="M 120 635.345 L 130 635.345" />
        <path d="M 120 264.055 L 130 264.055" />
        <path d="M 120 486.829 L 130 486.829" />
        <path d="M 120 226.926 L 130 226.926" />
        <path d="M 120 771.484 L 130 771.484" />
        <path d="M 120 697.226 L 130 697.226" />
        <path d="M 120 325.936 L 130 325.936" />
        <path d="M 120 251.678 L 130 251.678" />
        <path d="M 120 907.624 L 130 907.624" />
        <path d="M 120 152.668 L 130 152.668" />
        <path d="M 120 400.194 L 130 400.194" />
        <path d="M 120 523.958 L 130 523.958" />
        <path d="M 120 845.742 L 130 845.742" />
        <path d="M 120 709.602 L 130 709.602" />
        <path d="M 120 239.302 L 130 239.302" />
        <path d="M 120 363.065 L 130 363.065" />
        <path d="M 120 301.184 L 140 301.184" />
        <text font-size="30" transform="translate(110, 311.184)" text-anchor="end" dominant-baseline="middle" stroke="none" fill="black">50000</text>
        <path d="M 120 783.86 L 130 783.86" />
        <path d="M 120 115.539 L 130 115.539" />
        <path d="M 120 462.076 L 130 462.076" />
        <path d="M 120 350.689 L 130 350.689" />
    </g>
    <text id="frame_0_toplabel" font-size="30" transform="translate(535, 32.6)" text-anchor="middle" dominant-baseline="middle" stroke="none" fill="black">map.join</text>
    <g id="frame_0_topticks">
        <path d="M 120 50 L 120 70" />
        <path d="M 136.6 50 L 136.6 60" />
        <path d="M 153.2 50 L 153.2 60" />
        <path d="M 169.8 50 L 169.8 60" />
        <path d="M 186.4 50 L 186.4 60" />
        <path d="M 203 50 L 203 60" />
        <path d="M 219.6 50 L 219.6 60" />
        <path d="M 236.2 50 L 236.2 60" />
        <path d="M 252.8 50 L 252.8 60" />
        <path d="M 269.4 50 L 269.4 60" />
        <path d="M 286 50 L 286 70" />
        <path d="M 302.6 50 L 302.6 60" />
        <path d="M 319.2 50 L 319.2 60" />
        <path d="M 335.8 50 L 335.8 60" />
        <path d="M 352.4 50 L 352.4 60" />
        <path d="M 369 50 L 369 60" />
        <path d="M 385.6 50 L 385.6 60" />
        <path d="M 402.2 50 L 402.2 60" />
        <path d="M 418.8 50 L 418.8 60" />
        <path d="M 435.4 50 L 435.4 60" />
        <path d="M 452 50 L 452 70" />
        <path d="M 468.6 50 L 468.6 60" />
        <path d="M 485.2 50 L 485.2 60" />
        <path d="M 501.8 50 L 501.8 60" />
        <path d="M 518.4 50 L 518.4 60" />
        <path d="M 535 50 L 535 60" />
        <path d="M 551.6 50 L 551.6 60" />
        <path d="M 568.2 50 L 568.2 60" />
        <path d="M 584.8 50 L 584.8 60" />
        <path d="M 601.4 50 L 601.4 60" />
        <path d="M 618 50 L 618 70" />
        <path d="M 634.6 50 L 634.6 60" />
        <path d="M 651.2 50 L 651.2 60" />
        <path d="M 667.8 50 L 667.8 60" />
        <path d="M 684.4 50 L 684.4 60" />
        <path d="M 701 50 L 701 60" />
        <path d="M 717.6 50 L 717.6 60" />
        <path d="M 734.2 50 L 734.2 60" />
        <path d="M 750.8 50 L 750.8 60" />
        <path d="M 767.4 50 L 767.4 60" />
        <path d="M 784 50 L 784 70" />
        <path d="M 800.6 50 L 800.6 60" />
        <path d="M 817.2 50 L 817.2 60" />
        <path d="M 833.8 50 L 833.8 60" />
        <path d="M 850.4 50 L 850.4 60" />
        <path d="M 867 50 L 867 60" />
        <path d="M 883.6 50 L 883.6 60" />
        <path d="M 900.2 50 L 900.2 60" />
        <path d="M 916.8 50 L 916.8 60" />
        <path d="M 933.4 50 L 933.4 60" />
        <path d="M 950 50 L 950 70" />
    </g>
    <g id="frame_0_rightticks">
        <path d="M 950 721.979 L 940 721.979" />
        <path d="M 950 622.968 L 940 622.968" />
        <path d="M 950 103.163 L 940 103.163" />
        <path d="M 950 585.839 L 940 585.839" />
        <path d="M 950 140.291 L 940 140.291" />
        <path d="M 950 660.097 L 940 660.097" />
        <path d="M 950 499.205 L 940 499.205" />
        <path d="M 950 214.549 L 940 214.549" />
        <path d="M 950 598.216 L 940 598.216" />
        <path d="M 950 833.366 L 940 833.366" />
        <path d="M 950 338.313 L 940 338.313" />
        <path d="M 950 78.4099 L 940 78.4099" />
        <path d="M 950 734.355 L 940 734.355" />
        <path d="M 950 177.42 L 930 177.42" />
        <path d="M 950 202.173 L 940 202.173" />
        <path d="M 950 920 L 930 920" />
        <path d="M 950 561.087 L 940 561.087" />
        <path d="M 950 536.334 L 940 536.334" />
        <path d="M 950 437.323 L 940 437.323" />
        <path d="M 950 870.495 L 940 870.495" />
        <path d="M 950 647.721 L 940 647.721" />
        <path d="M 950 375.442 L 940 375.442" />
        <path d="M 950 796.237 L 930 796.237" />
        <path d="M 950 189.797 L 940 189.797" />
        <path d="M 950 808.613 L 940 808.613" />
        <path d="M 950 548.71 L 930 548.71" />
        <path d="M 950 424.947 L 930 424.947" />
        <path d="M 950 474.452 L 940 474.452" />
        <path d="M 950 66.0335 L 940 66.0335" />
        <path d="M 950 746.731 L 940 746.731" />
        <path d="M 950 858.118 L 940 858.118" />
        <path d="M 950 412.571 L 940 412.571" />
        <path d="M 950 684.85 L 940 684.85" />
        <path d="M 950 90.7862 L 940 90.7862" />
        <path d="M 950 53.6572 L 930 53.6572" />
        <path d="M 950 313.56 L 940 313.56" />
        <path d="M 950 511.581 L 940 511.581" />
        <path d="M 950 820.989 L 940 820.989" />
        <path d="M 950 573.463 L 940 573.463" />
        <path d="M 950 610.592 L 940 610.592" />
        <path d="M 950 165.044 L 940 165.044" />
        <path d="M 950 759.108 L 940 759.108" />
        <path d="M 950 449.7 L 940 449.7" />
        <path d="M 950 276.431 L 940 276.431" />
        <path d="M 950 288.807 L 940 288.807" />
        <path d="M 950 895.247 L 940 895.247" />
        <path d="M 950 882.871 L 940 882.871" />
        <path d="M 950 672.473 L 930 672.473" />
        <path d="M 950 387.818 L 940 387.818" />
        <path d="M 950 127.915 L 940 127.915" />
        <path d="M 950 635.345 L 940 635.345" />
        <path d="M 950 264.055 L 940 264.055" />
        <path d="M 950 486.829 L 940 486.829" />
        <path d="M 950 226.926 L 940 226.926" />
        <path d="M 950 771.484 L 940 771.484" />
        <path d="M 950 697.226 L 940 697.226" />
        <path d="M 950 325.936 L 940 325.936" />
        <path d="M 950 251.678 L 940 251.678" />
        <path d="M 950 907.624 L 940 907.624" />
        <path d="M 950 152.668 L 940 152.668" />
        <path d="M 950 400.194 L 940 400.194" />
        <path d="M 950 523.958 L 940 523.958" />
        <path d="M 950 845.742 L 940 845.742" />
        <path d="M 950 709.602 L 940 709.602" />
        <path d="M 950 239.302 L 940 239.302" />
        <path d="M 950 363.065 L 940 363.065" />
        <path d="M 950 301.184 L 930 301.184" />
        <path d="M 950 783.86 L 940 783.86" />
        <path d="M 950 115.539 L 940 115.539" />
        <path d="M 950 462.076 L 940 462.076" />
        <path d="M 950 350.689 L 940 350.689" />
    </g>
</g>
</g>
</svg>
