<?xml version="1.0" standalone="no"?>
<!DOCTYPE svg PUBLIC "-//W3C//DTD SVG 1.1//EN" "http://www.w3.org/Graphics/SVG/1.1/DTD/svg11.dtd">
<svg style="stroke-linejoin:miter; stroke:black; stroke-width:2.5; text-anchor:middle; fill:none" xmlns="http://www.w3.org/2000/svg" font-family="Helvetica, Arial, FreeSans, Sans, sans, sans-serif" width="1000px" height="1000px" version="1.1" xmlns:xlink="http://www.w3.org/1999/xlink" viewBox="0 0 1000 1000">
<defs>
    <clipPath id="Histogram_0_clip">
        <rect x="120" y="50" width="830" height="870" />
    </clipPath>
    <clipPath id="Histogram_1_clip">
        <rect x="120" y="50" width="830" height="870" />
    </clipPath>
</defs>
<g id="whole_document">
<rect id="background" x="0" y="0" width="1000" height="1000" stroke="none" fill="white" />
<g id="Histogram_0" clip-path="url(#Histogram_0_clip)">
    <path d="M 120 920 L 120 129.091 L 161.5 129.091 L 161.5 904.326 L 203 904.326 L 203 915.172 L 244.5 915.172 L 244.5 918.272 L 286 918.272 L 286 920 L 327.5 920 L 327.5 920 L 369 920 L 369 920 L 410.5 920 L 410.5 920 L 452 920 L 452 920 L 493.5 920 L 493.5 920 L 535 920 L 535 920 L 576.5 920 L 576.5 920 L 618 920 L 618 920 L 659.5 920 L 659.5 920 L 701 920 L 701 920 L 742.5 920 L 742.5 920 L 784 920 L 784 920 L 825.5 920 L 825.5 920 L 867 920 L 867 920 L 908.5 920 L 908.5 920 L 950 920 L 950 920" stroke-width="3" stroke-dasharray="" stroke="black" stroke-opacity="1" fill="DodgerBlue" fill-opacity="1" />
</g>
<g id="Histogram_1" clip-path="url(#Histogram_1_clip)">
    <path d="M 120 920 L 120 920 L 161.5 920 L 161.5 920 L 203 920 L 203 915.172 L 244.5 915.172 L 244.5 918.272 L 286 918.272 L 286 920 L 327.5 920 L 327.5 920 L 369 920 L 369 920 L 410.5 920 L 410.5 920 L 452 920 L 452 920 L 493.5 920 L 493.5 920 L 535 920 L 535 920 L 576.5 920 L 576.5 920 L 618 920 L 618 920 L 659.5 920 L 659.5 920 L 701 920 L 701 920 L 742.5 920 L 742.5 920 L 784 920 L 784 920 L 825.5 920 L 825.5 920 L 867 920 L 867 920 L 908.5 920 L 908.5 920 L 950 920 L 950 920" stroke-width="3" stroke-dasharray="" stroke="black" stroke-opacity="1" fill="darkorange" fill-opacity="1" />
</g>
<g id="frame_0">
    <rect id="frame_0_border" x="120" y="50" width="830" height="870" />
    <text id="frame_0_bottomlabel" font-size="30" transform="translate(535, 989.6)" text-anchor="middle" dominant-baseline="middle" stroke="none" fill="black">microseconds</text>
    <g id="frame_0_bottomticks">
        <path d="M 120 920 L 120 900" />
        <text font-size="30" transform="translate(120, 950)" text-anchor="middle" dominant-baseline="middle" stroke="none" fill="black">0</text>
        <path d="M 136.6 920 L 136.6 910" />
        <path d="M 153.2 920 L 153.2 910" />
        <path d="M 169.8 920 L 169.8 910" />
        <path d="M 186.4 920 L 186.4 910" />
        <path d="M 203 920 L 203 910" />
        <path d="M 219.6 920 L 219.6 910" />
        <path d="M 236.2 920 L 236.2 910" />
        <path d="M 252.8 920 L 252.8 910" />
        <path d="M 269.4 920 L 269.4 910" />
        <path d="M 286 920 L 286 900" />
        <text font-size="30" transform="translate(286, 950)" text-anchor="middle" dominant-baseline="middle" stroke="none" fill="black">10</text>
        <path d="M 302.6 920 L 302.6 910" />
        <path d="M 319.2 920 L 319.2 910" />
        <path d="M 335.8 920 L 335.8 910" />
        <path d="M 352.4 920 L 352.4 910" />
        <path d="M 369 920 L 369 910" />
        <path d="M 385.6 920 L 385.6 910" />
        <path d="M 402.2 920 L 402.2 910" />
        <path d="M 418.8 920 L 418.8 910" />
        <path d="M 435.4 920 L 435.4 910" />
        <path d="M 452 920 L 452 900" />
        <text font-size="30" transform="translate(452, 950)" text-anchor="middle" dominant-baseline="middle" stroke="none" fill="black">20</text>
        <path d="M 468.6 920 L 468.6 910" />
        <path d="M 485.2 920 L 485.2 910" />
        <path d="M 501.8 920 L 501.8 910" />
        <path d="M 518.4 920 L 518.4 910" />
        <path d="M 535 920 L 535 910" />
        <path d="M 551.6 920 L 551.6 910" />
        <path d="M 568.2 920 L 568.2 910" />
        <path d="M 584.8 920 L 584.8 910" />
        <path d="M 601.4 920 L 601.4 910" />
        <path d="M 618 920 L 618 900" />
        <text font-size="30" transform="translate(618, 950)" text-anchor="middle" dominant-baseline="middle" stroke="none" fill="black">30</text>
        <path d="M 634.6 920 L 634.6 910" />
        <path d="M 651.2 920 L 651.2 910" />
        <path d="M 667.8 920 L 667.8 910" />
        <path d="M 684.4 920 L 684.4 910" />
        <path d="M 701 920 L 701 910" />
        <path d="M 717.6 920 L 717.6 910" />
        <path d="M 734.2 920 L 734.2 910" />
        <path d="M 750.8 920 L 750.8 910" />
        <path d="M 767.4 920 L 767.4 910" />
        <path d="M 784 920 L 784 900" />
        <text font-size="30" transform="translate(784, 950)" text-anchor="middle" dominant-baseline="middle" stroke="none" fill="black">40</text>
        <path d="M 800.6 920 L 800.6 910" />
        <path d="M 817.2 920 L 817.2 910" />
        <path d="M 833.8 920 L 833.8 910" />
        <path d="M 850.4 920 L 850.4 910" />
        <path d="M 867 920 L 867 910" />
        <path d="M 883.6 920 L 883.6 910" />
        <path d="M 900.2 920 L 900.2 910" />
        <path d="M 916.8 920 L 916.8 910" />
        <path d="M 933.4 920 L 933.4 910" />
        <path d="M 950 920 L 950 900" />
        <text font-size="30" transform="translate(950, 950)" text-anchor="middle" dominant-baseline="middle" stroke="none" fill="black">50</text>
    </g>
    <g id="frame_0_leftticks">
        <path d="M 120 828.229 L 130 828.229" />
        <path d="M 120 782.344 L 130 782.344" />
        <path d="M 120 82.5906 L 130 82.5906" />
        <path d="M 120 621.745 L 130 621.745" />
        <path d="M 120 380.846 L 130 380.846" />
        <path d="M 120 920 L 140 920" />
        <text font-size="30" transform="translate(110, 930)" text-anchor="end" dominant-baseline="middle" stroke="none" fill="black">0</text>
        <path d="M 120 679.101 L 130 679.101" />
        <path d="M 120 438.203 L 130 438.203" />
        <path d="M 120 197.304 L 130 197.304" />
        <path d="M 120 736.458 L 130 736.458" />
        <path d="M 120 816.758 L 130 816.758" />
        <path d="M 120 254.661 L 130 254.661" />
        <path d="M 120 552.916 L 130 552.916" />
        <path d="M 120 312.018 L 130 312.018" />
        <path d="M 120 610.273 L 130 610.273" />
        <path d="M 120 908.529 L 130 908.529" />
        <path d="M 120 897.057 L 130 897.057" />
        <path d="M 120 793.815 L 130 793.815" />
        <path d="M 120 426.731 L 130 426.731" />
        <path d="M 120 185.833 L 130 185.833" />
        <path d="M 120 484.088 L 130 484.088" />
        <path d="M 120 300.546 L 130 300.546" />
        <path d="M 120 243.19 L 130 243.19" />
        <path d="M 120 117.005 L 140 117.005" />
        <text font-size="30" transform="translate(110, 127.005)" text-anchor="end" dominant-baseline="middle" stroke="none" fill="black">700000</text>
        <path d="M 120 541.445 L 130 541.445" />
        <path d="M 120 885.586 L 130 885.586" />
        <path d="M 120 862.643 L 130 862.643" />
        <path d="M 120 59.6479 L 130 59.6479" />
        <path d="M 120 598.802 L 130 598.802" />
        <path d="M 120 357.903 L 130 357.903" />
        <path d="M 120 162.89 L 130 162.89" />
        <path d="M 120 656.159 L 130 656.159" />
        <path d="M 120 839.7 L 130 839.7" />
        <path d="M 120 415.26 L 130 415.26" />
        <path d="M 120 174.361 L 130 174.361" />
        <path d="M 120 713.515 L 130 713.515" />
        <path d="M 120 874.115 L 130 874.115" />
        <path d="M 120 667.63 L 130 667.63" />
        <path d="M 120 472.617 L 130 472.617" />
        <path d="M 120 231.718 L 140 231.718" />
        <text font-size="30" transform="translate(110, 241.718)" text-anchor="end" dominant-baseline="middle" stroke="none" fill="black">600000</text>
        <path d="M 120 529.974 L 130 529.974" />
        <path d="M 120 289.075 L 130 289.075" />
        <path d="M 120 587.331 L 130 587.331" />
        <path d="M 120 346.432 L 140 346.432" />
        <text font-size="30" transform="translate(110, 356.432)" text-anchor="end" dominant-baseline="middle" stroke="none" fill="black">500000</text>
        <path d="M 120 770.872 L 130 770.872" />
        <path d="M 120 105.533 L 130 105.533" />
        <path d="M 120 644.687 L 130 644.687" />
        <path d="M 120 403.789 L 130 403.789" />
        <path d="M 120 702.044 L 130 702.044" />
        <path d="M 120 71.1192 L 130 71.1192" />
        <path d="M 120 139.947 L 130 139.947" />
        <path d="M 120 220.247 L 130 220.247" />
        <path d="M 120 759.401 L 130 759.401" />
        <path d="M 120 518.502 L 130 518.502" />
        <path d="M 120 851.172 L 130 851.172" />
        <path d="M 120 724.987 L 130 724.987" />
        <path d="M 120 277.604 L 130 277.604" />
        <path d="M 120 461.146 L 140 461.146" />
        <text font-size="30" transform="translate(110, 471.146)" text-anchor="end" dominant-baseline="middle" stroke="none" fill="black">400000</text>
        <path d="M 120 575.859 L 140 575.859" />
        <text font-size="30" transform="translate(110, 585.859)" text-anchor="end" dominant-baseline="middle" stroke="none" fill="black">300000</text>
        <path d="M 120 128.476 L 130 128.476" />
        <path d="M 120 495.56 L 130 495.56" />
        <path d="M 120 633.216 L 130 633.216" />
        <path d="M 120 369.375 L 130 369.375" />
        <path d="M 120 392.317 L 130 392.317" />
        <path d="M 120 151.419 L 130 151.419" />
        <path d="M 120 747.93 L 130 747.93" />
        <path d="M 120 94.062 L 130 94.062" />
        <path d="M 120 449.674 L 130 449.674" />
        <path d="M 120 690.573 L 140 690.573" />
        <text font-size="30" transform="translate(110, 700.573)" text-anchor="end" dominant-baseline="middle" stroke="none" fill="black">200000</text>
        <path d="M 120 208.776 L 130 208.776" />
        <path d="M 120 334.961 L 130 334.961" />
        <path d="M 120 507.031 L 130 507.031" />
        <path d="M 120 266.132 L 130 266.132" />
        <path d="M 120 805.286 L 140 805.286" />
        <text font-size="30" transform="translate(110, 815.286)" text-anchor="end" dominant-baseline="middle" stroke="none" fill="black">100000</text>
        <path d="M 120 323.489 L 130 323.489" />
        <path d="M 120 564.388 L 130 564.388" />
    </g>
    <text id="frame_0_toplabel" font-size="30" transform="translate(535, 32.6)" text-anchor="middle" dominant-baseline="middle" stroke="none" fill="black">**</text>
    <g id="frame_0_topticks">
        <path d="M 120 50 L 120 70" />
        <path d="M 136.6 50 L 136.6 60" />
        <path d="M 153.2 50 L 153.2 60" />
        <path d="M 169.8 50 L 169.8 60" />
        <path d="M 186.4 50 L 186.4 60" />
        <path d="M 203 50 L 203 60" />
        <path d="M 219.6 50 L 219.6 60" />
        <path d="M 236.2 50 L 236.2 60" />
        <path d="M 252.8 50 L 252.8 60" />
        <path d="M 269.4 50 L 269.4 60" />
        <path d="M 286 50 L 286 70" />
        <path d="M 302.6 50 L 302.6 60" />
        <path d="M 319.2 50 L 319.2 60" />
        <path d="M 335.8 50 L 335.8 60" />
        <path d="M 352.4 50 L 352.4 60" />
        <path d="M 369 50 L 369 60" />
        <path d="M 385.6 50 L 385.6 60" />
        <path d="M 402.2 50 L 402.2 60" />
        <path d="M 418.8 50 L 418.8 60" />
        <path d="M 435.4 50 L 435.4 60" />
        <path d="M 452 50 L 452 70" />
        <path d="M 468.6 50 L 468.6 60" />
        <path d="M 485.2 50 L 485.2 60" />
        <path d="M 501.8 50 L 501.8 60" />
        <path d="M 518.4 50 L 518.4 60" />
        <path d="M 535 50 L 535 60" />
        <path d="M 551.6 50 L 551.6 60" />
        <path d="M 568.2 50 L 568.2 60" />
        <path d="M 584.8 50 L 584.8 60" />
        <path d="M 601.4 50 L 601.4 60" />
        <path d="M 618 50 L 618 70" />
        <path d="M 634.6 50 L 634.6 60" />
        <path d="M 651.2 50 L 651.2 60" />
        <path d="M 667.8 50 L 667.8 60" />
        <path d="M 684.4 50 L 684.4 60" />
        <path d="M 701 50 L 701 60" />
        <path d="M 717.6 50 L 717.6 60" />
        <path d="M 734.2 50 L 734.2 60" />
        <path d="M 750.8 50 L 750.8 60" />
        <path d="M 767.4 50 L 767.4 60" />
        <path d="M 784 50 L 784 70" />
        <path d="M 800.6 50 L 800.6 60" />
        <path d="M 817.2 50 L 817.2 60" />
        <path d="M 833.8 50 L 833.8 60" />
        <path d="M 850.4 50 L 850.4 60" />
        <path d="M 867 50 L 867 60" />
        <path d="M 883.6 50 L 883.6 60" />
        <path d="M 900.2 50 L 900.2 60" />
        <path d="M 916.8 50 L 916.8 60" />
        <path d="M 933.4 50 L 933.4 60" />
        <path d="M 950 50 L 950 70" />
    </g>
    <g id="frame_0_rightticks">
        <path d="M 950 828.229 L 940 828.229" />
        <path d="M 950 782.344 L 940 782.344" />
        <path d="M 950 82.5906 L 940 82.5906" />
        <path d="M 950 621.745 L 940 621.745" />
        <path d="M 950 380.846 L 940 380.846" />
        <path d="M 950 920 L 930 920" />
        <path d="M 950 679.101 L 940 679.101" />
        <path d="M 950 438.203 L 940 438.203" />
        <path d="M 950 197.304 L 940 197.304" />
        <path d="M 950 736.458 L 940 736.458" />
        <path d="M 950 816.758 L 940 816.758" />
        <path d="M 950 254.661 L 940 254.661" />
        <path d="M 950 552.916 L 940 552.916" />
        <path d="M 950 312.018 L 940 312.018" />
        <path d="M 950 610.273 L 940 610.273" />
        <path d="M 950 908.529 L 940 908.529" />
        <path d="M 950 897.057 L 940 897.057" />
        <path d="M 950 793.815 L 940 793.815" />
        <path d="M 950 426.731 L 940 426.731" />
        <path d="M 950 185.833 L 940 185.833" />
        <path d="M 950 484.088 L 940 484.088" />
        <path d="M 950 300.546 L 940 300.546" />
        <path d="M 950 243.19 L 940 243.19" />
        <path d="M 950 117.005 L 930 117.005" />
        <path d="M 950 541.445 L 940 541.445" />
        <path d="M 950 885.586 L 940 885.586" />
        <path d="M 950 862.643 L 940 862.643" />
        <path d="M 950 59.6479 L 940 59.6479" />
        <path d="M 950 598.802 L 940 598.802" />
        <path d="M 950 357.903 L 940 357.903" />
        <path d="M 950 162.89 L 940 162.89" />
        <path d="M 950 656.159 L 940 656.159" />
        <path d="M 950 839.7 L 940 839.7" />
        <path d="M 950 415.26 L 940 415.26" />
        <path d="M 950 174.361 L 940 174.361" />
        <path d="M 950 713.515 L 940 713.515" />
        <path d="M 950 874.115 L 940 874.115" />
        <path d="M 950 667.63 L 940 667.63" />
        <path d="M 950 472.617 L 940 472.617" />
        <path d="M 950 231.718 L 930 231.718" />
        <path d="M 950 529.974 L 940 529.974" />
        <path d="M 950 289.075 L 940 289.075" />
        <path d="M 950 587.331 L 940 587.331" />
        <path d="M 950 346.432 L 930 346.432" />
        <path d="M 950 770.872 L 940 770.872" />
        <path d="M 950 105.533 L 940 105.533" />
        <path d="M 950 644.687 L 940 644.687" />
        <path d="M 950 403.789 L 940 403.789" />
        <path d="M 950 702.044 L 940 702.044" />
        <path d="M 950 71.1192 L 940 71.1192" />
        <path d="M 950 139.947 L 940 139.947" />
        <path d="M 950 220.247 L 940 220.247" />
        <path d="M 950 759.401 L 940 759.401" />
        <path d="M 950 518.502 L 940 518.502" />
        <path d="M 950 851.172 L 940 851.172" />
        <path d="M 950 724.987 L 940 724.987" />
        <path d="M 950 277.604 L 940 277.604" />
        <path d="M 950 461.146 L 930 461.146" />
        <path d="M 950 575.859 L 930 575.859" />
        <path d="M 950 128.476 L 940 128.476" />
        <path d="M 950 495.56 L 940 495.56" />
        <path d="M 950 633.216 L 940 633.216" />
        <path d="M 950 369.375 L 940 369.375" />
        <path d="M 950 392.317 L 940 392.317" />
        <path d="M 950 151.419 L 940 151.419" />
        <path d="M 950 747.93 L 940 747.93" />
        <path d="M 950 94.062 L 940 94.062" />
        <path d="M 950 449.674 L 940 449.674" />
        <path d="M 950 690.573 L 930 690.573" />
        <path d="M 950 208.776 L 940 208.776" />
        <path d="M 950 334.961 L 940 334.961" />
        <path d="M 950 507.031 L 940 507.031" />
        <path d="M 950 266.132 L 940 266.132" />
        <path d="M 950 805.286 L 930 805.286" />
        <path d="M 950 323.489 L 940 323.489" />
        <path d="M 950 564.388 L 940 564.388" />
    </g>
</g>
</g>
</svg>
