<?xml version="1.0" standalone="no"?>
<!DOCTYPE svg PUBLIC "-//W3C//DTD SVG 1.1//EN" "http://www.w3.org/Graphics/SVG/1.1/DTD/svg11.dtd">
<svg style="stroke-linejoin:miter; stroke:black; stroke-width:2.5; text-anchor:middle; fill:none" xmlns="http://www.w3.org/2000/svg" font-family="Helvetica, Arial, FreeSans, Sans, sans, sans-serif" width="1000px" height="1000px" version="1.1" xmlns:xlink="http://www.w3.org/1999/xlink" viewBox="0 0 1000 1000">
<defs>
    <clipPath id="Histogram_0_clip">
        <rect x="120" y="50" width="830" height="870" />
    </clipPath>
</defs>
<g id="whole_document">
<rect id="background" x="0" y="0" width="1000" height="1000" stroke="none" fill="white" />
<g id="Histogram_0" clip-path="url(#Histogram_0_clip)">
    <path d="M 120 920 L 120 129.091 L 161.5 129.091 L 161.5 914.879 L 203 914.879 L 203 920 L 244.5 920 L 244.5 920 L 286 920 L 286 920 L 327.5 920 L 327.5 920 L 369 920 L 369 920 L 410.5 920 L 410.5 920 L 452 920 L 452 920 L 493.5 920 L 493.5 920 L 535 920 L 535 920 L 576.5 920 L 576.5 920 L 618 920 L 618 920 L 659.5 920 L 659.5 920 L 701 920 L 701 920 L 742.5 920 L 742.5 920 L 784 920 L 784 920 L 825.5 920 L 825.5 920 L 867 920 L 867 920 L 908.5 920 L 908.5 920 L 950 920 L 950 920" stroke-width="3" stroke-dasharray="" stroke="black" stroke-opacity="1" fill="DodgerBlue" fill-opacity="1" />
</g>
<g id="frame_0">
    <rect id="frame_0_border" x="120" y="50" width="830" height="870" />
    <text id="frame_0_bottomlabel" font-size="30" transform="translate(535, 989.6)" text-anchor="middle" dominant-baseline="middle" stroke="none" fill="black">microseconds</text>
    <g id="frame_0_bottomticks">
        <path d="M 120 920 L 120 900" />
        <text font-size="30" transform="translate(120, 950)" text-anchor="middle" dominant-baseline="middle" stroke="none" fill="black">0</text>
        <path d="M 136.6 920 L 136.6 910" />
        <path d="M 153.2 920 L 153.2 910" />
        <path d="M 169.8 920 L 169.8 910" />
        <path d="M 186.4 920 L 186.4 910" />
        <path d="M 203 920 L 203 910" />
        <path d="M 219.6 920 L 219.6 910" />
        <path d="M 236.2 920 L 236.2 910" />
        <path d="M 252.8 920 L 252.8 910" />
        <path d="M 269.4 920 L 269.4 910" />
        <path d="M 286 920 L 286 900" />
        <text font-size="30" transform="translate(286, 950)" text-anchor="middle" dominant-baseline="middle" stroke="none" fill="black">10</text>
        <path d="M 302.6 920 L 302.6 910" />
        <path d="M 319.2 920 L 319.2 910" />
        <path d="M 335.8 920 L 335.8 910" />
        <path d="M 352.4 920 L 352.4 910" />
        <path d="M 369 920 L 369 910" />
        <path d="M 385.6 920 L 385.6 910" />
        <path d="M 402.2 920 L 402.2 910" />
        <path d="M 418.8 920 L 418.8 910" />
        <path d="M 435.4 920 L 435.4 910" />
        <path d="M 452 920 L 452 900" />
        <text font-size="30" transform="translate(452, 950)" text-anchor="middle" dominant-baseline="middle" stroke="none" fill="black">20</text>
        <path d="M 468.6 920 L 468.6 910" />
        <path d="M 485.2 920 L 485.2 910" />
        <path d="M 501.8 920 L 501.8 910" />
        <path d="M 518.4 920 L 518.4 910" />
        <path d="M 535 920 L 535 910" />
        <path d="M 551.6 920 L 551.6 910" />
        <path d="M 568.2 920 L 568.2 910" />
        <path d="M 584.8 920 L 584.8 910" />
        <path d="M 601.4 920 L 601.4 910" />
        <path d="M 618 920 L 618 900" />
        <text font-size="30" transform="translate(618, 950)" text-anchor="middle" dominant-baseline="middle" stroke="none" fill="black">30</text>
        <path d="M 634.6 920 L 634.6 910" />
        <path d="M 651.2 920 L 651.2 910" />
        <path d="M 667.8 920 L 667.8 910" />
        <path d="M 684.4 920 L 684.4 910" />
        <path d="M 701 920 L 701 910" />
        <path d="M 717.6 920 L 717.6 910" />
        <path d="M 734.2 920 L 734.2 910" />
        <path d="M 750.8 920 L 750.8 910" />
        <path d="M 767.4 920 L 767.4 910" />
        <path d="M 784 920 L 784 900" />
        <text font-size="30" transform="translate(784, 950)" text-anchor="middle" dominant-baseline="middle" stroke="none" fill="black">40</text>
        <path d="M 800.6 920 L 800.6 910" />
        <path d="M 817.2 920 L 817.2 910" />
        <path d="M 833.8 920 L 833.8 910" />
        <path d="M 850.4 920 L 850.4 910" />
        <path d="M 867 920 L 867 910" />
        <path d="M 883.6 920 L 883.6 910" />
        <path d="M 900.2 920 L 900.2 910" />
        <path d="M 916.8 920 L 916.8 910" />
        <path d="M 933.4 920 L 933.4 910" />
        <path d="M 950 920 L 950 900" />
        <text font-size="30" transform="translate(950, 950)" text-anchor="middle" dominant-baseline="middle" stroke="none" fill="black">50</text>
    </g>
    <g id="frame_0_leftticks">
        <path d="M 120 769.87 L 130 769.87" />
        <path d="M 120 694.806 L 130 694.806" />
        <path d="M 120 432.079 L 130 432.079" />
        <path d="M 120 920 L 140 920" />
        <text font-size="30" transform="translate(110, 930)" text-anchor="end" dominant-baseline="middle" stroke="none" fill="black">0</text>
        <path d="M 120 525.91 L 130 525.91" />
        <path d="M 120 131.82 L 130 131.82" />
        <path d="M 120 619.741 L 130 619.741" />
        <path d="M 120 751.104 L 130 751.104" />
        <path d="M 120 319.482 L 130 319.482" />
        <path d="M 120 413.313 L 130 413.313" />
        <path d="M 120 901.234 L 130 901.234" />
        <path d="M 120 882.468 L 130 882.468" />
        <path d="M 120 713.572 L 130 713.572" />
        <path d="M 120 113.053 L 130 113.053" />
        <path d="M 120 206.884 L 130 206.884" />
        <path d="M 120 300.715 L 130 300.715" />
        <path d="M 120 863.701 L 130 863.701" />
        <path d="M 120 826.169 L 130 826.169" />
        <path d="M 120 394.546 L 130 394.546" />
        <path d="M 120 488.377 L 130 488.377" />
        <path d="M 120 788.637 L 130 788.637" />
        <path d="M 120 94.2871 L 130 94.2871" />
        <path d="M 120 582.208 L 130 582.208" />
        <path d="M 120 844.935 L 130 844.935" />
        <path d="M 120 507.144 L 130 507.144" />
        <path d="M 120 188.118 L 130 188.118" />
        <path d="M 120 281.949 L 130 281.949" />
        <path d="M 120 375.78 L 130 375.78" />
        <path d="M 120 676.039 L 130 676.039" />
        <path d="M 120 469.611 L 130 469.611" />
        <path d="M 120 75.5209 L 130 75.5209" />
        <path d="M 120 563.442 L 130 563.442" />
        <path d="M 120 169.352 L 140 169.352" />
        <text font-size="30" transform="translate(110, 179.352)" text-anchor="end" dominant-baseline="middle" stroke="none" fill="black">400000</text>
        <path d="M 120 657.273 L 130 657.273" />
        <path d="M 120 263.183 L 130 263.183" />
        <path d="M 120 807.403 L 130 807.403" />
        <path d="M 120 600.975 L 130 600.975" />
        <path d="M 120 357.014 L 140 357.014" />
        <text font-size="30" transform="translate(110, 367.014)" text-anchor="end" dominant-baseline="middle" stroke="none" fill="black">300000</text>
        <path d="M 120 225.651 L 130 225.651" />
        <path d="M 120 450.845 L 130 450.845" />
        <path d="M 120 56.7547 L 130 56.7547" />
        <path d="M 120 638.507 L 130 638.507" />
        <path d="M 120 150.586 L 130 150.586" />
        <path d="M 120 544.676 L 140 544.676" />
        <text font-size="30" transform="translate(110, 554.676)" text-anchor="end" dominant-baseline="middle" stroke="none" fill="black">200000</text>
        <path d="M 120 244.417 L 130 244.417" />
        <path d="M 120 732.338 L 140 732.338" />
        <text font-size="30" transform="translate(110, 742.338)" text-anchor="end" dominant-baseline="middle" stroke="none" fill="black">100000</text>
        <path d="M 120 338.248 L 130 338.248" />
    </g>
    <text id="frame_0_toplabel" font-size="30" transform="translate(535, 32.6)" text-anchor="middle" dominant-baseline="middle" stroke="none" fill="black">model.tree.simpleWalk</text>
    <g id="frame_0_topticks">
        <path d="M 120 50 L 120 70" />
        <path d="M 136.6 50 L 136.6 60" />
        <path d="M 153.2 50 L 153.2 60" />
        <path d="M 169.8 50 L 169.8 60" />
        <path d="M 186.4 50 L 186.4 60" />
        <path d="M 203 50 L 203 60" />
        <path d="M 219.6 50 L 219.6 60" />
        <path d="M 236.2 50 L 236.2 60" />
        <path d="M 252.8 50 L 252.8 60" />
        <path d="M 269.4 50 L 269.4 60" />
        <path d="M 286 50 L 286 70" />
        <path d="M 302.6 50 L 302.6 60" />
        <path d="M 319.2 50 L 319.2 60" />
        <path d="M 335.8 50 L 335.8 60" />
        <path d="M 352.4 50 L 352.4 60" />
        <path d="M 369 50 L 369 60" />
        <path d="M 385.6 50 L 385.6 60" />
        <path d="M 402.2 50 L 402.2 60" />
        <path d="M 418.8 50 L 418.8 60" />
        <path d="M 435.4 50 L 435.4 60" />
        <path d="M 452 50 L 452 70" />
        <path d="M 468.6 50 L 468.6 60" />
        <path d="M 485.2 50 L 485.2 60" />
        <path d="M 501.8 50 L 501.8 60" />
        <path d="M 518.4 50 L 518.4 60" />
        <path d="M 535 50 L 535 60" />
        <path d="M 551.6 50 L 551.6 60" />
        <path d="M 568.2 50 L 568.2 60" />
        <path d="M 584.8 50 L 584.8 60" />
        <path d="M 601.4 50 L 601.4 60" />
        <path d="M 618 50 L 618 70" />
        <path d="M 634.6 50 L 634.6 60" />
        <path d="M 651.2 50 L 651.2 60" />
        <path d="M 667.8 50 L 667.8 60" />
        <path d="M 684.4 50 L 684.4 60" />
        <path d="M 701 50 L 701 60" />
        <path d="M 717.6 50 L 717.6 60" />
        <path d="M 734.2 50 L 734.2 60" />
        <path d="M 750.8 50 L 750.8 60" />
        <path d="M 767.4 50 L 767.4 60" />
        <path d="M 784 50 L 784 70" />
        <path d="M 800.6 50 L 800.6 60" />
        <path d="M 817.2 50 L 817.2 60" />
        <path d="M 833.8 50 L 833.8 60" />
        <path d="M 850.4 50 L 850.4 60" />
        <path d="M 867 50 L 867 60" />
        <path d="M 883.6 50 L 883.6 60" />
        <path d="M 900.2 50 L 900.2 60" />
        <path d="M 916.8 50 L 916.8 60" />
        <path d="M 933.4 50 L 933.4 60" />
        <path d="M 950 50 L 950 70" />
    </g>
    <g id="frame_0_rightticks">
        <path d="M 950 769.87 L 940 769.87" />
        <path d="M 950 694.806 L 940 694.806" />
        <path d="M 950 432.079 L 940 432.079" />
        <path d="M 950 920 L 930 920" />
        <path d="M 950 525.91 L 940 525.91" />
        <path d="M 950 131.82 L 940 131.82" />
        <path d="M 950 619.741 L 940 619.741" />
        <path d="M 950 751.104 L 940 751.104" />
        <path d="M 950 319.482 L 940 319.482" />
        <path d="M 950 413.313 L 940 413.313" />
        <path d="M 950 901.234 L 940 901.234" />
        <path d="M 950 882.468 L 940 882.468" />
        <path d="M 950 713.572 L 940 713.572" />
        <path d="M 950 113.053 L 940 113.053" />
        <path d="M 950 206.884 L 940 206.884" />
        <path d="M 950 300.715 L 940 300.715" />
        <path d="M 950 863.701 L 940 863.701" />
        <path d="M 950 826.169 L 940 826.169" />
        <path d="M 950 394.546 L 940 394.546" />
        <path d="M 950 488.377 L 940 488.377" />
        <path d="M 950 788.637 L 940 788.637" />
        <path d="M 950 94.2871 L 940 94.2871" />
        <path d="M 950 582.208 L 940 582.208" />
        <path d="M 950 844.935 L 940 844.935" />
        <path d="M 950 507.144 L 940 507.144" />
        <path d="M 950 188.118 L 940 188.118" />
        <path d="M 950 281.949 L 940 281.949" />
        <path d="M 950 375.78 L 940 375.78" />
        <path d="M 950 676.039 L 940 676.039" />
        <path d="M 950 469.611 L 940 469.611" />
        <path d="M 950 75.5209 L 940 75.5209" />
        <path d="M 950 563.442 L 940 563.442" />
        <path d="M 950 169.352 L 930 169.352" />
        <path d="M 950 657.273 L 940 657.273" />
        <path d="M 950 263.183 L 940 263.183" />
        <path d="M 950 807.403 L 940 807.403" />
        <path d="M 950 600.975 L 940 600.975" />
        <path d="M 950 357.014 L 930 357.014" />
        <path d="M 950 225.651 L 940 225.651" />
        <path d="M 950 450.845 L 940 450.845" />
        <path d="M 950 56.7547 L 940 56.7547" />
        <path d="M 950 638.507 L 940 638.507" />
        <path d="M 950 150.586 L 940 150.586" />
        <path d="M 950 544.676 L 930 544.676" />
        <path d="M 950 244.417 L 940 244.417" />
        <path d="M 950 732.338 L 930 732.338" />
        <path d="M 950 338.248 L 940 338.248" />
    </g>
</g>
</g>
</svg>
