<?xml version="1.0" standalone="no"?>
<!DOCTYPE svg PUBLIC "-//W3C//DTD SVG 1.1//EN" "http://www.w3.org/Graphics/SVG/1.1/DTD/svg11.dtd">
<svg style="stroke-linejoin:miter; stroke:black; stroke-width:2.5; text-anchor:middle; fill:none" xmlns="http://www.w3.org/2000/svg" font-family="Helvetica, Arial, FreeSans, Sans, sans, sans-serif" width="1000px" height="1000px" version="1.1" xmlns:xlink="http://www.w3.org/1999/xlink" viewBox="0 0 1000 1000">
<defs>
    <clipPath id="Histogram_0_clip">
        <rect x="120" y="50" width="830" height="870" />
    </clipPath>
    <clipPath id="Histogram_1_clip">
        <rect x="120" y="50" width="830" height="870" />
    </clipPath>
</defs>
<g id="whole_document">
<rect id="background" x="0" y="0" width="1000" height="1000" stroke="none" fill="white" />
<g id="Histogram_0" clip-path="url(#Histogram_0_clip)">
    <path d="M 120 920 L 120 129.091 L 161.5 129.091 L 161.5 920 L 203 920 L 203 920 L 244.5 920 L 244.5 716.492 L 286 716.492 L 286 920 L 327.5 920 L 327.5 919.832 L 369 919.832 L 369 919.629 L 410.5 919.629 L 410.5 920 L 452 920 L 452 920 L 493.5 920 L 493.5 920 L 535 920 L 535 920 L 576.5 920 L 576.5 920 L 618 920 L 618 920 L 659.5 920 L 659.5 920 L 701 920 L 701 920 L 742.5 920 L 742.5 920 L 784 920 L 784 920 L 825.5 920 L 825.5 920 L 867 920 L 867 920 L 908.5 920 L 908.5 920 L 950 920 L 950 920" stroke-width="3" stroke-dasharray="" stroke="black" stroke-opacity="1" fill="DodgerBlue" fill-opacity="1" />
</g>
<g id="Histogram_1" clip-path="url(#Histogram_1_clip)">
    <path d="M 120 920 L 120 920 L 161.5 920 L 161.5 920 L 203 920 L 203 920 L 244.5 920 L 244.5 716.492 L 286 716.492 L 286 920 L 327.5 920 L 327.5 919.832 L 369 919.832 L 369 919.629 L 410.5 919.629 L 410.5 920 L 452 920 L 452 920 L 493.5 920 L 493.5 920 L 535 920 L 535 920 L 576.5 920 L 576.5 920 L 618 920 L 618 920 L 659.5 920 L 659.5 920 L 701 920 L 701 920 L 742.5 920 L 742.5 920 L 784 920 L 784 920 L 825.5 920 L 825.5 920 L 867 920 L 867 920 L 908.5 920 L 908.5 920 L 950 920 L 950 920" stroke-width="3" stroke-dasharray="" stroke="black" stroke-opacity="1" fill="darkorange" fill-opacity="1" />
</g>
<g id="frame_0">
    <rect id="frame_0_border" x="120" y="50" width="830" height="870" />
    <text id="frame_0_bottomlabel" font-size="30" transform="translate(535, 989.6)" text-anchor="middle" dominant-baseline="middle" stroke="none" fill="black">microseconds</text>
    <g id="frame_0_bottomticks">
        <path d="M 120 920 L 120 900" />
        <text font-size="30" transform="translate(120, 950)" text-anchor="middle" dominant-baseline="middle" stroke="none" fill="black">0</text>
        <path d="M 136.6 920 L 136.6 910" />
        <path d="M 153.2 920 L 153.2 910" />
        <path d="M 169.8 920 L 169.8 910" />
        <path d="M 186.4 920 L 186.4 910" />
        <path d="M 203 920 L 203 910" />
        <path d="M 219.6 920 L 219.6 910" />
        <path d="M 236.2 920 L 236.2 910" />
        <path d="M 252.8 920 L 252.8 910" />
        <path d="M 269.4 920 L 269.4 910" />
        <path d="M 286 920 L 286 900" />
        <text font-size="30" transform="translate(286, 950)" text-anchor="middle" dominant-baseline="middle" stroke="none" fill="black">10</text>
        <path d="M 302.6 920 L 302.6 910" />
        <path d="M 319.2 920 L 319.2 910" />
        <path d="M 335.8 920 L 335.8 910" />
        <path d="M 352.4 920 L 352.4 910" />
        <path d="M 369 920 L 369 910" />
        <path d="M 385.6 920 L 385.6 910" />
        <path d="M 402.2 920 L 402.2 910" />
        <path d="M 418.8 920 L 418.8 910" />
        <path d="M 435.4 920 L 435.4 910" />
        <path d="M 452 920 L 452 900" />
        <text font-size="30" transform="translate(452, 950)" text-anchor="middle" dominant-baseline="middle" stroke="none" fill="black">20</text>
        <path d="M 468.6 920 L 468.6 910" />
        <path d="M 485.2 920 L 485.2 910" />
        <path d="M 501.8 920 L 501.8 910" />
        <path d="M 518.4 920 L 518.4 910" />
        <path d="M 535 920 L 535 910" />
        <path d="M 551.6 920 L 551.6 910" />
        <path d="M 568.2 920 L 568.2 910" />
        <path d="M 584.8 920 L 584.8 910" />
        <path d="M 601.4 920 L 601.4 910" />
        <path d="M 618 920 L 618 900" />
        <text font-size="30" transform="translate(618, 950)" text-anchor="middle" dominant-baseline="middle" stroke="none" fill="black">30</text>
        <path d="M 634.6 920 L 634.6 910" />
        <path d="M 651.2 920 L 651.2 910" />
        <path d="M 667.8 920 L 667.8 910" />
        <path d="M 684.4 920 L 684.4 910" />
        <path d="M 701 920 L 701 910" />
        <path d="M 717.6 920 L 717.6 910" />
        <path d="M 734.2 920 L 734.2 910" />
        <path d="M 750.8 920 L 750.8 910" />
        <path d="M 767.4 920 L 767.4 910" />
        <path d="M 784 920 L 784 900" />
        <text font-size="30" transform="translate(784, 950)" text-anchor="middle" dominant-baseline="middle" stroke="none" fill="black">40</text>
        <path d="M 800.6 920 L 800.6 910" />
        <path d="M 817.2 920 L 817.2 910" />
        <path d="M 833.8 920 L 833.8 910" />
        <path d="M 850.4 920 L 850.4 910" />
        <path d="M 867 920 L 867 910" />
        <path d="M 883.6 920 L 883.6 910" />
        <path d="M 900.2 920 L 900.2 910" />
        <path d="M 916.8 920 L 916.8 910" />
        <path d="M 933.4 920 L 933.4 910" />
        <path d="M 950 920 L 950 900" />
        <text font-size="30" transform="translate(950, 950)" text-anchor="middle" dominant-baseline="middle" stroke="none" fill="black">50</text>
    </g>
    <g id="frame_0_leftticks">
        <path d="M 120 830.152 L 130 830.152" />
        <path d="M 120 785.227 L 130 785.227" />
        <path d="M 120 100.134 L 130 100.134" />
        <path d="M 120 627.993 L 130 627.993" />
        <path d="M 120 392.141 L 130 392.141" />
        <path d="M 120 920 L 140 920" />
        <text font-size="30" transform="translate(110, 930)" text-anchor="end" dominant-baseline="middle" stroke="none" fill="black">0</text>
        <path d="M 120 684.148 L 130 684.148" />
        <path d="M 120 448.296 L 130 448.296" />
        <path d="M 120 470.758 L 140 470.758" />
        <text font-size="30" transform="translate(110, 480.758)" text-anchor="end" dominant-baseline="middle" stroke="none" fill="black">400000</text>
        <path d="M 120 212.444 L 130 212.444" />
        <path d="M 120 740.303 L 130 740.303" />
        <path d="M 120 818.921 L 130 818.921" />
        <path d="M 120 268.6 L 130 268.6" />
        <path d="M 120 560.607 L 130 560.607" />
        <path d="M 120 324.755 L 130 324.755" />
        <path d="M 120 616.762 L 130 616.762" />
        <path d="M 120 908.769 L 130 908.769" />
        <path d="M 120 897.538 L 130 897.538" />
        <path d="M 120 796.459 L 130 796.459" />
        <path d="M 120 437.065 L 130 437.065" />
        <path d="M 120 201.213 L 130 201.213" />
        <path d="M 120 493.22 L 130 493.22" />
        <path d="M 120 313.524 L 130 313.524" />
        <path d="M 120 257.369 L 130 257.369" />
        <path d="M 120 133.827 L 140 133.827" />
        <text font-size="30" transform="translate(110, 143.827)" text-anchor="end" dominant-baseline="middle" stroke="none" fill="black">700000</text>
        <path d="M 120 549.376 L 130 549.376" />
        <path d="M 120 886.307 L 130 886.307" />
        <path d="M 120 863.845 L 130 863.845" />
        <path d="M 120 77.6718 L 130 77.6718" />
        <path d="M 120 605.531 L 130 605.531" />
        <path d="M 120 369.679 L 130 369.679" />
        <path d="M 120 178.751 L 130 178.751" />
        <path d="M 120 661.686 L 130 661.686" />
        <path d="M 120 841.383 L 130 841.383" />
        <path d="M 120 425.834 L 130 425.834" />
        <path d="M 120 189.982 L 130 189.982" />
        <path d="M 120 717.841 L 130 717.841" />
        <path d="M 120 875.076 L 130 875.076" />
        <path d="M 120 672.917 L 130 672.917" />
        <path d="M 120 481.989 L 130 481.989" />
        <path d="M 120 246.137 L 140 246.137" />
        <text font-size="30" transform="translate(110, 256.137)" text-anchor="end" dominant-baseline="middle" stroke="none" fill="black">600000</text>
        <path d="M 120 538.145 L 130 538.145" />
        <path d="M 120 302.293 L 130 302.293" />
        <path d="M 120 594.3 L 130 594.3" />
        <path d="M 120 358.448 L 140 358.448" />
        <text font-size="30" transform="translate(110, 368.448)" text-anchor="end" dominant-baseline="middle" stroke="none" fill="black">500000</text>
        <path d="M 120 773.996 L 130 773.996" />
        <path d="M 120 122.596 L 130 122.596" />
        <path d="M 120 650.455 L 130 650.455" />
        <path d="M 120 414.603 L 130 414.603" />
        <path d="M 120 706.61 L 130 706.61" />
        <path d="M 120 88.9029 L 130 88.9029" />
        <path d="M 120 156.289 L 130 156.289" />
        <path d="M 120 234.906 L 130 234.906" />
        <path d="M 120 762.765 L 130 762.765" />
        <path d="M 120 526.914 L 130 526.914" />
        <path d="M 120 852.614 L 130 852.614" />
        <path d="M 120 729.072 L 130 729.072" />
        <path d="M 120 291.062 L 130 291.062" />
        <path d="M 120 66.4408 L 130 66.4408" />
        <path d="M 120 55.2097 L 130 55.2097" />
        <path d="M 120 583.069 L 140 583.069" />
        <text font-size="30" transform="translate(110, 593.069)" text-anchor="end" dominant-baseline="middle" stroke="none" fill="black">300000</text>
        <path d="M 120 145.058 L 130 145.058" />
        <path d="M 120 504.451 L 130 504.451" />
        <path d="M 120 639.224 L 130 639.224" />
        <path d="M 120 380.91 L 130 380.91" />
        <path d="M 120 403.372 L 130 403.372" />
        <path d="M 120 167.52 L 130 167.52" />
        <path d="M 120 751.534 L 130 751.534" />
        <path d="M 120 111.365 L 130 111.365" />
        <path d="M 120 459.527 L 130 459.527" />
        <path d="M 120 695.379 L 140 695.379" />
        <text font-size="30" transform="translate(110, 705.379)" text-anchor="end" dominant-baseline="middle" stroke="none" fill="black">200000</text>
        <path d="M 120 223.675 L 130 223.675" />
        <path d="M 120 347.217 L 130 347.217" />
        <path d="M 120 515.682 L 130 515.682" />
        <path d="M 120 279.831 L 130 279.831" />
        <path d="M 120 807.69 L 140 807.69" />
        <text font-size="30" transform="translate(110, 817.69)" text-anchor="end" dominant-baseline="middle" stroke="none" fill="black">100000</text>
        <path d="M 120 335.986 L 130 335.986" />
        <path d="M 120 571.838 L 130 571.838" />
    </g>
    <text id="frame_0_toplabel" font-size="30" transform="translate(535, 32.6)" text-anchor="middle" dominant-baseline="middle" stroke="none" fill="black">a.replace</text>
    <g id="frame_0_topticks">
        <path d="M 120 50 L 120 70" />
        <path d="M 136.6 50 L 136.6 60" />
        <path d="M 153.2 50 L 153.2 60" />
        <path d="M 169.8 50 L 169.8 60" />
        <path d="M 186.4 50 L 186.4 60" />
        <path d="M 203 50 L 203 60" />
        <path d="M 219.6 50 L 219.6 60" />
        <path d="M 236.2 50 L 236.2 60" />
        <path d="M 252.8 50 L 252.8 60" />
        <path d="M 269.4 50 L 269.4 60" />
        <path d="M 286 50 L 286 70" />
        <path d="M 302.6 50 L 302.6 60" />
        <path d="M 319.2 50 L 319.2 60" />
        <path d="M 335.8 50 L 335.8 60" />
        <path d="M 352.4 50 L 352.4 60" />
        <path d="M 369 50 L 369 60" />
        <path d="M 385.6 50 L 385.6 60" />
        <path d="M 402.2 50 L 402.2 60" />
        <path d="M 418.8 50 L 418.8 60" />
        <path d="M 435.4 50 L 435.4 60" />
        <path d="M 452 50 L 452 70" />
        <path d="M 468.6 50 L 468.6 60" />
        <path d="M 485.2 50 L 485.2 60" />
        <path d="M 501.8 50 L 501.8 60" />
        <path d="M 518.4 50 L 518.4 60" />
        <path d="M 535 50 L 535 60" />
        <path d="M 551.6 50 L 551.6 60" />
        <path d="M 568.2 50 L 568.2 60" />
        <path d="M 584.8 50 L 584.8 60" />
        <path d="M 601.4 50 L 601.4 60" />
        <path d="M 618 50 L 618 70" />
        <path d="M 634.6 50 L 634.6 60" />
        <path d="M 651.2 50 L 651.2 60" />
        <path d="M 667.8 50 L 667.8 60" />
        <path d="M 684.4 50 L 684.4 60" />
        <path d="M 701 50 L 701 60" />
        <path d="M 717.6 50 L 717.6 60" />
        <path d="M 734.2 50 L 734.2 60" />
        <path d="M 750.8 50 L 750.8 60" />
        <path d="M 767.4 50 L 767.4 60" />
        <path d="M 784 50 L 784 70" />
        <path d="M 800.6 50 L 800.6 60" />
        <path d="M 817.2 50 L 817.2 60" />
        <path d="M 833.8 50 L 833.8 60" />
        <path d="M 850.4 50 L 850.4 60" />
        <path d="M 867 50 L 867 60" />
        <path d="M 883.6 50 L 883.6 60" />
        <path d="M 900.2 50 L 900.2 60" />
        <path d="M 916.8 50 L 916.8 60" />
        <path d="M 933.4 50 L 933.4 60" />
        <path d="M 950 50 L 950 70" />
    </g>
    <g id="frame_0_rightticks">
        <path d="M 950 830.152 L 940 830.152" />
        <path d="M 950 785.227 L 940 785.227" />
        <path d="M 950 100.134 L 940 100.134" />
        <path d="M 950 627.993 L 940 627.993" />
        <path d="M 950 392.141 L 940 392.141" />
        <path d="M 950 920 L 930 920" />
        <path d="M 950 684.148 L 940 684.148" />
        <path d="M 950 448.296 L 940 448.296" />
        <path d="M 950 470.758 L 930 470.758" />
        <path d="M 950 212.444 L 940 212.444" />
        <path d="M 950 740.303 L 940 740.303" />
        <path d="M 950 818.921 L 940 818.921" />
        <path d="M 950 268.6 L 940 268.6" />
        <path d="M 950 560.607 L 940 560.607" />
        <path d="M 950 324.755 L 940 324.755" />
        <path d="M 950 616.762 L 940 616.762" />
        <path d="M 950 908.769 L 940 908.769" />
        <path d="M 950 897.538 L 940 897.538" />
        <path d="M 950 796.459 L 940 796.459" />
        <path d="M 950 437.065 L 940 437.065" />
        <path d="M 950 201.213 L 940 201.213" />
        <path d="M 950 493.22 L 940 493.22" />
        <path d="M 950 313.524 L 940 313.524" />
        <path d="M 950 257.369 L 940 257.369" />
        <path d="M 950 133.827 L 930 133.827" />
        <path d="M 950 549.376 L 940 549.376" />
        <path d="M 950 886.307 L 940 886.307" />
        <path d="M 950 863.845 L 940 863.845" />
        <path d="M 950 77.6718 L 940 77.6718" />
        <path d="M 950 605.531 L 940 605.531" />
        <path d="M 950 369.679 L 940 369.679" />
        <path d="M 950 178.751 L 940 178.751" />
        <path d="M 950 661.686 L 940 661.686" />
        <path d="M 950 841.383 L 940 841.383" />
        <path d="M 950 425.834 L 940 425.834" />
        <path d="M 950 189.982 L 940 189.982" />
        <path d="M 950 717.841 L 940 717.841" />
        <path d="M 950 875.076 L 940 875.076" />
        <path d="M 950 672.917 L 940 672.917" />
        <path d="M 950 481.989 L 940 481.989" />
        <path d="M 950 246.137 L 930 246.137" />
        <path d="M 950 538.145 L 940 538.145" />
        <path d="M 950 302.293 L 940 302.293" />
        <path d="M 950 594.3 L 940 594.3" />
        <path d="M 950 358.448 L 930 358.448" />
        <path d="M 950 773.996 L 940 773.996" />
        <path d="M 950 122.596 L 940 122.596" />
        <path d="M 950 650.455 L 940 650.455" />
        <path d="M 950 414.603 L 940 414.603" />
        <path d="M 950 706.61 L 940 706.61" />
        <path d="M 950 88.9029 L 940 88.9029" />
        <path d="M 950 156.289 L 940 156.289" />
        <path d="M 950 234.906 L 940 234.906" />
        <path d="M 950 762.765 L 940 762.765" />
        <path d="M 950 526.914 L 940 526.914" />
        <path d="M 950 852.614 L 940 852.614" />
        <path d="M 950 729.072 L 940 729.072" />
        <path d="M 950 291.062 L 940 291.062" />
        <path d="M 950 66.4408 L 940 66.4408" />
        <path d="M 950 55.2097 L 940 55.2097" />
        <path d="M 950 583.069 L 930 583.069" />
        <path d="M 950 145.058 L 940 145.058" />
        <path d="M 950 504.451 L 940 504.451" />
        <path d="M 950 639.224 L 940 639.224" />
        <path d="M 950 380.91 L 940 380.91" />
        <path d="M 950 403.372 L 940 403.372" />
        <path d="M 950 167.52 L 940 167.52" />
        <path d="M 950 751.534 L 940 751.534" />
        <path d="M 950 111.365 L 940 111.365" />
        <path d="M 950 459.527 L 940 459.527" />
        <path d="M 950 695.379 L 930 695.379" />
        <path d="M 950 223.675 L 940 223.675" />
        <path d="M 950 347.217 L 940 347.217" />
        <path d="M 950 515.682 L 940 515.682" />
        <path d="M 950 279.831 L 940 279.831" />
        <path d="M 950 807.69 L 930 807.69" />
        <path d="M 950 335.986 L 940 335.986" />
        <path d="M 950 571.838 L 940 571.838" />
    </g>
</g>
</g>
</svg>
