<?xml version="1.0" standalone="no"?>
<!DOCTYPE svg PUBLIC "-//W3C//DTD SVG 1.1//EN" "http://www.w3.org/Graphics/SVG/1.1/DTD/svg11.dtd">
<svg style="stroke-linejoin:miter; stroke:black; stroke-width:2.5; text-anchor:middle; fill:none" xmlns="http://www.w3.org/2000/svg" font-family="Helvetica, Arial, FreeSans, Sans, sans, sans-serif" width="1000px" height="1000px" version="1.1" xmlns:xlink="http://www.w3.org/1999/xlink" viewBox="0 0 1000 1000">
<defs>
    <clipPath id="Histogram_0_clip">
        <rect x="120" y="50" width="830" height="870" />
    </clipPath>
    <clipPath id="Histogram_1_clip">
        <rect x="120" y="50" width="830" height="870" />
    </clipPath>
</defs>
<g id="whole_document">
<rect id="background" x="0" y="0" width="1000" height="1000" stroke="none" fill="white" />
<g id="Histogram_0" clip-path="url(#Histogram_0_clip)">
    <path d="M 120 920 L 120 606.241 L 161.5 606.241 L 161.5 902.384 L 203 902.384 L 203 918.126 L 244.5 918.126 L 244.5 129.091 L 286 129.091 L 286 887.754 L 327.5 887.754 L 327.5 914.345 L 369 914.345 L 369 913.549 L 410.5 913.549 L 410.5 918.325 L 452 918.325 L 452 919.911 L 493.5 919.911 L 493.5 896.999 L 535 896.999 L 535 919.004 L 576.5 919.004 L 576.5 919.871 L 618 919.871 L 618 919.943 L 659.5 919.943 L 659.5 919.895 L 701 919.895 L 701 919.605 L 742.5 919.605 L 742.5 919.53 L 784 919.53 L 784 919.821 L 825.5 919.821 L 825.5 919.794 L 867 919.794 L 867 919.684 L 908.5 919.684 L 908.5 919.737 L 950 919.737 L 950 920" stroke-width="3" stroke-dasharray="" stroke="black" stroke-opacity="1" fill="DodgerBlue" fill-opacity="1" />
</g>
<g id="Histogram_1" clip-path="url(#Histogram_1_clip)">
    <path d="M 120 920 L 120 920 L 161.5 920 L 161.5 920 L 203 920 L 203 920 L 244.5 920 L 244.5 129.271 L 286 129.271 L 286 889.478 L 327.5 889.478 L 327.5 914.345 L 369 914.345 L 369 913.549 L 410.5 913.549 L 410.5 918.418 L 452 918.418 L 452 919.911 L 493.5 919.911 L 493.5 896.999 L 535 896.999 L 535 919.004 L 576.5 919.004 L 576.5 919.871 L 618 919.871 L 618 919.943 L 659.5 919.943 L 659.5 919.895 L 701 919.895 L 701 920 L 742.5 920 L 742.5 919.671 L 784 919.671 L 784 919.821 L 825.5 919.821 L 825.5 919.794 L 867 919.794 L 867 919.684 L 908.5 919.684 L 908.5 919.737 L 950 919.737 L 950 920" stroke-width="3" stroke-dasharray="" stroke="black" stroke-opacity="1" fill="darkorange" fill-opacity="1" />
</g>
<g id="frame_0">
    <rect id="frame_0_border" x="120" y="50" width="830" height="870" />
    <text id="frame_0_bottomlabel" font-size="30" transform="translate(535, 989.6)" text-anchor="middle" dominant-baseline="middle" stroke="none" fill="black">microseconds</text>
    <g id="frame_0_bottomticks">
        <path d="M 120 920 L 120 900" />
        <text font-size="30" transform="translate(120, 950)" text-anchor="middle" dominant-baseline="middle" stroke="none" fill="black">0</text>
        <path d="M 136.6 920 L 136.6 910" />
        <path d="M 153.2 920 L 153.2 910" />
        <path d="M 169.8 920 L 169.8 910" />
        <path d="M 186.4 920 L 186.4 910" />
        <path d="M 203 920 L 203 910" />
        <path d="M 219.6 920 L 219.6 910" />
        <path d="M 236.2 920 L 236.2 910" />
        <path d="M 252.8 920 L 252.8 910" />
        <path d="M 269.4 920 L 269.4 910" />
        <path d="M 286 920 L 286 900" />
        <text font-size="30" transform="translate(286, 950)" text-anchor="middle" dominant-baseline="middle" stroke="none" fill="black">10</text>
        <path d="M 302.6 920 L 302.6 910" />
        <path d="M 319.2 920 L 319.2 910" />
        <path d="M 335.8 920 L 335.8 910" />
        <path d="M 352.4 920 L 352.4 910" />
        <path d="M 369 920 L 369 910" />
        <path d="M 385.6 920 L 385.6 910" />
        <path d="M 402.2 920 L 402.2 910" />
        <path d="M 418.8 920 L 418.8 910" />
        <path d="M 435.4 920 L 435.4 910" />
        <path d="M 452 920 L 452 900" />
        <text font-size="30" transform="translate(452, 950)" text-anchor="middle" dominant-baseline="middle" stroke="none" fill="black">20</text>
        <path d="M 468.6 920 L 468.6 910" />
        <path d="M 485.2 920 L 485.2 910" />
        <path d="M 501.8 920 L 501.8 910" />
        <path d="M 518.4 920 L 518.4 910" />
        <path d="M 535 920 L 535 910" />
        <path d="M 551.6 920 L 551.6 910" />
        <path d="M 568.2 920 L 568.2 910" />
        <path d="M 584.8 920 L 584.8 910" />
        <path d="M 601.4 920 L 601.4 910" />
        <path d="M 618 920 L 618 900" />
        <text font-size="30" transform="translate(618, 950)" text-anchor="middle" dominant-baseline="middle" stroke="none" fill="black">30</text>
        <path d="M 634.6 920 L 634.6 910" />
        <path d="M 651.2 920 L 651.2 910" />
        <path d="M 667.8 920 L 667.8 910" />
        <path d="M 684.4 920 L 684.4 910" />
        <path d="M 701 920 L 701 910" />
        <path d="M 717.6 920 L 717.6 910" />
        <path d="M 734.2 920 L 734.2 910" />
        <path d="M 750.8 920 L 750.8 910" />
        <path d="M 767.4 920 L 767.4 910" />
        <path d="M 784 920 L 784 900" />
        <text font-size="30" transform="translate(784, 950)" text-anchor="middle" dominant-baseline="middle" stroke="none" fill="black">40</text>
        <path d="M 800.6 920 L 800.6 910" />
        <path d="M 817.2 920 L 817.2 910" />
        <path d="M 833.8 920 L 833.8 910" />
        <path d="M 850.4 920 L 850.4 910" />
        <path d="M 867 920 L 867 910" />
        <path d="M 883.6 920 L 883.6 910" />
        <path d="M 900.2 920 L 900.2 910" />
        <path d="M 916.8 920 L 916.8 910" />
        <path d="M 933.4 920 L 933.4 910" />
        <path d="M 950 920 L 950 900" />
        <text font-size="30" transform="translate(950, 950)" text-anchor="middle" dominant-baseline="middle" stroke="none" fill="black">50</text>
    </g>
    <g id="frame_0_leftticks">
        <path d="M 120 776.972 L 130 776.972" />
        <path d="M 120 705.458 L 130 705.458" />
        <path d="M 120 455.159 L 130 455.159" />
        <path d="M 120 79.7105 L 130 79.7105" />
        <path d="M 120 920 L 140 920" />
        <text font-size="30" transform="translate(110, 930)" text-anchor="end" dominant-baseline="middle" stroke="none" fill="black">0</text>
        <path d="M 120 544.551 L 130 544.551" />
        <path d="M 120 169.103 L 130 169.103" />
        <path d="M 120 633.944 L 130 633.944" />
        <path d="M 120 759.093 L 130 759.093" />
        <path d="M 120 347.888 L 130 347.888" />
        <path d="M 120 437.28 L 130 437.28" />
        <path d="M 120 902.121 L 130 902.121" />
        <path d="M 120 884.243 L 130 884.243" />
        <path d="M 120 723.336 L 130 723.336" />
        <path d="M 120 151.224 L 130 151.224" />
        <path d="M 120 240.617 L 130 240.617" />
        <path d="M 120 330.009 L 130 330.009" />
        <path d="M 120 866.364 L 130 866.364" />
        <path d="M 120 830.607 L 130 830.607" />
        <path d="M 120 419.402 L 130 419.402" />
        <path d="M 120 508.794 L 130 508.794" />
        <path d="M 120 794.85 L 130 794.85" />
        <path d="M 120 133.346 L 130 133.346" />
        <path d="M 120 598.187 L 130 598.187" />
        <path d="M 120 848.486 L 130 848.486" />
        <path d="M 120 526.673 L 130 526.673" />
        <path d="M 120 222.738 L 130 222.738" />
        <path d="M 120 312.131 L 130 312.131" />
        <path d="M 120 401.523 L 130 401.523" />
        <path d="M 120 687.579 L 130 687.579" />
        <path d="M 120 490.916 L 130 490.916" />
        <path d="M 120 115.467 L 130 115.467" />
        <path d="M 120 580.308 L 130 580.308" />
        <path d="M 120 204.86 L 140 204.86" />
        <text font-size="30" transform="translate(110, 214.86)" text-anchor="end" dominant-baseline="middle" stroke="none" fill="black">400000</text>
        <path d="M 120 669.701 L 130 669.701" />
        <path d="M 120 294.252 L 130 294.252" />
        <path d="M 120 812.729 L 130 812.729" />
        <path d="M 120 616.065 L 130 616.065" />
        <path d="M 120 383.645 L 140 383.645" />
        <text font-size="30" transform="translate(110, 393.645)" text-anchor="end" dominant-baseline="middle" stroke="none" fill="black">300000</text>
        <path d="M 120 258.495 L 130 258.495" />
        <path d="M 120 473.037 L 130 473.037" />
        <path d="M 120 61.832 L 130 61.832" />
        <path d="M 120 97.589 L 130 97.589" />
        <path d="M 120 651.822 L 130 651.822" />
        <path d="M 120 186.981 L 130 186.981" />
        <path d="M 120 562.43 L 140 562.43" />
        <text font-size="30" transform="translate(110, 572.43)" text-anchor="end" dominant-baseline="middle" stroke="none" fill="black">200000</text>
        <path d="M 120 276.374 L 130 276.374" />
        <path d="M 120 741.215 L 140 741.215" />
        <text font-size="30" transform="translate(110, 751.215)" text-anchor="end" dominant-baseline="middle" stroke="none" fill="black">100000</text>
        <path d="M 120 365.766 L 130 365.766" />
    </g>
    <text id="frame_0_toplabel" font-size="30" transform="translate(535, 32.6)" text-anchor="middle" dominant-baseline="middle" stroke="none" fill="black">model.reg.gaussianProcess</text>
    <g id="frame_0_topticks">
        <path d="M 120 50 L 120 70" />
        <path d="M 136.6 50 L 136.6 60" />
        <path d="M 153.2 50 L 153.2 60" />
        <path d="M 169.8 50 L 169.8 60" />
        <path d="M 186.4 50 L 186.4 60" />
        <path d="M 203 50 L 203 60" />
        <path d="M 219.6 50 L 219.6 60" />
        <path d="M 236.2 50 L 236.2 60" />
        <path d="M 252.8 50 L 252.8 60" />
        <path d="M 269.4 50 L 269.4 60" />
        <path d="M 286 50 L 286 70" />
        <path d="M 302.6 50 L 302.6 60" />
        <path d="M 319.2 50 L 319.2 60" />
        <path d="M 335.8 50 L 335.8 60" />
        <path d="M 352.4 50 L 352.4 60" />
        <path d="M 369 50 L 369 60" />
        <path d="M 385.6 50 L 385.6 60" />
        <path d="M 402.2 50 L 402.2 60" />
        <path d="M 418.8 50 L 418.8 60" />
        <path d="M 435.4 50 L 435.4 60" />
        <path d="M 452 50 L 452 70" />
        <path d="M 468.6 50 L 468.6 60" />
        <path d="M 485.2 50 L 485.2 60" />
        <path d="M 501.8 50 L 501.8 60" />
        <path d="M 518.4 50 L 518.4 60" />
        <path d="M 535 50 L 535 60" />
        <path d="M 551.6 50 L 551.6 60" />
        <path d="M 568.2 50 L 568.2 60" />
        <path d="M 584.8 50 L 584.8 60" />
        <path d="M 601.4 50 L 601.4 60" />
        <path d="M 618 50 L 618 70" />
        <path d="M 634.6 50 L 634.6 60" />
        <path d="M 651.2 50 L 651.2 60" />
        <path d="M 667.8 50 L 667.8 60" />
        <path d="M 684.4 50 L 684.4 60" />
        <path d="M 701 50 L 701 60" />
        <path d="M 717.6 50 L 717.6 60" />
        <path d="M 734.2 50 L 734.2 60" />
        <path d="M 750.8 50 L 750.8 60" />
        <path d="M 767.4 50 L 767.4 60" />
        <path d="M 784 50 L 784 70" />
        <path d="M 800.6 50 L 800.6 60" />
        <path d="M 817.2 50 L 817.2 60" />
        <path d="M 833.8 50 L 833.8 60" />
        <path d="M 850.4 50 L 850.4 60" />
        <path d="M 867 50 L 867 60" />
        <path d="M 883.6 50 L 883.6 60" />
        <path d="M 900.2 50 L 900.2 60" />
        <path d="M 916.8 50 L 916.8 60" />
        <path d="M 933.4 50 L 933.4 60" />
        <path d="M 950 50 L 950 70" />
    </g>
    <g id="frame_0_rightticks">
        <path d="M 950 776.972 L 940 776.972" />
        <path d="M 950 705.458 L 940 705.458" />
        <path d="M 950 455.159 L 940 455.159" />
        <path d="M 950 79.7105 L 940 79.7105" />
        <path d="M 950 920 L 930 920" />
        <path d="M 950 544.551 L 940 544.551" />
        <path d="M 950 169.103 L 940 169.103" />
        <path d="M 950 633.944 L 940 633.944" />
        <path d="M 950 759.093 L 940 759.093" />
        <path d="M 950 347.888 L 940 347.888" />
        <path d="M 950 437.28 L 940 437.28" />
        <path d="M 950 902.121 L 940 902.121" />
        <path d="M 950 884.243 L 940 884.243" />
        <path d="M 950 723.336 L 940 723.336" />
        <path d="M 950 151.224 L 940 151.224" />
        <path d="M 950 240.617 L 940 240.617" />
        <path d="M 950 330.009 L 940 330.009" />
        <path d="M 950 866.364 L 940 866.364" />
        <path d="M 950 830.607 L 940 830.607" />
        <path d="M 950 419.402 L 940 419.402" />
        <path d="M 950 508.794 L 940 508.794" />
        <path d="M 950 794.85 L 940 794.85" />
        <path d="M 950 133.346 L 940 133.346" />
        <path d="M 950 598.187 L 940 598.187" />
        <path d="M 950 848.486 L 940 848.486" />
        <path d="M 950 526.673 L 940 526.673" />
        <path d="M 950 222.738 L 940 222.738" />
        <path d="M 950 312.131 L 940 312.131" />
        <path d="M 950 401.523 L 940 401.523" />
        <path d="M 950 687.579 L 940 687.579" />
        <path d="M 950 490.916 L 940 490.916" />
        <path d="M 950 115.467 L 940 115.467" />
        <path d="M 950 580.308 L 940 580.308" />
        <path d="M 950 204.86 L 930 204.86" />
        <path d="M 950 669.701 L 940 669.701" />
        <path d="M 950 294.252 L 940 294.252" />
        <path d="M 950 812.729 L 940 812.729" />
        <path d="M 950 616.065 L 940 616.065" />
        <path d="M 950 383.645 L 930 383.645" />
        <path d="M 950 258.495 L 940 258.495" />
        <path d="M 950 473.037 L 940 473.037" />
        <path d="M 950 61.832 L 940 61.832" />
        <path d="M 950 97.589 L 940 97.589" />
        <path d="M 950 651.822 L 940 651.822" />
        <path d="M 950 186.981 L 940 186.981" />
        <path d="M 950 562.43 L 930 562.43" />
        <path d="M 950 276.374 L 940 276.374" />
        <path d="M 950 741.215 L 930 741.215" />
        <path d="M 950 365.766 L 940 365.766" />
    </g>
</g>
</g>
</svg>
