<?xml version="1.0" standalone="no"?>
<!DOCTYPE svg PUBLIC "-//W3C//DTD SVG 1.1//EN" "http://www.w3.org/Graphics/SVG/1.1/DTD/svg11.dtd">
<svg style="stroke-linejoin:miter; stroke:black; stroke-width:2.5; text-anchor:middle; fill:none" xmlns="http://www.w3.org/2000/svg" font-family="Helvetica, Arial, FreeSans, Sans, sans, sans-serif" width="1000px" height="1000px" version="1.1" xmlns:xlink="http://www.w3.org/1999/xlink" viewBox="0 0 1000 1000">
<defs>
    <clipPath id="Histogram_0_clip">
        <rect x="120" y="50" width="830" height="870" />
    </clipPath>
    <clipPath id="Histogram_1_clip">
        <rect x="120" y="50" width="830" height="870" />
    </clipPath>
</defs>
<g id="whole_document">
<rect id="background" x="0" y="0" width="1000" height="1000" stroke="none" fill="white" />
<g id="Histogram_0" clip-path="url(#Histogram_0_clip)">
    <path d="M 120 920 L 120 650.708 L 161.5 650.708 L 161.5 129.091 L 203 129.091 L 203 722.322 L 244.5 722.322 L 244.5 800.052 L 286 800.052 L 286 903.231 L 327.5 903.231 L 327.5 904.217 L 369 904.217 L 369 920 L 410.5 920 L 410.5 920 L 452 920 L 452 920 L 493.5 920 L 493.5 920 L 535 920 L 535 920 L 576.5 920 L 576.5 920 L 618 920 L 618 920 L 659.5 920 L 659.5 920 L 701 920 L 701 920 L 742.5 920 L 742.5 920 L 784 920 L 784 920 L 825.5 920 L 825.5 920 L 867 920 L 867 920 L 908.5 920 L 908.5 920 L 950 920 L 950 920" stroke-width="3" stroke-dasharray="" stroke="black" stroke-opacity="1" fill="DodgerBlue" fill-opacity="1" />
</g>
<g id="Histogram_1" clip-path="url(#Histogram_1_clip)">
    <path d="M 120 920 L 120 920 L 161.5 920 L 161.5 920 L 203 920 L 203 920 L 244.5 920 L 244.5 920 L 286 920 L 286 903.231 L 327.5 903.231 L 327.5 904.217 L 369 904.217 L 369 920 L 410.5 920 L 410.5 920 L 452 920 L 452 920 L 493.5 920 L 493.5 920 L 535 920 L 535 920 L 576.5 920 L 576.5 920 L 618 920 L 618 920 L 659.5 920 L 659.5 920 L 701 920 L 701 920 L 742.5 920 L 742.5 920 L 784 920 L 784 920 L 825.5 920 L 825.5 920 L 867 920 L 867 920 L 908.5 920 L 908.5 920 L 950 920 L 950 920" stroke-width="3" stroke-dasharray="" stroke="black" stroke-opacity="1" fill="darkorange" fill-opacity="1" />
</g>
<g id="frame_0">
    <rect id="frame_0_border" x="120" y="50" width="830" height="870" />
    <text id="frame_0_bottomlabel" font-size="30" transform="translate(535, 989.6)" text-anchor="middle" dominant-baseline="middle" stroke="none" fill="black">microseconds</text>
    <g id="frame_0_bottomticks">
        <path d="M 120 920 L 120 900" />
        <text font-size="30" transform="translate(120, 950)" text-anchor="middle" dominant-baseline="middle" stroke="none" fill="black">0</text>
        <path d="M 136.6 920 L 136.6 910" />
        <path d="M 153.2 920 L 153.2 910" />
        <path d="M 169.8 920 L 169.8 910" />
        <path d="M 186.4 920 L 186.4 910" />
        <path d="M 203 920 L 203 910" />
        <path d="M 219.6 920 L 219.6 910" />
        <path d="M 236.2 920 L 236.2 910" />
        <path d="M 252.8 920 L 252.8 910" />
        <path d="M 269.4 920 L 269.4 910" />
        <path d="M 286 920 L 286 900" />
        <text font-size="30" transform="translate(286, 950)" text-anchor="middle" dominant-baseline="middle" stroke="none" fill="black">10</text>
        <path d="M 302.6 920 L 302.6 910" />
        <path d="M 319.2 920 L 319.2 910" />
        <path d="M 335.8 920 L 335.8 910" />
        <path d="M 352.4 920 L 352.4 910" />
        <path d="M 369 920 L 369 910" />
        <path d="M 385.6 920 L 385.6 910" />
        <path d="M 402.2 920 L 402.2 910" />
        <path d="M 418.8 920 L 418.8 910" />
        <path d="M 435.4 920 L 435.4 910" />
        <path d="M 452 920 L 452 900" />
        <text font-size="30" transform="translate(452, 950)" text-anchor="middle" dominant-baseline="middle" stroke="none" fill="black">20</text>
        <path d="M 468.6 920 L 468.6 910" />
        <path d="M 485.2 920 L 485.2 910" />
        <path d="M 501.8 920 L 501.8 910" />
        <path d="M 518.4 920 L 518.4 910" />
        <path d="M 535 920 L 535 910" />
        <path d="M 551.6 920 L 551.6 910" />
        <path d="M 568.2 920 L 568.2 910" />
        <path d="M 584.8 920 L 584.8 910" />
        <path d="M 601.4 920 L 601.4 910" />
        <path d="M 618 920 L 618 900" />
        <text font-size="30" transform="translate(618, 950)" text-anchor="middle" dominant-baseline="middle" stroke="none" fill="black">30</text>
        <path d="M 634.6 920 L 634.6 910" />
        <path d="M 651.2 920 L 651.2 910" />
        <path d="M 667.8 920 L 667.8 910" />
        <path d="M 684.4 920 L 684.4 910" />
        <path d="M 701 920 L 701 910" />
        <path d="M 717.6 920 L 717.6 910" />
        <path d="M 734.2 920 L 734.2 910" />
        <path d="M 750.8 920 L 750.8 910" />
        <path d="M 767.4 920 L 767.4 910" />
        <path d="M 784 920 L 784 900" />
        <text font-size="30" transform="translate(784, 950)" text-anchor="middle" dominant-baseline="middle" stroke="none" fill="black">40</text>
        <path d="M 800.6 920 L 800.6 910" />
        <path d="M 817.2 920 L 817.2 910" />
        <path d="M 833.8 920 L 833.8 910" />
        <path d="M 850.4 920 L 850.4 910" />
        <path d="M 867 920 L 867 910" />
        <path d="M 883.6 920 L 883.6 910" />
        <path d="M 900.2 920 L 900.2 910" />
        <path d="M 916.8 920 L 916.8 910" />
        <path d="M 933.4 920 L 933.4 910" />
        <path d="M 950 920 L 950 900" />
        <text font-size="30" transform="translate(950, 950)" text-anchor="middle" dominant-baseline="middle" stroke="none" fill="black">50</text>
    </g>
    <g id="frame_0_leftticks">
        <path d="M 120 288.693 L 130 288.693" />
        <path d="M 120 920 L 140 920" />
        <text font-size="30" transform="translate(110, 930)" text-anchor="end" dominant-baseline="middle" stroke="none" fill="black">0</text>
        <path d="M 120 742.445 L 130 742.445" />
        <path d="M 120 564.89 L 130 564.89" />
        <path d="M 120 229.508 L 140 229.508" />
        <text font-size="30" transform="translate(110, 239.508)" text-anchor="end" dominant-baseline="middle" stroke="none" fill="black">3500</text>
        <path d="M 120 387.335 L 130 387.335" />
        <path d="M 120 841.087 L 130 841.087" />
        <path d="M 120 170.323 L 130 170.323" />
        <path d="M 120 663.532 L 130 663.532" />
        <path d="M 120 485.977 L 130 485.977" />
        <path d="M 120 111.138 L 130 111.138" />
        <path d="M 120 308.422 L 130 308.422" />
        <path d="M 120 762.173 L 130 762.173" />
        <path d="M 120 51.9531 L 130 51.9531" />
        <path d="M 120 584.618 L 130 584.618" />
        <path d="M 120 407.063 L 130 407.063" />
        <path d="M 120 860.815 L 130 860.815" />
        <path d="M 120 683.26 L 130 683.26" />
        <path d="M 120 249.236 L 130 249.236" />
        <path d="M 120 505.705 L 130 505.705" />
        <path d="M 120 328.15 L 140 328.15" />
        <text font-size="30" transform="translate(110, 338.15)" text-anchor="end" dominant-baseline="middle" stroke="none" fill="black">3000</text>
        <path d="M 120 821.358 L 140 821.358" />
        <text font-size="30" transform="translate(110, 831.358)" text-anchor="end" dominant-baseline="middle" stroke="none" fill="black">500</text>
        <path d="M 120 781.902 L 130 781.902" />
        <path d="M 120 604.347 L 130 604.347" />
        <path d="M 120 130.866 L 140 130.866" />
        <text font-size="30" transform="translate(110, 140.866)" text-anchor="end" dominant-baseline="middle" stroke="none" fill="black">4000</text>
        <path d="M 120 426.792 L 140 426.792" />
        <text font-size="30" transform="translate(110, 436.792)" text-anchor="end" dominant-baseline="middle" stroke="none" fill="black">2500</text>
        <path d="M 120 880.543 L 130 880.543" />
        <path d="M 120 71.6814 L 130 71.6814" />
        <path d="M 120 702.988 L 130 702.988" />
        <path d="M 120 525.433 L 140 525.433" />
        <text font-size="30" transform="translate(110, 535.433)" text-anchor="end" dominant-baseline="middle" stroke="none" fill="black">2000</text>
        <path d="M 120 347.878 L 130 347.878" />
        <path d="M 120 801.63 L 130 801.63" />
        <path d="M 120 268.965 L 130 268.965" />
        <path d="M 120 624.075 L 140 624.075" />
        <text font-size="30" transform="translate(110, 634.075)" text-anchor="end" dominant-baseline="middle" stroke="none" fill="black">1500</text>
        <path d="M 120 446.52 L 130 446.52" />
        <path d="M 120 209.78 L 130 209.78" />
        <path d="M 120 900.272 L 130 900.272" />
        <path d="M 120 91.4098 L 130 91.4098" />
        <path d="M 120 150.595 L 130 150.595" />
        <path d="M 120 545.162 L 130 545.162" />
        <path d="M 120 367.607 L 130 367.607" />
        <path d="M 120 722.717 L 140 722.717" />
        <text font-size="30" transform="translate(110, 732.717)" text-anchor="end" dominant-baseline="middle" stroke="none" fill="black">1000</text>
        <path d="M 120 190.051 L 130 190.051" />
        <path d="M 120 643.803 L 130 643.803" />
        <path d="M 120 466.248 L 130 466.248" />
    </g>
    <text id="frame_0_toplabel" font-size="30" transform="translate(535, 32.6)" text-anchor="middle" dominant-baseline="middle" stroke="none" fill="black">re.count</text>
    <g id="frame_0_topticks">
        <path d="M 120 50 L 120 70" />
        <path d="M 136.6 50 L 136.6 60" />
        <path d="M 153.2 50 L 153.2 60" />
        <path d="M 169.8 50 L 169.8 60" />
        <path d="M 186.4 50 L 186.4 60" />
        <path d="M 203 50 L 203 60" />
        <path d="M 219.6 50 L 219.6 60" />
        <path d="M 236.2 50 L 236.2 60" />
        <path d="M 252.8 50 L 252.8 60" />
        <path d="M 269.4 50 L 269.4 60" />
        <path d="M 286 50 L 286 70" />
        <path d="M 302.6 50 L 302.6 60" />
        <path d="M 319.2 50 L 319.2 60" />
        <path d="M 335.8 50 L 335.8 60" />
        <path d="M 352.4 50 L 352.4 60" />
        <path d="M 369 50 L 369 60" />
        <path d="M 385.6 50 L 385.6 60" />
        <path d="M 402.2 50 L 402.2 60" />
        <path d="M 418.8 50 L 418.8 60" />
        <path d="M 435.4 50 L 435.4 60" />
        <path d="M 452 50 L 452 70" />
        <path d="M 468.6 50 L 468.6 60" />
        <path d="M 485.2 50 L 485.2 60" />
        <path d="M 501.8 50 L 501.8 60" />
        <path d="M 518.4 50 L 518.4 60" />
        <path d="M 535 50 L 535 60" />
        <path d="M 551.6 50 L 551.6 60" />
        <path d="M 568.2 50 L 568.2 60" />
        <path d="M 584.8 50 L 584.8 60" />
        <path d="M 601.4 50 L 601.4 60" />
        <path d="M 618 50 L 618 70" />
        <path d="M 634.6 50 L 634.6 60" />
        <path d="M 651.2 50 L 651.2 60" />
        <path d="M 667.8 50 L 667.8 60" />
        <path d="M 684.4 50 L 684.4 60" />
        <path d="M 701 50 L 701 60" />
        <path d="M 717.6 50 L 717.6 60" />
        <path d="M 734.2 50 L 734.2 60" />
        <path d="M 750.8 50 L 750.8 60" />
        <path d="M 767.4 50 L 767.4 60" />
        <path d="M 784 50 L 784 70" />
        <path d="M 800.6 50 L 800.6 60" />
        <path d="M 817.2 50 L 817.2 60" />
        <path d="M 833.8 50 L 833.8 60" />
        <path d="M 850.4 50 L 850.4 60" />
        <path d="M 867 50 L 867 60" />
        <path d="M 883.6 50 L 883.6 60" />
        <path d="M 900.2 50 L 900.2 60" />
        <path d="M 916.8 50 L 916.8 60" />
        <path d="M 933.4 50 L 933.4 60" />
        <path d="M 950 50 L 950 70" />
    </g>
    <g id="frame_0_rightticks">
        <path d="M 950 288.693 L 940 288.693" />
        <path d="M 950 920 L 930 920" />
        <path d="M 950 742.445 L 940 742.445" />
        <path d="M 950 564.89 L 940 564.89" />
        <path d="M 950 229.508 L 930 229.508" />
        <path d="M 950 387.335 L 940 387.335" />
        <path d="M 950 841.087 L 940 841.087" />
        <path d="M 950 170.323 L 940 170.323" />
        <path d="M 950 663.532 L 940 663.532" />
        <path d="M 950 485.977 L 940 485.977" />
        <path d="M 950 111.138 L 940 111.138" />
        <path d="M 950 308.422 L 940 308.422" />
        <path d="M 950 762.173 L 940 762.173" />
        <path d="M 950 51.9531 L 940 51.9531" />
        <path d="M 950 584.618 L 940 584.618" />
        <path d="M 950 407.063 L 940 407.063" />
        <path d="M 950 860.815 L 940 860.815" />
        <path d="M 950 683.26 L 940 683.26" />
        <path d="M 950 249.236 L 940 249.236" />
        <path d="M 950 505.705 L 940 505.705" />
        <path d="M 950 328.15 L 930 328.15" />
        <path d="M 950 821.358 L 930 821.358" />
        <path d="M 950 781.902 L 940 781.902" />
        <path d="M 950 604.347 L 940 604.347" />
        <path d="M 950 130.866 L 930 130.866" />
        <path d="M 950 426.792 L 930 426.792" />
        <path d="M 950 880.543 L 940 880.543" />
        <path d="M 950 71.6814 L 940 71.6814" />
        <path d="M 950 702.988 L 940 702.988" />
        <path d="M 950 525.433 L 930 525.433" />
        <path d="M 950 347.878 L 940 347.878" />
        <path d="M 950 801.63 L 940 801.63" />
        <path d="M 950 268.965 L 940 268.965" />
        <path d="M 950 624.075 L 930 624.075" />
        <path d="M 950 446.52 L 940 446.52" />
        <path d="M 950 209.78 L 940 209.78" />
        <path d="M 950 900.272 L 940 900.272" />
        <path d="M 950 91.4098 L 940 91.4098" />
        <path d="M 950 150.595 L 940 150.595" />
        <path d="M 950 545.162 L 940 545.162" />
        <path d="M 950 367.607 L 940 367.607" />
        <path d="M 950 722.717 L 930 722.717" />
        <path d="M 950 190.051 L 940 190.051" />
        <path d="M 950 643.803 L 940 643.803" />
        <path d="M 950 466.248 L 940 466.248" />
    </g>
</g>
</g>
</svg>
