<?xml version="1.0" standalone="no"?>
<!DOCTYPE svg PUBLIC "-//W3C//DTD SVG 1.1//EN" "http://www.w3.org/Graphics/SVG/1.1/DTD/svg11.dtd">
<svg style="stroke-linejoin:miter; stroke:black; stroke-width:2.5; text-anchor:middle; fill:none" xmlns="http://www.w3.org/2000/svg" font-family="Helvetica, Arial, FreeSans, Sans, sans, sans-serif" width="1000px" height="1000px" version="1.1" xmlns:xlink="http://www.w3.org/1999/xlink" viewBox="0 0 1000 1000">
<defs>
    <clipPath id="Histogram_0_clip">
        <rect x="120" y="50" width="830" height="870" />
    </clipPath>
</defs>
<g id="whole_document">
<rect id="background" x="0" y="0" width="1000" height="1000" stroke="none" fill="white" />
<g id="Histogram_0" clip-path="url(#Histogram_0_clip)">
    <path d="M 120 920 L 120 129.091 L 161.5 129.091 L 161.5 789.761 L 203 789.761 L 203 920 L 244.5 920 L 244.5 920 L 286 920 L 286 920 L 327.5 920 L 327.5 920 L 369 920 L 369 920 L 410.5 920 L 410.5 920 L 452 920 L 452 920 L 493.5 920 L 493.5 920 L 535 920 L 535 920 L 576.5 920 L 576.5 920 L 618 920 L 618 920 L 659.5 920 L 659.5 920 L 701 920 L 701 920 L 742.5 920 L 742.5 920 L 784 920 L 784 920 L 825.5 920 L 825.5 920 L 867 920 L 867 920 L 908.5 920 L 908.5 920 L 950 920 L 950 920" stroke-width="3" stroke-dasharray="" stroke="black" stroke-opacity="1" fill="DodgerBlue" fill-opacity="1" />
</g>
<g id="frame_0">
    <rect id="frame_0_border" x="120" y="50" width="830" height="870" />
    <text id="frame_0_bottomlabel" font-size="30" transform="translate(535, 989.6)" text-anchor="middle" dominant-baseline="middle" stroke="none" fill="black">microseconds</text>
    <g id="frame_0_bottomticks">
        <path d="M 120 920 L 120 900" />
        <text font-size="30" transform="translate(120, 950)" text-anchor="middle" dominant-baseline="middle" stroke="none" fill="black">0</text>
        <path d="M 136.6 920 L 136.6 910" />
        <path d="M 153.2 920 L 153.2 910" />
        <path d="M 169.8 920 L 169.8 910" />
        <path d="M 186.4 920 L 186.4 910" />
        <path d="M 203 920 L 203 910" />
        <path d="M 219.6 920 L 219.6 910" />
        <path d="M 236.2 920 L 236.2 910" />
        <path d="M 252.8 920 L 252.8 910" />
        <path d="M 269.4 920 L 269.4 910" />
        <path d="M 286 920 L 286 900" />
        <text font-size="30" transform="translate(286, 950)" text-anchor="middle" dominant-baseline="middle" stroke="none" fill="black">10</text>
        <path d="M 302.6 920 L 302.6 910" />
        <path d="M 319.2 920 L 319.2 910" />
        <path d="M 335.8 920 L 335.8 910" />
        <path d="M 352.4 920 L 352.4 910" />
        <path d="M 369 920 L 369 910" />
        <path d="M 385.6 920 L 385.6 910" />
        <path d="M 402.2 920 L 402.2 910" />
        <path d="M 418.8 920 L 418.8 910" />
        <path d="M 435.4 920 L 435.4 910" />
        <path d="M 452 920 L 452 900" />
        <text font-size="30" transform="translate(452, 950)" text-anchor="middle" dominant-baseline="middle" stroke="none" fill="black">20</text>
        <path d="M 468.6 920 L 468.6 910" />
        <path d="M 485.2 920 L 485.2 910" />
        <path d="M 501.8 920 L 501.8 910" />
        <path d="M 518.4 920 L 518.4 910" />
        <path d="M 535 920 L 535 910" />
        <path d="M 551.6 920 L 551.6 910" />
        <path d="M 568.2 920 L 568.2 910" />
        <path d="M 584.8 920 L 584.8 910" />
        <path d="M 601.4 920 L 601.4 910" />
        <path d="M 618 920 L 618 900" />
        <text font-size="30" transform="translate(618, 950)" text-anchor="middle" dominant-baseline="middle" stroke="none" fill="black">30</text>
        <path d="M 634.6 920 L 634.6 910" />
        <path d="M 651.2 920 L 651.2 910" />
        <path d="M 667.8 920 L 667.8 910" />
        <path d="M 684.4 920 L 684.4 910" />
        <path d="M 701 920 L 701 910" />
        <path d="M 717.6 920 L 717.6 910" />
        <path d="M 734.2 920 L 734.2 910" />
        <path d="M 750.8 920 L 750.8 910" />
        <path d="M 767.4 920 L 767.4 910" />
        <path d="M 784 920 L 784 900" />
        <text font-size="30" transform="translate(784, 950)" text-anchor="middle" dominant-baseline="middle" stroke="none" fill="black">40</text>
        <path d="M 800.6 920 L 800.6 910" />
        <path d="M 817.2 920 L 817.2 910" />
        <path d="M 833.8 920 L 833.8 910" />
        <path d="M 850.4 920 L 850.4 910" />
        <path d="M 867 920 L 867 910" />
        <path d="M 883.6 920 L 883.6 910" />
        <path d="M 900.2 920 L 900.2 910" />
        <path d="M 916.8 920 L 916.8 910" />
        <path d="M 933.4 920 L 933.4 910" />
        <path d="M 950 920 L 950 900" />
        <text font-size="30" transform="translate(950, 950)" text-anchor="middle" dominant-baseline="middle" stroke="none" fill="black">50</text>
    </g>
    <g id="frame_0_leftticks">
        <path d="M 120 717.321 L 130 717.321" />
        <path d="M 120 818.66 L 130 818.66" />
        <path d="M 120 328.852 L 130 328.852" />
        <path d="M 120 920 L 140 920" />
        <text font-size="30" transform="translate(110, 930)" text-anchor="end" dominant-baseline="middle" stroke="none" fill="black">0</text>
        <path d="M 120 531.531 L 130 531.531" />
        <path d="M 120 143.063 L 130 143.063" />
        <path d="M 120 734.211 L 130 734.211" />
        <path d="M 120 345.742 L 130 345.742" />
        <path d="M 120 548.421 L 130 548.421" />
        <path d="M 120 159.953 L 130 159.953" />
        <path d="M 120 751.101 L 140 751.101" />
        <text font-size="30" transform="translate(110, 761.101)" text-anchor="end" dominant-baseline="middle" stroke="none" fill="black">10⁶</text>
        <path d="M 120 362.632 L 130 362.632" />
        <path d="M 120 615.981 L 130 615.981" />
        <path d="M 120 565.311 L 130 565.311" />
        <path d="M 120 903.11 L 130 903.11" />
        <path d="M 120 176.843 L 130 176.843" />
        <path d="M 120 379.522 L 130 379.522" />
        <path d="M 120 582.201 L 140 582.201" />
        <text font-size="30" transform="translate(110, 592.201)" text-anchor="end" dominant-baseline="middle" stroke="none" fill="black">2×10⁶</text>
        <path d="M 120 193.733 L 130 193.733" />
        <path d="M 120 784.88 L 130 784.88" />
        <path d="M 120 396.412 L 130 396.412" />
        <path d="M 120 599.091 L 130 599.091" />
        <path d="M 120 210.623 L 130 210.623" />
        <path d="M 120 801.77 L 130 801.77" />
        <path d="M 120 413.302 L 140 413.302" />
        <text font-size="30" transform="translate(110, 423.302)" text-anchor="end" dominant-baseline="middle" stroke="none" fill="black">3×10⁶</text>
        <path d="M 120 886.22 L 130 886.22" />
        <path d="M 120 767.991 L 130 767.991" />
        <path d="M 120 227.512 L 130 227.512" />
        <path d="M 120 430.192 L 130 430.192" />
        <path d="M 120 632.871 L 130 632.871" />
        <path d="M 120 244.402 L 140 244.402" />
        <text font-size="30" transform="translate(110, 254.402)" text-anchor="end" dominant-baseline="middle" stroke="none" fill="black">4×10⁶</text>
        <path d="M 120 835.55 L 130 835.55" />
        <path d="M 120 126.173 L 130 126.173" />
        <path d="M 120 447.082 L 130 447.082" />
        <path d="M 120 58.6131 L 130 58.6131" />
        <path d="M 120 649.761 L 130 649.761" />
        <path d="M 120 75.503 L 140 75.503" />
        <text font-size="30" transform="translate(110, 85.503)" text-anchor="end" dominant-baseline="middle" stroke="none" fill="black">5×10⁶</text>
        <path d="M 120 261.292 L 130 261.292" />
        <path d="M 120 852.44 L 130 852.44" />
        <path d="M 120 463.972 L 130 463.972" />
        <path d="M 120 869.33 L 130 869.33" />
        <path d="M 120 666.651 L 130 666.651" />
        <path d="M 120 278.182 L 130 278.182" />
        <path d="M 120 480.862 L 130 480.862" />
        <path d="M 120 92.393 L 130 92.393" />
        <path d="M 120 683.541 L 130 683.541" />
        <path d="M 120 295.072 L 130 295.072" />
        <path d="M 120 497.752 L 130 497.752" />
        <path d="M 120 109.283 L 130 109.283" />
        <path d="M 120 700.431 L 130 700.431" />
        <path d="M 120 311.962 L 130 311.962" />
        <path d="M 120 514.641 L 130 514.641" />
    </g>
    <text id="frame_0_toplabel" font-size="30" transform="translate(535, 32.6)" text-anchor="middle" dominant-baseline="middle" stroke="none" fill="black">metric.gaussianSimilarity</text>
    <g id="frame_0_topticks">
        <path d="M 120 50 L 120 70" />
        <path d="M 136.6 50 L 136.6 60" />
        <path d="M 153.2 50 L 153.2 60" />
        <path d="M 169.8 50 L 169.8 60" />
        <path d="M 186.4 50 L 186.4 60" />
        <path d="M 203 50 L 203 60" />
        <path d="M 219.6 50 L 219.6 60" />
        <path d="M 236.2 50 L 236.2 60" />
        <path d="M 252.8 50 L 252.8 60" />
        <path d="M 269.4 50 L 269.4 60" />
        <path d="M 286 50 L 286 70" />
        <path d="M 302.6 50 L 302.6 60" />
        <path d="M 319.2 50 L 319.2 60" />
        <path d="M 335.8 50 L 335.8 60" />
        <path d="M 352.4 50 L 352.4 60" />
        <path d="M 369 50 L 369 60" />
        <path d="M 385.6 50 L 385.6 60" />
        <path d="M 402.2 50 L 402.2 60" />
        <path d="M 418.8 50 L 418.8 60" />
        <path d="M 435.4 50 L 435.4 60" />
        <path d="M 452 50 L 452 70" />
        <path d="M 468.6 50 L 468.6 60" />
        <path d="M 485.2 50 L 485.2 60" />
        <path d="M 501.8 50 L 501.8 60" />
        <path d="M 518.4 50 L 518.4 60" />
        <path d="M 535 50 L 535 60" />
        <path d="M 551.6 50 L 551.6 60" />
        <path d="M 568.2 50 L 568.2 60" />
        <path d="M 584.8 50 L 584.8 60" />
        <path d="M 601.4 50 L 601.4 60" />
        <path d="M 618 50 L 618 70" />
        <path d="M 634.6 50 L 634.6 60" />
        <path d="M 651.2 50 L 651.2 60" />
        <path d="M 667.8 50 L 667.8 60" />
        <path d="M 684.4 50 L 684.4 60" />
        <path d="M 701 50 L 701 60" />
        <path d="M 717.6 50 L 717.6 60" />
        <path d="M 734.2 50 L 734.2 60" />
        <path d="M 750.8 50 L 750.8 60" />
        <path d="M 767.4 50 L 767.4 60" />
        <path d="M 784 50 L 784 70" />
        <path d="M 800.6 50 L 800.6 60" />
        <path d="M 817.2 50 L 817.2 60" />
        <path d="M 833.8 50 L 833.8 60" />
        <path d="M 850.4 50 L 850.4 60" />
        <path d="M 867 50 L 867 60" />
        <path d="M 883.6 50 L 883.6 60" />
        <path d="M 900.2 50 L 900.2 60" />
        <path d="M 916.8 50 L 916.8 60" />
        <path d="M 933.4 50 L 933.4 60" />
        <path d="M 950 50 L 950 70" />
    </g>
    <g id="frame_0_rightticks">
        <path d="M 950 717.321 L 940 717.321" />
        <path d="M 950 818.66 L 940 818.66" />
        <path d="M 950 328.852 L 940 328.852" />
        <path d="M 950 920 L 930 920" />
        <path d="M 950 531.531 L 940 531.531" />
        <path d="M 950 143.063 L 940 143.063" />
        <path d="M 950 734.211 L 940 734.211" />
        <path d="M 950 345.742 L 940 345.742" />
        <path d="M 950 548.421 L 940 548.421" />
        <path d="M 950 159.953 L 940 159.953" />
        <path d="M 950 751.101 L 930 751.101" />
        <path d="M 950 362.632 L 940 362.632" />
        <path d="M 950 615.981 L 940 615.981" />
        <path d="M 950 565.311 L 940 565.311" />
        <path d="M 950 903.11 L 940 903.11" />
        <path d="M 950 176.843 L 940 176.843" />
        <path d="M 950 379.522 L 940 379.522" />
        <path d="M 950 582.201 L 930 582.201" />
        <path d="M 950 193.733 L 940 193.733" />
        <path d="M 950 784.88 L 940 784.88" />
        <path d="M 950 396.412 L 940 396.412" />
        <path d="M 950 599.091 L 940 599.091" />
        <path d="M 950 210.623 L 940 210.623" />
        <path d="M 950 801.77 L 940 801.77" />
        <path d="M 950 413.302 L 930 413.302" />
        <path d="M 950 886.22 L 940 886.22" />
        <path d="M 950 767.991 L 940 767.991" />
        <path d="M 950 227.512 L 940 227.512" />
        <path d="M 950 430.192 L 940 430.192" />
        <path d="M 950 632.871 L 940 632.871" />
        <path d="M 950 244.402 L 930 244.402" />
        <path d="M 950 835.55 L 940 835.55" />
        <path d="M 950 126.173 L 940 126.173" />
        <path d="M 950 447.082 L 940 447.082" />
        <path d="M 950 58.6131 L 940 58.6131" />
        <path d="M 950 649.761 L 940 649.761" />
        <path d="M 950 75.503 L 930 75.503" />
        <path d="M 950 261.292 L 940 261.292" />
        <path d="M 950 852.44 L 940 852.44" />
        <path d="M 950 463.972 L 940 463.972" />
        <path d="M 950 869.33 L 940 869.33" />
        <path d="M 950 666.651 L 940 666.651" />
        <path d="M 950 278.182 L 940 278.182" />
        <path d="M 950 480.862 L 940 480.862" />
        <path d="M 950 92.393 L 940 92.393" />
        <path d="M 950 683.541 L 940 683.541" />
        <path d="M 950 295.072 L 940 295.072" />
        <path d="M 950 497.752 L 940 497.752" />
        <path d="M 950 109.283 L 940 109.283" />
        <path d="M 950 700.431 L 940 700.431" />
        <path d="M 950 311.962 L 940 311.962" />
        <path d="M 950 514.641 L 940 514.641" />
    </g>
</g>
</g>
</svg>
