<?xml version="1.0" standalone="no"?>
<!DOCTYPE svg PUBLIC "-//W3C//DTD SVG 1.1//EN" "http://www.w3.org/Graphics/SVG/1.1/DTD/svg11.dtd">
<svg style="stroke-linejoin:miter; stroke:black; stroke-width:2.5; text-anchor:middle; fill:none" xmlns="http://www.w3.org/2000/svg" font-family="Helvetica, Arial, FreeSans, Sans, sans, sans-serif" width="1000px" height="1000px" version="1.1" xmlns:xlink="http://www.w3.org/1999/xlink" viewBox="0 0 1000 1000">
<defs>
    <clipPath id="Histogram_0_clip">
        <rect x="120" y="50" width="830" height="870" />
    </clipPath>
</defs>
<g id="whole_document">
<rect id="background" x="0" y="0" width="1000" height="1000" stroke="none" fill="white" />
<g id="Histogram_0" clip-path="url(#Histogram_0_clip)">
    <path d="M 120 920 L 120 129.091 L 161.5 129.091 L 161.5 900.809 L 203 900.809 L 203 913.743 L 244.5 913.743 L 244.5 880.982 L 286 880.982 L 286 920 L 327.5 920 L 327.5 917.253 L 369 917.253 L 369 920 L 410.5 920 L 410.5 920 L 452 920 L 452 919.145 L 493.5 919.145 L 493.5 920 L 535 920 L 535 920 L 576.5 920 L 576.5 920 L 618 920 L 618 920 L 659.5 920 L 659.5 920 L 701 920 L 701 920 L 742.5 920 L 742.5 920 L 784 920 L 784 920 L 825.5 920 L 825.5 920 L 867 920 L 867 920 L 908.5 920 L 908.5 920 L 950 920 L 950 920" stroke-width="3" stroke-dasharray="" stroke="black" stroke-opacity="1" fill="DodgerBlue" fill-opacity="1" />
</g>
<g id="frame_0">
    <rect id="frame_0_border" x="120" y="50" width="830" height="870" />
    <text id="frame_0_bottomlabel" font-size="30" transform="translate(535, 989.6)" text-anchor="middle" dominant-baseline="middle" stroke="none" fill="black">microseconds</text>
    <g id="frame_0_bottomticks">
        <path d="M 120 920 L 120 900" />
        <text font-size="30" transform="translate(120, 950)" text-anchor="middle" dominant-baseline="middle" stroke="none" fill="black">0</text>
        <path d="M 136.6 920 L 136.6 910" />
        <path d="M 153.2 920 L 153.2 910" />
        <path d="M 169.8 920 L 169.8 910" />
        <path d="M 186.4 920 L 186.4 910" />
        <path d="M 203 920 L 203 910" />
        <path d="M 219.6 920 L 219.6 910" />
        <path d="M 236.2 920 L 236.2 910" />
        <path d="M 252.8 920 L 252.8 910" />
        <path d="M 269.4 920 L 269.4 910" />
        <path d="M 286 920 L 286 900" />
        <text font-size="30" transform="translate(286, 950)" text-anchor="middle" dominant-baseline="middle" stroke="none" fill="black">10</text>
        <path d="M 302.6 920 L 302.6 910" />
        <path d="M 319.2 920 L 319.2 910" />
        <path d="M 335.8 920 L 335.8 910" />
        <path d="M 352.4 920 L 352.4 910" />
        <path d="M 369 920 L 369 910" />
        <path d="M 385.6 920 L 385.6 910" />
        <path d="M 402.2 920 L 402.2 910" />
        <path d="M 418.8 920 L 418.8 910" />
        <path d="M 435.4 920 L 435.4 910" />
        <path d="M 452 920 L 452 900" />
        <text font-size="30" transform="translate(452, 950)" text-anchor="middle" dominant-baseline="middle" stroke="none" fill="black">20</text>
        <path d="M 468.6 920 L 468.6 910" />
        <path d="M 485.2 920 L 485.2 910" />
        <path d="M 501.8 920 L 501.8 910" />
        <path d="M 518.4 920 L 518.4 910" />
        <path d="M 535 920 L 535 910" />
        <path d="M 551.6 920 L 551.6 910" />
        <path d="M 568.2 920 L 568.2 910" />
        <path d="M 584.8 920 L 584.8 910" />
        <path d="M 601.4 920 L 601.4 910" />
        <path d="M 618 920 L 618 900" />
        <text font-size="30" transform="translate(618, 950)" text-anchor="middle" dominant-baseline="middle" stroke="none" fill="black">30</text>
        <path d="M 634.6 920 L 634.6 910" />
        <path d="M 651.2 920 L 651.2 910" />
        <path d="M 667.8 920 L 667.8 910" />
        <path d="M 684.4 920 L 684.4 910" />
        <path d="M 701 920 L 701 910" />
        <path d="M 717.6 920 L 717.6 910" />
        <path d="M 734.2 920 L 734.2 910" />
        <path d="M 750.8 920 L 750.8 910" />
        <path d="M 767.4 920 L 767.4 910" />
        <path d="M 784 920 L 784 900" />
        <text font-size="30" transform="translate(784, 950)" text-anchor="middle" dominant-baseline="middle" stroke="none" fill="black">40</text>
        <path d="M 800.6 920 L 800.6 910" />
        <path d="M 817.2 920 L 817.2 910" />
        <path d="M 833.8 920 L 833.8 910" />
        <path d="M 850.4 920 L 850.4 910" />
        <path d="M 867 920 L 867 910" />
        <path d="M 883.6 920 L 883.6 910" />
        <path d="M 900.2 920 L 900.2 910" />
        <path d="M 916.8 920 L 916.8 910" />
        <path d="M 933.4 920 L 933.4 910" />
        <path d="M 950 920 L 950 900" />
        <text font-size="30" transform="translate(950, 950)" text-anchor="middle" dominant-baseline="middle" stroke="none" fill="black">50</text>
    </g>
    <g id="frame_0_leftticks">
        <path d="M 120 628.957 L 130 628.957" />
        <path d="M 120 483.436 L 130 483.436" />
        <path d="M 120 428.865 L 130 428.865" />
        <path d="M 120 538.006 L 130 538.006" />
        <path d="M 120 301.534 L 130 301.534" />
        <path d="M 120 447.055 L 130 447.055" />
        <path d="M 120 792.669 L 130 792.669" />
        <path d="M 120 65.0615 L 130 65.0615" />
        <path d="M 120 647.147 L 130 647.147" />
        <path d="M 120 920 L 140 920" />
        <text font-size="30" transform="translate(110, 930)" text-anchor="end" dominant-baseline="middle" stroke="none" fill="black">0</text>
        <path d="M 120 392.485 L 130 392.485" />
        <path d="M 120 356.104 L 130 356.104" />
        <path d="M 120 210.583 L 130 210.583" />
        <path d="M 120 847.239 L 130 847.239" />
        <path d="M 120 519.816 L 130 519.816" />
        <path d="M 120 119.632 L 130 119.632" />
        <path d="M 120 738.098 L 140 738.098" />
        <text font-size="30" transform="translate(110, 748.098)" text-anchor="end" dominant-baseline="middle" stroke="none" fill="black">10000</text>
        <path d="M 120 556.196 L 140 556.196" />
        <text font-size="30" transform="translate(110, 566.196)" text-anchor="end" dominant-baseline="middle" stroke="none" fill="black">20000</text>
        <path d="M 120 756.288 L 130 756.288" />
        <path d="M 120 265.153 L 130 265.153" />
        <path d="M 120 665.337 L 130 665.337" />
        <path d="M 120 829.049 L 130 829.049" />
        <path d="M 120 174.203 L 130 174.203" />
        <path d="M 120 574.387 L 130 574.387" />
        <path d="M 120 319.724 L 130 319.724" />
        <path d="M 120 774.479 L 130 774.479" />
        <path d="M 120 410.675 L 130 410.675" />
        <path d="M 120 465.245 L 130 465.245" />
        <path d="M 120 683.528 L 130 683.528" />
        <path d="M 120 228.773 L 130 228.773" />
        <path d="M 120 374.295 L 140 374.295" />
        <text font-size="30" transform="translate(110, 384.295)" text-anchor="end" dominant-baseline="middle" stroke="none" fill="black">30000</text>
        <path d="M 120 883.62 L 130 883.62" />
        <path d="M 120 865.429 L 130 865.429" />
        <path d="M 120 137.822 L 130 137.822" />
        <path d="M 120 501.626 L 130 501.626" />
        <path d="M 120 283.344 L 130 283.344" />
        <path d="M 120 701.718 L 130 701.718" />
        <path d="M 120 592.577 L 130 592.577" />
        <path d="M 120 901.81 L 130 901.81" />
        <path d="M 120 156.012 L 130 156.012" />
        <path d="M 120 337.914 L 130 337.914" />
        <path d="M 120 810.859 L 130 810.859" />
        <path d="M 120 610.767 L 130 610.767" />
        <path d="M 120 192.393 L 140 192.393" />
        <text font-size="30" transform="translate(110, 202.393)" text-anchor="end" dominant-baseline="middle" stroke="none" fill="black">40000</text>
        <path d="M 120 101.442 L 130 101.442" />
        <path d="M 120 719.908 L 130 719.908" />
        <path d="M 120 246.963 L 130 246.963" />
        <path d="M 120 83.2517 L 130 83.2517" />
    </g>
    <text id="frame_0_toplabel" font-size="30" transform="translate(535, 32.6)" text-anchor="middle" dominant-baseline="middle" stroke="none" fill="black">m.link.logit</text>
    <g id="frame_0_topticks">
        <path d="M 120 50 L 120 70" />
        <path d="M 136.6 50 L 136.6 60" />
        <path d="M 153.2 50 L 153.2 60" />
        <path d="M 169.8 50 L 169.8 60" />
        <path d="M 186.4 50 L 186.4 60" />
        <path d="M 203 50 L 203 60" />
        <path d="M 219.6 50 L 219.6 60" />
        <path d="M 236.2 50 L 236.2 60" />
        <path d="M 252.8 50 L 252.8 60" />
        <path d="M 269.4 50 L 269.4 60" />
        <path d="M 286 50 L 286 70" />
        <path d="M 302.6 50 L 302.6 60" />
        <path d="M 319.2 50 L 319.2 60" />
        <path d="M 335.8 50 L 335.8 60" />
        <path d="M 352.4 50 L 352.4 60" />
        <path d="M 369 50 L 369 60" />
        <path d="M 385.6 50 L 385.6 60" />
        <path d="M 402.2 50 L 402.2 60" />
        <path d="M 418.8 50 L 418.8 60" />
        <path d="M 435.4 50 L 435.4 60" />
        <path d="M 452 50 L 452 70" />
        <path d="M 468.6 50 L 468.6 60" />
        <path d="M 485.2 50 L 485.2 60" />
        <path d="M 501.8 50 L 501.8 60" />
        <path d="M 518.4 50 L 518.4 60" />
        <path d="M 535 50 L 535 60" />
        <path d="M 551.6 50 L 551.6 60" />
        <path d="M 568.2 50 L 568.2 60" />
        <path d="M 584.8 50 L 584.8 60" />
        <path d="M 601.4 50 L 601.4 60" />
        <path d="M 618 50 L 618 70" />
        <path d="M 634.6 50 L 634.6 60" />
        <path d="M 651.2 50 L 651.2 60" />
        <path d="M 667.8 50 L 667.8 60" />
        <path d="M 684.4 50 L 684.4 60" />
        <path d="M 701 50 L 701 60" />
        <path d="M 717.6 50 L 717.6 60" />
        <path d="M 734.2 50 L 734.2 60" />
        <path d="M 750.8 50 L 750.8 60" />
        <path d="M 767.4 50 L 767.4 60" />
        <path d="M 784 50 L 784 70" />
        <path d="M 800.6 50 L 800.6 60" />
        <path d="M 817.2 50 L 817.2 60" />
        <path d="M 833.8 50 L 833.8 60" />
        <path d="M 850.4 50 L 850.4 60" />
        <path d="M 867 50 L 867 60" />
        <path d="M 883.6 50 L 883.6 60" />
        <path d="M 900.2 50 L 900.2 60" />
        <path d="M 916.8 50 L 916.8 60" />
        <path d="M 933.4 50 L 933.4 60" />
        <path d="M 950 50 L 950 70" />
    </g>
    <g id="frame_0_rightticks">
        <path d="M 950 628.957 L 940 628.957" />
        <path d="M 950 483.436 L 940 483.436" />
        <path d="M 950 428.865 L 940 428.865" />
        <path d="M 950 538.006 L 940 538.006" />
        <path d="M 950 301.534 L 940 301.534" />
        <path d="M 950 447.055 L 940 447.055" />
        <path d="M 950 792.669 L 940 792.669" />
        <path d="M 950 65.0615 L 940 65.0615" />
        <path d="M 950 647.147 L 940 647.147" />
        <path d="M 950 920 L 930 920" />
        <path d="M 950 392.485 L 940 392.485" />
        <path d="M 950 356.104 L 940 356.104" />
        <path d="M 950 210.583 L 940 210.583" />
        <path d="M 950 847.239 L 940 847.239" />
        <path d="M 950 519.816 L 940 519.816" />
        <path d="M 950 119.632 L 940 119.632" />
        <path d="M 950 738.098 L 930 738.098" />
        <path d="M 950 556.196 L 930 556.196" />
        <path d="M 950 756.288 L 940 756.288" />
        <path d="M 950 265.153 L 940 265.153" />
        <path d="M 950 665.337 L 940 665.337" />
        <path d="M 950 829.049 L 940 829.049" />
        <path d="M 950 174.203 L 940 174.203" />
        <path d="M 950 574.387 L 940 574.387" />
        <path d="M 950 319.724 L 940 319.724" />
        <path d="M 950 774.479 L 940 774.479" />
        <path d="M 950 410.675 L 940 410.675" />
        <path d="M 950 465.245 L 940 465.245" />
        <path d="M 950 683.528 L 940 683.528" />
        <path d="M 950 228.773 L 940 228.773" />
        <path d="M 950 374.295 L 930 374.295" />
        <path d="M 950 883.62 L 940 883.62" />
        <path d="M 950 865.429 L 940 865.429" />
        <path d="M 950 137.822 L 940 137.822" />
        <path d="M 950 501.626 L 940 501.626" />
        <path d="M 950 283.344 L 940 283.344" />
        <path d="M 950 701.718 L 940 701.718" />
        <path d="M 950 592.577 L 940 592.577" />
        <path d="M 950 901.81 L 940 901.81" />
        <path d="M 950 156.012 L 940 156.012" />
        <path d="M 950 337.914 L 940 337.914" />
        <path d="M 950 810.859 L 940 810.859" />
        <path d="M 950 610.767 L 940 610.767" />
        <path d="M 950 192.393 L 930 192.393" />
        <path d="M 950 101.442 L 940 101.442" />
        <path d="M 950 719.908 L 940 719.908" />
        <path d="M 950 246.963 L 940 246.963" />
        <path d="M 950 83.2517 L 940 83.2517" />
    </g>
</g>
</g>
</svg>
