<?xml version="1.0" standalone="no"?>
<!DOCTYPE svg PUBLIC "-//W3C//DTD SVG 1.1//EN" "http://www.w3.org/Graphics/SVG/1.1/DTD/svg11.dtd">
<svg style="stroke-linejoin:miter; stroke:black; stroke-width:2.5; text-anchor:middle; fill:none" xmlns="http://www.w3.org/2000/svg" font-family="Helvetica, Arial, FreeSans, Sans, sans, sans-serif" width="1000px" height="1000px" version="1.1" xmlns:xlink="http://www.w3.org/1999/xlink" viewBox="0 0 1000 1000">
<defs>
    <clipPath id="Histogram_0_clip">
        <rect x="120" y="50" width="830" height="870" />
    </clipPath>
    <clipPath id="Histogram_1_clip">
        <rect x="120" y="50" width="830" height="870" />
    </clipPath>
</defs>
<g id="whole_document">
<rect id="background" x="0" y="0" width="1000" height="1000" stroke="none" fill="white" />
<g id="Histogram_0" clip-path="url(#Histogram_0_clip)">
    <path d="M 120 920 L 120 129.091 L 161.5 129.091 L 161.5 634.939 L 203 634.939 L 203 917.118 L 244.5 917.118 L 244.5 531.809 L 286 531.809 L 286 918.468 L 327.5 918.468 L 327.5 919.351 L 369 919.351 L 369 919.011 L 410.5 919.011 L 410.5 919.887 L 452 919.887 L 452 919.794 L 493.5 919.794 L 493.5 919.903 L 535 919.903 L 535 920 L 576.5 920 L 576.5 920 L 618 920 L 618 920 L 659.5 920 L 659.5 920 L 701 920 L 701 920 L 742.5 920 L 742.5 920 L 784 920 L 784 920 L 825.5 920 L 825.5 920 L 867 920 L 867 920 L 908.5 920 L 908.5 920 L 950 920 L 950 920" stroke-width="3" stroke-dasharray="" stroke="black" stroke-opacity="1" fill="DodgerBlue" fill-opacity="1" />
</g>
<g id="Histogram_1" clip-path="url(#Histogram_1_clip)">
    <path d="M 120 920 L 120 920 L 161.5 920 L 161.5 920 L 203 920 L 203 920 L 244.5 920 L 244.5 531.809 L 286 531.809 L 286 918.468 L 327.5 918.468 L 327.5 919.351 L 369 919.351 L 369 919.011 L 410.5 919.011 L 410.5 919.887 L 452 919.887 L 452 919.794 L 493.5 919.794 L 493.5 919.903 L 535 919.903 L 535 920 L 576.5 920 L 576.5 920 L 618 920 L 618 920 L 659.5 920 L 659.5 920 L 701 920 L 701 920 L 742.5 920 L 742.5 920 L 784 920 L 784 920 L 825.5 920 L 825.5 920 L 867 920 L 867 920 L 908.5 920 L 908.5 920 L 950 920 L 950 920" stroke-width="3" stroke-dasharray="" stroke="black" stroke-opacity="1" fill="darkorange" fill-opacity="1" />
</g>
<g id="frame_0">
    <rect id="frame_0_border" x="120" y="50" width="830" height="870" />
    <text id="frame_0_bottomlabel" font-size="30" transform="translate(535, 989.6)" text-anchor="middle" dominant-baseline="middle" stroke="none" fill="black">microseconds</text>
    <g id="frame_0_bottomticks">
        <path d="M 120 920 L 120 900" />
        <text font-size="30" transform="translate(120, 950)" text-anchor="middle" dominant-baseline="middle" stroke="none" fill="black">0</text>
        <path d="M 136.6 920 L 136.6 910" />
        <path d="M 153.2 920 L 153.2 910" />
        <path d="M 169.8 920 L 169.8 910" />
        <path d="M 186.4 920 L 186.4 910" />
        <path d="M 203 920 L 203 910" />
        <path d="M 219.6 920 L 219.6 910" />
        <path d="M 236.2 920 L 236.2 910" />
        <path d="M 252.8 920 L 252.8 910" />
        <path d="M 269.4 920 L 269.4 910" />
        <path d="M 286 920 L 286 900" />
        <text font-size="30" transform="translate(286, 950)" text-anchor="middle" dominant-baseline="middle" stroke="none" fill="black">10</text>
        <path d="M 302.6 920 L 302.6 910" />
        <path d="M 319.2 920 L 319.2 910" />
        <path d="M 335.8 920 L 335.8 910" />
        <path d="M 352.4 920 L 352.4 910" />
        <path d="M 369 920 L 369 910" />
        <path d="M 385.6 920 L 385.6 910" />
        <path d="M 402.2 920 L 402.2 910" />
        <path d="M 418.8 920 L 418.8 910" />
        <path d="M 435.4 920 L 435.4 910" />
        <path d="M 452 920 L 452 900" />
        <text font-size="30" transform="translate(452, 950)" text-anchor="middle" dominant-baseline="middle" stroke="none" fill="black">20</text>
        <path d="M 468.6 920 L 468.6 910" />
        <path d="M 485.2 920 L 485.2 910" />
        <path d="M 501.8 920 L 501.8 910" />
        <path d="M 518.4 920 L 518.4 910" />
        <path d="M 535 920 L 535 910" />
        <path d="M 551.6 920 L 551.6 910" />
        <path d="M 568.2 920 L 568.2 910" />
        <path d="M 584.8 920 L 584.8 910" />
        <path d="M 601.4 920 L 601.4 910" />
        <path d="M 618 920 L 618 900" />
        <text font-size="30" transform="translate(618, 950)" text-anchor="middle" dominant-baseline="middle" stroke="none" fill="black">30</text>
        <path d="M 634.6 920 L 634.6 910" />
        <path d="M 651.2 920 L 651.2 910" />
        <path d="M 667.8 920 L 667.8 910" />
        <path d="M 684.4 920 L 684.4 910" />
        <path d="M 701 920 L 701 910" />
        <path d="M 717.6 920 L 717.6 910" />
        <path d="M 734.2 920 L 734.2 910" />
        <path d="M 750.8 920 L 750.8 910" />
        <path d="M 767.4 920 L 767.4 910" />
        <path d="M 784 920 L 784 900" />
        <text font-size="30" transform="translate(784, 950)" text-anchor="middle" dominant-baseline="middle" stroke="none" fill="black">40</text>
        <path d="M 800.6 920 L 800.6 910" />
        <path d="M 817.2 920 L 817.2 910" />
        <path d="M 833.8 920 L 833.8 910" />
        <path d="M 850.4 920 L 850.4 910" />
        <path d="M 867 920 L 867 910" />
        <path d="M 883.6 920 L 883.6 910" />
        <path d="M 900.2 920 L 900.2 910" />
        <path d="M 916.8 920 L 916.8 910" />
        <path d="M 933.4 920 L 933.4 910" />
        <path d="M 950 920 L 950 900" />
        <text font-size="30" transform="translate(950, 950)" text-anchor="middle" dominant-baseline="middle" stroke="none" fill="black">50</text>
    </g>
    <g id="frame_0_leftticks">
        <path d="M 120 746.898 L 130 746.898" />
        <path d="M 120 660.346 L 130 660.346" />
        <path d="M 120 920 L 140 920" />
        <text font-size="30" transform="translate(110, 930)" text-anchor="end" dominant-baseline="middle" stroke="none" fill="black">0</text>
        <path d="M 120 465.606 L 130 465.606" />
        <path d="M 120 573.795 L 130 573.795" />
        <path d="M 120 725.26 L 130 725.26" />
        <path d="M 120 227.59 L 130 227.59" />
        <path d="M 120 335.779 L 130 335.779" />
        <path d="M 120 898.362 L 130 898.362" />
        <path d="M 120 876.724 L 130 876.724" />
        <path d="M 120 681.984 L 130 681.984" />
        <path d="M 120 97.7637 L 130 97.7637" />
        <path d="M 120 205.953 L 130 205.953" />
        <path d="M 120 855.087 L 130 855.087" />
        <path d="M 120 811.811 L 140 811.811" />
        <text font-size="30" transform="translate(110, 821.811)" text-anchor="end" dominant-baseline="middle" stroke="none" fill="black">50000</text>
        <path d="M 120 314.142 L 130 314.142" />
        <path d="M 120 422.331 L 130 422.331" />
        <path d="M 120 119.402 L 130 119.402" />
        <path d="M 120 530.52 L 130 530.52" />
        <path d="M 120 833.449 L 130 833.449" />
        <path d="M 120 357.417 L 130 357.417" />
        <path d="M 120 76.1259 L 130 76.1259" />
        <path d="M 120 184.315 L 130 184.315" />
        <path d="M 120 292.504 L 130 292.504" />
        <path d="M 120 638.709 L 130 638.709" />
        <path d="M 120 400.693 L 130 400.693" />
        <path d="M 120 508.882 L 130 508.882" />
        <path d="M 120 54.4881 L 140 54.4881" />
        <text font-size="30" transform="translate(110, 64.4881)" text-anchor="end" dominant-baseline="middle" stroke="none" fill="black">400000</text>
        <path d="M 120 617.071 L 130 617.071" />
        <path d="M 120 162.677 L 140 162.677" />
        <text font-size="30" transform="translate(110, 172.677)" text-anchor="end" dominant-baseline="middle" stroke="none" fill="black">350000</text>
        <path d="M 120 790.173 L 130 790.173" />
        <path d="M 120 552.157 L 130 552.157" />
        <path d="M 120 270.866 L 140 270.866" />
        <text font-size="30" transform="translate(110, 280.866)" text-anchor="end" dominant-baseline="middle" stroke="none" fill="black">300000</text>
        <path d="M 120 379.055 L 140 379.055" />
        <text font-size="30" transform="translate(110, 389.055)" text-anchor="end" dominant-baseline="middle" stroke="none" fill="black">250000</text>
        <path d="M 120 768.535 L 130 768.535" />
        <path d="M 120 487.244 L 140 487.244" />
        <text font-size="30" transform="translate(110, 497.244)" text-anchor="end" dominant-baseline="middle" stroke="none" fill="black">200000</text>
        <path d="M 120 595.433 L 140 595.433" />
        <text font-size="30" transform="translate(110, 605.433)" text-anchor="end" dominant-baseline="middle" stroke="none" fill="black">150000</text>
        <path d="M 120 141.039 L 130 141.039" />
        <path d="M 120 703.622 L 140 703.622" />
        <text font-size="30" transform="translate(110, 713.622)" text-anchor="end" dominant-baseline="middle" stroke="none" fill="black">100000</text>
        <path d="M 120 443.968 L 130 443.968" />
        <path d="M 120 249.228 L 130 249.228" />
    </g>
    <text id="frame_0_toplabel" font-size="30" transform="translate(535, 32.6)" text-anchor="middle" dominant-baseline="middle" stroke="none" fill="black">a.insert</text>
    <g id="frame_0_topticks">
        <path d="M 120 50 L 120 70" />
        <path d="M 136.6 50 L 136.6 60" />
        <path d="M 153.2 50 L 153.2 60" />
        <path d="M 169.8 50 L 169.8 60" />
        <path d="M 186.4 50 L 186.4 60" />
        <path d="M 203 50 L 203 60" />
        <path d="M 219.6 50 L 219.6 60" />
        <path d="M 236.2 50 L 236.2 60" />
        <path d="M 252.8 50 L 252.8 60" />
        <path d="M 269.4 50 L 269.4 60" />
        <path d="M 286 50 L 286 70" />
        <path d="M 302.6 50 L 302.6 60" />
        <path d="M 319.2 50 L 319.2 60" />
        <path d="M 335.8 50 L 335.8 60" />
        <path d="M 352.4 50 L 352.4 60" />
        <path d="M 369 50 L 369 60" />
        <path d="M 385.6 50 L 385.6 60" />
        <path d="M 402.2 50 L 402.2 60" />
        <path d="M 418.8 50 L 418.8 60" />
        <path d="M 435.4 50 L 435.4 60" />
        <path d="M 452 50 L 452 70" />
        <path d="M 468.6 50 L 468.6 60" />
        <path d="M 485.2 50 L 485.2 60" />
        <path d="M 501.8 50 L 501.8 60" />
        <path d="M 518.4 50 L 518.4 60" />
        <path d="M 535 50 L 535 60" />
        <path d="M 551.6 50 L 551.6 60" />
        <path d="M 568.2 50 L 568.2 60" />
        <path d="M 584.8 50 L 584.8 60" />
        <path d="M 601.4 50 L 601.4 60" />
        <path d="M 618 50 L 618 70" />
        <path d="M 634.6 50 L 634.6 60" />
        <path d="M 651.2 50 L 651.2 60" />
        <path d="M 667.8 50 L 667.8 60" />
        <path d="M 684.4 50 L 684.4 60" />
        <path d="M 701 50 L 701 60" />
        <path d="M 717.6 50 L 717.6 60" />
        <path d="M 734.2 50 L 734.2 60" />
        <path d="M 750.8 50 L 750.8 60" />
        <path d="M 767.4 50 L 767.4 60" />
        <path d="M 784 50 L 784 70" />
        <path d="M 800.6 50 L 800.6 60" />
        <path d="M 817.2 50 L 817.2 60" />
        <path d="M 833.8 50 L 833.8 60" />
        <path d="M 850.4 50 L 850.4 60" />
        <path d="M 867 50 L 867 60" />
        <path d="M 883.6 50 L 883.6 60" />
        <path d="M 900.2 50 L 900.2 60" />
        <path d="M 916.8 50 L 916.8 60" />
        <path d="M 933.4 50 L 933.4 60" />
        <path d="M 950 50 L 950 70" />
    </g>
    <g id="frame_0_rightticks">
        <path d="M 950 746.898 L 940 746.898" />
        <path d="M 950 660.346 L 940 660.346" />
        <path d="M 950 920 L 930 920" />
        <path d="M 950 465.606 L 940 465.606" />
        <path d="M 950 573.795 L 940 573.795" />
        <path d="M 950 725.26 L 940 725.26" />
        <path d="M 950 227.59 L 940 227.59" />
        <path d="M 950 335.779 L 940 335.779" />
        <path d="M 950 898.362 L 940 898.362" />
        <path d="M 950 876.724 L 940 876.724" />
        <path d="M 950 681.984 L 940 681.984" />
        <path d="M 950 97.7637 L 940 97.7637" />
        <path d="M 950 205.953 L 940 205.953" />
        <path d="M 950 855.087 L 940 855.087" />
        <path d="M 950 811.811 L 930 811.811" />
        <path d="M 950 314.142 L 940 314.142" />
        <path d="M 950 422.331 L 940 422.331" />
        <path d="M 950 119.402 L 940 119.402" />
        <path d="M 950 530.52 L 940 530.52" />
        <path d="M 950 833.449 L 940 833.449" />
        <path d="M 950 357.417 L 940 357.417" />
        <path d="M 950 76.1259 L 940 76.1259" />
        <path d="M 950 184.315 L 940 184.315" />
        <path d="M 950 292.504 L 940 292.504" />
        <path d="M 950 638.709 L 940 638.709" />
        <path d="M 950 400.693 L 940 400.693" />
        <path d="M 950 508.882 L 940 508.882" />
        <path d="M 950 54.4881 L 930 54.4881" />
        <path d="M 950 617.071 L 940 617.071" />
        <path d="M 950 162.677 L 930 162.677" />
        <path d="M 950 790.173 L 940 790.173" />
        <path d="M 950 552.157 L 940 552.157" />
        <path d="M 950 270.866 L 930 270.866" />
        <path d="M 950 379.055 L 930 379.055" />
        <path d="M 950 768.535 L 940 768.535" />
        <path d="M 950 487.244 L 930 487.244" />
        <path d="M 950 595.433 L 930 595.433" />
        <path d="M 950 141.039 L 940 141.039" />
        <path d="M 950 703.622 L 930 703.622" />
        <path d="M 950 443.968 L 940 443.968" />
        <path d="M 950 249.228 L 940 249.228" />
    </g>
</g>
</g>
</svg>
