<?xml version="1.0" standalone="no"?>
<!DOCTYPE svg PUBLIC "-//W3C//DTD SVG 1.1//EN" "http://www.w3.org/Graphics/SVG/1.1/DTD/svg11.dtd">
<svg style="stroke-linejoin:miter; stroke:black; stroke-width:2.5; text-anchor:middle; fill:none" xmlns="http://www.w3.org/2000/svg" font-family="Helvetica, Arial, FreeSans, Sans, sans, sans-serif" width="1000px" height="1000px" version="1.1" xmlns:xlink="http://www.w3.org/1999/xlink" viewBox="0 0 1000 1000">
<defs>
    <clipPath id="Histogram_0_clip">
        <rect x="120" y="50" width="830" height="870" />
    </clipPath>
</defs>
<g id="whole_document">
<rect id="background" x="0" y="0" width="1000" height="1000" stroke="none" fill="white" />
<g id="Histogram_0" clip-path="url(#Histogram_0_clip)">
    <path d="M 120 920 L 120 920 L 161.5 920 L 161.5 129.091 L 203 129.091 L 203 920 L 244.5 920 L 244.5 920 L 286 920 L 286 920 L 327.5 920 L 327.5 920 L 369 920 L 369 920 L 410.5 920 L 410.5 920 L 452 920 L 452 920 L 493.5 920 L 493.5 920 L 535 920 L 535 920 L 576.5 920 L 576.5 920 L 618 920 L 618 920 L 659.5 920 L 659.5 920 L 701 920 L 701 920 L 742.5 920 L 742.5 920 L 784 920 L 784 920 L 825.5 920 L 825.5 920 L 867 920 L 867 920 L 908.5 920 L 908.5 920 L 950 920 L 950 920" stroke-width="3" stroke-dasharray="" stroke="black" stroke-opacity="1" fill="DodgerBlue" fill-opacity="1" />
</g>
<g id="frame_0">
    <rect id="frame_0_border" x="120" y="50" width="830" height="870" />
    <text id="frame_0_bottomlabel" font-size="30" transform="translate(535, 989.6)" text-anchor="middle" dominant-baseline="middle" stroke="none" fill="black">microseconds</text>
    <g id="frame_0_bottomticks">
        <path d="M 120 920 L 120 900" />
        <text font-size="30" transform="translate(120, 950)" text-anchor="middle" dominant-baseline="middle" stroke="none" fill="black">0</text>
        <path d="M 136.6 920 L 136.6 910" />
        <path d="M 153.2 920 L 153.2 910" />
        <path d="M 169.8 920 L 169.8 910" />
        <path d="M 186.4 920 L 186.4 910" />
        <path d="M 203 920 L 203 910" />
        <path d="M 219.6 920 L 219.6 910" />
        <path d="M 236.2 920 L 236.2 910" />
        <path d="M 252.8 920 L 252.8 910" />
        <path d="M 269.4 920 L 269.4 910" />
        <path d="M 286 920 L 286 900" />
        <text font-size="30" transform="translate(286, 950)" text-anchor="middle" dominant-baseline="middle" stroke="none" fill="black">10</text>
        <path d="M 302.6 920 L 302.6 910" />
        <path d="M 319.2 920 L 319.2 910" />
        <path d="M 335.8 920 L 335.8 910" />
        <path d="M 352.4 920 L 352.4 910" />
        <path d="M 369 920 L 369 910" />
        <path d="M 385.6 920 L 385.6 910" />
        <path d="M 402.2 920 L 402.2 910" />
        <path d="M 418.8 920 L 418.8 910" />
        <path d="M 435.4 920 L 435.4 910" />
        <path d="M 452 920 L 452 900" />
        <text font-size="30" transform="translate(452, 950)" text-anchor="middle" dominant-baseline="middle" stroke="none" fill="black">20</text>
        <path d="M 468.6 920 L 468.6 910" />
        <path d="M 485.2 920 L 485.2 910" />
        <path d="M 501.8 920 L 501.8 910" />
        <path d="M 518.4 920 L 518.4 910" />
        <path d="M 535 920 L 535 910" />
        <path d="M 551.6 920 L 551.6 910" />
        <path d="M 568.2 920 L 568.2 910" />
        <path d="M 584.8 920 L 584.8 910" />
        <path d="M 601.4 920 L 601.4 910" />
        <path d="M 618 920 L 618 900" />
        <text font-size="30" transform="translate(618, 950)" text-anchor="middle" dominant-baseline="middle" stroke="none" fill="black">30</text>
        <path d="M 634.6 920 L 634.6 910" />
        <path d="M 651.2 920 L 651.2 910" />
        <path d="M 667.8 920 L 667.8 910" />
        <path d="M 684.4 920 L 684.4 910" />
        <path d="M 701 920 L 701 910" />
        <path d="M 717.6 920 L 717.6 910" />
        <path d="M 734.2 920 L 734.2 910" />
        <path d="M 750.8 920 L 750.8 910" />
        <path d="M 767.4 920 L 767.4 910" />
        <path d="M 784 920 L 784 900" />
        <text font-size="30" transform="translate(784, 950)" text-anchor="middle" dominant-baseline="middle" stroke="none" fill="black">40</text>
        <path d="M 800.6 920 L 800.6 910" />
        <path d="M 817.2 920 L 817.2 910" />
        <path d="M 833.8 920 L 833.8 910" />
        <path d="M 850.4 920 L 850.4 910" />
        <path d="M 867 920 L 867 910" />
        <path d="M 883.6 920 L 883.6 910" />
        <path d="M 900.2 920 L 900.2 910" />
        <path d="M 916.8 920 L 916.8 910" />
        <path d="M 933.4 920 L 933.4 910" />
        <path d="M 950 920 L 950 900" />
        <text font-size="30" transform="translate(950, 950)" text-anchor="middle" dominant-baseline="middle" stroke="none" fill="black">50</text>
    </g>
    <g id="frame_0_leftticks">
        <path d="M 120 233.931 L 130 233.931" />
        <path d="M 120 920 L 140 920" />
        <text font-size="30" transform="translate(110, 930)" text-anchor="end" dominant-baseline="middle" stroke="none" fill="black">0</text>
        <path d="M 120 727.043 L 130 727.043" />
        <path d="M 120 534.086 L 130 534.086" />
        <path d="M 120 169.612 L 140 169.612" />
        <text font-size="30" transform="translate(110, 179.612)" text-anchor="end" dominant-baseline="middle" stroke="none" fill="black">3500</text>
        <path d="M 120 341.129 L 130 341.129" />
        <path d="M 120 834.241 L 130 834.241" />
        <path d="M 120 105.293 L 130 105.293" />
        <path d="M 120 641.284 L 130 641.284" />
        <path d="M 120 448.327 L 130 448.327" />
        <path d="M 120 255.371 L 130 255.371" />
        <path d="M 120 748.483 L 130 748.483" />
        <path d="M 120 555.526 L 130 555.526" />
        <path d="M 120 362.569 L 130 362.569" />
        <path d="M 120 855.681 L 130 855.681" />
        <path d="M 120 662.724 L 130 662.724" />
        <path d="M 120 191.052 L 130 191.052" />
        <path d="M 120 469.767 L 130 469.767" />
        <path d="M 120 276.81 L 140 276.81" />
        <text font-size="30" transform="translate(110, 286.81)" text-anchor="end" dominant-baseline="middle" stroke="none" fill="black">3000</text>
        <path d="M 120 812.802 L 140 812.802" />
        <text font-size="30" transform="translate(110, 822.802)" text-anchor="end" dominant-baseline="middle" stroke="none" fill="black">500</text>
        <path d="M 120 769.922 L 130 769.922" />
        <path d="M 120 576.965 L 130 576.965" />
        <path d="M 120 62.4136 L 140 62.4136" />
        <text font-size="30" transform="translate(110, 72.4136)" text-anchor="end" dominant-baseline="middle" stroke="none" fill="black">4000</text>
        <path d="M 120 384.008 L 140 384.008" />
        <text font-size="30" transform="translate(110, 394.008)" text-anchor="end" dominant-baseline="middle" stroke="none" fill="black">2500</text>
        <path d="M 120 877.121 L 130 877.121" />
        <path d="M 120 684.164 L 130 684.164" />
        <path d="M 120 491.207 L 140 491.207" />
        <text font-size="30" transform="translate(110, 501.207)" text-anchor="end" dominant-baseline="middle" stroke="none" fill="black">2000</text>
        <path d="M 120 298.25 L 130 298.25" />
        <path d="M 120 791.362 L 130 791.362" />
        <path d="M 120 212.491 L 130 212.491" />
        <path d="M 120 598.405 L 140 598.405" />
        <text font-size="30" transform="translate(110, 608.405)" text-anchor="end" dominant-baseline="middle" stroke="none" fill="black">1500</text>
        <path d="M 120 405.448 L 130 405.448" />
        <path d="M 120 148.172 L 130 148.172" />
        <path d="M 120 898.56 L 130 898.56" />
        <path d="M 120 705.603 L 140 705.603" />
        <text font-size="30" transform="translate(110, 715.603)" text-anchor="end" dominant-baseline="middle" stroke="none" fill="black">1000</text>
        <path d="M 120 83.8532 L 130 83.8532" />
        <path d="M 120 512.646 L 130 512.646" />
        <path d="M 120 319.689 L 130 319.689" />
        <path d="M 120 126.733 L 130 126.733" />
        <path d="M 120 619.845 L 130 619.845" />
        <path d="M 120 426.888 L 130 426.888" />
    </g>
    <text id="frame_0_toplabel" font-size="30" transform="translate(535, 32.6)" text-anchor="middle" dominant-baseline="middle" stroke="none" fill="black">rand.uuid4</text>
    <g id="frame_0_topticks">
        <path d="M 120 50 L 120 70" />
        <path d="M 136.6 50 L 136.6 60" />
        <path d="M 153.2 50 L 153.2 60" />
        <path d="M 169.8 50 L 169.8 60" />
        <path d="M 186.4 50 L 186.4 60" />
        <path d="M 203 50 L 203 60" />
        <path d="M 219.6 50 L 219.6 60" />
        <path d="M 236.2 50 L 236.2 60" />
        <path d="M 252.8 50 L 252.8 60" />
        <path d="M 269.4 50 L 269.4 60" />
        <path d="M 286 50 L 286 70" />
        <path d="M 302.6 50 L 302.6 60" />
        <path d="M 319.2 50 L 319.2 60" />
        <path d="M 335.8 50 L 335.8 60" />
        <path d="M 352.4 50 L 352.4 60" />
        <path d="M 369 50 L 369 60" />
        <path d="M 385.6 50 L 385.6 60" />
        <path d="M 402.2 50 L 402.2 60" />
        <path d="M 418.8 50 L 418.8 60" />
        <path d="M 435.4 50 L 435.4 60" />
        <path d="M 452 50 L 452 70" />
        <path d="M 468.6 50 L 468.6 60" />
        <path d="M 485.2 50 L 485.2 60" />
        <path d="M 501.8 50 L 501.8 60" />
        <path d="M 518.4 50 L 518.4 60" />
        <path d="M 535 50 L 535 60" />
        <path d="M 551.6 50 L 551.6 60" />
        <path d="M 568.2 50 L 568.2 60" />
        <path d="M 584.8 50 L 584.8 60" />
        <path d="M 601.4 50 L 601.4 60" />
        <path d="M 618 50 L 618 70" />
        <path d="M 634.6 50 L 634.6 60" />
        <path d="M 651.2 50 L 651.2 60" />
        <path d="M 667.8 50 L 667.8 60" />
        <path d="M 684.4 50 L 684.4 60" />
        <path d="M 701 50 L 701 60" />
        <path d="M 717.6 50 L 717.6 60" />
        <path d="M 734.2 50 L 734.2 60" />
        <path d="M 750.8 50 L 750.8 60" />
        <path d="M 767.4 50 L 767.4 60" />
        <path d="M 784 50 L 784 70" />
        <path d="M 800.6 50 L 800.6 60" />
        <path d="M 817.2 50 L 817.2 60" />
        <path d="M 833.8 50 L 833.8 60" />
        <path d="M 850.4 50 L 850.4 60" />
        <path d="M 867 50 L 867 60" />
        <path d="M 883.6 50 L 883.6 60" />
        <path d="M 900.2 50 L 900.2 60" />
        <path d="M 916.8 50 L 916.8 60" />
        <path d="M 933.4 50 L 933.4 60" />
        <path d="M 950 50 L 950 70" />
    </g>
    <g id="frame_0_rightticks">
        <path d="M 950 233.931 L 940 233.931" />
        <path d="M 950 920 L 930 920" />
        <path d="M 950 727.043 L 940 727.043" />
        <path d="M 950 534.086 L 940 534.086" />
        <path d="M 950 169.612 L 930 169.612" />
        <path d="M 950 341.129 L 940 341.129" />
        <path d="M 950 834.241 L 940 834.241" />
        <path d="M 950 105.293 L 940 105.293" />
        <path d="M 950 641.284 L 940 641.284" />
        <path d="M 950 448.327 L 940 448.327" />
        <path d="M 950 255.371 L 940 255.371" />
        <path d="M 950 748.483 L 940 748.483" />
        <path d="M 950 555.526 L 940 555.526" />
        <path d="M 950 362.569 L 940 362.569" />
        <path d="M 950 855.681 L 940 855.681" />
        <path d="M 950 662.724 L 940 662.724" />
        <path d="M 950 191.052 L 940 191.052" />
        <path d="M 950 469.767 L 940 469.767" />
        <path d="M 950 276.81 L 930 276.81" />
        <path d="M 950 812.802 L 930 812.802" />
        <path d="M 950 769.922 L 940 769.922" />
        <path d="M 950 576.965 L 940 576.965" />
        <path d="M 950 62.4136 L 930 62.4136" />
        <path d="M 950 384.008 L 930 384.008" />
        <path d="M 950 877.121 L 940 877.121" />
        <path d="M 950 684.164 L 940 684.164" />
        <path d="M 950 491.207 L 930 491.207" />
        <path d="M 950 298.25 L 940 298.25" />
        <path d="M 950 791.362 L 940 791.362" />
        <path d="M 950 212.491 L 940 212.491" />
        <path d="M 950 598.405 L 930 598.405" />
        <path d="M 950 405.448 L 940 405.448" />
        <path d="M 950 148.172 L 940 148.172" />
        <path d="M 950 898.56 L 940 898.56" />
        <path d="M 950 705.603 L 930 705.603" />
        <path d="M 950 83.8532 L 940 83.8532" />
        <path d="M 950 512.646 L 940 512.646" />
        <path d="M 950 319.689 L 940 319.689" />
        <path d="M 950 126.733 L 940 126.733" />
        <path d="M 950 619.845 L 940 619.845" />
        <path d="M 950 426.888 L 940 426.888" />
    </g>
</g>
</g>
</svg>
