<?xml version="1.0" standalone="no"?>
<!DOCTYPE svg PUBLIC "-//W3C//DTD SVG 1.1//EN" "http://www.w3.org/Graphics/SVG/1.1/DTD/svg11.dtd">
<svg style="stroke-linejoin:miter; stroke:black; stroke-width:2.5; text-anchor:middle; fill:none" xmlns="http://www.w3.org/2000/svg" font-family="Helvetica, Arial, FreeSans, Sans, sans, sans-serif" width="1000px" height="1000px" version="1.1" xmlns:xlink="http://www.w3.org/1999/xlink" viewBox="0 0 1000 1000">
<defs>
    <clipPath id="Histogram_0_clip">
        <rect x="120" y="50" width="830" height="870" />
    </clipPath>
    <clipPath id="Histogram_1_clip">
        <rect x="120" y="50" width="830" height="870" />
    </clipPath>
</defs>
<g id="whole_document">
<rect id="background" x="0" y="0" width="1000" height="1000" stroke="none" fill="white" />
<g id="Histogram_0" clip-path="url(#Histogram_0_clip)">
    <path d="M 120 920 L 120 129.091 L 161.5 129.091 L 161.5 920 L 203 920 L 203 920 L 244.5 920 L 244.5 920 L 286 920 L 286 298.46 L 327.5 298.46 L 327.5 920 L 369 920 L 369 920 L 410.5 920 L 410.5 920 L 452 920 L 452 920 L 493.5 920 L 493.5 920 L 535 920 L 535 920 L 576.5 920 L 576.5 920 L 618 920 L 618 920 L 659.5 920 L 659.5 920 L 701 920 L 701 920 L 742.5 920 L 742.5 920 L 784 920 L 784 920 L 825.5 920 L 825.5 920 L 867 920 L 867 920 L 908.5 920 L 908.5 920 L 950 920 L 950 920" stroke-width="3" stroke-dasharray="" stroke="black" stroke-opacity="1" fill="DodgerBlue" fill-opacity="1" />
</g>
<g id="Histogram_1" clip-path="url(#Histogram_1_clip)">
    <path d="M 120 920 L 120 920 L 161.5 920 L 161.5 920 L 203 920 L 203 920 L 244.5 920 L 244.5 920 L 286 920 L 286 298.46 L 327.5 298.46 L 327.5 920 L 369 920 L 369 920 L 410.5 920 L 410.5 920 L 452 920 L 452 920 L 493.5 920 L 493.5 920 L 535 920 L 535 920 L 576.5 920 L 576.5 920 L 618 920 L 618 920 L 659.5 920 L 659.5 920 L 701 920 L 701 920 L 742.5 920 L 742.5 920 L 784 920 L 784 920 L 825.5 920 L 825.5 920 L 867 920 L 867 920 L 908.5 920 L 908.5 920 L 950 920 L 950 920" stroke-width="3" stroke-dasharray="" stroke="black" stroke-opacity="1" fill="darkorange" fill-opacity="1" />
</g>
<g id="frame_0">
    <rect id="frame_0_border" x="120" y="50" width="830" height="870" />
    <text id="frame_0_bottomlabel" font-size="30" transform="translate(535, 989.6)" text-anchor="middle" dominant-baseline="middle" stroke="none" fill="black">microseconds</text>
    <g id="frame_0_bottomticks">
        <path d="M 120 920 L 120 900" />
        <text font-size="30" transform="translate(120, 950)" text-anchor="middle" dominant-baseline="middle" stroke="none" fill="black">0</text>
        <path d="M 136.6 920 L 136.6 910" />
        <path d="M 153.2 920 L 153.2 910" />
        <path d="M 169.8 920 L 169.8 910" />
        <path d="M 186.4 920 L 186.4 910" />
        <path d="M 203 920 L 203 910" />
        <path d="M 219.6 920 L 219.6 910" />
        <path d="M 236.2 920 L 236.2 910" />
        <path d="M 252.8 920 L 252.8 910" />
        <path d="M 269.4 920 L 269.4 910" />
        <path d="M 286 920 L 286 900" />
        <text font-size="30" transform="translate(286, 950)" text-anchor="middle" dominant-baseline="middle" stroke="none" fill="black">10</text>
        <path d="M 302.6 920 L 302.6 910" />
        <path d="M 319.2 920 L 319.2 910" />
        <path d="M 335.8 920 L 335.8 910" />
        <path d="M 352.4 920 L 352.4 910" />
        <path d="M 369 920 L 369 910" />
        <path d="M 385.6 920 L 385.6 910" />
        <path d="M 402.2 920 L 402.2 910" />
        <path d="M 418.8 920 L 418.8 910" />
        <path d="M 435.4 920 L 435.4 910" />
        <path d="M 452 920 L 452 900" />
        <text font-size="30" transform="translate(452, 950)" text-anchor="middle" dominant-baseline="middle" stroke="none" fill="black">20</text>
        <path d="M 468.6 920 L 468.6 910" />
        <path d="M 485.2 920 L 485.2 910" />
        <path d="M 501.8 920 L 501.8 910" />
        <path d="M 518.4 920 L 518.4 910" />
        <path d="M 535 920 L 535 910" />
        <path d="M 551.6 920 L 551.6 910" />
        <path d="M 568.2 920 L 568.2 910" />
        <path d="M 584.8 920 L 584.8 910" />
        <path d="M 601.4 920 L 601.4 910" />
        <path d="M 618 920 L 618 900" />
        <text font-size="30" transform="translate(618, 950)" text-anchor="middle" dominant-baseline="middle" stroke="none" fill="black">30</text>
        <path d="M 634.6 920 L 634.6 910" />
        <path d="M 651.2 920 L 651.2 910" />
        <path d="M 667.8 920 L 667.8 910" />
        <path d="M 684.4 920 L 684.4 910" />
        <path d="M 701 920 L 701 910" />
        <path d="M 717.6 920 L 717.6 910" />
        <path d="M 734.2 920 L 734.2 910" />
        <path d="M 750.8 920 L 750.8 910" />
        <path d="M 767.4 920 L 767.4 910" />
        <path d="M 784 920 L 784 900" />
        <text font-size="30" transform="translate(784, 950)" text-anchor="middle" dominant-baseline="middle" stroke="none" fill="black">40</text>
        <path d="M 800.6 920 L 800.6 910" />
        <path d="M 817.2 920 L 817.2 910" />
        <path d="M 833.8 920 L 833.8 910" />
        <path d="M 850.4 920 L 850.4 910" />
        <path d="M 867 920 L 867 910" />
        <path d="M 883.6 920 L 883.6 910" />
        <path d="M 900.2 920 L 900.2 910" />
        <path d="M 916.8 920 L 916.8 910" />
        <path d="M 933.4 920 L 933.4 910" />
        <path d="M 950 920 L 950 900" />
        <text font-size="30" transform="translate(950, 950)" text-anchor="middle" dominant-baseline="middle" stroke="none" fill="black">50</text>
    </g>
    <g id="frame_0_leftticks">
        <path d="M 120 502.771 L 130 502.771" />
        <path d="M 120 294.157 L 130 294.157" />
        <path d="M 120 802.654 L 130 802.654" />
        <path d="M 120 72.5043 L 130 72.5043" />
        <path d="M 120 920 L 140 920" />
        <text font-size="30" transform="translate(110, 930)" text-anchor="end" dominant-baseline="middle" stroke="none" fill="black">0</text>
        <path d="M 120 685.309 L 130 685.309" />
        <path d="M 120 463.656 L 130 463.656" />
        <path d="M 120 567.963 L 130 567.963" />
        <path d="M 120 867.846 L 130 867.846" />
        <path d="M 120 424.541 L 130 424.541" />
        <path d="M 120 124.658 L 130 124.658" />
        <path d="M 120 750.501 L 130 750.501" />
        <path d="M 120 633.155 L 130 633.155" />
        <path d="M 120 385.426 L 130 385.426" />
        <path d="M 120 515.81 L 130 515.81" />
        <path d="M 120 815.693 L 130 815.693" />
        <path d="M 120 346.311 L 130 346.311" />
        <path d="M 120 202.888 L 130 202.888" />
        <path d="M 120 698.347 L 130 698.347" />
        <path d="M 120 150.735 L 130 150.735" />
        <path d="M 120 581.002 L 130 581.002" />
        <path d="M 120 307.195 L 130 307.195" />
        <path d="M 120 880.885 L 130 880.885" />
        <path d="M 120 763.539 L 130 763.539" />
        <path d="M 120 476.695 L 130 476.695" />
        <path d="M 120 646.194 L 130 646.194" />
        <path d="M 120 659.232 L 140 659.232" />
        <text font-size="30" transform="translate(110, 669.232)" text-anchor="end" dominant-baseline="middle" stroke="none" fill="black">2000</text>
        <path d="M 120 111.619 L 130 111.619" />
        <path d="M 120 437.579 L 130 437.579" />
        <path d="M 120 828.731 L 130 828.731" />
        <path d="M 120 711.386 L 130 711.386" />
        <path d="M 120 189.85 L 130 189.85" />
        <path d="M 120 228.965 L 130 228.965" />
        <path d="M 120 594.04 L 130 594.04" />
        <path d="M 120 893.923 L 130 893.923" />
        <path d="M 120 359.349 L 130 359.349" />
        <path d="M 120 776.578 L 130 776.578" />
        <path d="M 120 255.042 L 130 255.042" />
        <path d="M 120 85.5427 L 130 85.5427" />
        <path d="M 120 242.003 L 130 242.003" />
        <path d="M 120 320.234 L 130 320.234" />
        <path d="M 120 398.464 L 140 398.464" />
        <text font-size="30" transform="translate(110, 408.464)" text-anchor="end" dominant-baseline="middle" stroke="none" fill="black">4000</text>
        <path d="M 120 541.887 L 130 541.887" />
        <path d="M 120 789.616 L 140 789.616" />
        <text font-size="30" transform="translate(110, 799.616)" text-anchor="end" dominant-baseline="middle" stroke="none" fill="black">1000</text>
        <path d="M 120 281.119 L 130 281.119" />
        <path d="M 120 841.77 L 130 841.77" />
        <path d="M 120 489.733 L 130 489.733" />
        <path d="M 120 59.4659 L 130 59.4659" />
        <path d="M 120 724.424 L 130 724.424" />
        <path d="M 120 268.08 L 140 268.08" />
        <text font-size="30" transform="translate(110, 278.08)" text-anchor="end" dominant-baseline="middle" stroke="none" fill="black">5000</text>
        <path d="M 120 607.079 L 130 607.079" />
        <path d="M 120 450.618 L 130 450.618" />
        <path d="M 120 906.962 L 130 906.962" />
        <path d="M 120 98.5811 L 130 98.5811" />
        <path d="M 120 372.387 L 130 372.387" />
        <path d="M 120 411.503 L 130 411.503" />
        <path d="M 120 137.696 L 140 137.696" />
        <text font-size="30" transform="translate(110, 147.696)" text-anchor="end" dominant-baseline="middle" stroke="none" fill="black">6000</text>
        <path d="M 120 672.27 L 130 672.27" />
        <path d="M 120 554.925 L 130 554.925" />
        <path d="M 120 163.773 L 130 163.773" />
        <path d="M 120 528.848 L 140 528.848" />
        <text font-size="30" transform="translate(110, 538.848)" text-anchor="end" dominant-baseline="middle" stroke="none" fill="black">3000</text>
        <path d="M 120 854.808 L 130 854.808" />
        <path d="M 120 176.811 L 130 176.811" />
        <path d="M 120 737.462 L 130 737.462" />
        <path d="M 120 333.272 L 130 333.272" />
        <path d="M 120 620.117 L 130 620.117" />
        <path d="M 120 215.927 L 130 215.927" />
    </g>
    <text id="frame_0_toplabel" font-size="30" transform="translate(535, 32.6)" text-anchor="middle" dominant-baseline="middle" stroke="none" fill="black">bytes.decodeUtf16be</text>
    <g id="frame_0_topticks">
        <path d="M 120 50 L 120 70" />
        <path d="M 136.6 50 L 136.6 60" />
        <path d="M 153.2 50 L 153.2 60" />
        <path d="M 169.8 50 L 169.8 60" />
        <path d="M 186.4 50 L 186.4 60" />
        <path d="M 203 50 L 203 60" />
        <path d="M 219.6 50 L 219.6 60" />
        <path d="M 236.2 50 L 236.2 60" />
        <path d="M 252.8 50 L 252.8 60" />
        <path d="M 269.4 50 L 269.4 60" />
        <path d="M 286 50 L 286 70" />
        <path d="M 302.6 50 L 302.6 60" />
        <path d="M 319.2 50 L 319.2 60" />
        <path d="M 335.8 50 L 335.8 60" />
        <path d="M 352.4 50 L 352.4 60" />
        <path d="M 369 50 L 369 60" />
        <path d="M 385.6 50 L 385.6 60" />
        <path d="M 402.2 50 L 402.2 60" />
        <path d="M 418.8 50 L 418.8 60" />
        <path d="M 435.4 50 L 435.4 60" />
        <path d="M 452 50 L 452 70" />
        <path d="M 468.6 50 L 468.6 60" />
        <path d="M 485.2 50 L 485.2 60" />
        <path d="M 501.8 50 L 501.8 60" />
        <path d="M 518.4 50 L 518.4 60" />
        <path d="M 535 50 L 535 60" />
        <path d="M 551.6 50 L 551.6 60" />
        <path d="M 568.2 50 L 568.2 60" />
        <path d="M 584.8 50 L 584.8 60" />
        <path d="M 601.4 50 L 601.4 60" />
        <path d="M 618 50 L 618 70" />
        <path d="M 634.6 50 L 634.6 60" />
        <path d="M 651.2 50 L 651.2 60" />
        <path d="M 667.8 50 L 667.8 60" />
        <path d="M 684.4 50 L 684.4 60" />
        <path d="M 701 50 L 701 60" />
        <path d="M 717.6 50 L 717.6 60" />
        <path d="M 734.2 50 L 734.2 60" />
        <path d="M 750.8 50 L 750.8 60" />
        <path d="M 767.4 50 L 767.4 60" />
        <path d="M 784 50 L 784 70" />
        <path d="M 800.6 50 L 800.6 60" />
        <path d="M 817.2 50 L 817.2 60" />
        <path d="M 833.8 50 L 833.8 60" />
        <path d="M 850.4 50 L 850.4 60" />
        <path d="M 867 50 L 867 60" />
        <path d="M 883.6 50 L 883.6 60" />
        <path d="M 900.2 50 L 900.2 60" />
        <path d="M 916.8 50 L 916.8 60" />
        <path d="M 933.4 50 L 933.4 60" />
        <path d="M 950 50 L 950 70" />
    </g>
    <g id="frame_0_rightticks">
        <path d="M 950 502.771 L 940 502.771" />
        <path d="M 950 294.157 L 940 294.157" />
        <path d="M 950 802.654 L 940 802.654" />
        <path d="M 950 72.5043 L 940 72.5043" />
        <path d="M 950 920 L 930 920" />
        <path d="M 950 685.309 L 940 685.309" />
        <path d="M 950 463.656 L 940 463.656" />
        <path d="M 950 567.963 L 940 567.963" />
        <path d="M 950 867.846 L 940 867.846" />
        <path d="M 950 424.541 L 940 424.541" />
        <path d="M 950 124.658 L 940 124.658" />
        <path d="M 950 750.501 L 940 750.501" />
        <path d="M 950 633.155 L 940 633.155" />
        <path d="M 950 385.426 L 940 385.426" />
        <path d="M 950 515.81 L 940 515.81" />
        <path d="M 950 815.693 L 940 815.693" />
        <path d="M 950 346.311 L 940 346.311" />
        <path d="M 950 202.888 L 940 202.888" />
        <path d="M 950 698.347 L 940 698.347" />
        <path d="M 950 150.735 L 940 150.735" />
        <path d="M 950 581.002 L 940 581.002" />
        <path d="M 950 307.195 L 940 307.195" />
        <path d="M 950 880.885 L 940 880.885" />
        <path d="M 950 763.539 L 940 763.539" />
        <path d="M 950 476.695 L 940 476.695" />
        <path d="M 950 646.194 L 940 646.194" />
        <path d="M 950 659.232 L 930 659.232" />
        <path d="M 950 111.619 L 940 111.619" />
        <path d="M 950 437.579 L 940 437.579" />
        <path d="M 950 828.731 L 940 828.731" />
        <path d="M 950 711.386 L 940 711.386" />
        <path d="M 950 189.85 L 940 189.85" />
        <path d="M 950 228.965 L 940 228.965" />
        <path d="M 950 594.04 L 940 594.04" />
        <path d="M 950 893.923 L 940 893.923" />
        <path d="M 950 359.349 L 940 359.349" />
        <path d="M 950 776.578 L 940 776.578" />
        <path d="M 950 255.042 L 940 255.042" />
        <path d="M 950 85.5427 L 940 85.5427" />
        <path d="M 950 242.003 L 940 242.003" />
        <path d="M 950 320.234 L 940 320.234" />
        <path d="M 950 398.464 L 930 398.464" />
        <path d="M 950 541.887 L 940 541.887" />
        <path d="M 950 789.616 L 930 789.616" />
        <path d="M 950 281.119 L 940 281.119" />
        <path d="M 950 841.77 L 940 841.77" />
        <path d="M 950 489.733 L 940 489.733" />
        <path d="M 950 59.4659 L 940 59.4659" />
        <path d="M 950 724.424 L 940 724.424" />
        <path d="M 950 268.08 L 930 268.08" />
        <path d="M 950 607.079 L 940 607.079" />
        <path d="M 950 450.618 L 940 450.618" />
        <path d="M 950 906.962 L 940 906.962" />
        <path d="M 950 98.5811 L 940 98.5811" />
        <path d="M 950 372.387 L 940 372.387" />
        <path d="M 950 411.503 L 940 411.503" />
        <path d="M 950 137.696 L 930 137.696" />
        <path d="M 950 672.27 L 940 672.27" />
        <path d="M 950 554.925 L 940 554.925" />
        <path d="M 950 163.773 L 940 163.773" />
        <path d="M 950 528.848 L 930 528.848" />
        <path d="M 950 854.808 L 940 854.808" />
        <path d="M 950 176.811 L 940 176.811" />
        <path d="M 950 737.462 L 940 737.462" />
        <path d="M 950 333.272 L 940 333.272" />
        <path d="M 950 620.117 L 940 620.117" />
        <path d="M 950 215.927 L 940 215.927" />
    </g>
</g>
</g>
</svg>
