<?xml version="1.0" standalone="no"?>
<!DOCTYPE svg PUBLIC "-//W3C//DTD SVG 1.1//EN" "http://www.w3.org/Graphics/SVG/1.1/DTD/svg11.dtd">
<svg style="stroke-linejoin:miter; stroke:black; stroke-width:2.5; text-anchor:middle; fill:none" xmlns="http://www.w3.org/2000/svg" font-family="Helvetica, Arial, FreeSans, Sans, sans, sans-serif" width="1000px" height="1000px" version="1.1" xmlns:xlink="http://www.w3.org/1999/xlink" viewBox="0 0 1000 1000">
<defs>
    <clipPath id="Histogram_0_clip">
        <rect x="120" y="50" width="830" height="870" />
    </clipPath>
    <clipPath id="Histogram_1_clip">
        <rect x="120" y="50" width="830" height="870" />
    </clipPath>
</defs>
<g id="whole_document">
<rect id="background" x="0" y="0" width="1000" height="1000" stroke="none" fill="white" />
<g id="Histogram_0" clip-path="url(#Histogram_0_clip)">
    <path d="M 120 920 L 120 129.091 L 161.5 129.091 L 161.5 920 L 203 920 L 203 715.761 L 244.5 715.761 L 244.5 917.154 L 286 917.154 L 286 915.651 L 327.5 915.651 L 327.5 920 L 369 920 L 369 920 L 410.5 920 L 410.5 920 L 452 920 L 452 920 L 493.5 920 L 493.5 920 L 535 920 L 535 920 L 576.5 920 L 576.5 920 L 618 920 L 618 920 L 659.5 920 L 659.5 920 L 701 920 L 701 920 L 742.5 920 L 742.5 920 L 784 920 L 784 920 L 825.5 920 L 825.5 920 L 867 920 L 867 920 L 908.5 920 L 908.5 920 L 950 920 L 950 920" stroke-width="3" stroke-dasharray="" stroke="black" stroke-opacity="1" fill="DodgerBlue" fill-opacity="1" />
</g>
<g id="Histogram_1" clip-path="url(#Histogram_1_clip)">
    <path d="M 120 920 L 120 920 L 161.5 920 L 161.5 920 L 203 920 L 203 715.761 L 244.5 715.761 L 244.5 917.154 L 286 917.154 L 286 915.651 L 327.5 915.651 L 327.5 920 L 369 920 L 369 920 L 410.5 920 L 410.5 920 L 452 920 L 452 920 L 493.5 920 L 493.5 920 L 535 920 L 535 920 L 576.5 920 L 576.5 920 L 618 920 L 618 920 L 659.5 920 L 659.5 920 L 701 920 L 701 920 L 742.5 920 L 742.5 920 L 784 920 L 784 920 L 825.5 920 L 825.5 920 L 867 920 L 867 920 L 908.5 920 L 908.5 920 L 950 920 L 950 920" stroke-width="3" stroke-dasharray="" stroke="black" stroke-opacity="1" fill="darkorange" fill-opacity="1" />
</g>
<g id="frame_0">
    <rect id="frame_0_border" x="120" y="50" width="830" height="870" />
    <text id="frame_0_bottomlabel" font-size="30" transform="translate(535, 989.6)" text-anchor="middle" dominant-baseline="middle" stroke="none" fill="black">microseconds</text>
    <g id="frame_0_bottomticks">
        <path d="M 120 920 L 120 900" />
        <text font-size="30" transform="translate(120, 950)" text-anchor="middle" dominant-baseline="middle" stroke="none" fill="black">0</text>
        <path d="M 136.6 920 L 136.6 910" />
        <path d="M 153.2 920 L 153.2 910" />
        <path d="M 169.8 920 L 169.8 910" />
        <path d="M 186.4 920 L 186.4 910" />
        <path d="M 203 920 L 203 910" />
        <path d="M 219.6 920 L 219.6 910" />
        <path d="M 236.2 920 L 236.2 910" />
        <path d="M 252.8 920 L 252.8 910" />
        <path d="M 269.4 920 L 269.4 910" />
        <path d="M 286 920 L 286 900" />
        <text font-size="30" transform="translate(286, 950)" text-anchor="middle" dominant-baseline="middle" stroke="none" fill="black">10</text>
        <path d="M 302.6 920 L 302.6 910" />
        <path d="M 319.2 920 L 319.2 910" />
        <path d="M 335.8 920 L 335.8 910" />
        <path d="M 352.4 920 L 352.4 910" />
        <path d="M 369 920 L 369 910" />
        <path d="M 385.6 920 L 385.6 910" />
        <path d="M 402.2 920 L 402.2 910" />
        <path d="M 418.8 920 L 418.8 910" />
        <path d="M 435.4 920 L 435.4 910" />
        <path d="M 452 920 L 452 900" />
        <text font-size="30" transform="translate(452, 950)" text-anchor="middle" dominant-baseline="middle" stroke="none" fill="black">20</text>
        <path d="M 468.6 920 L 468.6 910" />
        <path d="M 485.2 920 L 485.2 910" />
        <path d="M 501.8 920 L 501.8 910" />
        <path d="M 518.4 920 L 518.4 910" />
        <path d="M 535 920 L 535 910" />
        <path d="M 551.6 920 L 551.6 910" />
        <path d="M 568.2 920 L 568.2 910" />
        <path d="M 584.8 920 L 584.8 910" />
        <path d="M 601.4 920 L 601.4 910" />
        <path d="M 618 920 L 618 900" />
        <text font-size="30" transform="translate(618, 950)" text-anchor="middle" dominant-baseline="middle" stroke="none" fill="black">30</text>
        <path d="M 634.6 920 L 634.6 910" />
        <path d="M 651.2 920 L 651.2 910" />
        <path d="M 667.8 920 L 667.8 910" />
        <path d="M 684.4 920 L 684.4 910" />
        <path d="M 701 920 L 701 910" />
        <path d="M 717.6 920 L 717.6 910" />
        <path d="M 734.2 920 L 734.2 910" />
        <path d="M 750.8 920 L 750.8 910" />
        <path d="M 767.4 920 L 767.4 910" />
        <path d="M 784 920 L 784 900" />
        <text font-size="30" transform="translate(784, 950)" text-anchor="middle" dominant-baseline="middle" stroke="none" fill="black">40</text>
        <path d="M 800.6 920 L 800.6 910" />
        <path d="M 817.2 920 L 817.2 910" />
        <path d="M 833.8 920 L 833.8 910" />
        <path d="M 850.4 920 L 850.4 910" />
        <path d="M 867 920 L 867 910" />
        <path d="M 883.6 920 L 883.6 910" />
        <path d="M 900.2 920 L 900.2 910" />
        <path d="M 916.8 920 L 916.8 910" />
        <path d="M 933.4 920 L 933.4 910" />
        <path d="M 950 920 L 950 900" />
        <text font-size="30" transform="translate(950, 950)" text-anchor="middle" dominant-baseline="middle" stroke="none" fill="black">50</text>
    </g>
    <g id="frame_0_leftticks">
        <path d="M 120 736.404 L 130 736.404" />
        <path d="M 120 644.606 L 130 644.606" />
        <path d="M 120 162.666 L 130 162.666" />
        <path d="M 120 610.182 L 130 610.182" />
        <path d="M 120 197.09 L 130 197.09" />
        <path d="M 120 679.03 L 130 679.03" />
        <path d="M 120 529.858 L 130 529.858" />
        <path d="M 120 265.939 L 130 265.939" />
        <path d="M 120 621.656 L 130 621.656" />
        <path d="M 120 839.677 L 130 839.677" />
        <path d="M 120 380.686 L 130 380.686" />
        <path d="M 120 139.717 L 130 139.717" />
        <path d="M 120 747.879 L 130 747.879" />
        <path d="M 120 231.515 L 140 231.515" />
        <text font-size="30" transform="translate(110, 241.515)" text-anchor="end" dominant-baseline="middle" stroke="none" fill="black">60000</text>
        <path d="M 120 254.464 L 130 254.464" />
        <path d="M 120 920 L 140 920" />
        <text font-size="30" transform="translate(110, 930)" text-anchor="end" dominant-baseline="middle" stroke="none" fill="black">0</text>
        <path d="M 120 587.232 L 130 587.232" />
        <path d="M 120 564.283 L 130 564.283" />
        <path d="M 120 472.484 L 130 472.484" />
        <path d="M 120 874.101 L 130 874.101" />
        <path d="M 120 667.555 L 130 667.555" />
        <path d="M 120 415.111 L 130 415.111" />
        <path d="M 120 805.252 L 140 805.252" />
        <text font-size="30" transform="translate(110, 815.252)" text-anchor="end" dominant-baseline="middle" stroke="none" fill="black">10000</text>
        <path d="M 120 242.989 L 130 242.989" />
        <path d="M 120 816.727 L 130 816.727" />
        <path d="M 120 575.757 L 140 575.757" />
        <text font-size="30" transform="translate(110, 585.757)" text-anchor="end" dominant-baseline="middle" stroke="none" fill="black">30000</text>
        <path d="M 120 461.01 L 140 461.01" />
        <text font-size="30" transform="translate(110, 471.01)" text-anchor="end" dominant-baseline="middle" stroke="none" fill="black">40000</text>
        <path d="M 120 506.909 L 130 506.909" />
        <path d="M 120 128.242 L 130 128.242" />
        <path d="M 120 759.353 L 130 759.353" />
        <path d="M 120 862.626 L 130 862.626" />
        <path d="M 120 449.535 L 130 449.535" />
        <path d="M 120 701.98 L 130 701.98" />
        <path d="M 120 151.191 L 130 151.191" />
        <path d="M 120 116.767 L 140 116.767" />
        <text font-size="30" transform="translate(110, 126.767)" text-anchor="end" dominant-baseline="middle" stroke="none" fill="black">70000</text>
        <path d="M 120 357.737 L 130 357.737" />
        <path d="M 120 541.333 L 130 541.333" />
        <path d="M 120 828.202 L 130 828.202" />
        <path d="M 120 598.707 L 130 598.707" />
        <path d="M 120 633.131 L 130 633.131" />
        <path d="M 120 220.04 L 130 220.04" />
        <path d="M 120 105.292 L 130 105.292" />
        <path d="M 120 770.828 L 130 770.828" />
        <path d="M 120 483.959 L 130 483.959" />
        <path d="M 120 323.313 L 130 323.313" />
        <path d="M 120 334.787 L 130 334.787" />
        <path d="M 120 897.05 L 130 897.05" />
        <path d="M 120 885.576 L 130 885.576" />
        <path d="M 120 690.505 L 140 690.505" />
        <text font-size="30" transform="translate(110, 700.505)" text-anchor="end" dominant-baseline="middle" stroke="none" fill="black">20000</text>
        <path d="M 120 426.585 L 130 426.585" />
        <path d="M 120 185.616 L 130 185.616" />
        <path d="M 120 93.8175 L 130 93.8175" />
        <path d="M 120 656.081 L 130 656.081" />
        <path d="M 120 311.838 L 130 311.838" />
        <path d="M 120 518.384 L 130 518.384" />
        <path d="M 120 277.414 L 130 277.414" />
        <path d="M 120 782.303 L 130 782.303" />
        <path d="M 120 713.454 L 130 713.454" />
        <path d="M 120 369.212 L 130 369.212" />
        <path d="M 120 82.3427 L 130 82.3427" />
        <path d="M 120 300.363 L 130 300.363" />
        <path d="M 120 908.525 L 130 908.525" />
        <path d="M 120 208.565 L 130 208.565" />
        <path d="M 120 438.06 L 130 438.06" />
        <path d="M 120 552.808 L 130 552.808" />
        <path d="M 120 70.868 L 130 70.868" />
        <path d="M 120 851.151 L 130 851.151" />
        <path d="M 120 724.929 L 130 724.929" />
        <path d="M 120 288.888 L 130 288.888" />
        <path d="M 120 403.636 L 130 403.636" />
        <path d="M 120 346.262 L 140 346.262" />
        <text font-size="30" transform="translate(110, 356.262)" text-anchor="end" dominant-baseline="middle" stroke="none" fill="black">50000</text>
        <path d="M 120 793.778 L 130 793.778" />
        <path d="M 120 174.141 L 130 174.141" />
        <path d="M 120 495.434 L 130 495.434" />
        <path d="M 120 59.3932 L 130 59.3932" />
        <path d="M 120 392.161 L 130 392.161" />
    </g>
    <text id="frame_0_toplabel" font-size="30" transform="translate(535, 32.6)" text-anchor="middle" dominant-baseline="middle" stroke="none" fill="black">m.log</text>
    <g id="frame_0_topticks">
        <path d="M 120 50 L 120 70" />
        <path d="M 136.6 50 L 136.6 60" />
        <path d="M 153.2 50 L 153.2 60" />
        <path d="M 169.8 50 L 169.8 60" />
        <path d="M 186.4 50 L 186.4 60" />
        <path d="M 203 50 L 203 60" />
        <path d="M 219.6 50 L 219.6 60" />
        <path d="M 236.2 50 L 236.2 60" />
        <path d="M 252.8 50 L 252.8 60" />
        <path d="M 269.4 50 L 269.4 60" />
        <path d="M 286 50 L 286 70" />
        <path d="M 302.6 50 L 302.6 60" />
        <path d="M 319.2 50 L 319.2 60" />
        <path d="M 335.8 50 L 335.8 60" />
        <path d="M 352.4 50 L 352.4 60" />
        <path d="M 369 50 L 369 60" />
        <path d="M 385.6 50 L 385.6 60" />
        <path d="M 402.2 50 L 402.2 60" />
        <path d="M 418.8 50 L 418.8 60" />
        <path d="M 435.4 50 L 435.4 60" />
        <path d="M 452 50 L 452 70" />
        <path d="M 468.6 50 L 468.6 60" />
        <path d="M 485.2 50 L 485.2 60" />
        <path d="M 501.8 50 L 501.8 60" />
        <path d="M 518.4 50 L 518.4 60" />
        <path d="M 535 50 L 535 60" />
        <path d="M 551.6 50 L 551.6 60" />
        <path d="M 568.2 50 L 568.2 60" />
        <path d="M 584.8 50 L 584.8 60" />
        <path d="M 601.4 50 L 601.4 60" />
        <path d="M 618 50 L 618 70" />
        <path d="M 634.6 50 L 634.6 60" />
        <path d="M 651.2 50 L 651.2 60" />
        <path d="M 667.8 50 L 667.8 60" />
        <path d="M 684.4 50 L 684.4 60" />
        <path d="M 701 50 L 701 60" />
        <path d="M 717.6 50 L 717.6 60" />
        <path d="M 734.2 50 L 734.2 60" />
        <path d="M 750.8 50 L 750.8 60" />
        <path d="M 767.4 50 L 767.4 60" />
        <path d="M 784 50 L 784 70" />
        <path d="M 800.6 50 L 800.6 60" />
        <path d="M 817.2 50 L 817.2 60" />
        <path d="M 833.8 50 L 833.8 60" />
        <path d="M 850.4 50 L 850.4 60" />
        <path d="M 867 50 L 867 60" />
        <path d="M 883.6 50 L 883.6 60" />
        <path d="M 900.2 50 L 900.2 60" />
        <path d="M 916.8 50 L 916.8 60" />
        <path d="M 933.4 50 L 933.4 60" />
        <path d="M 950 50 L 950 70" />
    </g>
    <g id="frame_0_rightticks">
        <path d="M 950 736.404 L 940 736.404" />
        <path d="M 950 644.606 L 940 644.606" />
        <path d="M 950 162.666 L 940 162.666" />
        <path d="M 950 610.182 L 940 610.182" />
        <path d="M 950 197.09 L 940 197.09" />
        <path d="M 950 679.03 L 940 679.03" />
        <path d="M 950 529.858 L 940 529.858" />
        <path d="M 950 265.939 L 940 265.939" />
        <path d="M 950 621.656 L 940 621.656" />
        <path d="M 950 839.677 L 940 839.677" />
        <path d="M 950 380.686 L 940 380.686" />
        <path d="M 950 139.717 L 940 139.717" />
        <path d="M 950 747.879 L 940 747.879" />
        <path d="M 950 231.515 L 930 231.515" />
        <path d="M 950 254.464 L 940 254.464" />
        <path d="M 950 920 L 930 920" />
        <path d="M 950 587.232 L 940 587.232" />
        <path d="M 950 564.283 L 940 564.283" />
        <path d="M 950 472.484 L 940 472.484" />
        <path d="M 950 874.101 L 940 874.101" />
        <path d="M 950 667.555 L 940 667.555" />
        <path d="M 950 415.111 L 940 415.111" />
        <path d="M 950 805.252 L 930 805.252" />
        <path d="M 950 242.989 L 940 242.989" />
        <path d="M 950 816.727 L 940 816.727" />
        <path d="M 950 575.757 L 930 575.757" />
        <path d="M 950 461.01 L 930 461.01" />
        <path d="M 950 506.909 L 940 506.909" />
        <path d="M 950 128.242 L 940 128.242" />
        <path d="M 950 759.353 L 940 759.353" />
        <path d="M 950 862.626 L 940 862.626" />
        <path d="M 950 449.535 L 940 449.535" />
        <path d="M 950 701.98 L 940 701.98" />
        <path d="M 950 151.191 L 940 151.191" />
        <path d="M 950 116.767 L 930 116.767" />
        <path d="M 950 357.737 L 940 357.737" />
        <path d="M 950 541.333 L 940 541.333" />
        <path d="M 950 828.202 L 940 828.202" />
        <path d="M 950 598.707 L 940 598.707" />
        <path d="M 950 633.131 L 940 633.131" />
        <path d="M 950 220.04 L 940 220.04" />
        <path d="M 950 105.292 L 940 105.292" />
        <path d="M 950 770.828 L 940 770.828" />
        <path d="M 950 483.959 L 940 483.959" />
        <path d="M 950 323.313 L 940 323.313" />
        <path d="M 950 334.787 L 940 334.787" />
        <path d="M 950 897.05 L 940 897.05" />
        <path d="M 950 885.576 L 940 885.576" />
        <path d="M 950 690.505 L 930 690.505" />
        <path d="M 950 426.585 L 940 426.585" />
        <path d="M 950 185.616 L 940 185.616" />
        <path d="M 950 93.8175 L 940 93.8175" />
        <path d="M 950 656.081 L 940 656.081" />
        <path d="M 950 311.838 L 940 311.838" />
        <path d="M 950 518.384 L 940 518.384" />
        <path d="M 950 277.414 L 940 277.414" />
        <path d="M 950 782.303 L 940 782.303" />
        <path d="M 950 713.454 L 940 713.454" />
        <path d="M 950 369.212 L 940 369.212" />
        <path d="M 950 82.3427 L 940 82.3427" />
        <path d="M 950 300.363 L 940 300.363" />
        <path d="M 950 908.525 L 940 908.525" />
        <path d="M 950 208.565 L 940 208.565" />
        <path d="M 950 438.06 L 940 438.06" />
        <path d="M 950 552.808 L 940 552.808" />
        <path d="M 950 70.868 L 940 70.868" />
        <path d="M 950 851.151 L 940 851.151" />
        <path d="M 950 724.929 L 940 724.929" />
        <path d="M 950 288.888 L 940 288.888" />
        <path d="M 950 403.636 L 940 403.636" />
        <path d="M 950 346.262 L 930 346.262" />
        <path d="M 950 793.778 L 940 793.778" />
        <path d="M 950 174.141 L 940 174.141" />
        <path d="M 950 495.434 L 940 495.434" />
        <path d="M 950 59.3932 L 940 59.3932" />
        <path d="M 950 392.161 L 940 392.161" />
    </g>
</g>
</g>
</svg>
